<?xml version="1.0" standalone="no"?>
<!DOCTYPE svg PUBLIC "-//W3C//DTD SVG 1.1//EN" "http://www.w3.org/Graphics/SVG/1.1/DTD/svg11.dtd" >
<svg xmlns="http://www.w3.org/2000/svg" xmlns:xlink="http://www.w3.org/1999/xlink" version="1.1">
<metadata>
Created by FontForge 20170910 at Thu Oct 16 15:27:52 2008
 By Jimmy Wärting
Copyright (C) 2005, 2008 Hoefler &#38; Frere-Jones. http://www.typography.com
</metadata>
<defs>
<font id="GothamCondensed-BoldItalic" horiz-adv-x="240" >
  <font-face 
    font-family="Gotham Condensed Bold"
    font-weight="400"
    font-style="italic"
    font-stretch="condensed"
    units-per-em="1000"
    panose-1="0 0 0 0 0 0 0 0 0 0"
    ascent="800"
    descent="-200"
    x-height="536"
    cap-height="700"
    bbox="-212 -225 793 937"
    underline-thickness="50"
    underline-position="-100"
    slope="-12"
    stemh="116"
    stemv="122"
    unicode-range="U+0020-FB04"
  />
<missing-glyph horiz-adv-x="500" 
d="M0 -200v1000h500v-1000h-500zM50 -76l172 376l-172 376v-752zM71 -150h358l-179 390zM250 360l179 390h-358zM450 -76v752l-172 -376z" />
    <glyph glyph-name="f_f" unicode="ff" horiz-adv-x="460" 
d="M-6 0l86 440h-33l18 96h33l11 50c8 37 22 66 42 86c23 23 55 35 95 35c22 0 46 -3 63 -9l-19 -97c-10 2 -18 3 -24 3c-25 0 -40 -15 -46 -47l-4 -21h61l-18 -96h-61l-86 -440h-118zM224 0l86 440h-33l18 96h33l11 50c8 37 22 66 42 86c23 23 55 35 95 35
c22 0 46 -3 63 -9l-19 -97c-10 2 -18 3 -24 3c-25 0 -40 -15 -46 -47l-4 -21h61l-18 -96h-61l-86 -440h-118z" />
    <glyph glyph-name="fi" unicode="fi" horiz-adv-x="420" 
d="M-6 0l86 440h-33l18 96h33l11 50c8 37 22 66 42 86c23 23 55 35 95 35c22 0 46 -3 63 -9l-19 -97c-10 2 -18 3 -24 3c-25 0 -40 -15 -46 -47l-4 -21h61l-18 -96h-61l-86 -440h-118zM216 0l104 536h118l-104 -536h-118zM329 587l23 118h120l-23 -118h-120z" />
    <glyph glyph-name="fl" unicode="fl" horiz-adv-x="421" 
d="M-6 0l86 440h-33l18 96h33l11 50c8 37 22 66 42 86c23 23 55 35 95 35c22 0 46 -3 63 -9l-19 -97c-10 2 -18 3 -24 3c-25 0 -40 -15 -46 -47l-4 -21h61l-18 -96h-61l-86 -440h-118zM217 0l137 705h118l-137 -705h-118z" />
    <glyph glyph-name="f_f_i" unicode="ffi" horiz-adv-x="650" 
d="M-6 0l86 440h-33l18 96h33l11 50c8 37 22 66 42 86c23 23 55 35 95 35c22 0 46 -3 63 -9l-19 -97c-10 2 -18 3 -24 3c-25 0 -40 -15 -46 -47l-4 -21h61l-18 -96h-61l-86 -440h-118zM224 0l86 440h-33l18 96h33l11 50c8 37 22 66 42 86c23 23 55 35 95 35
c22 0 46 -3 63 -9l-19 -97c-10 2 -18 3 -24 3c-25 0 -40 -15 -46 -47l-4 -21h61l-18 -96h-61l-86 -440h-118zM446 0l104 536h118l-104 -536h-118zM559 587l23 118h120l-23 -118h-120z" />
    <glyph glyph-name="f_f_l" unicode="ffl" horiz-adv-x="651" 
d="M-6 0l86 440h-33l18 96h33l11 50c8 37 22 66 42 86c23 23 55 35 95 35c22 0 46 -3 63 -9l-19 -97c-10 2 -18 3 -24 3c-25 0 -40 -15 -46 -47l-4 -21h61l-18 -96h-61l-86 -440h-118zM224 0l86 440h-33l18 96h33l11 50c8 37 22 66 42 86c23 23 55 35 95 35
c22 0 46 -3 63 -9l-19 -97c-10 2 -18 3 -24 3c-25 0 -40 -15 -46 -47l-4 -21h61l-18 -96h-61l-86 -440h-118zM447 0l137 705h118l-137 -705h-118z" />
    <glyph glyph-name=".notdef" horiz-adv-x="500" 
d="M0 -200v1000h500v-1000h-500zM50 -76l172 376l-172 376v-752zM71 -150h358l-179 390zM250 360l179 390h-358zM450 -76v752l-172 -376z" />
    <glyph glyph-name="A" unicode="A" horiz-adv-x="398" 
d="M-51 0l269 702h130l-3 -702h-124l4 139h-110l-50 -139h-116zM153 249h75l7 231z" />
    <glyph glyph-name="B" unicode="B" horiz-adv-x="394" 
d="M-16 0l136 700h85c132 0 211 -59 211 -165c0 -92 -54 -157 -133 -181c52 -26 84 -73 84 -136c0 -123 -91 -218 -250 -218h-133zM126 113h3c68 0 116 36 116 111c0 44 -26 76 -79 76h-3zM183 406h4c86 0 109 66 109 112s-25 69 -76 69h-2z" />
    <glyph glyph-name="C" unicode="C" horiz-adv-x="336" 
d="M188 -5c-95 0 -163 56 -163 219c0 105 35 335 138 438c42 42 88 54 128 54c38 0 71 -10 99 -25l-25 -126c-33 26 -53 32 -71 32c-20 0 -35 -8 -47 -20c-64 -64 -100 -276 -100 -349c0 -77 23 -104 70 -104c18 0 40 5 68 17l-23 -120c-21 -9 -46 -16 -74 -16z" />
    <glyph glyph-name="D" unicode="D" horiz-adv-x="419" 
d="M-16 0l136 700h93c67 0 114 -17 150 -53c35 -35 58 -99 58 -184c0 -123 -41 -306 -127 -392c-50 -50 -113 -71 -186 -71h-124zM272 571c-14 14 -30 17 -47 17h-5l-92 -476h5c28 0 52 9 76 33c61 61 92 249 92 317c0 34 -2 82 -29 109z" />
    <glyph glyph-name="E" unicode="E" horiz-adv-x="330" 
d="M-16 0l136 700h268l-22 -116h-146l-34 -174h129l-23 -116h-129l-34 -178h149l-23 -116h-271z" />
    <glyph glyph-name="F" unicode="F" horiz-adv-x="310" 
d="M-16 0l136 700h255l-22 -116h-133l-35 -176h116l-22 -116h-116l-57 -292h-122z" />
    <glyph glyph-name="G" unicode="G" horiz-adv-x="405" 
d="M224 -10c-114 0 -196 70 -196 243c0 111 36 304 141 409c45 45 96 68 155 68c52 0 88 -16 107 -29l-24 -123c-31 22 -54 35 -87 35c-24 0 -47 -10 -67 -30c-79 -79 -103 -264 -103 -329c0 -97 34 -131 67 -131c4 0 9 0 14 1l36 184h-60l21 109h171l-75 -387
c-29 -12 -65 -20 -100 -20z" />
    <glyph glyph-name="H" unicode="H" horiz-adv-x="422" 
d="M-16 0l136 700h122l-56 -290h106l56 290h122l-136 -700h-122l57 294h-106l-57 -294h-122z" />
    <glyph glyph-name="I" unicode="I" horiz-adv-x="198" 
d="M-14 0l136 700h122l-136 -700h-122z" />
    <glyph glyph-name="J" unicode="J" horiz-adv-x="295" 
d="M69 -6c-37 0 -75 11 -101 23l23 121c26 -16 49 -25 70 -25c17 0 29 5 38 14c12 12 18 35 22 55l101 518h123l-105 -538c-10 -49 -24 -91 -58 -125c-27 -27 -64 -43 -113 -43z" />
    <glyph glyph-name="K" unicode="K" horiz-adv-x="403" 
d="M-16 0l136 700h122l-58 -298l161 298h134l-179 -313l43 -387h-129l-23 271l-50 -87l-35 -184h-122z" />
    <glyph glyph-name="L" unicode="L" horiz-adv-x="300" 
d="M-16 0l136 700h122l-113 -584h129l-23 -116h-251z" />
    <glyph glyph-name="M" unicode="M" horiz-adv-x="486" 
d="M-16 0l136 700h119l35 -262l137 262h123l-136 -700h-117l82 424l-140 -266h-2l-38 266l-82 -424h-117z" />
    <glyph glyph-name="N" unicode="N" horiz-adv-x="428" 
d="M-16 0l136 700h108l58 -370l73 370h117l-136 -700h-105l-59 388l-75 -388h-117z" />
    <glyph glyph-name="O" unicode="O" horiz-adv-x="420" 
d="M280 710c118 0 151 -100 151 -210c0 -122 -44 -360 -142 -458c-37 -37 -76 -52 -118 -52c-118 0 -151 100 -151 210c0 122 44 360 142 458c37 37 76 52 118 52zM179 102c9 0 18 4 27 13c57 56 103 327 103 411c0 52 -12 72 -37 72c-9 0 -18 -4 -27 -13
c-57 -56 -103 -327 -103 -411c0 -52 12 -72 37 -72z" />
    <glyph glyph-name="P" unicode="P" horiz-adv-x="385" 
d="M-16 0l136 700h96c61 0 111 -18 145 -52c32 -32 52 -80 52 -143c0 -71 -23 -157 -83 -217c-48 -48 -112 -68 -180 -68h-1l-43 -220h-122zM268 570c-10 10 -25 17 -43 17h-5l-49 -254h2c25 0 49 8 71 30c33 33 47 94 47 138c0 31 -9 55 -23 69z" />
    <glyph glyph-name="Q" unicode="Q" horiz-adv-x="427" 
d="M282 710c116 0 149 -108 149 -213c0 -101 -32 -281 -104 -397l50 -57l-68 -59l-37 49c-31 -28 -64 -43 -103 -43c-116 0 -149 108 -149 213c0 119 46 355 145 454c37 37 76 53 117 53zM186 101c6 0 16 1 26 10l-47 58l63 57l25 -33c35 111 58 287 58 331
c0 54 -12 74 -38 74c-8 0 -19 -4 -28 -13c-57 -56 -105 -331 -105 -409c0 -54 14 -75 46 -75z" />
    <glyph glyph-name="Q.alt" horiz-adv-x="427" 
d="M282 710c116 0 149 -108 149 -213c0 -101 -32 -281 -104 -397l50 -57l-68 -59l-37 49c-31 -28 -64 -43 -103 -43c-116 0 -149 108 -149 213c0 119 46 355 145 454c37 37 76 53 117 53zM186 101c6 0 16 1 26 10l-47 58l63 57l25 -33c35 111 58 287 58 331
c0 54 -12 74 -38 74c-8 0 -19 -4 -28 -13c-57 -56 -105 -331 -105 -409c0 -54 14 -75 46 -75z" />
    <glyph glyph-name="R" unicode="R" horiz-adv-x="398" 
d="M212 0l-32 244h-16h-11l-47 -244h-122l136 700h86c86 0 134 -21 164 -51c35 -35 50 -79 50 -138c0 -68 -24 -144 -78 -198c-12 -12 -26 -23 -43 -32l38 -281h-125zM174 354h6c31 0 57 9 77 29c26 26 41 75 41 125c0 26 -7 46 -20 59s-32 19 -55 19h-3z" />
    <glyph glyph-name="S" unicode="S" horiz-adv-x="325" 
d="M116 -5c-51 0 -96 15 -138 44l24 125c29 -24 67 -54 110 -54c42 0 69 33 69 82c0 25 -9 56 -50 120c-46 74 -74 129 -74 199c0 53 21 108 54 141c39 39 84 53 129 53c42 0 83 -11 123 -37l-24 -125c-29 24 -60 47 -96 47c-41 0 -64 -32 -64 -71c0 -26 12 -64 43 -114
c56 -90 81 -140 81 -204c0 -48 -11 -106 -60 -155c-27 -27 -68 -51 -127 -51z" />
    <glyph glyph-name="T" unicode="T" horiz-adv-x="324" 
d="M49 0l114 584h-86l22 116h294l-22 -116h-86l-114 -584h-122z" />
    <glyph glyph-name="U" unicode="U" horiz-adv-x="416" 
d="M174 -9c-91 0 -156 55 -156 157c0 22 2 45 7 72l93 480h121l-91 -470c-8 -40 -10 -62 -10 -75c0 -36 22 -50 44 -50c16 0 27 6 35 14c14 14 22 34 29 69l99 512h121l-99 -510c-12 -64 -34 -116 -68 -150s-79 -49 -125 -49z" />
    <glyph glyph-name="V" unicode="V" horiz-adv-x="378" 
d="M74 -2l11 702h122l-23 -456l155 456h122l-261 -702h-126z" />
    <glyph glyph-name="W" unicode="W" horiz-adv-x="592" 
d="M57 -2l30 702h123l-32 -429l144 429h113l-23 -429l135 429h124l-242 -702h-128l22 415l-138 -415h-128z" />
    <glyph glyph-name="X" unicode="X" horiz-adv-x="392" 
d="M-44 0l184 359l-44 341h126l16 -201l95 201h131l-179 -345l46 -355h-126l-18 211l-101 -211h-130z" />
    <glyph glyph-name="Y" unicode="Y" horiz-adv-x="382" 
d="M78 0l54 276l-48 424h123l15 -262l118 262h126l-212 -424l-54 -276h-122z" />
    <glyph glyph-name="Z" unicode="Z" horiz-adv-x="334" 
d="M-29 0l20 101l245 484h-151l22 115h289l-20 -101l-245 -484h157l-22 -115h-295z" />
    <glyph glyph-name="a" unicode="a" horiz-adv-x="350" 
d="M69 -8c-46 0 -79 41 -79 115c0 57 20 150 66 196c23 23 50 33 80 33c28 0 54 -10 77 -26l4 20c3 15 5 28 5 40c0 45 -25 62 -66 62c-25 0 -53 -7 -88 -21l22 112c33 12 59 19 95 19c98 0 154 -54 154 -152c0 -20 -2 -41 -10 -84l-60 -306h-118l10 54
c-26 -40 -59 -62 -92 -62zM132 88c21 0 42 18 48 52l17 89c-13 9 -25 14 -38 14c-8 0 -16 -3 -23 -10c-25 -25 -32 -87 -32 -103c0 -32 12 -42 28 -42z" />
    <glyph glyph-name="a.alt" horiz-adv-x="386" 
d="M93 -10c-51 0 -82 43 -82 144c0 128 46 316 112 382c22 22 44 30 68 30c49 0 73 -42 83 -75l13 65h118l-104 -536h-118l13 67c-29 -41 -61 -77 -103 -77zM160 103c9 0 15 3 22 10c39 39 66 206 66 262c0 37 -7 58 -28 58c-9 0 -15 -3 -22 -10c-39 -39 -66 -206 -66 -262
c0 -37 7 -58 28 -58z" />
    <glyph glyph-name="b" unicode="b" horiz-adv-x="386" 
d="M195 -10c-49 0 -73 42 -83 75l-13 -65h-118l137 705h118l-46 -236c29 41 61 77 103 77c51 0 82 -43 82 -144c0 -128 -46 -316 -112 -382c-22 -22 -44 -30 -68 -30zM166 103c9 0 15 3 22 10c39 39 66 206 66 262c0 37 -7 58 -28 58c-9 0 -15 -3 -22 -10
c-39 -39 -66 -206 -66 -262c0 -37 7 -58 28 -58z" />
    <glyph glyph-name="c" unicode="c" horiz-adv-x="286" 
d="M159 -10c-88 0 -145 60 -145 183c0 87 30 250 106 326c36 36 77 45 109 45c34 0 66 -11 87 -23l-24 -121c-21 18 -37 29 -56 29c-14 0 -26 -5 -37 -16c-44 -44 -66 -179 -66 -236c0 -55 22 -72 53 -72c14 0 30 4 51 12l-22 -116c-18 -7 -37 -11 -56 -11z" />
    <glyph glyph-name="d" unicode="d" horiz-adv-x="386" 
d="M183 0l13 67c-29 -41 -61 -77 -103 -77c-51 0 -82 43 -82 144c0 128 46 316 112 382c22 22 44 30 68 30c49 0 73 -42 83 -75l46 234h118l-137 -705h-118zM160 103c9 0 15 3 22 10c39 39 66 206 66 262c0 37 -7 58 -28 58c-9 0 -15 -3 -22 -10c-39 -39 -66 -206 -66 -262
c0 -37 7 -58 28 -58z" />
    <glyph glyph-name="e" unicode="e" horiz-adv-x="350" 
d="M324 213h-197c-1 -14 -2 -25 -2 -32c0 -62 25 -81 67 -81c26 0 52 7 95 28l-12 -109c-32 -19 -69 -29 -103 -29c-92 0 -160 57 -160 191c0 67 23 232 108 317c32 32 70 46 106 46c75 0 121 -58 121 -160c0 -44 -5 -83 -23 -171zM192 429c-21 -21 -38 -72 -49 -123h88
c7 33 11 61 11 83c0 32 -10 50 -28 50c-7 0 -15 -3 -22 -10z" />
    <glyph glyph-name="f" unicode="f" horiz-adv-x="230" 
d="M-6 0l86 440h-33l18 96h33l11 50c8 37 22 66 42 86c23 23 55 35 95 35c22 0 46 -3 63 -9l-19 -97c-10 2 -18 3 -24 3c-25 0 -40 -15 -46 -47l-4 -21h61l-18 -96h-61l-86 -440h-118z" />
    <glyph glyph-name="g" unicode="g" horiz-adv-x="386" 
d="M107 -132c-55 0 -92 9 -131 23l21 109c33 -15 76 -27 106 -27c29 0 49 7 63 21c13 13 23 35 28 63l10 52c-31 -46 -63 -77 -105 -77c-48 0 -80 41 -80 147c0 117 41 273 105 337c21 21 43 30 66 30c49 0 73 -42 85 -75l12 65h118l-98 -502c-9 -48 -27 -87 -55 -115
c-33 -33 -80 -51 -145 -51zM167 145c7 0 14 3 21 10c40 40 61 169 61 229c0 32 -8 49 -28 49c-7 0 -14 -3 -21 -10c-40 -40 -61 -169 -61 -229c0 -32 8 -49 28 -49z" />
    <glyph glyph-name="h" unicode="h" horiz-adv-x="379" 
d="M-19 0l137 705h118l-45 -233c30 44 64 74 105 74c56 0 84 -40 84 -94c0 -18 -2 -33 -6 -56l-77 -396h-118l70 358c4 22 6 33 6 45c0 23 -11 37 -30 37c-24 0 -45 -24 -52 -61l-74 -379h-118z" />
    <glyph glyph-name="i" unicode="i" horiz-adv-x="186" 
d="M-18 0l104 536h118l-104 -536h-118zM95 587l23 118h120l-23 -118h-120z" />
    <glyph glyph-name="j" unicode="j" horiz-adv-x="188" 
d="M-28 -133c-25 0 -46 3 -66 8l17 92c10 -3 19 -4 24 -4c25 0 33 16 39 45l102 528h118l-107 -548c-17 -86 -60 -121 -127 -121zM97 587l23 118h120l-23 -118h-120z" />
    <glyph glyph-name="k" unicode="k" horiz-adv-x="357" 
d="M-19 0l137 705h118l-71 -360l113 191h131l-141 -225l29 -311h-122l-12 208l-36 -62l-28 -146h-118z" />
    <glyph glyph-name="l" unicode="l" horiz-adv-x="186" 
d="M-18 0l137 705h118l-137 -705h-118z" />
    <glyph glyph-name="m" unicode="m" horiz-adv-x="576" 
d="M-19 0l104 536h118l-12 -64c30 44 64 74 104 74c45 0 71 -26 80 -65c37 46 76 65 116 65c55 0 83 -40 83 -94c0 -18 -2 -33 -6 -56l-77 -396h-118l70 358c4 22 6 33 6 45c0 23 -10 37 -29 37c-24 0 -44 -24 -51 -61l-74 -379h-118l70 358c4 22 6 33 6 45
c0 23 -10 37 -29 37c-24 0 -44 -24 -51 -61l-74 -379h-118z" />
    <glyph glyph-name="n" unicode="n" horiz-adv-x="379" 
d="M-19 0l104 536h118l-12 -64c30 44 64 74 105 74c56 0 84 -40 84 -94c0 -18 -2 -33 -6 -56l-77 -396h-118l70 358c4 22 6 33 6 45c0 23 -11 37 -30 37c-24 0 -45 -24 -52 -61l-74 -379h-118z" />
    <glyph glyph-name="o" unicode="o" horiz-adv-x="378" 
d="M228 544c83 0 136 -62 136 -180c0 -74 -21 -242 -106 -327c-32 -32 -69 -47 -108 -47c-83 0 -136 62 -136 180c0 74 21 242 106 327c32 32 69 47 108 47zM157 95c8 0 15 3 24 12c41 41 69 211 69 275c0 39 -10 57 -29 57c-8 0 -15 -3 -24 -12c-41 -41 -69 -211 -69 -275
c0 -39 10 -57 29 -57z" />
    <glyph glyph-name="p" unicode="p" horiz-adv-x="386" 
d="M195 -10c-49 0 -73 42 -83 75l-38 -195h-118l129 666h118l-13 -67c29 41 61 77 103 77c51 0 82 -43 82 -144c0 -128 -46 -316 -112 -382c-22 -22 -44 -30 -68 -30zM166 103c9 0 15 3 22 10c39 39 66 206 66 262c0 37 -7 58 -28 58c-9 0 -15 -3 -22 -10
c-39 -39 -66 -206 -66 -262c0 -37 7 -58 28 -58z" />
    <glyph glyph-name="q" unicode="q" horiz-adv-x="386" 
d="M93 -10c-51 0 -82 43 -82 144c0 128 46 316 112 382c22 22 44 30 68 30c49 0 73 -42 83 -75l13 65h118l-129 -666h-118l38 197c-29 -41 -61 -77 -103 -77zM160 103c9 0 15 3 22 10c39 39 66 206 66 262c0 37 -7 58 -28 58c-9 0 -15 -3 -22 -10c-39 -39 -66 -206 -66 -262
c0 -37 7 -58 28 -58z" />
    <glyph glyph-name="r" unicode="r" horiz-adv-x="250" 
d="M-19 0l104 536h117l-14 -72c27 52 58 81 102 78l-27 -142h-2c-56 0 -91 -38 -106 -114l-56 -286h-118z" />
    <glyph glyph-name="s" unicode="s" horiz-adv-x="284" 
d="M102 -10c-49 0 -97 18 -126 43l22 109c40 -31 70 -46 96 -46c28 0 46 21 46 50c0 22 -10 44 -44 96c-37 57 -59 94 -59 151c0 84 59 151 153 151c43 0 80 -13 107 -31l-22 -109c-36 25 -62 34 -81 34c-28 0 -43 -19 -43 -43c0 -19 11 -42 45 -92c32 -47 58 -95 58 -151
c0 -90 -58 -162 -152 -162z" />
    <glyph glyph-name="t" unicode="t" horiz-adv-x="244" 
d="M110 -7c-52 0 -95 26 -95 90c0 10 2 27 7 55l59 302h-32l18 96h32l27 137h118l-27 -137h63l-18 -96h-63l-51 -257c-4 -20 -10 -50 -10 -62c0 -16 10 -24 28 -24c9 0 16 1 30 4l-19 -96c-17 -7 -43 -12 -67 -12z" />
    <glyph glyph-name="u" unicode="u" horiz-adv-x="379" 
d="M83 -10c-56 0 -84 40 -84 94c0 18 2 33 6 56l77 396h118l-70 -358c-4 -22 -6 -33 -6 -45c0 -23 11 -37 30 -37c24 0 45 24 52 61l74 379h118l-104 -536h-118l12 64c-30 -44 -64 -74 -105 -74z" />
    <glyph glyph-name="v" unicode="v" horiz-adv-x="362" 
d="M69 -2l-7 538h116l-12 -348l122 348h116l-214 -538h-121z" />
    <glyph glyph-name="w" unicode="w" horiz-adv-x="526" 
d="M50 -2l13 538h118l-18 -305l105 305h94l-13 -305l100 305h118l-195 -538h-114l10 297l-104 -297h-114z" />
    <glyph glyph-name="x" unicode="x" horiz-adv-x="356" 
d="M181 536l18 -153l76 153h123l-150 -264l47 -272h-121l-16 163l-78 -163h-124l153 277l-47 259h119z" />
    <glyph glyph-name="y" unicode="y" horiz-adv-x="362" 
d="M72 15l-10 521h118l-10 -315l117 315h115l-277 -666h-114z" />
    <glyph glyph-name="z" unicode="z" horiz-adv-x="284" 
d="M-40 0l17 89l200 347h-133l19 100h262l-17 -89l-200 -347h138l-19 -100h-267z" />
    <glyph glyph-name="Aacute" unicode="&#xc1;" horiz-adv-x="398" 
d="M-51 0l269 702h130l-3 -702h-124l4 139h-110l-50 -139h-116zM153 249h75l7 231zM239 740l110 127l96 -53l-114 -74h-92z" />
    <glyph glyph-name="aacute" unicode="&#xe1;" horiz-adv-x="350" 
d="M69 -8c-46 0 -79 41 -79 115c0 57 20 150 66 196c23 23 50 33 80 33c28 0 54 -10 77 -26l4 20c3 15 5 28 5 40c0 45 -25 62 -66 62c-25 0 -53 -7 -88 -21l22 112c33 12 59 19 95 19c98 0 154 -54 154 -152c0 -20 -2 -41 -10 -84l-60 -306h-118l10 54
c-26 -40 -59 -62 -92 -62zM132 88c21 0 42 18 48 52l17 89c-13 9 -25 14 -38 14c-8 0 -16 -3 -23 -10c-25 -25 -32 -87 -32 -103c0 -32 12 -42 28 -42zM176 580l110 147l88 -52l-114 -95h-84z" />
    <glyph glyph-name="aacute.alt" horiz-adv-x="386" 
d="M93 -10c-51 0 -82 43 -82 144c0 128 46 316 112 382c22 22 44 30 68 30c49 0 73 -42 83 -75l13 65h118l-104 -536h-118l13 67c-29 -41 -61 -77 -103 -77zM160 103c9 0 15 3 22 10c39 39 66 206 66 262c0 37 -7 58 -28 58c-9 0 -15 -3 -22 -10c-39 -39 -66 -206 -66 -262
c0 -37 7 -58 28 -58zM216 580l110 147l88 -52l-114 -95h-84z" />
    <glyph glyph-name="Abreve" unicode="&#x102;" horiz-adv-x="398" 
d="M-51 0l269 702h130l-3 -702h-124l4 139h-110l-50 -139h-116zM153 249h75l7 231zM290 734c-65 0 -113 36 -100 111h68c-1 -27 14 -39 39 -39s42 12 51 39h72c-16 -75 -66 -111 -130 -111z" />
    <glyph glyph-name="abreve" unicode="&#x103;" horiz-adv-x="350" 
d="M69 -8c-46 0 -79 41 -79 115c0 57 20 150 66 196c23 23 50 33 80 33c28 0 54 -10 77 -26l4 20c3 15 5 28 5 40c0 45 -25 62 -66 62c-25 0 -53 -7 -88 -21l22 112c33 12 59 19 95 19c98 0 154 -54 154 -152c0 -20 -2 -41 -10 -84l-60 -306h-118l10 54
c-26 -40 -59 -62 -92 -62zM132 88c21 0 42 18 48 52l17 89c-13 9 -25 14 -38 14c-8 0 -16 -3 -23 -10c-25 -25 -32 -87 -32 -103c0 -32 12 -42 28 -42zM228 574c-62 0 -110 37 -104 119h68c0 -28 13 -47 42 -47s47 19 54 47h72c-16 -82 -70 -119 -132 -119z" />
    <glyph glyph-name="abreve.alt" horiz-adv-x="386" 
d="M93 -10c-51 0 -82 43 -82 144c0 128 46 316 112 382c22 22 44 30 68 30c49 0 73 -42 83 -75l13 65h118l-104 -536h-118l13 67c-29 -41 -61 -77 -103 -77zM160 103c9 0 15 3 22 10c39 39 66 206 66 262c0 37 -7 58 -28 58c-9 0 -15 -3 -22 -10c-39 -39 -66 -206 -66 -262
c0 -37 7 -58 28 -58zM268 574c-62 0 -110 37 -104 119h68c0 -28 13 -47 42 -47s47 19 54 47h72c-16 -82 -70 -119 -132 -119z" />
    <glyph glyph-name="Acircumflex" unicode="&#xc2;" horiz-adv-x="398" 
d="M-51 0l269 702h130l-3 -702h-124l4 139h-110l-50 -139h-116zM153 249h75l7 231zM165 740l97 119h96l51 -119h-79l-32 48l-50 -48h-83z" />
    <glyph glyph-name="acircumflex" unicode="&#xe2;" horiz-adv-x="350" 
d="M69 -8c-46 0 -79 41 -79 115c0 57 20 150 66 196c23 23 50 33 80 33c28 0 54 -10 77 -26l4 20c3 15 5 28 5 40c0 45 -25 62 -66 62c-25 0 -53 -7 -88 -21l22 112c33 12 59 19 95 19c98 0 154 -54 154 -152c0 -20 -2 -41 -10 -84l-60 -306h-118l10 54
c-26 -40 -59 -62 -92 -62zM132 88c21 0 42 18 48 52l17 89c-13 9 -25 14 -38 14c-8 0 -16 -3 -23 -10c-25 -25 -32 -87 -32 -103c0 -32 12 -42 28 -42zM98 580l105 139h88l51 -139h-73l-34 62l-58 -62h-79z" />
    <glyph glyph-name="acircumflex.alt" horiz-adv-x="386" 
d="M93 -10c-51 0 -82 43 -82 144c0 128 46 316 112 382c22 22 44 30 68 30c49 0 73 -42 83 -75l13 65h118l-104 -536h-118l13 67c-29 -41 -61 -77 -103 -77zM160 103c9 0 15 3 22 10c39 39 66 206 66 262c0 37 -7 58 -28 58c-9 0 -15 -3 -22 -10c-39 -39 -66 -206 -66 -262
c0 -37 7 -58 28 -58zM138 580l105 139h88l51 -139h-73l-34 62l-58 -62h-79z" />
    <glyph glyph-name="Adieresis" unicode="&#xc4;" horiz-adv-x="398" 
d="M-51 0l269 702h130l-3 -702h-124l4 139h-110l-50 -139h-116zM153 249h75l7 231zM163 743l21 108h108l-21 -108h-108zM313 743l21 108h108l-21 -108h-108z" />
    <glyph glyph-name="adieresis" unicode="&#xe4;" horiz-adv-x="350" 
d="M69 -8c-46 0 -79 41 -79 115c0 57 20 150 66 196c23 23 50 33 80 33c28 0 54 -10 77 -26l4 20c3 15 5 28 5 40c0 45 -25 62 -66 62c-25 0 -53 -7 -88 -21l22 112c33 12 59 19 95 19c98 0 154 -54 154 -152c0 -20 -2 -41 -10 -84l-60 -306h-118l10 54
c-26 -40 -59 -62 -92 -62zM132 88c21 0 42 18 48 52l17 89c-13 9 -25 14 -38 14c-8 0 -16 -3 -23 -10c-25 -25 -32 -87 -32 -103c0 -32 12 -42 28 -42zM103 583l21 108h106l-21 -108h-106zM245 583l21 108h106l-21 -108h-106z" />
    <glyph glyph-name="adieresis.alt" horiz-adv-x="386" 
d="M93 -10c-51 0 -82 43 -82 144c0 128 46 316 112 382c22 22 44 30 68 30c49 0 73 -42 83 -75l13 65h118l-104 -536h-118l13 67c-29 -41 -61 -77 -103 -77zM160 103c9 0 15 3 22 10c39 39 66 206 66 262c0 37 -7 58 -28 58c-9 0 -15 -3 -22 -10c-39 -39 -66 -206 -66 -262
c0 -37 7 -58 28 -58zM143 583l21 108h106l-21 -108h-106zM285 583l21 108h106l-21 -108h-106z" />
    <glyph glyph-name="AE" unicode="&#xc6;" horiz-adv-x="556" 
d="M-52 0l320 700h346l-22 -116h-146l-34 -174h129l-23 -116h-129l-34 -178h149l-23 -116h-271l27 139h-111l-60 -139h-118zM173 249h85l63 325h-8z" />
    <glyph glyph-name="ae" unicode="&#xe6;" horiz-adv-x="532" 
d="M354 -10c-65 0 -112 28 -135 89c-38 -60 -76 -87 -124 -87c-62 0 -105 45 -105 127c0 54 20 138 66 184c23 23 50 33 80 33c28 0 54 -10 77 -26l4 20c3 15 5 28 5 40c0 45 -25 62 -66 62c-25 0 -53 -7 -88 -21l22 112c33 12 61 19 97 19c51 0 89 -16 114 -62
c34 48 71 64 107 64c75 0 121 -58 121 -160c0 -44 -5 -83 -23 -171h-197c-1 -14 -2 -25 -2 -32c0 -62 25 -81 67 -81c26 0 52 7 95 28l-12 -109c-32 -19 -69 -29 -103 -29zM138 88c27 0 51 29 66 56c-1 13 -2 44 1 82c-14 11 -29 17 -45 17c-9 0 -17 -3 -24 -10
c-22 -22 -32 -70 -32 -97c0 -32 13 -48 34 -48zM374 429c-21 -21 -38 -72 -49 -123h88c7 33 11 61 11 83c0 32 -10 50 -28 50c-7 0 -15 -3 -22 -10z" />
    <glyph glyph-name="AEacute" unicode="&#x1fc;" horiz-adv-x="556" 
d="M-52 0l320 700h346l-22 -116h-146l-34 -174h129l-23 -116h-129l-34 -178h149l-23 -116h-271l27 139h-111l-60 -139h-118zM173 249h85l63 325h-8zM358 735l110 127l96 -53l-114 -74h-92z" />
    <glyph glyph-name="aeacute" unicode="&#x1fd;" horiz-adv-x="532" 
d="M354 -10c-65 0 -112 28 -135 89c-38 -60 -76 -87 -124 -87c-62 0 -105 45 -105 127c0 54 20 138 66 184c23 23 50 33 80 33c28 0 54 -10 77 -26l4 20c3 15 5 28 5 40c0 45 -25 62 -66 62c-25 0 -53 -7 -88 -21l22 112c33 12 61 19 97 19c51 0 89 -16 114 -62
c34 48 71 64 107 64c75 0 121 -58 121 -160c0 -44 -5 -83 -23 -171h-197c-1 -14 -2 -25 -2 -32c0 -62 25 -81 67 -81c26 0 52 7 95 28l-12 -109c-32 -19 -69 -29 -103 -29zM261 575l110 147l88 -52l-114 -95h-84zM138 88c27 0 51 29 66 56c-1 13 -2 44 1 82
c-14 11 -29 17 -45 17c-9 0 -17 -3 -24 -10c-22 -22 -32 -70 -32 -97c0 -32 13 -48 34 -48zM374 429c-21 -21 -38 -72 -49 -123h88c7 33 11 61 11 83c0 32 -10 50 -28 50c-7 0 -15 -3 -22 -10z" />
    <glyph glyph-name="Agrave" unicode="&#xc0;" horiz-adv-x="398" 
d="M-51 0l269 702h130l-3 -702h-124l4 139h-110l-50 -139h-116zM153 249h75l7 231zM247 740l-96 74l96 53l87 -127h-87z" />
    <glyph glyph-name="agrave" unicode="&#xe0;" horiz-adv-x="350" 
d="M69 -8c-46 0 -79 41 -79 115c0 57 20 150 66 196c23 23 50 33 80 33c28 0 54 -10 77 -26l4 20c3 15 5 28 5 40c0 45 -25 62 -66 62c-25 0 -53 -7 -88 -21l22 112c33 12 59 19 95 19c98 0 154 -54 154 -152c0 -20 -2 -41 -10 -84l-60 -306h-118l10 54
c-26 -40 -59 -62 -92 -62zM132 88c21 0 42 18 48 52l17 89c-13 9 -25 14 -38 14c-8 0 -16 -3 -23 -10c-25 -25 -32 -87 -32 -103c0 -32 12 -42 28 -42zM177 580l-96 95l88 52l87 -147h-79z" />
    <glyph glyph-name="agrave.alt" horiz-adv-x="386" 
d="M93 -10c-51 0 -82 43 -82 144c0 128 46 316 112 382c22 22 44 30 68 30c49 0 73 -42 83 -75l13 65h118l-104 -536h-118l13 67c-29 -41 -61 -77 -103 -77zM160 103c9 0 15 3 22 10c39 39 66 206 66 262c0 37 -7 58 -28 58c-9 0 -15 -3 -22 -10c-39 -39 -66 -206 -66 -262
c0 -37 7 -58 28 -58zM217 580l-96 95l88 52l87 -147h-79z" />
    <glyph glyph-name="Amacron" unicode="&#x100;" horiz-adv-x="398" 
d="M-51 0l269 702h130l-3 -702h-124l4 139h-110l-50 -139h-116zM153 249h75l7 231zM171 743l15 79h242l-15 -79h-242z" />
    <glyph glyph-name="amacron" unicode="&#x101;" horiz-adv-x="350" 
d="M69 -8c-46 0 -79 41 -79 115c0 57 20 150 66 196c23 23 50 33 80 33c28 0 54 -10 77 -26l4 20c3 15 5 28 5 40c0 45 -25 62 -66 62c-25 0 -53 -7 -88 -21l22 112c33 12 59 19 95 19c98 0 154 -54 154 -152c0 -20 -2 -41 -10 -84l-60 -306h-118l10 54
c-26 -40 -59 -62 -92 -62zM132 88c21 0 42 18 48 52l17 89c-13 9 -25 14 -38 14c-8 0 -16 -3 -23 -10c-25 -25 -32 -87 -32 -103c0 -32 12 -42 28 -42zM111 583l15 78h232l-15 -78h-232z" />
    <glyph glyph-name="amacron.alt" horiz-adv-x="386" 
d="M93 -10c-51 0 -82 43 -82 144c0 128 46 316 112 382c22 22 44 30 68 30c49 0 73 -42 83 -75l13 65h118l-104 -536h-118l13 67c-29 -41 -61 -77 -103 -77zM160 103c9 0 15 3 22 10c39 39 66 206 66 262c0 37 -7 58 -28 58c-9 0 -15 -3 -22 -10c-39 -39 -66 -206 -66 -262
c0 -37 7 -58 28 -58zM151 583l15 78h232l-15 -78h-232z" />
    <glyph glyph-name="Aogonek" unicode="&#x104;" horiz-adv-x="398" 
d="M336 -79l-13 -68c-16 -3 -33 -4 -44 -4c-52 0 -81 25 -81 64c0 35 22 60 53 87h-30l4 139h-110l-50 -139h-116l269 702h130l-3 -702h-13c-21 -23 -37 -42 -37 -57c0 -17 15 -24 41 -22zM153 249h75l7 231z" />
    <glyph glyph-name="aogonek" unicode="&#x105;" horiz-adv-x="350" 
d="M258 -79l-13 -68c-16 -3 -33 -4 -44 -4c-52 0 -81 25 -81 64c0 35 22 60 53 87h-22l10 54c-26 -40 -59 -62 -92 -62c-46 0 -79 41 -79 115c0 57 20 150 66 196c23 23 50 33 80 33c28 0 54 -10 77 -26l4 20c3 15 5 28 5 40c0 45 -25 62 -66 62c-25 0 -53 -7 -88 -21
l22 112c33 12 59 19 95 19c98 0 154 -54 154 -152c0 -20 -2 -41 -10 -84l-60 -306h-15c-21 -23 -37 -42 -37 -57c0 -17 15 -24 41 -22zM132 88c21 0 42 18 48 52l17 89c-13 9 -25 14 -38 14c-8 0 -16 -3 -23 -10c-25 -25 -32 -87 -32 -103c0 -32 12 -42 28 -42z" />
    <glyph glyph-name="aogonek.alt" horiz-adv-x="386" 
d="M288 -79l-13 -68c-16 -3 -33 -4 -44 -4c-52 0 -81 25 -81 64c0 35 22 60 53 87h-20l13 67c-29 -41 -61 -77 -103 -77c-51 0 -82 43 -82 144c0 128 46 316 112 382c22 22 44 30 68 30c49 0 73 -42 83 -75l13 65h118l-104 -536h-17c-21 -23 -37 -42 -37 -57
c0 -17 15 -24 41 -22zM160 103c9 0 15 3 22 10c39 39 66 206 66 262c0 37 -7 58 -28 58c-9 0 -15 -3 -22 -10c-39 -39 -66 -206 -66 -262c0 -37 7 -58 28 -58z" />
    <glyph glyph-name="Aring" unicode="&#xc5;" horiz-adv-x="398" 
d="M-51 0l261 682c-6 11 -10 23 -10 37c0 55 45 95 98 95c46 0 79 -32 79 -73c0 -28 -11 -51 -29 -68l-3 -673h-124l4 139h-110l-50 -139h-116zM153 249h75l7 231zM283 690c24 0 45 19 45 46c0 20 -14 34 -34 34c-24 0 -45 -19 -45 -46c0 -20 14 -34 34 -34z" />
    <glyph glyph-name="aring" unicode="&#xe5;" horiz-adv-x="350" 
d="M69 -8c-46 0 -79 41 -79 115c0 57 20 150 66 196c23 23 50 33 80 33c28 0 54 -10 77 -26l4 20c3 15 5 28 5 40c0 45 -25 62 -66 62c-25 0 -53 -7 -88 -21l22 112c33 12 59 19 95 19c98 0 154 -54 154 -152c0 -20 -2 -41 -10 -84l-60 -306h-118l10 54
c-26 -40 -59 -62 -92 -62zM132 88c21 0 42 18 48 52l17 89c-13 9 -25 14 -38 14c-8 0 -16 -3 -23 -10c-25 -25 -32 -87 -32 -103c0 -32 12 -42 28 -42zM329 674c0 -51 -37 -100 -95 -100c-48 0 -79 36 -79 80c0 51 37 100 95 100c48 0 79 -36 79 -80zM203 657
c0 -20 11 -38 34 -38c26 0 44 24 44 52c0 20 -11 38 -34 38c-26 0 -44 -24 -44 -52z" />
    <glyph glyph-name="aring.alt" horiz-adv-x="386" 
d="M93 -10c-51 0 -82 43 -82 144c0 128 46 316 112 382c22 22 44 30 68 30c49 0 73 -42 83 -75l13 65h118l-104 -536h-118l13 67c-29 -41 -61 -77 -103 -77zM160 103c9 0 15 3 22 10c39 39 66 206 66 262c0 37 -7 58 -28 58c-9 0 -15 -3 -22 -10c-39 -39 -66 -206 -66 -262
c0 -37 7 -58 28 -58zM369 674c0 -51 -37 -100 -95 -100c-48 0 -79 36 -79 80c0 51 37 100 95 100c48 0 79 -36 79 -80zM243 657c0 -20 11 -38 34 -38c26 0 44 24 44 52c0 20 -11 38 -34 38c-26 0 -44 -24 -44 -52z" />
    <glyph glyph-name="aring.alt2" horiz-adv-x="350" 
d="M151 0l10 54c-26 -40 -59 -62 -92 -62c-46 0 -79 41 -79 115c0 57 20 150 66 196c23 23 50 33 80 33c28 0 54 -10 77 -26l4 20c3 15 5 28 5 40c0 45 -25 62 -66 62c-25 0 -53 -7 -88 -21l22 112c23 8 43 15 66 17c-5 11 -8 24 -8 38c0 51 37 100 95 100
c48 0 79 -36 79 -80c0 -32 -15 -63 -40 -82c37 -25 57 -68 57 -126c0 -20 -2 -41 -10 -84l-60 -306h-118zM230 543c26 0 44 24 44 52c0 20 -11 38 -34 38c-26 0 -44 -24 -44 -52c0 -20 11 -38 34 -38zM132 88c21 0 42 18 48 52l17 89c-13 9 -25 14 -38 14
c-8 0 -16 -3 -23 -10c-25 -25 -32 -87 -32 -103c0 -32 12 -42 28 -42z" />
    <glyph glyph-name="Aringacute" unicode="&#x1fa;" horiz-adv-x="398" 
d="M-51 0l261 682c-6 11 -10 23 -10 37c0 55 45 95 98 95c46 0 79 -32 79 -73c0 -28 -11 -51 -29 -68l-3 -673h-124l4 139h-110l-50 -139h-116zM264 830l101 107l91 -50l-99 -57h-93zM153 249h75l7 231zM283 690c24 0 45 19 45 46c0 20 -14 34 -34 34c-24 0 -45 -19 -45 -46
c0 -20 14 -34 34 -34z" />
    <glyph glyph-name="aringacute" unicode="&#x1fb;" horiz-adv-x="350" 
d="M221 773l93 112l90 -47l-95 -65h-88zM69 -8c-46 0 -79 41 -79 115c0 57 20 150 66 196c23 23 50 33 80 33c28 0 54 -10 77 -26l4 20c3 15 5 28 5 40c0 45 -25 62 -66 62c-25 0 -53 -7 -88 -21l22 112c33 12 59 19 95 19c98 0 154 -54 154 -152c0 -20 -2 -41 -10 -84
l-60 -306h-118l10 54c-26 -40 -59 -62 -92 -62zM132 88c21 0 42 18 48 52l17 89c-13 9 -25 14 -38 14c-8 0 -16 -3 -23 -10c-25 -25 -32 -87 -32 -103c0 -32 12 -42 28 -42zM329 674c0 -51 -37 -100 -95 -100c-48 0 -79 36 -79 80c0 51 37 100 95 100c48 0 79 -36 79 -80z
M203 657c0 -20 11 -38 34 -38c26 0 44 24 44 52c0 20 -11 38 -34 38c-26 0 -44 -24 -44 -52z" />
    <glyph glyph-name="aringacute.alt" horiz-adv-x="386" 
d="M261 773l93 112l90 -47l-95 -65h-88zM93 -10c-51 0 -82 43 -82 144c0 128 46 316 112 382c22 22 44 30 68 30c49 0 73 -42 83 -75l13 65h118l-104 -536h-118l13 67c-29 -41 -61 -77 -103 -77zM160 103c9 0 15 3 22 10c39 39 66 206 66 262c0 37 -7 58 -28 58
c-9 0 -15 -3 -22 -10c-39 -39 -66 -206 -66 -262c0 -37 7 -58 28 -58zM369 674c0 -51 -37 -100 -95 -100c-48 0 -79 36 -79 80c0 51 37 100 95 100c48 0 79 -36 79 -80zM243 657c0 -20 11 -38 34 -38c26 0 44 24 44 52c0 20 -11 38 -34 38c-26 0 -44 -24 -44 -52z" />
    <glyph glyph-name="aringacute.alt2" horiz-adv-x="350" 
d="M214 697l93 112l90 -47l-95 -65h-88zM151 0l10 54c-26 -40 -59 -62 -92 -62c-46 0 -79 41 -79 115c0 57 20 150 66 196c23 23 50 33 80 33c28 0 54 -10 77 -26l4 20c3 15 5 28 5 40c0 45 -25 62 -66 62c-25 0 -53 -7 -88 -21l22 112c23 8 43 15 66 17c-5 11 -8 24 -8 38
c0 51 37 100 95 100c48 0 79 -36 79 -80c0 -32 -15 -63 -40 -82c37 -25 57 -68 57 -126c0 -20 -2 -41 -10 -84l-60 -306h-118zM230 543c26 0 44 24 44 52c0 20 -11 38 -34 38c-26 0 -44 -24 -44 -52c0 -20 11 -38 34 -38zM132 88c21 0 42 18 48 52l17 89
c-13 9 -25 14 -38 14c-8 0 -16 -3 -23 -10c-25 -25 -32 -87 -32 -103c0 -32 12 -42 28 -42z" />
    <glyph glyph-name="Atilde" unicode="&#xc3;" horiz-adv-x="398" 
d="M-51 0l269 702h130l-3 -702h-124l4 139h-110l-50 -139h-116zM153 249h75l7 231zM224 735l-68 17c29 80 48 109 88 109c22 0 45 -11 64 -21c15 -7 28 -14 38 -14c13 0 21 9 35 39l68 -17c-29 -80 -49 -109 -89 -109c-21 0 -42 10 -61 19c-15 8 -31 16 -41 16
c-13 0 -20 -9 -34 -39z" />
    <glyph glyph-name="atilde" unicode="&#xe3;" horiz-adv-x="350" 
d="M69 -8c-46 0 -79 41 -79 115c0 57 20 150 66 196c23 23 50 33 80 33c28 0 54 -10 77 -26l4 20c3 15 5 28 5 40c0 45 -25 62 -66 62c-25 0 -53 -7 -88 -21l22 112c33 12 59 19 95 19c98 0 154 -54 154 -152c0 -20 -2 -41 -10 -84l-60 -306h-118l10 54
c-26 -40 -59 -62 -92 -62zM132 88c21 0 42 18 48 52l17 89c-13 9 -25 14 -38 14c-8 0 -16 -3 -23 -10c-25 -25 -32 -87 -32 -103c0 -32 12 -42 28 -42zM316 701l65 -16c-25 -75 -52 -106 -90 -106c-21 0 -38 11 -57 20c-16 8 -29 15 -39 15c-15 0 -24 -9 -37 -39l-65 16
c28 79 52 106 90 106c21 0 38 -11 57 -20c15 -8 28 -15 38 -15c15 0 25 9 38 39z" />
    <glyph glyph-name="atilde.alt" horiz-adv-x="386" 
d="M93 -10c-51 0 -82 43 -82 144c0 128 46 316 112 382c22 22 44 30 68 30c49 0 73 -42 83 -75l13 65h118l-104 -536h-118l13 67c-29 -41 -61 -77 -103 -77zM160 103c9 0 15 3 22 10c39 39 66 206 66 262c0 37 -7 58 -28 58c-9 0 -15 -3 -22 -10c-39 -39 -66 -206 -66 -262
c0 -37 7 -58 28 -58zM356 701l65 -16c-25 -75 -52 -106 -90 -106c-21 0 -38 11 -57 20c-16 8 -29 15 -39 15c-15 0 -24 -9 -37 -39l-65 16c28 79 52 106 90 106c21 0 38 -11 57 -20c15 -8 28 -15 38 -15c15 0 25 9 38 39z" />
    <glyph glyph-name="Cacute" unicode="&#x106;" horiz-adv-x="336" 
d="M188 -5c-95 0 -163 56 -163 219c0 105 35 335 138 438c42 42 88 54 128 54c38 0 71 -10 99 -25l-25 -126c-33 26 -53 32 -71 32c-20 0 -35 -8 -47 -20c-64 -64 -100 -276 -100 -349c0 -77 23 -104 70 -104c18 0 40 5 68 17l-23 -120c-21 -9 -46 -16 -74 -16zM239 740
l110 127l96 -53l-114 -74h-92z" />
    <glyph glyph-name="cacute" unicode="&#x107;" horiz-adv-x="286" 
d="M159 -10c-88 0 -145 60 -145 183c0 87 30 250 106 326c36 36 77 45 109 45c34 0 66 -11 87 -23l-24 -121c-21 18 -37 29 -56 29c-14 0 -26 -5 -37 -16c-44 -44 -66 -179 -66 -236c0 -55 22 -72 53 -72c14 0 30 4 51 12l-22 -116c-18 -7 -37 -11 -56 -11zM181 580l110 147
l88 -52l-114 -95h-84z" />
    <glyph glyph-name="Ccaron" unicode="&#x10c;" horiz-adv-x="336" 
d="M188 -5c-95 0 -163 56 -163 219c0 105 35 335 138 438c42 42 88 54 128 54c38 0 71 -10 99 -25l-25 -126c-33 26 -53 32 -71 32c-20 0 -35 -8 -47 -20c-64 -64 -100 -276 -100 -349c0 -77 23 -104 70 -104c18 0 40 5 68 17l-23 -120c-21 -9 -46 -16 -74 -16zM432 859
l-97 -119h-96l-51 119h79l32 -48l50 48h83z" />
    <glyph glyph-name="ccaron" unicode="&#x10d;" horiz-adv-x="286" 
d="M159 -10c-88 0 -145 60 -145 183c0 87 30 250 106 326c36 36 77 45 109 45c34 0 66 -11 87 -23l-24 -121c-21 18 -37 29 -56 29c-14 0 -26 -5 -37 -16c-44 -44 -66 -179 -66 -236c0 -55 22 -72 53 -72c14 0 30 4 51 12l-22 -116c-18 -7 -37 -11 -56 -11zM184 580l-51 139
h73l34 -62l58 62h79l-105 -139h-88z" />
    <glyph glyph-name="Ccedilla" unicode="&#xc7;" horiz-adv-x="336" 
d="M127 -127l-95 39l84 97c-56 26 -91 87 -91 205c0 105 35 335 138 438c42 42 88 54 128 54c38 0 71 -10 99 -25l-25 -126c-33 26 -53 32 -71 32c-20 0 -35 -8 -47 -20c-64 -64 -100 -276 -100 -349c0 -77 23 -104 70 -104c18 0 40 5 68 17l-23 -120
c-21 -9 -44 -15 -71 -16z" />
    <glyph glyph-name="ccedilla" unicode="&#xe7;" horiz-adv-x="286" 
d="M96 -127l-95 39l83 97c-44 26 -70 80 -70 164c0 87 30 250 106 326c36 36 77 45 109 45c34 0 66 -11 87 -23l-24 -121c-21 18 -37 29 -56 29c-14 0 -26 -5 -37 -16c-44 -44 -66 -179 -66 -236c0 -55 22 -72 53 -72c14 0 30 4 51 12l-22 -116c-18 -7 -37 -11 -56 -11h-2z
" />
    <glyph glyph-name="Cdotaccent" unicode="&#x10a;" horiz-adv-x="336" 
d="M188 -5c-95 0 -163 56 -163 219c0 105 35 335 138 438c42 42 88 54 128 54c38 0 71 -10 99 -25l-25 -126c-33 26 -53 32 -71 32c-20 0 -35 -8 -47 -20c-64 -64 -100 -276 -100 -349c0 -77 23 -104 70 -104c18 0 40 5 68 17l-23 -120c-21 -9 -46 -16 -74 -16zM237 743
l21 108h110l-21 -108h-110z" />
    <glyph glyph-name="cdotaccent" unicode="&#x10b;" horiz-adv-x="286" 
d="M159 -10c-88 0 -145 60 -145 183c0 87 30 250 106 326c36 36 77 45 109 45c34 0 66 -11 87 -23l-24 -121c-21 18 -37 29 -56 29c-14 0 -26 -5 -37 -16c-44 -44 -66 -179 -66 -236c0 -55 22 -72 53 -72c14 0 30 4 51 12l-22 -116c-18 -7 -37 -11 -56 -11zM178 583l21 108
h108l-21 -108h-108z" />
    <glyph glyph-name="Dcaron" unicode="&#x10e;" horiz-adv-x="419" 
d="M-16 0l136 700h93c67 0 114 -17 150 -53c35 -35 58 -99 58 -184c0 -123 -41 -306 -127 -392c-50 -50 -113 -71 -186 -71h-124zM272 571c-14 14 -30 17 -47 17h-5l-92 -476h5c28 0 52 9 76 33c61 61 92 249 92 317c0 34 -2 82 -29 109zM406 854l-97 -119h-96l-51 119h79
l32 -48l50 48h83z" />
    <glyph glyph-name="dcaron" unicode="&#x10f;" horiz-adv-x="386" 
d="M183 0l13 67c-29 -41 -61 -77 -103 -77c-51 0 -82 43 -82 144c0 128 46 316 112 382c22 22 44 30 68 30c49 0 73 -42 83 -75l46 234h118l-137 -705h-118zM160 103c9 0 15 3 22 10c39 39 66 206 66 262c0 37 -7 58 -28 58c-9 0 -15 -3 -22 -10c-39 -39 -66 -206 -66 -262
c0 -37 7 -58 28 -58zM439 560l38 145h82l-1 -2l-65 -143h-54z" />
    <glyph glyph-name="Dcroat" unicode="&#x110;" horiz-adv-x="427" 
d="M14 297l21 110h36l57 293h93c67 0 114 -17 150 -53c35 -35 58 -99 58 -184c0 -123 -41 -306 -127 -392c-50 -50 -113 -71 -186 -71h-124l57 297h-35zM280 571c-14 14 -30 17 -47 17h-5l-35 -181h54l-21 -110h-54l-36 -185h5c28 0 52 9 76 33c61 61 92 249 92 317
c0 34 -2 82 -29 109z" />
    <glyph glyph-name="dcroat" unicode="&#x111;" horiz-adv-x="386" 
d="M218 579l16 80h77l9 46h118l-9 -46h35l-16 -82h-35l-112 -577h-118l13 67c-29 -41 -61 -77 -103 -77c-51 0 -82 43 -82 144c0 128 46 316 112 382c22 22 44 30 68 30c49 0 73 -42 83 -75l21 108h-77zM160 103c9 0 15 3 22 10c39 39 66 206 66 262c0 37 -7 58 -28 58
c-9 0 -15 -3 -22 -10c-39 -39 -66 -206 -66 -262c0 -37 7 -58 28 -58z" />
    <glyph glyph-name="Eacute" unicode="&#xc9;" horiz-adv-x="330" 
d="M-16 0l136 700h268l-22 -116h-146l-34 -174h129l-23 -116h-129l-34 -178h149l-23 -116h-271zM203 735l110 127l96 -53l-114 -74h-92z" />
    <glyph glyph-name="eacute" unicode="&#xe9;" horiz-adv-x="350" 
d="M324 213h-197c-1 -14 -2 -25 -2 -32c0 -62 25 -81 67 -81c26 0 52 7 95 28l-12 -109c-32 -19 -69 -29 -103 -29c-92 0 -160 57 -160 191c0 67 23 232 108 317c32 32 70 46 106 46c75 0 121 -58 121 -160c0 -44 -5 -83 -23 -171zM186 580l110 147l88 -52l-114 -95h-84z
M192 429c-21 -21 -38 -72 -49 -123h88c7 33 11 61 11 83c0 32 -10 50 -28 50c-7 0 -15 -3 -22 -10z" />
    <glyph glyph-name="Ebreve" unicode="&#x114;" horiz-adv-x="330" 
d="M-16 0l136 700h268l-22 -116h-146l-34 -174h129l-23 -116h-129l-34 -178h149l-23 -116h-271zM254 729c-65 0 -113 36 -100 111h68c-1 -27 14 -39 39 -39s42 12 51 39h72c-16 -75 -66 -111 -130 -111z" />
    <glyph glyph-name="ebreve" unicode="&#x115;" horiz-adv-x="350" 
d="M324 213h-197c-1 -14 -2 -25 -2 -32c0 -62 25 -81 67 -81c26 0 52 7 95 28l-12 -109c-32 -19 -69 -29 -103 -29c-92 0 -160 57 -160 191c0 67 23 232 108 317c32 32 70 46 106 46c75 0 121 -58 121 -160c0 -44 -5 -83 -23 -171zM238 574c-62 0 -110 37 -104 119h68
c0 -28 13 -47 42 -47s47 19 54 47h72c-16 -82 -70 -119 -132 -119zM192 429c-21 -21 -38 -72 -49 -123h88c7 33 11 61 11 83c0 32 -10 50 -28 50c-7 0 -15 -3 -22 -10z" />
    <glyph glyph-name="Ecaron" unicode="&#x11a;" horiz-adv-x="330" 
d="M-16 0l136 700h268l-22 -116h-146l-34 -174h129l-23 -116h-129l-34 -178h149l-23 -116h-271zM396 854l-97 -119h-96l-51 119h79l32 -48l50 48h83z" />
    <glyph glyph-name="ecaron" unicode="&#x11b;" horiz-adv-x="350" 
d="M324 213h-197c-1 -14 -2 -25 -2 -32c0 -62 25 -81 67 -81c26 0 52 7 95 28l-12 -109c-32 -19 -69 -29 -103 -29c-92 0 -160 57 -160 191c0 67 23 232 108 317c32 32 70 46 106 46c75 0 121 -58 121 -160c0 -44 -5 -83 -23 -171zM189 580l-51 139h73l34 -62l58 62h79
l-105 -139h-88zM192 429c-21 -21 -38 -72 -49 -123h88c7 33 11 61 11 83c0 32 -10 50 -28 50c-7 0 -15 -3 -22 -10z" />
    <glyph glyph-name="Ecircumflex" unicode="&#xca;" horiz-adv-x="330" 
d="M-16 0l136 700h268l-22 -116h-146l-34 -174h129l-23 -116h-129l-34 -178h149l-23 -116h-271zM129 735l97 119h96l51 -119h-79l-32 48l-50 -48h-83z" />
    <glyph glyph-name="ecircumflex" unicode="&#xea;" horiz-adv-x="350" 
d="M324 213h-197c-1 -14 -2 -25 -2 -32c0 -62 25 -81 67 -81c26 0 52 7 95 28l-12 -109c-32 -19 -69 -29 -103 -29c-92 0 -160 57 -160 191c0 67 23 232 108 317c32 32 70 46 106 46c75 0 121 -58 121 -160c0 -44 -5 -83 -23 -171zM108 580l105 139h88l51 -139h-73l-34 62
l-58 -62h-79zM192 429c-21 -21 -38 -72 -49 -123h88c7 33 11 61 11 83c0 32 -10 50 -28 50c-7 0 -15 -3 -22 -10z" />
    <glyph glyph-name="Edieresis" unicode="&#xcb;" horiz-adv-x="330" 
d="M-16 0l136 700h268l-22 -116h-146l-34 -174h129l-23 -116h-129l-34 -178h149l-23 -116h-271zM127 738l21 108h108l-21 -108h-108zM277 738l21 108h108l-21 -108h-108z" />
    <glyph glyph-name="edieresis" unicode="&#xeb;" horiz-adv-x="350" 
d="M324 213h-197c-1 -14 -2 -25 -2 -32c0 -62 25 -81 67 -81c26 0 52 7 95 28l-12 -109c-32 -19 -69 -29 -103 -29c-92 0 -160 57 -160 191c0 67 23 232 108 317c32 32 70 46 106 46c75 0 121 -58 121 -160c0 -44 -5 -83 -23 -171zM255 583l21 108h106l-21 -108h-106z
M113 583l21 108h106l-21 -108h-106zM192 429c-21 -21 -38 -72 -49 -123h88c7 33 11 61 11 83c0 32 -10 50 -28 50c-7 0 -15 -3 -22 -10z" />
    <glyph glyph-name="Edotaccent" unicode="&#x116;" horiz-adv-x="330" 
d="M-16 0l136 700h268l-22 -116h-146l-34 -174h129l-23 -116h-129l-34 -178h149l-23 -116h-271zM201 738l21 108h110l-21 -108h-110z" />
    <glyph glyph-name="edotaccent" unicode="&#x117;" horiz-adv-x="350" 
d="M324 213h-197c-1 -14 -2 -25 -2 -32c0 -62 25 -81 67 -81c26 0 52 7 95 28l-12 -109c-32 -19 -69 -29 -103 -29c-92 0 -160 57 -160 191c0 67 23 232 108 317c32 32 70 46 106 46c75 0 121 -58 121 -160c0 -44 -5 -83 -23 -171zM183 583l21 108h108l-21 -108h-108z
M192 429c-21 -21 -38 -72 -49 -123h88c7 33 11 61 11 83c0 32 -10 50 -28 50c-7 0 -15 -3 -22 -10z" />
    <glyph glyph-name="Egrave" unicode="&#xc8;" horiz-adv-x="330" 
d="M-16 0l136 700h268l-22 -116h-146l-34 -174h129l-23 -116h-129l-34 -178h149l-23 -116h-271zM211 735l-96 74l96 53l87 -127h-87z" />
    <glyph glyph-name="egrave" unicode="&#xe8;" horiz-adv-x="350" 
d="M324 213h-197c-1 -14 -2 -25 -2 -32c0 -62 25 -81 67 -81c26 0 52 7 95 28l-12 -109c-32 -19 -69 -29 -103 -29c-92 0 -160 57 -160 191c0 67 23 232 108 317c32 32 70 46 106 46c75 0 121 -58 121 -160c0 -44 -5 -83 -23 -171zM187 580l-96 95l88 52l87 -147h-79z
M192 429c-21 -21 -38 -72 -49 -123h88c7 33 11 61 11 83c0 32 -10 50 -28 50c-7 0 -15 -3 -22 -10z" />
    <glyph glyph-name="Emacron" unicode="&#x112;" horiz-adv-x="330" 
d="M-16 0l136 700h268l-22 -116h-146l-34 -174h129l-23 -116h-129l-34 -178h149l-23 -116h-271zM135 738l15 79h242l-15 -79h-242z" />
    <glyph glyph-name="emacron" unicode="&#x113;" horiz-adv-x="350" 
d="M324 213h-197c-1 -14 -2 -25 -2 -32c0 -62 25 -81 67 -81c26 0 52 7 95 28l-12 -109c-32 -19 -69 -29 -103 -29c-92 0 -160 57 -160 191c0 67 23 232 108 317c32 32 70 46 106 46c75 0 121 -58 121 -160c0 -44 -5 -83 -23 -171zM121 583l15 78h232l-15 -78h-232zM192 429
c-21 -21 -38 -72 -49 -123h88c7 33 11 61 11 83c0 32 -10 50 -28 50c-7 0 -15 -3 -22 -10z" />
    <glyph glyph-name="Eogonek" unicode="&#x118;" horiz-adv-x="330" 
d="M-16 0l136 700h268l-22 -116h-146l-34 -174h129l-23 -116h-129l-34 -178h149l-23 -116h-18c-21 -23 -37 -42 -37 -57c0 -17 15 -24 41 -22l-13 -68c-16 -3 -33 -4 -44 -4c-52 0 -81 25 -81 64c0 35 22 60 53 87h-172z" />
    <glyph glyph-name="eogonek" unicode="&#x119;" horiz-adv-x="350" 
d="M287 128l-12 -109c-16 -10 -33 -23 -48 -38c-12 -12 -22 -26 -22 -38c0 -17 15 -24 41 -22l-13 -68c-16 -3 -33 -4 -44 -4c-52 0 -81 25 -81 64c0 28 13 52 43 78c-78 8 -139 62 -139 190c0 67 23 232 108 317c32 32 70 46 106 46c75 0 121 -58 121 -160
c0 -44 -5 -83 -23 -171h-197c-1 -14 -2 -25 -2 -32c0 -62 25 -81 67 -81c26 0 52 7 95 28zM192 429c-21 -21 -38 -72 -49 -123h88c7 33 11 61 11 83c0 32 -10 50 -28 50c-7 0 -15 -3 -22 -10z" />
    <glyph glyph-name="Eth" unicode="&#xd0;" horiz-adv-x="427" 
d="M14 297l21 110h36l57 293h93c67 0 114 -17 150 -53c35 -35 58 -99 58 -184c0 -123 -41 -306 -127 -392c-50 -50 -113 -71 -186 -71h-124l57 297h-35zM280 571c-14 14 -30 17 -47 17h-5l-35 -181h54l-21 -110h-54l-36 -185h5c28 0 52 9 76 33c61 61 92 249 92 317
c0 34 -2 82 -29 109z" />
    <glyph glyph-name="eth" unicode="&#xf0;" horiz-adv-x="378" 
d="M172 568l-18 70l55 14c-10 18 -21 35 -32 53h124l13 -24l60 16l18 -70l-50 -14c18 -54 27 -115 27 -181c0 -134 -32 -309 -118 -395c-30 -30 -63 -47 -105 -47c-81 0 -132 64 -132 182c0 74 24 241 109 326c32 32 61 38 78 38c27 0 43 -10 59 -31c-4 27 -11 54 -21 81z
M157 94c8 0 15 3 24 12c43 43 68 218 68 278c0 39 -8 58 -27 58c-8 0 -15 -3 -24 -12c-43 -43 -68 -218 -68 -278c0 -39 8 -58 27 -58z" />
    <glyph glyph-name="Gbreve" unicode="&#x11e;" horiz-adv-x="405" 
d="M224 -10c-114 0 -196 70 -196 243c0 111 36 304 141 409c45 45 96 68 155 68c52 0 88 -16 107 -29l-24 -123c-31 22 -54 35 -87 35c-24 0 -47 -10 -67 -30c-79 -79 -103 -264 -103 -329c0 -97 34 -131 67 -131c4 0 9 0 14 1l36 184h-60l21 109h171l-75 -387
c-29 -12 -65 -20 -100 -20zM320 734c-65 0 -113 36 -100 111h68c-1 -27 14 -39 39 -39s42 12 51 39h72c-16 -75 -66 -111 -130 -111z" />
    <glyph glyph-name="gbreve" unicode="&#x11f;" horiz-adv-x="386" 
d="M107 -132c-55 0 -92 9 -131 23l21 109c33 -15 76 -27 106 -27c29 0 49 7 63 21c13 13 23 35 28 63l10 52c-31 -46 -63 -77 -105 -77c-48 0 -80 41 -80 147c0 117 41 273 105 337c21 21 43 30 66 30c49 0 73 -42 85 -75l12 65h118l-98 -502c-9 -48 -27 -87 -55 -115
c-33 -33 -80 -51 -145 -51zM167 145c7 0 14 3 21 10c40 40 61 169 61 229c0 32 -8 49 -28 49c-7 0 -14 -3 -21 -10c-40 -40 -61 -169 -61 -229c0 -32 8 -49 28 -49zM260 574c-62 0 -110 37 -104 119h68c0 -28 13 -47 42 -47s47 19 54 47h72c-16 -82 -70 -119 -132 -119z" />
    <glyph glyph-name="Gcommaaccent" unicode="&#x122;" horiz-adv-x="405" 
d="M224 -10c-114 0 -196 70 -196 243c0 111 36 304 141 409c45 45 96 68 155 68c52 0 88 -16 107 -29l-24 -123c-31 22 -54 35 -87 35c-24 0 -47 -10 -67 -30c-79 -79 -103 -264 -103 -329c0 -97 34 -131 67 -131c4 0 9 0 14 1l36 184h-60l21 109h171l-75 -387
c-29 -12 -65 -20 -100 -20zM83 -225l-1 40c45 5 59 18 64 53h-48l17 90h106l-15 -81c-13 -71 -58 -99 -123 -102z" />
    <glyph glyph-name="gcommaaccent" unicode="&#x123;" horiz-adv-x="386" 
d="M107 -132c-55 0 -92 9 -131 23l21 109c33 -15 76 -27 106 -27c29 0 49 7 63 21c13 13 23 35 28 63l10 52c-31 -46 -63 -77 -105 -77c-48 0 -80 41 -80 147c0 117 41 273 105 337c21 21 43 30 66 30c49 0 73 -42 85 -75l12 65h118l-98 -502c-9 -48 -27 -87 -55 -115
c-33 -33 -80 -51 -145 -51zM167 145c7 0 14 3 21 10c40 40 61 169 61 229c0 32 -8 49 -28 49c-7 0 -14 -3 -21 -10c-40 -40 -61 -169 -61 -229c0 -32 8 -49 28 -49zM344 766l1 -40c-45 -5 -59 -18 -64 -53h48l-17 -90h-106l15 81c13 71 58 99 123 102z" />
    <glyph glyph-name="Gdotaccent" unicode="&#x120;" horiz-adv-x="405" 
d="M224 -10c-114 0 -196 70 -196 243c0 111 36 304 141 409c45 45 96 68 155 68c52 0 88 -16 107 -29l-24 -123c-31 22 -54 35 -87 35c-24 0 -47 -10 -67 -30c-79 -79 -103 -264 -103 -329c0 -97 34 -131 67 -131c4 0 9 0 14 1l36 184h-60l21 109h171l-75 -387
c-29 -12 -65 -20 -100 -20zM267 743l21 108h110l-21 -108h-110z" />
    <glyph glyph-name="gdotaccent" unicode="&#x121;" horiz-adv-x="386" 
d="M107 -132c-55 0 -92 9 -131 23l21 109c33 -15 76 -27 106 -27c29 0 49 7 63 21c13 13 23 35 28 63l10 52c-31 -46 -63 -77 -105 -77c-48 0 -80 41 -80 147c0 117 41 273 105 337c21 21 43 30 66 30c49 0 73 -42 85 -75l12 65h118l-98 -502c-9 -48 -27 -87 -55 -115
c-33 -33 -80 -51 -145 -51zM167 145c7 0 14 3 21 10c40 40 61 169 61 229c0 32 -8 49 -28 49c-7 0 -14 -3 -21 -10c-40 -40 -61 -169 -61 -229c0 -32 8 -49 28 -49zM205 583l21 108h108l-21 -108h-108z" />
    <glyph glyph-name="Hbar" unicode="&#x126;" horiz-adv-x="438" 
d="M59 517l19 104h34l16 79h122l-16 -81h106l16 81h122l-16 -79h35l-19 -104h-36l-100 -517h-122l57 294h-106l-57 -294h-122l100 517h-33zM194 410h106l21 109h-106z" />
    <glyph glyph-name="hbar" unicode="&#x127;" horiz-adv-x="379" 
d="M61 577l16 82h32l9 46h118l-9 -46h80l-16 -80h-80l-20 -107c30 44 64 74 105 74c56 0 84 -40 84 -94c0 -18 -2 -33 -6 -56l-77 -396h-118l70 358c4 22 6 33 6 45c0 23 -11 37 -30 37c-24 0 -45 -24 -52 -61l-74 -379h-118l112 577h-32z" />
    <glyph glyph-name="Iacute" unicode="&#xcd;" horiz-adv-x="198" 
d="M-14 0l136 700h122l-136 -700h-122zM138 735l110 127l96 -53l-114 -74h-92z" />
    <glyph glyph-name="iacute" unicode="&#xed;" horiz-adv-x="186" 
d="M-18 0l104 536h118l-104 -536h-118zM103 575l110 147l88 -52l-114 -95h-84z" />
    <glyph glyph-name="Ibreve" unicode="&#x12c;" horiz-adv-x="198" 
d="M-14 0l136 700h122l-136 -700h-122zM189 729c-65 0 -113 36 -100 111h68c-1 -27 14 -39 39 -39s42 12 51 39h72c-16 -75 -66 -111 -130 -111z" />
    <glyph glyph-name="ibreve" unicode="&#x12d;" horiz-adv-x="186" 
d="M-18 0l104 536h118l-104 -536h-118zM155 569c-62 0 -110 37 -104 119h68c0 -28 13 -47 42 -47s47 19 54 47h72c-16 -82 -70 -119 -132 -119z" />
    <glyph glyph-name="Icircumflex" unicode="&#xce;" horiz-adv-x="198" 
d="M-14 0l136 700h122l-136 -700h-122zM64 735l97 119h96l51 -119h-79l-32 48l-50 -48h-83z" />
    <glyph glyph-name="icircumflex" unicode="&#xee;" horiz-adv-x="186" 
d="M-18 0l104 536h118l-104 -536h-118zM25 575l105 139h88l51 -139h-73l-34 62l-58 -62h-79z" />
    <glyph glyph-name="Idieresis" unicode="&#xcf;" horiz-adv-x="198" 
d="M-14 0l136 700h122l-136 -700h-122zM62 738l21 108h108l-21 -108h-108zM212 738l21 108h108l-21 -108h-108z" />
    <glyph glyph-name="idieresis" unicode="&#xef;" horiz-adv-x="186" 
d="M-18 0l104 536h118l-104 -536h-118zM30 578l21 108h106l-21 -108h-106zM172 578l21 108h106l-21 -108h-106z" />
    <glyph glyph-name="Idotaccent" unicode="&#x130;" horiz-adv-x="198" 
d="M-14 0l136 700h122l-136 -700h-122zM136 738l21 108h110l-21 -108h-110z" />
    <glyph glyph-name="dotlessi" unicode="&#x131;" horiz-adv-x="186" 
d="M-18 0l104 536h118l-104 -536h-118z" />
    <glyph glyph-name="Igrave" unicode="&#xcc;" horiz-adv-x="198" 
d="M-14 0l136 700h122l-136 -700h-122zM146 735l-96 74l96 53l87 -127h-87z" />
    <glyph glyph-name="igrave" unicode="&#xec;" horiz-adv-x="186" 
d="M-18 0l104 536h118l-104 -536h-118zM104 575l-96 95l88 52l87 -147h-79z" />
    <glyph glyph-name="Imacron" unicode="&#x12a;" horiz-adv-x="198" 
d="M-14 0l136 700h122l-136 -700h-122zM70 738l15 79h242l-15 -79h-242z" />
    <glyph glyph-name="imacron" unicode="&#x12b;" horiz-adv-x="186" 
d="M-18 0l104 536h118l-104 -536h-118zM38 578l15 78h232l-15 -78h-232z" />
    <glyph glyph-name="Iogonek" unicode="&#x12e;" horiz-adv-x="198" 
d="M-14 0l136 700h122l-136 -700h-16c-21 -23 -37 -42 -37 -57c0 -17 15 -24 41 -22l-13 -68c-16 -3 -33 -4 -44 -4c-52 0 -81 25 -81 64c0 35 23 60 53 87h-25z" />
    <glyph glyph-name="iogonek" unicode="&#x12f;" horiz-adv-x="186" 
d="M-18 0l104 536h118l-104 -536h-14c-21 -23 -37 -42 -37 -57c0 -17 15 -24 41 -22l-13 -68c-16 -3 -33 -4 -44 -4c-52 0 -81 25 -81 64c0 35 23 60 53 87h-23zM95 587l23 118h120l-23 -118h-120z" />
    <glyph glyph-name="Kcommaaccent" unicode="&#x136;" horiz-adv-x="403" 
d="M-16 0l136 700h122l-58 -298l161 298h134l-179 -313l43 -387h-129l-23 271l-50 -87l-35 -184h-122zM63 -225l-1 40c45 5 59 18 64 53h-48l17 90h106l-15 -81c-13 -71 -58 -99 -123 -102z" />
    <glyph glyph-name="kcommaaccent" unicode="&#x137;" horiz-adv-x="357" 
d="M-19 0l137 705h118l-71 -360l113 191h131l-141 -225l29 -311h-122l-12 208l-36 -62l-28 -146h-118zM28 -225l-1 40c45 5 59 18 64 53h-48l17 90h106l-15 -81c-13 -71 -58 -99 -123 -102z" />
    <glyph glyph-name="Lacute" unicode="&#x139;" horiz-adv-x="300" 
d="M-16 0l136 700h122l-113 -584h129l-23 -116h-251zM141 735l110 127l96 -53l-114 -74h-92z" />
    <glyph glyph-name="lacute" unicode="&#x13a;" horiz-adv-x="186" 
d="M-18 0l137 705h118l-137 -705h-118zM137 744l110 127l96 -53l-114 -74h-92z" />
    <glyph glyph-name="Lcaron" unicode="&#x13d;" horiz-adv-x="300" 
d="M-16 0l136 700h122l-113 -584h129l-23 -116h-251zM236 555l38 145h82l-1 -2l-65 -143h-54z" />
    <glyph glyph-name="lcaron" unicode="&#x13e;" horiz-adv-x="186" 
d="M-18 0l137 705h118l-137 -705h-118zM238 560l38 145h82l-1 -2l-65 -143h-54z" />
    <glyph glyph-name="Lcommaaccent" unicode="&#x13b;" horiz-adv-x="300" 
d="M-16 0l136 700h122l-113 -584h129l-23 -116h-251zM13 -225l-1 40c45 5 59 18 64 53h-48l17 90h106l-15 -81c-13 -71 -58 -99 -123 -102z" />
    <glyph glyph-name="lcommaaccent" unicode="&#x13c;" horiz-adv-x="186" 
d="M-18 0l137 705h118l-137 -705h-118zM-52 -225l-1 40c45 5 59 18 64 53h-48l17 90h106l-15 -81c-13 -71 -58 -99 -123 -102z" />
    <glyph glyph-name="Ldot" unicode="&#x13f;" horiz-adv-x="300" 
d="M206 307l21 108h98l-21 -108h-98zM-16 0l136 700h122l-113 -584h129l-23 -116h-251z" />
    <glyph glyph-name="ldot" unicode="&#x140;" horiz-adv-x="274" 
d="M193 304l21 108h88l-21 -108h-88zM-18 0l137 705h118l-137 -705h-118z" />
    <glyph glyph-name="Lslash" unicode="&#x141;" horiz-adv-x="327" 
d="M8 269l24 118l37 11l59 302h122l-51 -264l87 26l-24 -115l-86 -26l-39 -205h129l-23 -116h-251l54 281z" />
    <glyph glyph-name="lslash" unicode="&#x142;" horiz-adv-x="222" 
d="M2 252l22 114l51 23l62 316h118l-51 -259l54 24l-22 -114l-54 -24l-64 -332h-118l53 275z" />
    <glyph glyph-name="Nacute" unicode="&#x143;" horiz-adv-x="428" 
d="M-16 0l136 700h108l58 -370l73 370h117l-136 -700h-105l-59 388l-75 -388h-117zM247 730l110 127l96 -53l-114 -74h-92z" />
    <glyph glyph-name="nacute" unicode="&#x144;" horiz-adv-x="379" 
d="M-19 0l104 536h118l-12 -64c30 44 64 74 105 74c56 0 84 -40 84 -94c0 -18 -2 -33 -6 -56l-77 -396h-118l70 358c4 22 6 33 6 45c0 23 -11 37 -30 37c-24 0 -45 -24 -52 -61l-74 -379h-118zM190 580l110 147l88 -52l-114 -95h-84z" />
    <glyph glyph-name="Ncaron" unicode="&#x147;" horiz-adv-x="428" 
d="M-16 0l136 700h108l58 -370l73 370h117l-136 -700h-105l-59 388l-75 -388h-117zM440 849l-97 -119h-96l-51 119h79l32 -48l50 48h83z" />
    <glyph glyph-name="ncaron" unicode="&#x148;" horiz-adv-x="379" 
d="M-19 0l104 536h118l-12 -64c30 44 64 74 105 74c56 0 84 -40 84 -94c0 -18 -2 -33 -6 -56l-77 -396h-118l70 358c4 22 6 33 6 45c0 23 -11 37 -30 37c-24 0 -45 -24 -52 -61l-74 -379h-118zM193 580l-51 139h73l34 -62l58 62h79l-105 -139h-88z" />
    <glyph glyph-name="Ncommaaccent" unicode="&#x145;" horiz-adv-x="428" 
d="M-16 0l136 700h108l58 -370l73 370h117l-136 -700h-105l-59 388l-75 -388h-117zM63 -225l-1 40c45 5 59 18 64 53h-48l17 90h106l-15 -81c-13 -71 -58 -99 -123 -102z" />
    <glyph glyph-name="ncommaaccent" unicode="&#x146;" horiz-adv-x="379" 
d="M-19 0l104 536h118l-12 -64c30 44 64 74 105 74c56 0 84 -40 84 -94c0 -18 -2 -33 -6 -56l-77 -396h-118l70 358c4 22 6 33 6 45c0 23 -11 37 -30 37c-24 0 -45 -24 -52 -61l-74 -379h-118zM33 -225l-1 40c45 5 59 18 64 53h-48l17 90h106l-15 -81
c-13 -71 -58 -99 -123 -102z" />
    <glyph glyph-name="Ntilde" unicode="&#xd1;" horiz-adv-x="428" 
d="M-16 0l136 700h108l58 -370l73 370h117l-136 -700h-105l-59 388l-75 -388h-117zM233 725l-68 17c29 80 48 109 88 109c22 0 45 -11 64 -21c15 -7 28 -14 38 -14c13 0 21 9 35 39l68 -17c-29 -80 -49 -109 -89 -109c-21 0 -42 10 -61 19c-15 8 -31 16 -41 16
c-13 0 -20 -9 -34 -39z" />
    <glyph glyph-name="ntilde" unicode="&#xf1;" horiz-adv-x="379" 
d="M-19 0l104 536h118l-12 -64c30 44 64 74 105 74c56 0 84 -40 84 -94c0 -18 -2 -33 -6 -56l-77 -396h-118l70 358c4 22 6 33 6 45c0 23 -11 37 -30 37c-24 0 -45 -24 -52 -61l-74 -379h-118zM330 701l65 -16c-25 -75 -52 -106 -90 -106c-21 0 -38 11 -57 20
c-16 8 -29 15 -39 15c-15 0 -24 -9 -37 -39l-65 16c28 79 52 106 90 106c21 0 38 -11 57 -20c15 -8 28 -15 38 -15c15 0 25 9 38 39z" />
    <glyph glyph-name="Oacute" unicode="&#xd3;" horiz-adv-x="420" 
d="M280 710c118 0 151 -100 151 -210c0 -122 -44 -360 -142 -458c-37 -37 -76 -52 -118 -52c-118 0 -151 100 -151 210c0 122 44 360 142 458c37 37 76 52 118 52zM179 102c9 0 18 4 27 13c57 56 103 327 103 411c0 52 -12 72 -37 72c-9 0 -18 -4 -27 -13
c-57 -56 -103 -327 -103 -411c0 -52 12 -72 37 -72zM249 740l110 127l96 -53l-114 -74h-92z" />
    <glyph glyph-name="oacute" unicode="&#xf3;" horiz-adv-x="378" 
d="M228 544c83 0 136 -62 136 -180c0 -74 -21 -242 -106 -327c-32 -32 -69 -47 -108 -47c-83 0 -136 62 -136 180c0 74 21 242 106 327c32 32 69 47 108 47zM157 95c8 0 15 3 24 12c41 41 69 211 69 275c0 39 -10 57 -29 57c-8 0 -15 -3 -24 -12c-41 -41 -69 -211 -69 -275
c0 -39 10 -57 29 -57zM200 580l110 147l88 -52l-114 -95h-84z" />
    <glyph glyph-name="Obreve" unicode="&#x14e;" horiz-adv-x="420" 
d="M280 710c118 0 151 -100 151 -210c0 -122 -44 -360 -142 -458c-37 -37 -76 -52 -118 -52c-118 0 -151 100 -151 210c0 122 44 360 142 458c37 37 76 52 118 52zM179 102c9 0 18 4 27 13c57 56 103 327 103 411c0 52 -12 72 -37 72c-9 0 -18 -4 -27 -13
c-57 -56 -103 -327 -103 -411c0 -52 12 -72 37 -72zM300 734c-65 0 -113 36 -100 111h68c-1 -27 14 -39 39 -39s42 12 51 39h72c-16 -75 -66 -111 -130 -111z" />
    <glyph glyph-name="obreve" unicode="&#x14f;" horiz-adv-x="378" 
d="M228 544c83 0 136 -62 136 -180c0 -74 -21 -242 -106 -327c-32 -32 -69 -47 -108 -47c-83 0 -136 62 -136 180c0 74 21 242 106 327c32 32 69 47 108 47zM157 95c8 0 15 3 24 12c41 41 69 211 69 275c0 39 -10 57 -29 57c-8 0 -15 -3 -24 -12c-41 -41 -69 -211 -69 -275
c0 -39 10 -57 29 -57zM252 574c-62 0 -110 37 -104 119h68c0 -28 13 -47 42 -47s47 19 54 47h72c-16 -82 -70 -119 -132 -119z" />
    <glyph glyph-name="Ocircumflex" unicode="&#xd4;" horiz-adv-x="420" 
d="M280 710c118 0 151 -100 151 -210c0 -122 -44 -360 -142 -458c-37 -37 -76 -52 -118 -52c-118 0 -151 100 -151 210c0 122 44 360 142 458c37 37 76 52 118 52zM179 102c9 0 18 4 27 13c57 56 103 327 103 411c0 52 -12 72 -37 72c-9 0 -18 -4 -27 -13
c-57 -56 -103 -327 -103 -411c0 -52 12 -72 37 -72zM175 740l97 119h96l51 -119h-79l-32 48l-50 -48h-83z" />
    <glyph glyph-name="ocircumflex" unicode="&#xf4;" horiz-adv-x="378" 
d="M228 544c83 0 136 -62 136 -180c0 -74 -21 -242 -106 -327c-32 -32 -69 -47 -108 -47c-83 0 -136 62 -136 180c0 74 21 242 106 327c32 32 69 47 108 47zM157 95c8 0 15 3 24 12c41 41 69 211 69 275c0 39 -10 57 -29 57c-8 0 -15 -3 -24 -12c-41 -41 -69 -211 -69 -275
c0 -39 10 -57 29 -57zM122 580l105 139h88l51 -139h-73l-34 62l-58 -62h-79z" />
    <glyph glyph-name="Odieresis" unicode="&#xd6;" horiz-adv-x="420" 
d="M280 710c118 0 151 -100 151 -210c0 -122 -44 -360 -142 -458c-37 -37 -76 -52 -118 -52c-118 0 -151 100 -151 210c0 122 44 360 142 458c37 37 76 52 118 52zM179 102c9 0 18 4 27 13c57 56 103 327 103 411c0 52 -12 72 -37 72c-9 0 -18 -4 -27 -13
c-57 -56 -103 -327 -103 -411c0 -52 12 -72 37 -72zM173 743l21 108h108l-21 -108h-108zM323 743l21 108h108l-21 -108h-108z" />
    <glyph glyph-name="odieresis" unicode="&#xf6;" horiz-adv-x="378" 
d="M228 544c83 0 136 -62 136 -180c0 -74 -21 -242 -106 -327c-32 -32 -69 -47 -108 -47c-83 0 -136 62 -136 180c0 74 21 242 106 327c32 32 69 47 108 47zM157 95c8 0 15 3 24 12c41 41 69 211 69 275c0 39 -10 57 -29 57c-8 0 -15 -3 -24 -12c-41 -41 -69 -211 -69 -275
c0 -39 10 -57 29 -57zM127 583l21 108h106l-21 -108h-106zM269 583l21 108h106l-21 -108h-106z" />
    <glyph glyph-name="OE" unicode="&#x152;" horiz-adv-x="556" 
d="M237 0c-67 0 -114 17 -149 52c-36 36 -57 98 -57 183c0 121 41 308 127 394c50 50 113 71 186 71h270l-22 -116h-146l-34 -174h129l-23 -116h-129l-34 -178h149l-23 -116h-244zM180 129c14 -14 30 -17 47 -17h5l92 476h-5c-28 0 -52 -9 -76 -33
c-61 -61 -92 -249 -92 -317c0 -34 2 -82 29 -109z" />
    <glyph glyph-name="oe" unicode="&#x153;" horiz-adv-x="576" 
d="M550 213h-197c-1 -14 -2 -25 -2 -32c0 -62 25 -81 67 -81c26 0 52 7 95 28l-12 -109c-32 -19 -69 -29 -103 -29c-54 0 -100 20 -127 76c-41 -59 -84 -76 -122 -76c-84 0 -135 62 -135 180c0 74 24 242 109 327c32 32 68 47 106 47c47 0 83 -23 103 -71
c33 47 71 71 120 71c75 0 121 -58 121 -160c0 -44 -5 -83 -23 -171zM157 95c8 0 15 3 24 12c41 41 67 216 67 274c0 39 -8 58 -27 58c-8 0 -15 -3 -24 -12c-41 -41 -67 -216 -67 -274c0 -39 8 -58 27 -58zM418 429c-21 -21 -38 -72 -49 -123h88c7 33 11 61 11 83
c0 32 -10 50 -28 50c-7 0 -15 -3 -22 -10z" />
    <glyph glyph-name="Ograve" unicode="&#xd2;" horiz-adv-x="420" 
d="M280 710c118 0 151 -100 151 -210c0 -122 -44 -360 -142 -458c-37 -37 -76 -52 -118 -52c-118 0 -151 100 -151 210c0 122 44 360 142 458c37 37 76 52 118 52zM179 102c9 0 18 4 27 13c57 56 103 327 103 411c0 52 -12 72 -37 72c-9 0 -18 -4 -27 -13
c-57 -56 -103 -327 -103 -411c0 -52 12 -72 37 -72zM257 740l-96 74l96 53l87 -127h-87z" />
    <glyph glyph-name="ograve" unicode="&#xf2;" horiz-adv-x="378" 
d="M228 544c83 0 136 -62 136 -180c0 -74 -21 -242 -106 -327c-32 -32 -69 -47 -108 -47c-83 0 -136 62 -136 180c0 74 21 242 106 327c32 32 69 47 108 47zM157 95c8 0 15 3 24 12c41 41 69 211 69 275c0 39 -10 57 -29 57c-8 0 -15 -3 -24 -12c-41 -41 -69 -211 -69 -275
c0 -39 10 -57 29 -57zM201 580l-96 95l88 52l87 -147h-79z" />
    <glyph glyph-name="Ohungarumlaut" unicode="&#x150;" horiz-adv-x="420" 
d="M280 710c118 0 151 -100 151 -210c0 -122 -44 -360 -142 -458c-37 -37 -76 -52 -118 -52c-118 0 -151 100 -151 210c0 122 44 360 142 458c37 37 76 52 118 52zM179 102c9 0 18 4 27 13c57 56 103 327 103 411c0 52 -12 72 -37 72c-9 0 -18 -4 -27 -13
c-57 -56 -103 -327 -103 -411c0 -52 12 -72 37 -72zM302 740l54 64l-93 -64h-86l108 127l82 -51l43 51l86 -53l-108 -74h-86z" />
    <glyph glyph-name="ohungarumlaut" unicode="&#x151;" horiz-adv-x="378" 
d="M228 544c83 0 136 -62 136 -180c0 -74 -21 -242 -106 -327c-32 -32 -69 -47 -108 -47c-83 0 -136 62 -136 180c0 74 21 242 106 327c32 32 69 47 108 47zM157 95c8 0 15 3 24 12c41 41 69 211 69 275c0 39 -10 57 -29 57c-8 0 -15 -3 -24 -12c-41 -41 -69 -211 -69 -275
c0 -39 10 -57 29 -57zM250 580l66 90l-102 -90h-79l108 147l78 -50l37 50l80 -51l-109 -96h-79z" />
    <glyph glyph-name="Omacron" unicode="&#x14c;" horiz-adv-x="420" 
d="M280 710c118 0 151 -100 151 -210c0 -122 -44 -360 -142 -458c-37 -37 -76 -52 -118 -52c-118 0 -151 100 -151 210c0 122 44 360 142 458c37 37 76 52 118 52zM179 102c9 0 18 4 27 13c57 56 103 327 103 411c0 52 -12 72 -37 72c-9 0 -18 -4 -27 -13
c-57 -56 -103 -327 -103 -411c0 -52 12 -72 37 -72zM181 743l15 79h242l-15 -79h-242z" />
    <glyph glyph-name="omacron" unicode="&#x14d;" horiz-adv-x="378" 
d="M228 544c83 0 136 -62 136 -180c0 -74 -21 -242 -106 -327c-32 -32 -69 -47 -108 -47c-83 0 -136 62 -136 180c0 74 21 242 106 327c32 32 69 47 108 47zM157 95c8 0 15 3 24 12c41 41 69 211 69 275c0 39 -10 57 -29 57c-8 0 -15 -3 -24 -12c-41 -41 -69 -211 -69 -275
c0 -39 10 -57 29 -57zM135 583l15 78h232l-15 -78h-232z" />
    <glyph glyph-name="Oslash" unicode="&#xd8;" horiz-adv-x="420" 
d="M280 710c46 0 79 -16 103 -41l22 36h70l-59 -97c11 -32 15 -70 15 -108c0 -122 -44 -360 -142 -458c-37 -37 -76 -52 -118 -52c-47 0 -80 15 -103 41l-22 -36h-70l58 96c-10 33 -14 70 -14 109c0 122 44 360 142 458c37 37 76 52 118 52zM245 587
c-43 -42 -81 -203 -97 -319l160 292c-4 28 -16 40 -35 40c-9 0 -18 -4 -28 -13zM178 100c9 0 18 4 28 13c43 41 80 202 96 318l-160 -292c5 -28 17 -39 36 -39z" />
    <glyph glyph-name="oslash" unicode="&#xf8;" horiz-adv-x="378" 
d="M228 544c39 0 72 -14 95 -41l29 41h68l-68 -95c8 -24 12 -53 12 -85c0 -74 -21 -242 -106 -327c-32 -32 -69 -47 -108 -47c-40 0 -72 14 -96 41l-28 -41h-68l67 95c-7 24 -11 52 -11 85c0 74 21 242 106 327c32 32 69 47 108 47zM222 441c-9 0 -18 -4 -26 -12
c-35 -35 -59 -132 -69 -207l126 191c-5 19 -16 28 -31 28zM182 105c35 35 58 132 69 207l-127 -192c6 -18 17 -27 32 -27c9 0 18 4 26 12z" />
    <glyph glyph-name="Oslashacute" unicode="&#x1fe;" horiz-adv-x="420" 
d="M280 710c46 0 79 -16 103 -41l22 36h70l-59 -97c11 -32 15 -70 15 -108c0 -122 -44 -360 -142 -458c-37 -37 -76 -52 -118 -52c-47 0 -80 15 -103 41l-22 -36h-70l58 96c-10 33 -14 70 -14 109c0 122 44 360 142 458c37 37 76 52 118 52zM245 587
c-43 -42 -81 -203 -97 -319l160 292c-4 28 -16 40 -35 40c-9 0 -18 -4 -28 -13zM178 100c9 0 18 4 28 13c43 41 80 202 96 318l-160 -292c5 -28 17 -39 36 -39zM249 740l110 127l96 -53l-114 -74h-92z" />
    <glyph glyph-name="oslashacute" unicode="&#x1ff;" horiz-adv-x="378" 
d="M228 544c39 0 72 -14 95 -41l29 41h68l-68 -95c8 -24 12 -53 12 -85c0 -74 -21 -242 -106 -327c-32 -32 -69 -47 -108 -47c-40 0 -72 14 -96 41l-28 -41h-68l67 95c-7 24 -11 52 -11 85c0 74 21 242 106 327c32 32 69 47 108 47zM199 580l110 147l88 -52l-114 -95h-84z
M222 441c-9 0 -18 -4 -26 -12c-35 -35 -59 -132 -69 -207l126 191c-5 19 -16 28 -31 28zM182 105c35 35 58 132 69 207l-127 -192c6 -18 17 -27 32 -27c9 0 18 4 26 12z" />
    <glyph glyph-name="Otilde" unicode="&#xd5;" horiz-adv-x="420" 
d="M280 710c118 0 151 -100 151 -210c0 -122 -44 -360 -142 -458c-37 -37 -76 -52 -118 -52c-118 0 -151 100 -151 210c0 122 44 360 142 458c37 37 76 52 118 52zM179 102c9 0 18 4 27 13c57 56 103 327 103 411c0 52 -12 72 -37 72c-9 0 -18 -4 -27 -13
c-57 -56 -103 -327 -103 -411c0 -52 12 -72 37 -72zM234 735l-68 17c29 80 48 109 88 109c22 0 45 -11 64 -21c15 -7 28 -14 38 -14c13 0 21 9 35 39l68 -17c-29 -80 -49 -109 -89 -109c-21 0 -42 10 -61 19c-15 8 -31 16 -41 16c-13 0 -20 -9 -34 -39z" />
    <glyph glyph-name="otilde" unicode="&#xf5;" horiz-adv-x="378" 
d="M228 544c83 0 136 -62 136 -180c0 -74 -21 -242 -106 -327c-32 -32 -69 -47 -108 -47c-83 0 -136 62 -136 180c0 74 21 242 106 327c32 32 69 47 108 47zM157 95c8 0 15 3 24 12c41 41 69 211 69 275c0 39 -10 57 -29 57c-8 0 -15 -3 -24 -12c-41 -41 -69 -211 -69 -275
c0 -39 10 -57 29 -57zM340 701l65 -16c-25 -75 -52 -106 -90 -106c-21 0 -38 11 -57 20c-16 8 -29 15 -39 15c-15 0 -24 -9 -37 -39l-65 16c28 79 52 106 90 106c21 0 38 -11 57 -20c15 -8 28 -15 38 -15c15 0 25 9 38 39z" />
    <glyph glyph-name="Racute" unicode="&#x154;" horiz-adv-x="398" 
d="M212 0l-32 244h-16h-11l-47 -244h-122l136 700h86c86 0 134 -21 164 -51c35 -35 50 -79 50 -138c0 -68 -24 -144 -78 -198c-12 -12 -26 -23 -43 -32l38 -281h-125zM174 354h6c31 0 57 9 77 29c26 26 41 75 41 125c0 26 -7 46 -20 59s-32 19 -55 19h-3zM218 735l110 127
l96 -53l-114 -74h-92z" />
    <glyph glyph-name="racute" unicode="&#x155;" horiz-adv-x="250" 
d="M-19 0l104 536h117l-14 -72c27 52 58 81 102 78l-27 -142h-2c-56 0 -91 -38 -106 -114l-56 -286h-118zM139 575l110 147l88 -52l-114 -95h-84z" />
    <glyph glyph-name="Rcaron" unicode="&#x158;" horiz-adv-x="398" 
d="M212 0l-32 244h-16h-11l-47 -244h-122l136 700h86c86 0 134 -21 164 -51c35 -35 50 -79 50 -138c0 -68 -24 -144 -78 -198c-12 -12 -26 -23 -43 -32l38 -281h-125zM174 354h6c31 0 57 9 77 29c26 26 41 75 41 125c0 26 -7 46 -20 59s-32 19 -55 19h-3zM411 854l-97 -119
h-96l-51 119h79l32 -48l50 48h83z" />
    <glyph glyph-name="rcaron" unicode="&#x159;" horiz-adv-x="250" 
d="M-19 0l104 536h117l-14 -72c27 52 58 81 102 78l-27 -142h-2c-56 0 -91 -38 -106 -114l-56 -286h-118zM143 575l-51 139h73l34 -62l58 62h79l-105 -139h-88z" />
    <glyph glyph-name="Rcommaaccent" unicode="&#x156;" horiz-adv-x="398" 
d="M212 0l-32 244h-16h-11l-47 -244h-122l136 700h86c86 0 134 -21 164 -51c35 -35 50 -79 50 -138c0 -68 -24 -144 -78 -198c-12 -12 -26 -23 -43 -32l38 -281h-125zM174 354h6c31 0 57 9 77 29c26 26 41 75 41 125c0 26 -7 46 -20 59s-32 19 -55 19h-3zM33 -225l-1 40
c45 5 59 18 64 53h-48l17 90h106l-15 -81c-13 -71 -58 -99 -123 -102z" />
    <glyph glyph-name="rcommaaccent" unicode="&#x157;" horiz-adv-x="250" 
d="M-19 0l104 536h117l-14 -72c27 52 58 81 102 78l-27 -142h-2c-56 0 -91 -38 -106 -114l-56 -286h-118zM-52 -225l-1 40c45 5 59 18 64 53h-48l17 90h106l-15 -81c-13 -71 -58 -99 -123 -102z" />
    <glyph glyph-name="Sacute" unicode="&#x15a;" horiz-adv-x="325" 
d="M116 -5c-51 0 -96 15 -138 44l24 125c29 -24 67 -54 110 -54c42 0 69 33 69 82c0 25 -9 56 -50 120c-46 74 -74 129 -74 199c0 53 21 108 54 141c39 39 84 53 129 53c42 0 83 -11 123 -37l-24 -125c-29 24 -60 47 -96 47c-41 0 -64 -32 -64 -71c0 -26 12 -64 43 -114
c56 -90 81 -140 81 -204c0 -48 -11 -106 -60 -155c-27 -27 -68 -51 -127 -51zM199 740l110 127l96 -53l-114 -74h-92z" />
    <glyph glyph-name="sacute" unicode="&#x15b;" horiz-adv-x="284" 
d="M102 -10c-49 0 -97 18 -126 43l22 109c40 -31 70 -46 96 -46c28 0 46 21 46 50c0 22 -10 44 -44 96c-37 57 -59 94 -59 151c0 84 59 151 153 151c43 0 80 -13 107 -31l-22 -109c-36 25 -62 34 -81 34c-28 0 -43 -19 -43 -43c0 -19 11 -42 45 -92c32 -47 58 -95 58 -151
c0 -90 -58 -162 -152 -162zM141 580l110 147l88 -52l-114 -95h-84z" />
    <glyph glyph-name="Scaron" unicode="&#x160;" horiz-adv-x="325" 
d="M116 -5c-51 0 -96 15 -138 44l24 125c29 -24 67 -54 110 -54c42 0 69 33 69 82c0 25 -9 56 -50 120c-46 74 -74 129 -74 199c0 53 21 108 54 141c39 39 84 53 129 53c42 0 83 -11 123 -37l-24 -125c-29 24 -60 47 -96 47c-41 0 -64 -32 -64 -71c0 -26 12 -64 43 -114
c56 -90 81 -140 81 -204c0 -48 -11 -106 -60 -155c-27 -27 -68 -51 -127 -51zM392 859l-97 -119h-96l-51 119h79l32 -48l50 48h83z" />
    <glyph glyph-name="scaron" unicode="&#x161;" horiz-adv-x="284" 
d="M102 -10c-49 0 -97 18 -126 43l22 109c40 -31 70 -46 96 -46c28 0 46 21 46 50c0 22 -10 44 -44 96c-37 57 -59 94 -59 151c0 84 59 151 153 151c43 0 80 -13 107 -31l-22 -109c-36 25 -62 34 -81 34c-28 0 -43 -19 -43 -43c0 -19 11 -42 45 -92c32 -47 58 -95 58 -151
c0 -90 -58 -162 -152 -162zM144 580l-51 139h73l34 -62l58 62h79l-105 -139h-88z" />
    <glyph glyph-name="Scedilla" unicode="&#x15e;" horiz-adv-x="325" 
d="M92 -127l-95 39l75 87c-34 6 -65 19 -94 40l24 125c29 -24 67 -54 110 -54c42 0 69 33 69 82c0 25 -9 56 -50 120c-46 74 -74 129 -74 199c0 53 21 108 54 141c39 39 84 53 129 53c42 0 83 -11 123 -37l-24 -125c-29 24 -60 47 -96 47c-41 0 -64 -32 -64 -71
c0 -26 12 -64 43 -114c56 -90 81 -140 81 -204c0 -48 -11 -106 -60 -155c-20 -20 -48 -39 -85 -46z" />
    <glyph glyph-name="scedilla" unicode="&#x15f;" horiz-adv-x="284" 
d="M70 -127l-95 39l73 85c-29 7 -54 20 -72 36l22 109c40 -31 70 -46 96 -46c28 0 46 21 46 50c0 22 -10 44 -44 96c-37 57 -59 94 -59 151c0 84 59 151 153 151c43 0 80 -13 107 -31l-22 -109c-36 25 -62 34 -81 34c-28 0 -43 -19 -43 -43c0 -19 11 -42 45 -92
c32 -47 58 -95 58 -151c0 -80 -46 -146 -122 -159z" />
    <glyph glyph-name="Scommaaccent" unicode="&#x218;" horiz-adv-x="325" 
d="M116 -5c-51 0 -96 15 -138 44l24 125c29 -24 67 -54 110 -54c42 0 69 33 69 82c0 25 -9 56 -50 120c-46 74 -74 129 -74 199c0 53 21 108 54 141c39 39 84 53 129 53c42 0 83 -11 123 -37l-24 -125c-29 24 -60 47 -96 47c-41 0 -64 -32 -64 -71c0 -26 12 -64 43 -114
c56 -90 81 -140 81 -204c0 -48 -11 -106 -60 -155c-27 -27 -68 -51 -127 -51zM13 -225l-1 40c45 5 59 18 64 53h-48l17 90h106l-15 -81c-13 -71 -58 -99 -123 -102z" />
    <glyph glyph-name="scommaaccent" unicode="&#x219;" horiz-adv-x="284" 
d="M102 -10c-49 0 -97 18 -126 43l22 109c40 -31 70 -46 96 -46c28 0 46 21 46 50c0 22 -10 44 -44 96c-37 57 -59 94 -59 151c0 84 59 151 153 151c43 0 80 -13 107 -31l-22 -109c-36 25 -62 34 -81 34c-28 0 -43 -19 -43 -43c0 -19 11 -42 45 -92c32 -47 58 -95 58 -151
c0 -90 -58 -162 -152 -162zM-16 -225l-1 40c45 5 59 18 64 53h-48l17 90h106l-15 -81c-13 -71 -58 -99 -123 -102z" />
    <glyph glyph-name="Tcaron" unicode="&#x164;" horiz-adv-x="324" 
d="M49 0l114 584h-86l22 116h294l-22 -116h-86l-114 -584h-122zM394 854l-97 -119h-96l-51 119h79l32 -48l50 48h83z" />
    <glyph glyph-name="tcaron" unicode="&#x165;" horiz-adv-x="244" 
d="M110 -7c-52 0 -95 26 -95 90c0 10 2 27 7 55l59 302h-32l18 96h32l27 137h118l-27 -137h63l-18 -96h-63l-51 -257c-4 -20 -10 -50 -10 -62c0 -16 10 -24 28 -24c9 0 16 1 30 4l-19 -96c-17 -7 -43 -12 -67 -12zM244 560l38 145h82l-1 -2l-65 -143h-54z" />
    <glyph glyph-name="Tcommaaccent" unicode="&#x162;" horiz-adv-x="324" 
d="M49 0l114 584h-86l22 116h294l-22 -116h-86l-114 -584h-122zM16 -225l-1 40c45 5 59 18 64 53h-48l17 90h106l-15 -81c-13 -71 -58 -99 -123 -102z" />
    <glyph glyph-name="tcommaaccent" unicode="&#x163;" horiz-adv-x="244" 
d="M110 -7c-52 0 -95 26 -95 90c0 10 2 27 7 55l59 302h-32l18 96h32l27 137h118l-27 -137h63l-18 -96h-63l-51 -257c-4 -20 -10 -50 -10 -62c0 -16 10 -24 28 -24c9 0 16 1 30 4l-19 -96c-17 -7 -43 -12 -67 -12zM-4 -225l-1 40c45 5 59 18 64 53h-48l17 90h106l-15 -81
c-13 -71 -58 -99 -123 -102z" />
    <glyph glyph-name="Thorn" unicode="&#xde;" horiz-adv-x="385" 
d="M-16 0l136 700h122l-19 -98c49 -3 94 -22 123 -51c32 -32 49 -77 49 -136c0 -69 -24 -163 -84 -223c-48 -48 -111 -69 -181 -69l-24 -123h-122zM152 236h2c25 0 49 8 71 30c33 33 47 94 47 138c0 31 -9 55 -23 69c-10 10 -25 17 -43 17h-4z" />
    <glyph glyph-name="thorn" unicode="&#xfe;" horiz-adv-x="386" 
d="M236 705l-46 -236c29 41 61 77 103 77c51 0 82 -43 82 -144c0 -128 -46 -316 -112 -382c-22 -22 -44 -30 -68 -30c-49 0 -73 42 -83 75l-38 -195h-118l162 835h118zM166 103c9 0 15 3 22 10c39 39 66 206 66 262c0 37 -7 58 -28 58c-9 0 -15 -3 -22 -10
c-39 -39 -66 -206 -66 -262c0 -37 7 -58 28 -58z" />
    <glyph glyph-name="Uacute" unicode="&#xda;" horiz-adv-x="416" 
d="M174 -9c-91 0 -156 55 -156 157c0 22 2 45 7 72l93 480h121l-91 -470c-8 -40 -10 -62 -10 -75c0 -36 22 -50 44 -50c16 0 27 6 35 14c14 14 22 34 29 69l99 512h121l-99 -510c-12 -64 -34 -116 -68 -150s-79 -49 -125 -49zM243 730l110 127l96 -53l-114 -74h-92z" />
    <glyph glyph-name="uacute" unicode="&#xfa;" horiz-adv-x="379" 
d="M83 -10c-56 0 -84 40 -84 94c0 18 2 33 6 56l77 396h118l-70 -358c-4 -22 -6 -33 -6 -45c0 -23 11 -37 30 -37c24 0 45 24 52 61l74 379h118l-104 -536h-118l12 64c-30 -44 -64 -74 -105 -74zM195 570l110 147l88 -52l-114 -95h-84z" />
    <glyph glyph-name="Ubreve" unicode="&#x16c;" horiz-adv-x="416" 
d="M174 -9c-91 0 -156 55 -156 157c0 22 2 45 7 72l93 480h121l-91 -470c-8 -40 -10 -62 -10 -75c0 -36 22 -50 44 -50c16 0 27 6 35 14c14 14 22 34 29 69l99 512h121l-99 -510c-12 -64 -34 -116 -68 -150s-79 -49 -125 -49zM294 724c-65 0 -113 36 -100 111h68
c-1 -27 14 -39 39 -39s42 12 51 39h72c-16 -75 -66 -111 -130 -111z" />
    <glyph glyph-name="ubreve" unicode="&#x16d;" horiz-adv-x="379" 
d="M83 -10c-56 0 -84 40 -84 94c0 18 2 33 6 56l77 396h118l-70 -358c-4 -22 -6 -33 -6 -45c0 -23 11 -37 30 -37c24 0 45 24 52 61l74 379h118l-104 -536h-118l12 64c-30 -44 -64 -74 -105 -74zM247 564c-62 0 -110 37 -104 119h68c0 -28 13 -47 42 -47s47 19 54 47h72
c-16 -82 -70 -119 -132 -119z" />
    <glyph glyph-name="Ucircumflex" unicode="&#xdb;" horiz-adv-x="416" 
d="M174 -9c-91 0 -156 55 -156 157c0 22 2 45 7 72l93 480h121l-91 -470c-8 -40 -10 -62 -10 -75c0 -36 22 -50 44 -50c16 0 27 6 35 14c14 14 22 34 29 69l99 512h121l-99 -510c-12 -64 -34 -116 -68 -150s-79 -49 -125 -49zM169 730l97 119h96l51 -119h-79l-32 48l-50 -48
h-83z" />
    <glyph glyph-name="ucircumflex" unicode="&#xfb;" horiz-adv-x="379" 
d="M83 -10c-56 0 -84 40 -84 94c0 18 2 33 6 56l77 396h118l-70 -358c-4 -22 -6 -33 -6 -45c0 -23 11 -37 30 -37c24 0 45 24 52 61l74 379h118l-104 -536h-118l12 64c-30 -44 -64 -74 -105 -74zM117 570l105 139h88l51 -139h-73l-34 62l-58 -62h-79z" />
    <glyph glyph-name="Udieresis" unicode="&#xdc;" horiz-adv-x="416" 
d="M174 -9c-91 0 -156 55 -156 157c0 22 2 45 7 72l93 480h121l-91 -470c-8 -40 -10 -62 -10 -75c0 -36 22 -50 44 -50c16 0 27 6 35 14c14 14 22 34 29 69l99 512h121l-99 -510c-12 -64 -34 -116 -68 -150s-79 -49 -125 -49zM167 733l21 108h108l-21 -108h-108zM317 733
l21 108h108l-21 -108h-108z" />
    <glyph glyph-name="udieresis" unicode="&#xfc;" horiz-adv-x="379" 
d="M83 -10c-56 0 -84 40 -84 94c0 18 2 33 6 56l77 396h118l-70 -358c-4 -22 -6 -33 -6 -45c0 -23 11 -37 30 -37c24 0 45 24 52 61l74 379h118l-104 -536h-118l12 64c-30 -44 -64 -74 -105 -74zM122 573l21 108h106l-21 -108h-106zM264 573l21 108h106l-21 -108h-106z" />
    <glyph glyph-name="Ugrave" unicode="&#xd9;" horiz-adv-x="416" 
d="M174 -9c-91 0 -156 55 -156 157c0 22 2 45 7 72l93 480h121l-91 -470c-8 -40 -10 -62 -10 -75c0 -36 22 -50 44 -50c16 0 27 6 35 14c14 14 22 34 29 69l99 512h121l-99 -510c-12 -64 -34 -116 -68 -150s-79 -49 -125 -49zM251 730l-96 74l96 53l87 -127h-87z" />
    <glyph glyph-name="ugrave" unicode="&#xf9;" horiz-adv-x="379" 
d="M83 -10c-56 0 -84 40 -84 94c0 18 2 33 6 56l77 396h118l-70 -358c-4 -22 -6 -33 -6 -45c0 -23 11 -37 30 -37c24 0 45 24 52 61l74 379h118l-104 -536h-118l12 64c-30 -44 -64 -74 -105 -74zM196 570l-96 95l88 52l87 -147h-79z" />
    <glyph glyph-name="Uhungarumlaut" unicode="&#x170;" horiz-adv-x="416" 
d="M174 -9c-91 0 -156 55 -156 157c0 22 2 45 7 72l93 480h121l-91 -470c-8 -40 -10 -62 -10 -75c0 -36 22 -50 44 -50c16 0 27 6 35 14c14 14 22 34 29 69l99 512h121l-99 -510c-12 -64 -34 -116 -68 -150s-79 -49 -125 -49zM296 730l54 64l-93 -64h-86l108 127l82 -51
l43 51l86 -53l-108 -74h-86z" />
    <glyph glyph-name="uhungarumlaut" unicode="&#x171;" horiz-adv-x="379" 
d="M83 -10c-56 0 -84 40 -84 94c0 18 2 33 6 56l77 396h118l-70 -358c-4 -22 -6 -33 -6 -45c0 -23 11 -37 30 -37c24 0 45 24 52 61l74 379h118l-104 -536h-118l12 64c-30 -44 -64 -74 -105 -74zM245 570l66 90l-102 -90h-79l108 147l78 -50l37 50l80 -51l-109 -96h-79z" />
    <glyph glyph-name="Umacron" unicode="&#x16a;" horiz-adv-x="416" 
d="M174 -9c-91 0 -156 55 -156 157c0 22 2 45 7 72l93 480h121l-91 -470c-8 -40 -10 -62 -10 -75c0 -36 22 -50 44 -50c16 0 27 6 35 14c14 14 22 34 29 69l99 512h121l-99 -510c-12 -64 -34 -116 -68 -150s-79 -49 -125 -49zM175 733l15 79h242l-15 -79h-242z" />
    <glyph glyph-name="umacron" unicode="&#x16b;" horiz-adv-x="379" 
d="M83 -10c-56 0 -84 40 -84 94c0 18 2 33 6 56l77 396h118l-70 -358c-4 -22 -6 -33 -6 -45c0 -23 11 -37 30 -37c24 0 45 24 52 61l74 379h118l-104 -536h-118l12 64c-30 -44 -64 -74 -105 -74zM130 573l15 78h232l-15 -78h-232z" />
    <glyph glyph-name="Uogonek" unicode="&#x172;" horiz-adv-x="416" 
d="M204 -79l-13 -68c-16 -3 -33 -4 -44 -4c-52 0 -81 25 -81 64c0 35 21 59 51 86c-60 18 -99 69 -99 149c0 22 2 45 7 72l93 480h121l-91 -470c-8 -40 -10 -62 -10 -75c0 -36 22 -50 44 -50c16 0 27 6 35 14c14 14 22 34 29 69l99 512h121l-99 -510
c-12 -64 -34 -116 -68 -150c-30 -30 -67 -44 -106 -48c-18 -19 -30 -36 -30 -49c0 -17 15 -24 41 -22z" />
    <glyph glyph-name="uogonek" unicode="&#x173;" horiz-adv-x="379" 
d="M283 -79l-13 -68c-16 -3 -33 -4 -44 -4c-52 0 -81 25 -81 64c0 35 22 60 53 87h-22l12 64c-30 -44 -64 -74 -105 -74c-56 0 -84 40 -84 94c0 18 2 33 6 56l77 396h118l-70 -358c-4 -22 -6 -33 -6 -45c0 -23 11 -37 30 -37c24 0 45 24 52 61l74 379h118l-104 -536h-15
c-21 -23 -37 -42 -37 -57c0 -17 15 -24 41 -22z" />
    <glyph glyph-name="Uring" unicode="&#x16e;" horiz-adv-x="416" 
d="M174 -9c-91 0 -156 55 -156 157c0 22 2 45 7 72l93 480h121l-91 -470c-8 -40 -10 -62 -10 -75c0 -36 22 -50 44 -50c16 0 27 6 35 14c14 14 22 34 29 69l99 512h121l-99 -510c-12 -64 -34 -116 -68 -150s-79 -49 -125 -49zM320 892c46 0 79 -32 79 -73
c0 -55 -45 -95 -98 -95c-46 0 -79 32 -79 73c0 55 45 95 98 95zM305 768c24 0 45 19 45 46c0 20 -14 34 -34 34c-24 0 -45 -19 -45 -46c0 -20 14 -34 34 -34z" />
    <glyph glyph-name="uring" unicode="&#x16f;" horiz-adv-x="379" 
d="M83 -10c-56 0 -84 40 -84 94c0 18 2 33 6 56l77 396h118l-70 -358c-4 -22 -6 -33 -6 -45c0 -23 11 -37 30 -37c24 0 45 24 52 61l74 379h118l-104 -536h-118l12 64c-30 -44 -64 -74 -105 -74zM348 664c0 -51 -37 -100 -95 -100c-48 0 -79 36 -79 80c0 51 37 100 95 100
c48 0 79 -36 79 -80zM222 647c0 -20 11 -38 34 -38c26 0 44 24 44 52c0 20 -11 38 -34 38c-26 0 -44 -24 -44 -52z" />
    <glyph glyph-name="Wacute" unicode="&#x1e82;" horiz-adv-x="592" 
d="M57 -2l30 702h123l-32 -429l144 429h113l-23 -429l135 429h124l-242 -702h-128l22 415l-138 -415h-128zM333 735l110 127l96 -53l-114 -74h-92z" />
    <glyph glyph-name="wacute" unicode="&#x1e83;" horiz-adv-x="526" 
d="M50 -2l13 538h118l-18 -305l105 305h94l-13 -305l100 305h118l-195 -538h-114l10 297l-104 -297h-114zM275 575l110 147l88 -52l-114 -95h-84z" />
    <glyph glyph-name="Wcircumflex" unicode="&#x174;" horiz-adv-x="592" 
d="M57 -2l30 702h123l-32 -429l144 429h113l-23 -429l135 429h124l-242 -702h-128l22 415l-138 -415h-128zM259 735l97 119h96l51 -119h-79l-32 48l-50 -48h-83z" />
    <glyph glyph-name="wcircumflex" unicode="&#x175;" horiz-adv-x="526" 
d="M50 -2l13 538h118l-18 -305l105 305h94l-13 -305l100 305h118l-195 -538h-114l10 297l-104 -297h-114zM197 575l105 139h88l51 -139h-73l-34 62l-58 -62h-79z" />
    <glyph glyph-name="Wdieresis" unicode="&#x1e84;" horiz-adv-x="592" 
d="M57 -2l30 702h123l-32 -429l144 429h113l-23 -429l135 429h124l-242 -702h-128l22 415l-138 -415h-128zM257 738l21 108h108l-21 -108h-108zM407 738l21 108h108l-21 -108h-108z" />
    <glyph glyph-name="wdieresis" unicode="&#x1e85;" horiz-adv-x="526" 
d="M50 -2l13 538h118l-18 -305l105 305h94l-13 -305l100 305h118l-195 -538h-114l10 297l-104 -297h-114zM202 578l21 108h106l-21 -108h-106zM344 578l21 108h106l-21 -108h-106z" />
    <glyph glyph-name="Wgrave" unicode="&#x1e80;" horiz-adv-x="592" 
d="M57 -2l30 702h123l-32 -429l144 429h113l-23 -429l135 429h124l-242 -702h-128l22 415l-138 -415h-128zM341 735l-96 74l96 53l87 -127h-87z" />
    <glyph glyph-name="wgrave" unicode="&#x1e81;" horiz-adv-x="526" 
d="M50 -2l13 538h118l-18 -305l105 305h94l-13 -305l100 305h118l-195 -538h-114l10 297l-104 -297h-114zM276 575l-96 95l88 52l87 -147h-79z" />
    <glyph glyph-name="Yacute" unicode="&#xdd;" horiz-adv-x="382" 
d="M78 0l54 276l-48 424h123l15 -262l118 262h126l-212 -424l-54 -276h-122zM222 730l110 127l96 -53l-114 -74h-92z" />
    <glyph glyph-name="yacute" unicode="&#xfd;" horiz-adv-x="362" 
d="M72 15l-10 521h118l-10 -315l117 315h115l-277 -666h-114zM187 570l110 147l88 -52l-114 -95h-84z" />
    <glyph glyph-name="Ycircumflex" unicode="&#x176;" horiz-adv-x="382" 
d="M78 0l54 276l-48 424h123l15 -262l118 262h126l-212 -424l-54 -276h-122zM148 730l97 119h96l51 -119h-79l-32 48l-50 -48h-83z" />
    <glyph glyph-name="ycircumflex" unicode="&#x177;" horiz-adv-x="362" 
d="M72 15l-10 521h118l-10 -315l117 315h115l-277 -666h-114zM109 570l105 139h88l51 -139h-73l-34 62l-58 -62h-79z" />
    <glyph glyph-name="Ydieresis" unicode="&#x178;" horiz-adv-x="382" 
d="M78 0l54 276l-48 424h123l15 -262l118 262h126l-212 -424l-54 -276h-122zM146 733l21 108h108l-21 -108h-108zM296 733l21 108h108l-21 -108h-108z" />
    <glyph glyph-name="ydieresis" unicode="&#xff;" horiz-adv-x="362" 
d="M72 15l-10 521h118l-10 -315l117 315h115l-277 -666h-114zM255 573l21 108h106l-21 -108h-106zM113 573l21 108h106l-21 -108h-106z" />
    <glyph glyph-name="Ygrave" unicode="&#x1ef2;" horiz-adv-x="382" 
d="M78 0l54 276l-48 424h123l15 -262l118 262h126l-212 -424l-54 -276h-122zM230 730l-96 74l96 53l87 -127h-87z" />
    <glyph glyph-name="ygrave" unicode="&#x1ef3;" horiz-adv-x="362" 
d="M72 15l-10 521h118l-10 -315l117 315h115l-277 -666h-114zM188 570l-96 95l88 52l87 -147h-79z" />
    <glyph glyph-name="Zacute" unicode="&#x179;" horiz-adv-x="334" 
d="M-29 0l20 101l245 484h-151l22 115h289l-20 -101l-245 -484h157l-22 -115h-295zM203 735l110 127l96 -53l-114 -74h-92z" />
    <glyph glyph-name="zacute" unicode="&#x17a;" horiz-adv-x="284" 
d="M-40 0l17 89l200 347h-133l19 100h262l-17 -89l-200 -347h138l-19 -100h-267zM145 575l110 147l88 -52l-114 -95h-84z" />
    <glyph glyph-name="Zcaron" unicode="&#x17d;" horiz-adv-x="334" 
d="M-29 0l20 101l245 484h-151l22 115h289l-20 -101l-245 -484h157l-22 -115h-295zM396 854l-97 -119h-96l-51 119h79l32 -48l50 48h83z" />
    <glyph glyph-name="zcaron" unicode="&#x17e;" horiz-adv-x="284" 
d="M-40 0l17 89l200 347h-133l19 100h262l-17 -89l-200 -347h138l-19 -100h-267zM148 575l-51 139h73l34 -62l58 62h79l-105 -139h-88z" />
    <glyph glyph-name="Zdotaccent" unicode="&#x17b;" horiz-adv-x="334" 
d="M-29 0l20 101l245 484h-151l22 115h289l-20 -101l-245 -484h157l-22 -115h-295zM201 738l21 108h110l-21 -108h-110z" />
    <glyph glyph-name="zdotaccent" unicode="&#x17c;" horiz-adv-x="284" 
d="M-40 0l17 89l200 347h-133l19 100h262l-17 -89l-200 -347h138l-19 -100h-267zM142 578l21 108h108l-21 -108h-108z" />
    <glyph glyph-name="schwa" unicode="&#x259;" horiz-adv-x="350" 
d="M3 150c0 44 5 83 23 171h196c2 13 3 25 3 32c0 62 -25 81 -67 81c-26 0 -52 -7 -95 -28l12 109c32 19 69 29 103 29c92 0 160 -57 160 -191c0 -67 -23 -232 -108 -317c-32 -32 -70 -46 -106 -46c-75 0 -121 58 -121 160zM158 105c20 20 37 71 48 123h-87
c-7 -33 -11 -61 -11 -83c0 -32 10 -50 28 -50c7 0 15 3 22 10z" />
    <glyph glyph-name="germandbls" unicode="&#xdf;" horiz-adv-x="402" 
d="M146 -2l19 101c70 -2 91 67 91 134c0 45 -17 68 -49 84l17 84c54 24 79 87 79 142c0 38 -16 61 -42 61c-37 0 -51 -38 -64 -102l-98 -502h-118l98 508c14 72 37 120 67 150c36 36 78 48 119 48c95 0 154 -68 154 -159c0 -75 -34 -148 -113 -185c44 -38 67 -82 67 -142
c0 -105 -49 -231 -227 -222z" />
    <glyph glyph-name="zero" unicode="0" horiz-adv-x="394" 
d="M265 710c83 0 139 -56 139 -189c0 -117 -42 -390 -138 -486c-32 -32 -68 -45 -108 -45c-83 0 -139 56 -139 189c0 117 42 390 138 486c32 32 68 45 108 45zM166 102c6 0 14 2 23 11c47 47 99 338 99 430c0 48 -17 55 -31 55c-6 0 -14 -2 -23 -11
c-47 -47 -99 -338 -99 -430c0 -48 17 -55 31 -55z" />
    <glyph glyph-name="one" unicode="1" horiz-adv-x="253" 
d="M35 0l111 569l-77 -23l23 125l115 34h87l-137 -705h-122z" />
    <glyph glyph-name="two" unicode="2" horiz-adv-x="324" 
d="M-33 0l20 103l175 279c40 64 65 112 65 149c0 39 -23 61 -59 61c-35 0 -64 -15 -97 -35l23 121c27 17 57 31 98 32c93 3 158 -58 158 -156c0 -52 -14 -107 -76 -204l-146 -230h156l-23 -120h-294z" />
    <glyph glyph-name="three" unicode="3" horiz-adv-x="328" 
d="M97 -10c-54 0 -95 16 -129 42l23 117c29 -23 58 -43 95 -43c66 0 90 61 90 111c0 58 -28 96 -102 109l15 80l145 175h-152l23 119h280l-21 -113l-162 -194c68 -38 94 -92 94 -167c0 -53 -11 -127 -66 -182c-34 -34 -83 -54 -133 -54z" />
    <glyph glyph-name="three.alt" horiz-adv-x="328" 
d="M97 -10c-52 0 -93 16 -129 42l23 117c34 -29 65 -43 99 -43c51 0 84 42 84 111c0 45 -25 89 -96 99l19 97c84 3 137 43 137 113c0 38 -21 69 -71 69c-32 0 -55 -10 -79 -21l22 115c26 12 57 21 93 21c84 0 159 -49 158 -161c-1 -83 -43 -163 -141 -194
c54 -33 78 -89 78 -144c0 -131 -77 -221 -197 -221z" />
    <glyph glyph-name="four" unicode="4" horiz-adv-x="386" 
d="M151 0l25 129h-189l18 93l262 480h135l-91 -468h57l-21 -105h-57l-25 -129h-114zM108 234h88l54 271z" />
    <glyph glyph-name="five" unicode="5" horiz-adv-x="333" 
d="M105 -10c-43 0 -87 14 -122 39l23 119c30 -24 62 -41 96 -41c70 0 97 96 97 167c0 51 -27 62 -52 62c-20 0 -37 -5 -50 -10l-55 42l86 332h248l-23 -116h-157l-37 -142c10 2 17 3 28 3c84 0 132 -55 132 -156c0 -80 -26 -183 -88 -245c-35 -35 -75 -54 -126 -54z" />
    <glyph glyph-name="six" unicode="6" horiz-adv-x="368" 
d="M149 -10c-44 0 -71 19 -87 35c-35 35 -46 89 -46 159c0 104 47 375 147 475c32 32 70 51 120 51c31 0 67 -6 105 -28l-21 -115c-17 13 -46 33 -79 33c-21 0 -36 -6 -52 -22c-24 -24 -45 -71 -65 -148c19 13 43 23 70 23c71 0 107 -58 108 -143c1 -80 -26 -208 -91 -273
c-28 -28 -63 -47 -109 -47zM160 99c10 0 18 5 24 11c38 38 51 153 51 177c0 50 -19 62 -41 62c-15 0 -28 -5 -41 -13l-3 -15c-19 -94 -23 -142 -23 -162c0 -14 1 -35 9 -47c6 -9 13 -13 24 -13z" />
    <glyph glyph-name="seven" unicode="7" horiz-adv-x="331" 
d="M17 0l231 577h-175l24 123h292l-21 -108l-227 -592h-124z" />
    <glyph glyph-name="eight" unicode="8" horiz-adv-x="372" 
d="M155 -10c-97 0 -148 68 -148 162c0 89 33 186 118 229c-27 26 -44 69 -44 117c0 105 60 212 175 212c81 0 140 -58 140 -156c0 -74 -33 -158 -105 -192c26 -24 51 -67 51 -132c0 -106 -62 -240 -187 -240zM158 87c52 0 72 120 72 171c0 23 -4 60 -35 60
c-52 0 -72 -120 -72 -171c0 -23 4 -60 35 -60zM221 412c49 0 63 110 63 148c0 21 -5 54 -34 54c-49 0 -62 -110 -62 -148c0 -21 4 -54 33 -54z" />
    <glyph glyph-name="nine" unicode="9" horiz-adv-x="368" 
d="M116 -10c-31 0 -68 5 -115 33l21 115c26 -19 56 -38 89 -38c21 0 36 6 52 22c24 24 43 63 63 140c-19 -13 -43 -23 -70 -23c-70 0 -106 58 -107 147c-1 84 27 212 92 277c28 28 63 47 109 47c44 0 71 -19 87 -35c35 -35 46 -89 46 -159c0 -104 -47 -375 -147 -475
c-32 -32 -70 -51 -120 -51zM203 343c15 0 28 5 41 13l5 25c19 94 23 140 23 160c0 14 -1 35 -9 47c-6 9 -13 13 -24 13c-10 0 -18 -5 -24 -11c-38 -38 -52 -153 -52 -183c0 -52 18 -64 40 -64z" />
    <glyph glyph-name="period" unicode="." horiz-adv-x="218" 
d="M-12 0l27 139h138l-27 -139h-138z" />
    <glyph glyph-name="comma" unicode="," horiz-adv-x="218" 
d="M-51 -162l-3 49c95 15 100 77 104 113h-62l27 139h138l-25 -132c-20 -108 -71 -164 -179 -169z" />
    <glyph glyph-name="colon" unicode=":" horiz-adv-x="228" 
d="M-7 0l27 139h138l-27 -139h-138zM70 397l27 139h138l-27 -139h-138z" />
    <glyph glyph-name="semicolon" unicode=";" horiz-adv-x="228" 
d="M-46 -162l-3 49c95 15 100 77 104 113h-62l27 139h138l-25 -132c-20 -108 -71 -164 -179 -169zM70 397l27 139h138l-27 -139h-138z" />
    <glyph glyph-name="ellipsis" unicode="&#x2026;" horiz-adv-x="734" 
d="M-2 0l27 139h138l-27 -139h-138zM246 0l27 139h138l-27 -139h-138zM494 0l27 139h138l-27 -139h-138z" />
    <glyph glyph-name="periodcentered" unicode="&#xb7;" horiz-adv-x="238" 
d="M45 240l27 139h138l-27 -139h-138z" />
    <glyph glyph-name="bullet" unicode="&#x2022;" horiz-adv-x="351" 
d="M212 505c61 0 96 -43 96 -109c0 -53 -15 -120 -55 -160c-20 -20 -48 -33 -82 -33c-61 0 -96 43 -96 109c0 53 15 120 55 160c20 20 48 33 82 33z" />
    <glyph glyph-name="ampersand" unicode="&#x26;" horiz-adv-x="434" 
d="M334 333l92 -29c-22 -86 -49 -137 -76 -178l42 -102l-98 -36l-21 54c-33 -30 -71 -52 -120 -52c-97 0 -158 73 -158 170c0 116 60 185 147 237c-21 49 -29 94 -29 137c0 93 55 176 155 176c85 0 138 -61 138 -141c0 -95 -54 -164 -141 -216l40 -121c9 24 17 56 29 101z
M169 96c23 0 44 12 64 35l-55 173c-45 -31 -70 -78 -70 -129c0 -43 20 -79 61 -79zM217 536c0 -28 4 -59 16 -95c51 35 69 78 69 120c0 34 -14 51 -37 51c-31 0 -48 -35 -48 -76z" />
    <glyph glyph-name="exclam" unicode="!" horiz-adv-x="222" 
d="M71 218l48 462l4 20h144l-4 -20l-132 -462h-60zM-10 0l27 139h138l-27 -139h-138z" />
    <glyph glyph-name="exclamdown" unicode="&#xa1;" horiz-adv-x="222" 
d="M182 482l-48 -462l-4 -20h-144l4 20l132 462h60zM263 700l-27 -139h-138l27 139h138z" />
    <glyph glyph-name="question" unicode="?" horiz-adv-x="320" 
d="M87 218l24 183l5 5c83 21 121 64 121 121c0 40 -26 68 -74 68c-32 0 -60 -11 -84 -23l22 114c26 13 50 21 88 21c101 0 167 -61 168 -164c1 -104 -58 -180 -157 -213l-33 -112h-80zM18 0l27 139h138l-27 -139h-138z" />
    <glyph glyph-name="questiondown" unicode="&#xbf;" horiz-adv-x="320" 
d="M265 482l-24 -183l-5 -5c-83 -21 -121 -64 -121 -121c0 -40 26 -68 74 -68c32 0 60 11 84 23l-22 -114c-26 -13 -50 -21 -88 -21c-101 0 -167 61 -168 164c-1 104 58 180 157 213l33 112h80zM334 700l-27 -139h-138l27 139h138z" />
    <glyph glyph-name="quotedblleft" unicode="&#x201c;" horiz-adv-x="415" 
d="M66 402l25 132c20 108 71 164 179 169l3 -49c-95 -15 -100 -77 -104 -113h62l-27 -139h-138zM256 402l25 132c20 108 71 164 179 169l3 -49c-95 -15 -100 -77 -104 -113h62l-27 -139h-138z" />
    <glyph glyph-name="quotedblright" unicode="&#x201d;" horiz-adv-x="415" 
d="M64 399l-3 49c95 15 100 77 104 113h-62l27 139h138l-25 -132c-20 -108 -71 -164 -179 -169zM254 399l-3 49c95 15 100 77 104 113h-62l27 139h138l-25 -132c-20 -108 -71 -164 -179 -169z" />
    <glyph glyph-name="quoteleft" unicode="&#x2018;" horiz-adv-x="225" 
d="M66 402l25 132c20 108 71 164 179 169l3 -49c-95 -15 -100 -77 -104 -113h62l-27 -139h-138z" />
    <glyph glyph-name="quoteright" unicode="&#x2019;" horiz-adv-x="225" 
d="M64 399l-3 49c95 15 100 77 104 113h-62l27 139h138l-25 -132c-20 -108 -71 -164 -179 -169z" />
    <glyph glyph-name="quotedblbase" unicode="&#x201e;" horiz-adv-x="450" 
d="M-29 -162l-3 49c95 15 100 77 104 113h-62l27 139h138l-25 -132c-20 -108 -71 -164 -179 -169zM161 -162l-3 49c95 15 100 77 104 113h-62l27 139h138l-25 -132c-20 -108 -71 -164 -179 -169z" />
    <glyph glyph-name="quotesinglbase" unicode="&#x201a;" horiz-adv-x="250" 
d="M-29 -162l-3 49c95 15 100 77 104 113h-62l27 139h138l-25 -132c-20 -108 -71 -164 -179 -169z" />
    <glyph glyph-name="guillemotleft" unicode="&#xab;" horiz-adv-x="454" 
d="M131 43l-109 221l1 8l179 221l73 -56l-128 -176l78 -176zM306 43l-101 221l1 8l187 221l73 -56l-136 -176l70 -176z" />
    <glyph glyph-name="guillemotright" unicode="&#xbb;" horiz-adv-x="454" 
d="M323 493l109 -221l-1 -8l-179 -221l-73 56l128 176l-78 176zM148 493l101 -221l-1 -8l-187 -221l-73 56l136 176l-70 176z" />
    <glyph glyph-name="guilsinglleft" unicode="&#x2039;" horiz-adv-x="271" 
d="M123 43l-101 221l1 8l187 221l73 -56l-136 -176l70 -176z" />
    <glyph glyph-name="guilsinglright" unicode="&#x203a;" horiz-adv-x="271" 
d="M148 493l101 -221l-1 -8l-187 -221l-73 56l136 176l-70 176z" />
    <glyph glyph-name="hyphen" unicode="-" horiz-adv-x="336" 
d="M36 251l23 118h258l-23 -118h-258z" />
    <glyph glyph-name="endash" unicode="&#x2013;" horiz-adv-x="456" 
d="M36 251l23 118h378l-23 -118h-378z" />
    <glyph glyph-name="emdash" unicode="&#x2014;" horiz-adv-x="674" 
d="M36 251l23 118h596l-23 -118h-596z" />
    <glyph glyph-name="underscore" unicode="_" horiz-adv-x="452" 
d="M-84 -151l18 92h456l-18 -92h-456z" />
    <glyph glyph-name="slash" unicode="/" horiz-adv-x="310" 
d="M-89 -98l405 866h99l-405 -866h-99z" />
    <glyph glyph-name="backslash" unicode="\" horiz-adv-x="305" 
d="M154 -98l-76 866h92l76 -866h-92z" />
    <glyph glyph-name="bar" unicode="|" horiz-adv-x="249" 
d="M6 -98l168 866h93l-168 -866h-93z" />
    <glyph glyph-name="parenleft" unicode="(" horiz-adv-x="299" 
d="M201 -128c-120 56 -165 184 -165 318c0 176 44 329 144 429c52 52 114 86 184 94l-16 -83c-24 -9 -53 -27 -76 -50c-92 -92 -124 -274 -124 -418c0 -80 18 -173 68 -209z" />
    <glyph glyph-name="parenright" unicode=")" horiz-adv-x="299" 
d="M105 713c120 -56 165 -184 165 -318c0 -176 -44 -329 -144 -429c-52 -52 -114 -86 -184 -94l16 83c24 9 53 27 76 50c92 92 124 274 124 418c0 80 -18 173 -68 209z" />
    <glyph glyph-name="bracketleft" unicode="[" horiz-adv-x="286" 
d="M-15 -130l161 830h196l-16 -84h-93l-129 -662h93l-16 -84h-196z" />
    <glyph glyph-name="bracketright" unicode="]" horiz-adv-x="286" 
d="M308 700l-161 -830h-196l16 84h93l129 662h-93l16 84h196z" />
    <glyph glyph-name="braceleft" unicode="{" horiz-adv-x="311" 
d="M202 -141c-109 10 -158 62 -158 128c0 38 14 70 28 103c15 34 31 63 31 90c0 35 -33 59 -79 59h-5l19 96h10c37 0 64 13 81 30c35 35 27 71 21 133c-6 53 -6 117 40 163c40 40 102 56 178 53l-16 -79c-35 0 -62 -9 -79 -26c-30 -30 -26 -65 -18 -122
c8 -55 16 -103 -31 -150c-26 -26 -66 -45 -110 -50c69 -24 96 -57 96 -98c0 -29 -9 -49 -31 -95c-20 -42 -32 -68 -32 -93c0 -37 34 -57 70 -63z" />
    <glyph glyph-name="braceright" unicode="}" horiz-adv-x="311" 
d="M116 715c109 -10 158 -62 158 -128c0 -38 -14 -70 -28 -103c-15 -34 -31 -63 -31 -90c0 -35 33 -59 79 -59h5l-19 -96h-10c-37 0 -64 -13 -81 -30c-35 -35 -27 -71 -21 -133c6 -53 6 -117 -40 -163c-40 -40 -102 -56 -178 -53l16 79c35 0 62 9 79 26c30 30 26 65 18 122
c-8 55 -16 103 31 150c26 26 66 45 110 50c-69 24 -96 57 -96 98c0 29 9 49 31 95c20 42 32 68 32 93c0 37 -34 57 -70 63z" />
    <glyph glyph-name="at" unicode="@" horiz-adv-x="636" 
d="M268 -137c-143 0 -249 97 -249 301c0 254 132 547 372 547c149 0 231 -123 231 -271c0 -183 -77 -372 -206 -372c-51 0 -84 28 -88 81c-31 -47 -64 -77 -105 -77c-49 0 -74 41 -74 112c0 129 73 323 173 323c42 0 59 -32 65 -64l16 56l94 -16l-63 -254
c-6 -25 -14 -65 -14 -80c0 -21 9 -31 25 -31c59 0 133 146 133 319c0 109 -49 232 -193 232c-223 0 -322 -312 -322 -505c0 -177 86 -260 208 -260c52 0 96 12 147 42l17 -38c-51 -27 -102 -45 -167 -45zM273 156c49 0 87 162 87 219c0 27 -9 39 -23 39
c-49 0 -87 -162 -87 -219c0 -27 9 -39 23 -39z" />
    <glyph glyph-name="copyright" unicode="&#xa9;" horiz-adv-x="522" 
d="M260 150c-53 0 -93 35 -93 120c0 65 22 192 78 249c22 23 48 32 73 32c22 0 40 -6 53 -13l-14 -70c-13 8 -24 15 -39 15c-10 0 -20 -4 -28 -12c-34 -34 -53 -154 -53 -197c0 -44 16 -57 37 -57c12 0 25 3 38 8l-13 -67c-12 -5 -24 -8 -39 -8zM518 455
c0 -116 -29 -296 -128 -395c-43 -43 -98 -70 -164 -70c-118 0 -200 93 -200 255c0 116 29 296 128 395c43 43 98 70 164 70c118 0 200 -93 200 -255zM64 242c0 -139 66 -216 165 -216c50 0 92 17 134 59c91 91 117 254 117 373c0 139 -66 216 -165 216
c-50 0 -92 -17 -134 -59c-91 -91 -117 -254 -117 -373z" />
    <glyph glyph-name="published" unicode="&#x2117;" horiz-adv-x="522" 
d="M232 549h41c76 0 121 -40 121 -114c0 -101 -76 -151 -145 -151h-1l-24 -121h-67zM327 434c0 31 -14 53 -39 53h-1l-27 -140h1c30 0 66 27 66 87zM318 710c118 0 200 -93 200 -255c0 -116 -29 -296 -128 -395c-43 -43 -98 -70 -164 -70c-118 0 -200 93 -200 255
c0 116 29 296 128 395c43 43 98 70 164 70zM229 26c50 0 92 17 134 59c91 91 117 254 117 373c0 139 -66 216 -165 216c-50 0 -92 -17 -134 -59c-91 -91 -117 -254 -117 -373c0 -139 66 -216 165 -216z" />
    <glyph glyph-name="registered.alt" horiz-adv-x="522" 
d="M318 710c118 0 200 -93 200 -255c0 -116 -29 -296 -128 -395c-43 -43 -98 -70 -164 -70c-118 0 -200 93 -200 255c0 116 29 296 128 395c43 43 98 70 164 70zM229 26c50 0 92 17 134 59c91 91 117 254 117 373c0 139 -66 216 -165 216c-50 0 -92 -17 -134 -59
c-91 -91 -117 -254 -117 -373c0 -139 66 -216 165 -216zM242 298l-26 -134h-67l75 385h53c37 0 66 -10 86 -30s29 -46 29 -79c0 -37 -12 -74 -40 -102c-8 -8 -20 -17 -32 -23l24 -151h-71l-18 134h-13zM254 359h10c14 0 27 6 37 16c15 15 24 37 24 62c0 17 -4 29 -12 37
c-9 9 -21 12 -34 12h-1z" />
    <glyph glyph-name="registered" unicode="&#xae;" horiz-adv-x="312" 
d="M227 716c70 0 112 -57 112 -137c0 -59 -14 -139 -64 -189c-23 -23 -52 -36 -87 -36c-70 0 -112 57 -112 137c0 59 14 139 64 189c23 23 52 36 87 36zM190 377c27 0 49 9 69 29c43 43 55 118 55 173c0 66 -30 114 -89 114c-27 0 -49 -9 -69 -29c-43 -43 -55 -118 -55 -173
c0 -66 30 -114 89 -114zM189 509l-10 -66h-34l30 192h33c36 0 61 -18 61 -55c0 -26 -12 -51 -37 -64l19 -73h-37l-15 66h-10zM194 540h7c9 0 16 3 21 8c8 8 11 18 11 30c0 20 -12 25 -25 25h-4z" />
    <glyph glyph-name="servicemark" unicode="&#x2120;" horiz-adv-x="441" 
d="M114 383c-25 0 -51 9 -67 21l12 63c15 -13 32 -24 51 -24s29 14 29 30c0 18 -12 35 -25 55c-17 26 -31 50 -31 85c0 21 8 47 26 65c13 13 33 24 60 24c25 0 46 -7 63 -17l-12 -61c-15 10 -28 17 -43 17c-18 0 -28 -13 -28 -29c0 -17 15 -37 27 -57c15 -24 29 -46 29 -79
c0 -23 -7 -49 -25 -67c-16 -16 -40 -26 -66 -26zM220 385l61 315h65l16 -105l56 105h69l-61 -315h-62l37 191l-64 -120h-1l-16 120l-37 -191h-63z" />
    <glyph glyph-name="trademark" unicode="&#x2122;" horiz-adv-x="431" 
d="M76 385l49 253h-39l12 62h142l-12 -62h-39l-49 -253h-64zM210 385l61 315h65l16 -105l56 105h69l-61 -315h-62l37 191l-64 -120h-1l-16 120l-37 -191h-63z" />
    <glyph glyph-name="asterisk" unicode="*" horiz-adv-x="298" 
d="M213 393l-78 15l39 107l-86 -51l-26 77l97 19l-82 53l52 61l60 -79l4 114l78 -15l-39 -107l86 51l26 -77l-97 -19l82 -53l-52 -61l-60 79z" />
    <glyph glyph-name="dagger" unicode="&#x2020;" horiz-adv-x="238" 
d="M73 238l66 272l-76 -10l15 79l71 -11l11 132h86l-41 -132l75 11l-15 -79l-72 10l-40 -272h-80z" />
    <glyph glyph-name="daggerdbl" unicode="&#x2021;" horiz-adv-x="256" 
d="M33 0l40 131l-74 -10l15 79l72 -11l16 161l46 160l-76 -10l15 79l71 -11l11 132h86l-41 -132l75 11l-15 -79l-72 10l-17 -160l-45 -161l76 11l-15 -79l-72 10l-10 -131h-86z" />
    <glyph glyph-name="dollar" unicode="$" horiz-adv-x="350" 
d="M235 774h81l-15 -74c25 -6 50 -16 75 -32l-24 -125c-29 24 -60 47 -96 47c-41 0 -64 -32 -64 -71c0 -26 12 -64 43 -114c56 -90 81 -140 81 -204c0 -106 -59 -186 -151 -202l-20 -106h-81l20 106c-33 6 -64 19 -93 40l24 125c29 -24 67 -54 110 -54c42 0 69 33 69 82
c0 25 -9 56 -50 120c-46 74 -74 129 -74 199c0 94 57 176 151 191z" />
    <glyph glyph-name="sterling" unicode="&#xa3;" horiz-adv-x="360" 
d="M-29 0l16 81l53 24l34 175h-46l22 111h46l22 117c13 68 31 120 68 157c31 31 69 44 119 44c37 0 70 -9 95 -23l-23 -118c-25 14 -47 22 -67 22c-18 0 -31 -5 -44 -18c-15 -15 -22 -41 -27 -69l-21 -112h96l-22 -111h-96l-33 -169h142l-21 -111h-313z" />
    <glyph glyph-name="Euro" unicode="&#x20ac;" horiz-adv-x="379" 
d="M38 388l18 90h58c22 70 53 136 96 179c42 42 88 54 128 54c38 0 71 -10 99 -25l-25 -126c-33 26 -53 32 -71 32c-20 0 -35 -8 -47 -20c-21 -21 -38 -56 -52 -96h100l-18 -88h-108c-5 -24 -10 -48 -14 -72h108l-17 -88h-101v-15c0 -77 23 -104 70 -104c18 0 40 5 68 17
l-23 -120c-21 -9 -46 -16 -74 -16c-92 0 -163 61 -163 219v17h-63l17 90h53c4 24 8 48 13 72h-52z" />
    <glyph glyph-name="yen" unicode="&#xa5;" horiz-adv-x="402" 
d="M91 0l19 97h-87l18 92h86l12 60h-87l18 92h65l-40 359h118l16 -273l122 273h126l-180 -359h65l-18 -92h-87l-12 -60h88l-18 -92h-87l-19 -97h-118z" />
    <glyph glyph-name="cent" unicode="&#xa2;" horiz-adv-x="300" 
d="M218 705h79l-16 -80c20 -4 38 -12 52 -19l-24 -121c-21 18 -37 29 -56 29c-14 0 -26 -5 -37 -16c-44 -44 -66 -179 -66 -236c0 -55 22 -72 53 -72c14 0 30 4 51 12l-22 -116c-18 -7 -37 -11 -56 -11h-1l-16 -81h-79l19 101c-43 27 -68 81 -68 163c0 87 30 250 106 326
c21 21 43 33 65 39z" />
    <glyph glyph-name="baht" unicode="&#xe3f;" horiz-adv-x="392" 
d="M-16 0l136 700h85c23 0 45 -2 64 -6l32 99h81l-40 -124c48 -28 74 -73 74 -134c0 -92 -54 -157 -133 -181c52 -26 84 -73 84 -136c0 -120 -86 -213 -237 -218l-38 -123h-80l37 123h-65zM126 113h3c68 0 116 36 116 111c0 44 -26 76 -79 76h-3zM183 406h4
c86 0 109 66 109 112s-25 69 -76 69h-2z" />
    <glyph glyph-name="colonmonetary" unicode="&#x20a1;" horiz-adv-x="334" 
d="M353 779h38l-26 -87c9 -3 17 -7 25 -11l-25 -126c-33 26 -53 32 -71 32c-20 0 -35 -8 -47 -20c-64 -64 -100 -276 -100 -349c0 -77 23 -104 70 -104c18 0 40 5 68 17l-23 -120c-21 -9 -46 -16 -74 -16c-11 0 -21 1 -31 2l-36 -115h-38l39 125c-17 6 -31 15 -44 28
l-47 -153h-37l57 190c-17 34 -26 80 -26 142c0 105 35 335 138 438c24 24 50 39 76 46l24 81h38l-22 -73h12c13 0 26 -1 39 -4z" />
    <glyph glyph-name="florin" unicode="&#x192;" horiz-adv-x="333" 
d="M31 -5c-24 0 -49 5 -70 12l20 106c12 -5 22 -9 34 -9c21 0 33 13 42 48l56 210h-45l18 96h52l29 108c25 93 79 139 152 139c40 0 70 -10 84 -17l-21 -107c-17 9 -33 15 -49 15c-29 0 -44 -20 -55 -60l-22 -78h81l-18 -96h-88l-62 -233c-26 -97 -74 -134 -138 -134z" />
    <glyph glyph-name="naira" unicode="&#x20a6;" horiz-adv-x="532" 
d="M505 192h-76l-37 -192h-104l-30 199l-30 197l-38 -196l-39 -200h-115l37 192h-75l19 104h76l22 112h-76l20 104h76l37 188h107l27 -171l32 -207l41 208l34 170h115l-37 -188h76l-20 -104h-76l-21 -111h75z" />
    <glyph glyph-name="peso" unicode="&#x20b1;" horiz-adv-x="498" 
d="M517 403h-76c-13 -42 -35 -83 -67 -115c-48 -48 -112 -68 -180 -68h-1l-43 -220h-122l78 403h-76l20 104h76l38 193h96c61 0 111 -18 145 -52c31 -32 51 -79 52 -141h80zM215 333h2c25 0 49 8 71 30c33 33 47 94 47 138c0 31 -9 55 -23 69c-10 10 -25 17 -43 17h-5z" />
    <glyph glyph-name="R_p" horiz-adv-x="710" 
d="M-22 0l136 700h64c142 0 206 -76 206 -183c0 -86 -34 -184 -116 -234l30 -283h-115l-24 248c-6 -1 -12 -1 -19 -1l-48 -247h-114zM308 -130l129 666h111l-13 -67c27 41 55 77 97 77c49 0 77 -43 77 -144c0 -113 -45 -314 -116 -385c-19 -19 -37 -27 -61 -27
c-48 0 -69 42 -78 75l-35 -195h-111zM159 351h6c71 0 109 77 109 160c0 56 -27 81 -63 81h-3zM505 98c5 0 10 2 15 7c38 38 71 227 71 278c0 33 -4 55 -23 55c-5 0 -12 -3 -19 -10c-35 -35 -69 -222 -69 -271c0 -39 7 -59 25 -59z" />
    <glyph glyph-name="rupee" unicode="&#x20a8;" horiz-adv-x="627" 
d="M493 145c0 22 -13 52 -41 99s-53 91 -53 148c0 84 52 152 146 152c42 0 76 -12 102 -27l-21 -101c-19 13 -45 25 -72 25c-32 0 -47 -21 -47 -47c0 -17 11 -43 41 -93c23 -39 53 -95 53 -151c0 -87 -55 -160 -153 -160c-51 0 -86 18 -114 39l20 101c33 -23 62 -37 89 -37
c31 0 50 22 50 52zM183 0l-24 248c-6 -1 -12 -1 -19 -1l-48 -247h-114l136 700h64c142 0 206 -76 206 -183c0 -86 -34 -184 -116 -234l30 -283h-115zM159 351h6c71 0 109 77 109 160c0 56 -27 81 -63 81h-3z" />
    <glyph glyph-name="won" unicode="&#x20a9;" horiz-adv-x="685" 
d="M668 192h-126l-67 -194h-128l13 229l10 186l-62 -186l-77 -229h-128l8 194h-123l20 104h108l5 112h-92l20 104h76l9 188h123l-15 -202l-17 -227l78 232l66 197h113l-11 -200l-12 -229l73 231l62 198h124l-65 -188h77l-20 -104h-93l-39 -111h110z" />
    <glyph glyph-name="sheqel" unicode="&#x20aa;" horiz-adv-x="454" 
d="M-15 0l104 536h131c62 0 105 -29 105 -108c0 -18 -2 -37 -6 -59l-29 -155h-62l17 90c5 25 7 44 7 59c0 43 -18 50 -50 50h-55l-81 -413h-81zM256 0c-90 0 -131 40 -116 181l15 141h58l-10 -99c-8 -84 15 -100 63 -100h40l81 413h82l-105 -536h-108z" />
    <glyph glyph-name="numbersign" unicode="#" horiz-adv-x="377" 
d="M16 0l36 160h-50l18 108h57l38 168h-56l20 108h60l36 156h78l-36 -156h64l36 156h78l-36 -156h53l-20 -108h-57l-38 -168h56l-20 -108h-61l-36 -160h-78l36 160h-64l-36 -160h-78zM154 268h64l39 168h-64z" />
    <glyph glyph-name="paragraph" unicode="&#xb6;" horiz-adv-x="360" 
d="M145 0l43 225c-37 7 -69 23 -93 47c-32 32 -49 77 -49 136c0 69 24 163 84 223c48 48 111 69 179 69h94l-136 -700h-122z" />
    <glyph glyph-name="section" unicode="&#xa7;" horiz-adv-x="406" 
d="M408 344c0 -71 -53 -114 -109 -139c12 -24 17 -43 17 -67c0 -57 -40 -148 -158 -148c-44 0 -87 13 -117 30l22 111c33 -20 65 -35 94 -35c23 0 44 13 44 41c0 23 -20 43 -73 83c-51 39 -96 76 -96 136c0 71 53 114 109 139c-12 24 -17 43 -17 67c0 57 40 148 158 148
c44 0 87 -13 117 -30l-22 -111c-33 20 -65 35 -94 35c-23 0 -44 -13 -44 -41c0 -23 20 -43 73 -83c51 -39 96 -76 96 -136zM150 376c0 -24 13 -44 87 -100l16 -12c28 18 37 43 37 60c0 24 -15 46 -87 100l-16 12c-28 -18 -37 -43 -37 -60z" />
    <glyph glyph-name="ordfeminine" unicode="&#xaa;" horiz-adv-x="250" 
d="M121 403c-25 0 -43 21 -43 61c0 39 16 127 79 127c15 0 31 -5 44 -14l2 9c2 10 3 19 3 25c0 23 -15 33 -34 33c-17 0 -31 -4 -51 -12l13 61c18 7 34 11 53 11c53 0 83 -30 83 -84c0 -11 -1 -22 -3 -34l-34 -179h-65l5 29c-14 -21 -34 -33 -52 -33zM156 455
c12 0 24 9 27 27l9 51c-7 5 -15 7 -21 7c-25 0 -29 -54 -29 -63c0 -17 6 -22 14 -22zM38 302l9 48h186l-9 -48h-186z" />
    <glyph glyph-name="ordmasculine" unicode="&#xba;" horiz-adv-x="250" 
d="M41 302l9 48h181l-9 -48h-181zM147 492c0 -22 5 -32 16 -32c4 0 8 1 13 6c22 22 37 119 37 150c0 22 -5 32 -16 32c-4 0 -8 -1 -13 -6c-22 -22 -37 -119 -37 -150zM276 607c0 -40 -13 -133 -59 -179c-18 -18 -38 -26 -59 -26c-46 0 -74 34 -74 99c0 40 13 133 59 179
c18 18 38 26 59 26c46 0 74 -34 74 -99z" />
    <glyph glyph-name="degree" unicode="&#xb0;" horiz-adv-x="274" 
d="M214 706c55 0 92 -42 92 -118c0 -40 -14 -140 -66 -192c-26 -26 -51 -34 -77 -34c-52 0 -92 39 -92 118c0 40 14 140 66 192c26 26 51 34 77 34zM171 438c5 0 12 2 19 9c23 23 40 104 40 146c0 28 -11 37 -24 37c-5 0 -12 -2 -19 -9c-23 -23 -40 -104 -40 -146
c0 -28 11 -37 24 -37z" />
    <glyph glyph-name="percent" unicode="%" horiz-adv-x="570" 
d="M35 0l231 349l232 351h71l-231 -349l-232 -351h-71zM163 332c-57 0 -93 40 -93 119c0 80 25 179 70 224c23 23 45 31 70 31c57 0 93 -40 93 -119c0 -80 -25 -179 -70 -224c-23 -23 -45 -31 -70 -31zM170 413c4 0 9 2 14 7c24 24 41 139 41 171c0 20 -5 34 -22 34
c-4 0 -9 -2 -14 -7c-24 -24 -41 -139 -41 -171c0 -20 5 -34 22 -34zM394 -6c-57 0 -93 40 -93 119c0 80 25 179 70 224c23 23 45 31 70 31c57 0 93 -40 93 -119c0 -80 -25 -179 -70 -224c-23 -23 -45 -31 -70 -31zM401 75c4 0 9 2 14 7c24 24 41 139 41 171
c0 20 -5 34 -22 34c-4 0 -9 -2 -14 -7c-24 -24 -41 -139 -41 -171c0 -20 5 -34 22 -34z" />
    <glyph glyph-name="perthousand" unicode="&#x2030;" horiz-adv-x="829" 
d="M35 0l231 349l232 351h71l-231 -349l-232 -351h-71zM163 332c-57 0 -93 40 -93 119c0 80 25 179 70 224c23 23 45 31 70 31c57 0 93 -40 93 -119c0 -80 -25 -179 -70 -224c-23 -23 -45 -31 -70 -31zM170 413c4 0 9 2 14 7c24 24 41 139 41 171c0 20 -5 34 -22 34
c-4 0 -9 -2 -14 -7c-24 -24 -41 -139 -41 -171c0 -20 5 -34 22 -34zM394 -6c-57 0 -93 40 -93 119c0 80 25 179 70 224c23 23 45 31 70 31c57 0 93 -40 93 -119c0 -80 -25 -179 -70 -224c-23 -23 -45 -31 -70 -31zM401 75c4 0 9 2 14 7c24 24 41 139 41 171
c0 20 -5 34 -22 34c-4 0 -9 -2 -14 -7c-24 -24 -41 -139 -41 -171c0 -20 5 -34 22 -34zM653 -6c-57 0 -93 40 -93 119c0 80 25 179 70 224c23 23 45 31 70 31c57 0 93 -40 93 -119c0 -80 -25 -179 -70 -224c-23 -23 -45 -31 -70 -31zM660 75c4 0 9 2 14 7
c24 24 41 139 41 171c0 20 -5 34 -22 34c-4 0 -9 -2 -14 -7c-24 -24 -41 -139 -41 -171c0 -20 5 -34 22 -34z" />
    <glyph glyph-name="quotedbl" unicode="&#x22;" horiz-adv-x="345" 
d="M66 381l63 319h120l-2 -9l-137 -310h-44zM231 381l63 319h120l-2 -9l-137 -310h-44z" />
    <glyph glyph-name="quotesingle" unicode="'" horiz-adv-x="180" 
d="M67 381l63 319h120l-2 -9l-137 -310h-44z" />
    <glyph glyph-name="plus" unicode="+" horiz-adv-x="380" 
d="M117 173l24 122h-114l22 114h114l24 122h110l-24 -122h116l-22 -114h-116l-24 -122h-110z" />
    <glyph glyph-name="minus" unicode="&#x2212;" horiz-adv-x="380" 
d="M29 292l24 120h340l-24 -120h-340z" />
    <glyph glyph-name="divide" unicode="&#xf7;" horiz-adv-x="380" 
d="M107 130l22 116h114l-23 -116h-113zM30 297l21 110h332l-21 -110h-332zM170 458l22 116h114l-23 -116h-113z" />
    <glyph glyph-name="equal" unicode="=" horiz-adv-x="380" 
d="M10 197l24 120h340l-24 -120h-340zM48 389l24 120h340l-24 -120h-340z" />
    <glyph glyph-name="multiply" unicode="&#xd7;" horiz-adv-x="380" 
d="M86 166l-77 76l127 116l-79 109l95 66l67 -100l109 105l77 -76l-127 -116l79 -109l-95 -66l-67 100z" />
    <glyph glyph-name="less" unicode="&#x3c;" horiz-adv-x="380" 
d="M314 106l-280 192l21 108l354 192l-29 -149l-213 -104l172 -104z" />
    <glyph glyph-name="greater" unicode="&#x3e;" horiz-adv-x="380" 
d="M1 105l29 149l213 104l-172 104l25 135l280 -192l-21 -108z" />
    <glyph glyph-name="plusminus" unicode="&#xb1;" horiz-adv-x="380" 
d="M120 173l24 122h-114l22 114h114l24 122h110l-24 -122h116l-22 -114h-116l-24 -122h-110zM-28 0l21 107h340l-21 -107h-340z" />
    <glyph glyph-name="onehalf" unicode="&#xbd;" horiz-adv-x="495" 
d="M212 0l13 67l86 99c41 48 51 64 51 85s-14 32 -33 32c-22 0 -46 -13 -71 -30l15 78c20 13 46 24 74 24c59 0 95 -37 95 -88c0 -32 -8 -65 -59 -121l-64 -74h92l-14 -72h-185zM73 350l53 268l-57 -24l15 78l81 31h56l-69 -353h-79zM-20 0l220 364l197 336h67l-221 -364
l-196 -336h-67z" />
    <glyph glyph-name="onehalf.alt" horiz-adv-x="540" 
d="M30 350l13 66h59l40 205l-63 -24l14 76l85 30h56l-56 -287h54l-13 -66h-189zM266 0l13 67l86 99c41 48 51 64 51 85s-14 32 -33 32c-22 0 -46 -13 -71 -30l15 78c20 13 46 24 74 24c59 0 95 -37 95 -88c0 -32 -8 -65 -59 -121l-64 -74h92l-14 -72h-185zM35 0l220 364
l197 336h67l-221 -364l-196 -336h-67z" />
    <glyph glyph-name="onethird" unicode="&#x2153;" horiz-adv-x="495" 
d="M-20 0l220 364l197 336h67l-221 -364l-196 -336h-67zM319 -5c-41 0 -72 18 -89 35l14 72c18 -18 42 -38 71 -38c25 0 42 19 42 42c0 25 -23 42 -69 47l9 51l73 76h-91l14 70h186l-11 -56l-97 -97c39 -17 62 -46 62 -87c0 -73 -52 -115 -114 -115zM73 350l53 268l-57 -24
l15 78l81 31h56l-69 -353h-79z" />
    <glyph glyph-name="onethird.alt" horiz-adv-x="540" 
d="M30 0l220 364l197 336h67l-221 -364l-196 -336h-67zM361 -5c-41 0 -72 18 -89 35l14 72c18 -18 42 -38 71 -38c25 0 42 19 42 42c0 25 -23 42 -69 47l9 51l73 76h-91l14 70h186l-11 -56l-97 -97c39 -17 62 -46 62 -87c0 -73 -52 -115 -114 -115zM30 350l13 66h59l40 205
l-63 -24l14 76l85 30h56l-56 -287h54l-13 -66h-189z" />
    <glyph glyph-name="twothirds" unicode="&#x2154;" horiz-adv-x="540" 
d="M28 0l220 364l197 336h67l-221 -364l-196 -336h-67zM371 -5c-41 0 -72 18 -89 35l14 72c18 -18 42 -38 71 -38c25 0 42 19 42 42c0 25 -23 42 -69 47l9 51l73 76h-91l14 70h186l-11 -56l-97 -97c39 -17 62 -46 62 -87c0 -73 -52 -115 -114 -115zM28 350l13 67l86 99
c41 48 51 64 51 85s-14 32 -33 32c-22 0 -46 -13 -71 -30l15 78c20 13 46 24 74 24c59 0 95 -37 95 -88c0 -32 -8 -65 -59 -121l-64 -74h92l-14 -72h-185z" />
    <glyph glyph-name="onequarter" unicode="&#xbc;" horiz-adv-x="495" 
d="M73 350l53 268l-57 -24l15 78l81 31h56l-69 -353h-79zM-5 0l220 364l197 336h67l-221 -364l-196 -336h-67zM308 0l13 64h-116l12 70l122 218h106l-44 -223h27l-12 -65h-27l-13 -64h-68zM279 129h58l30 150h-7z" />
    <glyph glyph-name="onequarter.alt" horiz-adv-x="540" 
d="M35 350l13 66h59l40 205l-63 -24l14 76l85 30h56l-56 -287h54l-13 -66h-189zM45 0l220 364l197 336h67l-221 -364l-196 -336h-67zM355 0l13 64h-116l12 70l122 218h106l-44 -223h27l-12 -65h-27l-13 -64h-68zM326 129h58l30 150h-7z" />
    <glyph glyph-name="threequarters" unicode="&#xbe;" horiz-adv-x="540" 
d="M359 0l13 64h-116l12 70l122 218h106l-44 -223h27l-12 -65h-27l-13 -64h-68zM40 0l220 364l197 336h67l-221 -364l-196 -336h-67zM126 345c-41 0 -72 18 -89 35l14 72c18 -18 42 -38 71 -38c25 0 42 19 42 42c0 25 -23 42 -69 47l9 51l73 76h-91l14 70h186l-11 -56
l-97 -97c39 -17 62 -46 62 -87c0 -73 -52 -115 -114 -115zM330 129h58l30 150h-7z" />
    <glyph glyph-name="onefifth" unicode="&#x2155;" horiz-adv-x="495" 
d="M307 -5c-38 0 -71 16 -90 35l14 72c16 -15 41 -38 72 -38c44 0 48 46 48 58c0 28 -17 36 -37 36c-12 0 -22 -4 -30 -7l-42 23l48 176h167l-13 -69h-108l-16 -60c6 1 17 2 25 2c45 0 83 -29 83 -94c0 -80 -52 -134 -121 -134zM73 350l53 268l-57 -24l15 78l81 31h56
l-69 -353h-79zM-25 0l220 364l197 336h67l-221 -364l-196 -336h-67z" />
    <glyph glyph-name="onefifth.alt" horiz-adv-x="540" 
d="M30 350l13 66h59l40 205l-63 -24l14 76l85 30h56l-56 -287h54l-13 -66h-189zM359 -5c-38 0 -71 16 -90 35l14 72c16 -15 41 -38 72 -38c44 0 48 46 48 58c0 28 -17 36 -37 36c-12 0 -22 -4 -30 -7l-42 23l48 176h167l-13 -69h-108l-16 -60c6 1 17 2 25 2
c45 0 83 -29 83 -94c0 -80 -52 -134 -121 -134zM35 0l220 364l197 336h67l-221 -364l-196 -336h-67z" />
    <glyph glyph-name="twofifths" unicode="&#x2156;" horiz-adv-x="540" 
d="M28 350l13 67l86 99c41 48 51 64 51 85s-14 32 -33 32c-22 0 -46 -13 -71 -30l15 78c20 13 46 24 74 24c59 0 95 -37 95 -88c0 -32 -8 -65 -59 -121l-64 -74h92l-14 -72h-185zM33 0l220 364l197 336h67l-221 -364l-196 -336h-67zM364 -5c-38 0 -71 16 -90 35l14 72
c16 -15 41 -38 72 -38c44 0 48 46 48 58c0 28 -17 36 -37 36c-12 0 -22 -4 -30 -7l-42 23l48 176h167l-13 -69h-108l-16 -60c6 1 17 2 25 2c45 0 83 -29 83 -94c0 -80 -52 -134 -121 -134z" />
    <glyph glyph-name="threefifths" unicode="&#x2157;" horiz-adv-x="540" 
d="M364 -5c-38 0 -71 16 -90 35l14 72c16 -15 41 -38 72 -38c44 0 48 46 48 58c0 28 -17 36 -37 36c-12 0 -22 -4 -30 -7l-42 23l48 176h167l-13 -69h-108l-16 -60c6 1 17 2 25 2c45 0 83 -29 83 -94c0 -80 -52 -134 -121 -134zM25 0l220 364l197 336h67l-221 -364
l-196 -336h-67zM131 345c-41 0 -72 18 -89 35l14 72c18 -18 42 -38 71 -38c25 0 42 19 42 42c0 25 -23 42 -69 47l9 51l73 76h-91l14 70h186l-11 -56l-97 -97c39 -17 62 -46 62 -87c0 -73 -52 -115 -114 -115z" />
    <glyph glyph-name="fourfifths" unicode="&#x2158;" horiz-adv-x="540" 
d="M124 350l13 64h-116l12 70l122 218h106l-44 -223h27l-12 -65h-27l-13 -64h-68zM95 479h58l30 150h-7zM364 -5c-38 0 -71 16 -90 35l14 72c16 -15 41 -38 72 -38c44 0 48 46 48 58c0 28 -17 36 -37 36c-12 0 -22 -4 -30 -7l-42 23l48 176h167l-13 -69h-108l-16 -60
c6 1 17 2 25 2c45 0 83 -29 83 -94c0 -80 -52 -134 -121 -134zM27 0l220 364l197 336h67l-221 -364l-196 -336h-67z" />
    <glyph glyph-name="onesixth" unicode="&#x2159;" horiz-adv-x="495" 
d="M311 -5c-52 0 -88 36 -88 109c0 49 22 174 68 220c22 22 45 31 75 31c28 0 58 -13 73 -24l-18 -69c-12 11 -31 25 -53 25c-12 0 -21 -6 -25 -10c-12 -12 -20 -30 -26 -53c10 4 22 7 36 7c29 0 69 -17 69 -84c0 -80 -43 -152 -111 -152zM314 62c26 0 36 47 36 74
c0 29 -15 31 -24 31c-7 0 -16 -2 -22 -5l-4 -18c-4 -18 -6 -40 -6 -53c0 -19 7 -29 20 -29zM73 350l53 268l-57 -24l15 78l81 31h56l-69 -353h-79zM-17 0l220 364l197 336h67l-221 -364l-196 -336h-67z" />
    <glyph glyph-name="onesixth.alt" horiz-adv-x="540" 
d="M30 350l13 66h59l40 205l-63 -24l14 76l85 30h56l-56 -287h54l-13 -66h-189zM372 -5c-52 0 -88 36 -88 109c0 49 22 174 68 220c22 22 45 31 75 31c28 0 58 -13 73 -24l-18 -69c-12 11 -31 25 -53 25c-12 0 -21 -6 -25 -10c-12 -12 -20 -30 -26 -53c10 4 22 7 36 7
c29 0 69 -17 69 -84c0 -80 -43 -152 -111 -152zM375 62c26 0 36 47 36 74c0 29 -15 31 -24 31c-7 0 -16 -2 -22 -5l-4 -18c-4 -18 -6 -40 -6 -53c0 -19 7 -29 20 -29zM40 0l220 364l197 336h67l-221 -364l-196 -336h-67z" />
    <glyph glyph-name="fivesixths" unicode="&#x215a;" horiz-adv-x="540" 
d="M362 -5c-52 0 -88 36 -88 109c0 49 22 174 68 220c22 22 45 31 75 31c28 0 58 -13 73 -24l-18 -69c-12 11 -31 25 -53 25c-12 0 -21 -6 -25 -10c-12 -12 -20 -30 -26 -53c10 4 22 7 36 7c29 0 69 -17 69 -84c0 -80 -43 -152 -111 -152zM365 62c26 0 36 47 36 74
c0 29 -15 31 -24 31c-7 0 -16 -2 -22 -5l-4 -18c-4 -18 -6 -40 -6 -53c0 -19 7 -29 20 -29zM127 345c-38 0 -71 16 -90 35l14 72c16 -15 41 -38 72 -38c44 0 48 46 48 58c0 28 -17 36 -37 36c-12 0 -22 -4 -30 -7l-42 23l48 176h167l-13 -69h-108l-16 -60c6 1 17 2 25 2
c45 0 83 -29 83 -94c0 -80 -52 -134 -121 -134zM25 0l220 364l197 336h67l-221 -364l-196 -336h-67z" />
    <glyph glyph-name="oneeighth" unicode="&#x215b;" horiz-adv-x="495" 
d="M306 -5c-48 0 -98 26 -98 91c0 57 35 94 63 106c-13 15 -24 36 -24 59c0 65 47 104 105 104c52 0 94 -32 94 -87c0 -42 -24 -74 -55 -90c16 -14 30 -40 30 -68c0 -68 -48 -115 -115 -115zM309 51c27 0 40 34 40 68c0 25 -13 35 -29 35c-27 0 -40 -34 -40 -68
c0 -25 13 -35 29 -35zM343 215c20 0 34 20 34 53c0 20 -10 32 -27 32c-20 0 -34 -20 -34 -53c0 -20 10 -32 27 -32zM73 350l53 268l-57 -24l15 78l81 31h56l-69 -353h-79zM-24 0l220 364l197 336h67l-221 -364l-196 -336h-67z" />
    <glyph glyph-name="oneeighth.alt" horiz-adv-x="540" 
d="M25 350l13 66h59l40 205l-63 -24l14 76l85 30h56l-56 -287h54l-13 -66h-189zM366 -5c-48 0 -98 26 -98 91c0 57 35 94 63 106c-13 15 -24 36 -24 59c0 65 47 104 105 104c52 0 94 -32 94 -87c0 -42 -24 -74 -55 -90c16 -14 30 -40 30 -68c0 -68 -48 -115 -115 -115z
M369 51c27 0 40 34 40 68c0 25 -13 35 -29 35c-27 0 -40 -34 -40 -68c0 -25 13 -35 29 -35zM403 215c20 0 34 20 34 53c0 20 -10 32 -27 32c-20 0 -34 -20 -34 -53c0 -20 10 -32 27 -32zM35 0l220 364l197 336h67l-221 -364l-196 -336h-67z" />
    <glyph glyph-name="threeeighths" unicode="&#x215c;" horiz-adv-x="540" 
d="M363 -5c-48 0 -98 26 -98 91c0 57 35 94 63 106c-13 15 -24 36 -24 59c0 65 47 104 105 104c52 0 94 -32 94 -87c0 -42 -24 -74 -55 -90c16 -14 30 -40 30 -68c0 -68 -48 -115 -115 -115zM25 0l220 364l197 336h67l-221 -364l-196 -336h-67zM131 345c-41 0 -72 18 -89 35
l14 72c18 -18 42 -38 71 -38c25 0 42 19 42 42c0 25 -23 42 -69 47l9 51l73 76h-91l14 70h186l-11 -56l-97 -97c39 -17 62 -46 62 -87c0 -73 -52 -115 -114 -115zM366 51c27 0 40 34 40 68c0 25 -13 35 -29 35c-27 0 -40 -34 -40 -68c0 -25 13 -35 29 -35zM400 215
c20 0 34 20 34 53c0 20 -10 32 -27 32c-20 0 -34 -20 -34 -53c0 -20 10 -32 27 -32z" />
    <glyph glyph-name="fiveeighths" unicode="&#x215d;" horiz-adv-x="540" 
d="M363 -5c-48 0 -98 26 -98 91c0 57 35 94 63 106c-13 15 -24 36 -24 59c0 65 47 104 105 104c52 0 94 -32 94 -87c0 -42 -24 -74 -55 -90c16 -14 30 -40 30 -68c0 -68 -48 -115 -115 -115zM366 51c27 0 40 34 40 68c0 25 -13 35 -29 35c-27 0 -40 -34 -40 -68
c0 -25 13 -35 29 -35zM400 215c20 0 34 20 34 53c0 20 -10 32 -27 32c-20 0 -34 -20 -34 -53c0 -20 10 -32 27 -32zM129 345c-38 0 -71 16 -90 35l14 72c16 -15 41 -38 72 -38c44 0 48 46 48 58c0 28 -17 36 -37 36c-12 0 -22 -4 -30 -7l-42 23l48 176h167l-13 -69h-108
l-16 -60c6 1 17 2 25 2c45 0 83 -29 83 -94c0 -80 -52 -134 -121 -134zM25 0l220 364l197 336h67l-221 -364l-196 -336h-67z" />
    <glyph glyph-name="seveneighths" unicode="&#x215e;" horiz-adv-x="540" 
d="M334 -5c-48 0 -98 26 -98 91c0 57 35 94 63 106c-13 15 -24 36 -24 59c0 65 47 104 105 104c52 0 94 -32 94 -87c0 -42 -24 -74 -55 -90c16 -14 30 -40 30 -68c0 -68 -48 -115 -115 -115zM337 51c27 0 40 34 40 68c0 25 -13 35 -29 35c-27 0 -40 -34 -40 -68
c0 -25 13 -35 29 -35zM371 215c20 0 34 20 34 53c0 20 -10 32 -27 32c-20 0 -34 -20 -34 -53c0 -20 10 -32 27 -32zM57 350l140 278h-105l14 72h189l-11 -56l-143 -294h-84zM-10 0l220 364l197 336h67l-221 -364l-196 -336h-67z" />
    <glyph glyph-name="zero.sup" unicode="&#x2070;" 
d="M301 710c0 -34 -14 -174 -66 -226c-17 -17 -39 -28 -66 -28c-60 0 -89 39 -89 106c0 34 14 174 66 226c17 17 39 28 66 28c60 0 89 -39 89 -106zM153 554c0 -12 2 -29 19 -29c5 0 9 2 13 6c22 22 43 151 43 187c0 12 -2 29 -19 29c-5 0 -9 -2 -13 -6
c-22 -22 -43 -151 -43 -187z" />
    <glyph glyph-name="one.sup" unicode="&#xb9;" horiz-adv-x="195" 
d="M106 461l53 268l-57 -24l15 78l81 31h56l-69 -353h-79z" />
    <glyph glyph-name="one.sup_alt" 
d="M73 461l13 66h59l40 205l-63 -24l14 76l85 30h56l-56 -287h54l-13 -66h-189z" />
    <glyph glyph-name="two.sup" unicode="&#xb2;" 
d="M69 461l13 67l86 99c41 48 51 64 51 85s-14 32 -33 32c-22 0 -46 -13 -71 -30l15 78c20 13 46 24 74 24c59 0 95 -37 95 -88c0 -32 -8 -65 -59 -121l-64 -74h92l-14 -72h-185z" />
    <glyph glyph-name="three.sup" unicode="&#xb3;" 
d="M162 456c-41 0 -72 18 -89 35l14 72c18 -18 42 -38 71 -38c25 0 42 19 42 42c0 25 -23 42 -69 47l9 51l73 76h-91l14 70h186l-11 -56l-97 -97c39 -17 62 -46 62 -87c0 -73 -52 -115 -114 -115z" />
    <glyph glyph-name="four.sup" unicode="&#x2074;" 
d="M169 461l13 64h-116l12 70l122 218h106l-44 -223h27l-12 -65h-27l-13 -64h-68zM140 590h58l30 150h-7z" />
    <glyph glyph-name="five.sup" unicode="&#x2075;" 
d="M159 456c-38 0 -71 16 -90 35l14 72c16 -15 41 -38 72 -38c44 0 48 46 48 58c0 28 -17 36 -37 36c-12 0 -22 -4 -30 -7l-42 23l48 176h167l-13 -69h-108l-16 -60c6 1 17 2 25 2c45 0 83 -29 83 -94c0 -80 -52 -134 -121 -134z" />
    <glyph glyph-name="six.sup" unicode="&#x2076;" 
d="M173 456c-52 0 -88 36 -88 109c0 49 22 174 68 220c22 22 45 31 75 31c28 0 58 -13 73 -24l-18 -69c-12 11 -31 25 -53 25c-12 0 -21 -6 -25 -10c-12 -12 -20 -30 -26 -53c10 4 22 7 36 7c29 0 69 -17 69 -84c0 -80 -43 -152 -111 -152zM176 523c26 0 36 47 36 74
c0 29 -15 31 -24 31c-7 0 -16 -2 -22 -5l-4 -18c-4 -18 -6 -40 -6 -53c0 -19 7 -29 20 -29z" />
    <glyph glyph-name="seven.sup" unicode="&#x2077;" 
d="M79 461l140 278h-105l14 72h189l-11 -56l-143 -294h-84z" />
    <glyph glyph-name="eight.sup" unicode="&#x2078;" 
d="M167 456c-48 0 -98 26 -98 91c0 57 35 94 63 106c-13 15 -24 36 -24 59c0 65 47 104 105 104c52 0 94 -32 94 -87c0 -42 -24 -74 -55 -90c16 -14 30 -40 30 -68c0 -68 -48 -115 -115 -115zM170 512c27 0 40 34 40 68c0 25 -13 35 -29 35c-27 0 -40 -34 -40 -68
c0 -25 13 -35 29 -35zM204 676c20 0 34 20 34 53c0 20 -10 32 -27 32c-20 0 -34 -20 -34 -53c0 -20 10 -32 27 -32z" />
    <glyph glyph-name="nine.sup" unicode="&#x2079;" 
d="M153 456c-28 0 -59 13 -79 28l18 69c17 -15 37 -29 59 -29c12 0 21 6 25 10c12 12 20 28 25 50c-10 -4 -22 -7 -36 -7c-29 0 -69 16 -69 84c0 82 44 155 112 155c52 0 88 -36 88 -109c0 -49 -22 -174 -68 -220c-22 -22 -45 -31 -75 -31zM192 641c7 0 16 2 22 5l5 21
c4 18 6 40 6 53c0 19 -7 29 -20 29c-26 0 -36 -47 -37 -77c0 -29 15 -31 24 -31z" />
    <glyph glyph-name="zero.inf" unicode="&#x2080;" 
d="M186 117c0 -34 -14 -174 -66 -226c-17 -17 -39 -28 -66 -28c-60 0 -89 39 -89 106c0 34 14 174 66 226c17 17 39 28 66 28c60 0 89 -39 89 -106zM38 -39c0 -12 2 -29 19 -29c5 0 9 2 13 6c22 22 43 151 43 187c0 12 -2 29 -19 29c-5 0 -9 -2 -13 -6
c-22 -22 -43 -151 -43 -187z" />
    <glyph glyph-name="one.inf" unicode="&#x2081;" horiz-adv-x="195" 
d="M-9 -132l53 268l-57 -24l15 78l81 31h56l-69 -353h-79z" />
    <glyph glyph-name="one.inf_alt" 
d="M-42 -132l13 66h59l40 205l-63 -24l14 76l85 30h56l-56 -287h54l-13 -66h-189z" />
    <glyph glyph-name="two.inf" unicode="&#x2082;" 
d="M-46 -132l13 67l86 99c41 48 51 64 51 85s-14 32 -33 32c-22 0 -46 -13 -71 -30l15 78c20 13 46 24 74 24c59 0 95 -37 95 -88c0 -32 -8 -65 -59 -121l-64 -74h92l-14 -72h-185z" />
    <glyph glyph-name="three.inf" unicode="&#x2083;" 
d="M47 -137c-41 0 -72 18 -89 35l14 72c18 -18 42 -38 71 -38c25 0 42 19 42 42c0 25 -23 42 -69 47l9 51l73 76h-91l14 70h186l-11 -56l-97 -97c39 -17 62 -46 62 -87c0 -73 -52 -115 -114 -115z" />
    <glyph glyph-name="four.inf" unicode="&#x2084;" 
d="M54 -132l13 64h-116l12 70l122 218h106l-44 -223h27l-12 -65h-27l-13 -64h-68zM25 -3h58l30 150h-7z" />
    <glyph glyph-name="five.inf" unicode="&#x2085;" 
d="M43 -137c-38 0 -71 16 -90 35l14 72c16 -15 41 -38 72 -38c44 0 48 46 48 58c0 28 -17 36 -37 36c-12 0 -22 -4 -30 -7l-42 23l48 176h167l-13 -69h-108l-16 -60c6 1 17 2 25 2c45 0 83 -29 83 -94c0 -80 -52 -134 -121 -134z" />
    <glyph glyph-name="six.inf" unicode="&#x2086;" 
d="M58 -137c-52 0 -88 36 -88 109c0 49 22 174 68 220c22 22 45 31 75 31c28 0 58 -13 73 -24l-18 -69c-12 11 -31 25 -53 25c-12 0 -21 -6 -25 -10c-12 -12 -20 -30 -26 -53c10 4 22 7 36 7c29 0 69 -17 69 -84c0 -80 -43 -152 -111 -152zM61 -70c26 0 36 47 36 74
c0 29 -15 31 -24 31c-7 0 -16 -2 -22 -5l-4 -18c-4 -18 -6 -40 -6 -53c0 -19 7 -29 20 -29z" />
    <glyph glyph-name="seven.inf" unicode="&#x2087;" 
d="M-37 -132l140 278h-105l14 72h189l-11 -56l-143 -294h-84z" />
    <glyph glyph-name="eight.inf" unicode="&#x2088;" 
d="M51 -137c-48 0 -98 26 -98 91c0 57 35 94 63 106c-13 15 -24 36 -24 59c0 65 47 104 105 104c52 0 94 -32 94 -87c0 -42 -24 -74 -55 -90c16 -14 30 -40 30 -68c0 -68 -48 -115 -115 -115zM54 -81c27 0 40 34 40 68c0 25 -13 35 -29 35c-27 0 -40 -34 -40 -68
c0 -25 13 -35 29 -35zM88 83c20 0 34 20 34 53c0 20 -10 32 -27 32c-20 0 -34 -20 -34 -53c0 -20 10 -32 27 -32z" />
    <glyph glyph-name="nine.inf" unicode="&#x2089;" 
d="M38 -137c-28 0 -59 13 -79 28l18 69c17 -15 37 -29 59 -29c12 0 21 6 25 10c12 12 20 28 25 50c-10 -4 -22 -7 -36 -7c-29 0 -69 16 -69 84c0 82 44 155 112 155c52 0 88 -36 88 -109c0 -49 -22 -174 -68 -220c-22 -22 -45 -31 -75 -31zM77 48c7 0 16 2 22 5l5 21
c4 18 6 40 6 53c0 19 -7 29 -20 29c-26 0 -36 -47 -37 -77c0 -29 15 -31 24 -31z" />
    <glyph glyph-name="zero.tab" horiz-adv-x="360" 
d="M366 531c0 -118 -48 -403 -144 -499c-33 -33 -66 -42 -102 -42c-71 0 -128 52 -128 179c0 118 48 403 144 499c33 33 66 42 102 42c71 0 128 -52 128 -179zM103 155c0 -50 21 -52 30 -52c10 0 16 4 22 10c39 39 100 331 100 432c0 51 -21 52 -30 52c-10 0 -16 -4 -22 -10
c-39 -39 -100 -329 -100 -432z" />
    <glyph glyph-name="one.tab" horiz-adv-x="360" 
d="M-30 0l21 107h103l89 461l-115 -51l25 126l153 62h86l-116 -598h92l-21 -107h-317z" />
    <glyph glyph-name="two.tab" horiz-adv-x="360" 
d="M-40 0l20 103l187 275c44 67 72 112 72 157c0 37 -25 56 -57 56c-30 0 -61 -14 -117 -55l24 130c39 27 75 44 121 44c88 0 150 -60 150 -158c0 -77 -31 -133 -85 -215l-149 -215h165l-23 -122h-308z" />
    <glyph glyph-name="three.tab" horiz-adv-x="360" 
d="M102 -10c-57 0 -104 22 -139 53l23 118c33 -32 65 -55 107 -55c67 0 92 62 92 107c0 56 -29 95 -112 108l18 91l140 168h-156l23 120h298l-22 -112l-165 -194c69 -36 98 -96 98 -173c0 -88 -47 -231 -205 -231z" />
    <glyph glyph-name="three.tab_alt" horiz-adv-x="360" 
d="M106 -10c-55 0 -106 16 -143 51l23 119c33 -35 75 -54 109 -54c56 0 90 44 90 106c0 52 -39 90 -110 100l20 101c88 3 147 41 147 112c0 36 -22 70 -76 70c-25 0 -58 -8 -91 -26l22 115c30 18 64 26 98 26c92 0 170 -57 169 -167c-1 -81 -39 -158 -135 -190
c47 -32 75 -78 75 -143c0 -121 -73 -220 -198 -220z" />
    <glyph glyph-name="four.tab" horiz-adv-x="360" 
d="M128 0l26 130h-181l16 97l225 475h160l-91 -467h45l-20 -105h-45l-26 -130h-109zM89 235h85l55 283h-9z" />
    <glyph glyph-name="five.tab" horiz-adv-x="360" 
d="M104 -10c-45 0 -91 16 -129 49l24 120c34 -32 65 -52 99 -52c78 0 98 107 98 155c0 57 -28 71 -55 71c-23 0 -40 -11 -53 -21l-57 43l87 345h263l-23 -116h-171l-38 -150c16 5 27 7 43 7c73 0 126 -57 126 -161c0 -133 -70 -290 -214 -290z" />
    <glyph glyph-name="six.tab" horiz-adv-x="360" 
d="M133 -10c-38 0 -67 13 -89 35c-34 34 -45 90 -45 161c0 104 53 379 147 473c32 32 71 51 120 51c31 0 65 -6 103 -28l-21 -117c-17 13 -47 34 -80 34c-17 0 -33 -7 -44 -18c-27 -27 -46 -71 -65 -142c17 8 37 18 65 18c66 0 103 -54 104 -143c1 -109 -47 -324 -195 -324z
M140 99c55 0 74 163 74 198c0 42 -15 55 -35 55c-14 0 -28 -5 -40 -13l-4 -18c-19 -86 -26 -142 -26 -169c0 -25 5 -53 31 -53z" />
    <glyph glyph-name="seven.tab" horiz-adv-x="360" 
d="M-2 0l252 576h-184l24 124h305l-21 -110l-254 -590h-122z" />
    <glyph glyph-name="eight.tab" horiz-adv-x="360" 
d="M132 -10c-96 0 -147 68 -147 162c0 89 33 185 114 228c-22 26 -39 70 -39 119c0 104 60 211 173 211c79 0 138 -58 138 -157c0 -73 -33 -158 -100 -192c22 -24 47 -66 47 -131c0 -106 -62 -240 -186 -240zM135 88c55 0 75 119 75 169c0 24 -6 60 -38 60
c-55 0 -75 -119 -75 -169c0 -24 6 -60 38 -60zM199 412c51 0 64 109 64 147c0 21 -5 54 -36 54c-51 0 -64 -109 -64 -147c0 -21 5 -54 36 -54z" />
    <glyph glyph-name="nine.tab" horiz-adv-x="360" 
d="M93 -10c-31 0 -66 5 -113 33l21 117c26 -19 57 -39 90 -39c17 0 33 7 44 18c27 27 46 71 63 134c-17 -8 -37 -18 -65 -18c-66 0 -103 54 -104 147c-1 114 49 328 197 328c38 0 67 -13 89 -35c34 -34 45 -90 45 -161c0 -104 -53 -379 -147 -473c-32 -32 -71 -51 -120 -51z
M178 340c14 0 27 5 40 13l6 26c20 86 26 142 26 169c0 25 -5 53 -31 53c-55 0 -76 -162 -76 -202c0 -46 15 -59 35 -59z" />
    <glyph glyph-name="period.tab" horiz-adv-x="180" 
d="M-38 0l29 150h120l-29 -150h-120z" />
    <glyph glyph-name="comma.tab" horiz-adv-x="180" 
d="M-81 -157l-2 47c72 14 92 59 96 110h-51l29 150h120l-26 -134c-22 -111 -59 -161 -166 -173z" />
    <glyph glyph-name="colon.tab" horiz-adv-x="180" 
d="M-38 0l29 150h120l-30 -150h-119zM36 386l30 150h120l-30 -150h-120z" />
    <glyph glyph-name="semicolon.tab" horiz-adv-x="180" 
d="M-81 -157l-2 47c72 14 92 59 96 110h-51l29 150h120l-26 -134c-22 -111 -59 -161 -166 -173zM37 386l29 150h120l-29 -150h-120z" />
    <glyph glyph-name="twodotleader.tab" horiz-adv-x="360" 
d="M-38 0l29 146h120l-29 -146h-120zM142 0l29 146h120l-29 -146h-120z" />
    <glyph glyph-name="periodcentered.tab" horiz-adv-x="180" 
d="M7 235l29 149h120l-29 -149h-120z" />
    <glyph glyph-name="slash.tab" horiz-adv-x="360" 
d="M-90 -99l423 868h102l-423 -868h-102z" />
    <glyph glyph-name="bar.tab" horiz-adv-x="180" 
d="M-44 -99l168 868h94l-169 -868h-93z" />
    <glyph glyph-name="underscore.tab" horiz-adv-x="360" 
d="M-99 -151l18 93h364l-19 -93h-363z" />
    <glyph glyph-name="dollar.tab" horiz-adv-x="360" 
d="M256 774h81l-22 -82c20 -6 39 -16 57 -28l-24 -126c-26 23 -64 49 -103 49c-46 0 -69 -30 -69 -68c0 -23 7 -53 49 -118c60 -93 84 -137 84 -206c0 -123 -81 -197 -183 -200l-27 -102h-81l30 112c-25 8 -48 21 -71 37l25 126c29 -28 68 -56 114 -56c42 0 70 29 70 78
c0 25 -5 48 -45 108c-59 88 -88 140 -88 210c0 108 71 194 184 196z" />
    <glyph glyph-name="sterling.tab" horiz-adv-x="360" 
d="M-45 0l16 81l54 25l34 174h-48l22 111h48l22 117c13 68 33 120 65 152c36 36 76 49 128 49c33 0 73 -10 97 -23l-24 -119c-25 16 -46 23 -68 23c-16 0 -32 -5 -45 -18c-15 -15 -23 -38 -30 -77l-20 -104h99l-22 -111h-99l-33 -168h147l-21 -112h-322z" />
    <glyph glyph-name="Euro.tab" horiz-adv-x="360" 
d="M21 388l18 90h51c22 70 53 136 96 179c42 42 87 54 124 54c35 0 67 -11 95 -28l-25 -126c-32 29 -50 35 -68 35c-17 0 -31 -6 -43 -18c-21 -21 -38 -57 -52 -98h94l-18 -88h-102c-5 -24 -11 -48 -15 -72h103l-17 -88h-95v-15c0 -77 22 -104 64 -104c17 0 40 5 67 20
l-23 -120c-21 -11 -45 -19 -70 -19c-89 0 -159 61 -159 219v17h-56l17 90h46l13 72h-45z" />
    <glyph glyph-name="yen.tab" horiz-adv-x="360" 
d="M20 250l18 92h61l-29 358h118l2 -273l108 273h126l-169 -358h63l-18 -92h-83l-12 -61h83l-18 -92h-82l-19 -97h-116l19 97h-82l18 92h81l12 61h-81z" />
    <glyph glyph-name="cent.tab" horiz-adv-x="360" 
d="M314 705l-16 -81c26 -6 51 -17 70 -31l-23 -121c-29 24 -55 39 -83 39c-18 0 -33 -7 -45 -17c-52 -45 -76 -174 -76 -225c0 -73 41 -81 67 -81s53 9 88 27l-23 -118c-25 -12 -56 -21 -83 -23l-15 -80h-80l18 92c-59 24 -93 83 -93 176c0 81 34 245 118 322
c25 23 52 36 80 42l16 79h80z" />
    <glyph glyph-name="numbersign.tab" horiz-adv-x="360" 
d="M5 0l29 160h-46l15 108h51l32 168h-47l17 108h50l29 156h77l-29 -156h66l29 156h77l-29 -156h46l-17 -108h-49l-32 -168h45l-17 -108h-48l-29 -160h-77l29 160h-66l-29 -160h-77zM132 268h66l31 168h-66z" />
    <glyph glyph-name="paragraph.tab" horiz-adv-x="360" 
d="M126 0l43 225c-30 5 -62 22 -86 46c-32 32 -49 78 -49 137c0 69 24 163 84 223c48 48 111 69 179 69h89l-136 -700h-124z" />
    <glyph glyph-name="section.tab" horiz-adv-x="360" 
d="M118 -10c-42 0 -82 13 -112 30l22 111c28 -20 56 -35 83 -35c24 0 43 14 43 40c0 23 -15 41 -66 84s-78 76 -78 128c0 77 59 122 102 147c-12 23 -17 43 -17 68c0 63 37 147 147 147c42 0 82 -13 112 -30l-22 -111c-28 20 -56 35 -83 35c-24 0 -43 -14 -43 -40
c0 -23 15 -41 66 -84s78 -76 78 -128c0 -77 -59 -122 -102 -147c12 -23 17 -43 17 -68c0 -63 -37 -147 -147 -147zM208 262c28 18 36 45 36 62c0 24 -4 41 -74 99l-18 15c-28 -18 -36 -45 -36 -62c0 -24 2 -39 74 -99z" />
    <glyph glyph-name="degree.tab" horiz-adv-x="360" 
d="M234 706c65 0 110 -49 110 -136c0 -56 -17 -166 -80 -229c-25 -25 -56 -39 -89 -39c-65 0 -110 49 -110 136c0 56 17 166 80 229c25 25 56 39 89 39zM183 388c12 0 22 6 29 13c35 35 51 129 51 165c0 41 -18 54 -37 54c-12 0 -22 -6 -29 -13c-35 -35 -51 -129 -51 -165
c0 -41 18 -54 37 -54z" />
    <glyph glyph-name="percent.tab" horiz-adv-x="360" 
d="M164 707c59 0 86 -37 86 -102c0 -28 -7 -81 -22 -135l126 230h63l-197 -325c8 4 17 6 28 6c55 0 84 -41 84 -106c0 -49 -20 -200 -76 -256c-16 -16 -36 -26 -61 -26c-59 0 -86 37 -86 102c0 27 7 81 21 134l-125 -229h-62l195 324c-8 -3 -17 -5 -27 -5
c-55 0 -84 41 -84 106c0 49 20 200 76 256c16 16 36 26 61 26zM198 64c5 0 10 3 13 6c25 25 48 166 48 207c0 23 -6 33 -18 33c-6 0 -11 -3 -14 -6c-25 -25 -48 -166 -48 -207c0 -23 6 -33 19 -33zM161 636c-5 0 -10 -3 -13 -6c-25 -25 -48 -166 -48 -207
c0 -23 6 -33 18 -33c6 0 11 3 14 6c25 25 48 166 48 207c0 23 -6 33 -19 33z" />
    <glyph glyph-name="quotedbl.tab" horiz-adv-x="360" 
d="M54 381l65 319h122l-2 -9l-139 -310h-46zM223 381l65 319h122l-2 -9l-139 -310h-46z" />
    <glyph glyph-name="quotesingle.tab" horiz-adv-x="180" 
d="M50 381l65 319h122l-2 -9l-139 -310h-46z" />
    <glyph glyph-name="plus.tab" horiz-adv-x="360" 
d="M95 180l23 118h-110l21 108h110l23 118h104l-23 -118h110l-21 -108h-110l-23 -118h-104z" />
    <glyph glyph-name="minus.tab" horiz-adv-x="360" 
d="M9 293l23 118h320l-23 -118h-320z" />
    <glyph glyph-name="divide.tab" horiz-adv-x="360" 
d="M84 133l22 113h108l-22 -113h-108zM10 298l21 108h320l-21 -108h-320zM147 458l22 113h108l-22 -113h-108z" />
    <glyph glyph-name="equal.tab" horiz-adv-x="360" 
d="M-7 198l21 117h318l-22 -117h-317zM29 389l22 117h318l-22 -117h-318z" />
    <glyph glyph-name="multiply.tab" horiz-adv-x="360" 
d="M64 169l-75 74l124 115l-76 109l91 64l66 -100l107 104l75 -74l-124 -115l76 -109l-91 -64l-66 100z" />
    <glyph glyph-name="less.tab" horiz-adv-x="360" 
d="M284 108l-266 193l19 102l342 193l-29 -145l-199 -106l158 -106z" />
    <glyph glyph-name="greater.tab" horiz-adv-x="360" 
d="M76 596l266 -193l-19 -102l-342 -193l29 145l199 106l-158 106z" />
    <glyph glyph-name="plusminus.tab" horiz-adv-x="360" 
d="M95 184l23 119h-110l21 107h110l23 119h104l-23 -119h110l-21 -107h-110l-23 -119h-104zM-48 0l20 104h319l-20 -104h-319z" />
    <glyph glyph-name="space" unicode=" " horiz-adv-x="159" 
 />
    <glyph glyph-name="uni00A0" unicode="&#xa0;" horiz-adv-x="159" 
 />
    <glyph glyph-name="emspace" unicode="&#x2003;" horiz-adv-x="1000" 
 />
    <glyph glyph-name="enspace" unicode="&#x2002;" horiz-adv-x="500" 
 />
    <glyph glyph-name="threeperemspace" unicode="&#x2004;" horiz-adv-x="333" 
 />
    <glyph glyph-name="fourperemspace" unicode="&#x2005;" horiz-adv-x="250" 
 />
    <glyph glyph-name="thinspace" unicode="&#x2009;" horiz-adv-x="133" 
 />
    <glyph glyph-name="hairspace" unicode="&#x200a;" horiz-adv-x="75" 
 />
    <glyph glyph-name="space.tab" horiz-adv-x="180" 
 />
    <glyph glyph-name="figurespace" unicode="&#x2007;" horiz-adv-x="360" 
 />
    <glyph glyph-name="NUL" horiz-adv-x="0" 
 />
    <glyph glyph-name="asciicircum" unicode="^" horiz-adv-x="500" 
d="M174 502l110 191h97l37 -191h-73l-22 129l-72 -129h-77z" />
    <glyph glyph-name="asciitilde" unicode="~" horiz-adv-x="369" 
d="M97 250l-58 18c22 80 61 110 98 110c31 0 48 -14 67 -27c12 -8 24 -18 41 -18c18 0 33 15 46 49l58 -18c-22 -80 -61 -110 -98 -110c-31 0 -48 14 -67 27c-12 8 -24 18 -41 18c-18 0 -33 -15 -46 -49z" />
    <glyph glyph-name="hfjslug" horiz-adv-x="694" 
d="M255 276h8l11 34h1l11 -34h8l14 47h-8l-10 -35h-1l-11 35h-7l-11 -35h-1l-10 35h-8zM321 388c13 0 23 9 29 24h1l12 -24l12 6l-17 32c5 12 9 25 13 39l-13 3c-2 -9 -5 -21 -8 -30h-1l-16 31c13 12 23 26 23 42c0 17 -9 31 -27 31c-17 0 -28 -14 -28 -31
c0 -15 6 -24 14 -39c-15 -12 -23 -28 -23 -47c0 -22 12 -37 29 -37zM50 -200v303c18 0 32 14 32 32c0 17 -14 32 -32 32v554h100l30 79h334l29 -79h101v-921h-208l-8 14h-163l-8 -14h-207zM523 277h8v12l8 8l15 -20h10l-20 26l18 20h-10l-20 -24h-1v24h-8v-46zM193 277h34v7
h-26v13h23v7h-23v12h26v7h-34v-46zM184 391h15v79h47v-79h15v172h-15v-79h-47v79h-15v-172zM132 277h8v32l25 -32h7v46h-8v-32l-25 32h-7v-46zM400 391h15v78h38v14h-38v66h43v14h-58v-172zM468 277h8v15h12l10 -15h9l-12 17c5 2 10 6 10 14c0 9 -7 15 -17 15h-20v-46z
M366 277h8v17l18 29h-9l-13 -22l-13 22h-9l18 -29v-17zM481 390c20 0 31 11 31 36v137h-16v-137c0 -16 -5 -22 -16 -22c-6 0 -15 3 -20 5v-15c5 -2 14 -4 21 -4zM476 299v17h11c6 0 10 -3 10 -8s-4 -9 -10 -9h-11zM322 402c-9 0 -16 10 -16 25c0 13 7 26 16 35l20 -39
c-5 -13 -12 -21 -20 -21zM327 479c-7 13 -12 22 -12 32c0 11 6 19 14 19s13 -8 13 -19c0 -12 -5 -21 -15 -32zM426 283c-10 0 -16 8 -16 17c0 8 6 17 16 17s16 -9 16 -17c0 -9 -6 -17 -16 -17zM426 276c14 0 24 11 24 24c0 12 -10 24 -24 24s-24 -12 -24 -24
c0 -13 10 -24 24 -24z" />
    <glyph glyph-name="i.dot" horiz-adv-x="186" 
d="M-18 0l104 536h118l-104 -536h-118zM95 587l23 118h120l-23 -118h-120z" />
    <glyph glyph-name="fraction" unicode="&#x2044;" horiz-adv-x="60" 
d="M-212 0l220 364l197 336h67l-221 -364l-196 -336h-67z" />
    <glyph glyph-name="zero.num" 
d="M265 598c0 -34 -14 -174 -66 -226c-17 -17 -39 -28 -66 -28c-60 0 -89 39 -89 106c0 34 14 174 66 226c17 17 39 28 66 28c60 0 89 -39 89 -106zM117 442c0 -12 2 -29 19 -29c5 0 9 2 13 6c22 22 43 151 43 187c0 12 -2 29 -19 29c-5 0 -9 -2 -13 -6
c-22 -22 -43 -151 -43 -187z" />
    <glyph glyph-name="one.num" horiz-adv-x="195" 
d="M70 350l53 268l-57 -24l15 78l81 31h56l-69 -353h-79z" />
    <glyph glyph-name="one.num_alt" 
d="M36 350l13 66h59l40 205l-63 -24l14 76l85 30h56l-56 -287h54l-13 -66h-189z" />
    <glyph glyph-name="two.num" 
d="M32 350l13 67l86 99c41 48 51 64 51 85s-14 32 -33 32c-22 0 -46 -13 -71 -30l15 78c20 13 46 24 74 24c59 0 95 -37 95 -88c0 -32 -8 -65 -59 -121l-64 -74h92l-14 -72h-185z" />
    <glyph glyph-name="three.num" 
d="M125 345c-41 0 -72 18 -89 35l14 72c18 -18 42 -38 71 -38c25 0 42 19 42 42c0 25 -23 42 -69 47l9 51l73 76h-91l14 70h186l-11 -56l-97 -97c39 -17 62 -46 62 -87c0 -73 -52 -115 -114 -115z" />
    <glyph glyph-name="four.num" 
d="M133 350l13 64h-116l12 70l122 218h106l-44 -223h27l-12 -65h-27l-13 -64h-68zM104 479h58l30 150h-7z" />
    <glyph glyph-name="five.num" 
d="M123 345c-38 0 -71 16 -90 35l14 72c16 -15 41 -38 72 -38c44 0 48 46 48 58c0 28 -17 36 -37 36c-12 0 -22 -4 -30 -7l-42 23l48 176h167l-13 -69h-108l-16 -60c6 1 17 2 25 2c45 0 83 -29 83 -94c0 -80 -52 -134 -121 -134z" />
    <glyph glyph-name="six.num" 
d="M136 345c-52 0 -88 36 -88 109c0 49 22 174 68 220c22 22 45 31 75 31c28 0 58 -13 73 -24l-18 -69c-12 11 -31 25 -53 25c-12 0 -21 -6 -25 -10c-12 -12 -20 -30 -26 -53c10 4 22 7 36 7c29 0 69 -17 69 -84c0 -80 -43 -152 -111 -152zM139 412c26 0 36 47 36 74
c0 29 -15 31 -24 31c-7 0 -16 -2 -22 -5l-4 -18c-4 -18 -6 -40 -6 -53c0 -19 7 -29 20 -29z" />
    <glyph glyph-name="seven.num" 
d="M43 350l140 278h-105l14 72h189l-11 -56l-143 -294h-84z" />
    <glyph glyph-name="eight.num" 
d="M130 345c-48 0 -98 26 -98 91c0 57 35 94 63 106c-13 15 -24 36 -24 59c0 65 47 104 105 104c52 0 94 -32 94 -87c0 -42 -24 -74 -55 -90c16 -14 30 -40 30 -68c0 -68 -48 -115 -115 -115zM133 401c27 0 40 34 40 68c0 25 -13 35 -29 35c-27 0 -40 -34 -40 -68
c0 -25 13 -35 29 -35zM167 565c20 0 34 20 34 53c0 20 -10 32 -27 32c-20 0 -34 -20 -34 -53c0 -20 10 -32 27 -32z" />
    <glyph glyph-name="nine.num" 
d="M117 345c-28 0 -59 13 -79 28l18 69c17 -15 37 -29 59 -29c12 0 21 6 25 10c12 12 20 28 25 50c-10 -4 -22 -7 -36 -7c-29 0 -69 16 -69 84c0 82 44 155 112 155c52 0 88 -36 88 -109c0 -49 -22 -174 -68 -220c-22 -22 -45 -31 -75 -31zM156 530c7 0 16 2 22 5l5 21
c4 18 6 40 6 53c0 19 -7 29 -20 29c-26 0 -36 -47 -37 -77c0 -29 15 -31 24 -31z" />
    <glyph glyph-name="zero.den" 
d="M197 249c0 -34 -14 -174 -66 -226c-17 -17 -39 -28 -66 -28c-60 0 -89 39 -89 106c0 34 14 174 66 226c17 17 39 28 66 28c60 0 89 -39 89 -106zM49 93c0 -12 2 -29 19 -29c5 0 9 2 13 6c22 22 43 151 43 187c0 12 -2 29 -19 29c-5 0 -9 -2 -13 -6
c-22 -22 -43 -151 -43 -187z" />
    <glyph glyph-name="one.den" horiz-adv-x="195" 
d="M2 0l53 268l-57 -24l15 78l81 31h56l-69 -353h-79z" />
    <glyph glyph-name="one.den_alt" 
d="M-32 0l13 66h59l40 205l-63 -24l14 76l85 30h56l-56 -287h54l-13 -66h-189z" />
    <glyph glyph-name="two.den" 
d="M-36 0l13 67l86 99c41 48 51 64 51 85s-14 32 -33 32c-22 0 -46 -13 -71 -30l15 78c20 13 46 24 74 24c59 0 95 -37 95 -88c0 -32 -8 -65 -59 -121l-64 -74h92l-14 -72h-185z" />
    <glyph glyph-name="three.den" 
d="M57 -5c-41 0 -72 18 -89 35l14 72c18 -18 42 -38 71 -38c25 0 42 19 42 42c0 25 -23 42 -69 47l9 51l73 76h-91l14 70h186l-11 -56l-97 -97c39 -17 62 -46 62 -87c0 -73 -52 -115 -114 -115z" />
    <glyph glyph-name="four.den" 
d="M65 0l13 64h-116l12 70l122 218h106l-44 -223h27l-12 -65h-27l-13 -64h-68zM36 129h58l30 150h-7z" />
    <glyph glyph-name="five.den" 
d="M55 -5c-38 0 -71 16 -90 35l14 72c16 -15 41 -38 72 -38c44 0 48 46 48 58c0 28 -17 36 -37 36c-12 0 -22 -4 -30 -7l-42 23l48 176h167l-13 -69h-108l-16 -60c6 1 17 2 25 2c45 0 83 -29 83 -94c0 -80 -52 -134 -121 -134z" />
    <glyph glyph-name="six.den" 
d="M68 -5c-52 0 -88 36 -88 109c0 49 22 174 68 220c22 22 45 31 75 31c28 0 58 -13 73 -24l-18 -69c-12 11 -31 25 -53 25c-12 0 -21 -6 -25 -10c-12 -12 -20 -30 -26 -53c10 4 22 7 36 7c29 0 69 -17 69 -84c0 -80 -43 -152 -111 -152zM71 62c26 0 36 47 36 74
c0 29 -15 31 -24 31c-7 0 -16 -2 -22 -5l-4 -18c-4 -18 -6 -40 -6 -53c0 -19 7 -29 20 -29z" />
    <glyph glyph-name="seven.den" 
d="M-25 0l140 278h-105l14 72h189l-11 -56l-143 -294h-84z" />
    <glyph glyph-name="eight.den" 
d="M62 -5c-48 0 -98 26 -98 91c0 57 35 94 63 106c-13 15 -24 36 -24 59c0 65 47 104 105 104c52 0 94 -32 94 -87c0 -42 -24 -74 -55 -90c16 -14 30 -40 30 -68c0 -68 -48 -115 -115 -115zM65 51c27 0 40 34 40 68c0 25 -13 35 -29 35c-27 0 -40 -34 -40 -68
c0 -25 13 -35 29 -35zM99 215c20 0 34 20 34 53c0 20 -10 32 -27 32c-20 0 -34 -20 -34 -53c0 -20 10 -32 27 -32z" />
    <glyph glyph-name="nine.den" 
d="M49 -5c-28 0 -59 13 -79 28l18 69c17 -15 37 -29 59 -29c12 0 21 6 25 10c12 12 20 28 25 50c-10 -4 -22 -7 -36 -7c-29 0 -69 16 -69 84c0 82 44 155 112 155c52 0 88 -36 88 -109c0 -49 -22 -174 -68 -220c-22 -22 -45 -31 -75 -31zM88 180c7 0 16 2 22 5l5 21
c4 18 6 40 6 53c0 19 -7 29 -20 29c-26 0 -36 -47 -37 -77c0 -29 15 -31 24 -31z" />
    <glyph glyph-name="acute" unicode="&#xb4;" horiz-adv-x="500" 
d="M216 575l110 147l88 -52l-114 -95h-84z" />
    <glyph glyph-name="hungarumlaut" unicode="&#x2dd;" horiz-adv-x="500" 
d="M281 575l66 90l-102 -90h-79l108 147l78 -50l37 50l80 -51l-109 -96h-79z" />
    <glyph glyph-name="caron.alt" horiz-adv-x="500" 
d="M231 560l38 145h82l-1 -2l-65 -143h-54z" />
    <glyph glyph-name="grave" unicode="`" horiz-adv-x="500" 
d="M317 575l-96 95l88 52l87 -147h-79z" />
    <glyph glyph-name="circumflex" unicode="&#x2c6;" horiz-adv-x="500" 
d="M187 575l105 139h88l51 -139h-73l-34 62l-58 -62h-79z" />
    <glyph glyph-name="caron" unicode="&#x2c7;" horiz-adv-x="500" 
d="M265 575l-51 139h73l34 -62l58 62h79l-105 -139h-88z" />
    <glyph glyph-name="breve" unicode="&#x2d8;" horiz-adv-x="500" 
d="M317 569c-62 0 -110 37 -104 119h68c0 -28 13 -47 42 -47s47 19 54 47h72c-16 -82 -70 -119 -132 -119z" />
    <glyph glyph-name="tilde" unicode="&#x2dc;" horiz-adv-x="500" 
d="M399 696l65 -16c-25 -75 -52 -106 -90 -106c-21 0 -38 11 -57 20c-16 8 -29 15 -39 15c-15 0 -24 -9 -37 -39l-65 16c28 79 52 106 90 106c21 0 38 -11 57 -20c15 -8 28 -15 38 -15c15 0 25 9 38 39z" />
    <glyph glyph-name="macron" unicode="&#xaf;" horiz-adv-x="500" 
d="M194 578l15 78h232l-15 -78h-232z" />
    <glyph glyph-name="dieresis" unicode="&#xa8;" horiz-adv-x="500" 
d="M186 578l21 108h106l-21 -108h-106zM328 578l21 108h106l-21 -108h-106z" />
    <glyph glyph-name="dotaccent" unicode="&#x2d9;" horiz-adv-x="500" 
d="M256 578l21 108h108l-21 -108h-108z" />
    <glyph glyph-name="ring" unicode="&#x2da;" horiz-adv-x="500" 
d="M412 669c0 -51 -37 -100 -95 -100c-48 0 -79 36 -79 80c0 51 37 100 95 100c48 0 79 -36 79 -80zM286 652c0 -20 11 -38 34 -38c26 0 44 24 44 52c0 20 -11 38 -34 38c-26 0 -44 -24 -44 -52z" />
    <glyph glyph-name="acute.cap" horiz-adv-x="500" 
d="M246 735l110 127l96 -53l-114 -74h-92z" />
    <glyph glyph-name="hungarumlaut.cap" horiz-adv-x="500" 
d="M309 735l54 64l-93 -64h-86l108 127l82 -51l43 51l86 -53l-108 -74h-86z" />
    <glyph glyph-name="grave.cap" horiz-adv-x="500" 
d="M339 735l-96 74l96 53l87 -127h-87z" />
    <glyph glyph-name="circumflex.cap" horiz-adv-x="500" 
d="M218 735l97 119h96l51 -119h-79l-32 48l-50 -48h-83z" />
    <glyph glyph-name="caron.cap" horiz-adv-x="500" 
d="M485 854l-97 -119h-96l-51 119h79l32 -48l50 48h83z" />
    <glyph glyph-name="breve.cap" horiz-adv-x="500" 
d="M345 729c-65 0 -113 36 -100 111h68c-1 -27 14 -39 39 -39s42 12 51 39h72c-16 -75 -66 -111 -130 -111z" />
    <glyph glyph-name="tilde.cap" horiz-adv-x="500" 
d="M273 730l-68 17c29 80 48 109 88 109c22 0 45 -11 64 -21c15 -7 28 -14 38 -14c13 0 21 9 35 39l68 -17c-29 -80 -49 -109 -89 -109c-21 0 -42 10 -61 19c-15 8 -31 16 -41 16c-13 0 -20 -9 -34 -39z" />
    <glyph glyph-name="macron.cap" horiz-adv-x="500" 
d="M220 738l15 79h242l-15 -79h-242z" />
    <glyph glyph-name="dieresis.cap" horiz-adv-x="500" 
d="M211 738l21 108h108l-21 -108h-108zM361 738l21 108h108l-21 -108h-108z" />
    <glyph glyph-name="dotaccent.cap" horiz-adv-x="500" 
d="M285 738l21 108h110l-21 -108h-110z" />
    <glyph glyph-name="ring.cap" horiz-adv-x="500" 
d="M364 897c46 0 79 -32 79 -73c0 -55 -45 -95 -98 -95c-46 0 -79 32 -79 73c0 55 45 95 98 95zM349 773c24 0 45 19 45 46c0 20 -14 34 -34 34c-24 0 -45 -19 -45 -46c0 -20 14 -34 34 -34z" />
    <glyph glyph-name="commaaccent" unicode="&#x326;" horiz-adv-x="500" 
d="M108 -225l-1 40c45 5 59 18 64 53h-48l17 90h106l-15 -81c-13 -71 -58 -99 -123 -102z" />
    <glyph glyph-name="cedilla" unicode="&#xb8;" horiz-adv-x="500" 
d="M176 -127l-95 39l93 108h79z" />
    <glyph glyph-name="ogonek" unicode="&#x2db;" horiz-adv-x="500" 
d="M248 -79l-13 -68c-16 -3 -33 -4 -44 -4c-52 0 -81 25 -81 64s28 65 64 97h80c-26 -28 -47 -50 -47 -67s15 -24 41 -22z" />
    </font>
</defs>
</svg>
