<?xml version="1.0" standalone="no"?>
<!DOCTYPE svg PUBLIC "-//W3C//DTD SVG 1.1//EN" "http://www.w3.org/Graphics/SVG/1.1/DTD/svg11.dtd" >
<svg xmlns="http://www.w3.org/2000/svg" xmlns:xlink="http://www.w3.org/1999/xlink" version="1.1">
<metadata>
Created by FontForge 20170910 at Fri Sep 12 14:35:13 2008
 By Jimmy Wärting
Copyright (C) 2001, 2008 Hoefler &#38; Frere-Jones. http://www.typography.com
</metadata>
<defs>
<font id="GothamCondensed-Book" horiz-adv-x="240" >
  <font-face 
    font-family="Gotham Condensed Book"
    font-weight="325"
    font-stretch="condensed"
    units-per-em="1000"
    panose-1="0 0 0 0 0 0 0 0 0 0"
    ascent="800"
    descent="-200"
    x-height="528"
    cap-height="700"
    bbox="-133 -201 747 920"
    underline-thickness="50"
    underline-position="-100"
    stemh="60"
    stemv="62"
    unicode-range="U+0020-FB04"
  />
<missing-glyph horiz-adv-x="500" 
d="M0 -200v1000h500v-1000h-500zM71 750l179 -390l179 390h-358zM50 -76l172 376l-172 376v-752zM450 676l-172 -376l172 -376v752zM250 240l-179 -390h358z" />
    <glyph glyph-name="f_f" unicode="ff" horiz-adv-x="440" 
d="M286 0v474h-48v54h48v55c0 44 11 77 32 97c18 19 45 28 79 28c11 0 26 -1 35 -4v-56c-8 2 -20 3 -26 3c-37 0 -57 -23 -57 -74v-49h79v-54h-79v-474h-63zM66 0v474h-48v54h48v55c0 44 11 77 32 97c19 19 46 28 79 28c12 0 26 -1 35 -4v-56c-7 2 -20 3 -26 3
c-37 0 -57 -23 -57 -74v-49h79v-54h-79v-474h-63z" />
    <glyph glyph-name="fi" unicode="fi" horiz-adv-x="388" 
d="M66 0v474h-48v54h48v55c0 44 11 77 32 97c19 19 46 28 79 28c12 0 26 -1 35 -4v-56c-7 2 -20 3 -26 3c-37 0 -57 -23 -57 -74v-49h79v-54h-79v-474h-63zM273 0v528h63v-528h-63zM271 624v82h66v-82h-66z" />
    <glyph glyph-name="fl" unicode="fl" horiz-adv-x="388" 
d="M66 0v474h-48v54h48v55c0 44 11 77 32 97c19 19 46 28 79 28c12 0 26 -1 35 -4v-56c-7 2 -20 3 -26 3c-37 0 -57 -23 -57 -74v-49h79v-54h-79v-474h-63zM273 0v706h63v-706h-63z" />
    <glyph glyph-name="f_f_i" unicode="ffi" horiz-adv-x="608" 
d="M286 0v474h-48v54h48v55c0 44 11 77 32 97c18 19 45 28 79 28c11 0 26 -1 35 -4v-56c-8 2 -20 3 -26 3c-37 0 -57 -23 -57 -74v-49h79v-54h-79v-474h-63zM66 0v474h-48v54h48v55c0 44 11 77 32 97c19 19 46 28 79 28c12 0 26 -1 35 -4v-56c-7 2 -20 3 -26 3
c-37 0 -57 -23 -57 -74v-49h79v-54h-79v-474h-63zM493 0v528h62v-528h-62zM491 624v82h66v-82h-66z" />
    <glyph glyph-name="f_f_l" unicode="ffl" horiz-adv-x="608" 
d="M286 0v474h-48v54h48v55c0 44 11 77 32 97c18 19 45 28 79 28c11 0 26 -1 35 -4v-56c-8 2 -20 3 -26 3c-37 0 -57 -23 -57 -74v-49h79v-54h-79v-474h-63zM66 0v474h-48v54h48v55c0 44 11 77 32 97c19 19 46 28 79 28c12 0 26 -1 35 -4v-56c-7 2 -20 3 -26 3
c-37 0 -57 -23 -57 -74v-49h79v-54h-79v-474h-63zM493 0v706h62v-706h-62z" />
    <glyph glyph-name=".notdef" horiz-adv-x="500" 
d="M0 -200v1000h500v-1000h-500zM71 750l179 -390l179 390h-358zM50 -76l172 376l-172 376v-752zM450 676l-172 -376l172 -376v752zM250 240l-179 -390h358z" />
    <glyph glyph-name="A" unicode="A" horiz-adv-x="407" 
d="M21 0l147 703h70l148 -703h-66l-37 181h-162l-36 -181h-64zM131 240h142l-71 352z" />
    <glyph glyph-name="B" unicode="B" horiz-adv-x="378" 
d="M51 0v700h93c62 0 116 -19 152 -55c29 -29 46 -71 46 -121v-3c0 -99 -56 -145 -120 -166c76 -21 129 -72 129 -167v-3c0 -117 -88 -185 -219 -185h-81zM278 515v2c0 78 -52 123 -130 123h-33v-258h23c90 0 140 49 140 133zM286 191c0 85 -53 133 -145 133h-26v-264h21
c92 0 150 44 150 128v3z" />
    <glyph glyph-name="C" unicode="C" horiz-adv-x="331" 
d="M222 -6c-106 0 -189 110 -189 346v20c0 236 89 346 192 346c32 0 49 -6 72 -17v-68c-26 15 -45 22 -68 22c-72 0 -130 -90 -130 -283v-20c0 -196 58 -283 130 -283c24 0 45 7 70 23v-65c-22 -14 -46 -21 -77 -21z" />
    <glyph glyph-name="D" unicode="D" horiz-adv-x="405" 
d="M51 0v700h91c137 0 230 -116 230 -340v-20c0 -224 -93 -340 -230 -340h-91zM145 641h-29v-582h30c93 0 160 89 160 281v20c0 192 -70 281 -161 281z" />
    <glyph glyph-name="E" unicode="E" horiz-adv-x="326" 
d="M51 0v700h246v-61h-181v-256h164v-61h-164v-261h184v-61h-249z" />
    <glyph glyph-name="F" unicode="F" horiz-adv-x="307" 
d="M51 0v700h236v-61h-171v-264h154v-60h-154v-315h-65z" />
    <glyph glyph-name="G" unicode="G" horiz-adv-x="396" 
d="M247 -8c-117 0 -214 113 -214 348v20c0 231 99 347 218 347c37 0 63 -8 88 -21v-70c-30 18 -57 29 -87 29c-82 0 -153 -94 -153 -284v-22c0 -200 69 -287 152 -287c15 0 24 1 38 7v251h-93v59h153v-351c-38 -19 -64 -26 -102 -26z" />
    <glyph glyph-name="H" unicode="H" horiz-adv-x="418" 
d="M51 0v700h65v-318h186v318h65v-700h-65v322h-186v-322h-65z" />
    <glyph glyph-name="I" unicode="I" horiz-adv-x="178" 
d="M56 0v700h65v-700h-65z" />
    <glyph glyph-name="J" unicode="J" horiz-adv-x="252" 
d="M77 -5c-22 0 -46 5 -58 8v63c13 -4 36 -9 52 -9c40 0 69 24 69 80v563h65v-566c0 -47 -14 -82 -38 -106c-22 -22 -53 -33 -90 -33z" />
    <glyph glyph-name="K" unicode="K" horiz-adv-x="379" 
d="M51 0v700h65v-371l169 371h72l-149 -311l164 -389h-70l-136 318l-50 -105v-213h-65z" />
    <glyph glyph-name="L" unicode="L" horiz-adv-x="288" 
d="M51 0v700h65v-639h163v-61h-228z" />
    <glyph glyph-name="M" unicode="M" horiz-adv-x="480" 
d="M51 0v700h72l117 -357l118 357h72v-700h-63v555l-125 -369h-4l-125 369v-555h-62z" />
    <glyph glyph-name="N" unicode="N" horiz-adv-x="422" 
d="M51 0v700h65l193 -527v527h63v-700h-61l-198 542v-542h-62z" />
    <glyph glyph-name="O" unicode="O" horiz-adv-x="410" 
d="M205 -9c-99 0 -172 117 -172 348v22c0 231 73 348 172 348s171 -117 171 -348v-22c0 -231 -72 -348 -171 -348zM205 51c60 0 106 91 106 288v22c0 197 -46 288 -106 288s-106 -91 -106 -288v-22c0 -197 46 -288 106 -288z" />
    <glyph glyph-name="P" unicode="P" horiz-adv-x="370" 
d="M51 0v700h93c126 0 207 -81 207 -223v-2c0 -140 -77 -225 -207 -227h-28v-248h-65zM116 307h31c88 1 139 60 139 166v2c0 108 -54 165 -139 165h-31v-333z" />
    <glyph glyph-name="Q" unicode="Q" horiz-adv-x="412" 
d="M390 18l-39 -37l-50 60c-27 -33 -60 -50 -95 -50c-101 0 -173 117 -173 348v22c0 231 73 348 172 348s171 -117 171 -348v-22c0 -111 -18 -196 -47 -254zM207 50c22 0 42 10 58 33l-69 79l38 36l54 -65c15 46 23 114 23 206v22c0 197 -46 288 -106 288
s-106 -91 -106 -288v-22c0 -202 46 -289 108 -289z" />
    <glyph glyph-name="Q.alt" horiz-adv-x="410" 
d="M321 -93l-66 94c-16 -7 -33 -10 -50 -10c-99 0 -172 117 -172 348v22c0 231 73 348 172 348s171 -117 171 -348v-22c0 -145 -28 -245 -74 -299l90 -133h-71zM205 51c60 0 106 91 106 288v22c0 197 -46 288 -106 288s-106 -91 -106 -288v-22c0 -197 46 -288 106 -288z" />
    <glyph glyph-name="R" unicode="R" horiz-adv-x="387" 
d="M51 0v700h97c62 0 114 -19 149 -55c36 -35 56 -88 56 -156v-3c0 -96 -42 -163 -110 -193l123 -293h-73l-114 274c-9 -2 -19 -2 -29 -2h-34v-272h-65zM116 330h33c84 0 139 53 139 155v3c0 106 -58 152 -142 152h-30v-310z" />
    <glyph glyph-name="S" unicode="S" horiz-adv-x="331" 
d="M152 -7c-43 0 -81 13 -122 35v70c47 -29 84 -43 119 -43c53 0 89 34 89 92v1c0 49 -18 85 -90 178c-91 117 -117 158 -117 226v2c0 90 65 153 147 153c42 0 74 -11 106 -28v-71c-38 25 -70 37 -103 37c-49 0 -84 -35 -84 -88v-2c0 -45 18 -78 90 -169
c88 -108 116 -161 116 -236v-1c0 -95 -66 -156 -151 -156z" />
    <glyph glyph-name="T" unicode="T" horiz-adv-x="304" 
d="M119 0v639h-106v61h278v-61h-107v-639h-65z" />
    <glyph glyph-name="U" unicode="U" horiz-adv-x="409" 
d="M204 -9c-95 0 -157 71 -157 195v514h65v-517c0 -87 36 -132 92 -132c57 0 93 45 93 132v517h65v-514c0 -124 -63 -195 -158 -195z" />
    <glyph glyph-name="V" unicode="V" horiz-adv-x="388" 
d="M161 -4l-140 704h67l107 -577l108 577h65l-141 -704h-66z" />
    <glyph glyph-name="W" unicode="W" horiz-adv-x="606" 
d="M140 -4l-117 704h68l83 -562l100 562h60l99 -562l84 562h66l-117 -704h-65l-98 558l-99 -558h-64z" />
    <glyph glyph-name="X" unicode="X" horiz-adv-x="366" 
d="M271 700h66l-116 -332l129 -368h-68l-100 299l-99 -299h-66l127 367l-117 333h68l87 -265z" />
    <glyph glyph-name="Y" unicode="Y" horiz-adv-x="360" 
d="M148 0v295l-142 405h69l106 -321l107 321h66l-141 -405v-295h-65z" />
    <glyph glyph-name="Z" unicode="Z" horiz-adv-x="337" 
d="M28 0v45l213 597h-203v58h273v-44l-213 -597h213v-59h-283z" />
    <glyph glyph-name="a" unicode="a" horiz-adv-x="346" 
d="M139 -9c-68 0 -115 67 -115 161v10c0 104 50 169 133 169c33 0 60 -9 84 -20v57c0 68 -32 107 -94 107c-35 0 -65 -8 -95 -24v60c31 15 66 23 102 23c46 0 81 -13 108 -39c25 -25 41 -67 41 -121v-374h-63v71c-21 -50 -53 -80 -101 -80zM157 45c50 0 84 53 84 113v101
c-23 11 -48 19 -73 19c-54 0 -83 -45 -83 -112v-10c0 -66 26 -111 72 -111z" />
    <glyph glyph-name="a.alt" horiz-adv-x="378" 
d="M162 -9c-69 0 -130 84 -130 260v26c0 174 61 260 130 260c53 0 86 -48 106 -100v91h63v-528h-63v92c-20 -53 -53 -101 -106 -101zM179 49c47 0 91 72 91 201v28c0 129 -44 201 -91 201c-48 0 -85 -73 -85 -204v-22c0 -131 37 -204 85 -204z" />
    <glyph glyph-name="b" unicode="b" horiz-adv-x="378" 
d="M216 -9c-53 0 -86 48 -106 100v-91h-62v706h62v-270c20 53 53 101 106 101c70 0 131 -84 131 -260v-26c0 -174 -61 -260 -131 -260zM199 49c48 0 85 73 85 204v22c0 131 -37 204 -85 204c-47 0 -91 -72 -91 -201v-28c0 -129 44 -201 91 -201z" />
    <glyph glyph-name="c" unicode="c" horiz-adv-x="282" 
d="M191 -8c-87 0 -161 83 -161 263v16c0 179 77 264 162 264c28 0 49 -6 66 -17v-66c-19 14 -39 23 -63 23c-49 0 -102 -61 -102 -202v-20c0 -144 51 -201 106 -201c20 0 41 10 59 24v-63c-19 -13 -39 -21 -67 -21z" />
    <glyph glyph-name="d" unicode="d" horiz-adv-x="378" 
d="M162 -9c-69 0 -130 84 -130 260v26c0 174 61 260 130 260c53 0 86 -48 106 -100v269h63v-706h-63v92c-20 -53 -53 -101 -106 -101zM179 49c47 0 91 72 91 201v28c0 129 -44 201 -91 201c-48 0 -85 -73 -85 -204v-22c0 -131 37 -204 85 -204z" />
    <glyph glyph-name="e" unicode="e" horiz-adv-x="349" 
d="M200 -8c-91 0 -171 88 -171 261v14c0 179 69 269 149 269c82 0 141 -93 141 -260v-40h-228c4 -126 55 -185 118 -185c33 0 57 10 92 33l6 -60c-38 -23 -65 -32 -107 -32zM91 288h168c0 113 -33 191 -81 191s-84 -63 -87 -191z" />
    <glyph glyph-name="f" unicode="f" horiz-adv-x="218" 
d="M66 0v474h-48v54h48v55c0 44 11 77 32 97c19 19 46 28 79 28c12 0 26 -1 35 -4v-56c-7 2 -20 3 -26 3c-37 0 -57 -23 -57 -74v-49h79v-54h-79v-474h-63z" />
    <glyph glyph-name="g" unicode="g" horiz-adv-x="378" 
d="M169 -132c-40 0 -79 7 -115 20v61c36 -14 81 -24 112 -24c66 0 102 30 102 100v104c-20 -52 -53 -100 -106 -100c-68 0 -130 81 -130 250v8c0 168 62 250 130 250c53 0 86 -48 106 -100v91h63v-504c0 -52 -14 -89 -40 -115c-27 -28 -69 -41 -122 -41zM179 87
c45 0 91 69 91 192v7c0 124 -46 193 -91 193c-46 0 -85 -68 -85 -193v-6c0 -126 39 -193 85 -193z" />
    <glyph glyph-name="h" unicode="h" horiz-adv-x="374" 
d="M48 0v706h62v-252c19 44 50 83 105 83c70 0 115 -59 115 -159v-378h-62v367c0 74 -27 115 -74 115s-84 -48 -84 -121v-361h-62z" />
    <glyph glyph-name="i" unicode="i" horiz-adv-x="167" 
d="M51 624v82h66v-82h-66zM52 0v528h63v-528h-63z" />
    <glyph glyph-name="j" unicode="j" horiz-adv-x="173" 
d="M56 624v82h66v-82h-66zM14 -132c-14 0 -24 1 -34 4v54c8 -2 17 -3 21 -3c45 0 57 32 57 80v525h62v-539c0 -67 -28 -121 -106 -121z" />
    <glyph glyph-name="k" unicode="k" horiz-adv-x="336" 
d="M48 0v706h62v-447l131 269h68l-110 -213l117 -315h-68l-91 253l-47 -90v-163h-62z" />
    <glyph glyph-name="l" unicode="l" horiz-adv-x="167" 
d="M52 0v706h63v-706h-63z" />
    <glyph glyph-name="m" unicode="m" horiz-adv-x="585" 
d="M48 0v528h62v-73c20 44 50 82 102 82c54 0 83 -37 100 -82c19 39 52 82 111 82c67 0 117 -55 117 -159v-378h-62v369c0 74 -27 113 -71 113c-46 0 -82 -47 -82 -119v-363h-62v369c0 74 -27 113 -71 113c-46 0 -82 -47 -82 -119v-363h-62z" />
    <glyph glyph-name="n" unicode="n" horiz-adv-x="374" 
d="M48 0v528h62v-74c19 44 50 83 105 83c70 0 115 -59 115 -159v-378h-62v367c0 74 -27 115 -74 115s-84 -48 -84 -121v-361h-62z" />
    <glyph glyph-name="o" unicode="o" horiz-adv-x="366" 
d="M183 -9c-83 0 -153 98 -153 265v15c0 167 70 265 154 265c83 0 153 -98 153 -265v-15c0 -167 -70 -265 -154 -265zM183 48c51 0 91 79 91 208v16c0 129 -40 207 -91 207s-91 -78 -91 -207v-16c0 -129 40 -208 91 -208z" />
    <glyph glyph-name="p" unicode="p" horiz-adv-x="378" 
d="M48 -130v658h62v-92c20 53 53 101 106 101c70 0 131 -84 131 -260v-26c0 -174 -61 -260 -131 -260c-53 0 -86 48 -106 100v-221h-62zM199 49c48 0 85 73 85 204v22c0 131 -37 204 -85 204c-47 0 -91 -72 -91 -201v-28c0 -129 44 -201 91 -201z" />
    <glyph glyph-name="q" unicode="q" horiz-adv-x="378" 
d="M268 -130v222c-20 -53 -53 -101 -106 -101c-69 0 -130 84 -130 260v26c0 174 61 260 130 260c53 0 86 -48 106 -100v91h63v-658h-63zM179 49c47 0 91 72 91 201v28c0 129 -44 201 -91 201c-48 0 -85 -73 -85 -204v-22c0 -131 37 -204 85 -204z" />
    <glyph glyph-name="r" unicode="r" horiz-adv-x="238" 
d="M48 0v528h62v-74c19 47 56 84 113 80v-71h-2c-63 0 -111 -41 -111 -129v-334h-62z" />
    <glyph glyph-name="s" unicode="s" horiz-adv-x="280" 
d="M129 -7c-39 0 -72 9 -106 25v63c37 -19 73 -31 105 -31c40 0 71 26 71 69v1c0 33 -18 65 -77 121c-72 68 -100 111 -100 168v2c0 78 58 124 128 124c34 0 59 -5 87 -17v-63c-29 14 -57 22 -87 22c-39 0 -67 -24 -67 -64v-1c0 -33 17 -58 78 -118c72 -71 99 -114 99 -171
v-2c0 -79 -61 -128 -131 -128z" />
    <glyph glyph-name="t" unicode="t" horiz-adv-x="230" 
d="M161 -5c-57 0 -98 23 -98 94v385h-45v54h45v145h63v-145h79v-54h-79v-370c0 -40 18 -51 49 -51c9 0 22 2 31 5v-54c-12 -5 -31 -9 -45 -9z" />
    <glyph glyph-name="u" unicode="u" horiz-adv-x="374" 
d="M159 -9c-70 0 -115 59 -115 159v378h62v-367c0 -74 27 -115 74 -115s84 48 84 120v362h62v-528h-62v73c-19 -43 -50 -82 -105 -82z" />
    <glyph glyph-name="v" unicode="v" horiz-adv-x="352" 
d="M147 -3l-125 531h63l91 -425l92 425h61l-123 -531h-59z" />
    <glyph glyph-name="w" unicode="w" horiz-adv-x="531" 
d="M131 -3l-105 531h65l72 -416l78 416h52l76 -416l74 416h62l-104 -531h-58l-78 404l-76 -404h-58z" />
    <glyph glyph-name="x" unicode="x" horiz-adv-x="342" 
d="M93 528l78 -204l78 204h63l-105 -254l112 -274h-65l-84 222l-84 -222h-63l110 272l-104 256h64z" />
    <glyph glyph-name="y" unicode="y" horiz-adv-x="350" 
d="M175 116l91 412h62l-156 -658h-61l34 139l-123 519h63z" />
    <glyph glyph-name="z" unicode="z" horiz-adv-x="290" 
d="M22 0v41l178 433h-169v54h236v-41l-177 -433h174v-54h-242z" />
    <glyph glyph-name="Aacute" unicode="&#xc1;" horiz-adv-x="407" 
d="M21 0l147 703h70l148 -703h-66l-37 181h-162l-36 -181h-64zM131 240h142l-71 352zM177 744l69 110l62 -30l-84 -80h-47z" />
    <glyph glyph-name="aacute" unicode="&#xe1;" horiz-adv-x="346" 
d="M139 -9c-68 0 -115 67 -115 161v10c0 104 50 169 133 169c33 0 60 -9 84 -20v57c0 68 -32 107 -94 107c-35 0 -65 -8 -95 -24v60c31 15 66 23 102 23c46 0 81 -13 108 -39c25 -25 41 -67 41 -121v-374h-63v71c-21 -50 -53 -80 -101 -80zM157 45c50 0 84 53 84 113v101
c-23 11 -48 19 -73 19c-54 0 -83 -45 -83 -112v-10c0 -66 26 -111 72 -111zM146 577l70 131l60 -32l-87 -99h-43z" />
    <glyph glyph-name="aacute.alt" horiz-adv-x="378" 
d="M169 577l70 131l60 -32l-87 -99h-43zM162 -9c-69 0 -130 84 -130 260v26c0 174 61 260 130 260c53 0 86 -48 106 -100v91h63v-528h-63v92c-20 -53 -53 -101 -106 -101zM179 49c47 0 91 72 91 201v28c0 129 -44 201 -91 201c-48 0 -85 -73 -85 -204v-22
c0 -131 37 -204 85 -204z" />
    <glyph glyph-name="Abreve" unicode="&#x102;" horiz-adv-x="407" 
d="M21 0l147 703h70l148 -703h-66l-37 181h-162l-36 -181h-64zM131 240h142l-71 352zM204 744c-54 0 -94 29 -100 88h46c7 -27 24 -39 54 -39c29 0 47 12 54 39h46c-6 -59 -46 -88 -100 -88z" />
    <glyph glyph-name="abreve" unicode="&#x103;" horiz-adv-x="346" 
d="M139 -9c-68 0 -115 67 -115 161v10c0 104 50 169 133 169c33 0 60 -9 84 -20v57c0 68 -32 107 -94 107c-35 0 -65 -8 -95 -24v60c31 15 66 23 102 23c46 0 81 -13 108 -39c25 -25 41 -67 41 -121v-374h-63v71c-21 -50 -53 -80 -101 -80zM157 45c50 0 84 53 84 113v101
c-23 11 -48 19 -73 19c-54 0 -83 -45 -83 -112v-10c0 -66 26 -111 72 -111zM172 577c-53 0 -94 31 -100 101h45c7 -35 24 -53 55 -53s48 18 55 53h45c-6 -70 -47 -101 -100 -101z" />
    <glyph glyph-name="abreve.alt" horiz-adv-x="378" 
d="M162 -9c-69 0 -130 84 -130 260v26c0 174 61 260 130 260c53 0 86 -48 106 -100v91h63v-528h-63v92c-20 -53 -53 -101 -106 -101zM179 49c47 0 91 72 91 201v28c0 129 -44 201 -91 201c-48 0 -85 -73 -85 -204v-22c0 -131 37 -204 85 -204zM195 577
c-53 0 -94 31 -100 101h45c7 -35 24 -53 55 -53s48 18 55 53h45c-6 -70 -47 -101 -100 -101z" />
    <glyph glyph-name="Acircumflex" unicode="&#xc2;" horiz-adv-x="407" 
d="M21 0l147 703h70l148 -703h-66l-37 181h-162l-36 -181h-64zM131 240h142l-71 352zM104 743l72 103h56l72 -103h-53l-48 56l-48 -56h-51z" />
    <glyph glyph-name="acircumflex" unicode="&#xe2;" horiz-adv-x="346" 
d="M139 -9c-68 0 -115 67 -115 161v10c0 104 50 169 133 169c33 0 60 -9 84 -20v57c0 68 -32 107 -94 107c-35 0 -65 -8 -95 -24v60c31 15 66 23 102 23c46 0 81 -13 108 -39c25 -25 41 -67 41 -121v-374h-63v71c-21 -50 -53 -80 -101 -80zM157 45c50 0 84 53 84 113v101
c-23 11 -48 19 -73 19c-54 0 -83 -45 -83 -112v-10c0 -66 26 -111 72 -111zM78 580l70 127h48l70 -127h-48l-47 72l-47 -72h-46z" />
    <glyph glyph-name="acircumflex.alt" horiz-adv-x="378" 
d="M101 580l70 127h48l70 -127h-48l-47 72l-47 -72h-46zM162 -9c-69 0 -130 84 -130 260v26c0 174 61 260 130 260c53 0 86 -48 106 -100v91h63v-528h-63v92c-20 -53 -53 -101 -106 -101zM179 49c47 0 91 72 91 201v28c0 129 -44 201 -91 201c-48 0 -85 -73 -85 -204v-22
c0 -131 37 -204 85 -204z" />
    <glyph glyph-name="Adieresis" unicode="&#xc4;" horiz-adv-x="407" 
d="M21 0l147 703h70l148 -703h-66l-37 181h-162l-36 -181h-64zM131 240h142l-71 352zM229 752v75h66v-75h-66zM113 752v75h66v-75h-66z" />
    <glyph glyph-name="adieresis" unicode="&#xe4;" horiz-adv-x="346" 
d="M139 -9c-68 0 -115 67 -115 161v10c0 104 50 169 133 169c33 0 60 -9 84 -20v57c0 68 -32 107 -94 107c-35 0 -65 -8 -95 -24v60c31 15 66 23 102 23c46 0 81 -13 108 -39c25 -25 41 -67 41 -121v-374h-63v71c-21 -50 -53 -80 -101 -80zM157 45c50 0 84 53 84 113v101
c-23 11 -48 19 -73 19c-54 0 -83 -45 -83 -112v-10c0 -66 26 -111 72 -111zM197 585v78h62v-78h-62zM85 585v78h62v-78h-62z" />
    <glyph glyph-name="adieresis.alt" horiz-adv-x="378" 
d="M220 585v78h62v-78h-62zM108 585v78h62v-78h-62zM162 -9c-69 0 -130 84 -130 260v26c0 174 61 260 130 260c53 0 86 -48 106 -100v91h63v-528h-63v92c-20 -53 -53 -101 -106 -101zM179 49c47 0 91 72 91 201v28c0 129 -44 201 -91 201c-48 0 -85 -73 -85 -204v-22
c0 -131 37 -204 85 -204z" />
    <glyph glyph-name="AE" unicode="&#xc6;" horiz-adv-x="522" 
d="M2 0l194 700h296v-61h-181v-256h164v-61h-164v-261h184v-61h-249v181h-132l-49 -181h-63zM129 240h117v397h-10z" />
    <glyph glyph-name="ae" unicode="&#xe6;" horiz-adv-x="555" 
d="M143 -9c-71 0 -119 67 -119 161v10c0 104 50 169 133 169c33 0 60 -9 84 -20v57c0 68 -32 107 -94 107c-35 0 -64 -8 -95 -24v60c31 15 63 23 103 23c63 0 105 -29 124 -81c24 54 62 83 105 83c82 0 141 -93 141 -260v-40h-227c3 -126 55 -185 117 -185c33 0 58 10 92 33
l6 -60c-38 -23 -64 -32 -106 -32c-61 0 -113 39 -142 114c-18 -61 -58 -115 -122 -115zM298 288h168c0 113 -33 191 -82 191c-46 0 -83 -63 -86 -191zM158 45c46 0 80 54 93 115c-7 33 -9 78 -8 100c-26 11 -49 18 -75 18c-54 0 -83 -45 -83 -112v-10c0 -66 26 -111 73 -111
z" />
    <glyph glyph-name="AEacute" unicode="&#x1fc;" horiz-adv-x="522" 
d="M262 739l69 110l62 -30l-84 -80h-47zM2 0l194 700h296v-61h-181v-256h164v-61h-164v-261h184v-61h-249v181h-132l-49 -181h-63zM129 240h117v397h-10z" />
    <glyph glyph-name="aeacute" unicode="&#x1fd;" horiz-adv-x="555" 
d="M248 576l70 131l60 -32l-87 -99h-43zM143 -9c-71 0 -119 67 -119 161v10c0 104 50 169 133 169c33 0 60 -9 84 -20v57c0 68 -32 107 -94 107c-35 0 -64 -8 -95 -24v60c31 15 63 23 103 23c63 0 105 -29 124 -81c24 54 62 83 105 83c82 0 141 -93 141 -260v-40h-227
c3 -126 55 -185 117 -185c33 0 58 10 92 33l6 -60c-38 -23 -64 -32 -106 -32c-61 0 -113 39 -142 114c-18 -61 -58 -115 -122 -115zM298 288h168c0 113 -33 191 -82 191c-46 0 -83 -63 -86 -191zM158 45c46 0 80 54 93 115c-7 33 -9 78 -8 100c-26 11 -49 18 -75 18
c-54 0 -83 -45 -83 -112v-10c0 -66 26 -111 73 -111z" />
    <glyph glyph-name="Agrave" unicode="&#xc0;" horiz-adv-x="407" 
d="M21 0l147 703h70l148 -703h-66l-37 181h-162l-36 -181h-64zM131 240h142l-71 352zM231 744h-47l-84 80l62 30z" />
    <glyph glyph-name="agrave" unicode="&#xe0;" horiz-adv-x="346" 
d="M139 -9c-68 0 -115 67 -115 161v10c0 104 50 169 133 169c33 0 60 -9 84 -20v57c0 68 -32 107 -94 107c-35 0 -65 -8 -95 -24v60c31 15 66 23 102 23c46 0 81 -13 108 -39c25 -25 41 -67 41 -121v-374h-63v71c-21 -50 -53 -80 -101 -80zM157 45c50 0 84 53 84 113v101
c-23 11 -48 19 -73 19c-54 0 -83 -45 -83 -112v-10c0 -66 26 -111 72 -111zM155 577l-87 99l60 32l69 -131h-42z" />
    <glyph glyph-name="agrave.alt" horiz-adv-x="378" 
d="M162 -9c-69 0 -130 84 -130 260v26c0 174 61 260 130 260c53 0 86 -48 106 -100v91h63v-528h-63v92c-20 -53 -53 -101 -106 -101zM179 49c47 0 91 72 91 201v28c0 129 -44 201 -91 201c-48 0 -85 -73 -85 -204v-22c0 -131 37 -204 85 -204zM179 577l-87 99l60 32l69 -131
h-42z" />
    <glyph glyph-name="Amacron" unicode="&#x100;" horiz-adv-x="407" 
d="M21 0l147 703h70l148 -703h-66l-37 181h-162l-36 -181h-64zM131 240h142l-71 352zM101 753v51h206v-51h-206z" />
    <glyph glyph-name="amacron" unicode="&#x101;" horiz-adv-x="346" 
d="M139 -9c-68 0 -115 67 -115 161v10c0 104 50 169 133 169c33 0 60 -9 84 -20v57c0 68 -32 107 -94 107c-35 0 -65 -8 -95 -24v60c31 15 66 23 102 23c46 0 81 -13 108 -39c25 -25 41 -67 41 -121v-374h-63v71c-21 -50 -53 -80 -101 -80zM157 45c50 0 84 53 84 113v101
c-23 11 -48 19 -73 19c-54 0 -83 -45 -83 -112v-10c0 -66 26 -111 72 -111zM75 586v50h194v-50h-194z" />
    <glyph glyph-name="amacron.alt" horiz-adv-x="378" 
d="M162 -9c-69 0 -130 84 -130 260v26c0 174 61 260 130 260c53 0 86 -48 106 -100v91h63v-528h-63v92c-20 -53 -53 -101 -106 -101zM179 49c47 0 91 72 91 201v28c0 129 -44 201 -91 201c-48 0 -85 -73 -85 -204v-22c0 -131 37 -204 85 -204zM98 586v50h194v-50h-194z" />
    <glyph glyph-name="Aogonek" unicode="&#x104;" horiz-adv-x="407" 
d="M391 -85v-42c-12 -1 -19 -1 -26 -1c-49 0 -71 21 -71 53c0 26 13 49 38 75h-12l-37 181h-162l-36 -181h-64l147 703h70l148 -703h-11c-18 -26 -26 -43 -26 -58c0 -20 14 -27 42 -27zM131 240h142l-71 352z" />
    <glyph glyph-name="aogonek" unicode="&#x105;" horiz-adv-x="346" 
d="M308 -85v-42c-12 -1 -19 -1 -26 -1c-49 0 -71 21 -71 53c0 26 13 49 38 75h-9v71c-21 -50 -53 -80 -101 -80c-68 0 -115 67 -115 161v10c0 104 50 169 133 169c33 0 60 -9 84 -20v57c0 68 -32 107 -94 107c-35 0 -65 -8 -95 -24v60c31 15 66 23 102 23
c46 0 81 -13 108 -39c25 -25 41 -67 41 -121v-374h-11c-18 -26 -26 -43 -26 -58c0 -20 14 -27 42 -27zM157 45c50 0 84 53 84 113v101c-23 11 -48 19 -73 19c-54 0 -83 -45 -83 -112v-10c0 -66 26 -111 72 -111z" />
    <glyph glyph-name="aogonek.alt" horiz-adv-x="378" 
d="M337 -85v-42c-12 -1 -19 -1 -26 -1c-49 0 -71 21 -71 53c0 26 13 49 38 75h-10v92c-20 -53 -53 -101 -106 -101c-69 0 -130 84 -130 260v26c0 174 61 260 130 260c53 0 86 -48 106 -100v91h63v-528h-10c-18 -26 -26 -43 -26 -58c0 -20 14 -27 42 -27zM179 49
c47 0 91 72 91 201v28c0 129 -44 201 -91 201c-48 0 -85 -73 -85 -204v-22c0 -131 37 -204 85 -204z" />
    <glyph glyph-name="Aring" unicode="&#xc5;" horiz-adv-x="407" 
d="M21 0l139 667c-23 13 -38 38 -38 67c0 43 37 76 82 76s80 -32 80 -76c0 -29 -16 -53 -39 -66l141 -668h-66l-37 181h-162l-36 -181h-64zM131 240h142l-71 352zM203 689c26 0 45 19 45 45s-19 45 -45 45s-46 -19 -46 -45s20 -45 46 -45z" />
    <glyph glyph-name="aring" unicode="&#xe5;" horiz-adv-x="346" 
d="M139 -9c-68 0 -115 67 -115 161v10c0 104 50 169 133 169c33 0 60 -9 84 -20v57c0 68 -32 107 -94 107c-35 0 -65 -8 -95 -24v60c31 15 66 23 102 23c46 0 81 -13 108 -39c25 -25 41 -67 41 -121v-374h-63v71c-21 -50 -53 -80 -101 -80zM157 45c50 0 84 53 84 113v101
c-23 11 -48 19 -73 19c-54 0 -83 -45 -83 -112v-10c0 -66 26 -111 72 -111zM171 576c-46 0 -80 35 -80 82c0 46 36 82 82 82s80 -36 80 -82s-36 -82 -82 -82zM172 607c27 0 47 22 47 51s-20 51 -47 51s-47 -22 -47 -51s20 -51 47 -51z" />
    <glyph glyph-name="aring.alt" horiz-adv-x="378" 
d="M194 576c-46 0 -80 35 -80 82c0 46 36 82 82 82s80 -36 80 -82s-36 -82 -82 -82zM195 607c27 0 47 22 47 51s-20 51 -47 51s-47 -22 -47 -51s20 -51 47 -51zM162 -9c-69 0 -130 84 -130 260v26c0 174 61 260 130 260c53 0 86 -48 106 -100v91h63v-528h-63v92
c-20 -53 -53 -101 -106 -101zM179 49c47 0 91 72 91 201v28c0 129 -44 201 -91 201c-48 0 -85 -73 -85 -204v-22c0 -131 37 -204 85 -204z" />
    <glyph glyph-name="aring.alt2" horiz-adv-x="346" 
d="M139 -9c-67 0 -115 67 -115 161v10c0 104 50 169 133 169c33 0 60 -9 84 -20v57c0 68 -32 107 -94 107c-35 0 -64 -8 -95 -24v60c19 8 38 15 59 19c-13 14 -21 33 -21 55c0 46 36 82 82 82s81 -35 81 -82c0 -27 -13 -49 -32 -63c15 -7 29 -16 41 -27
c25 -25 41 -67 41 -121v-374h-63v71c-21 -50 -53 -80 -101 -80zM157 45c50 0 84 53 84 113v101c-23 11 -48 19 -73 19c-54 0 -83 -45 -83 -112v-10c0 -66 26 -111 72 -111zM125 585c0 -29 19 -51 47 -51c27 0 47 22 47 51s-20 51 -47 51c-28 0 -47 -22 -47 -51z" />
    <glyph glyph-name="Aringacute" unicode="&#x1fa;" horiz-adv-x="407" 
d="M21 0l139 667c-23 13 -38 38 -38 67c0 43 37 76 82 76s80 -32 80 -76c0 -29 -16 -53 -39 -66l141 -668h-66l-37 181h-162l-36 -181h-64zM131 240h142l-71 352zM203 689c26 0 45 19 45 45s-19 45 -45 45s-46 -19 -46 -45s20 -45 46 -45zM178 830l68 90l60 -28l-78 -62h-50
z" />
    <glyph glyph-name="aringacute" unicode="&#x1fb;" horiz-adv-x="346" 
d="M146 768l69 103l57 -29l-81 -74h-45zM139 -9c-68 0 -115 67 -115 161v10c0 104 50 169 133 169c33 0 60 -9 84 -20v57c0 68 -32 107 -94 107c-35 0 -65 -8 -95 -24v60c31 15 66 23 102 23c46 0 81 -13 108 -39c25 -25 41 -67 41 -121v-374h-63v71
c-21 -50 -53 -80 -101 -80zM157 45c50 0 84 53 84 113v101c-23 11 -48 19 -73 19c-54 0 -83 -45 -83 -112v-10c0 -66 26 -111 72 -111zM171 576c-46 0 -80 35 -80 82c0 46 36 82 82 82s80 -36 80 -82s-36 -82 -82 -82zM172 607c27 0 47 22 47 51s-20 51 -47 51
s-47 -22 -47 -51s20 -51 47 -51z" />
    <glyph glyph-name="aringacute.alt" horiz-adv-x="378" 
d="M169 768l70 103l56 -29l-81 -74h-45zM194 576c-46 0 -80 35 -80 82c0 46 36 82 82 82s80 -36 80 -82s-36 -82 -82 -82zM195 607c27 0 47 22 47 51s-20 51 -47 51s-47 -22 -47 -51s20 -51 47 -51zM162 -9c-69 0 -130 84 -130 260v26c0 174 61 260 130 260
c53 0 86 -48 106 -100v91h63v-528h-63v92c-20 -53 -53 -101 -106 -101zM179 49c47 0 91 72 91 201v28c0 129 -44 201 -91 201c-48 0 -85 -73 -85 -204v-22c0 -131 37 -204 85 -204z" />
    <glyph glyph-name="aringacute.alt2" horiz-adv-x="346" 
d="M146 686l69 103l57 -29l-81 -74h-45zM139 -9c-67 0 -115 67 -115 161v10c0 104 50 169 133 169c33 0 60 -9 84 -20v57c0 68 -32 107 -94 107c-35 0 -64 -8 -95 -24v60c19 8 38 15 59 19c-13 14 -21 33 -21 55c0 46 36 82 82 82s81 -35 81 -82c0 -27 -13 -49 -32 -63
c15 -7 29 -16 41 -27c25 -25 41 -67 41 -121v-374h-63v71c-21 -50 -53 -80 -101 -80zM157 45c50 0 84 53 84 113v101c-23 11 -48 19 -73 19c-54 0 -83 -45 -83 -112v-10c0 -66 26 -111 72 -111zM125 585c0 -29 19 -51 47 -51c27 0 47 22 47 51s-20 51 -47 51
c-28 0 -47 -22 -47 -51z" />
    <glyph glyph-name="Atilde" unicode="&#xc3;" horiz-adv-x="407" 
d="M21 0l147 703h70l148 -703h-66l-37 181h-162l-36 -181h-64zM131 240h142l-71 352zM257 745c-22 0 -36 8 -55 20s-29 18 -38 18c-13 0 -20 -12 -28 -36l-42 10c13 49 32 77 61 77c22 0 37 -9 56 -21c19 -11 28 -17 37 -17c13 0 20 12 28 36l42 -10
c-13 -50 -32 -77 -61 -77z" />
    <glyph glyph-name="atilde" unicode="&#xe3;" horiz-adv-x="346" 
d="M139 -9c-68 0 -115 67 -115 161v10c0 104 50 169 133 169c33 0 60 -9 84 -20v57c0 68 -32 107 -94 107c-35 0 -65 -8 -95 -24v60c31 15 66 23 102 23c46 0 81 -13 108 -39c25 -25 41 -67 41 -121v-374h-63v71c-21 -50 -53 -80 -101 -80zM157 45c50 0 84 53 84 113v101
c-23 11 -48 19 -73 19c-54 0 -83 -45 -83 -112v-10c0 -66 26 -111 72 -111zM223 578c-21 0 -35 9 -53 24c-19 16 -28 21 -37 21c-12 0 -20 -14 -28 -43l-39 10c12 57 30 83 59 83c21 0 35 -9 53 -24c19 -15 28 -21 37 -21c12 0 20 14 28 43l39 -10c-12 -57 -30 -83 -59 -83z
" />
    <glyph glyph-name="atilde.alt" horiz-adv-x="378" 
d="M162 -9c-69 0 -130 84 -130 260v26c0 174 61 260 130 260c53 0 86 -48 106 -100v91h63v-528h-63v92c-20 -53 -53 -101 -106 -101zM179 49c47 0 91 72 91 201v28c0 129 -44 201 -91 201c-48 0 -85 -73 -85 -204v-22c0 -131 37 -204 85 -204zM247 578c-21 0 -35 9 -53 24
c-19 16 -28 21 -37 21c-12 0 -20 -14 -28 -43l-39 10c12 57 30 83 59 83c21 0 35 -9 53 -24c19 -15 28 -21 37 -21c12 0 20 14 28 43l39 -10c-12 -57 -30 -83 -59 -83z" />
    <glyph glyph-name="Cacute" unicode="&#x106;" horiz-adv-x="331" 
d="M222 -6c-106 0 -189 110 -189 346v20c0 236 89 346 192 346c32 0 49 -6 72 -17v-68c-26 15 -45 22 -68 22c-72 0 -130 -90 -130 -283v-20c0 -196 58 -283 130 -283c24 0 45 7 70 23v-65c-22 -14 -46 -21 -77 -21zM178 744l69 110l62 -30l-84 -80h-47z" />
    <glyph glyph-name="cacute" unicode="&#x107;" horiz-adv-x="282" 
d="M151 577l70 131l60 -32l-87 -99h-43zM191 -8c-87 0 -161 83 -161 263v16c0 179 77 264 162 264c28 0 49 -6 66 -17v-66c-19 14 -39 23 -63 23c-49 0 -102 -61 -102 -202v-20c0 -144 51 -201 106 -201c20 0 41 10 59 24v-63c-19 -13 -39 -21 -67 -21z" />
    <glyph glyph-name="Ccaron" unicode="&#x10c;" horiz-adv-x="331" 
d="M222 -6c-106 0 -189 110 -189 346v20c0 236 89 346 192 346c32 0 49 -6 72 -17v-68c-26 15 -45 22 -68 22c-72 0 -130 -90 -130 -283v-20c0 -196 58 -283 130 -283c24 0 45 7 70 23v-65c-22 -14 -46 -21 -77 -21zM305 850l-72 -103h-56l-72 103h53l48 -55l48 55h51z" />
    <glyph glyph-name="ccaron" unicode="&#x10d;" horiz-adv-x="282" 
d="M271 707l-70 -127h-48l-70 127h48l47 -72l47 72h46zM191 -8c-87 0 -161 83 -161 263v16c0 179 77 264 162 264c28 0 49 -6 66 -17v-66c-19 14 -39 23 -63 23c-49 0 -102 -61 -102 -202v-20c0 -144 51 -201 106 -201c20 0 41 10 59 24v-63c-19 -13 -39 -21 -67 -21z" />
    <glyph glyph-name="Ccedilla" unicode="&#xc7;" horiz-adv-x="331" 
d="M186 -115l-61 25l55 90c-85 26 -147 136 -147 340v20c0 236 89 346 192 346c32 0 49 -6 72 -17v-68c-26 15 -45 22 -68 22c-72 0 -130 -90 -130 -283v-20c0 -196 58 -283 130 -283c24 0 45 7 70 23v-65c-22 -14 -45 -20 -75 -21z" />
    <glyph glyph-name="ccedilla" unicode="&#xe7;" horiz-adv-x="282" 
d="M154 -115l-61 25l54 90c-66 23 -117 106 -117 255v16c0 179 77 264 162 264c28 0 49 -6 66 -17v-66c-19 14 -39 23 -63 23c-49 0 -102 -61 -102 -202v-20c0 -144 51 -201 106 -201c20 0 41 10 59 24v-63c-19 -13 -39 -21 -67 -21z" />
    <glyph glyph-name="Cdotaccent" unicode="&#x10a;" horiz-adv-x="331" 
d="M171 752v75h68v-75h-68zM222 -6c-106 0 -189 110 -189 346v20c0 236 89 346 192 346c32 0 49 -6 72 -17v-68c-26 15 -45 22 -68 22c-72 0 -130 -90 -130 -283v-20c0 -196 58 -283 130 -283c24 0 45 7 70 23v-65c-22 -14 -46 -21 -77 -21z" />
    <glyph glyph-name="cdotaccent" unicode="&#x10b;" horiz-adv-x="282" 
d="M191 -8c-87 0 -161 83 -161 263v16c0 179 77 264 162 264c28 0 49 -6 66 -17v-66c-19 14 -39 23 -63 23c-49 0 -102 -61 -102 -202v-20c0 -144 51 -201 106 -201c20 0 41 10 59 24v-63c-19 -13 -39 -21 -67 -21zM144 585v78h66v-78h-66z" />
    <glyph glyph-name="Dcaron" unicode="&#x10e;" horiz-adv-x="405" 
d="M51 0v700h91c137 0 230 -116 230 -340v-20c0 -224 -93 -340 -230 -340h-91zM145 641h-29v-582h30c93 0 160 89 160 281v20c0 192 -70 281 -161 281zM295 845l-72 -103h-56l-72 103h53l48 -55l48 55h51z" />
    <glyph glyph-name="dcaron" unicode="&#x10f;" horiz-adv-x="378" 
d="M360 559l8 147h49v-2l-29 -145h-28zM162 -9c-69 0 -130 84 -130 260v26c0 174 61 260 130 260c53 0 86 -48 106 -100v269h63v-706h-63v92c-20 -53 -53 -101 -106 -101zM179 49c47 0 91 72 91 201v28c0 129 -44 201 -91 201c-48 0 -85 -73 -85 -204v-22
c0 -131 37 -204 85 -204z" />
    <glyph glyph-name="Dcroat" unicode="&#x110;" horiz-adv-x="412" 
d="M57 0v323h-50v58h50v319h92c137 0 229 -116 229 -340v-20c0 -224 -92 -340 -229 -340h-92zM201 323h-79v-264h31c92 0 160 89 160 281v20c0 192 -70 281 -162 281h-29v-260h79v-58z" />
    <glyph glyph-name="dcroat" unicode="&#x111;" horiz-adv-x="378" 
d="M169 594v47h99v65h63v-65h44v-48h-44v-593h-63v92c-20 -53 -53 -101 -106 -101c-69 0 -130 84 -130 260v26c0 174 61 260 130 260c53 0 86 -48 106 -100v157h-99zM179 49c47 0 91 72 91 201v28c0 129 -44 201 -91 201c-48 0 -85 -73 -85 -204v-22c0 -131 37 -204 85 -204
z" />
    <glyph glyph-name="Eacute" unicode="&#xc9;" horiz-adv-x="326" 
d="M149 739l69 110l62 -30l-84 -80h-47zM51 0v700h246v-61h-181v-256h164v-61h-164v-261h184v-61h-249z" />
    <glyph glyph-name="eacute" unicode="&#xe9;" horiz-adv-x="349" 
d="M152 577l70 131l60 -32l-87 -99h-43zM200 -8c-91 0 -171 88 -171 261v14c0 179 69 269 149 269c82 0 141 -93 141 -260v-40h-228c4 -126 55 -185 118 -185c33 0 57 10 92 33l6 -60c-38 -23 -65 -32 -107 -32zM91 288h168c0 113 -33 191 -81 191s-84 -63 -87 -191z" />
    <glyph glyph-name="Ebreve" unicode="&#x114;" horiz-adv-x="326" 
d="M176 739c-54 0 -94 29 -100 88h46c7 -27 24 -39 54 -39c29 0 47 12 54 39h46c-6 -59 -46 -88 -100 -88zM51 0v700h246v-61h-181v-256h164v-61h-164v-261h184v-61h-249z" />
    <glyph glyph-name="ebreve" unicode="&#x115;" horiz-adv-x="349" 
d="M200 -8c-91 0 -171 88 -171 261v14c0 179 69 269 149 269c82 0 141 -93 141 -260v-40h-228c4 -126 55 -185 118 -185c33 0 57 10 92 33l6 -60c-38 -23 -65 -32 -107 -32zM91 288h168c0 113 -33 191 -81 191s-84 -63 -87 -191zM178 577c-53 0 -94 31 -100 101h45
c7 -35 24 -53 55 -53s48 18 55 53h45c-6 -70 -47 -101 -100 -101z" />
    <glyph glyph-name="Ecaron" unicode="&#x11a;" horiz-adv-x="326" 
d="M276 845l-72 -103h-56l-72 103h53l48 -55l48 55h51zM51 0v700h246v-61h-181v-256h164v-61h-164v-261h184v-61h-249z" />
    <glyph glyph-name="ecaron" unicode="&#x11b;" horiz-adv-x="349" 
d="M272 707l-70 -127h-48l-70 127h48l47 -72l47 72h46zM200 -8c-91 0 -171 88 -171 261v14c0 179 69 269 149 269c82 0 141 -93 141 -260v-40h-228c4 -126 55 -185 118 -185c33 0 57 10 92 33l6 -60c-38 -23 -65 -32 -107 -32zM91 288h168c0 113 -33 191 -81 191
s-84 -63 -87 -191z" />
    <glyph glyph-name="Ecircumflex" unicode="&#xca;" horiz-adv-x="326" 
d="M51 0v700h246v-61h-181v-256h164v-61h-164v-261h184v-61h-249zM76 742l72 103h56l72 -103h-53l-48 56l-48 -56h-51z" />
    <glyph glyph-name="ecircumflex" unicode="&#xea;" horiz-adv-x="349" 
d="M84 580l70 127h48l70 -127h-48l-47 72l-47 -72h-46zM200 -8c-91 0 -171 88 -171 261v14c0 179 69 269 149 269c82 0 141 -93 141 -260v-40h-228c4 -126 55 -185 118 -185c33 0 57 10 92 33l6 -60c-38 -23 -65 -32 -107 -32zM91 288h168c0 113 -33 191 -81 191
s-84 -63 -87 -191z" />
    <glyph glyph-name="Edieresis" unicode="&#xcb;" horiz-adv-x="326" 
d="M201 747v75h66v-75h-66zM85 747v75h66v-75h-66zM51 0v700h246v-61h-181v-256h164v-61h-164v-261h184v-61h-249z" />
    <glyph glyph-name="edieresis" unicode="&#xeb;" horiz-adv-x="349" 
d="M203 585v78h62v-78h-62zM91 585v78h62v-78h-62zM200 -8c-91 0 -171 88 -171 261v14c0 179 69 269 149 269c82 0 141 -93 141 -260v-40h-228c4 -126 55 -185 118 -185c33 0 57 10 92 33l6 -60c-38 -23 -65 -32 -107 -32zM91 288h168c0 113 -33 191 -81 191
s-84 -63 -87 -191z" />
    <glyph glyph-name="Edotaccent" unicode="&#x116;" horiz-adv-x="326" 
d="M142 747v75h68v-75h-68zM51 0v700h246v-61h-181v-256h164v-61h-164v-261h184v-61h-249z" />
    <glyph glyph-name="edotaccent" unicode="&#x117;" horiz-adv-x="349" 
d="M200 -8c-91 0 -171 88 -171 261v14c0 179 69 269 149 269c82 0 141 -93 141 -260v-40h-228c4 -126 55 -185 118 -185c33 0 57 10 92 33l6 -60c-38 -23 -65 -32 -107 -32zM91 288h168c0 113 -33 191 -81 191s-84 -63 -87 -191zM145 585v78h66v-78h-66z" />
    <glyph glyph-name="Egrave" unicode="&#xc8;" horiz-adv-x="326" 
d="M203 739h-47l-84 80l62 30zM51 0v700h246v-61h-181v-256h164v-61h-164v-261h184v-61h-249z" />
    <glyph glyph-name="egrave" unicode="&#xe8;" horiz-adv-x="349" 
d="M200 -8c-91 0 -171 88 -171 261v14c0 179 69 269 149 269c82 0 141 -93 141 -260v-40h-228c4 -126 55 -185 118 -185c33 0 57 10 92 33l6 -60c-38 -23 -65 -32 -107 -32zM91 288h168c0 113 -33 191 -81 191s-84 -63 -87 -191zM161 577l-87 99l60 32l69 -131h-42z" />
    <glyph glyph-name="Emacron" unicode="&#x112;" horiz-adv-x="326" 
d="M73 748v51h206v-51h-206zM51 0v700h246v-61h-181v-256h164v-61h-164v-261h184v-61h-249z" />
    <glyph glyph-name="emacron" unicode="&#x113;" horiz-adv-x="349" 
d="M200 -8c-91 0 -171 88 -171 261v14c0 179 69 269 149 269c82 0 141 -93 141 -260v-40h-228c4 -126 55 -185 118 -185c33 0 57 10 92 33l6 -60c-38 -23 -65 -32 -107 -32zM91 288h168c0 113 -33 191 -81 191s-84 -63 -87 -191zM81 586v50h194v-50h-194z" />
    <glyph glyph-name="Eogonek" unicode="&#x118;" horiz-adv-x="326" 
d="M51 0v700h246v-61h-181v-256h164v-61h-164v-261h184v-61h-14c-18 -26 -26 -43 -26 -58c0 -20 14 -27 42 -27v-42c-12 -1 -19 -1 -26 -1c-49 0 -71 21 -71 53c0 26 13 49 38 75h-192z" />
    <glyph glyph-name="eogonek" unicode="&#x119;" horiz-adv-x="349" 
d="M301 84l5 -54c-41 -47 -51 -70 -51 -88c0 -20 13 -27 41 -27v-42c-12 -1 -18 -1 -25 -1c-50 0 -72 21 -72 53c0 24 13 46 35 71c-10 -2 -21 -3 -34 -3c-91 0 -171 87 -171 260v14c0 179 69 269 149 269c82 0 141 -93 141 -260v-40h-228c4 -126 55 -185 118 -185
c33 0 57 10 92 33zM91 288h168c0 113 -33 191 -81 191s-84 -63 -87 -191z" />
    <glyph glyph-name="Eth" unicode="&#xd0;" horiz-adv-x="412" 
d="M57 0v323h-50v58h50v319h92c137 0 229 -116 229 -340v-20c0 -224 -92 -340 -229 -340h-92zM201 323h-79v-264h31c92 0 160 89 160 281v20c0 192 -70 281 -162 281h-29v-260h79v-58z" />
    <glyph glyph-name="eth" unicode="&#xf0;" horiz-adv-x="366" 
d="M295 667l-61 -33c64 -103 101 -220 101 -345v-19c0 -188 -72 -279 -154 -279c-81 0 -151 98 -151 265v16c0 165 69 262 139 262c28 0 51 -17 76 -48c-14 39 -34 80 -60 121l-71 -38l-22 41l66 36c-15 20 -31 40 -49 60h73c9 -11 18 -22 26 -34l66 36zM182 48
c49 0 90 77 90 208v16c0 138 -45 208 -92 208s-88 -79 -88 -208v-16c0 -129 40 -208 90 -208z" />
    <glyph glyph-name="Gbreve" unicode="&#x11e;" horiz-adv-x="396" 
d="M227 744c-54 0 -94 29 -100 88h46c7 -27 24 -39 54 -39c29 0 47 12 54 39h46c-6 -59 -46 -88 -100 -88zM247 -8c-117 0 -214 113 -214 348v20c0 231 99 347 218 347c37 0 63 -8 88 -21v-70c-30 18 -57 29 -87 29c-82 0 -153 -94 -153 -284v-22c0 -200 69 -287 152 -287
c15 0 24 1 38 7v251h-93v59h153v-351c-38 -19 -64 -26 -102 -26z" />
    <glyph glyph-name="gbreve" unicode="&#x11f;" horiz-adv-x="378" 
d="M169 -132c-40 0 -79 7 -115 20v61c36 -14 81 -24 112 -24c66 0 102 30 102 100v104c-20 -52 -53 -100 -106 -100c-68 0 -130 81 -130 250v8c0 168 62 250 130 250c53 0 86 -48 106 -100v91h63v-504c0 -52 -14 -89 -40 -115c-27 -28 -69 -41 -122 -41zM179 87
c45 0 91 69 91 192v7c0 124 -46 193 -91 193c-46 0 -85 -68 -85 -193v-6c0 -126 39 -193 85 -193zM195 577c-53 0 -94 31 -100 101h45c7 -35 24 -53 55 -53s48 18 55 53h45c-6 -70 -47 -101 -100 -101z" />
    <glyph glyph-name="Gcommaaccent" unicode="&#x122;" horiz-adv-x="396" 
d="M196 -201l-9 24c27 11 36 24 35 52h-29v67h66v-61c0 -48 -20 -68 -63 -82zM247 -8c-117 0 -214 113 -214 348v20c0 231 99 347 218 347c37 0 63 -8 88 -21v-70c-30 18 -57 29 -87 29c-82 0 -153 -94 -153 -284v-22c0 -200 69 -287 152 -287c15 0 24 1 38 7v251h-93v59
h153v-351c-38 -19 -64 -26 -102 -26z" />
    <glyph glyph-name="gcommaaccent" unicode="&#x123;" horiz-adv-x="378" 
d="M223 738l9 -24c-27 -11 -36 -24 -35 -52h29v-67h-66v61c0 48 20 68 63 82zM169 -132c-40 0 -79 7 -115 20v61c36 -14 81 -24 112 -24c66 0 102 30 102 100v104c-20 -52 -53 -100 -106 -100c-68 0 -130 81 -130 250v8c0 168 62 250 130 250c53 0 86 -48 106 -100v91h63
v-504c0 -52 -14 -89 -40 -115c-27 -28 -69 -41 -122 -41zM179 87c45 0 91 69 91 192v7c0 124 -46 193 -91 193c-46 0 -85 -68 -85 -193v-6c0 -126 39 -193 85 -193z" />
    <glyph glyph-name="Gdotaccent" unicode="&#x120;" horiz-adv-x="396" 
d="M193 752v75h68v-75h-68zM247 -8c-117 0 -214 113 -214 348v20c0 231 99 347 218 347c37 0 63 -8 88 -21v-70c-30 18 -57 29 -87 29c-82 0 -153 -94 -153 -284v-22c0 -200 69 -287 152 -287c15 0 24 1 38 7v251h-93v59h153v-351c-38 -19 -64 -26 -102 -26z" />
    <glyph glyph-name="gdotaccent" unicode="&#x121;" horiz-adv-x="378" 
d="M169 -132c-40 0 -79 7 -115 20v61c36 -14 81 -24 112 -24c66 0 102 30 102 100v104c-20 -52 -53 -100 -106 -100c-68 0 -130 81 -130 250v8c0 168 62 250 130 250c53 0 86 -48 106 -100v91h63v-504c0 -52 -14 -89 -40 -115c-27 -28 -69 -41 -122 -41zM179 87
c45 0 91 69 91 192v7c0 124 -46 193 -91 193c-46 0 -85 -68 -85 -193v-6c0 -126 39 -193 85 -193zM162 585v78h66v-78h-66z" />
    <glyph glyph-name="Hbar" unicode="&#x126;" horiz-adv-x="431" 
d="M7 545v56h50v99h65v-100h187v100h65v-99h49v-56h-49v-545h-65v322h-187v-322h-65v545h-50zM122 382h187v164h-187v-164z" />
    <glyph glyph-name="hbar" unicode="&#x127;" horiz-adv-x="374" 
d="M209 594h-99v-140c19 44 50 83 105 83c70 0 115 -59 115 -159v-378h-62v367c0 74 -27 115 -74 115s-84 -48 -84 -121v-361h-62v593h-44v48h44v65h62v-65h99v-47z" />
    <glyph glyph-name="Iacute" unicode="&#xcd;" horiz-adv-x="178" 
d="M56 0v700h65v-700h-65zM62 739l69 110l62 -30l-84 -80h-47z" />
    <glyph glyph-name="iacute" unicode="&#xed;" horiz-adv-x="167" 
d="M58 576l70 131l60 -32l-87 -99h-43zM52 0v528h63v-528h-63z" />
    <glyph glyph-name="Ibreve" unicode="&#x12c;" horiz-adv-x="178" 
d="M56 0v700h65v-700h-65zM89 739c-54 0 -94 29 -100 88h46c7 -27 24 -39 54 -39c29 0 47 12 54 39h46c-6 -59 -46 -88 -100 -88z" />
    <glyph glyph-name="ibreve" unicode="&#x12d;" horiz-adv-x="167" 
d="M52 0v528h63v-528h-63zM84 576c-53 0 -94 31 -100 101h45c7 -35 24 -53 55 -53s48 18 55 53h45c-6 -70 -47 -101 -100 -101z" />
    <glyph glyph-name="Icircumflex" unicode="&#xce;" horiz-adv-x="178" 
d="M56 0v700h65v-700h-65zM-11 742l72 103h56l72 -103h-53l-48 56l-48 -56h-51z" />
    <glyph glyph-name="icircumflex" unicode="&#xee;" horiz-adv-x="167" 
d="M-10 579l70 127h48l70 -127h-48l-47 72l-47 -72h-46zM52 0v528h63v-528h-63z" />
    <glyph glyph-name="Idieresis" unicode="&#xcf;" horiz-adv-x="178" 
d="M56 0v700h65v-700h-65zM114 747v75h66v-75h-66zM-2 747v75h66v-75h-66z" />
    <glyph glyph-name="idieresis" unicode="&#xef;" horiz-adv-x="167" 
d="M109 584v78h62v-78h-62zM-3 584v78h62v-78h-62zM52 0v528h63v-528h-63z" />
    <glyph glyph-name="Idotaccent" unicode="&#x130;" horiz-adv-x="178" 
d="M56 0v700h65v-700h-65zM55 747v75h68v-75h-68z" />
    <glyph glyph-name="dotlessi" unicode="&#x131;" horiz-adv-x="167" 
d="M52 0v528h63v-528h-63z" />
    <glyph glyph-name="Igrave" unicode="&#xcc;" horiz-adv-x="178" 
d="M56 0v700h65v-700h-65zM117 739h-47l-84 80l62 30z" />
    <glyph glyph-name="igrave" unicode="&#xec;" horiz-adv-x="167" 
d="M52 0v528h63v-528h-63zM67 576l-87 99l60 32l69 -131h-42z" />
    <glyph glyph-name="Imacron" unicode="&#x12a;" horiz-adv-x="178" 
d="M56 0v700h65v-700h-65zM-14 748v51h206v-51h-206z" />
    <glyph glyph-name="imacron" unicode="&#x12b;" horiz-adv-x="167" 
d="M52 0v528h63v-528h-63zM-13 585v50h194v-50h-194z" />
    <glyph glyph-name="Iogonek" unicode="&#x12e;" horiz-adv-x="178" 
d="M56 0v700h65v-700h-9c-18 -26 -26 -43 -26 -58c0 -20 14 -27 42 -27v-42c-12 -1 -19 -1 -26 -1c-49 0 -71 21 -71 53c0 26 13 49 38 75h-13z" />
    <glyph glyph-name="iogonek" unicode="&#x12f;" horiz-adv-x="167" 
d="M52 0v528h63v-528h-9c-18 -26 -26 -43 -26 -58c0 -20 14 -27 42 -27v-42c-12 -1 -19 -1 -26 -1c-49 0 -71 21 -71 53c0 26 13 49 38 75h-11zM51 624v82h66v-82h-66z" />
    <glyph glyph-name="Kcommaaccent" unicode="&#x136;" horiz-adv-x="379" 
d="M165 -191l-9 24c27 11 36 24 35 52h-29v67h66v-61c0 -48 -20 -68 -63 -82zM51 0v700h65v-371l169 371h72l-149 -311l164 -389h-70l-136 318l-50 -105v-213h-65z" />
    <glyph glyph-name="kcommaaccent" unicode="&#x137;" horiz-adv-x="336" 
d="M143 -191l-9 24c27 11 36 24 35 52h-29v67h66v-61c0 -48 -20 -68 -63 -82zM48 0v706h62v-447l131 269h68l-110 -213l117 -315h-68l-91 253l-47 -90v-163h-62z" />
    <glyph glyph-name="Lacute" unicode="&#x139;" horiz-adv-x="288" 
d="M68 739l69 110l62 -30l-84 -80h-47zM51 0v700h65v-639h163v-61h-228z" />
    <glyph glyph-name="lacute" unicode="&#x13a;" horiz-adv-x="167" 
d="M61 739l69 110l62 -30l-84 -80h-47zM52 0v706h63v-706h-63z" />
    <glyph glyph-name="Lcaron" unicode="&#x13d;" horiz-adv-x="288" 
d="M150 553l8 147h49v-2l-29 -145h-28zM51 0v700h65v-639h163v-61h-228z" />
    <glyph glyph-name="lcaron" unicode="&#x13e;" horiz-adv-x="167" 
d="M145 559l8 147h49v-2l-29 -145h-28zM52 0v706h63v-706h-63z" />
    <glyph glyph-name="Lcommaaccent" unicode="&#x13b;" horiz-adv-x="288" 
d="M132 -196l-9 24c27 11 36 24 35 52h-29v67h66v-61c0 -48 -20 -68 -63 -82zM51 0v700h65v-639h163v-61h-228z" />
    <glyph glyph-name="lcommaaccent" unicode="&#x13c;" horiz-adv-x="167" 
d="M53 -196l-9 24c27 11 36 24 35 52h-29v67h66v-61c0 -48 -20 -68 -63 -82zM52 0v706h63v-706h-63z" />
    <glyph glyph-name="Ldot" unicode="&#x13f;" horiz-adv-x="288" 
d="M192 322v78h63v-78h-63zM51 0v700h65v-639h163v-61h-228z" />
    <glyph glyph-name="ldot" unicode="&#x140;" horiz-adv-x="226" 
d="M168 316v84h57v-84h-57zM52 0v706h63v-706h-63z" />
    <glyph glyph-name="Lslash" unicode="&#x141;" horiz-adv-x="300" 
d="M205 379l-83 -54v-264h164v-61h-229v283l-50 -33v68l50 32v350h65v-308l83 55v-68z" />
    <glyph glyph-name="lslash" unicode="&#x142;" horiz-adv-x="184" 
d="M179 385l-56 -36v-349h-62v308l-56 -37v67l56 35v333h62v-293l56 38v-66z" />
    <glyph glyph-name="Nacute" unicode="&#x143;" horiz-adv-x="422" 
d="M184 734l69 110l62 -30l-84 -80h-47zM51 0v700h65l193 -527v527h63v-700h-61l-198 542v-542h-62z" />
    <glyph glyph-name="nacute" unicode="&#x144;" horiz-adv-x="374" 
d="M162 577l70 131l60 -32l-87 -99h-43zM48 0v528h62v-74c19 44 50 83 105 83c70 0 115 -59 115 -159v-378h-62v367c0 74 -27 115 -74 115s-84 -48 -84 -121v-361h-62z" />
    <glyph glyph-name="Ncaron" unicode="&#x147;" horiz-adv-x="422" 
d="M312 840l-72 -103h-56l-72 103h53l48 -55l48 55h51zM51 0v700h65l193 -527v527h63v-700h-61l-198 542v-542h-62z" />
    <glyph glyph-name="ncaron" unicode="&#x148;" horiz-adv-x="374" 
d="M283 707l-70 -127h-48l-70 127h48l47 -72l47 72h46zM48 0v528h62v-74c19 44 50 83 105 83c70 0 115 -59 115 -159v-378h-62v367c0 74 -27 115 -74 115s-84 -48 -84 -121v-361h-62z" />
    <glyph glyph-name="Ncommaaccent" unicode="&#x145;" horiz-adv-x="422" 
d="M181 -191l-9 24c27 11 36 24 35 52h-29v67h66v-61c0 -48 -20 -68 -63 -82zM51 0v700h65l193 -527v527h63v-700h-61l-198 542v-542h-62z" />
    <glyph glyph-name="ncommaaccent" unicode="&#x146;" horiz-adv-x="374" 
d="M158 -191l-9 24c27 11 36 24 35 52h-29v67h66v-61c0 -48 -20 -68 -63 -82zM48 0v528h62v-74c19 44 50 83 105 83c70 0 115 -59 115 -159v-378h-62v367c0 74 -27 115 -74 115s-84 -48 -84 -121v-361h-62z" />
    <glyph glyph-name="Ntilde" unicode="&#xd1;" horiz-adv-x="422" 
d="M265 735c-22 0 -36 8 -55 20s-29 18 -38 18c-13 0 -20 -12 -28 -36l-42 10c13 49 32 77 61 77c22 0 37 -9 56 -21c19 -11 28 -17 37 -17c13 0 20 12 28 36l42 -10c-13 -50 -32 -77 -61 -77zM51 0v700h65l193 -527v527h63v-700h-61l-198 542v-542h-62z" />
    <glyph glyph-name="ntilde" unicode="&#xf1;" horiz-adv-x="374" 
d="M48 0v528h62v-74c19 44 50 83 105 83c70 0 115 -59 115 -159v-378h-62v367c0 74 -27 115 -74 115s-84 -48 -84 -121v-361h-62zM240 578c-21 0 -35 9 -53 24c-19 16 -28 21 -37 21c-12 0 -20 -14 -28 -43l-39 10c12 57 30 83 59 83c21 0 35 -9 53 -24
c19 -15 28 -21 37 -21c12 0 20 14 28 43l39 -10c-12 -57 -30 -83 -59 -83z" />
    <glyph glyph-name="Oacute" unicode="&#xd3;" horiz-adv-x="410" 
d="M178 744l69 110l62 -30l-84 -80h-47zM205 -9c-99 0 -172 117 -172 348v22c0 231 73 348 172 348s171 -117 171 -348v-22c0 -231 -72 -348 -171 -348zM205 51c60 0 106 91 106 288v22c0 197 -46 288 -106 288s-106 -91 -106 -288v-22c0 -197 46 -288 106 -288z" />
    <glyph glyph-name="oacute" unicode="&#xf3;" horiz-adv-x="366" 
d="M158 577l70 131l60 -32l-87 -99h-43zM183 -9c-83 0 -153 98 -153 265v15c0 167 70 265 154 265c83 0 153 -98 153 -265v-15c0 -167 -70 -265 -154 -265zM183 48c51 0 91 79 91 208v16c0 129 -40 207 -91 207s-91 -78 -91 -207v-16c0 -129 40 -208 91 -208z" />
    <glyph glyph-name="Obreve" unicode="&#x14e;" horiz-adv-x="410" 
d="M205 744c-54 0 -94 29 -100 88h46c7 -27 24 -39 54 -39c29 0 47 12 54 39h46c-6 -59 -46 -88 -100 -88zM205 -9c-99 0 -172 117 -172 348v22c0 231 73 348 172 348s171 -117 171 -348v-22c0 -231 -72 -348 -171 -348zM205 51c60 0 106 91 106 288v22
c0 197 -46 288 -106 288s-106 -91 -106 -288v-22c0 -197 46 -288 106 -288z" />
    <glyph glyph-name="obreve" unicode="&#x14f;" horiz-adv-x="366" 
d="M183 -9c-83 0 -153 98 -153 265v15c0 167 70 265 154 265c83 0 153 -98 153 -265v-15c0 -167 -70 -265 -154 -265zM183 48c51 0 91 79 91 208v16c0 129 -40 207 -91 207s-91 -78 -91 -207v-16c0 -129 40 -208 91 -208zM184 577c-53 0 -94 31 -100 101h45
c7 -35 24 -53 55 -53s48 18 55 53h45c-6 -70 -47 -101 -100 -101z" />
    <glyph glyph-name="Ocircumflex" unicode="&#xd4;" horiz-adv-x="410" 
d="M205 -9c-99 0 -172 117 -172 348v22c0 231 73 348 172 348s171 -117 171 -348v-22c0 -231 -72 -348 -171 -348zM205 51c60 0 106 91 106 288v22c0 197 -46 288 -106 288s-106 -91 -106 -288v-22c0 -197 46 -288 106 -288zM105 747l72 103h56l72 -103h-53l-48 56l-48 -56
h-51z" />
    <glyph glyph-name="ocircumflex" unicode="&#xf4;" horiz-adv-x="366" 
d="M90 580l70 127h48l70 -127h-48l-47 72l-47 -72h-46zM183 -9c-83 0 -153 98 -153 265v15c0 167 70 265 154 265c83 0 153 -98 153 -265v-15c0 -167 -70 -265 -154 -265zM183 48c51 0 91 79 91 208v16c0 129 -40 207 -91 207s-91 -78 -91 -207v-16c0 -129 40 -208 91 -208z
" />
    <glyph glyph-name="Odieresis" unicode="&#xd6;" horiz-adv-x="410" 
d="M230 752v75h66v-75h-66zM114 752v75h66v-75h-66zM205 -9c-99 0 -172 117 -172 348v22c0 231 73 348 172 348s171 -117 171 -348v-22c0 -231 -72 -348 -171 -348zM205 51c60 0 106 91 106 288v22c0 197 -46 288 -106 288s-106 -91 -106 -288v-22c0 -197 46 -288 106 -288z
" />
    <glyph glyph-name="odieresis" unicode="&#xf6;" horiz-adv-x="366" 
d="M209 585v78h62v-78h-62zM97 585v78h62v-78h-62zM183 -9c-83 0 -153 98 -153 265v15c0 167 70 265 154 265c83 0 153 -98 153 -265v-15c0 -167 -70 -265 -154 -265zM183 48c51 0 91 79 91 208v16c0 129 -40 207 -91 207s-91 -78 -91 -207v-16c0 -129 40 -208 91 -208z" />
    <glyph glyph-name="OE" unicode="&#x152;" horiz-adv-x="558" 
d="M263 0c-137 0 -230 116 -230 340v20c0 224 93 340 230 340h266v-61h-181v-256h164v-61h-164v-261h184v-61h-269zM260 59h22v582h-23c-92 0 -160 -89 -160 -281v-20c0 -192 70 -281 161 -281z" />
    <glyph glyph-name="oe" unicode="&#x153;" horiz-adv-x="594" 
d="M183 -9c-83 0 -153 98 -153 265v15c0 167 70 265 154 265c53 0 96 -41 121 -113c23 76 69 113 118 113c82 0 141 -93 141 -260v-40h-227c3 -126 55 -185 117 -185c33 0 58 10 92 33l6 -60c-38 -23 -64 -32 -106 -32c-63 0 -116 42 -140 116c-24 -75 -69 -117 -123 -117z
M336 288h168c0 113 -32 191 -81 191c-47 0 -83 -63 -87 -191zM183 48c51 0 91 79 91 208v16c0 129 -40 207 -91 207s-91 -78 -91 -207v-16c0 -129 40 -208 91 -208z" />
    <glyph glyph-name="Ograve" unicode="&#xd2;" horiz-adv-x="410" 
d="M233 744h-47l-84 80l62 30zM205 -9c-99 0 -172 117 -172 348v22c0 231 73 348 172 348s171 -117 171 -348v-22c0 -231 -72 -348 -171 -348zM205 51c60 0 106 91 106 288v22c0 197 -46 288 -106 288s-106 -91 -106 -288v-22c0 -197 46 -288 106 -288z" />
    <glyph glyph-name="ograve" unicode="&#xf2;" horiz-adv-x="366" 
d="M183 -9c-83 0 -153 98 -153 265v15c0 167 70 265 154 265c83 0 153 -98 153 -265v-15c0 -167 -70 -265 -154 -265zM183 48c51 0 91 79 91 208v16c0 129 -40 207 -91 207s-91 -78 -91 -207v-16c0 -129 40 -208 91 -208zM167 577l-87 99l60 32l69 -131h-42z" />
    <glyph glyph-name="Ohungarumlaut" unicode="&#x150;" horiz-adv-x="410" 
d="M205 -9c-99 0 -172 117 -172 348v22c0 231 73 348 172 348s171 -117 171 -348v-22c0 -231 -72 -348 -171 -348zM205 51c60 0 106 91 106 288v22c0 197 -46 288 -106 288s-106 -91 -106 -288v-22c0 -197 46 -288 106 -288zM128 744l69 110l57 -29l-81 -81h-45zM226 744
l68 110l58 -29l-82 -81h-44z" />
    <glyph glyph-name="ohungarumlaut" unicode="&#x151;" horiz-adv-x="366" 
d="M204 577l70 131l55 -30l-83 -101h-42zM106 577l70 131l54 -30l-83 -101h-41zM183 -9c-83 0 -153 98 -153 265v15c0 167 70 265 154 265c83 0 153 -98 153 -265v-15c0 -167 -70 -265 -154 -265zM183 48c51 0 91 79 91 208v16c0 129 -40 207 -91 207s-91 -78 -91 -207v-16
c0 -129 40 -208 91 -208z" />
    <glyph glyph-name="Omacron" unicode="&#x14c;" horiz-adv-x="410" 
d="M102 753v51h206v-51h-206zM205 -9c-99 0 -172 117 -172 348v22c0 231 73 348 172 348s171 -117 171 -348v-22c0 -231 -72 -348 -171 -348zM205 51c60 0 106 91 106 288v22c0 197 -46 288 -106 288s-106 -91 -106 -288v-22c0 -197 46 -288 106 -288z" />
    <glyph glyph-name="omacron" unicode="&#x14d;" horiz-adv-x="366" 
d="M87 586v50h194v-50h-194zM183 -9c-83 0 -153 98 -153 265v15c0 167 70 265 154 265c83 0 153 -98 153 -265v-15c0 -167 -70 -265 -154 -265zM183 48c51 0 91 79 91 208v16c0 129 -40 207 -91 207s-91 -78 -91 -207v-16c0 -129 40 -208 91 -208z" />
    <glyph glyph-name="Oslash" unicode="&#xd8;" horiz-adv-x="410" 
d="M325 707h50l-41 -99c27 -58 42 -140 42 -247v-22c0 -231 -72 -348 -171 -348c-38 0 -73 17 -100 51l-21 -49h-50l41 98c-26 58 -42 141 -42 248v22c0 231 73 348 172 348c38 0 72 -17 99 -52zM98 339c0 -65 5 -118 13 -161l168 407v1c-18 43 -44 64 -74 64
c-61 0 -107 -92 -107 -289v-22zM205 50c61 0 107 92 107 289v22c0 64 -5 117 -14 160l-168 -407c19 -43 44 -64 75 -64z" />
    <glyph glyph-name="oslash" unicode="&#xf8;" horiz-adv-x="366" 
d="M288 533h48l-39 -78c25 -45 40 -107 40 -184v-15c0 -167 -70 -265 -154 -265c-32 0 -62 14 -87 42l-18 -38h-48l38 78c-23 45 -38 107 -38 183v15c0 167 70 265 154 265c31 0 61 -15 85 -41zM183 47c52 0 94 80 94 209v16c0 46 -5 84 -13 114l-143 -294
c17 -30 39 -45 62 -45zM89 256c0 -46 5 -84 13 -115l143 294c-17 30 -39 45 -62 45c-52 0 -94 -79 -94 -208v-16z" />
    <glyph glyph-name="Oslashacute" unicode="&#x1fe;" horiz-adv-x="410" 
d="M325 707h50l-41 -99c27 -58 42 -140 42 -247v-22c0 -231 -72 -348 -171 -348c-38 0 -73 17 -100 51l-21 -49h-50l41 98c-26 58 -42 141 -42 248v22c0 231 73 348 172 348c38 0 72 -17 99 -52zM98 339c0 -65 5 -118 13 -161l168 408c-18 43 -44 64 -74 64
c-61 0 -107 -92 -107 -289v-22zM205 50c61 0 107 92 107 289v22c0 64 -5 117 -14 160l-168 -407c19 -43 44 -64 75 -64zM180 744l69 110l62 -30l-84 -80h-47z" />
    <glyph glyph-name="oslashacute" unicode="&#x1ff;" horiz-adv-x="366" 
d="M288 533h48l-39 -78c25 -45 40 -107 40 -184v-15c0 -167 -70 -265 -154 -265c-32 0 -62 14 -87 42l-18 -38h-48l38 78c-23 45 -38 107 -38 183v15c0 167 70 265 154 265c31 0 61 -15 85 -41zM183 47c52 0 94 80 94 209v16c0 46 -5 84 -13 114l-143 -294
c17 -30 39 -45 62 -45zM89 256c0 -46 5 -84 13 -115l143 294c-17 30 -39 45 -62 45c-52 0 -94 -79 -94 -208v-16zM157 577l70 131l60 -32l-87 -99h-43z" />
    <glyph glyph-name="Otilde" unicode="&#xd5;" horiz-adv-x="410" 
d="M259 745c-22 0 -36 8 -55 20s-29 18 -38 18c-13 0 -20 -12 -28 -36l-42 10c13 49 32 77 61 77c22 0 37 -9 56 -21c19 -11 28 -17 37 -17c13 0 20 12 28 36l42 -10c-13 -50 -32 -77 -61 -77zM205 -9c-99 0 -172 117 -172 348v22c0 231 73 348 172 348s171 -117 171 -348
v-22c0 -231 -72 -348 -171 -348zM205 51c60 0 106 91 106 288v22c0 197 -46 288 -106 288s-106 -91 -106 -288v-22c0 -197 46 -288 106 -288z" />
    <glyph glyph-name="otilde" unicode="&#xf5;" horiz-adv-x="366" 
d="M183 -9c-83 0 -153 98 -153 265v15c0 167 70 265 154 265c83 0 153 -98 153 -265v-15c0 -167 -70 -265 -154 -265zM183 48c51 0 91 79 91 208v16c0 129 -40 207 -91 207s-91 -78 -91 -207v-16c0 -129 40 -208 91 -208zM235 578c-21 0 -35 9 -53 24c-19 16 -28 21 -37 21
c-12 0 -20 -14 -28 -43l-39 10c12 57 30 83 59 83c21 0 35 -9 53 -24c19 -15 28 -21 37 -21c12 0 20 14 28 43l39 -10c-12 -57 -30 -83 -59 -83z" />
    <glyph glyph-name="Racute" unicode="&#x154;" horiz-adv-x="387" 
d="M51 0v700h97c62 0 114 -19 149 -55c36 -35 56 -88 56 -156v-3c0 -96 -42 -163 -110 -193l123 -293h-73l-114 274c-9 -2 -19 -2 -29 -2h-34v-272h-65zM116 330h33c84 0 139 53 139 155v3c0 106 -58 152 -142 152h-30v-310zM153 739l69 110l62 -30l-84 -80h-47z" />
    <glyph glyph-name="racute" unicode="&#x155;" horiz-adv-x="238" 
d="M101 576l70 131l60 -32l-87 -99h-43zM48 0v528h62v-74c19 47 56 84 113 80v-71h-2c-63 0 -111 -41 -111 -129v-334h-62z" />
    <glyph glyph-name="Rcaron" unicode="&#x158;" horiz-adv-x="387" 
d="M280 845l-72 -103h-56l-72 103h53l48 -55l48 55h51zM51 0v700h97c62 0 114 -19 149 -55c36 -35 56 -88 56 -156v-3c0 -96 -42 -163 -110 -193l123 -293h-73l-114 274c-9 -2 -19 -2 -29 -2h-34v-272h-65zM116 330h33c84 0 139 53 139 155v3c0 106 -58 152 -142 152h-30
v-310z" />
    <glyph glyph-name="rcaron" unicode="&#x159;" horiz-adv-x="238" 
d="M221 706l-70 -127h-48l-70 127h48l47 -72l47 72h46zM48 0v528h62v-74c19 47 56 84 113 80v-71h-2c-63 0 -111 -41 -111 -129v-334h-62z" />
    <glyph glyph-name="Rcommaaccent" unicode="&#x156;" horiz-adv-x="387" 
d="M155 -191l-9 24c27 11 36 24 35 52h-29v67h66v-61c0 -48 -20 -68 -63 -82zM51 0v700h97c62 0 114 -19 149 -55c36 -35 56 -88 56 -156v-3c0 -96 -42 -163 -110 -193l123 -293h-73l-114 274c-9 -2 -19 -2 -29 -2h-34v-272h-65zM116 330h33c84 0 139 53 139 155v3
c0 106 -58 152 -142 152h-30v-310z" />
    <glyph glyph-name="rcommaaccent" unicode="&#x157;" horiz-adv-x="238" 
d="M52 -196l-9 24c27 11 36 24 35 52h-29v67h66v-61c0 -48 -20 -68 -63 -82zM48 0v528h62v-74c19 47 56 84 113 80v-71h-2c-63 0 -111 -41 -111 -129v-334h-62z" />
    <glyph glyph-name="Sacute" unicode="&#x15a;" horiz-adv-x="331" 
d="M152 -7c-43 0 -81 13 -122 35v70c47 -29 84 -43 119 -43c53 0 89 34 89 92v1c0 49 -18 85 -90 178c-91 117 -117 158 -117 226v2c0 90 65 153 147 153c42 0 74 -11 106 -28v-71c-38 25 -70 37 -103 37c-49 0 -84 -35 -84 -88v-2c0 -45 18 -78 90 -169
c88 -108 116 -161 116 -236v-1c0 -95 -66 -156 -151 -156zM145 744l69 110l62 -30l-84 -80h-47z" />
    <glyph glyph-name="sacute" unicode="&#x15b;" horiz-adv-x="280" 
d="M116 577l70 131l60 -32l-87 -99h-43zM129 -7c-39 0 -72 9 -106 25v63c37 -19 73 -31 105 -31c40 0 71 26 71 69v1c0 33 -18 65 -77 121c-72 68 -100 111 -100 168v2c0 78 58 124 128 124c34 0 59 -5 87 -17v-63c-29 14 -57 22 -87 22c-39 0 -67 -24 -67 -64v-1
c0 -33 17 -58 78 -118c72 -71 99 -114 99 -171v-2c0 -79 -61 -128 -131 -128z" />
    <glyph glyph-name="Scaron" unicode="&#x160;" horiz-adv-x="331" 
d="M152 -7c-43 0 -81 13 -122 35v70c47 -29 84 -43 119 -43c53 0 89 34 89 92v1c0 49 -18 85 -90 178c-91 117 -117 158 -117 226v2c0 90 65 153 147 153c42 0 74 -11 106 -28v-71c-38 25 -70 37 -103 37c-49 0 -84 -35 -84 -88v-2c0 -45 18 -78 90 -169
c88 -108 116 -161 116 -236v-1c0 -95 -66 -156 -151 -156zM272 850l-72 -103h-56l-72 103h53l48 -55l48 55h51z" />
    <glyph glyph-name="scaron" unicode="&#x161;" horiz-adv-x="280" 
d="M236 707l-70 -127h-48l-70 127h48l47 -72l47 72h46zM129 -7c-39 0 -72 9 -106 25v63c37 -19 73 -31 105 -31c40 0 71 26 71 69v1c0 33 -18 65 -77 121c-72 68 -100 111 -100 168v2c0 78 58 124 128 124c34 0 59 -5 87 -17v-63c-29 14 -57 22 -87 22
c-39 0 -67 -24 -67 -64v-1c0 -33 17 -58 78 -118c72 -71 99 -114 99 -171v-2c0 -79 -61 -128 -131 -128z" />
    <glyph glyph-name="Scedilla" unicode="&#x15e;" horiz-adv-x="331" 
d="M152 -115l-61 25l51 83c-39 2 -74 14 -112 35v70c47 -29 84 -43 119 -43c53 0 89 34 89 92v1c0 49 -18 85 -90 178c-91 117 -117 158 -117 226v2c0 90 65 153 147 153c42 0 74 -11 106 -28v-71c-38 25 -70 37 -103 37c-49 0 -84 -35 -84 -88v-2c0 -45 18 -78 90 -169
c88 -108 116 -161 116 -236v-1c0 -80 -47 -136 -112 -151z" />
    <glyph glyph-name="scedilla" unicode="&#x15f;" horiz-adv-x="280" 
d="M125 -115l-61 25l51 84c-33 2 -62 10 -92 24v63c37 -19 73 -31 105 -31c40 0 71 26 71 69v1c0 33 -18 65 -77 121c-72 68 -100 111 -100 168v2c0 78 58 124 128 124c34 0 59 -5 87 -17v-63c-29 14 -57 22 -87 22c-39 0 -67 -24 -67 -64v-1c0 -33 17 -58 78 -118
c72 -71 99 -114 99 -171v-2c0 -65 -42 -111 -96 -124z" />
    <glyph glyph-name="Scommaaccent" unicode="&#x218;" horiz-adv-x="331" 
d="M127 -197l-9 24c27 11 36 24 35 52h-29v67h66v-61c0 -48 -20 -68 -63 -82zM152 -7c-43 0 -81 13 -122 35v70c47 -29 84 -43 119 -43c53 0 89 34 89 92v1c0 49 -18 85 -90 178c-91 117 -117 158 -117 226v2c0 90 65 153 147 153c42 0 74 -11 106 -28v-71
c-38 25 -70 37 -103 37c-49 0 -84 -35 -84 -88v-2c0 -45 18 -78 90 -169c88 -108 116 -161 116 -236v-1c0 -95 -66 -156 -151 -156z" />
    <glyph glyph-name="scommaaccent" unicode="&#x219;" horiz-adv-x="280" 
d="M105 -197l-9 24c27 11 36 24 35 52h-29v67h66v-61c0 -48 -20 -68 -63 -82zM129 -7c-39 0 -72 9 -106 25v63c37 -19 73 -31 105 -31c40 0 71 26 71 69v1c0 33 -18 65 -77 121c-72 68 -100 111 -100 168v2c0 78 58 124 128 124c34 0 59 -5 87 -17v-63c-29 14 -57 22 -87 22
c-39 0 -67 -24 -67 -64v-1c0 -33 17 -58 78 -118c72 -71 99 -114 99 -171v-2c0 -79 -61 -128 -131 -128z" />
    <glyph glyph-name="Tcaron" unicode="&#x164;" horiz-adv-x="304" 
d="M252 845l-72 -103h-56l-72 103h53l48 -55l48 55h51zM119 0v639h-106v61h278v-61h-107v-639h-65z" />
    <glyph glyph-name="tcaron" unicode="&#x165;" horiz-adv-x="230" 
d="M163 559l8 147h49v-2l-29 -145h-28zM161 -5c-57 0 -98 23 -98 94v385h-45v54h45v145h63v-145h79v-54h-79v-370c0 -40 18 -51 49 -51c9 0 22 2 31 5v-54c-12 -5 -31 -9 -45 -9z" />
    <glyph glyph-name="Tcommaaccent" unicode="&#x162;" horiz-adv-x="304" 
d="M122 -196l-9 24c27 11 36 24 35 52h-29v67h66v-61c0 -48 -20 -68 -63 -82zM119 0v639h-106v61h278v-61h-107v-639h-65z" />
    <glyph glyph-name="tcommaaccent" unicode="&#x163;" horiz-adv-x="230" 
d="M103 -197l-9 24c27 11 36 24 35 52h-29v67h66v-61c0 -48 -20 -68 -63 -82zM161 -5c-57 0 -98 23 -98 94v385h-45v54h45v145h63v-145h79v-54h-79v-370c0 -40 18 -51 49 -51c9 0 22 2 31 5v-54c-12 -5 -31 -9 -45 -9z" />
    <glyph glyph-name="Thorn" unicode="&#xde;" horiz-adv-x="370" 
d="M51 0v700h65v-115h31c118 0 204 -79 204 -223v-2c0 -140 -77 -225 -207 -227h-28v-133h-65zM116 192h31c88 1 139 60 139 166v2c0 108 -54 165 -139 165h-31v-333z" />
    <glyph glyph-name="thorn" unicode="&#xfe;" horiz-adv-x="378" 
d="M48 -130v836h62v-270c20 53 53 101 106 101c70 0 131 -84 131 -260v-26c0 -174 -61 -260 -131 -260c-53 0 -86 48 -106 100v-221h-62zM199 49c48 0 85 73 85 204v22c0 131 -37 204 -85 204c-47 0 -91 -72 -91 -201v-28c0 -129 44 -201 91 -201z" />
    <glyph glyph-name="Uacute" unicode="&#xda;" horiz-adv-x="409" 
d="M178 734l69 110l62 -30l-84 -80h-47zM204 -9c-95 0 -157 71 -157 195v514h65v-517c0 -87 36 -132 92 -132c57 0 93 45 93 132v517h65v-514c0 -124 -63 -195 -158 -195z" />
    <glyph glyph-name="uacute" unicode="&#xfa;" horiz-adv-x="374" 
d="M159 571l70 131l60 -32l-87 -99h-43zM159 -9c-70 0 -115 59 -115 159v378h62v-367c0 -74 27 -115 74 -115s84 48 84 120v362h62v-528h-62v73c-19 -43 -50 -82 -105 -82z" />
    <glyph glyph-name="Ubreve" unicode="&#x16c;" horiz-adv-x="409" 
d="M205 733c-54 0 -94 29 -100 88h46c7 -27 24 -39 54 -39c29 0 47 12 54 39h46c-6 -59 -46 -88 -100 -88zM204 -9c-95 0 -157 71 -157 195v514h65v-517c0 -87 36 -132 92 -132c57 0 93 45 93 132v517h65v-514c0 -124 -63 -195 -158 -195z" />
    <glyph glyph-name="ubreve" unicode="&#x16d;" horiz-adv-x="374" 
d="M159 -9c-70 0 -115 59 -115 159v378h62v-367c0 -74 27 -115 74 -115s84 48 84 120v362h62v-528h-62v73c-19 -43 -50 -82 -105 -82zM186 571c-53 0 -94 31 -100 101h45c7 -35 24 -53 55 -53s48 18 55 53h45c-6 -70 -47 -101 -100 -101z" />
    <glyph glyph-name="Ucircumflex" unicode="&#xdb;" horiz-adv-x="409" 
d="M204 -9c-95 0 -157 71 -157 195v514h65v-517c0 -87 36 -132 92 -132c57 0 93 45 93 132v517h65v-514c0 -124 -63 -195 -158 -195zM105 737l72 103h56l72 -103h-53l-48 56l-48 -56h-51z" />
    <glyph glyph-name="ucircumflex" unicode="&#xfb;" horiz-adv-x="374" 
d="M92 574l70 127h48l70 -127h-48l-47 72l-47 -72h-46zM159 -9c-70 0 -115 59 -115 159v378h62v-367c0 -74 27 -115 74 -115s84 48 84 120v362h62v-528h-62v73c-19 -43 -50 -82 -105 -82z" />
    <glyph glyph-name="Udieresis" unicode="&#xdc;" horiz-adv-x="409" 
d="M230 742v75h66v-75h-66zM114 742v75h66v-75h-66zM204 -9c-95 0 -157 71 -157 195v514h65v-517c0 -87 36 -132 92 -132c57 0 93 45 93 132v517h65v-514c0 -124 -63 -195 -158 -195z" />
    <glyph glyph-name="udieresis" unicode="&#xfc;" horiz-adv-x="374" 
d="M211 580v78h62v-78h-62zM99 580v78h62v-78h-62zM159 -9c-70 0 -115 59 -115 159v378h62v-367c0 -74 27 -115 74 -115s84 48 84 120v362h62v-528h-62v73c-19 -43 -50 -82 -105 -82z" />
    <glyph glyph-name="Ugrave" unicode="&#xd9;" horiz-adv-x="409" 
d="M232 734h-47l-84 80l62 30zM204 -9c-95 0 -157 71 -157 195v514h65v-517c0 -87 36 -132 92 -132c57 0 93 45 93 132v517h65v-514c0 -124 -63 -195 -158 -195z" />
    <glyph glyph-name="ugrave" unicode="&#xf9;" horiz-adv-x="374" 
d="M159 -9c-70 0 -115 59 -115 159v378h62v-367c0 -74 27 -115 74 -115s84 48 84 120v362h62v-528h-62v73c-19 -43 -50 -82 -105 -82zM169 571l-87 99l60 32l69 -131h-42z" />
    <glyph glyph-name="Uhungarumlaut" unicode="&#x170;" horiz-adv-x="409" 
d="M204 -9c-95 0 -157 71 -157 195v514h65v-517c0 -87 36 -132 92 -132c57 0 93 45 93 132v517h65v-514c0 -124 -63 -195 -158 -195zM127 734l69 110l57 -29l-81 -81h-45zM225 734l68 110l58 -29l-82 -81h-44z" />
    <glyph glyph-name="uhungarumlaut" unicode="&#x171;" horiz-adv-x="374" 
d="M159 -9c-70 0 -115 59 -115 159v378h62v-367c0 -74 27 -115 74 -115s84 48 84 120v362h62v-528h-62v73c-19 -43 -50 -82 -105 -82zM206 571l70 131l55 -30l-83 -101h-42zM108 571l70 131l54 -30l-83 -101h-41z" />
    <glyph glyph-name="Umacron" unicode="&#x16a;" horiz-adv-x="409" 
d="M102 743v51h206v-51h-206zM204 -9c-95 0 -157 71 -157 195v514h65v-517c0 -87 36 -132 92 -132c57 0 93 45 93 132v517h65v-514c0 -124 -63 -195 -158 -195z" />
    <glyph glyph-name="umacron" unicode="&#x16b;" horiz-adv-x="374" 
d="M159 -9c-70 0 -115 59 -115 159v378h62v-367c0 -74 27 -115 74 -115s84 48 84 120v362h62v-528h-62v73c-19 -43 -50 -82 -105 -82zM89 580v50h194v-50h-194z" />
    <glyph glyph-name="Uogonek" unicode="&#x172;" horiz-adv-x="409" 
d="M249 -85v-42c-12 -1 -19 -1 -26 -1c-49 0 -71 21 -71 53c0 24 11 44 31 67c-83 10 -136 79 -136 194v514h65v-517c0 -87 36 -132 92 -132c57 0 93 45 93 132v517h65v-514c0 -114 -53 -183 -134 -193c-15 -22 -21 -37 -21 -51c0 -20 14 -27 42 -27z" />
    <glyph glyph-name="uogonek" unicode="&#x173;" horiz-adv-x="374" 
d="M159 -9c-70 0 -115 59 -115 159v378h62v-367c0 -74 27 -115 74 -115s84 48 84 120v362h62v-528h-9c-18 -26 -26 -43 -26 -58c0 -20 14 -27 42 -27v-42c-12 -1 -19 -1 -26 -1c-49 0 -71 21 -71 53c0 26 13 49 38 75h-10v73c-19 -43 -50 -82 -105 -82z" />
    <glyph glyph-name="Uring" unicode="&#x16e;" horiz-adv-x="409" 
d="M204 -9c-95 0 -157 71 -157 195v514h65v-517c0 -87 36 -132 92 -132c57 0 93 45 93 132v517h65v-514c0 -124 -63 -195 -158 -195zM204 723c-45 0 -80 33 -80 76c0 44 37 77 82 77s80 -33 80 -77c0 -43 -37 -76 -82 -76zM205 754c26 0 46 20 46 45c0 26 -20 46 -46 46
s-46 -20 -46 -46c0 -25 20 -45 46 -45z" />
    <glyph glyph-name="uring" unicode="&#x16f;" horiz-adv-x="374" 
d="M185 563c-46 0 -80 35 -80 82c0 46 36 82 82 82s80 -36 80 -82s-36 -82 -82 -82zM186 594c27 0 47 22 47 51s-20 51 -47 51s-47 -22 -47 -51s20 -51 47 -51zM159 -9c-70 0 -115 59 -115 159v378h62v-367c0 -74 27 -115 74 -115s84 48 84 120v362h62v-528h-62v73
c-19 -43 -50 -82 -105 -82z" />
    <glyph glyph-name="Wacute" unicode="&#x1e82;" horiz-adv-x="606" 
d="M275 739l69 110l62 -30l-84 -80h-47zM140 -4l-117 704h68l83 -562l100 562h60l99 -562l84 562h66l-117 -704h-65l-98 558l-99 -558h-64z" />
    <glyph glyph-name="wacute" unicode="&#x1e83;" horiz-adv-x="531" 
d="M239 576l70 131l60 -32l-87 -99h-43zM131 -3l-105 531h65l72 -416l78 416h52l76 -416l74 416h62l-104 -531h-58l-78 404l-76 -404h-58z" />
    <glyph glyph-name="Wcircumflex" unicode="&#x174;" horiz-adv-x="606" 
d="M140 -4l-117 704h68l83 -562l100 562h60l99 -562l84 562h66l-117 -704h-65l-98 558l-99 -558h-64zM202 742l72 103h56l72 -103h-53l-48 56l-48 -56h-51z" />
    <glyph glyph-name="wcircumflex" unicode="&#x175;" horiz-adv-x="531" 
d="M171 576l70 127h48l70 -127h-48l-47 72l-47 -72h-46zM131 -3l-105 531h65l72 -416l78 416h52l76 -416l74 416h62l-104 -531h-58l-78 404l-76 -404h-58z" />
    <glyph glyph-name="Wdieresis" unicode="&#x1e84;" horiz-adv-x="606" 
d="M327 747v75h66v-75h-66zM211 747v75h66v-75h-66zM140 -4l-117 704h68l83 -562l100 562h60l99 -562l84 562h66l-117 -704h-65l-98 558l-99 -558h-64z" />
    <glyph glyph-name="wdieresis" unicode="&#x1e85;" horiz-adv-x="531" 
d="M290 584v78h62v-78h-62zM178 584v78h62v-78h-62zM131 -3l-105 531h65l72 -416l78 416h52l76 -416l74 416h62l-104 -531h-58l-78 404l-76 -404h-58z" />
    <glyph glyph-name="Wgrave" unicode="&#x1e80;" horiz-adv-x="606" 
d="M329 739h-47l-84 80l62 30zM140 -4l-117 704h68l83 -562l100 562h60l99 -562l84 562h66l-117 -704h-65l-98 558l-99 -558h-64z" />
    <glyph glyph-name="wgrave" unicode="&#x1e81;" horiz-adv-x="531" 
d="M131 -3l-105 531h65l72 -416l78 416h52l76 -416l74 416h62l-104 -531h-58l-78 404l-76 -404h-58zM249 576l-87 99l60 32l69 -131h-42z" />
    <glyph glyph-name="Yacute" unicode="&#xdd;" horiz-adv-x="360" 
d="M148 0v295l-142 405h69l106 -321l107 321h66l-141 -405v-295h-65zM154 734l69 110l62 -30l-84 -80h-47z" />
    <glyph glyph-name="yacute" unicode="&#xfd;" horiz-adv-x="350" 
d="M175 116l91 412h62l-156 -658h-61l34 139l-123 519h63zM149 571l70 131l60 -32l-87 -99h-43z" />
    <glyph glyph-name="Ycircumflex" unicode="&#x176;" horiz-adv-x="360" 
d="M148 0v295l-142 405h69l106 -321l107 321h66l-141 -405v-295h-65zM81 737l72 103h56l72 -103h-53l-48 56l-48 -56h-51z" />
    <glyph glyph-name="ycircumflex" unicode="&#x177;" horiz-adv-x="350" 
d="M175 116l91 412h62l-156 -658h-61l34 139l-123 519h63zM81 574l70 127h48l70 -127h-48l-47 72l-47 -72h-46z" />
    <glyph glyph-name="Ydieresis" unicode="&#x178;" horiz-adv-x="360" 
d="M148 0v295l-142 405h69l106 -321l107 321h66l-141 -405v-295h-65zM206 742v75h66v-75h-66zM90 742v75h66v-75h-66z" />
    <glyph glyph-name="ydieresis" unicode="&#xff;" horiz-adv-x="350" 
d="M175 116l91 412h62l-156 -658h-61l34 139l-123 519h63zM88 579v78h62v-78h-62zM200 579v78h62v-78h-62z" />
    <glyph glyph-name="Ygrave" unicode="&#x1ef2;" horiz-adv-x="360" 
d="M148 0v295l-142 405h69l106 -321l107 321h66l-141 -405v-295h-65zM208 734h-47l-84 80l62 30z" />
    <glyph glyph-name="ygrave" unicode="&#x1ef3;" horiz-adv-x="350" 
d="M175 116l91 412h62l-156 -658h-61l34 139l-123 519h63zM158 571l-87 99l60 32l69 -131h-42z" />
    <glyph glyph-name="Zacute" unicode="&#x179;" horiz-adv-x="337" 
d="M28 0v45l213 597h-203v58h273v-44l-213 -597h213v-59h-283zM146 739l69 110l62 -30l-84 -80h-47z" />
    <glyph glyph-name="zacute" unicode="&#x17a;" horiz-adv-x="290" 
d="M123 576l70 131l60 -32l-87 -99h-43zM22 0v41l178 433h-169v54h236v-41l-177 -433h174v-54h-242z" />
    <glyph glyph-name="Zcaron" unicode="&#x17d;" horiz-adv-x="337" 
d="M273 845l-72 -103h-56l-72 103h53l48 -55l48 55h51zM28 0v45l213 597h-203v58h273v-44l-213 -597h213v-59h-283z" />
    <glyph glyph-name="zcaron" unicode="&#x17e;" horiz-adv-x="290" 
d="M243 706l-70 -127h-48l-70 127h48l47 -72l47 72h46zM22 0v41l178 433h-169v54h236v-41l-177 -433h174v-54h-242z" />
    <glyph glyph-name="Zdotaccent" unicode="&#x17b;" horiz-adv-x="337" 
d="M139 747v75h68v-75h-68zM28 0v45l213 597h-203v58h273v-44l-213 -597h213v-59h-283z" />
    <glyph glyph-name="zdotaccent" unicode="&#x17c;" horiz-adv-x="290" 
d="M22 0v41l178 433h-169v54h236v-41l-177 -433h174v-54h-242zM116 584v78h66v-78h-66z" />
    <glyph glyph-name="schwa" unicode="&#x259;" horiz-adv-x="349" 
d="M148 535c91 0 171 -88 171 -261v-14c0 -179 -69 -269 -149 -269c-82 0 -141 93 -141 260v40h228c-4 126 -55 185 -118 185c-33 0 -57 -10 -92 -33l-6 60c38 23 65 32 107 32zM257 239h-168c0 -113 33 -191 81 -191s84 63 87 191z" />
    <glyph glyph-name="germandbls" unicode="&#xdf;" horiz-adv-x="374" 
d="M166 -2v54c82 6 119 59 119 137v3c0 80 -39 131 -119 146v48c75 29 100 94 100 156v4c0 69 -33 106 -76 106c-49 0 -80 -49 -80 -130v-522h-62v518c0 119 54 191 144 191c81 0 136 -64 136 -157v-6c0 -88 -42 -147 -102 -176c73 -27 122 -81 122 -175v-6
c0 -113 -65 -188 -182 -191z" />
    <glyph glyph-name="zero" unicode="0" horiz-adv-x="378" 
d="M189 -9c-94 0 -154 101 -154 347v22c0 247 60 349 154 349c93 0 154 -101 154 -347v-22c0 -247 -61 -349 -154 -349zM189 51c53 0 89 82 89 288v21c0 206 -36 289 -89 289s-90 -82 -90 -288v-21c0 -206 37 -289 90 -289z" />
    <glyph glyph-name="one" unicode="1" horiz-adv-x="218" 
d="M94 0v626l-73 -38v70l85 43h52v-701h-64z" />
    <glyph glyph-name="two" unicode="2" horiz-adv-x="330" 
d="M24 0v49l158 326c33 69 49 115 49 168c0 61 -34 102 -90 102c-39 0 -71 -14 -100 -33v66c28 16 64 31 110 31c88 0 145 -62 145 -156v-5c0 -64 -19 -117 -58 -196l-140 -288h202v-64h-276z" />
    <glyph glyph-name="three" unicode="3" horiz-adv-x="315" 
d="M114 -9c-43 0 -67 7 -93 18v63c28 -12 51 -19 90 -19c59 0 113 54 113 149v7c0 90 -53 130 -142 138v44l131 244h-189v65h261v-51l-137 -254c76 -18 141 -68 141 -183v-8c0 -133 -79 -213 -175 -213z" />
    <glyph glyph-name="three.alt" horiz-adv-x="315" 
d="M109 -9c-35 0 -69 10 -90 19v61c22 -9 56 -19 84 -19c73 0 121 53 121 142v2c0 91 -54 136 -146 140v55c83 7 143 64 143 146v2c0 67 -39 109 -103 109c-30 0 -63 -11 -88 -25v60c25 14 60 26 99 26c98 0 156 -68 156 -164v-4c0 -89 -51 -145 -117 -173
c72 -22 120 -81 120 -174v-3c0 -121 -72 -200 -179 -200z" />
    <glyph glyph-name="four" unicode="4" horiz-adv-x="355" 
d="M222 0v152h-204v50l205 502h59v-496h56v-56h-56v-152h-60zM75 208h147v365z" />
    <glyph glyph-name="five" unicode="5" horiz-adv-x="329" 
d="M122 -9c-39 0 -66 9 -86 19v63c21 -10 47 -20 83 -20c67 0 116 67 116 167v5c0 105 -46 141 -99 141c-27 0 -43 -5 -62 -13l-38 25l15 322h222v-63h-170l-10 -221c16 6 32 11 57 11c78 0 149 -57 149 -201v-5c0 -138 -75 -230 -177 -230z" />
    <glyph glyph-name="six" unicode="6" horiz-adv-x="358" 
d="M183 -9c-29 0 -57 9 -80 32c-40 41 -67 125 -67 277v29c0 280 75 380 179 380c33 0 52 -7 72 -15v-65c-20 11 -41 18 -71 18c-81 0 -115 -117 -117 -252c31 30 61 45 97 45c69 0 134 -59 134 -209v-9c0 -139 -64 -231 -147 -231zM184 49c53 0 85 73 85 171v9
c0 108 -40 154 -85 154c-32 0 -58 -18 -85 -44v-63c0 -175 42 -227 85 -227z" />
    <glyph glyph-name="seven" unicode="7" horiz-adv-x="314" 
d="M65 0l154 635h-192v65h255v-51l-153 -649h-64z" />
    <glyph glyph-name="eight" unicode="8" horiz-adv-x="340" 
d="M170 -9c-86 0 -146 76 -146 191v7c0 84 38 149 89 176c-48 28 -77 84 -77 161v6c0 112 61 177 134 177s134 -65 134 -177v-6c0 -77 -30 -133 -77 -161c51 -27 89 -92 89 -176v-7c0 -115 -60 -191 -146 -191zM170 389c44 0 72 61 72 135v4c0 80 -29 126 -72 126
s-73 -46 -73 -126v-4c0 -74 29 -135 73 -135zM170 46c50 0 83 54 83 139v4c0 89 -36 146 -83 146s-83 -57 -83 -146v-4c0 -85 33 -139 83 -139z" />
    <glyph glyph-name="nine" unicode="9" horiz-adv-x="358" 
d="M141 53c80 0 114 113 117 243c-31 -29 -62 -44 -97 -44c-69 0 -134 59 -134 214v7c0 144 65 236 148 236c29 0 56 -9 80 -32c40 -41 66 -125 66 -277v-29c0 -280 -75 -380 -178 -380c-34 0 -60 8 -82 18v65c22 -12 50 -21 80 -21zM174 309c31 0 57 18 84 44v72
c0 175 -41 226 -84 226c-53 0 -85 -73 -85 -176v-7c0 -114 39 -159 85 -159z" />
    <glyph glyph-name="period" unicode="." horiz-adv-x="168" 
d="M43 0v97h82v-97h-82z" />
    <glyph glyph-name="comma" unicode="," horiz-adv-x="168" 
d="M31 -119l-12 32c49 16 64 47 60 87h-36v97h82v-82c0 -74 -27 -111 -94 -134z" />
    <glyph glyph-name="colon" unicode=":" horiz-adv-x="178" 
d="M48 431v97h82v-97h-82zM48 0v97h82v-97h-82z" />
    <glyph glyph-name="semicolon" unicode=";" horiz-adv-x="178" 
d="M48 431v97h82v-97h-82zM36 -119l-12 32c49 16 64 47 60 87h-36v97h82v-82c0 -74 -27 -111 -94 -134z" />
    <glyph glyph-name="ellipsis" unicode="&#x2026;" horiz-adv-x="541" 
d="M412 0v100h84v-100h-84zM229 0v100h84v-100h-84zM45 0v100h84v-100h-84z" />
    <glyph glyph-name="periodcentered" unicode="&#xb7;" horiz-adv-x="175" 
d="M46 251v100h84v-100h-84z" />
    <glyph glyph-name="bullet" unicode="&#x2022;" horiz-adv-x="322" 
d="M161 233c-51 0 -89 38 -89 114v14c0 76 38 114 89 114c52 0 89 -38 89 -114v-14c0 -76 -37 -114 -89 -114z" />
    <glyph glyph-name="ampersand" unicode="&#x26;" horiz-adv-x="416" 
d="M357 -9l-49 92c-33 -53 -73 -91 -139 -91c-87 0 -146 80 -146 175v6c0 79 37 155 111 220c-46 77 -66 124 -66 173v6c0 70 50 137 125 137c77 0 120 -65 120 -133v-6c0 -75 -40 -130 -107 -191l99 -185c12 42 20 86 28 142l53 -9c-10 -77 -25 -136 -45 -191l66 -115z
M179 424c53 47 76 94 76 145v5c0 43 -24 80 -63 80c-40 0 -66 -37 -66 -81v-4c0 -40 13 -76 53 -145zM175 50c46 0 76 32 103 80l-117 217c-52 -49 -74 -111 -74 -169v-7c0 -68 35 -121 88 -121z" />
    <glyph glyph-name="exclam" unicode="!" horiz-adv-x="200" 
d="M84 192l-22 452v56h76v-56l-22 -452h-32zM60 0v97h81v-97h-81z" />
    <glyph glyph-name="exclamdown" unicode="&#xa1;" horiz-adv-x="200" 
d="M60 603v97h81v-97h-81zM62 0v57l22 451h32l22 -451v-57h-76z" />
    <glyph glyph-name="question" unicode="?" horiz-adv-x="308" 
d="M105 192l-9 174l5 6c70 26 119 71 119 154v3c0 71 -48 115 -105 115c-33 0 -61 -9 -92 -27v61c28 15 59 26 101 26c92 0 160 -71 160 -169v-6c0 -103 -58 -159 -128 -192l-10 -145h-41zM88 0v97h81v-97h-81z" />
    <glyph glyph-name="questiondown" unicode="&#xbf;" horiz-adv-x="308" 
d="M138 603v97h81v-97h-81zM184 -4c-92 0 -161 71 -161 169v6c0 103 58 159 128 192l10 145h42l8 -174l-4 -6c-70 -26 -119 -71 -119 -154v-3c0 -71 47 -115 104 -115c34 0 62 9 93 27v-61c-28 -15 -59 -26 -101 -26z" />
    <glyph glyph-name="quotedblleft" unicode="&#x201c;" horiz-adv-x="316" 
d="M188 483v85c0 74 27 111 94 134l12 -32c-49 -17 -64 -48 -60 -87h36v-100h-82zM41 483v85c0 74 28 111 95 134l11 -32c-48 -17 -63 -48 -59 -87h36v-100h-83z" />
    <glyph glyph-name="quotedblright" unicode="&#x201d;" horiz-adv-x="316" 
d="M180 484l-11 31c48 17 63 48 60 88h-37v97h83v-83c0 -73 -28 -111 -95 -133zM34 484l-11 31c48 17 63 48 60 88h-37v97h83v-83c0 -73 -28 -111 -95 -133z" />
    <glyph glyph-name="quoteleft" unicode="&#x2018;" horiz-adv-x="170" 
d="M41 483v85c0 74 28 111 95 134l11 -32c-48 -17 -63 -48 -59 -87h36v-100h-83z" />
    <glyph glyph-name="quoteright" unicode="&#x2019;" horiz-adv-x="170" 
d="M34 484l-11 31c48 17 63 48 60 88h-37v97h83v-83c0 -73 -28 -111 -95 -133z" />
    <glyph glyph-name="quotedblbase" unicode="&#x201e;" horiz-adv-x="326" 
d="M183 -119l-12 32c51 17 67 47 63 87h-36v97h82v-82c0 -74 -27 -111 -97 -134zM34 -119l-12 32c51 17 67 47 63 87h-36v97h82v-82c0 -74 -27 -111 -97 -134z" />
    <glyph glyph-name="quotesinglbase" unicode="&#x201a;" horiz-adv-x="177" 
d="M34 -119l-12 32c51 17 67 47 63 87h-36v97h82v-82c0 -74 -27 -111 -97 -134z" />
    <glyph glyph-name="guillemotleft" unicode="&#xab;" horiz-adv-x="370" 
d="M157 43l-127 212v8l127 211l44 -25l-104 -189l105 -192zM295 43l-127 212v8l127 211l44 -25l-104 -189l105 -192z" />
    <glyph glyph-name="guillemotright" unicode="&#xbb;" horiz-adv-x="370" 
d="M213 474l127 -211v-8l-127 -212l-44 25l104 190l-105 191zM75 474l127 -211v-8l-127 -212l-44 25l104 190l-105 191z" />
    <glyph glyph-name="guilsinglleft" unicode="&#x2039;" horiz-adv-x="232" 
d="M157 43l-127 212v8l127 211l44 -25l-104 -189l105 -192z" />
    <glyph glyph-name="guilsinglright" unicode="&#x203a;" horiz-adv-x="232" 
d="M75 474l127 -211v-8l-127 -212l-44 25l104 190l-105 191z" />
    <glyph glyph-name="hyphen" unicode="-" horiz-adv-x="286" 
d="M40 269v62h207v-62h-207z" />
    <glyph glyph-name="endash" unicode="&#x2013;" horiz-adv-x="414" 
d="M40 269v61h334v-61h-334z" />
    <glyph glyph-name="emdash" unicode="&#x2014;" horiz-adv-x="604" 
d="M40 269v61h524v-61h-524z" />
    <glyph glyph-name="underscore" unicode="_" horiz-adv-x="452" 
d="M-2 -156v50h456v-50h-456z" />
    <glyph glyph-name="slash" unicode="/" horiz-adv-x="273" 
d="M-5 -98l218 866h54l-218 -866h-54z" />
    <glyph glyph-name="backslash" unicode="\" horiz-adv-x="273" 
d="M224 -98l-218 866h54l218 -866h-54z" />
    <glyph glyph-name="bar" unicode="|" horiz-adv-x="225" 
d="M87 -98v866h51v-866h-51z" />
    <glyph glyph-name="parenleft" unicode="(" horiz-adv-x="252" 
d="M234 -138c-122 68 -196 219 -196 427c0 209 74 359 196 427v-49c-82 -68 -135 -191 -135 -378s53 -309 135 -377v-50z" />
    <glyph glyph-name="parenright" unicode=")" horiz-adv-x="252" 
d="M18 -138v50c83 68 135 190 135 377s-52 310 -135 378v49c123 -68 197 -218 197 -427c0 -208 -74 -359 -197 -427z" />
    <glyph glyph-name="bracketleft" unicode="[" horiz-adv-x="262" 
d="M74 -130v830h154v-47h-96v-736h96v-47h-154z" />
    <glyph glyph-name="bracketright" unicode="]" horiz-adv-x="262" 
d="M34 -130v47h96v736h-96v47h154v-830h-154z" />
    <glyph glyph-name="braceleft" unicode="{" horiz-adv-x="278" 
d="M254 -137c-111 4 -155 61 -155 137c0 61 37 105 37 173c0 45 -30 92 -104 92h-12v47h12c74 0 104 49 104 92c0 68 -37 112 -37 181c0 64 44 126 155 131v-44c-60 -2 -96 -37 -96 -89c0 -67 37 -108 37 -173c0 -56 -30 -110 -101 -122c71 -12 101 -64 101 -120
c0 -65 -37 -107 -37 -173c0 -51 36 -86 96 -88v-44z" />
    <glyph glyph-name="braceright" unicode="}" horiz-adv-x="278" 
d="M24 -137v44c60 2 96 37 96 88c0 67 -37 109 -37 174c0 55 30 109 101 121c-71 13 -101 64 -101 120c0 65 37 107 37 174c0 51 -36 86 -96 88v44c111 -5 155 -62 155 -138c0 -61 -37 -105 -37 -173c0 -44 30 -91 104 -91h12v-48h-12c-74 0 -104 -48 -104 -92
c0 -68 37 -111 37 -180c0 -65 -44 -127 -155 -131z" />
    <glyph glyph-name="at" unicode="@" horiz-adv-x="635" 
d="M299 -134c-150 0 -267 115 -266 348c0 257 121 495 324 495c155 0 244 -140 244 -313c0 -164 -60 -324 -156 -324c-57 0 -83 43 -79 100c-28 -56 -65 -101 -115 -101c-47 0 -85 47 -85 123c0 164 76 314 159 314c48 0 70 -40 79 -90l14 75l55 -10l-49 -256
c-4 -21 -6 -45 -6 -67c0 -30 10 -52 35 -52c68 0 116 156 116 288c0 153 -73 282 -214 282c-187 0 -291 -240 -291 -463c-1 -211 99 -319 236 -319c61 0 103 15 150 43l16 -25c-54 -32 -97 -48 -167 -48zM270 122c14 0 29 9 42 22c38 38 75 134 75 218c0 56 -22 92 -53 92
c-15 0 -28 -7 -41 -19c-45 -46 -70 -156 -70 -237c0 -50 19 -76 47 -76z" />
    <glyph glyph-name="copyright" unicode="&#xa9;" horiz-adv-x="523" 
d="M261 -10c-144 0 -237 149 -237 343v35c0 195 93 343 237 343s238 -148 238 -343v-35c0 -194 -94 -343 -238 -343zM261 18c131 0 208 139 208 315v35c0 176 -77 315 -208 315s-208 -139 -208 -315v-35c0 -176 77 -315 208 -315zM271 152c-59 0 -107 59 -107 192v13
c0 133 50 192 110 192c17 0 31 -4 43 -11v-47c-16 10 -28 14 -40 14c-36 0 -67 -43 -67 -146v-17c0 -105 30 -146 67 -146c13 0 25 4 41 14v-46c-15 -9 -29 -12 -47 -12z" />
    <glyph glyph-name="published" unicode="&#x2117;" horiz-adv-x="523" 
d="M261 -10c-144 0 -237 149 -237 343v35c0 195 93 343 237 343s238 -148 238 -343v-35c0 -194 -94 -343 -238 -343zM261 18c131 0 208 139 208 315v35c0 176 -77 315 -208 315s-208 -139 -208 -315v-35c0 -176 77 -315 208 -315zM192 164v385h56c66 0 115 -43 115 -124v-2
c0 -80 -47 -125 -112 -127h-16v-132h-43zM235 338h17c42 1 67 29 67 84v1c0 56 -26 84 -67 84h-17v-169z" />
    <glyph glyph-name="registered.alt" horiz-adv-x="523" 
d="M261 -10c-144 0 -237 149 -237 343v35c0 195 93 343 237 343s238 -148 238 -343v-35c0 -194 -94 -343 -238 -343zM261 18c131 0 208 139 208 315v35c0 176 -77 315 -208 315s-208 -139 -208 -315v-35c0 -176 77 -315 208 -315zM183 164v385h62c34 0 63 -11 82 -30
c20 -20 31 -50 31 -87v-4c0 -51 -22 -87 -56 -104l65 -160h-47l-58 146c-7 -1 -9 -1 -14 -1h-22v-145h-43zM226 350h20c41 0 69 24 69 78v2c0 54 -30 77 -71 77h-18v-157z" />
    <glyph glyph-name="registered" unicode="&#xae;" horiz-adv-x="312" 
d="M156 355c-75 0 -127 73 -127 172v18c0 99 52 172 127 172s127 -73 127 -172v-18c0 -99 -52 -172 -127 -172zM156 374c66 0 106 66 106 153v18c0 86 -40 153 -106 153s-106 -67 -106 -153v-18c0 -87 40 -153 106 -153zM112 444v191h38c37 0 60 -22 60 -59v-1
c0 -28 -12 -44 -29 -53l34 -78h-28l-31 71c-4 -1 -7 -1 -9 -1h-9v-70h-26zM138 537h12c20 0 34 12 34 38c0 24 -14 36 -35 36h-11v-74z" />
    <glyph glyph-name="servicemark" unicode="&#x2120;" horiz-adv-x="422" 
d="M202 385v315h47l45 -141l44 141h47v-315h-39v239l-51 -159h-3l-51 159v-239h-39zM89 382c-21 0 -42 5 -60 15v43c21 -13 40 -20 57 -20c22 0 36 13 36 36c0 19 -8 35 -38 68c-40 46 -56 67 -56 103c0 45 32 76 73 76c19 0 37 -5 51 -12v-44c-17 11 -33 18 -49 18
c-19 0 -34 -15 -34 -36c0 -19 9 -32 38 -65c41 -46 56 -71 56 -107c0 -45 -33 -75 -74 -75z" />
    <glyph glyph-name="trademark" unicode="&#x2122;" horiz-adv-x="400" 
d="M180 385v315h47l45 -141l45 141h46v-315h-38v239l-52 -159h-3l-51 159v-239h-39zM54 385v277h-47v38h135v-38h-48v-277h-40z" />
    <glyph glyph-name="asterisk" unicode="*" horiz-adv-x="283" 
d="M118 422l10 115l-80 -63l-25 41l93 47l-93 46l25 42l80 -63l-10 114h48l-11 -114l81 63l24 -42l-93 -46l93 -47l-24 -41l-81 63l11 -115h-48z" />
    <glyph glyph-name="dagger" unicode="&#x2020;" horiz-adv-x="233" 
d="M91 238l9 285l-82 -10v53l82 -10l-12 144h58l-12 -144l81 10v-53l-81 10l9 -285h-52z" />
    <glyph glyph-name="daggerdbl" unicode="&#x2021;" horiz-adv-x="255" 
d="M98 0l13 144l-82 -10v53l82 -10l-11 173l11 173l-82 -10v53l82 -10l-12 144h58l-12 -144l81 10v-53l-81 10l11 -173l-11 -173l81 10v-53l-81 10l11 -144h-58z" />
    <glyph glyph-name="dollar" unicode="$" horiz-adv-x="343" 
d="M293 674v-67c-39 24 -68 36 -100 38v-258c89 -72 123 -132 123 -213v-2c0 -88 -49 -156 -123 -173v-100h-46v95c-44 2 -79 13 -116 33v67c45 -28 77 -39 116 -40v283c-77 59 -121 110 -121 202v2c0 82 49 144 121 160v69h46v-65c37 -2 71 -14 100 -31zM252 175
c0 49 -18 88 -59 127v-241c40 17 59 61 59 112v2zM90 540c0 -54 20 -85 57 -119v216c-35 -15 -57 -50 -57 -95v-2z" />
    <glyph glyph-name="sterling" unicode="&#xa3;" horiz-adv-x="330" 
d="M29 0v37l50 20v257h-52v57h52v156c0 63 16 109 48 141c26 25 60 39 101 39c30 0 48 -4 64 -10v-63c-15 6 -34 12 -57 12c-25 0 -45 -8 -62 -25c-20 -19 -30 -53 -30 -95v-155h120v-57h-120v-256h174v-58h-288z" />
    <glyph glyph-name="Euro" unicode="&#x20ac;" horiz-adv-x="364" 
d="M331 689v-69c-26 15 -45 23 -68 23c-59 0 -108 -62 -124 -184h143v-50h-148c-1 -16 -1 -33 -1 -49v-20c0 -16 0 -30 1 -44h148v-50h-144c16 -129 66 -189 125 -189c23 0 47 9 70 24v-66c-23 -14 -47 -21 -81 -21c-86 0 -160 81 -180 252h-60v50h56v44v20c0 16 0 33 1 49
h-57v50h61c21 166 98 247 186 247c32 0 49 -6 72 -17z" />
    <glyph glyph-name="yen" unicode="&#xa5;" horiz-adv-x="358" 
d="M54 268v50h83l-131 382h68l106 -335l106 335h66l-131 -382h84v-50h-95v-88h95v-51h-95v-129h-62v129h-94v51h94v88h-94z" />
    <glyph glyph-name="cent" unicode="&#xa2;" horiz-adv-x="293" 
d="M194 704v-82c27 -2 49 -9 67 -19v-64c-19 11 -43 21 -67 22v-422c22 1 47 11 67 24v-62c-18 -11 -41 -20 -67 -22v-84h-46v88c-71 19 -116 102 -116 259v16c0 157 47 238 116 258v88h46zM95 340c0 -108 20 -166 53 -189v397c-32 -22 -53 -79 -53 -188v-20z" />
    <glyph glyph-name="baht" unicode="&#xe3f;" horiz-adv-x="378" 
d="M161 -121h-48l13 121h-1h-74v700h89c19 0 37 -2 54 -6l10 89h47l-11 -103c60 -27 98 -81 98 -156v-3c0 -99 -57 -145 -124 -166c77 -21 130 -72 130 -167v-3c0 -102 -66 -166 -169 -182zM279 191c0 62 -29 104 -79 122l-22 -248c63 13 101 55 101 123v3zM115 382h16
c13 0 25 1 37 3l21 249c-14 4 -30 6 -46 6h-28v-258zM115 60h14h5l22 263c-7 0 -15 1 -22 1h-19v-264zM274 517c0 42 -16 74 -42 95l-19 -212c40 22 61 61 61 115v2z" />
    <glyph glyph-name="colonmonetary" unicode="&#x20a1;" horiz-adv-x="352" 
d="M275 779h36l-9 -86c10 -4 19 -9 28 -14v-69c-13 8 -25 16 -38 22l-59 -573c6 -1 11 -1 17 -1c31 0 59 16 83 33v-66c-24 -16 -50 -29 -93 -29c-4 0 -8 0 -11 1l-13 -115h-36l14 121c-19 6 -36 15 -52 29l-16 -150h-36l21 183c-41 56 -67 147 -67 275v20
c0 182 55 289 132 327l9 92h36l-8 -79c11 3 22 4 34 4c7 0 14 0 20 -1zM150 123c15 -27 34 -45 55 -55l59 573c-5 0 -10 1 -15 1c-17 0 -32 -4 -47 -12zM108 340c0 -66 7 -120 19 -162l43 427c-38 -43 -62 -123 -62 -245v-20z" />
    <glyph glyph-name="florin" unicode="&#x192;" horiz-adv-x="326" 
d="M54 -5c-19 0 -33 4 -44 7v58c8 -2 22 -6 36 -6c29 0 47 21 52 69l24 259h-54v52h58l14 148c7 79 48 123 113 123c25 0 45 -5 60 -10v-61c-14 6 -31 10 -51 10c-32 0 -55 -24 -59 -74l-14 -136h94v-52h-98l-24 -265c-8 -86 -45 -122 -107 -122z" />
    <glyph glyph-name="naira" unicode="&#x20a6;" horiz-adv-x="494" 
d="M479 229h-71v-229h-77l-71 230h-111v-230h-62v229h-72v53h72v140h-72v54h72v224h81l69 -226h108v226h63v-224h71v-54h-71v-140h71v-53zM149 575v-293h92zM256 422l89 -285v285h-89z" />
    <glyph glyph-name="peso" unicode="&#x20b1;" horiz-adv-x="449" 
d="M75 0v445h-72v54h72v201h85c120 0 199 -73 207 -201h73v-54h-74c-10 -123 -85 -200 -205 -202h-21v-243h-65zM164 302c80 0 129 54 137 144h-161v-144h24zM140 640v-142h162c-7 93 -60 142 -139 142h-23z" />
    <glyph glyph-name="R_p" horiz-adv-x="671" 
d="M42 0v700h82c113 0 189 -73 189 -213v-4c0 -97 -36 -163 -98 -195l109 -288h-68l-102 270c-5 -1 -14 -2 -23 -2h-28v-268h-61zM103 323h28c73 0 121 56 121 160v3c0 109 -53 157 -130 157h-19v-320zM371 -130v661h60v-87c18 47 48 95 96 95c64 0 119 -86 119 -262v-26
c0 -174 -55 -259 -119 -259c-48 0 -78 45 -96 91v-213h-60zM511 47c44 0 74 74 74 205v24c0 131 -30 208 -74 208c-43 0 -82 -76 -82 -205v-30c0 -129 39 -202 82 -202z" />
    <glyph glyph-name="rupee" unicode="&#x20a8;" horiz-adv-x="597" 
d="M42 0v700h82c113 0 189 -73 189 -213v-4c0 -97 -36 -163 -98 -195l109 -288h-68l-102 270c-5 -1 -14 -2 -23 -2h-28v-268h-61zM103 323h28c73 0 121 56 121 160v3c0 109 -53 157 -130 157h-19v-320zM454 -7c-38 0 -70 9 -103 24v61c36 -20 70 -30 102 -30
c38 0 68 27 68 70v2c0 34 -17 66 -74 123c-69 68 -96 109 -96 166v2c0 78 56 124 123 124c34 0 57 -5 85 -16v-60c-28 14 -55 21 -84 21c-38 0 -65 -27 -65 -66v-2c0 -34 16 -60 75 -120c69 -71 95 -112 95 -169v-2c0 -79 -59 -128 -126 -128z" />
    <glyph glyph-name="won" unicode="&#x20a9;" horiz-adv-x="637" 
d="M581 700l-30 -224h81v-53h-88l-19 -141h107v-54h-114l-31 -231h-73l-37 231h-117l-37 -231h-74l-31 231h-113v53h106l-19 142h-87v53h80l-29 224h66l25 -224h102l34 224h72l35 -224h100l26 224h65zM318 587l-50 -306h99l-47 306h-2zM187 109h3l49 314h-87zM448 109h3
l34 314h-86z" />
    <glyph glyph-name="sheqel" unicode="&#x20aa;" horiz-adv-x="412" 
d="M150 139l-18 203h45l17 -179c6 -70 21 -103 71 -103h55v457h51v-517h-111c-68 0 -101 42 -110 139zM227 353c0 73 -19 104 -64 104h-70v-457h-52v517h131c62 0 100 -44 100 -143v-191h-45v170z" />
    <glyph glyph-name="numbersign" unicode="#" horiz-adv-x="385" 
d="M347 237v-58h-73l-14 -179h-46l14 179h-98l-14 -179h-47l14 179h-63v58h68l18 227h-68v58h72l15 178h46l-14 -178h98l14 178h47l-14 -178h63v-58h-68l-18 -227h68zM152 464l-18 -227h98l18 227h-98z" />
    <glyph glyph-name="paragraph" unicode="&#xb6;" horiz-adv-x="334" 
d="M217 0v249c-120 3 -199 86 -199 226v2c0 144 85 223 209 223h56v-700h-66z" />
    <glyph glyph-name="section" unicode="&#xa7;" horiz-adv-x="373" 
d="M247 213c38 -31 53 -58 53 -99v-2c0 -69 -55 -120 -133 -120c-35 0 -59 5 -87 17v63c30 -15 58 -23 87 -23c43 0 71 27 71 62v3c0 38 -25 60 -97 101c-85 50 -120 83 -120 142v2c0 49 32 96 106 128c-39 31 -54 58 -54 99v2c0 69 55 120 134 120c35 0 59 -5 86 -17v-63
c-30 15 -58 23 -87 23c-43 0 -71 -27 -71 -62v-3c0 -38 26 -60 97 -101c85 -50 121 -83 121 -142v-2c0 -50 -32 -95 -106 -128zM208 243c61 27 83 60 83 92v2c0 34 -21 58 -99 104l-27 16c-60 -27 -83 -60 -83 -92v-2c0 -34 21 -58 99 -104c8 -5 20 -11 27 -16z" />
    <glyph glyph-name="ordfeminine" unicode="&#xaa;" horiz-adv-x="250" 
d="M105 403c-36 0 -64 35 -64 88v7c0 58 29 92 73 92c14 0 28 -3 42 -10v27c0 35 -17 55 -47 55c-18 0 -34 -5 -52 -14v41c15 8 35 14 57 14c30 0 53 -11 66 -29c12 -15 18 -37 18 -64v-202h-42v33c-12 -24 -30 -38 -51 -38zM40 317v33h171v-33h-171zM116 439
c22 0 40 27 40 60v48c-10 4 -22 8 -35 8c-25 0 -39 -22 -39 -55v-6c0 -33 11 -55 34 -55z" />
    <glyph glyph-name="ordmasculine" unicode="&#xba;" horiz-adv-x="250" 
d="M125 402c-52 0 -86 57 -86 145v12c0 88 34 145 86 145s86 -57 86 -145v-12c0 -88 -34 -145 -86 -145zM44 317v33h164v-33h-164zM125 441c31 0 44 47 44 106v12c0 59 -13 106 -44 106s-44 -47 -44 -106v-12c0 -59 13 -106 44 -106z" />
    <glyph glyph-name="degree" unicode="&#xb0;" horiz-adv-x="255" 
d="M128 391c-59 0 -103 58 -103 154v9c0 95 44 153 103 153c58 0 102 -58 102 -153v-9c0 -96 -44 -154 -102 -154zM128 437c33 0 55 38 55 108v9c0 69 -22 107 -55 107c-34 0 -56 -38 -56 -107v-9c0 -70 22 -108 56 -108z" />
    <glyph glyph-name="percent" unicode="%" horiz-adv-x="519" 
d="M132 362c-59 0 -106 60 -106 166v11c0 106 47 166 106 166c58 0 105 -60 105 -166v-11c0 -106 -47 -166 -105 -166zM132 656c-33 0 -56 -41 -56 -117v-11c0 -76 23 -116 56 -116s56 40 56 116v11c0 76 -23 117 -56 117zM241 359l154 341h46l-163 -359l-154 -341h-46z
M387 -5c-58 0 -105 60 -105 166v11c0 106 47 166 105 166c59 0 105 -60 105 -166v-11c0 -106 -46 -166 -105 -166zM387 44c33 0 56 41 56 117v11c0 76 -23 116 -56 116s-56 -40 -56 -116v-11c0 -76 23 -117 56 -117z" />
    <glyph glyph-name="perthousand" unicode="&#x2030;" horiz-adv-x="774" 
d="M132 412c33 0 56 40 56 116v11c0 76 -23 117 -56 117s-56 -41 -56 -117v-11c0 -76 23 -116 56 -116zM132 362c-59 0 -106 60 -106 166v11c0 106 47 166 106 166c58 0 105 -60 105 -166v-11c0 -106 -47 -166 -105 -166zM441 700l-163 -359l-154 -341h-46l163 359l154 341
h46zM387 44c33 0 56 41 56 117v11c0 76 -23 116 -56 116s-56 -40 -56 -116v-11c0 -76 23 -117 56 -117zM387 -5c-58 0 -105 60 -105 166v11c0 106 47 166 105 166c59 0 105 -60 105 -166v-11c0 -106 -46 -166 -105 -166zM642 44c33 0 56 41 56 117v11c0 76 -23 116 -56 116
s-57 -40 -57 -116v-11c0 -76 24 -117 57 -117zM642 -5c-59 0 -106 60 -106 166v11c0 106 47 166 106 166c58 0 105 -60 105 -166v-11c0 -106 -47 -166 -105 -166z" />
    <glyph glyph-name="quotedbl" unicode="&#x22;" horiz-adv-x="262" 
d="M165 437v263h69v-9l-43 -254h-26zM44 437v263h69v-9l-43 -254h-26z" />
    <glyph glyph-name="quotesingle" unicode="'" horiz-adv-x="133" 
d="M44 437v263h69v-9l-43 -254h-26z" />
    <glyph glyph-name="plus" unicode="+" horiz-adv-x="351" 
d="M146 198v124h-119v60h119v124h59v-124h119v-60h-119v-124h-59z" />
    <glyph glyph-name="minus" unicode="&#x2212;" horiz-adv-x="351" 
d="M323 320h-295v64h295v-64z" />
    <glyph glyph-name="divide" unicode="&#xf7;" horiz-adv-x="351" 
d="M140 448v83h71v-83h-71zM323 321h-295v62h295v-62zM140 173v83h71v-83h-71z" />
    <glyph glyph-name="equal" unicode="=" horiz-adv-x="351" 
d="M31 397v63h289v-63h-289zM31 244v63h289v-63h-289z" />
    <glyph glyph-name="multiply" unicode="&#xd7;" horiz-adv-x="351" 
d="M265 207l-90 102l-90 -102l-44 38l96 107l-96 107l44 38l90 -102l91 102l44 -38l-96 -107l96 -107z" />
    <glyph glyph-name="less" unicode="&#x3c;" horiz-adv-x="351" 
d="M304 161l-267 162v58l267 162v-74l-201 -117l201 -116v-75z" />
    <glyph glyph-name="greater" unicode="&#x3e;" horiz-adv-x="351" 
d="M47 161v74l201 117l-201 116v75l267 -162v-58z" />
    <glyph glyph-name="plusminus" unicode="&#xb1;" horiz-adv-x="351" 
d="M324 322h-119v-124h-59v124h-119v60h119v124h59v-124h119v-60zM323 71h-295v59h295v-59z" />
    <glyph glyph-name="onehalf" unicode="&#xbd;" horiz-adv-x="495" 
d="M274 0v33l104 149c21 32 33 55 33 78c0 31 -23 47 -50 47c-31 0 -56 -19 -76 -42v51c18 19 44 35 82 35c51 0 91 -32 91 -87c0 -35 -14 -63 -39 -99l-83 -121h125v-44h-187zM134 353h-47v295l-63 -33v46l71 40h39v-348zM51 0l147 360l136 341h43l-147 -360l-137 -341h-42
z" />
    <glyph glyph-name="onehalf.alt" horiz-adv-x="540" 
d="M206 353h-184v41h73v257l-72 -36v48l80 40h38v-309h65v-41zM334 0v33l104 149c21 32 33 55 33 78c0 31 -23 47 -50 47c-31 0 -56 -19 -76 -42v51c18 19 44 35 82 35c51 0 91 -32 91 -87c0 -35 -14 -63 -39 -99l-83 -121h125v-44h-187zM115 0l147 360l136 341h43
l-147 -360l-137 -341h-42z" />
    <glyph glyph-name="onethird" unicode="&#x2153;" horiz-adv-x="495" 
d="M365 -4c-30 0 -56 12 -72 24v48c19 -18 44 -30 71 -30c33 0 63 19 63 61c0 40 -30 61 -95 62h-1v32l83 110h-120v44h178v-33l-89 -116c51 -9 91 -38 91 -98c0 -66 -47 -104 -109 -104zM133 353h-47v295l-63 -33v46l71 40h39v-348zM50 0l147 360l136 341h43l-147 -360
l-137 -341h-42z" />
    <glyph glyph-name="onethird.alt" horiz-adv-x="540" 
d="M206 353h-184v41h73v257l-72 -36v48l80 40h38v-309h65v-41zM413 -4c-30 0 -56 12 -72 24v48c19 -18 44 -30 71 -30c33 0 63 19 63 61c0 40 -30 61 -95 62h-1v32l83 110h-120v44h178v-33l-89 -116c51 -9 91 -38 91 -98c0 -66 -47 -104 -109 -104zM110 0l147 360l136 341
h43l-147 -360l-137 -341h-42z" />
    <glyph glyph-name="twothirds" unicode="&#x2154;" horiz-adv-x="540" 
d="M416 -4c-30 0 -56 12 -72 24v48c19 -18 44 -30 71 -30c33 0 63 19 63 61c0 40 -30 61 -95 62h-1v32l83 110h-120v44h178v-33l-89 -116c51 -9 91 -38 91 -98c0 -66 -47 -104 -109 -104zM21 353v33l104 149c21 32 33 55 33 78c0 31 -23 47 -50 47c-31 0 -56 -19 -76 -42v51
c18 19 44 35 82 35c51 0 91 -32 91 -87c0 -35 -14 -63 -39 -99l-83 -121h125v-44h-187zM108 0l147 360l136 341h43l-147 -360l-137 -341h-42z" />
    <glyph glyph-name="onequarter" unicode="&#xbc;" horiz-adv-x="495" 
d="M134 353h-47v295l-63 -33v46l71 40h39v-348zM76 0l147 360l136 341h43l-147 -360l-137 -341h-42zM435 70v-70h-42v70h-130v36l115 243h57v-240h33v-39h-33zM394 109v177h-5l-83 -177h88z" />
    <glyph glyph-name="onequarter.alt" horiz-adv-x="540" 
d="M211 353h-184v41h73v257l-72 -36v48l80 40h38v-309h65v-41zM125 0l147 360l136 341h43l-147 -360l-137 -341h-42zM488 70v-70h-42v70h-130v36l115 243h57v-240h33v-39h-33zM447 109v177h-5l-83 -177h88z" />
    <glyph glyph-name="threequarters" unicode="&#xbe;" horiz-adv-x="540" 
d="M103 349c-30 0 -56 12 -72 24v48c19 -18 44 -30 71 -30c33 0 63 19 63 61c0 40 -30 61 -95 62h-1v32l83 110h-120v44h178v-33l-89 -116c51 -9 91 -38 91 -98c0 -66 -47 -104 -109 -104zM124 0l147 360l136 341h43l-147 -360l-137 -341h-42zM485 70v-70h-42v70h-130v36
l115 243h57v-240h33v-39h-33zM444 109v177h-5l-83 -177h88z" />
    <glyph glyph-name="onefifth" unicode="&#x2155;" horiz-adv-x="495" 
d="M358 -4c-25 0 -53 8 -72 22v48c17 -15 43 -28 69 -28c42 0 62 30 62 71c0 46 -26 64 -58 64c-18 0 -32 -4 -44 -11l-29 13l12 172h151v-43h-113c0 -6 -7 -89 -8 -94c11 3 24 6 38 6c55 0 99 -34 99 -106c0 -70 -45 -114 -107 -114zM134 353h-47v295l-63 -33v46l71 40h39
v-348zM50 0l147 360l136 341h43l-147 -360l-137 -341h-42z" />
    <glyph glyph-name="onefifth.alt" horiz-adv-x="540" 
d="M206 353h-184v41h73v257l-72 -36v48l80 40h38v-309h65v-41zM416 -4c-25 0 -53 8 -72 22v48c17 -15 43 -28 69 -28c42 0 62 30 62 71c0 46 -26 64 -58 64c-18 0 -32 -4 -44 -11l-29 13l12 172h151v-43h-113c0 -6 -7 -89 -8 -94c11 3 24 6 38 6c55 0 99 -34 99 -106
c0 -70 -45 -114 -107 -114zM115 0l147 360l136 341h43l-147 -360l-137 -341h-42z" />
    <glyph glyph-name="twofifths" unicode="&#x2156;" horiz-adv-x="540" 
d="M21 353v33l104 149c21 32 33 55 33 78c0 31 -23 47 -50 47c-31 0 -56 -19 -76 -42v51c18 19 44 35 82 35c51 0 91 -32 91 -87c0 -35 -14 -63 -39 -99l-83 -121h125v-44h-187zM113 0l147 360l136 341h43l-147 -360l-137 -341h-42zM421 -4c-25 0 -53 8 -72 22v48
c17 -15 43 -28 69 -28c42 0 62 30 62 71c0 46 -26 64 -58 64c-18 0 -32 -4 -44 -11l-29 13l12 172h151v-43h-113c0 -6 -7 -89 -8 -94c11 3 24 6 38 6c55 0 99 -34 99 -106c0 -70 -45 -114 -107 -114z" />
    <glyph glyph-name="threefifths" unicode="&#x2157;" horiz-adv-x="540" 
d="M421 -4c-25 0 -53 8 -72 22v48c17 -15 43 -28 69 -28c42 0 62 30 62 71c0 46 -26 64 -58 64c-18 0 -32 -4 -44 -11l-29 13l12 172h151v-43h-113c0 -6 -7 -89 -8 -94c11 3 24 6 38 6c55 0 99 -34 99 -106c0 -70 -45 -114 -107 -114zM105 0l147 360l136 341h43l-147 -360
l-137 -341h-42zM97 349c-30 0 -56 12 -72 24v48c19 -18 44 -30 71 -30c33 0 63 19 63 61c0 40 -30 61 -95 62h-1v32l83 110h-120v44h178v-33l-89 -116c51 -9 91 -38 91 -98c0 -66 -47 -104 -109 -104z" />
    <glyph glyph-name="fourfifths" unicode="&#x2158;" horiz-adv-x="540" 
d="M182 423v-70h-42v70h-130v36l115 243h57v-240h33v-39h-33zM141 462v177h-5l-83 -177h88zM421 -4c-25 0 -53 8 -72 22v48c17 -15 43 -28 69 -28c42 0 62 30 62 71c0 46 -26 64 -58 64c-18 0 -32 -4 -44 -11l-29 13l12 172h151v-43h-113c0 -6 -7 -89 -8 -94c11 3 24 6 38 6
c55 0 99 -34 99 -106c0 -70 -45 -114 -107 -114zM107 0l147 360l136 341h43l-147 -360l-137 -341h-42z" />
    <glyph glyph-name="onesixth" unicode="&#x2159;" horiz-adv-x="495" 
d="M365 -4c-21 0 -42 7 -58 22c-22 23 -36 63 -36 132v13c0 137 48 188 115 188c22 0 38 -5 50 -12l-1 -47c-15 10 -30 16 -48 16c-41 0 -65 -38 -69 -107c14 12 32 22 58 22c43 0 84 -31 84 -110c0 -72 -41 -117 -95 -117zM366 38c31 0 49 28 49 75c0 49 -21 69 -49 69
c-18 0 -35 -8 -48 -23v-23c0 -79 22 -98 48 -98zM134 353h-47v295l-63 -33v46l71 40h39v-348zM56 0l147 360l136 341h43l-147 -360l-137 -341h-42z" />
    <glyph glyph-name="onesixth.alt" horiz-adv-x="540" 
d="M206 353h-184v41h73v257l-72 -36v48l80 40h38v-309h65v-41zM432 -4c-21 0 -42 7 -58 22c-22 23 -36 63 -36 132v13c0 137 48 188 115 188c22 0 38 -5 50 -12l-1 -47c-15 10 -30 16 -48 16c-41 0 -65 -38 -69 -107c14 12 32 22 58 22c43 0 84 -31 84 -110
c0 -72 -41 -117 -95 -117zM433 38c31 0 49 28 49 75c0 49 -21 69 -49 69c-18 0 -35 -8 -48 -23v-23c0 -79 22 -98 48 -98zM120 0l147 360l136 341h43l-147 -360l-137 -341h-42z" />
    <glyph glyph-name="fivesixths" unicode="&#x215a;" horiz-adv-x="540" 
d="M425 -4c-21 0 -42 7 -58 22c-22 23 -36 63 -36 132v13c0 137 48 188 115 188c22 0 38 -5 50 -12l-1 -47c-15 10 -30 16 -48 16c-41 0 -65 -38 -69 -107c14 12 32 22 58 22c43 0 84 -31 84 -110c0 -72 -41 -117 -95 -117zM426 38c31 0 49 28 49 75c0 49 -21 69 -49 69
c-18 0 -35 -8 -48 -23v-23c0 -79 22 -98 48 -98zM103 349c-25 0 -53 8 -72 22v48c17 -15 43 -28 69 -28c42 0 62 30 62 71c0 46 -26 64 -58 64c-18 0 -32 -4 -44 -11l-29 13l12 172h151v-43h-113c0 -6 -7 -89 -8 -94c11 3 24 6 38 6c55 0 99 -34 99 -106
c0 -70 -45 -114 -107 -114zM105 0l147 360l136 341h43l-147 -360l-137 -341h-42z" />
    <glyph glyph-name="oneeighth" unicode="&#x215b;" horiz-adv-x="495" 
d="M364 -4c-58 0 -97 38 -97 97c0 41 21 73 51 88c-25 14 -43 43 -43 79c0 59 40 91 89 91s89 -32 89 -91c0 -36 -18 -65 -43 -79c30 -15 51 -47 51 -87c0 -60 -39 -98 -97 -98zM364 313c-28 0 -45 -21 -45 -55s17 -58 45 -58s45 24 45 58s-17 55 -45 55zM364 160
c-30 0 -52 -26 -52 -65c0 -36 20 -61 52 -61s52 25 52 61c0 39 -22 65 -52 65zM134 353h-47v295l-63 -33v46l71 40h39v-348zM54 0l147 360l136 341h43l-147 -360l-137 -341h-42z" />
    <glyph glyph-name="oneeighth.alt" horiz-adv-x="540" 
d="M205 353h-184v41h73v257l-72 -36v48l80 40h38v-309h65v-41zM431 -4c-58 0 -97 38 -97 97c0 41 21 73 51 88c-25 14 -43 43 -43 79c0 59 40 91 89 91s89 -32 89 -91c0 -36 -18 -65 -43 -79c30 -15 51 -47 51 -87c0 -60 -39 -98 -97 -98zM431 313c-28 0 -45 -21 -45 -55
s17 -58 45 -58s45 24 45 58s-17 55 -45 55zM431 160c-30 0 -52 -26 -52 -65c0 -36 20 -61 52 -61s52 25 52 61c0 39 -22 65 -52 65zM119 0l147 360l136 341h43l-147 -360l-137 -341h-42z" />
    <glyph glyph-name="threeeighths" unicode="&#x215c;" horiz-adv-x="540" 
d="M426 -4c-58 0 -97 38 -97 97c0 41 21 73 51 88c-25 14 -43 43 -43 79c0 59 40 91 89 91s89 -32 89 -91c0 -36 -18 -65 -43 -79c30 -15 51 -47 51 -87c0 -60 -39 -98 -97 -98zM426 313c-28 0 -45 -21 -45 -55s17 -58 45 -58s45 24 45 58s-17 55 -45 55zM426 160
c-30 0 -52 -26 -52 -65c0 -36 20 -61 52 -61s52 25 52 61c0 39 -22 65 -52 65zM105 0l147 360l136 341h43l-147 -360l-137 -341h-42zM101 349c-30 0 -56 12 -72 24v48c19 -18 44 -30 71 -30c33 0 63 19 63 61c0 40 -30 61 -95 62h-1v32l83 110h-120v44h178v-33l-89 -116
c51 -9 91 -38 91 -98c0 -66 -47 -104 -109 -104z" />
    <glyph glyph-name="fiveeighths" unicode="&#x215d;" horiz-adv-x="540" 
d="M426 -4c-58 0 -97 38 -97 97c0 41 21 73 51 88c-25 14 -43 43 -43 79c0 59 40 91 89 91s89 -32 89 -91c0 -36 -18 -65 -43 -79c30 -15 51 -47 51 -87c0 -60 -39 -98 -97 -98zM426 313c-28 0 -45 -21 -45 -55s17 -58 45 -58s45 24 45 58s-17 55 -45 55zM426 160
c-30 0 -52 -26 -52 -65c0 -36 20 -61 52 -61s52 25 52 61c0 39 -22 65 -52 65zM103 349c-25 0 -53 8 -72 22v48c17 -15 43 -28 69 -28c42 0 62 30 62 71c0 46 -26 64 -58 64c-18 0 -32 -4 -44 -11l-29 13l12 172h151v-43h-113c0 -6 -7 -89 -8 -94c11 3 24 6 38 6
c55 0 99 -34 99 -106c0 -70 -45 -114 -107 -114zM105 0l147 360l136 341h43l-147 -360l-137 -341h-42z" />
    <glyph glyph-name="seveneighths" unicode="&#x215e;" horiz-adv-x="540" 
d="M405 -4c-58 0 -97 38 -97 97c0 41 21 73 51 88c-25 14 -43 43 -43 79c0 59 40 91 89 91s89 -32 89 -91c0 -36 -18 -65 -43 -79c30 -15 51 -47 51 -87c0 -60 -39 -98 -97 -98zM405 313c-28 0 -45 -21 -45 -55s17 -58 45 -58s45 24 45 58s-17 55 -45 55zM405 160
c-30 0 -52 -26 -52 -65c0 -36 20 -61 52 -61s52 25 52 61c0 39 -22 65 -52 65zM100 353h-47l112 303h-134v44h182v-35zM70 0l147 360l136 341h43l-147 -360l-137 -341h-42z" />
    <glyph glyph-name="zero.sup" unicode="&#x2070;" 
d="M120 460c-62 0 -96 51 -96 172v10c0 121 33 173 96 173s96 -51 96 -172v-10c0 -120 -34 -173 -96 -173zM120 773c-32 0 -49 -37 -49 -131v-8c0 -94 18 -132 49 -132s49 38 49 131v8c0 94 -17 132 -49 132z" />
    <glyph glyph-name="one.sup" unicode="&#xb9;" horiz-adv-x="195" 
d="M131 464h-47v295l-63 -33v46l71 40h39v-348z" />
    <glyph glyph-name="one.sup_alt" 
d="M219 464h-184v41h73v257l-72 -36v48l80 40h38v-309h65v-41z" />
    <glyph glyph-name="two.sup" unicode="&#xb2;" 
d="M25 464v33l104 149c21 32 33 55 33 78c0 31 -23 47 -50 47c-31 0 -56 -19 -76 -42v51c18 19 44 35 82 35c51 0 91 -32 91 -87c0 -35 -14 -63 -39 -99l-83 -121h125v-44h-187z" />
    <glyph glyph-name="three.sup" unicode="&#xb3;" 
d="M102 460c-30 0 -56 12 -72 24v48c19 -18 44 -30 71 -30c33 0 63 19 63 61c0 40 -30 61 -95 62h-1v32l83 110h-120v44h178v-33l-89 -116c51 -9 91 -38 91 -98c0 -66 -47 -104 -109 -104z" />
    <glyph glyph-name="four.sup" unicode="&#x2074;" 
d="M191 534v-70h-42v70h-130v36l115 243h57v-240h33v-39h-33zM150 573v177h-5l-83 -177h88z" />
    <glyph glyph-name="five.sup" unicode="&#x2075;" 
d="M105 460c-25 0 -53 8 -72 22v48c17 -15 43 -28 69 -28c42 0 62 30 62 71c0 46 -26 64 -58 64c-18 0 -32 -4 -44 -11l-29 13l12 172h151v-43h-113c0 -6 -7 -89 -8 -94c11 3 24 6 38 6c55 0 99 -34 99 -106c0 -70 -45 -114 -107 -114z" />
    <glyph glyph-name="six.sup" unicode="&#x2076;" 
d="M121 460c-21 0 -42 7 -58 22c-22 23 -36 63 -36 132v13c0 137 48 188 115 188c22 0 38 -5 50 -12l-1 -47c-15 10 -30 16 -48 16c-41 0 -65 -38 -69 -107c14 12 32 22 58 22c43 0 84 -31 84 -110c0 -72 -41 -117 -95 -117zM122 502c31 0 49 28 49 75c0 49 -21 69 -49 69
c-18 0 -35 -8 -48 -23v-23c0 -79 22 -98 48 -98z" />
    <glyph glyph-name="seven.sup" unicode="&#x2077;" 
d="M97 464h-47l112 303h-134v44h182v-35z" />
    <glyph glyph-name="eight.sup" unicode="&#x2078;" 
d="M120 460c-58 0 -97 38 -97 97c0 41 21 73 51 88c-25 14 -43 43 -43 79c0 59 40 91 89 91s89 -32 89 -91c0 -36 -18 -65 -43 -79c30 -15 51 -47 51 -87c0 -60 -39 -98 -97 -98zM120 777c-28 0 -45 -21 -45 -55s17 -58 45 -58s45 24 45 58s-17 55 -45 55zM120 624
c-30 0 -52 -26 -52 -65c0 -36 20 -61 52 -61s52 25 52 61c0 39 -22 65 -52 65z" />
    <glyph glyph-name="nine.sup" unicode="&#x2079;" 
d="M121 815c21 0 42 -7 58 -22c22 -22 36 -63 36 -131v-14c0 -137 -48 -188 -115 -188c-21 0 -38 5 -56 15v46c18 -12 36 -18 55 -18c41 0 65 37 69 102c-13 -11 -33 -22 -58 -22c-43 0 -84 32 -84 112c0 74 41 120 95 120zM120 625c18 0 36 7 49 22v27c0 80 -23 99 -49 99
c-31 0 -49 -28 -49 -77c0 -51 21 -71 49 -71z" />
    <glyph glyph-name="zero.inf" unicode="&#x2080;" 
d="M120 -136c-62 0 -96 51 -96 172v10c0 121 33 173 96 173s96 -51 96 -172v-10c0 -120 -34 -173 -96 -173zM120 177c-32 0 -49 -37 -49 -131v-8c0 -94 18 -132 49 -132s49 38 49 131v8c0 94 -17 132 -49 132z" />
    <glyph glyph-name="one.inf" unicode="&#x2081;" horiz-adv-x="195" 
d="M131 -132h-47v295l-63 -33v46l71 40h39v-348z" />
    <glyph glyph-name="one.inf_alt" 
d="M219 -132h-184v41h73v257l-72 -36v48l80 40h38v-309h65v-41z" />
    <glyph glyph-name="two.inf" unicode="&#x2082;" 
d="M25 -132v33l104 149c21 32 33 55 33 78c0 31 -23 47 -50 47c-31 0 -56 -19 -76 -42v51c18 19 44 35 82 35c51 0 91 -32 91 -87c0 -35 -14 -63 -39 -99l-83 -121h125v-44h-187z" />
    <glyph glyph-name="three.inf" unicode="&#x2083;" 
d="M102 -136c-30 0 -56 12 -72 24v48c19 -18 44 -30 71 -30c33 0 63 19 63 61c0 40 -30 61 -95 62h-1v32l83 110h-120v44h178v-33l-89 -116c51 -9 91 -38 91 -98c0 -66 -47 -104 -109 -104z" />
    <glyph glyph-name="four.inf" unicode="&#x2084;" 
d="M191 -62v-70h-42v70h-130v36l115 243h57v-240h33v-39h-33zM150 -23v177h-5l-83 -177h88z" />
    <glyph glyph-name="five.inf" unicode="&#x2085;" 
d="M105 -136c-25 0 -53 8 -72 22v48c17 -15 43 -28 69 -28c42 0 62 30 62 71c0 46 -26 64 -58 64c-18 0 -32 -4 -44 -11l-29 13l12 172h151v-43h-113c0 -6 -7 -89 -8 -94c11 3 24 6 38 6c55 0 99 -34 99 -106c0 -70 -45 -114 -107 -114z" />
    <glyph glyph-name="six.inf" unicode="&#x2086;" 
d="M121 -136c-21 0 -42 7 -58 22c-22 23 -36 63 -36 132v13c0 137 48 188 115 188c22 0 38 -5 50 -12l-1 -47c-15 10 -30 16 -48 16c-41 0 -65 -38 -69 -107c14 12 32 22 58 22c43 0 84 -31 84 -110c0 -72 -41 -117 -95 -117zM122 -94c31 0 49 28 49 75c0 49 -21 69 -49 69
c-18 0 -35 -8 -48 -23v-23c0 -79 22 -98 48 -98z" />
    <glyph glyph-name="seven.inf" unicode="&#x2087;" 
d="M97 -132h-47l112 303h-134v44h182v-35z" />
    <glyph glyph-name="eight.inf" unicode="&#x2088;" 
d="M120 -136c-58 0 -97 38 -97 97c0 41 21 73 51 88c-25 14 -43 43 -43 79c0 59 40 91 89 91s89 -32 89 -91c0 -36 -18 -65 -43 -79c30 -15 51 -47 51 -87c0 -60 -39 -98 -97 -98zM120 181c-28 0 -45 -21 -45 -55s17 -58 45 -58s45 24 45 58s-17 55 -45 55zM120 28
c-30 0 -52 -26 -52 -65c0 -36 20 -61 52 -61s52 25 52 61c0 39 -22 65 -52 65z" />
    <glyph glyph-name="nine.inf" unicode="&#x2089;" 
d="M121 219c21 0 42 -7 58 -22c22 -22 36 -63 36 -131v-14c0 -137 -48 -188 -115 -188c-21 0 -38 5 -56 15v46c18 -12 36 -18 55 -18c41 0 65 37 69 102c-13 -11 -33 -22 -58 -22c-43 0 -84 32 -84 112c0 74 41 120 95 120zM120 29c18 0 36 7 49 22v27c0 80 -23 99 -49 99
c-31 0 -49 -28 -49 -77c0 -51 21 -71 49 -71z" />
    <glyph glyph-name="zero.tab" horiz-adv-x="360" 
d="M180 -9c-100 0 -150 101 -150 347v22c0 246 49 349 150 349s150 -101 150 -347v-22c0 -246 -51 -349 -150 -349zM180 649c-59 0 -86 -83 -86 -288v-21c0 -204 28 -289 86 -289s86 83 86 288v21c0 204 -27 289 -86 289z" />
    <glyph glyph-name="one.tab" horiz-adv-x="360" 
d="M337 0h-294v58h123v568l-120 -74v69l133 80h51v-643h107v-58z" />
    <glyph glyph-name="two.tab" horiz-adv-x="360" 
d="M324 0h-293v49l164 314c41 79 57 131 57 180c0 64 -35 101 -87 101c-46 0 -84 -29 -118 -65v71c32 34 73 59 127 59c84 0 144 -63 144 -157v-4c0 -65 -20 -118 -66 -207l-144 -277h216v-64z" />
    <glyph glyph-name="three.tab" horiz-adv-x="360" 
d="M145 -9c-46 0 -84 15 -112 40v66c30 -27 67 -44 107 -44c73 0 118 51 118 144v6c0 96 -60 134 -157 141h-3l-1 44l147 247h-209v65h284v-51l-155 -256c84 -15 160 -64 160 -187v-7c0 -130 -74 -208 -179 -208z" />
    <glyph glyph-name="three.tab_alt" horiz-adv-x="360" 
d="M146 -9c-51 0 -92 19 -114 37v66c25 -21 67 -42 110 -42c70 0 115 52 115 143c0 92 -58 137 -158 140h-4v56h4c91 6 154 62 154 149c0 68 -40 108 -98 108c-43 0 -82 -21 -112 -49v65c23 23 67 45 121 45c95 0 154 -67 154 -163s-56 -151 -123 -179
c74 -22 126 -79 126 -175c0 -121 -69 -201 -175 -201z" />
    <glyph glyph-name="four.tab" horiz-adv-x="360" 
d="M229 0v153h-206l-1 51l193 500h73v-495h53v-56h-53v-153h-59zM229 209v376h-5l-145 -376h150z" />
    <glyph glyph-name="five.tab" horiz-adv-x="360" 
d="M147 -9c-39 0 -80 15 -103 36v66c24 -20 58 -40 100 -40c75 0 113 66 113 167v3c0 103 -46 140 -102 140c-32 0 -56 -13 -72 -25l-39 26l16 336h236v-63h-183l-11 -230c11 7 37 17 67 17c81 0 153 -58 153 -200v-4c0 -138 -69 -229 -175 -229z" />
    <glyph glyph-name="six.tab" horiz-adv-x="360" 
d="M200 441c70 0 134 -59 134 -210v-7c0 -140 -60 -233 -146 -233c-31 0 -59 10 -82 33c-40 39 -67 122 -67 278v26c0 281 73 381 180 381c33 0 58 -11 74 -20v-65c-21 13 -44 23 -71 23c-87 0 -116 -124 -119 -251c28 28 59 45 97 45zM189 50c53 0 83 72 83 172v8
c0 106 -37 154 -84 154c-35 0 -60 -19 -85 -48v-63c0 -173 41 -223 86 -223z" />
    <glyph glyph-name="seven.tab" horiz-adv-x="360" 
d="M256 635h-221v65h286v-51l-184 -649h-65z" />
    <glyph glyph-name="eight.tab" horiz-adv-x="360" 
d="M180 -9c-91 0 -147 76 -147 191v7c0 84 34 149 87 176c-49 28 -76 84 -76 161v6c0 112 58 177 136 177s136 -65 136 -177v-6c0 -77 -27 -133 -76 -161c53 -27 87 -92 87 -176v-7c0 -115 -56 -191 -147 -191zM180 389c48 0 74 60 74 134v5c0 79 -27 126 -74 126
s-74 -47 -74 -126v-5c0 -74 26 -134 74 -134zM180 46c54 0 86 55 86 139v4c0 89 -36 146 -86 146s-86 -57 -86 -146v-4c0 -84 32 -139 86 -139z" />
    <glyph glyph-name="nine.tab" horiz-adv-x="360" 
d="M164 253c-71 0 -135 60 -135 212v8c0 142 60 236 147 236c30 0 58 -10 82 -33c39 -39 67 -122 67 -278v-26c0 -281 -73 -381 -180 -381c-33 0 -59 10 -85 23v65c31 -17 55 -26 82 -26c86 0 115 122 118 243c-29 -27 -59 -43 -96 -43zM175 650c-54 0 -83 -74 -83 -175v-8
c0 -109 37 -158 84 -158c34 0 59 19 85 48v70c0 172 -41 223 -86 223z" />
    <glyph glyph-name="period.tab" horiz-adv-x="180" 
d="M47 0v106h86v-106h-86z" />
    <glyph glyph-name="comma.tab" horiz-adv-x="180" 
d="M39 -118l-12 31c46 17 61 47 58 87h-38v106h86v-91c0 -74 -29 -110 -94 -133z" />
    <glyph glyph-name="colon.tab" horiz-adv-x="180" 
d="M47 421v106h86v-106h-86zM47 0v106h86v-106h-86z" />
    <glyph glyph-name="semicolon.tab" horiz-adv-x="180" 
d="M47 421v106h86v-106h-86zM39 -118l-12 31c46 17 61 47 58 87h-38v106h86v-91c0 -74 -29 -110 -94 -133z" />
    <glyph glyph-name="twodotleader.tab" horiz-adv-x="360" 
d="M228 0v102h84v-102h-84zM48 0v102h84v-102h-84z" />
    <glyph glyph-name="periodcentered.tab" horiz-adv-x="180" 
d="M47 248v106h86v-106h-86z" />
    <glyph glyph-name="slash.tab" horiz-adv-x="360" 
d="M331 769l-260 -868h-55l260 868h55z" />
    <glyph glyph-name="bar.tab" horiz-adv-x="180" 
d="M65 -99v868h51v-868h-51z" />
    <glyph glyph-name="underscore.tab" horiz-adv-x="360" 
d="M-2 -156v51h364v-51h-364z" />
    <glyph glyph-name="dollar.tab" horiz-adv-x="360" 
d="M229 780l-5 -78c31 -5 61 -17 85 -32v-68c-33 21 -61 35 -89 40l-15 -257c91 -69 128 -123 128 -208v-2c0 -99 -64 -173 -154 -180l-6 -106h-47l6 107c-37 4 -70 18 -104 40v67c41 -29 75 -43 109 -47l16 281c-79 57 -124 107 -124 199v2c0 92 62 159 148 166l5 76h47z
M268 175c0 53 -20 91 -70 132l-14 -250c55 10 84 58 84 116v2zM93 538c0 -55 25 -87 66 -122l14 227c-47 -9 -80 -49 -80 -103v-2z" />
    <glyph glyph-name="sterling.tab" horiz-adv-x="360" 
d="M86 371v153c0 64 16 111 48 143c27 26 62 40 106 40c36 0 62 -10 78 -21l-2 -63c-16 12 -41 23 -71 23c-27 0 -47 -9 -64 -25c-19 -20 -30 -52 -30 -97v-153h136v-57h-136v-255h190v-59h-306v37l51 20v257h-54v57h54z" />
    <glyph glyph-name="Euro.tab" horiz-adv-x="360" 
d="M12 409v50h60c20 166 95 247 185 247c27 0 50 -7 71 -19v-67c-27 17 -48 23 -68 23c-60 0 -106 -63 -122 -184h138v-50h-143c-1 -16 -1 -32 -1 -49v-20c0 -16 0 -30 1 -44h143v-50h-139c16 -128 63 -189 125 -189c20 0 44 7 68 25v-66c-24 -15 -48 -22 -78 -22
c-90 0 -161 82 -181 252h-59v50h55c-1 14 -1 29 -1 44v20c0 17 0 33 1 49h-55z" />
    <glyph glyph-name="yen.tab" horiz-adv-x="360" 
d="M52 180h97v88h-97v51h86l-127 381h68l102 -337l102 337h66l-128 -381h87v-51h-97v-88h97v-51h-97v-129h-62v129h-97v51z" />
    <glyph glyph-name="cent.tab" horiz-adv-x="360" 
d="M226 704v-83c38 -3 71 -21 90 -37v-65c-21 18 -55 39 -90 42v-421c34 2 67 22 90 43v-62c-18 -18 -50 -38 -90 -42v-84h-46v87c-85 16 -136 102 -136 260v16c0 157 53 241 136 260v86h46zM107 340c0 -115 27 -173 73 -193v406c-45 -19 -73 -78 -73 -193v-20z" />
    <glyph glyph-name="numbersign.tab" horiz-adv-x="360" 
d="M14 237h65l12 227h-57v58h61l10 178h46l-10 -178h97l10 178h46l-10 -178h62v-58h-66l-12 -227h59v-58h-62l-10 -179h-46l10 179h-97l-10 -179h-46l10 179h-62v58zM138 464l-13 -227h97l13 227h-97z" />
    <glyph glyph-name="paragraph.tab" horiz-adv-x="360" 
d="M239 0v250h-3c-132 2 -214 85 -214 225v2c0 143 88 223 223 223h60v-700h-66z" />
    <glyph glyph-name="section.tab" horiz-adv-x="360" 
d="M238 214c37 -31 53 -61 53 -99v-2c0 -71 -52 -121 -130 -121c-28 0 -62 8 -88 20l1 63c30 -16 57 -26 85 -26c47 0 71 27 71 61v2c0 40 -31 65 -94 103c-83 49 -117 83 -117 143v2c0 50 32 96 103 126c-37 31 -53 61 -53 99v2c0 71 52 121 130 121c28 0 62 -8 88 -20
l-1 -63c-30 16 -57 26 -85 26c-47 0 -71 -27 -71 -61v-2c0 -40 31 -65 94 -103c83 -49 117 -83 117 -143v-2c0 -50 -32 -96 -103 -126zM159 457c-59 -25 -81 -60 -81 -92v-2c0 -34 21 -59 93 -102l30 -18c59 25 81 60 81 92v2c0 34 -21 59 -93 102z" />
    <glyph glyph-name="degree.tab" horiz-adv-x="360" 
d="M180 319c-73 0 -129 72 -129 189v10c0 117 56 189 129 189s129 -72 129 -189v-10c0 -117 -56 -189 -129 -189zM180 368c49 0 79 53 79 140v10c0 87 -30 141 -79 141s-79 -54 -79 -141v-10c0 -87 30 -140 79 -140z" />
    <glyph glyph-name="percent.tab" horiz-adv-x="360" 
d="M301 700h41l-146 -357h-2l-135 -343h-41l146 356h2zM103 661c-33 0 -46 -44 -46 -115v-13c0 -72 13 -116 46 -116s46 44 46 116v13c0 71 -13 115 -46 115zM103 705c59 0 92 -61 92 -159v-13c0 -96 -33 -160 -92 -160s-93 62 -93 160v12c0 98 34 160 93 160zM257 327
c59 0 93 -62 93 -160v-12c0 -98 -34 -160 -93 -160s-92 61 -92 159v13c0 96 33 160 92 160zM257 283c-33 0 -46 -44 -46 -116v-13c0 -71 13 -115 46 -115s46 44 46 115v13c0 72 -13 116 -46 116z" />
    <glyph glyph-name="quotedbl.tab" horiz-adv-x="360" 
d="M216 436l15 264h70l-1 -9l-58 -255h-26zM75 436l14 264h71l-1 -9l-58 -255h-26z" />
    <glyph glyph-name="quotesingle.tab" horiz-adv-x="180" 
d="M59 436l15 264h70l-1 -9l-57 -255h-27z" />
    <glyph glyph-name="plus.tab" horiz-adv-x="360" 
d="M330 323h-121v-126h-58v126h-121v58h121v126h58v-126h121v-58z" />
    <glyph glyph-name="minus.tab" horiz-adv-x="360" 
d="M329 320h-298v64h298v-64z" />
    <glyph glyph-name="divide.tab" horiz-adv-x="360" 
d="M145 450v83h70v-83h-70zM329 321h-298v62h298v-62zM145 171v83h70v-83h-70z" />
    <glyph glyph-name="equal.tab" horiz-adv-x="360" 
d="M325 399h-290v62h290v-62zM325 243h-290v62h290v-62z" />
    <glyph glyph-name="multiply.tab" horiz-adv-x="360" 
d="M273 205l-93 104l-93 -104l-44 37l99 110l-99 110l44 37l93 -104l93 104l44 -37l-99 -110l99 -110z" />
    <glyph glyph-name="less.tab" horiz-adv-x="360" 
d="M310 158l-270 166v56l270 166v-74l-203 -120l203 -120v-74z" />
    <glyph glyph-name="greater.tab" horiz-adv-x="360" 
d="M320 324l-270 -166v74l203 120l-203 120v74l270 -166v-56z" />
    <glyph glyph-name="plusminus.tab" horiz-adv-x="360" 
d="M330 325h-121v-126h-58v126h-121v59h121v125h58v-125h121v-59zM329 67h-298v59h298v-59z" />
    <glyph glyph-name="space" unicode=" " horiz-adv-x="163" 
 />
    <glyph glyph-name="uni00A0" unicode="&#xa0;" horiz-adv-x="163" 
 />
    <glyph glyph-name="emspace" unicode="&#x2003;" horiz-adv-x="1000" 
 />
    <glyph glyph-name="enspace" unicode="&#x2002;" horiz-adv-x="500" 
 />
    <glyph glyph-name="threeperemspace" unicode="&#x2004;" horiz-adv-x="333" 
 />
    <glyph glyph-name="fourperemspace" unicode="&#x2005;" horiz-adv-x="250" 
 />
    <glyph glyph-name="thinspace" unicode="&#x2009;" horiz-adv-x="109" 
 />
    <glyph glyph-name="hairspace" unicode="&#x200a;" horiz-adv-x="57" 
 />
    <glyph glyph-name="space.tab" horiz-adv-x="180" 
 />
    <glyph glyph-name="figurespace" unicode="&#x2007;" horiz-adv-x="360" 
 />
    <glyph glyph-name="NUL" horiz-adv-x="0" 
 />
    <glyph glyph-name="asciicircum" unicode="^" horiz-adv-x="354" 
d="M81 525l70 163h51l71 -163h-49l-48 110l-48 -110h-47z" />
    <glyph glyph-name="asciitilde" unicode="~" horiz-adv-x="314" 
d="M206 251c-24 0 -37 10 -55 26s-26 22 -37 22c-13 0 -22 -16 -31 -46l-37 11c11 57 35 84 62 84c24 0 37 -10 55 -26c18 -15 27 -22 37 -22c14 0 23 16 31 46l37 -10c-10 -58 -35 -85 -62 -85z" />
    <glyph glyph-name="hfjslug" horiz-adv-x="694" 
d="M644 -200h-208l-8 14h-163l-8 -14h-207v303c18 0 32 14 32 32c0 17 -14 32 -32 32v554h100l30 79h334l29 -79h101v-921zM400 563v-172h15v78h38v14h-38v66h43v14h-58zM184 563v-172h15v79h47v-79h15v172h-15v-79h-47v79h-15zM460 394c5 -2 14 -4 21 -4c20 0 31 11 31 36
v137h-16v-137c0 -16 -5 -22 -16 -22c-6 0 -15 3 -20 5v-15zM371 465l-13 3c-2 -9 -5 -21 -8 -30h-1l-16 31c13 12 23 26 23 42s-9 31 -27 31c-17 0 -28 -15 -28 -31c0 -15 6 -24 14 -39c-15 -12 -23 -28 -23 -47c0 -22 12 -37 29 -37c13 0 23 9 29 24h1l12 -24l12 6l-17 32
c5 12 9 25 13 39zM523 323v-46h8v12l8 8l15 -20h10l-20 26l18 20h-10l-20 -24h-1v24h-8zM488 292l10 -15h9l-12 17c5 2 10 6 10 14c0 9 -7 15 -17 15h-20v-46h8v15h12zM426 276c14 0 24 11 24 24c0 12 -10 24 -24 24s-24 -12 -24 -24c0 -13 10 -24 24 -24zM370 301l-13 22
h-9l18 -29v-17h8v17l18 29h-9zM193 323v-46h34v7h-26v13h23v7h-23v12h26v7h-34zM132 323v-46h8v32l25 -32h7v46h-8v-32l-25 32h-7zM241 323l14 -47h8l11 34h1l11 -34h8l14 47h-8l-10 -35h-1l-11 35h-7l-11 -35h-1l-10 35h-8zM327 479c-7 13 -12 22 -12 32c0 11 6 19 14 19
s13 -8 13 -19c0 -12 -5 -21 -15 -32zM342 423c-5 -13 -12 -21 -20 -21c-9 0 -16 10 -16 25c0 13 7 26 16 35zM487 299h-11v17h11c6 0 10 -3 10 -8s-4 -9 -10 -9zM426 283c-10 0 -16 8 -16 17c0 8 6 17 16 17s16 -9 16 -17c0 -9 -6 -17 -16 -17z" />
    <glyph glyph-name="i.dot" horiz-adv-x="167" 
d="M51 624v82h66v-82h-66zM52 0v528h63v-528h-63z" />
    <glyph glyph-name="fraction" unicode="&#x2044;" horiz-adv-x="60" 
d="M-133 0l147 360l136 341h43l-147 -360l-137 -341h-42z" />
    <glyph glyph-name="zero.num" 
d="M120 349c-62 0 -96 51 -96 172v10c0 120 33 173 96 173s96 -51 96 -172v-10c0 -121 -34 -173 -96 -173zM120 662c-32 0 -49 -38 -49 -131v-8c0 -94 18 -132 49 -132s49 37 49 131v8c0 94 -17 132 -49 132z" />
    <glyph glyph-name="one.num" horiz-adv-x="195" 
d="M131 353h-47v295l-63 -33v46l71 40h39v-348z" />
    <glyph glyph-name="one.num_alt" 
d="M219 353h-184v41h73v257l-72 -36v48l80 40h38v-309h65v-41z" />
    <glyph glyph-name="two.num" 
d="M25 353v33l104 149c21 32 33 55 33 78c0 31 -23 47 -50 47c-31 0 -56 -19 -76 -42v51c18 19 44 35 82 35c51 0 91 -32 91 -87c0 -35 -14 -63 -39 -99l-83 -121h125v-44h-187z" />
    <glyph glyph-name="three.num" 
d="M102 349c-30 0 -56 12 -72 24v48c19 -18 44 -30 71 -30c33 0 63 19 63 61c0 40 -30 61 -95 62h-1v32l83 110h-120v44h178v-33l-89 -116c51 -9 91 -38 91 -98c0 -66 -47 -104 -109 -104z" />
    <glyph glyph-name="four.num" 
d="M191 423v-70h-42v70h-130v36l115 243h57v-240h33v-39h-33zM150 462v177h-5l-83 -177h88z" />
    <glyph glyph-name="five.num" 
d="M105 349c-25 0 -53 8 -72 22v48c17 -15 43 -28 69 -28c42 0 62 30 62 71c0 46 -26 64 -58 64c-18 0 -32 -4 -44 -11l-29 13l12 172h151v-43h-113c0 -6 -7 -89 -8 -94c11 3 24 6 38 6c55 0 99 -34 99 -106c0 -70 -45 -114 -107 -114z" />
    <glyph glyph-name="six.num" 
d="M121 349c-21 0 -42 7 -58 22c-22 22 -36 63 -36 131v14c0 137 48 188 115 188c22 0 38 -5 50 -13l-1 -46c-15 9 -30 16 -48 16c-41 0 -65 -38 -69 -107c14 12 32 22 58 22c43 0 84 -31 84 -110c0 -72 -41 -117 -95 -117zM122 391c31 0 49 27 49 75s-21 69 -49 69
c-18 0 -35 -8 -48 -23v-23c0 -79 22 -98 48 -98z" />
    <glyph glyph-name="seven.num" 
d="M97 353h-47l112 303h-134v44h182v-35z" />
    <glyph glyph-name="eight.num" 
d="M120 349c-58 0 -97 37 -97 97c0 41 21 73 51 88c-25 14 -43 43 -43 78c0 59 40 92 89 92s89 -33 89 -92c0 -35 -18 -64 -43 -78c30 -15 51 -47 51 -87c0 -61 -39 -98 -97 -98zM120 666c-28 0 -45 -21 -45 -55s17 -58 45 -58s45 24 45 58s-17 55 -45 55zM120 513
c-30 0 -52 -26 -52 -65c0 -36 20 -61 52 -61s52 25 52 61c0 39 -22 65 -52 65z" />
    <glyph glyph-name="nine.num" 
d="M121 704c21 0 42 -7 58 -22c22 -23 36 -63 36 -132v-13c0 -137 -48 -188 -115 -188c-21 0 -38 4 -56 15v46c18 -12 36 -18 55 -18c41 0 65 37 69 102c-13 -11 -33 -22 -58 -22c-43 0 -84 32 -84 112c0 74 41 120 95 120zM120 514c18 0 36 7 49 22v27c0 80 -23 99 -49 99
c-31 0 -49 -29 -49 -78c0 -50 21 -70 49 -70z" />
    <glyph glyph-name="zero.den" 
d="M120 -4c-62 0 -96 51 -96 172v10c0 121 33 173 96 173s96 -51 96 -172v-10c0 -120 -34 -173 -96 -173zM120 309c-32 0 -49 -37 -49 -131v-8c0 -94 18 -132 49 -132s49 38 49 131v8c0 94 -17 132 -49 132z" />
    <glyph glyph-name="one.den" horiz-adv-x="195" 
d="M131 0h-47v295l-63 -33v46l71 40h39v-348z" />
    <glyph glyph-name="one.den_alt" 
d="M219 0h-184v41h73v257l-72 -36v48l80 40h38v-309h65v-41z" />
    <glyph glyph-name="two.den" 
d="M25 0v33l104 149c21 32 33 55 33 78c0 31 -23 47 -50 47c-31 0 -56 -19 -76 -42v51c18 19 44 35 82 35c51 0 91 -32 91 -87c0 -35 -14 -63 -39 -99l-83 -121h125v-44h-187z" />
    <glyph glyph-name="three.den" 
d="M102 -4c-30 0 -56 12 -72 24v48c19 -18 44 -30 71 -30c33 0 63 19 63 61c0 40 -30 61 -95 62h-1v32l83 110h-120v44h178v-33l-89 -116c51 -9 91 -38 91 -98c0 -66 -47 -104 -109 -104z" />
    <glyph glyph-name="four.den" 
d="M191 70v-70h-42v70h-130v36l115 243h57v-240h33v-39h-33zM150 109v177h-5l-83 -177h88z" />
    <glyph glyph-name="five.den" 
d="M105 -4c-25 0 -53 8 -72 22v48c17 -15 43 -28 69 -28c42 0 62 30 62 71c0 46 -26 64 -58 64c-18 0 -32 -4 -44 -11l-29 13l12 172h151v-43h-113c0 -6 -7 -89 -8 -94c11 3 24 6 38 6c55 0 99 -34 99 -106c0 -70 -45 -114 -107 -114z" />
    <glyph glyph-name="six.den" 
d="M121 -4c-21 0 -42 7 -58 22c-22 23 -36 63 -36 132v13c0 137 48 188 115 188c22 0 38 -5 50 -12l-1 -47c-15 10 -30 16 -48 16c-41 0 -65 -38 -69 -107c14 12 32 22 58 22c43 0 84 -31 84 -110c0 -72 -41 -117 -95 -117zM122 38c31 0 49 28 49 75c0 49 -21 69 -49 69
c-18 0 -35 -8 -48 -23v-23c0 -79 22 -98 48 -98z" />
    <glyph glyph-name="seven.den" 
d="M97 0h-47l112 303h-134v44h182v-35z" />
    <glyph glyph-name="eight.den" 
d="M120 -4c-58 0 -97 38 -97 97c0 41 21 73 51 88c-25 14 -43 43 -43 79c0 59 40 91 89 91s89 -32 89 -91c0 -36 -18 -65 -43 -79c30 -15 51 -47 51 -87c0 -60 -39 -98 -97 -98zM120 313c-28 0 -45 -21 -45 -55s17 -58 45 -58s45 24 45 58s-17 55 -45 55zM120 160
c-30 0 -52 -26 -52 -65c0 -36 20 -61 52 -61s52 25 52 61c0 39 -22 65 -52 65z" />
    <glyph glyph-name="nine.den" 
d="M121 351c21 0 42 -7 58 -22c22 -22 36 -63 36 -131v-14c0 -137 -48 -188 -115 -188c-21 0 -38 5 -56 15v46c18 -12 36 -18 55 -18c41 0 65 37 69 102c-13 -11 -33 -22 -58 -22c-43 0 -84 32 -84 112c0 74 41 120 95 120zM120 161c18 0 36 7 49 22v27c0 80 -23 99 -49 99
c-31 0 -49 -28 -49 -77c0 -51 21 -71 49 -71z" />
    <glyph glyph-name="acute" unicode="&#xb4;" horiz-adv-x="500" 
d="M182 576l70 131l60 -32l-87 -99h-43z" />
    <glyph glyph-name="hungarumlaut" unicode="&#x2dd;" horiz-adv-x="500" 
d="M233 576l70 131l55 -30l-83 -101h-42zM135 576l70 131l54 -30l-83 -101h-41z" />
    <glyph glyph-name="caron.alt" horiz-adv-x="500" 
d="M192 559l8 147h49v-2l-29 -145h-28z" />
    <glyph glyph-name="grave" unicode="`" horiz-adv-x="500" 
d="M272 576l-87 99l60 32l69 -131h-42z" />
    <glyph glyph-name="circumflex" unicode="&#x2c6;" horiz-adv-x="500" 
d="M156 579l70 127h48l70 -127h-48l-47 72l-47 -72h-46z" />
    <glyph glyph-name="caron" unicode="&#x2c7;" horiz-adv-x="500" 
d="M344 706l-70 -127h-48l-70 127h48l47 -72l47 72h46z" />
    <glyph glyph-name="breve" unicode="&#x2d8;" horiz-adv-x="500" 
d="M250 576c-53 0 -94 31 -100 101h45c7 -35 24 -53 55 -53s48 18 55 53h45c-6 -70 -47 -101 -100 -101z" />
    <glyph glyph-name="tilde" unicode="&#x2dc;" horiz-adv-x="500" 
d="M299 577c-21 0 -35 9 -53 24c-19 16 -28 21 -37 21c-12 0 -20 -14 -28 -43l-39 10c12 57 30 83 59 83c21 0 35 -9 53 -24c19 -15 28 -21 37 -21c12 0 20 14 28 43l39 -10c-12 -57 -30 -83 -59 -83z" />
    <glyph glyph-name="macron" unicode="&#xaf;" horiz-adv-x="500" 
d="M153 585v50h194v-50h-194z" />
    <glyph glyph-name="dieresis" unicode="&#xa8;" horiz-adv-x="500" 
d="M275 584v78h62v-78h-62zM163 584v78h62v-78h-62z" />
    <glyph glyph-name="dotaccent" unicode="&#x2d9;" horiz-adv-x="500" 
d="M217 584v78h66v-78h-66z" />
    <glyph glyph-name="ring" unicode="&#x2da;" horiz-adv-x="500" 
d="M249 575c-46 0 -80 35 -80 82c0 46 36 82 82 82s80 -36 80 -82s-36 -82 -82 -82zM250 606c27 0 47 22 47 51s-20 51 -47 51s-47 -22 -47 -51s20 -51 47 -51z" />
    <glyph glyph-name="acute.cap" horiz-adv-x="500" 
d="M180 739l69 110l62 -30l-84 -80h-47z" />
    <glyph glyph-name="hungarumlaut.cap" horiz-adv-x="500" 
d="M132 739l69 110l57 -29l-81 -81h-45zM230 739l68 110l58 -29l-82 -81h-44z" />
    <glyph glyph-name="grave.cap" horiz-adv-x="500" 
d="M317 739h-47l-84 80l62 30z" />
    <glyph glyph-name="circumflex.cap" horiz-adv-x="500" 
d="M150 742l72 103h56l72 -103h-53l-48 56l-48 -56h-51z" />
    <glyph glyph-name="caron.cap" horiz-adv-x="500" 
d="M350 845l-72 -103h-56l-72 103h53l48 -55l48 55h51z" />
    <glyph glyph-name="breve.cap" horiz-adv-x="500" 
d="M250 739c-54 0 -94 29 -100 88h46c7 -27 24 -39 54 -39c29 0 47 12 54 39h46c-6 -59 -46 -88 -100 -88z" />
    <glyph glyph-name="tilde.cap" horiz-adv-x="500" 
d="M301 740c-22 0 -36 8 -55 20s-29 18 -38 18c-13 0 -20 -12 -28 -36l-42 10c13 49 32 77 61 77c22 0 37 -9 56 -21c19 -11 28 -17 37 -17c13 0 20 12 28 36l42 -10c-13 -50 -32 -77 -61 -77z" />
    <glyph glyph-name="macron.cap" horiz-adv-x="500" 
d="M147 748v51h206v-51h-206z" />
    <glyph glyph-name="dieresis.cap" horiz-adv-x="500" 
d="M275 747v75h66v-75h-66zM159 747v75h66v-75h-66z" />
    <glyph glyph-name="dotaccent.cap" horiz-adv-x="500" 
d="M216 747v75h68v-75h-68z" />
    <glyph glyph-name="ring.cap" horiz-adv-x="500" 
d="M249 738c-45 0 -80 33 -80 76c0 44 37 77 82 77s80 -33 80 -77c0 -43 -37 -76 -82 -76zM250 769c26 0 46 20 46 45c0 26 -20 46 -46 46s-46 -20 -46 -46c0 -25 20 -45 46 -45z" />
    <glyph glyph-name="commaaccent" unicode="&#x326;" horiz-adv-x="500" 
d="M223 -196l-9 24c27 11 36 24 35 52h-29v67h66v-61c0 -48 -20 -68 -63 -82z" />
    <glyph glyph-name="cedilla" unicode="&#xb8;" horiz-adv-x="500" 
d="M239 -115l-61 25l63 103h43z" />
    <glyph glyph-name="ogonek" unicode="&#x2db;" horiz-adv-x="500" 
d="M296 -85v-42c-12 -1 -19 -1 -26 -1c-49 0 -71 21 -71 53c0 28 16 52 44 81h42c-22 -30 -31 -48 -31 -64c0 -20 14 -27 42 -27z" />
    </font>
</defs>
</svg>
