<?xml version="1.0" standalone="no"?>
<!DOCTYPE svg PUBLIC "-//W3C//DTD SVG 1.1//EN" "http://www.w3.org/Graphics/SVG/1.1/DTD/svg11.dtd" >
<svg xmlns="http://www.w3.org/2000/svg" xmlns:xlink="http://www.w3.org/1999/xlink" version="1.1">
<metadata>
Created by FontForge 20170910 at Fri Sep 12 14:34:36 2008
 By Jimmy Wärting
Copyright (C) 2005, 2008 Hoefler &#38; Frere-Jones. http://www.typography.com
</metadata>
<defs>
<font id="GothamCondensed-BlackItalic" horiz-adv-x="500" >
  <font-face 
    font-family="Gotham Condensed Black"
    font-weight="450"
    font-style="italic"
    font-stretch="condensed"
    units-per-em="1000"
    panose-1="0 0 0 0 0 0 0 0 0 0"
    ascent="800"
    descent="-200"
    x-height="541"
    cap-height="700"
    bbox="-103 -223 814 944"
    underline-thickness="50"
    underline-position="-100"
    slope="-12"
    stemh="142"
    stemv="148"
    unicode-range="U+0020-FB04"
  />
<missing-glyph 
d="M0 -200v1000h500v-1000h-500zM50 -76l172 376l-172 376v-752zM71 -150h358l-179 390zM250 360l179 390h-358zM450 -76v752l-172 -376z" />
    <glyph glyph-name="f_f" unicode="ff" 
d="M-11 0l82 424h-31l23 117h31l8 38c8 41 23 73 46 95c24 24 58 38 103 38c30 0 62 -6 80 -12l-22 -111c-10 3 -19 4 -28 4c-24 0 -36 -12 -41 -39l-3 -14h63l-23 -116h-61l-82 -424h-145zM238 0l82 424h-31l23 117h31l8 38c8 41 23 73 46 95c24 24 58 38 103 38
c30 0 62 -6 80 -12l-22 -111c-10 3 -19 4 -28 4c-24 0 -36 -12 -41 -39l-3 -14h63l-23 -116h-61l-82 -424h-145z" />
    <glyph glyph-name="fi" unicode="fi" horiz-adv-x="453" 
d="M-11 0l82 424h-31l23 117h31l8 38c8 41 23 73 46 95c24 24 58 38 103 38c30 0 62 -6 80 -12l-22 -111c-10 3 -19 4 -28 4c-24 0 -36 -12 -41 -39l-3 -14h63l-23 -116h-61l-82 -424h-145zM227 0l105 541h145l-105 -541h-145zM339 582l25 128h147l-25 -128h-147z" />
    <glyph glyph-name="fl" unicode="fl" horiz-adv-x="453" 
d="M-11 0l82 424h-31l23 117h31l8 38c8 41 23 73 46 95c24 24 58 38 103 38c30 0 62 -6 80 -12l-22 -111c-10 3 -19 4 -28 4c-24 0 -36 -12 -41 -39l-3 -14h63l-23 -116h-61l-82 -424h-145zM228 0l138 710h145l-138 -710h-145z" />
    <glyph glyph-name="f_f_i" unicode="ffi" horiz-adv-x="702" 
d="M-11 0l82 424h-31l23 117h31l8 38c8 41 23 73 46 95c24 24 58 38 103 38c30 0 62 -6 80 -12l-22 -111c-10 3 -19 4 -28 4c-24 0 -36 -12 -41 -39l-3 -14h63l-23 -116h-61l-82 -424h-145zM238 0l82 424h-31l23 117h31l8 38c8 41 23 73 46 95c24 24 58 38 103 38
c30 0 62 -6 80 -12l-22 -111c-10 3 -19 4 -28 4c-24 0 -36 -12 -41 -39l-3 -14h63l-23 -116h-61l-82 -424h-145zM477 0l105 541h145l-105 -541h-145zM589 582l25 128h147l-25 -128h-147z" />
    <glyph glyph-name="f_f_l" unicode="ffl" horiz-adv-x="703" 
d="M-11 0l82 424h-31l23 117h31l8 38c8 41 23 73 46 95c24 24 58 38 103 38c30 0 62 -6 80 -12l-22 -111c-10 3 -19 4 -28 4c-24 0 -36 -12 -41 -39l-3 -14h63l-23 -116h-61l-82 -424h-145zM238 0l82 424h-31l23 117h31l8 38c8 41 23 73 46 95c24 24 58 38 103 38
c30 0 62 -6 80 -12l-22 -111c-10 3 -19 4 -28 4c-24 0 -36 -12 -41 -39l-3 -14h63l-23 -116h-61l-82 -424h-145zM477 0l138 710h145l-138 -710h-145z" />
    <glyph glyph-name=".notdef" 
d="M0 -200v1000h500v-1000h-500zM50 -76l172 376l-172 376v-752zM71 -150h358l-179 390zM250 360l179 390h-358zM450 -76v752l-172 -376z" />
    <glyph glyph-name="A" unicode="A" horiz-adv-x="431" 
d="M-56 0l269 702h172l-3 -702h-149l5 126h-104l-44 -126h-146zM177 253h66l10 221z" />
    <glyph glyph-name="B" unicode="B" horiz-adv-x="420" 
d="M-25 0l136 700h118c139 0 218 -63 218 -164c0 -96 -54 -157 -126 -185c47 -27 77 -70 77 -131c0 -130 -95 -220 -270 -220h-153zM147 138h10c57 0 93 32 93 91c0 39 -24 62 -65 62h-7zM201 413h8c65 0 89 48 89 91c0 38 -22 58 -64 58h-4z" />
    <glyph glyph-name="C" unicode="C" horiz-adv-x="362" 
d="M207 -7c-115 0 -187 72 -187 232c0 119 40 323 138 421c44 44 95 62 148 62c49 0 84 -12 114 -28l-30 -149c-29 23 -53 33 -78 33c-21 0 -37 -8 -53 -23c-56 -56 -89 -236 -89 -306c0 -73 26 -100 76 -100c22 0 43 5 74 18l-28 -142c-26 -11 -53 -18 -85 -18z" />
    <glyph glyph-name="D" unicode="D" horiz-adv-x="446" 
d="M-25 0l136 700h101c80 0 141 -19 183 -61c37 -37 60 -98 60 -180c0 -106 -37 -294 -125 -382c-52 -52 -121 -77 -213 -77h-142zM281 546c-12 12 -28 16 -46 16h-1l-82 -424h2c29 0 49 9 68 28c54 54 83 229 83 292c0 33 -4 68 -24 88z" />
    <glyph glyph-name="E" unicode="E" horiz-adv-x="352" 
d="M-25 0l136 700h303l-27 -142h-154l-26 -136h136l-27 -140h-137l-26 -140h156l-28 -142h-306z" />
    <glyph glyph-name="F" unicode="F" horiz-adv-x="334" 
d="M-25 0l136 700h291l-28 -142h-141l-27 -138h124l-27 -140h-124l-54 -280h-150z" />
    <glyph glyph-name="G" unicode="G" horiz-adv-x="430" 
d="M227 -11c-127 0 -206 81 -206 241c0 111 38 306 140 408c49 49 105 72 170 72c63 0 103 -17 130 -35l-30 -148c-31 23 -63 40 -101 40c-26 0 -48 -9 -67 -28c-68 -68 -91 -250 -91 -311c0 -71 23 -103 56 -103c5 0 10 1 14 2l29 151h-53l26 132h189l-77 -393
c-40 -17 -83 -28 -129 -28z" />
    <glyph glyph-name="H" unicode="H" horiz-adv-x="445" 
d="M-25 0l136 700h150l-54 -277h90l54 277h150l-136 -700h-150l54 281h-90l-54 -281h-150z" />
    <glyph glyph-name="I" unicode="I" horiz-adv-x="209" 
d="M-23 0l136 700h150l-136 -700h-150z" />
    <glyph glyph-name="J" unicode="J" horiz-adv-x="311" 
d="M72 -7c-42 0 -82 9 -108 20l27 142c23 -12 46 -19 70 -19c16 0 29 4 39 15c11 10 17 30 21 52l98 497h150l-101 -518c-12 -60 -31 -107 -66 -142c-31 -31 -74 -47 -130 -47z" />
    <glyph glyph-name="K" unicode="K" horiz-adv-x="426" 
d="M-25 0l136 700h150l-51 -263l135 263h160l-173 -313l37 -387h-156l-14 250l-40 -71l-34 -179h-150z" />
    <glyph glyph-name="L" unicode="L" horiz-adv-x="322" 
d="M-25 0l136 700h150l-108 -558h133l-28 -142h-283z" />
    <glyph glyph-name="M" unicode="M" horiz-adv-x="511" 
d="M-25 0l136 700h142l38 -233l129 233h147l-136 -700h-145l73 375l-127 -229h-2l-38 229l-73 -375h-144z" />
    <glyph glyph-name="N" unicode="N" horiz-adv-x="452" 
d="M-25 0l136 700h141l49 -323l63 323h144l-136 -700h-136l-51 340l-66 -340h-144z" />
    <glyph glyph-name="O" unicode="O" horiz-adv-x="449" 
d="M292 712c114 0 171 -85 171 -214c0 -118 -42 -355 -140 -453c-40 -40 -84 -57 -136 -57c-114 0 -171 85 -171 214c0 118 43 355 141 453c39 40 83 57 135 57zM197 124c11 0 18 5 26 12c46 46 92 308 92 383c0 40 -11 57 -33 57c-11 0 -18 -5 -26 -12
c-46 -46 -92 -308 -92 -383c0 -40 11 -57 33 -57z" />
    <glyph glyph-name="P" unicode="P" horiz-adv-x="408" 
d="M-25 0l136 700h117c70 0 125 -19 162 -55c32 -32 51 -78 51 -138c0 -76 -24 -169 -85 -227c-50 -48 -114 -69 -189 -69h-2l-41 -211h-149zM274 553c-9 8 -21 14 -36 14h-4l-43 -223h3c21 0 40 6 57 23c30 30 41 94 41 130c0 25 -7 44 -18 56z" />
    <glyph glyph-name="Q" unicode="Q" horiz-adv-x="453" 
d="M293 712c113 0 170 -89 170 -215c0 -96 -28 -266 -93 -380l43 -80l-103 -53l-19 40c-31 -23 -65 -35 -105 -35c-113 0 -170 88 -170 214c0 117 44 353 142 452c40 39 83 57 135 57zM201 122c9 0 20 4 29 13l-39 72l83 43c24 99 42 228 42 268c0 41 -11 58 -34 58
c-10 0 -18 -5 -26 -12c-46 -46 -94 -312 -94 -384c0 -42 13 -58 39 -58z" />
    <glyph glyph-name="Q.alt" horiz-adv-x="453" 
d="M293 712c113 0 170 -89 170 -215c0 -96 -28 -266 -93 -380l43 -80l-103 -53l-19 40c-31 -23 -65 -35 -105 -35c-113 0 -170 88 -170 214c0 117 44 353 142 452c40 39 83 57 135 57zM201 122c9 0 20 4 29 13l-39 72l83 43c24 99 42 228 42 268c0 41 -11 58 -34 58
c-10 0 -18 -5 -26 -12c-46 -46 -94 -312 -94 -384c0 -42 13 -58 39 -58z" />
    <glyph glyph-name="R" unicode="R" horiz-adv-x="422" 
d="M211 0l-29 229c-3 0 -6 -1 -8 -1h-6l-44 -228h-149l136 700h107c90 0 148 -20 183 -55c33 -33 49 -77 49 -135c0 -75 -24 -147 -75 -198c-14 -14 -30 -26 -49 -37l40 -275h-155zM192 354h5c25 0 44 7 61 23c26 27 39 82 39 123c0 22 -6 40 -17 51c-10 10 -24 15 -42 15
h-4z" />
    <glyph glyph-name="S" unicode="S" horiz-adv-x="359" 
d="M130 -8c-62 0 -111 19 -154 48l29 149c41 -30 80 -55 122 -55c36 0 59 25 59 62c0 23 -12 48 -45 94c-52 68 -87 124 -87 199c0 64 23 124 62 163s87 56 142 56s101 -15 140 -40l-29 -148c-33 25 -69 46 -107 46c-36 0 -57 -25 -57 -57c0 -25 12 -52 41 -91
c57 -76 92 -130 92 -202c0 -62 -18 -121 -66 -169c-33 -33 -79 -55 -142 -55z" />
    <glyph glyph-name="T" unicode="T" horiz-adv-x="356" 
d="M50 0l109 557h-92l28 143h334l-28 -143h-92l-109 -557h-150z" />
    <glyph glyph-name="U" unicode="U" horiz-adv-x="437" 
d="M182 -10c-106 0 -172 60 -172 158c0 29 3 54 8 81l91 471h149l-93 -477c-4 -23 -7 -42 -7 -56c0 -26 16 -39 36 -39c13 0 22 4 30 12c11 11 17 27 23 54l98 506h150l-97 -501c-14 -70 -36 -119 -71 -154c-36 -36 -86 -55 -145 -55z" />
    <glyph glyph-name="V" unicode="V" horiz-adv-x="414" 
d="M74 -2l6 702h150l-22 -419l141 419h152l-268 -702h-159z" />
    <glyph glyph-name="W" unicode="W" horiz-adv-x="630" 
d="M55 -2l28 702h153l-34 -403l131 403h129l-26 -403l122 403h155l-244 -702h-156l17 353l-118 -353h-157z" />
    <glyph glyph-name="X" unicode="X" horiz-adv-x="409" 
d="M-50 0l181 363l-41 337h151l9 -191l83 191h154l-176 -350l43 -350h-151l-11 205l-90 -205h-152z" />
    <glyph glyph-name="Y" unicode="Y" horiz-adv-x="409" 
d="M77 0l51 261l-48 439h149l9 -247l105 247h152l-218 -439l-51 -261h-149z" />
    <glyph glyph-name="Z" unicode="Z" horiz-adv-x="356" 
d="M-35 0l25 126l235 432h-149l27 142h319l-25 -126l-234 -432h154l-28 -142h-324z" />
    <glyph glyph-name="a" unicode="a" horiz-adv-x="376" 
d="M70 -9c-52 0 -85 41 -85 114c0 61 21 152 67 198c23 23 53 35 85 35s56 -10 81 -25l3 15c2 12 4 24 4 33c0 38 -23 56 -67 56c-31 0 -65 -10 -97 -24l26 136c39 13 70 20 119 20c101 0 166 -50 166 -154c0 -21 -2 -44 -9 -78l-62 -317h-145l8 46c-26 -35 -56 -55 -94 -55
zM144 95c16 0 35 14 41 46l16 84c-11 7 -21 12 -32 12c-8 0 -15 -3 -21 -9c-20 -21 -29 -79 -29 -97c0 -27 11 -36 25 -36z" />
    <glyph glyph-name="a.alt" horiz-adv-x="411" 
d="M92 -11c-58 0 -88 47 -88 137c0 109 40 322 112 393c22 22 46 32 74 32c50 0 75 -34 90 -73l12 63h146l-105 -541h-146l12 64c-32 -43 -64 -75 -107 -75zM177 122c7 0 13 2 19 8c30 31 58 202 58 245c0 28 -7 44 -25 44c-7 0 -13 -2 -19 -8c-30 -31 -58 -202 -58 -246
c0 -27 7 -43 25 -43z" />
    <glyph glyph-name="b" unicode="b" horiz-adv-x="411" 
d="M222 -10c-51 0 -76 34 -91 73l-12 -63h-146l138 710h146l-45 -233c32 43 64 75 107 75c58 0 89 -47 89 -137c0 -109 -41 -322 -112 -393c-23 -23 -47 -32 -74 -32zM182 122c7 0 13 2 19 8c30 31 58 202 58 245c0 28 -7 44 -25 44c-7 0 -13 -2 -19 -8
c-30 -31 -58 -202 -58 -246c0 -27 7 -43 25 -43z" />
    <glyph glyph-name="c" unicode="c" horiz-adv-x="309" 
d="M167 -12c-102 0 -160 69 -160 188c0 89 28 245 106 323c38 38 82 53 127 53c39 0 79 -13 103 -27l-28 -140c-21 17 -41 28 -62 28c-17 0 -30 -6 -41 -17c-41 -41 -57 -150 -57 -201c0 -52 20 -71 54 -71c19 0 37 5 58 14l-26 -137c-24 -9 -45 -13 -74 -13z" />
    <glyph glyph-name="d" unicode="d" horiz-adv-x="411" 
d="M187 0l12 64c-32 -43 -64 -75 -107 -75c-58 0 -88 47 -88 137c0 109 40 322 112 393c22 22 46 32 74 32c50 0 75 -34 90 -73l45 232h146l-138 -710h-146zM177 122c7 0 13 2 19 8c30 31 58 202 58 245c0 28 -7 44 -25 44c-7 0 -13 -2 -19 -8c-30 -31 -58 -202 -58 -246
c0 -27 7 -43 25 -43z" />
    <glyph glyph-name="e" unicode="e" horiz-adv-x="381" 
d="M355 208h-208c-1 -8 -1 -15 -1 -18c0 -54 25 -73 73 -73c32 0 63 8 104 28l-16 -129c-33 -17 -75 -28 -122 -28c-113 0 -178 65 -178 196c0 76 27 234 107 314c36 36 78 54 125 54c87 0 141 -61 141 -174c0 -48 -9 -100 -25 -170zM204 416c-17 -17 -30 -62 -40 -108h75
c7 32 10 57 10 76c0 29 -9 41 -25 41c-6 0 -13 -2 -20 -9z" />
    <glyph glyph-name="f" unicode="f" horiz-adv-x="251" 
d="M-11 0l82 424h-31l23 117h31l8 38c8 41 23 73 46 95c24 24 58 38 103 38c30 0 62 -6 80 -12l-22 -111c-10 3 -19 4 -28 4c-24 0 -36 -12 -41 -39l-3 -14h63l-23 -116h-61l-82 -424h-145z" />
    <glyph glyph-name="g" unicode="g" horiz-adv-x="411" 
d="M130 -133c-65 0 -112 10 -161 26l25 126c38 -16 85 -29 121 -29c27 0 45 6 59 19c13 13 22 34 28 63l8 41c-34 -47 -67 -76 -110 -76c-56 0 -87 45 -87 140c0 106 37 277 102 342c22 22 47 32 74 32c50 0 76 -34 91 -73l12 63h146l-94 -485c-12 -60 -32 -105 -64 -137
c-34 -34 -84 -52 -150 -52zM185 168c7 0 13 2 19 8c30 31 51 159 51 204c0 25 -8 39 -25 39c-7 0 -13 -2 -19 -8c-30 -31 -51 -159 -51 -204c0 -25 8 -39 25 -39z" />
    <glyph glyph-name="h" unicode="h" horiz-adv-x="401" 
d="M-27 0l138 710h146l-45 -231c28 39 64 73 111 73c60 0 88 -41 88 -93c0 -19 -2 -33 -6 -53l-79 -406h-146l70 358c3 16 5 26 5 35c0 17 -8 28 -24 28c-18 0 -34 -17 -39 -44l-73 -377h-146z" />
    <glyph glyph-name="i" unicode="i" horiz-adv-x="200" 
d="M-25 0l105 541h145l-105 -541h-145zM87 582l25 128h147l-25 -128h-147z" />
    <glyph glyph-name="j" unicode="j" horiz-adv-x="202" 
d="M-31 -134c-31 0 -50 3 -72 7l19 101c8 -2 16 -3 24 -3c24 0 34 13 40 43l102 527h145l-104 -534c-20 -105 -70 -141 -154 -141zM89 582l25 128h147l-25 -128h-147z" />
    <glyph glyph-name="k" unicode="k" horiz-adv-x="386" 
d="M-27 0l138 710h146l-67 -341l96 172h156l-137 -231l28 -310h-149l-8 196l-29 -49l-28 -147h-146z" />
    <glyph glyph-name="l" unicode="l" horiz-adv-x="200" 
d="M-25 0l138 710h145l-138 -710h-145z" />
    <glyph glyph-name="m" unicode="m" horiz-adv-x="605" 
d="M-27 0l105 541h145l-12 -62c29 39 64 73 114 73c49 0 73 -29 81 -69c34 43 73 69 120 69c60 0 87 -41 87 -93c0 -19 -2 -33 -5 -53l-79 -406h-145l70 358c3 16 5 26 5 35c0 17 -8 28 -24 28c-18 0 -33 -17 -38 -44l-74 -377h-145l70 358c3 16 5 26 5 35
c0 17 -8 28 -23 28c-19 0 -34 -17 -39 -44l-73 -377h-145z" />
    <glyph glyph-name="n" unicode="n" horiz-adv-x="401" 
d="M-27 0l105 541h146l-12 -62c28 39 64 73 111 73c60 0 88 -41 88 -93c0 -19 -2 -33 -6 -53l-79 -406h-146l70 358c3 16 5 26 5 35c0 17 -8 28 -24 28c-18 0 -34 -17 -39 -44l-73 -377h-146z" />
    <glyph glyph-name="o" unicode="o" horiz-adv-x="402" 
d="M240 552c101 0 155 -72 155 -185c0 -83 -27 -246 -106 -325c-36 -36 -78 -54 -128 -54c-100 0 -154 72 -154 185c0 83 27 246 106 325c36 35 78 54 127 54zM172 115c7 0 13 2 20 9c33 33 62 209 62 257c0 31 -9 44 -25 44c-6 0 -12 -2 -19 -9c-33 -33 -63 -209 -63 -257
c0 -31 9 -44 25 -44z" />
    <glyph glyph-name="p" unicode="p" horiz-adv-x="411" 
d="M222 -10c-51 0 -76 34 -91 73l-37 -193h-146l130 671h146l-12 -64c32 43 64 75 107 75c58 0 89 -47 89 -137c0 -109 -41 -322 -112 -393c-23 -23 -47 -32 -74 -32zM182 122c7 0 13 2 19 8c30 31 58 202 58 245c0 28 -7 44 -25 44c-7 0 -13 -2 -19 -8
c-30 -31 -58 -202 -58 -246c0 -27 7 -43 25 -43z" />
    <glyph glyph-name="q" unicode="q" horiz-adv-x="411" 
d="M92 -11c-58 0 -88 47 -88 137c0 109 40 322 112 393c22 22 46 32 74 32c50 0 75 -34 90 -73l12 63h146l-130 -671h-146l37 194c-32 -43 -64 -75 -107 -75zM177 122c7 0 13 2 19 8c30 31 58 202 58 245c0 28 -7 44 -25 44c-7 0 -13 -2 -19 -8c-30 -31 -58 -202 -58 -246
c0 -27 7 -43 25 -43z" />
    <glyph glyph-name="r" unicode="r" horiz-adv-x="265" 
d="M-27 0l105 541h145l-16 -78c28 57 61 87 103 84l-33 -174h-3c-56 0 -89 -36 -104 -112l-51 -261h-146z" />
    <glyph glyph-name="s" unicode="s" horiz-adv-x="307" 
d="M110 -11c-52 0 -106 19 -139 44l27 135c40 -31 77 -50 104 -50c24 0 38 15 38 36c0 18 -9 34 -38 72c-44 55 -69 94 -69 153c0 95 63 172 168 172c48 0 90 -13 124 -33l-27 -134c-35 24 -69 38 -91 38c-24 0 -36 -14 -36 -31c0 -16 9 -32 38 -70c40 -48 70 -93 70 -152
c0 -98 -64 -180 -169 -180z" />
    <glyph glyph-name="t" unicode="t" horiz-adv-x="259" 
d="M117 -8c-60 0 -108 27 -108 92c0 14 2 29 7 54l55 286h-30l22 117h31l25 132h145l-25 -132h61l-22 -117h-62l-48 -243c-2 -13 -7 -34 -7 -44c0 -14 10 -21 26 -21c10 0 18 1 31 5l-22 -116c-22 -8 -48 -13 -79 -13z" />
    <glyph glyph-name="u" unicode="u" horiz-adv-x="401" 
d="M78 -11c-60 0 -87 41 -87 93c0 19 2 33 5 53l79 406h146l-70 -358c-3 -16 -5 -26 -5 -35c0 -17 8 -28 24 -28c18 0 34 17 39 44l73 377h146l-105 -541h-146l12 62c-28 -40 -64 -73 -111 -73z" />
    <glyph glyph-name="v" unicode="v" horiz-adv-x="385" 
d="M66 -2l-12 543h144l-15 -317l106 317h147l-221 -543h-149z" />
    <glyph glyph-name="w" unicode="w" horiz-adv-x="549" 
d="M47 -2l9 543h143l-19 -280l90 280h113l-18 -280l88 280h145l-201 -543h-132l5 258l-90 -258h-133z" />
    <glyph glyph-name="x" unicode="x" horiz-adv-x="384" 
d="M202 541l14 -143l67 143h150l-155 -271l52 -270h-146l-13 153l-71 -153h-150l158 281l-50 260h144z" />
    <glyph glyph-name="y" unicode="y" horiz-adv-x="383" 
d="M67 11l-13 530h144l-13 -299l104 299h145l-284 -671h-143z" />
    <glyph glyph-name="z" unicode="z" horiz-adv-x="315" 
d="M-41 0l21 110l193 309h-132l23 122h293l-21 -109l-193 -310h136l-24 -122h-296z" />
    <glyph glyph-name="Aacute" unicode="&#xc1;" horiz-adv-x="431" 
d="M-56 0l269 702h172l-3 -702h-149l5 126h-104l-44 -126h-146zM177 253h66l10 221zM246 734l94 118l132 -42l-120 -76h-106z" />
    <glyph glyph-name="aacute" unicode="&#xe1;" horiz-adv-x="376" 
d="M70 -9c-52 0 -85 41 -85 114c0 61 21 152 67 198c23 23 53 35 85 35s56 -10 81 -25l3 15c2 12 4 24 4 33c0 38 -23 56 -67 56c-31 0 -65 -10 -97 -24l26 136c39 13 70 20 119 20c101 0 166 -50 166 -154c0 -21 -2 -44 -9 -78l-62 -317h-145l8 46c-26 -35 -56 -55 -94 -55
zM144 95c16 0 35 14 41 46l16 84c-11 7 -21 12 -32 12c-8 0 -15 -3 -21 -9c-20 -21 -29 -79 -29 -97c0 -27 11 -36 25 -36zM186 578l102 138l117 -44l-128 -94h-91z" />
    <glyph glyph-name="aacute.alt" horiz-adv-x="411" 
d="M224 578l102 138l117 -44l-128 -94h-91zM92 -11c-58 0 -88 47 -88 137c0 109 40 322 112 393c22 22 46 32 74 32c50 0 75 -34 90 -73l12 63h146l-105 -541h-146l12 64c-32 -43 -64 -75 -107 -75zM177 122c7 0 13 2 19 8c30 31 58 202 58 245c0 28 -7 44 -25 44
c-7 0 -13 -2 -19 -8c-30 -31 -58 -202 -58 -246c0 -27 7 -43 25 -43z" />
    <glyph glyph-name="Abreve" unicode="&#x102;" horiz-adv-x="431" 
d="M-56 0l269 702h172l-3 -702h-149l5 126h-104l-44 -126h-146zM177 253h66l10 221zM305 730c-69 0 -116 34 -105 108h78c0 -22 13 -33 37 -33c23 0 38 11 47 33h81c-18 -74 -70 -108 -138 -108z" />
    <glyph glyph-name="abreve" unicode="&#x103;" horiz-adv-x="376" 
d="M70 -9c-52 0 -85 41 -85 114c0 61 21 152 67 198c23 23 53 35 85 35s56 -10 81 -25l3 15c2 12 4 24 4 33c0 38 -23 56 -67 56c-31 0 -65 -10 -97 -24l26 136c39 13 70 20 119 20c101 0 166 -50 166 -154c0 -21 -2 -44 -9 -78l-62 -317h-145l8 46c-26 -35 -56 -55 -94 -55
zM144 95c16 0 35 14 41 46l16 84c-11 7 -21 12 -32 12c-8 0 -15 -3 -21 -9c-20 -21 -29 -79 -29 -97c0 -27 11 -36 25 -36zM243 574c-71 0 -116 37 -109 119h78c0 -27 13 -43 39 -43s43 16 51 43h81c-20 -81 -73 -119 -140 -119z" />
    <glyph glyph-name="abreve.alt" horiz-adv-x="411" 
d="M92 -11c-58 0 -88 47 -88 137c0 109 40 322 112 393c22 22 46 32 74 32c50 0 75 -34 90 -73l12 63h146l-105 -541h-146l12 64c-32 -43 -64 -75 -107 -75zM177 122c7 0 13 2 19 8c30 31 58 202 58 245c0 28 -7 44 -25 44c-7 0 -13 -2 -19 -8c-30 -31 -58 -202 -58 -246
c0 -27 7 -43 25 -43zM282 574c-71 0 -116 37 -109 119h78c0 -27 13 -43 39 -43s43 16 51 43h81c-20 -81 -73 -119 -140 -119z" />
    <glyph glyph-name="Acircumflex" unicode="&#xc2;" horiz-adv-x="431" 
d="M-56 0l269 702h172l-3 -702h-149l5 126h-104l-44 -126h-146zM177 253h66l10 221zM173 734l95 111h113l53 -111h-88l-33 41l-48 -41h-92z" />
    <glyph glyph-name="acircumflex" unicode="&#xe2;" horiz-adv-x="376" 
d="M70 -9c-52 0 -85 41 -85 114c0 61 21 152 67 198c23 23 53 35 85 35s56 -10 81 -25l3 15c2 12 4 24 4 33c0 38 -23 56 -67 56c-31 0 -65 -10 -97 -24l26 136c39 13 70 20 119 20c101 0 166 -50 166 -154c0 -21 -2 -44 -9 -78l-62 -317h-145l8 46c-26 -35 -56 -55 -94 -55
zM144 95c16 0 35 14 41 46l16 84c-11 7 -21 12 -32 12c-8 0 -15 -3 -21 -9c-20 -21 -29 -79 -29 -97c0 -27 11 -36 25 -36zM107 578l104 128h104l53 -128h-82l-36 51l-56 -51h-87z" />
    <glyph glyph-name="acircumflex.alt" horiz-adv-x="411" 
d="M146 578l104 128h104l53 -128h-82l-36 51l-56 -51h-87zM92 -11c-58 0 -88 47 -88 137c0 109 40 322 112 393c22 22 46 32 74 32c50 0 75 -34 90 -73l12 63h146l-105 -541h-146l12 64c-32 -43 -64 -75 -107 -75zM177 122c7 0 13 2 19 8c30 31 58 202 58 245
c0 28 -7 44 -25 44c-7 0 -13 -2 -19 -8c-30 -31 -58 -202 -58 -246c0 -27 7 -43 25 -43z" />
    <glyph glyph-name="Adieresis" unicode="&#xc4;" horiz-adv-x="431" 
d="M-56 0l269 702h172l-3 -702h-149l5 126h-104l-44 -126h-146zM177 253h66l10 221zM173 736l21 110h116l-21 -110h-116zM324 736l21 110h116l-21 -110h-116z" />
    <glyph glyph-name="adieresis" unicode="&#xe4;" horiz-adv-x="376" 
d="M70 -9c-52 0 -85 41 -85 114c0 61 21 152 67 198c23 23 53 35 85 35s56 -10 81 -25l3 15c2 12 4 24 4 33c0 38 -23 56 -67 56c-31 0 -65 -10 -97 -24l26 136c39 13 70 20 119 20c101 0 166 -50 166 -154c0 -21 -2 -44 -9 -78l-62 -317h-145l8 46c-26 -35 -56 -55 -94 -55
zM144 95c16 0 35 14 41 46l16 84c-11 7 -21 12 -32 12c-8 0 -15 -3 -21 -9c-20 -21 -29 -79 -29 -97c0 -27 11 -36 25 -36zM113 580l22 115h113l-22 -115h-113zM256 580l22 115h113l-22 -115h-113z" />
    <glyph glyph-name="adieresis.alt" horiz-adv-x="411" 
d="M152 580l22 115h113l-22 -115h-113zM295 580l22 115h113l-22 -115h-113zM92 -11c-58 0 -88 47 -88 137c0 109 40 322 112 393c22 22 46 32 74 32c50 0 75 -34 90 -73l12 63h146l-105 -541h-146l12 64c-32 -43 -64 -75 -107 -75zM177 122c7 0 13 2 19 8
c30 31 58 202 58 245c0 28 -7 44 -25 44c-7 0 -13 -2 -19 -8c-30 -31 -58 -202 -58 -246c0 -27 7 -43 25 -43z" />
    <glyph glyph-name="AE" unicode="&#xc6;" horiz-adv-x="587" 
d="M-59 0l304 700h405l-28 -142h-153l-27 -136h137l-28 -140h-136l-27 -140h157l-28 -142h-307l25 126h-98l-51 -126h-145zM185 253h74l59 301h-10z" />
    <glyph glyph-name="ae" unicode="&#xe6;" horiz-adv-x="570" 
d="M373 -11c-72 0 -123 27 -149 82c-39 -54 -82 -80 -132 -80c-64 0 -107 43 -107 119c0 62 21 147 67 193c23 23 53 35 85 35s56 -10 81 -25l3 15c2 12 4 24 4 33c0 38 -23 56 -67 56c-31 0 -65 -10 -97 -24l26 136c39 13 71 20 120 20c55 0 95 -16 120 -52
c33 39 71 55 112 55c82 0 130 -61 130 -174c0 -48 -9 -100 -25 -170h-208c-1 -8 -1 -15 -1 -18c0 -54 25 -73 73 -73c32 0 63 8 104 28l-16 -129c-33 -17 -79 -27 -123 -27zM148 99c22 0 43 22 56 46c-1 18 -2 47 2 81c-12 8 -25 13 -37 13c-8 0 -15 -3 -21 -9
c-18 -19 -29 -68 -29 -92c0 -27 12 -39 29 -39zM393 416c-17 -17 -30 -62 -40 -108h75c7 32 10 57 10 76c0 29 -9 41 -25 41c-6 0 -13 -2 -20 -9z" />
    <glyph glyph-name="AEacute" unicode="&#x1fc;" horiz-adv-x="587" 
d="M356 728l94 118l132 -42l-120 -76h-106zM-59 0l304 700h405l-28 -142h-153l-27 -136h137l-28 -140h-136l-27 -140h157l-28 -142h-307l25 126h-98l-51 -126h-145zM185 253h74l59 301h-10z" />
    <glyph glyph-name="aeacute" unicode="&#x1fd;" horiz-adv-x="570" 
d="M373 -11c-72 0 -123 27 -149 82c-39 -54 -82 -80 -132 -80c-64 0 -107 43 -107 119c0 62 21 147 67 193c23 23 53 35 85 35s56 -10 81 -25l3 15c2 12 4 24 4 33c0 38 -23 56 -67 56c-31 0 -65 -10 -97 -24l26 136c39 13 71 20 120 20c55 0 95 -16 120 -52
c33 39 71 55 112 55c82 0 130 -61 130 -174c0 -48 -9 -100 -25 -170h-208c-1 -8 -1 -15 -1 -18c0 -54 25 -73 73 -73c32 0 63 8 104 28l-16 -129c-33 -17 -79 -27 -123 -27zM277 572l102 138l117 -44l-128 -94h-91zM148 99c22 0 43 22 56 46c-1 18 -2 47 2 81
c-12 8 -25 13 -37 13c-8 0 -15 -3 -21 -9c-18 -19 -29 -68 -29 -92c0 -27 12 -39 29 -39zM393 416c-17 -17 -30 -62 -40 -108h75c7 32 10 57 10 76c0 29 -9 41 -25 41c-6 0 -13 -2 -20 -9z" />
    <glyph glyph-name="Agrave" unicode="&#xc0;" horiz-adv-x="431" 
d="M-56 0l269 702h172l-3 -702h-149l5 126h-104l-44 -126h-146zM177 253h66l10 221zM252 734l-96 76l135 42l62 -118h-101z" />
    <glyph glyph-name="agrave" unicode="&#xe0;" horiz-adv-x="376" 
d="M70 -9c-52 0 -85 41 -85 114c0 61 21 152 67 198c23 23 53 35 85 35s56 -10 81 -25l3 15c2 12 4 24 4 33c0 38 -23 56 -67 56c-31 0 -65 -10 -97 -24l26 136c39 13 70 20 119 20c101 0 166 -50 166 -154c0 -21 -2 -44 -9 -78l-62 -317h-145l8 46c-26 -35 -56 -55 -94 -55
zM144 95c16 0 35 14 41 46l16 84c-11 7 -21 12 -32 12c-8 0 -15 -3 -21 -9c-20 -21 -29 -79 -29 -97c0 -27 11 -36 25 -36zM195 578l-101 94l122 44l66 -138h-87z" />
    <glyph glyph-name="agrave.alt" horiz-adv-x="411" 
d="M92 -11c-58 0 -88 47 -88 137c0 109 40 322 112 393c22 22 46 32 74 32c50 0 75 -34 90 -73l12 63h146l-105 -541h-146l12 64c-32 -43 -64 -75 -107 -75zM177 122c7 0 13 2 19 8c30 31 58 202 58 245c0 28 -7 44 -25 44c-7 0 -13 -2 -19 -8c-30 -31 -58 -202 -58 -246
c0 -27 7 -43 25 -43zM234 578l-101 94l122 44l66 -138h-87z" />
    <glyph glyph-name="Amacron" unicode="&#x100;" horiz-adv-x="431" 
d="M-56 0l269 702h172l-3 -702h-149l5 126h-104l-44 -126h-146zM177 253h66l10 221zM177 737l18 91h258l-18 -91h-258z" />
    <glyph glyph-name="amacron" unicode="&#x101;" horiz-adv-x="376" 
d="M70 -9c-52 0 -85 41 -85 114c0 61 21 152 67 198c23 23 53 35 85 35s56 -10 81 -25l3 15c2 12 4 24 4 33c0 38 -23 56 -67 56c-31 0 -65 -10 -97 -24l26 136c39 13 70 20 119 20c101 0 166 -50 166 -154c0 -21 -2 -44 -9 -78l-62 -317h-145l8 46c-26 -35 -56 -55 -94 -55
zM144 95c16 0 35 14 41 46l16 84c-11 7 -21 12 -32 12c-8 0 -15 -3 -21 -9c-20 -21 -29 -79 -29 -97c0 -27 11 -36 25 -36zM117 581l18 90h247l-18 -90h-247z" />
    <glyph glyph-name="amacron.alt" horiz-adv-x="411" 
d="M92 -11c-58 0 -88 47 -88 137c0 109 40 322 112 393c22 22 46 32 74 32c50 0 75 -34 90 -73l12 63h146l-105 -541h-146l12 64c-32 -43 -64 -75 -107 -75zM177 122c7 0 13 2 19 8c30 31 58 202 58 245c0 28 -7 44 -25 44c-7 0 -13 -2 -19 -8c-30 -31 -58 -202 -58 -246
c0 -27 7 -43 25 -43zM157 581l18 90h247l-18 -90h-247z" />
    <glyph glyph-name="Aogonek" unicode="&#x104;" horiz-adv-x="431" 
d="M376 -66l-15 -77c-18 -3 -37 -4 -55 -4c-63 0 -97 21 -97 60c0 31 18 57 55 87h-31l5 126h-104l-44 -126h-146l269 702h172l-3 -702h-20c-21 -21 -29 -34 -29 -45c0 -13 11 -19 43 -21zM177 253h66l10 221z" />
    <glyph glyph-name="aogonek" unicode="&#x105;" horiz-adv-x="376" 
d="M295 -66l-15 -77c-18 -3 -37 -4 -55 -4c-63 0 -97 21 -97 60c0 31 18 57 55 87h-27l8 46c-26 -35 -56 -55 -94 -55c-52 0 -85 41 -85 114c0 61 21 152 67 198c23 23 53 35 85 35s56 -10 81 -25l3 15c2 12 4 24 4 33c0 38 -23 56 -67 56c-31 0 -65 -10 -97 -24l26 136
c39 13 70 20 119 20c101 0 166 -50 166 -154c0 -21 -2 -44 -9 -78l-62 -317h-20c-21 -21 -29 -34 -29 -45c0 -13 11 -19 43 -21zM144 95c16 0 35 14 41 46l16 84c-11 7 -21 12 -32 12c-8 0 -15 -3 -21 -9c-20 -21 -29 -79 -29 -97c0 -27 11 -36 25 -36z" />
    <glyph glyph-name="aogonek.alt" horiz-adv-x="411" 
d="M326 -66l-15 -77c-18 -3 -37 -4 -55 -4c-63 0 -97 21 -97 60c0 31 18 57 55 87h-27l12 64c-32 -43 -64 -75 -107 -75c-58 0 -88 47 -88 137c0 109 40 322 112 393c22 22 46 32 74 32c50 0 75 -34 90 -73l12 63h146l-105 -541h-21c-21 -21 -29 -34 -29 -45
c0 -13 11 -19 43 -21zM177 122c7 0 13 2 19 8c30 31 58 202 58 245c0 28 -7 44 -25 44c-7 0 -13 -2 -19 -8c-30 -31 -58 -202 -58 -246c0 -27 7 -43 25 -43z" />
    <glyph glyph-name="Aring" unicode="&#xc5;" horiz-adv-x="431" 
d="M-56 0l268 699c-4 9 -6 19 -6 30c0 56 46 100 108 100c49 0 88 -33 88 -80c0 -20 -6 -39 -17 -55l-3 -694h-149l5 126h-104l-44 -126h-146zM177 253h66l10 221zM299 694c29 0 50 22 50 49c0 23 -16 39 -40 39c-28 0 -49 -22 -49 -50c0 -23 16 -38 39 -38z" />
    <glyph glyph-name="aring" unicode="&#xe5;" horiz-adv-x="376" 
d="M70 -9c-52 0 -85 41 -85 114c0 61 21 152 67 198c23 23 53 35 85 35s56 -10 81 -25l3 15c2 12 4 24 4 33c0 38 -23 56 -67 56c-31 0 -65 -10 -97 -24l26 136c39 13 70 20 119 20c101 0 166 -50 166 -154c0 -21 -2 -44 -9 -78l-62 -317h-145l8 46c-26 -35 -56 -55 -94 -55
zM144 95c16 0 35 14 41 46l16 84c-11 7 -21 12 -32 12c-8 0 -15 -3 -21 -9c-20 -21 -29 -79 -29 -97c0 -27 11 -36 25 -36zM351 678c0 -52 -39 -105 -103 -105c-47 0 -84 33 -84 82c0 52 39 106 104 106c47 0 83 -33 83 -83zM217 658c0 -20 12 -38 35 -38c26 0 47 24 47 55
c0 21 -12 38 -36 38c-26 0 -46 -23 -46 -55z" />
    <glyph glyph-name="aring.alt" horiz-adv-x="411" 
d="M390 678c0 -52 -39 -105 -103 -105c-47 0 -84 33 -84 82c0 52 39 106 104 106c47 0 83 -33 83 -83zM256 658c0 -20 12 -38 35 -38c26 0 47 24 47 55c0 21 -12 38 -36 38c-26 0 -46 -23 -46 -55zM92 -11c-58 0 -88 47 -88 137c0 109 40 322 112 393c22 22 46 32 74 32
c50 0 75 -34 90 -73l12 63h146l-105 -541h-146l12 64c-32 -43 -64 -75 -107 -75zM177 122c7 0 13 2 19 8c30 31 58 202 58 245c0 28 -7 44 -25 44c-7 0 -13 -2 -19 -8c-30 -31 -58 -202 -58 -246c0 -27 7 -43 25 -43z" />
    <glyph glyph-name="aring.alt2" horiz-adv-x="376" 
d="M156 0l8 46c-26 -35 -56 -55 -94 -55c-52 0 -85 41 -85 114c0 61 21 152 67 198c23 23 53 35 85 35s56 -10 81 -25l3 15c2 12 4 24 4 33c0 38 -23 56 -67 56c-31 0 -65 -10 -97 -24l26 136c26 9 50 15 78 18c-6 11 -9 24 -9 39c0 52 39 105 104 105c47 0 83 -32 83 -82
c0 -32 -14 -63 -39 -82c43 -24 68 -68 68 -132c0 -21 -2 -44 -9 -78l-62 -317h-145zM244 551c26 0 47 23 47 55c0 20 -12 38 -36 38c-26 0 -47 -23 -47 -55c0 -21 12 -38 36 -38zM144 95c18 0 35 14 41 46l16 84c-11 7 -21 12 -32 12c-8 0 -15 -3 -21 -9
c-20 -21 -29 -82 -29 -98c0 -24 10 -35 25 -35z" />
    <glyph glyph-name="Aringacute" unicode="&#x1fa;" horiz-adv-x="431" 
d="M-56 0l268 699c-4 9 -6 19 -6 30c0 56 46 100 108 100c49 0 88 -33 88 -80c0 -20 -6 -39 -17 -55l-3 -694h-149l5 126h-104l-44 -126h-146zM275 844l84 100l133 -38l-112 -62h-105zM177 253h66l10 221zM299 694c29 0 50 22 50 49c0 23 -16 39 -40 39
c-28 0 -49 -22 -49 -50c0 -23 16 -38 39 -38z" />
    <glyph glyph-name="aringacute" unicode="&#x1fb;" horiz-adv-x="376" 
d="M228 780l91 108l121 -37l-116 -71h-96zM70 -9c-52 0 -85 41 -85 114c0 61 21 152 67 198c23 23 53 35 85 35s56 -10 81 -25l3 15c2 12 4 24 4 33c0 38 -23 56 -67 56c-31 0 -65 -10 -97 -24l26 136c39 13 70 20 119 20c101 0 166 -50 166 -154c0 -21 -2 -44 -9 -78
l-62 -317h-145l8 46c-26 -35 -56 -55 -94 -55zM144 95c16 0 35 14 41 46l16 84c-11 7 -21 12 -32 12c-8 0 -15 -3 -21 -9c-20 -21 -29 -79 -29 -97c0 -27 11 -36 25 -36zM351 678c0 -52 -39 -105 -103 -105c-47 0 -84 33 -84 82c0 52 39 106 104 106c47 0 83 -33 83 -83z
M217 658c0 -20 12 -38 35 -38c26 0 47 24 47 55c0 21 -12 38 -36 38c-26 0 -46 -23 -46 -55z" />
    <glyph glyph-name="aringacute.alt" horiz-adv-x="411" 
d="M267 780l91 108l122 -37l-117 -71h-96zM390 678c0 -52 -39 -105 -103 -105c-47 0 -84 33 -84 82c0 52 39 106 104 106c47 0 83 -33 83 -83zM256 658c0 -20 12 -38 35 -38c26 0 47 24 47 55c0 21 -12 38 -36 38c-26 0 -46 -23 -46 -55zM92 -11c-58 0 -88 47 -88 137
c0 109 40 322 112 393c22 22 46 32 74 32c50 0 75 -34 90 -73l12 63h146l-105 -541h-146l12 64c-32 -43 -64 -75 -107 -75zM177 122c7 0 13 2 19 8c30 31 58 202 58 245c0 28 -7 44 -25 44c-7 0 -13 -2 -19 -8c-30 -31 -58 -202 -58 -246c0 -27 7 -43 25 -43z" />
    <glyph glyph-name="aringacute.alt2" horiz-adv-x="376" 
d="M220 710l91 108l122 -37l-117 -71h-96zM156 0l8 46c-26 -35 -56 -55 -94 -55c-52 0 -85 41 -85 114c0 61 21 152 67 198c23 23 53 35 85 35s56 -10 81 -25l3 15c2 12 4 24 4 33c0 38 -23 56 -67 56c-31 0 -65 -10 -97 -24l26 136c26 9 50 15 78 18c-6 11 -9 24 -9 39
c0 52 39 105 104 105c47 0 83 -32 83 -82c0 -32 -14 -63 -39 -82c43 -24 68 -68 68 -132c0 -21 -2 -44 -9 -78l-62 -317h-145zM244 551c26 0 47 23 47 55c0 20 -12 38 -36 38c-26 0 -47 -23 -47 -55c0 -21 12 -38 36 -38zM144 95c18 0 35 14 41 46l16 84
c-11 7 -21 12 -32 12c-8 0 -15 -3 -21 -9c-20 -21 -29 -82 -29 -98c0 -24 10 -35 25 -35z" />
    <glyph glyph-name="Atilde" unicode="&#xc3;" horiz-adv-x="431" 
d="M-56 0l269 702h172l-3 -702h-149l5 126h-104l-44 -126h-146zM177 253h66l10 221zM234 728l-70 15c23 80 51 116 93 116c20 0 39 -8 63 -18c23 -10 34 -15 45 -15c15 0 24 10 35 36l71 -14c-24 -80 -52 -116 -94 -116c-20 0 -37 7 -61 17s-36 15 -47 15
c-15 0 -23 -9 -35 -36z" />
    <glyph glyph-name="atilde" unicode="&#xe3;" horiz-adv-x="376" 
d="M70 -9c-52 0 -85 41 -85 114c0 61 21 152 67 198c23 23 53 35 85 35s56 -10 81 -25l3 15c2 12 4 24 4 33c0 38 -23 56 -67 56c-31 0 -65 -10 -97 -24l26 136c39 13 70 20 119 20c101 0 166 -50 166 -154c0 -21 -2 -44 -9 -78l-62 -317h-145l8 46c-26 -35 -56 -55 -94 -55
zM144 95c16 0 35 14 41 46l16 84c-11 7 -21 12 -32 12c-8 0 -15 -3 -21 -9c-20 -21 -29 -79 -29 -97c0 -27 11 -36 25 -36zM335 704l69 -14c-21 -77 -54 -114 -94 -114c-21 0 -37 8 -59 17c-23 10 -35 15 -46 15c-16 0 -25 -9 -36 -36l-69 14c22 80 54 114 94 114
c21 0 38 -8 59 -17c23 -10 34 -15 46 -15c16 0 25 9 36 36z" />
    <glyph glyph-name="atilde.alt" horiz-adv-x="411" 
d="M92 -11c-58 0 -88 47 -88 137c0 109 40 322 112 393c22 22 46 32 74 32c50 0 75 -34 90 -73l12 63h146l-105 -541h-146l12 64c-32 -43 -64 -75 -107 -75zM177 122c7 0 13 2 19 8c30 31 58 202 58 245c0 28 -7 44 -25 44c-7 0 -13 -2 -19 -8c-30 -31 -58 -202 -58 -246
c0 -27 7 -43 25 -43zM374 704l69 -14c-21 -77 -54 -114 -94 -114c-21 0 -37 8 -59 17c-23 10 -35 15 -46 15c-16 0 -25 -9 -36 -36l-69 14c22 80 54 114 94 114c21 0 38 -8 59 -17c23 -10 34 -15 46 -15c16 0 25 9 36 36z" />
    <glyph glyph-name="Cacute" unicode="&#x106;" horiz-adv-x="362" 
d="M207 -7c-115 0 -187 72 -187 232c0 119 40 323 138 421c44 44 95 62 148 62c49 0 84 -12 114 -28l-30 -149c-29 23 -53 33 -78 33c-21 0 -37 -8 -53 -23c-56 -56 -89 -236 -89 -306c0 -73 26 -100 76 -100c22 0 43 5 74 18l-28 -142c-26 -11 -53 -18 -85 -18zM247 734
l94 118l132 -42l-120 -76h-106z" />
    <glyph glyph-name="cacute" unicode="&#x107;" horiz-adv-x="309" 
d="M187 578l102 138l117 -44l-128 -94h-91zM167 -12c-102 0 -160 69 -160 188c0 89 28 245 106 323c38 38 82 53 127 53c39 0 79 -13 103 -27l-28 -140c-21 17 -41 28 -62 28c-17 0 -30 -6 -41 -17c-41 -41 -57 -150 -57 -201c0 -52 20 -71 54 -71c19 0 37 5 58 14l-26 -137
c-24 -9 -45 -13 -74 -13z" />
    <glyph glyph-name="Ccaron" unicode="&#x10c;" horiz-adv-x="362" 
d="M207 -7c-115 0 -187 72 -187 232c0 119 40 323 138 421c44 44 95 62 148 62c49 0 84 -12 114 -28l-30 -149c-29 23 -53 33 -78 33c-21 0 -37 -8 -53 -23c-56 -56 -89 -236 -89 -306c0 -73 26 -100 76 -100c22 0 43 5 74 18l-28 -142c-26 -11 -53 -18 -85 -18zM457 845
l-95 -111h-113l-53 111h89l33 -41l48 41h91z" />
    <glyph glyph-name="ccaron" unicode="&#x10d;" horiz-adv-x="309" 
d="M188 578l-53 128h82l36 -50l56 50h87l-104 -128h-104zM167 -12c-102 0 -160 69 -160 188c0 89 28 245 106 323c38 38 82 53 127 53c39 0 79 -13 103 -27l-28 -140c-21 17 -41 28 -62 28c-17 0 -30 -6 -41 -17c-41 -41 -57 -150 -57 -201c0 -52 20 -71 54 -71
c19 0 37 5 58 14l-26 -137c-24 -9 -45 -13 -74 -13z" />
    <glyph glyph-name="Ccedilla" unicode="&#xc7;" horiz-adv-x="362" 
d="M148 -129l-125 35l95 105c-62 31 -98 100 -98 214c0 119 40 323 138 421c44 44 95 62 148 62c49 0 84 -12 114 -28l-30 -149c-29 23 -53 33 -78 33c-21 0 -37 -8 -53 -23c-56 -56 -89 -236 -89 -306c0 -73 26 -100 76 -100c22 0 43 5 74 18l-28 -142
c-26 -11 -53 -18 -85 -18z" />
    <glyph glyph-name="ccedilla" unicode="&#xe7;" horiz-adv-x="309" 
d="M118 -129l-125 35l91 101c-50 29 -77 87 -77 169c0 89 28 245 106 323c38 38 82 53 127 53c39 0 79 -13 103 -27l-28 -140c-21 17 -41 28 -62 28c-17 0 -30 -6 -41 -17c-41 -41 -57 -150 -57 -201c0 -52 20 -71 54 -71c19 0 37 5 58 14l-26 -137c-22 -8 -42 -12 -67 -13z
" />
    <glyph glyph-name="Cdotaccent" unicode="&#x10a;" horiz-adv-x="362" 
d="M247 736l21 110h121l-21 -110h-121zM207 -7c-115 0 -187 72 -187 232c0 119 40 323 138 421c44 44 95 62 148 62c49 0 84 -12 114 -28l-30 -149c-29 23 -53 33 -78 33c-21 0 -37 -8 -53 -23c-56 -56 -89 -236 -89 -306c0 -73 26 -100 76 -100c22 0 43 5 74 18l-28 -142
c-26 -11 -53 -18 -85 -18z" />
    <glyph glyph-name="cdotaccent" unicode="&#x10b;" horiz-adv-x="309" 
d="M167 -12c-102 0 -160 69 -160 188c0 89 28 245 106 323c38 38 82 53 127 53c39 0 79 -13 103 -27l-28 -140c-21 17 -41 28 -62 28c-17 0 -30 -6 -41 -17c-41 -41 -57 -150 -57 -201c0 -52 20 -71 54 -71c19 0 37 5 58 14l-26 -137c-24 -9 -45 -13 -74 -13zM183 580
l22 115h120l-22 -115h-120z" />
    <glyph glyph-name="Dcaron" unicode="&#x10e;" horiz-adv-x="446" 
d="M-25 0l136 700h101c80 0 141 -19 183 -61c37 -37 60 -98 60 -180c0 -106 -37 -294 -125 -382c-52 -52 -121 -77 -213 -77h-142zM281 546c-12 12 -28 16 -46 16h-1l-82 -424h2c29 0 49 9 68 28c54 54 83 229 83 292c0 33 -4 68 -24 88zM434 839l-95 -111h-113l-53 111h89
l33 -41l48 41h91z" />
    <glyph glyph-name="dcaron" unicode="&#x10f;" horiz-adv-x="411" 
d="M464 563l37 147h87v-1l-67 -146h-57zM187 0l12 64c-32 -43 -64 -75 -107 -75c-58 0 -88 47 -88 137c0 109 40 322 112 393c22 22 46 32 74 32c50 0 75 -34 90 -73l45 232h146l-138 -710h-146zM177 122c7 0 13 2 19 8c30 31 58 202 58 245c0 28 -7 44 -25 44
c-7 0 -13 -2 -19 -8c-30 -31 -58 -202 -58 -246c0 -27 7 -43 25 -43z" />
    <glyph glyph-name="Dcroat" unicode="&#x110;" horiz-adv-x="460" 
d="M11 288l24 128h35l55 284h100c81 0 142 -19 184 -61c37 -37 60 -98 60 -180c0 -106 -37 -294 -125 -382c-52 -52 -121 -77 -213 -77h-142l56 288h-34zM295 546c-12 12 -28 16 -46 16h-3l-29 -147h48l-24 -126h-48l-29 -151h4c29 0 49 9 68 28c54 54 83 229 83 292
c0 33 -4 68 -24 88z" />
    <glyph glyph-name="dcroat" unicode="&#x111;" horiz-adv-x="411" 
d="M228 576l19 94h70l8 40h146l-8 -40h28l-19 -97h-28l-111 -573h-146l12 64c-32 -43 -64 -75 -107 -75c-58 0 -88 47 -88 137c0 109 40 322 112 393c22 22 46 32 74 32c50 0 75 -34 90 -73l19 98h-71zM177 122c7 0 13 2 19 8c30 31 58 202 58 245c0 28 -7 44 -25 44
c-7 0 -13 -2 -19 -8c-30 -31 -58 -202 -58 -246c0 -27 7 -43 25 -43z" />
    <glyph glyph-name="Eacute" unicode="&#xc9;" horiz-adv-x="352" 
d="M208 728l94 118l132 -42l-120 -76h-106zM-25 0l136 700h303l-27 -142h-154l-26 -136h136l-27 -140h-137l-26 -140h156l-28 -142h-306z" />
    <glyph glyph-name="eacute" unicode="&#xe9;" horiz-adv-x="381" 
d="M355 208h-208c-1 -8 -1 -15 -1 -18c0 -54 25 -73 73 -73c32 0 63 8 104 28l-16 -129c-33 -17 -75 -28 -122 -28c-113 0 -178 65 -178 196c0 76 27 234 107 314c36 36 78 54 125 54c87 0 141 -61 141 -174c0 -48 -9 -100 -25 -170zM195 578l102 138l117 -44l-128 -94h-91z
M204 416c-17 -17 -30 -62 -40 -108h75c7 32 10 57 10 76c0 29 -9 41 -25 41c-6 0 -13 -2 -20 -9z" />
    <glyph glyph-name="Ebreve" unicode="&#x114;" horiz-adv-x="352" 
d="M266 724c-69 0 -116 34 -105 108h78c0 -22 13 -33 37 -33c23 0 38 11 47 33h81c-18 -74 -70 -108 -138 -108zM-25 0l136 700h303l-27 -142h-154l-26 -136h136l-27 -140h-137l-26 -140h156l-28 -142h-306z" />
    <glyph glyph-name="ebreve" unicode="&#x115;" horiz-adv-x="381" 
d="M355 208h-208c-1 -8 -1 -15 -1 -18c0 -54 25 -73 73 -73c32 0 63 8 104 28l-16 -129c-33 -17 -75 -28 -122 -28c-113 0 -178 65 -178 196c0 76 27 234 107 314c36 36 78 54 125 54c87 0 141 -61 141 -174c0 -48 -9 -100 -25 -170zM252 574c-71 0 -116 37 -109 119h78
c0 -27 13 -43 39 -43s43 16 51 43h81c-20 -81 -73 -119 -140 -119zM204 416c-17 -17 -30 -62 -40 -108h75c7 32 10 57 10 76c0 29 -9 41 -25 41c-6 0 -13 -2 -20 -9z" />
    <glyph glyph-name="Ecaron" unicode="&#x11a;" horiz-adv-x="352" 
d="M416 839l-95 -111h-113l-53 111h89l33 -41l48 41h91zM-25 0l136 700h303l-27 -142h-154l-26 -136h136l-27 -140h-137l-26 -140h156l-28 -142h-306z" />
    <glyph glyph-name="ecaron" unicode="&#x11b;" horiz-adv-x="381" 
d="M355 208h-208c-1 -8 -1 -15 -1 -18c0 -54 25 -73 73 -73c32 0 63 8 104 28l-16 -129c-33 -17 -75 -28 -122 -28c-113 0 -178 65 -178 196c0 76 27 234 107 314c36 36 78 54 125 54c87 0 141 -61 141 -174c0 -48 -9 -100 -25 -170zM195 578l-53 128h82l36 -50l56 50h87
l-104 -128h-104zM204 416c-17 -17 -30 -62 -40 -108h75c7 32 10 57 10 76c0 29 -9 41 -25 41c-6 0 -13 -2 -20 -9z" />
    <glyph glyph-name="Ecircumflex" unicode="&#xca;" horiz-adv-x="352" 
d="M-25 0l136 700h303l-27 -142h-154l-26 -136h136l-27 -140h-137l-26 -140h156l-28 -142h-306zM133 728l95 111h113l53 -111h-88l-33 41l-48 -41h-92z" />
    <glyph glyph-name="ecircumflex" unicode="&#xea;" horiz-adv-x="381" 
d="M355 208h-208c-1 -8 -1 -15 -1 -18c0 -54 25 -73 73 -73c32 0 63 8 104 28l-16 -129c-33 -17 -75 -28 -122 -28c-113 0 -178 65 -178 196c0 76 27 234 107 314c36 36 78 54 125 54c87 0 141 -61 141 -174c0 -48 -9 -100 -25 -170zM116 578l104 128h104l53 -128h-82
l-36 51l-56 -51h-87zM204 416c-17 -17 -30 -62 -40 -108h75c7 32 10 57 10 76c0 29 -9 41 -25 41c-6 0 -13 -2 -20 -9z" />
    <glyph glyph-name="Edieresis" unicode="&#xcb;" horiz-adv-x="352" 
d="M133 730l21 110h116l-21 -110h-116zM284 730l21 110h116l-21 -110h-116zM-25 0l136 700h303l-27 -142h-154l-26 -136h136l-27 -140h-137l-26 -140h156l-28 -142h-306z" />
    <glyph glyph-name="edieresis" unicode="&#xeb;" horiz-adv-x="381" 
d="M355 208h-208c-1 -8 -1 -15 -1 -18c0 -54 25 -73 73 -73c32 0 63 8 104 28l-16 -129c-33 -17 -75 -28 -122 -28c-113 0 -178 65 -178 196c0 76 27 234 107 314c36 36 78 54 125 54c87 0 141 -61 141 -174c0 -48 -9 -100 -25 -170zM265 580l22 115h113l-22 -115h-113z
M122 580l22 115h113l-22 -115h-113zM204 416c-17 -17 -30 -62 -40 -108h75c7 32 10 57 10 76c0 29 -9 41 -25 41c-6 0 -13 -2 -20 -9z" />
    <glyph glyph-name="Edotaccent" unicode="&#x116;" horiz-adv-x="352" 
d="M206 730l21 110h121l-21 -110h-121zM-25 0l136 700h303l-27 -142h-154l-26 -136h136l-27 -140h-137l-26 -140h156l-28 -142h-306z" />
    <glyph glyph-name="edotaccent" unicode="&#x117;" horiz-adv-x="381" 
d="M355 208h-208c-1 -8 -1 -15 -1 -18c0 -54 25 -73 73 -73c32 0 63 8 104 28l-16 -129c-33 -17 -75 -28 -122 -28c-113 0 -178 65 -178 196c0 76 27 234 107 314c36 36 78 54 125 54c87 0 141 -61 141 -174c0 -48 -9 -100 -25 -170zM190 580l22 115h120l-22 -115h-120z
M204 416c-17 -17 -30 -62 -40 -108h75c7 32 10 57 10 76c0 29 -9 41 -25 41c-6 0 -13 -2 -20 -9z" />
    <glyph glyph-name="Egrave" unicode="&#xc8;" horiz-adv-x="352" 
d="M213 728l-96 76l135 42l62 -118h-101zM-25 0l136 700h303l-27 -142h-154l-26 -136h136l-27 -140h-137l-26 -140h156l-28 -142h-306z" />
    <glyph glyph-name="egrave" unicode="&#xe8;" horiz-adv-x="381" 
d="M355 208h-208c-1 -8 -1 -15 -1 -18c0 -54 25 -73 73 -73c32 0 63 8 104 28l-16 -129c-33 -17 -75 -28 -122 -28c-113 0 -178 65 -178 196c0 76 27 234 107 314c36 36 78 54 125 54c87 0 141 -61 141 -174c0 -48 -9 -100 -25 -170zM204 578l-101 94l122 44l66 -138h-87z
M204 416c-17 -17 -30 -62 -40 -108h75c7 32 10 57 10 76c0 29 -9 41 -25 41c-6 0 -13 -2 -20 -9z" />
    <glyph glyph-name="Emacron" unicode="&#x112;" horiz-adv-x="352" 
d="M138 731l18 91h258l-18 -91h-258zM-25 0l136 700h303l-27 -142h-154l-26 -136h136l-27 -140h-137l-26 -140h156l-28 -142h-306z" />
    <glyph glyph-name="emacron" unicode="&#x113;" horiz-adv-x="381" 
d="M355 208h-208c-1 -8 -1 -15 -1 -18c0 -54 25 -73 73 -73c32 0 63 8 104 28l-16 -129c-33 -17 -75 -28 -122 -28c-113 0 -178 65 -178 196c0 76 27 234 107 314c36 36 78 54 125 54c87 0 141 -61 141 -174c0 -48 -9 -100 -25 -170zM126 581l18 90h247l-18 -90h-247z
M204 416c-17 -17 -30 -62 -40 -108h75c7 32 10 57 10 76c0 29 -9 41 -25 41c-6 0 -13 -2 -20 -9z" />
    <glyph glyph-name="Eogonek" unicode="&#x118;" horiz-adv-x="352" 
d="M-25 0l136 700h303l-27 -142h-154l-26 -136h136l-27 -140h-137l-26 -140h156l-28 -142h-25c-21 -21 -29 -34 -29 -45c0 -13 11 -19 43 -21l-15 -77c-18 -3 -37 -4 -55 -4c-63 0 -97 21 -97 60c0 31 18 57 55 87h-183z" />
    <glyph glyph-name="eogonek" unicode="&#x119;" horiz-adv-x="381" 
d="M323 145l-15 -125c-19 -11 -33 -22 -46 -35c-10 -10 -17 -20 -17 -29c0 -14 12 -20 44 -22l-15 -77c-19 -3 -38 -4 -56 -4c-63 0 -97 21 -97 60c0 25 10 48 42 77c-93 7 -156 64 -156 194c0 76 27 234 107 314c36 36 78 54 125 54c87 0 141 -61 141 -174
c0 -48 -9 -100 -25 -170h-208c-1 -8 -1 -15 -1 -18c0 -54 25 -73 73 -73c32 0 63 8 104 28zM204 416c-17 -17 -30 -62 -40 -108h75c7 32 10 57 10 76c0 29 -9 41 -25 41c-6 0 -13 -2 -20 -9z" />
    <glyph glyph-name="Eth" unicode="&#xd0;" horiz-adv-x="460" 
d="M11 288l24 128h35l55 284h100c81 0 142 -19 184 -61c37 -37 60 -98 60 -180c0 -106 -37 -294 -125 -382c-52 -52 -121 -77 -213 -77h-142l56 288h-34zM295 546c-12 12 -28 16 -46 16h-3l-29 -147h48l-24 -126h-48l-29 -151h4c29 0 49 9 68 28c54 54 83 229 83 292
c0 33 -4 68 -24 88z" />
    <glyph glyph-name="eth" unicode="&#xf0;" horiz-adv-x="402" 
d="M170 571l-17 69l52 14c-12 19 -26 38 -40 56h157l14 -21l62 17l17 -69l-48 -13c24 -66 32 -139 32 -203c0 -107 -26 -292 -115 -381c-33 -33 -75 -52 -124 -52c-100 0 -152 73 -152 186c0 80 29 253 108 332c29 29 58 39 83 39c27 0 47 -11 64 -30c-5 26 -13 50 -24 74z
M172 114c7 0 13 3 20 10c34 34 62 212 62 258c0 31 -8 45 -24 45c-7 0 -13 -3 -20 -10c-34 -34 -62 -212 -62 -258c0 -31 8 -45 24 -45z" />
    <glyph glyph-name="Gbreve" unicode="&#x11e;" horiz-adv-x="430" 
d="M330 730c-69 0 -116 34 -105 108h78c0 -22 13 -33 37 -33c23 0 38 11 47 33h81c-18 -74 -70 -108 -138 -108zM227 -11c-127 0 -206 81 -206 241c0 111 38 306 140 408c49 49 105 72 170 72c63 0 103 -17 130 -35l-30 -148c-31 23 -63 40 -101 40c-26 0 -48 -9 -67 -28
c-68 -68 -91 -250 -91 -311c0 -71 23 -103 56 -103c5 0 10 1 14 2l29 151h-53l26 132h189l-77 -393c-40 -17 -83 -28 -129 -28z" />
    <glyph glyph-name="gbreve" unicode="&#x11f;" horiz-adv-x="411" 
d="M130 -133c-65 0 -112 10 -161 26l25 126c38 -16 85 -29 121 -29c27 0 45 6 59 19c13 13 22 34 28 63l8 41c-34 -47 -67 -76 -110 -76c-56 0 -87 45 -87 140c0 106 37 277 102 342c22 22 47 32 74 32c50 0 76 -34 91 -73l12 63h146l-94 -485c-12 -60 -32 -105 -64 -137
c-34 -34 -84 -52 -150 -52zM185 168c7 0 13 2 19 8c30 31 51 159 51 204c0 25 -8 39 -25 39c-7 0 -13 -2 -19 -8c-30 -31 -51 -159 -51 -204c0 -25 8 -39 25 -39zM278 574c-71 0 -116 37 -109 119h78c0 -27 13 -43 39 -43s43 16 51 43h81c-20 -81 -73 -119 -140 -119z" />
    <glyph glyph-name="Gcommaaccent" unicode="&#x122;" horiz-adv-x="430" 
d="M90 -223v42c46 7 63 21 69 47h-55l18 97h116l-15 -82c-14 -71 -64 -98 -133 -104zM227 -11c-127 0 -206 81 -206 241c0 111 38 306 140 408c49 49 105 72 170 72c63 0 103 -17 130 -35l-30 -148c-31 23 -63 40 -101 40c-26 0 -48 -9 -67 -28c-68 -68 -91 -250 -91 -311
c0 -71 23 -103 56 -103c5 0 10 1 14 2l29 151h-53l26 132h189l-77 -393c-40 -17 -83 -28 -129 -28z" />
    <glyph glyph-name="gcommaaccent" unicode="&#x123;" horiz-adv-x="411" 
d="M365 765v-42c-46 -7 -63 -21 -69 -47h55l-18 -97h-116l15 82c14 71 64 98 133 104zM130 -133c-65 0 -112 10 -161 26l25 126c38 -16 85 -29 121 -29c27 0 45 6 59 19c13 13 22 34 28 63l8 41c-34 -47 -67 -76 -110 -76c-56 0 -87 45 -87 140c0 106 37 277 102 342
c22 22 47 32 74 32c50 0 76 -34 91 -73l12 63h146l-94 -485c-12 -60 -32 -105 -64 -137c-34 -34 -84 -52 -150 -52zM185 168c7 0 13 2 19 8c30 31 51 159 51 204c0 25 -8 39 -25 39c-7 0 -13 -2 -19 -8c-30 -31 -51 -159 -51 -204c0 -25 8 -39 25 -39z" />
    <glyph glyph-name="Gdotaccent" unicode="&#x120;" horiz-adv-x="430" 
d="M271 736l21 110h121l-21 -110h-121zM227 -11c-127 0 -206 81 -206 241c0 111 38 306 140 408c49 49 105 72 170 72c63 0 103 -17 130 -35l-30 -148c-31 23 -63 40 -101 40c-26 0 -48 -9 -67 -28c-68 -68 -91 -250 -91 -311c0 -71 23 -103 56 -103c5 0 10 1 14 2l29 151
h-53l26 132h189l-77 -393c-40 -17 -83 -28 -129 -28z" />
    <glyph glyph-name="gdotaccent" unicode="&#x121;" horiz-adv-x="411" 
d="M130 -133c-65 0 -112 10 -161 26l25 126c38 -16 85 -29 121 -29c27 0 45 6 59 19c13 13 22 34 28 63l8 41c-34 -47 -67 -76 -110 -76c-56 0 -87 45 -87 140c0 106 37 277 102 342c22 22 47 32 74 32c50 0 76 -34 91 -73l12 63h146l-94 -485c-12 -60 -32 -105 -64 -137
c-34 -34 -84 -52 -150 -52zM185 168c7 0 13 2 19 8c30 31 51 159 51 204c0 25 -8 39 -25 39c-7 0 -13 -2 -19 -8c-30 -31 -51 -159 -51 -204c0 -25 8 -39 25 -39zM216 580l22 115h120l-22 -115h-120z" />
    <glyph glyph-name="Hbar" unicode="&#x126;" horiz-adv-x="453" 
d="M45 511l22 118h34l14 71h150l-15 -74h90l15 74h150l-14 -71h33l-22 -118h-34l-99 -511h-150l55 281h-91l-54 -281h-150l99 511h-33zM210 420h90l18 94h-90z" />
    <glyph glyph-name="hbar" unicode="&#x127;" horiz-adv-x="401" 
d="M58 573l19 97h26l8 40h146l-8 -40h72l-19 -94h-71l-19 -97c28 39 64 73 111 73c60 0 88 -41 88 -93c0 -19 -2 -33 -6 -53l-79 -406h-146l70 358c3 16 5 26 5 35c0 17 -8 28 -24 28c-18 0 -34 -17 -39 -44l-73 -377h-146l111 573h-26z" />
    <glyph glyph-name="Iacute" unicode="&#xcd;" horiz-adv-x="209" 
d="M-23 0l136 700h150l-136 -700h-150zM136 728l94 118l132 -42l-120 -76h-106z" />
    <glyph glyph-name="iacute" unicode="&#xed;" horiz-adv-x="200" 
d="M104 572l102 138l117 -44l-128 -94h-91zM-25 0l105 541h145l-105 -541h-145z" />
    <glyph glyph-name="Ibreve" unicode="&#x12c;" horiz-adv-x="209" 
d="M-23 0l136 700h150l-136 -700h-150zM194 724c-69 0 -116 34 -105 108h78c0 -22 13 -33 37 -33c23 0 38 11 47 33h81c-18 -74 -70 -108 -138 -108z" />
    <glyph glyph-name="ibreve" unicode="&#x12d;" horiz-adv-x="200" 
d="M-25 0l105 541h145l-105 -541h-145zM162 568c-71 0 -116 37 -109 119h78c0 -27 13 -43 39 -43s43 16 51 43h81c-20 -81 -73 -119 -140 -119z" />
    <glyph glyph-name="Icircumflex" unicode="&#xce;" horiz-adv-x="209" 
d="M-23 0l136 700h150l-136 -700h-150zM61 728l95 111h113l53 -111h-88l-33 41l-48 -41h-92z" />
    <glyph glyph-name="icircumflex" unicode="&#xee;" horiz-adv-x="200" 
d="M26 572l104 128h104l53 -128h-82l-36 51l-56 -51h-87zM-25 0l105 541h145l-105 -541h-145z" />
    <glyph glyph-name="Idieresis" unicode="&#xcf;" horiz-adv-x="209" 
d="M-23 0l136 700h150l-136 -700h-150zM61 730l21 110h116l-21 -110h-116zM212 730l21 110h116l-21 -110h-116z" />
    <glyph glyph-name="idieresis" unicode="&#xef;" horiz-adv-x="200" 
d="M32 574l22 115h113l-22 -115h-113zM175 574l22 115h113l-22 -115h-113zM-25 0l105 541h145l-105 -541h-145z" />
    <glyph glyph-name="Idotaccent" unicode="&#x130;" horiz-adv-x="209" 
d="M-23 0l136 700h150l-136 -700h-150zM134 730l21 110h121l-21 -110h-121z" />
    <glyph glyph-name="dotlessi" unicode="&#x131;" horiz-adv-x="200" 
d="M-25 0l105 541h145l-105 -541h-145z" />
    <glyph glyph-name="Igrave" unicode="&#xcc;" horiz-adv-x="209" 
d="M-23 0l136 700h150l-136 -700h-150zM141 728l-96 76l135 42l62 -118h-101z" />
    <glyph glyph-name="igrave" unicode="&#xec;" horiz-adv-x="200" 
d="M-25 0l105 541h145l-105 -541h-145zM113 572l-101 94l122 44l66 -138h-87z" />
    <glyph glyph-name="Imacron" unicode="&#x12a;" horiz-adv-x="209" 
d="M-23 0l136 700h150l-136 -700h-150zM66 731l18 91h258l-18 -91h-258z" />
    <glyph glyph-name="imacron" unicode="&#x12b;" horiz-adv-x="200" 
d="M-25 0l105 541h145l-105 -541h-145zM36 575l18 90h247l-18 -90h-247z" />
    <glyph glyph-name="Iogonek" unicode="&#x12e;" horiz-adv-x="209" 
d="M-23 0l136 700h150l-136 -700h-22c-21 -21 -29 -34 -29 -45c0 -13 11 -19 43 -21l-15 -77c-18 -3 -37 -4 -55 -4c-63 0 -97 21 -97 60c0 31 19 57 55 87h-30z" />
    <glyph glyph-name="iogonek" unicode="&#x12f;" horiz-adv-x="200" 
d="M-25 0l105 541h145l-105 -541h-19c-21 -21 -29 -34 -29 -45c0 -13 11 -19 43 -21l-15 -77c-18 -3 -37 -4 -55 -4c-63 0 -97 21 -97 60c0 31 19 57 55 87h-28zM87 582l25 128h147l-25 -128h-147z" />
    <glyph glyph-name="Kcommaaccent" unicode="&#x136;" horiz-adv-x="426" 
d="M69 -220v42c46 7 63 21 69 47h-55l18 97h116l-15 -82c-14 -71 -64 -98 -133 -104zM-25 0l136 700h150l-51 -263l135 263h160l-173 -313l37 -387h-156l-14 250l-40 -71l-34 -179h-150z" />
    <glyph glyph-name="kcommaaccent" unicode="&#x137;" horiz-adv-x="386" 
d="M43 -220v42c46 7 63 21 69 47h-55l18 97h116l-15 -82c-14 -71 -64 -98 -133 -104zM-27 0l138 710h146l-67 -341l96 172h156l-137 -231l28 -310h-149l-8 196l-29 -49l-28 -147h-146z" />
    <glyph glyph-name="Lacute" unicode="&#x139;" horiz-adv-x="322" 
d="M143 728l94 118l132 -42l-120 -76h-106zM-25 0l136 700h150l-108 -558h133l-28 -142h-283z" />
    <glyph glyph-name="lacute" unicode="&#x13a;" horiz-adv-x="200" 
d="M137 737l94 118l132 -42l-120 -76h-106zM-25 0l138 710h145l-138 -710h-145z" />
    <glyph glyph-name="Lcaron" unicode="&#x13d;" horiz-adv-x="322" 
d="M251 554l37 147h87v-1l-67 -146h-57zM-25 0l136 700h150l-108 -558h133l-28 -142h-283z" />
    <glyph glyph-name="lcaron" unicode="&#x13e;" horiz-adv-x="200" 
d="M253 563l37 147h87v-1l-67 -146h-57zM-25 0l138 710h145l-138 -710h-145z" />
    <glyph glyph-name="Lcommaaccent" unicode="&#x13b;" horiz-adv-x="322" 
d="M19 -220v42c46 7 63 21 69 47h-55l18 97h116l-15 -82c-14 -71 -64 -98 -133 -104zM-25 0l136 700h150l-108 -558h133l-28 -142h-283z" />
    <glyph glyph-name="lcommaaccent" unicode="&#x13c;" horiz-adv-x="200" 
d="M-49 -220v42c46 7 63 21 69 47h-55l18 97h116l-15 -82c-14 -71 -64 -98 -133 -104zM-25 0l138 710h145l-138 -710h-145z" />
    <glyph glyph-name="Ldot" unicode="&#x13f;" horiz-adv-x="322" 
d="M215 306l27 136h110l-27 -136h-110zM-25 0l136 700h150l-108 -558h133l-28 -142h-283z" />
    <glyph glyph-name="ldot" unicode="&#x140;" horiz-adv-x="309" 
d="M205 288l27 135h105l-27 -135h-105zM-25 0l138 710h145l-138 -710h-145z" />
    <glyph glyph-name="Lslash" unicode="&#x141;" horiz-adv-x="345" 
d="M-2 225l30 149l35 13l61 313h150l-48 -250l86 34l-30 -147l-85 -34l-31 -161h133l-28 -142h-283l46 239z" />
    <glyph glyph-name="lslash" unicode="&#x142;" horiz-adv-x="241" 
d="M-2 228l27 142l46 21l62 319h145l-48 -246l48 22l-28 -142l-48 -22l-62 -322h-145l48 249z" />
    <glyph glyph-name="Nacute" unicode="&#x143;" horiz-adv-x="452" 
d="M253 726l94 118l132 -42l-120 -76h-106zM-25 0l136 700h141l49 -323l63 323h144l-136 -700h-136l-51 340l-66 -340h-144z" />
    <glyph glyph-name="nacute" unicode="&#x144;" horiz-adv-x="401" 
d="M203 578l102 138l117 -44l-128 -94h-91zM-27 0l105 541h146l-12 -62c28 39 64 73 111 73c60 0 88 -41 88 -93c0 -19 -2 -33 -6 -53l-79 -406h-146l70 358c3 16 5 26 5 35c0 17 -8 28 -24 28c-18 0 -34 -17 -39 -44l-73 -377h-146z" />
    <glyph glyph-name="Ncaron" unicode="&#x147;" horiz-adv-x="452" 
d="M462 837l-95 -111h-113l-53 111h89l33 -41l48 41h91zM-25 0l136 700h141l49 -323l63 323h144l-136 -700h-136l-51 340l-66 -340h-144z" />
    <glyph glyph-name="ncaron" unicode="&#x148;" horiz-adv-x="401" 
d="M203 578l-53 128h82l36 -50l56 50h87l-104 -128h-104zM-27 0l105 541h146l-12 -62c28 39 64 73 111 73c60 0 88 -41 88 -93c0 -19 -2 -33 -6 -53l-79 -406h-146l70 358c3 16 5 26 5 35c0 17 -8 28 -24 28c-18 0 -34 -17 -39 -44l-73 -377h-146z" />
    <glyph glyph-name="Ncommaaccent" unicode="&#x145;" horiz-adv-x="452" 
d="M74 -220v42c46 7 63 21 69 47h-55l18 97h116l-15 -82c-14 -71 -64 -98 -133 -104zM-25 0l136 700h141l49 -323l63 323h144l-136 -700h-136l-51 340l-66 -340h-144z" />
    <glyph glyph-name="ncommaaccent" unicode="&#x146;" horiz-adv-x="401" 
d="M48 -220v42c46 7 63 21 69 47h-55l18 97h116l-15 -82c-14 -71 -64 -98 -133 -104zM-27 0l105 541h146l-12 -62c28 39 64 73 111 73c60 0 88 -41 88 -93c0 -19 -2 -33 -6 -53l-79 -406h-146l70 358c3 16 5 26 5 35c0 17 -8 28 -24 28c-18 0 -34 -17 -39 -44l-73 -377h-146
z" />
    <glyph glyph-name="Ntilde" unicode="&#xd1;" horiz-adv-x="452" 
d="M241 720l-70 15c23 80 51 116 93 116c20 0 39 -8 63 -18c23 -10 34 -15 45 -15c15 0 24 10 35 36l71 -14c-24 -80 -52 -116 -94 -116c-20 0 -37 7 -61 17s-36 15 -47 15c-15 0 -23 -9 -35 -36zM-25 0l136 700h141l49 -323l63 323h144l-136 -700h-136l-51 340l-66 -340
h-144z" />
    <glyph glyph-name="ntilde" unicode="&#xf1;" horiz-adv-x="401" 
d="M-27 0l105 541h146l-12 -62c28 39 64 73 111 73c60 0 88 -41 88 -93c0 -19 -2 -33 -6 -53l-79 -406h-146l70 358c3 16 5 26 5 35c0 17 -8 28 -24 28c-18 0 -34 -17 -39 -44l-73 -377h-146zM352 704l69 -14c-21 -77 -54 -114 -94 -114c-21 0 -37 8 -59 17
c-23 10 -35 15 -46 15c-16 0 -25 -9 -36 -36l-69 14c22 80 54 114 94 114c21 0 38 -8 59 -17c23 -10 34 -15 46 -15c16 0 25 9 36 36z" />
    <glyph glyph-name="Oacute" unicode="&#xd3;" horiz-adv-x="449" 
d="M254 734l94 118l132 -42l-120 -76h-106zM292 712c114 0 171 -85 171 -214c0 -118 -42 -355 -140 -453c-40 -40 -84 -57 -136 -57c-114 0 -171 85 -171 214c0 118 43 355 141 453c39 40 83 57 135 57zM197 124c11 0 18 5 26 12c46 46 92 308 92 383c0 40 -11 57 -33 57
c-11 0 -18 -5 -26 -12c-46 -46 -92 -308 -92 -383c0 -40 11 -57 33 -57z" />
    <glyph glyph-name="oacute" unicode="&#xf3;" horiz-adv-x="402" 
d="M207 578l102 138l117 -44l-128 -94h-91zM240 552c101 0 155 -72 155 -185c0 -83 -27 -246 -106 -325c-36 -36 -78 -54 -128 -54c-100 0 -154 72 -154 185c0 83 27 246 106 325c36 35 78 54 127 54zM172 115c7 0 13 2 20 9c33 33 62 209 62 257c0 31 -9 44 -25 44
c-6 0 -12 -2 -19 -9c-33 -33 -63 -209 -63 -257c0 -31 9 -44 25 -44z" />
    <glyph glyph-name="Obreve" unicode="&#x14e;" horiz-adv-x="449" 
d="M313 730c-69 0 -116 34 -105 108h78c0 -22 13 -33 37 -33c23 0 38 11 47 33h81c-18 -74 -70 -108 -138 -108zM292 712c114 0 171 -85 171 -214c0 -118 -42 -355 -140 -453c-40 -40 -84 -57 -136 -57c-114 0 -171 85 -171 214c0 118 43 355 141 453c39 40 83 57 135 57z
M197 124c11 0 18 5 26 12c46 46 92 308 92 383c0 40 -11 57 -33 57c-11 0 -18 -5 -26 -12c-46 -46 -92 -308 -92 -383c0 -40 11 -57 33 -57z" />
    <glyph glyph-name="obreve" unicode="&#x14f;" horiz-adv-x="402" 
d="M240 552c101 0 155 -72 155 -185c0 -83 -27 -246 -106 -325c-36 -36 -78 -54 -128 -54c-100 0 -154 72 -154 185c0 83 27 246 106 325c36 35 78 54 127 54zM172 115c7 0 13 2 20 9c33 33 62 209 62 257c0 31 -9 44 -25 44c-6 0 -12 -2 -19 -9c-33 -33 -63 -209 -63 -257
c0 -31 9 -44 25 -44zM264 574c-71 0 -116 37 -109 119h78c0 -27 13 -43 39 -43s43 16 51 43h81c-20 -81 -73 -119 -140 -119z" />
    <glyph glyph-name="Ocircumflex" unicode="&#xd4;" horiz-adv-x="449" 
d="M292 712c114 0 171 -85 171 -214c0 -118 -42 -355 -140 -453c-40 -40 -84 -57 -136 -57c-114 0 -171 85 -171 214c0 118 43 355 141 453c39 40 83 57 135 57zM197 124c11 0 18 5 26 12c46 46 92 308 92 383c0 40 -11 57 -33 57c-11 0 -18 -5 -26 -12
c-46 -46 -92 -308 -92 -383c0 -40 11 -57 33 -57zM180 734l95 111h113l53 -111h-88l-33 41l-48 -41h-92z" />
    <glyph glyph-name="ocircumflex" unicode="&#xf4;" horiz-adv-x="402" 
d="M128 578l104 128h104l53 -128h-82l-36 51l-56 -51h-87zM240 552c101 0 155 -72 155 -185c0 -83 -27 -246 -106 -325c-36 -36 -78 -54 -128 -54c-100 0 -154 72 -154 185c0 83 27 246 106 325c36 35 78 54 127 54zM172 115c7 0 13 2 20 9c33 33 62 209 62 257
c0 31 -9 44 -25 44c-6 0 -12 -2 -19 -9c-33 -33 -63 -209 -63 -257c0 -31 9 -44 25 -44z" />
    <glyph glyph-name="Odieresis" unicode="&#xd6;" horiz-adv-x="449" 
d="M181 736l21 110h116l-21 -110h-116zM332 736l21 110h116l-21 -110h-116zM292 712c114 0 171 -85 171 -214c0 -118 -42 -355 -140 -453c-40 -40 -84 -57 -136 -57c-114 0 -171 85 -171 214c0 118 43 355 141 453c39 40 83 57 135 57zM197 124c11 0 18 5 26 12
c46 46 92 308 92 383c0 40 -11 57 -33 57c-11 0 -18 -5 -26 -12c-46 -46 -92 -308 -92 -383c0 -40 11 -57 33 -57z" />
    <glyph glyph-name="odieresis" unicode="&#xf6;" horiz-adv-x="402" 
d="M134 580l22 115h113l-22 -115h-113zM277 580l22 115h113l-22 -115h-113zM240 552c101 0 155 -72 155 -185c0 -83 -27 -246 -106 -325c-36 -36 -78 -54 -128 -54c-100 0 -154 72 -154 185c0 83 27 246 106 325c36 35 78 54 127 54zM172 115c7 0 13 2 20 9
c33 33 62 209 62 257c0 31 -9 44 -25 44c-6 0 -12 -2 -19 -9c-33 -33 -63 -209 -63 -257c0 -31 9 -44 25 -44z" />
    <glyph glyph-name="OE" unicode="&#x152;" horiz-adv-x="594" 
d="M265 0c-80 0 -142 19 -183 60c-37 38 -59 98 -59 180c0 105 37 295 125 383c52 52 121 77 213 77h295l-27 -142h-154l-26 -136h136l-27 -140h-137l-26 -140h156l-28 -142h-258zM196 154c13 -12 29 -16 47 -16h1l82 424h-3c-28 0 -48 -9 -68 -28
c-53 -54 -82 -229 -82 -292c0 -33 4 -68 23 -88z" />
    <glyph glyph-name="oe" unicode="&#x153;" horiz-adv-x="607" 
d="M582 208h-209c-1 -8 -1 -15 -1 -18c0 -54 26 -73 73 -73c32 0 63 8 105 28l-16 -129c-33 -17 -75 -28 -122 -28c-62 0 -106 19 -132 65c-38 -47 -80 -65 -124 -65c-99 0 -149 72 -149 185c0 83 29 246 108 325c35 35 77 54 126 54c50 0 87 -23 108 -65
c34 42 76 65 126 65c85 0 131 -61 131 -174c0 -48 -9 -100 -24 -170zM172 115c7 0 13 2 20 9c33 33 61 212 61 257c0 31 -8 44 -24 44c-6 0 -12 -2 -19 -9c-33 -33 -62 -212 -62 -257c0 -31 8 -44 24 -44zM431 416c-17 -17 -31 -62 -41 -108h76c6 32 10 57 10 76
c0 29 -9 41 -25 41c-6 0 -14 -2 -20 -9z" />
    <glyph glyph-name="Ograve" unicode="&#xd2;" horiz-adv-x="449" 
d="M260 734l-96 76l135 42l62 -118h-101zM292 712c114 0 171 -85 171 -214c0 -118 -42 -355 -140 -453c-40 -40 -84 -57 -136 -57c-114 0 -171 85 -171 214c0 118 43 355 141 453c39 40 83 57 135 57zM197 124c11 0 18 5 26 12c46 46 92 308 92 383c0 40 -11 57 -33 57
c-11 0 -18 -5 -26 -12c-46 -46 -92 -308 -92 -383c0 -40 11 -57 33 -57z" />
    <glyph glyph-name="ograve" unicode="&#xf2;" horiz-adv-x="402" 
d="M240 552c101 0 155 -72 155 -185c0 -83 -27 -246 -106 -325c-36 -36 -78 -54 -128 -54c-100 0 -154 72 -154 185c0 83 27 246 106 325c36 35 78 54 127 54zM172 115c7 0 13 2 20 9c33 33 62 209 62 257c0 31 -9 44 -25 44c-6 0 -12 -2 -19 -9c-33 -33 -63 -209 -63 -257
c0 -31 9 -44 25 -44zM216 578l-101 94l122 44l66 -138h-87z" />
    <glyph glyph-name="Ohungarumlaut" unicode="&#x150;" horiz-adv-x="449" 
d="M292 712c114 0 171 -85 171 -214c0 -118 -42 -355 -140 -453c-40 -40 -84 -57 -136 -57c-114 0 -171 85 -171 214c0 118 43 355 141 453c39 40 83 57 135 57zM197 124c11 0 18 5 26 12c46 46 92 308 92 383c0 40 -11 57 -33 57c-11 0 -18 -5 -26 -12
c-46 -46 -92 -308 -92 -383c0 -40 11 -57 33 -57zM321 734l49 62l-90 -62h-95l94 118l106 -37l29 37l115 -40l-113 -78h-95z" />
    <glyph glyph-name="ohungarumlaut" unicode="&#x151;" horiz-adv-x="402" 
d="M240 552c101 0 155 -72 155 -185c0 -83 -27 -246 -106 -325c-36 -36 -78 -54 -128 -54c-100 0 -154 72 -154 185c0 83 27 246 106 325c36 35 78 54 127 54zM264 578l53 73l-91 -73h-82l101 138l92 -38l28 38l101 -42l-120 -96h-82zM172 115c7 0 13 2 20 9
c33 33 62 209 62 257c0 31 -9 44 -25 44c-6 0 -12 -2 -19 -9c-33 -33 -63 -209 -63 -257c0 -31 9 -44 25 -44z" />
    <glyph glyph-name="Omacron" unicode="&#x14c;" horiz-adv-x="449" 
d="M185 737l18 91h258l-18 -91h-258zM292 712c114 0 171 -85 171 -214c0 -118 -42 -355 -140 -453c-40 -40 -84 -57 -136 -57c-114 0 -171 85 -171 214c0 118 43 355 141 453c39 40 83 57 135 57zM197 124c11 0 18 5 26 12c46 46 92 308 92 383c0 40 -11 57 -33 57
c-11 0 -18 -5 -26 -12c-46 -46 -92 -308 -92 -383c0 -40 11 -57 33 -57z" />
    <glyph glyph-name="omacron" unicode="&#x14d;" horiz-adv-x="402" 
d="M138 581l18 90h247l-18 -90h-247zM240 552c101 0 155 -72 155 -185c0 -83 -27 -246 -106 -325c-36 -36 -78 -54 -128 -54c-100 0 -154 72 -154 185c0 83 27 246 106 325c36 35 78 54 127 54zM172 115c7 0 13 2 20 9c33 33 62 209 62 257c0 31 -9 44 -25 44
c-6 0 -12 -2 -19 -9c-33 -33 -63 -209 -63 -257c0 -31 9 -44 25 -44z" />
    <glyph glyph-name="Oslash" unicode="&#xd8;" horiz-adv-x="448" 
d="M292 712c50 0 90 -17 118 -48l27 41h72l-64 -98c11 -31 18 -68 18 -110c0 -117 -42 -354 -140 -452c-40 -40 -84 -57 -136 -57c-50 0 -90 17 -119 48l-26 -41h-72l64 97c-12 31 -18 68 -18 111c0 117 43 354 141 452c39 40 83 57 135 57zM254 567
c-35 -34 -67 -178 -83 -284l147 256c-3 30 -17 41 -36 41c-11 0 -19 -5 -28 -13zM197 120c11 0 19 5 28 13c34 33 66 175 82 281l-146 -256c4 -28 17 -38 36 -38z" />
    <glyph glyph-name="oslash" unicode="&#xf8;" horiz-adv-x="402" 
d="M240 552c47 0 84 -16 110 -44l27 37h69l-66 -88c10 -26 15 -56 15 -90c0 -83 -27 -246 -106 -325c-36 -36 -78 -54 -128 -54c-47 0 -84 15 -110 44l-26 -37h-69l65 88c-9 26 -14 56 -14 90c0 83 27 246 106 325c36 35 78 54 127 54zM194 121c25 25 47 112 59 182
l-111 -164c4 -19 15 -28 30 -28c7 0 15 3 22 10zM230 429c-8 0 -16 -3 -23 -10c-25 -25 -46 -111 -58 -181l110 163c-4 19 -15 28 -29 28z" />
    <glyph glyph-name="Oslashacute" unicode="&#x1fe;" horiz-adv-x="448" 
d="M292 712c50 0 90 -17 118 -48l27 41h72l-64 -98c11 -31 18 -68 18 -110c0 -117 -42 -354 -140 -452c-40 -40 -84 -57 -136 -57c-50 0 -90 17 -119 48l-26 -41h-72l64 97c-12 31 -18 68 -18 111c0 117 43 354 141 452c39 40 83 57 135 57zM254 567
c-35 -34 -67 -178 -83 -284l147 256c-3 30 -17 41 -36 41c-11 0 -19 -5 -28 -13zM197 120c11 0 19 5 28 13c34 33 66 175 82 281l-146 -256c4 -28 17 -38 36 -38zM254 734l94 118l132 -42l-120 -76h-106z" />
    <glyph glyph-name="oslashacute" unicode="&#x1ff;" horiz-adv-x="402" 
d="M240 552c47 0 84 -16 110 -44l27 37h69l-66 -88c10 -26 15 -56 15 -90c0 -83 -27 -246 -106 -325c-36 -36 -78 -54 -128 -54c-47 0 -84 15 -110 44l-26 -37h-69l65 88c-9 26 -14 56 -14 90c0 83 27 246 106 325c36 35 78 54 127 54zM206 578l102 138l117 -44l-128 -94
h-91zM194 121c25 25 47 112 59 182l-111 -164c4 -19 15 -28 30 -28c7 0 15 3 22 10zM230 429c-8 0 -16 -3 -23 -10c-25 -25 -46 -111 -58 -181l110 163c-4 19 -15 28 -29 28z" />
    <glyph glyph-name="Otilde" unicode="&#xd5;" horiz-adv-x="449" 
d="M242 728l-70 15c23 80 51 116 93 116c20 0 39 -8 63 -18c23 -10 34 -15 45 -15c15 0 24 10 35 36l71 -14c-24 -80 -52 -116 -94 -116c-20 0 -37 7 -61 17s-36 15 -47 15c-15 0 -23 -9 -35 -36zM292 712c114 0 171 -85 171 -214c0 -118 -42 -355 -140 -453
c-40 -40 -84 -57 -136 -57c-114 0 -171 85 -171 214c0 118 43 355 141 453c39 40 83 57 135 57zM197 124c11 0 18 5 26 12c46 46 92 308 92 383c0 40 -11 57 -33 57c-11 0 -18 -5 -26 -12c-46 -46 -92 -308 -92 -383c0 -40 11 -57 33 -57z" />
    <glyph glyph-name="otilde" unicode="&#xf5;" horiz-adv-x="402" 
d="M240 552c101 0 155 -72 155 -185c0 -83 -27 -246 -106 -325c-36 -36 -78 -54 -128 -54c-100 0 -154 72 -154 185c0 83 27 246 106 325c36 35 78 54 127 54zM172 115c7 0 13 2 20 9c33 33 62 209 62 257c0 31 -9 44 -25 44c-6 0 -12 -2 -19 -9c-33 -33 -63 -209 -63 -257
c0 -31 9 -44 25 -44zM356 704l69 -14c-21 -77 -54 -114 -94 -114c-21 0 -37 8 -59 17c-23 10 -35 15 -46 15c-16 0 -25 -9 -36 -36l-69 14c22 80 54 114 94 114c21 0 38 -8 59 -17c23 -10 34 -15 46 -15c16 0 25 9 36 36z" />
    <glyph glyph-name="Racute" unicode="&#x154;" horiz-adv-x="422" 
d="M211 0l-29 229c-3 0 -6 -1 -8 -1h-6l-44 -228h-149l136 700h107c90 0 148 -20 183 -55c33 -33 49 -77 49 -135c0 -75 -24 -147 -75 -198c-14 -14 -30 -26 -49 -37l40 -275h-155zM192 354h5c25 0 44 7 61 23c26 27 39 82 39 123c0 22 -6 40 -17 51c-10 10 -24 15 -42 15
h-4zM224 728l94 118l132 -42l-120 -76h-106z" />
    <glyph glyph-name="racute" unicode="&#x155;" horiz-adv-x="265" 
d="M138 572l102 138l117 -44l-128 -94h-91zM-27 0l105 541h145l-16 -78c28 57 61 87 103 84l-33 -174h-3c-56 0 -89 -36 -104 -112l-51 -261h-146z" />
    <glyph glyph-name="Rcaron" unicode="&#x158;" horiz-adv-x="422" 
d="M211 0l-29 229c-3 0 -6 -1 -8 -1h-6l-44 -228h-149l136 700h107c90 0 148 -20 183 -55c33 -33 49 -77 49 -135c0 -75 -24 -147 -75 -198c-14 -14 -30 -26 -49 -37l40 -275h-155zM432 839l-95 -111h-113l-53 111h89l33 -41l48 41h91zM192 354h5c25 0 44 7 61 23
c26 27 39 82 39 123c0 22 -6 40 -17 51c-10 10 -24 15 -42 15h-4z" />
    <glyph glyph-name="rcaron" unicode="&#x159;" horiz-adv-x="265" 
d="M139 572l-53 128h82l36 -50l56 50h87l-104 -128h-104zM-27 0l105 541h145l-16 -78c28 57 61 87 103 84l-33 -174h-3c-56 0 -89 -36 -104 -112l-51 -261h-146z" />
    <glyph glyph-name="Rcommaaccent" unicode="&#x156;" horiz-adv-x="422" 
d="M211 0l-29 229c-3 0 -6 -1 -8 -1h-6l-44 -228h-149l136 700h107c90 0 148 -20 183 -55c33 -33 49 -77 49 -135c0 -75 -24 -147 -75 -198c-14 -14 -30 -26 -49 -37l40 -275h-155zM51 -220v42c46 7 63 21 69 47h-55l18 97h116l-15 -82c-14 -71 -64 -98 -133 -104zM192 354
h5c25 0 44 7 61 23c26 27 39 82 39 123c0 22 -6 40 -17 51c-10 10 -24 15 -42 15h-4z" />
    <glyph glyph-name="rcommaaccent" unicode="&#x157;" horiz-adv-x="265" 
d="M-48 -220v42c46 7 63 21 69 47h-55l18 97h116l-15 -82c-14 -71 -64 -98 -133 -104zM-27 0l105 541h145l-16 -78c28 57 61 87 103 84l-33 -174h-3c-56 0 -89 -36 -104 -112l-51 -261h-146z" />
    <glyph glyph-name="Sacute" unicode="&#x15a;" horiz-adv-x="359" 
d="M130 -8c-62 0 -111 19 -154 48l29 149c41 -30 80 -55 122 -55c36 0 59 25 59 62c0 23 -12 48 -45 94c-52 68 -87 124 -87 199c0 64 23 124 62 163s87 56 142 56s101 -15 140 -40l-29 -148c-33 25 -69 46 -107 46c-36 0 -57 -25 -57 -57c0 -25 12 -52 41 -91
c57 -76 92 -130 92 -202c0 -62 -18 -121 -66 -169c-33 -33 -79 -55 -142 -55zM208 734l94 118l132 -42l-120 -76h-106z" />
    <glyph glyph-name="sacute" unicode="&#x15b;" horiz-adv-x="307" 
d="M155 578l102 138l117 -44l-128 -94h-91zM110 -11c-52 0 -106 19 -139 44l27 135c40 -31 77 -50 104 -50c24 0 38 15 38 36c0 18 -9 34 -38 72c-44 55 -69 94 -69 153c0 95 63 172 168 172c48 0 90 -13 124 -33l-27 -134c-35 24 -69 38 -91 38c-24 0 -36 -14 -36 -31
c0 -16 9 -32 38 -70c40 -48 70 -93 70 -152c0 -98 -64 -180 -169 -180z" />
    <glyph glyph-name="Scaron" unicode="&#x160;" horiz-adv-x="359" 
d="M130 -8c-62 0 -111 19 -154 48l29 149c41 -30 80 -55 122 -55c36 0 59 25 59 62c0 23 -12 48 -45 94c-52 68 -87 124 -87 199c0 64 23 124 62 163s87 56 142 56s101 -15 140 -40l-29 -148c-33 25 -69 46 -107 46c-36 0 -57 -25 -57 -57c0 -25 12 -52 41 -91
c57 -76 92 -130 92 -202c0 -62 -18 -121 -66 -169c-33 -33 -79 -55 -142 -55zM416 845l-95 -111h-113l-53 111h89l33 -41l48 41h91z" />
    <glyph glyph-name="scaron" unicode="&#x161;" horiz-adv-x="307" 
d="M155 578l-53 128h82l36 -50l56 50h87l-104 -128h-104zM110 -11c-52 0 -106 19 -139 44l27 135c40 -31 77 -50 104 -50c24 0 38 15 38 36c0 18 -9 34 -38 72c-44 55 -69 94 -69 153c0 95 63 172 168 172c48 0 90 -13 124 -33l-27 -134c-35 24 -69 38 -91 38
c-24 0 -36 -14 -36 -31c0 -16 9 -32 38 -70c40 -48 70 -93 70 -152c0 -98 -64 -180 -169 -180z" />
    <glyph glyph-name="Scedilla" unicode="&#x15e;" horiz-adv-x="359" 
d="M113 -129l-125 35l83 92c-36 8 -67 23 -95 42l29 149c41 -30 80 -55 122 -55c36 0 59 25 59 62c0 23 -12 48 -45 94c-52 68 -87 124 -87 199c0 64 23 124 62 163s87 56 142 56s101 -15 140 -40l-29 -148c-33 25 -69 46 -107 46c-36 0 -57 -25 -57 -57
c0 -25 12 -52 41 -91c57 -76 92 -130 92 -202c0 -62 -18 -121 -66 -169c-25 -25 -58 -44 -99 -51z" />
    <glyph glyph-name="scedilla" unicode="&#x15f;" horiz-adv-x="307" 
d="M88 -129l-125 35l83 92c-29 8 -55 20 -75 35l27 135c40 -31 77 -50 104 -50c24 0 38 15 38 36c0 18 -9 34 -38 72c-44 55 -69 94 -69 153c0 95 63 172 168 172c48 0 90 -13 124 -33l-27 -134c-35 24 -69 38 -91 38c-24 0 -36 -14 -36 -31c0 -16 9 -32 38 -70
c40 -48 70 -93 70 -152c0 -86 -50 -160 -133 -176z" />
    <glyph glyph-name="Scommaaccent" unicode="&#x218;" horiz-adv-x="359" 
d="M25 -223v42c46 7 63 21 69 47h-55l18 97h116l-15 -82c-14 -71 -64 -98 -133 -104zM130 -8c-62 0 -111 19 -154 48l29 149c41 -30 80 -55 122 -55c36 0 59 25 59 62c0 23 -12 48 -45 94c-52 68 -87 124 -87 199c0 64 23 124 62 163s87 56 142 56s101 -15 140 -40l-29 -148
c-33 25 -69 46 -107 46c-36 0 -57 -25 -57 -57c0 -25 12 -52 41 -91c57 -76 92 -130 92 -202c0 -62 -18 -121 -66 -169c-33 -33 -79 -55 -142 -55z" />
    <glyph glyph-name="scommaaccent" unicode="&#x219;" horiz-adv-x="307" 
d="M-3 -220v42c46 7 63 21 69 47h-55l18 97h116l-15 -82c-14 -71 -64 -98 -133 -104zM110 -11c-52 0 -106 19 -139 44l27 135c40 -31 77 -50 104 -50c24 0 38 15 38 36c0 18 -9 34 -38 72c-44 55 -69 94 -69 153c0 95 63 172 168 172c48 0 90 -13 124 -33l-27 -134
c-35 24 -69 38 -91 38c-24 0 -36 -14 -36 -31c0 -16 9 -32 38 -70c40 -48 70 -93 70 -152c0 -98 -64 -180 -169 -180z" />
    <glyph glyph-name="Tcaron" unicode="&#x164;" horiz-adv-x="356" 
d="M418 839l-95 -111h-113l-53 111h89l33 -41l48 41h91zM50 0l109 557h-92l28 143h334l-28 -143h-92l-109 -557h-150z" />
    <glyph glyph-name="tcaron" unicode="&#x165;" horiz-adv-x="259" 
d="M263 563l37 147h87v-1l-67 -146h-57zM117 -8c-60 0 -108 27 -108 92c0 14 2 29 7 54l55 286h-30l22 117h31l25 132h145l-25 -132h61l-22 -117h-62l-48 -243c-2 -13 -7 -34 -7 -44c0 -14 10 -21 26 -21c10 0 18 1 31 5l-22 -116c-22 -8 -48 -13 -79 -13z" />
    <glyph glyph-name="Tcommaaccent" unicode="&#x162;" horiz-adv-x="356" 
d="M29 -220v42c46 7 63 21 69 47h-55l18 97h116l-15 -82c-14 -71 -64 -98 -133 -104zM50 0l109 557h-92l28 143h334l-28 -143h-92l-109 -557h-150z" />
    <glyph glyph-name="tcommaaccent" unicode="&#x163;" horiz-adv-x="259" 
d="M-4 -223v42c46 7 63 21 69 47h-55l18 97h116l-15 -82c-14 -71 -64 -98 -133 -104zM117 -8c-60 0 -108 27 -108 92c0 14 2 29 7 54l55 286h-30l22 117h31l25 132h145l-25 -132h61l-22 -117h-62l-48 -243c-2 -13 -7 -34 -7 -44c0 -14 10 -21 26 -21c10 0 18 1 31 5
l-22 -116c-22 -8 -48 -13 -79 -13z" />
    <glyph glyph-name="Thorn" unicode="&#xde;" horiz-adv-x="408" 
d="M-25 0l136 700h149l-18 -92c52 -3 101 -24 131 -53c33 -33 50 -78 50 -135c0 -75 -24 -172 -85 -230c-50 -48 -114 -70 -189 -70h-2l-23 -120h-149zM173 253h3c21 0 40 6 57 23c30 30 41 94 41 130c0 26 -7 45 -18 56c-9 9 -21 14 -36 14h-4z" />
    <glyph glyph-name="thorn" unicode="&#xfe;" horiz-adv-x="411" 
d="M257 710l-45 -233c32 43 64 75 107 75c58 0 89 -47 89 -137c0 -109 -41 -322 -112 -393c-23 -23 -47 -32 -74 -32c-51 0 -76 34 -91 73l-37 -193h-146l163 840h146zM182 122c7 0 13 2 19 8c30 31 58 202 58 245c0 28 -7 44 -25 44c-7 0 -13 -2 -19 -8
c-30 -31 -58 -202 -58 -246c0 -27 7 -43 25 -43z" />
    <glyph glyph-name="Uacute" unicode="&#xda;" horiz-adv-x="437" 
d="M247 726l94 118l132 -42l-120 -76h-106zM182 -10c-106 0 -172 60 -172 158c0 29 3 54 8 81l91 471h149l-93 -477c-4 -23 -7 -42 -7 -56c0 -26 16 -39 36 -39c13 0 22 4 30 12c11 11 17 27 23 54l98 506h150l-97 -501c-14 -70 -36 -119 -71 -154c-36 -36 -86 -55 -145 -55
z" />
    <glyph glyph-name="uacute" unicode="&#xfa;" horiz-adv-x="401" 
d="M202 570l102 138l117 -44l-128 -94h-91zM78 -11c-60 0 -87 41 -87 93c0 19 2 33 5 53l79 406h146l-70 -358c-3 -16 -5 -26 -5 -35c0 -17 8 -28 24 -28c18 0 34 17 39 44l73 377h146l-105 -541h-146l12 62c-28 -40 -64 -73 -111 -73z" />
    <glyph glyph-name="Ubreve" unicode="&#x16c;" horiz-adv-x="437" 
d="M306 719c-69 0 -116 34 -105 108h78c0 -22 13 -33 37 -33c23 0 38 11 47 33h81c-18 -74 -70 -108 -138 -108zM182 -10c-106 0 -172 60 -172 158c0 29 3 54 8 81l91 471h149l-93 -477c-4 -23 -7 -42 -7 -56c0 -26 16 -39 36 -39c13 0 22 4 30 12c11 11 17 27 23 54l98 506
h150l-97 -501c-14 -70 -36 -119 -71 -154c-36 -36 -86 -55 -145 -55z" />
    <glyph glyph-name="ubreve" unicode="&#x16d;" horiz-adv-x="401" 
d="M78 -11c-60 0 -87 41 -87 93c0 19 2 33 5 53l79 406h146l-70 -358c-3 -16 -5 -26 -5 -35c0 -17 8 -28 24 -28c18 0 34 17 39 44l73 377h146l-105 -541h-146l12 62c-28 -40 -64 -73 -111 -73zM260 564c-71 0 -116 37 -109 119h78c0 -27 13 -43 39 -43s43 16 51 43h81
c-20 -81 -73 -119 -140 -119z" />
    <glyph glyph-name="Ucircumflex" unicode="&#xdb;" horiz-adv-x="437" 
d="M182 -10c-106 0 -172 60 -172 158c0 29 3 54 8 81l91 471h149l-93 -477c-4 -23 -7 -42 -7 -56c0 -26 16 -39 36 -39c13 0 22 4 30 12c11 11 17 27 23 54l98 506h150l-97 -501c-14 -70 -36 -119 -71 -154c-36 -36 -86 -55 -145 -55zM174 726l95 111h113l53 -111h-88
l-33 41l-48 -41h-92z" />
    <glyph glyph-name="ucircumflex" unicode="&#xfb;" horiz-adv-x="401" 
d="M124 570l104 128h104l53 -128h-82l-36 51l-56 -51h-87zM78 -11c-60 0 -87 41 -87 93c0 19 2 33 5 53l79 406h146l-70 -358c-3 -16 -5 -26 -5 -35c0 -17 8 -28 24 -28c18 0 34 17 39 44l73 377h146l-105 -541h-146l12 62c-28 -40 -64 -73 -111 -73z" />
    <glyph glyph-name="Udieresis" unicode="&#xdc;" horiz-adv-x="437" 
d="M174 728l21 110h116l-21 -110h-116zM325 728l21 110h116l-21 -110h-116zM182 -10c-106 0 -172 60 -172 158c0 29 3 54 8 81l91 471h149l-93 -477c-4 -23 -7 -42 -7 -56c0 -26 16 -39 36 -39c13 0 22 4 30 12c11 11 17 27 23 54l98 506h150l-97 -501
c-14 -70 -36 -119 -71 -154c-36 -36 -86 -55 -145 -55z" />
    <glyph glyph-name="udieresis" unicode="&#xfc;" horiz-adv-x="401" 
d="M130 572l22 115h113l-22 -115h-113zM273 572l22 115h113l-22 -115h-113zM78 -11c-60 0 -87 41 -87 93c0 19 2 33 5 53l79 406h146l-70 -358c-3 -16 -5 -26 -5 -35c0 -17 8 -28 24 -28c18 0 34 17 39 44l73 377h146l-105 -541h-146l12 62c-28 -40 -64 -73 -111 -73z" />
    <glyph glyph-name="Ugrave" unicode="&#xd9;" horiz-adv-x="437" 
d="M253 726l-96 76l135 42l62 -118h-101zM182 -10c-106 0 -172 60 -172 158c0 29 3 54 8 81l91 471h149l-93 -477c-4 -23 -7 -42 -7 -56c0 -26 16 -39 36 -39c13 0 22 4 30 12c11 11 17 27 23 54l98 506h150l-97 -501c-14 -70 -36 -119 -71 -154c-36 -36 -86 -55 -145 -55z
" />
    <glyph glyph-name="ugrave" unicode="&#xf9;" horiz-adv-x="401" 
d="M78 -11c-60 0 -87 41 -87 93c0 19 2 33 5 53l79 406h146l-70 -358c-3 -16 -5 -26 -5 -35c0 -17 8 -28 24 -28c18 0 34 17 39 44l73 377h146l-105 -541h-146l12 62c-28 -40 -64 -73 -111 -73zM211 570l-101 94l122 44l66 -138h-87z" />
    <glyph glyph-name="Uhungarumlaut" unicode="&#x170;" horiz-adv-x="437" 
d="M182 -10c-106 0 -172 60 -172 158c0 29 3 54 8 81l91 471h149l-93 -477c-4 -23 -7 -42 -7 -56c0 -26 16 -39 36 -39c13 0 22 4 30 12c11 11 17 27 23 54l98 506h150l-97 -501c-14 -70 -36 -119 -71 -154c-36 -36 -86 -55 -145 -55zM314 726l49 62l-90 -62h-95l94 118
l106 -37l29 37l115 -40l-113 -78h-95z" />
    <glyph glyph-name="uhungarumlaut" unicode="&#x171;" horiz-adv-x="401" 
d="M78 -11c-60 0 -87 41 -87 93c0 19 2 33 5 53l79 406h146l-70 -358c-3 -16 -5 -26 -5 -35c0 -17 8 -28 24 -28c18 0 34 17 39 44l73 377h146l-105 -541h-146l12 62c-28 -40 -64 -73 -111 -73zM259 570l53 73l-91 -73h-82l101 138l92 -38l28 38l101 -42l-120 -96h-82z" />
    <glyph glyph-name="Umacron" unicode="&#x16a;" horiz-adv-x="437" 
d="M178 729l18 91h258l-18 -91h-258zM182 -10c-106 0 -172 60 -172 158c0 29 3 54 8 81l91 471h149l-93 -477c-4 -23 -7 -42 -7 -56c0 -26 16 -39 36 -39c13 0 22 4 30 12c11 11 17 27 23 54l98 506h150l-97 -501c-14 -70 -36 -119 -71 -154c-36 -36 -86 -55 -145 -55z" />
    <glyph glyph-name="umacron" unicode="&#x16b;" horiz-adv-x="401" 
d="M78 -11c-60 0 -87 41 -87 93c0 19 2 33 5 53l79 406h146l-70 -358c-3 -16 -5 -26 -5 -35c0 -17 8 -28 24 -28c18 0 34 17 39 44l73 377h146l-105 -541h-146l12 62c-28 -40 -64 -73 -111 -73zM134 573l18 90h247l-18 -90h-247z" />
    <glyph glyph-name="Uogonek" unicode="&#x172;" horiz-adv-x="437" 
d="M232 -66l-15 -77c-18 -3 -37 -4 -55 -4c-63 0 -97 21 -97 60c0 30 18 56 53 86c-68 19 -108 72 -108 149c0 29 3 54 8 81l91 471h149l-93 -477c-4 -23 -7 -42 -7 -56c0 -26 16 -39 36 -39c13 0 22 4 30 12c11 11 17 27 23 54l98 506h150l-97 -501
c-14 -70 -36 -119 -71 -154c-30 -30 -70 -48 -117 -53c-15 -17 -21 -28 -21 -37c0 -13 11 -19 43 -21z" />
    <glyph glyph-name="uogonek" unicode="&#x173;" horiz-adv-x="401" 
d="M78 -11c-60 0 -87 41 -87 93c0 19 2 33 5 53l79 406h146l-70 -358c-3 -16 -5 -26 -5 -35c0 -17 8 -28 24 -28c18 0 34 17 39 44l73 377h146l-105 -541h-20c-21 -21 -29 -34 -29 -45c0 -13 11 -19 43 -21l-15 -77c-18 -3 -37 -4 -55 -4c-63 0 -97 21 -97 60
c0 31 18 57 55 87h-28l12 62c-28 -40 -64 -73 -111 -73z" />
    <glyph glyph-name="Uring" unicode="&#x16e;" horiz-adv-x="437" 
d="M182 -10c-106 0 -172 60 -172 158c0 29 3 54 8 81l91 471h149l-93 -477c-4 -23 -7 -42 -7 -56c0 -26 16 -39 36 -39c13 0 22 4 30 12c11 11 17 27 23 54l98 506h150l-97 -501c-14 -70 -36 -119 -71 -154c-36 -36 -86 -55 -145 -55zM331 900c49 0 89 -33 89 -80
c0 -57 -46 -101 -108 -101c-48 0 -88 33 -88 79c0 58 46 102 107 102zM317 766c28 0 49 21 49 49c0 23 -16 38 -39 38c-28 0 -49 -22 -49 -49c0 -23 16 -38 39 -38z" />
    <glyph glyph-name="uring" unicode="&#x16f;" horiz-adv-x="401" 
d="M368 668c0 -52 -39 -105 -103 -105c-47 0 -84 33 -84 82c0 52 39 106 104 106c47 0 83 -33 83 -83zM234 648c0 -20 12 -38 35 -38c26 0 47 24 47 55c0 21 -12 38 -36 38c-26 0 -46 -23 -46 -55zM78 -11c-60 0 -87 41 -87 93c0 19 2 33 5 53l79 406h146l-70 -358
c-3 -16 -5 -26 -5 -35c0 -17 8 -28 24 -28c18 0 34 17 39 44l73 377h146l-105 -541h-146l12 62c-28 -40 -64 -73 -111 -73z" />
    <glyph glyph-name="Wacute" unicode="&#x1e82;" horiz-adv-x="630" 
d="M344 728l94 118l132 -42l-120 -76h-106zM55 -2l28 702h153l-34 -403l131 403h129l-26 -403l122 403h155l-244 -702h-156l17 353l-118 -353h-157z" />
    <glyph glyph-name="wacute" unicode="&#x1e83;" horiz-adv-x="549" 
d="M278 572l102 138l117 -44l-128 -94h-91zM47 -2l9 543h143l-19 -280l90 280h113l-18 -280l88 280h145l-201 -543h-132l5 258l-90 -258h-133z" />
    <glyph glyph-name="Wcircumflex" unicode="&#x174;" horiz-adv-x="630" 
d="M55 -2l28 702h153l-34 -403l131 403h129l-26 -403l122 403h155l-244 -702h-156l17 353l-118 -353h-157zM270 728l95 111h113l53 -111h-88l-33 41l-48 -41h-92z" />
    <glyph glyph-name="wcircumflex" unicode="&#x175;" horiz-adv-x="549" 
d="M200 572l104 128h104l53 -128h-82l-36 51l-56 -51h-87zM47 -2l9 543h143l-19 -280l90 280h113l-18 -280l88 280h145l-201 -543h-132l5 258l-90 -258h-133z" />
    <glyph glyph-name="Wdieresis" unicode="&#x1e84;" horiz-adv-x="630" 
d="M270 730l21 110h116l-21 -110h-116zM421 730l21 110h116l-21 -110h-116zM55 -2l28 702h153l-34 -403l131 403h129l-26 -403l122 403h155l-244 -702h-156l17 353l-118 -353h-157z" />
    <glyph glyph-name="wdieresis" unicode="&#x1e85;" horiz-adv-x="549" 
d="M206 574l22 115h113l-22 -115h-113zM349 574l22 115h113l-22 -115h-113zM47 -2l9 543h143l-19 -280l90 280h113l-18 -280l88 280h145l-201 -543h-132l5 258l-90 -258h-133z" />
    <glyph glyph-name="Wgrave" unicode="&#x1e80;" horiz-adv-x="630" 
d="M349 728l-96 76l135 42l62 -118h-101zM55 -2l28 702h153l-34 -403l131 403h129l-26 -403l122 403h155l-244 -702h-156l17 353l-118 -353h-157z" />
    <glyph glyph-name="wgrave" unicode="&#x1e81;" horiz-adv-x="549" 
d="M47 -2l9 543h143l-19 -280l90 280h113l-18 -280l88 280h145l-201 -543h-132l5 258l-90 -258h-133zM288 572l-101 94l122 44l66 -138h-87z" />
    <glyph glyph-name="Yacute" unicode="&#xdd;" horiz-adv-x="409" 
d="M77 0l51 261l-48 439h149l9 -247l105 247h152l-218 -439l-51 -261h-149zM231 726l94 118l132 -42l-120 -76h-106z" />
    <glyph glyph-name="yacute" unicode="&#xfd;" horiz-adv-x="383" 
d="M67 11l-13 530h144l-13 -299l104 299h145l-284 -671h-143zM193 570l102 138l117 -44l-128 -94h-91z" />
    <glyph glyph-name="Ycircumflex" unicode="&#x176;" horiz-adv-x="409" 
d="M77 0l51 261l-48 439h149l9 -247l105 247h152l-218 -439l-51 -261h-149zM156 726l95 111h113l53 -111h-88l-33 41l-48 -41h-92z" />
    <glyph glyph-name="ycircumflex" unicode="&#x177;" horiz-adv-x="383" 
d="M67 11l-13 530h144l-13 -299l104 299h145l-284 -671h-143zM114 570l104 128h104l53 -128h-82l-36 51l-56 -51h-87z" />
    <glyph glyph-name="Ydieresis" unicode="&#x178;" horiz-adv-x="409" 
d="M77 0l51 261l-48 439h149l9 -247l105 247h152l-218 -439l-51 -261h-149zM156 728l21 110h116l-21 -110h-116zM307 728l21 110h116l-21 -110h-116z" />
    <glyph glyph-name="ydieresis" unicode="&#xff;" horiz-adv-x="383" 
d="M67 11l-13 530h144l-13 -299l104 299h145l-284 -671h-143zM263 572l22 115h113l-22 -115h-113zM120 572l22 115h113l-22 -115h-113z" />
    <glyph glyph-name="Ygrave" unicode="&#x1ef2;" horiz-adv-x="409" 
d="M77 0l51 261l-48 439h149l9 -247l105 247h152l-218 -439l-51 -261h-149zM236 726l-96 76l135 42l62 -118h-101z" />
    <glyph glyph-name="ygrave" unicode="&#x1ef3;" horiz-adv-x="383" 
d="M67 11l-13 530h144l-13 -299l104 299h145l-284 -671h-143zM202 570l-101 94l122 44l66 -138h-87z" />
    <glyph glyph-name="Zacute" unicode="&#x179;" horiz-adv-x="356" 
d="M-35 0l25 126l235 432h-149l27 142h319l-25 -126l-234 -432h154l-28 -142h-324zM206 728l94 118l132 -42l-120 -76h-106z" />
    <glyph glyph-name="zacute" unicode="&#x17a;" horiz-adv-x="315" 
d="M158 572l102 138l117 -44l-128 -94h-91zM-41 0l21 110l193 309h-132l23 122h293l-21 -109l-193 -310h136l-24 -122h-296z" />
    <glyph glyph-name="Zcaron" unicode="&#x17d;" horiz-adv-x="356" 
d="M414 839l-95 -111h-113l-53 111h89l33 -41l48 41h91zM-35 0l25 126l235 432h-149l27 142h319l-25 -126l-234 -432h154l-28 -142h-324z" />
    <glyph glyph-name="zcaron" unicode="&#x17e;" horiz-adv-x="315" 
d="M158 572l-53 128h82l36 -50l56 50h87l-104 -128h-104zM-41 0l21 110l193 309h-132l23 122h293l-21 -109l-193 -310h136l-24 -122h-296z" />
    <glyph glyph-name="Zdotaccent" unicode="&#x17b;" horiz-adv-x="356" 
d="M204 730l21 110h121l-21 -110h-121zM-35 0l25 126l235 432h-149l27 142h319l-25 -126l-234 -432h154l-28 -142h-324z" />
    <glyph glyph-name="zdotaccent" unicode="&#x17c;" horiz-adv-x="315" 
d="M-41 0l21 110l193 309h-132l23 122h293l-21 -109l-193 -310h136l-24 -122h-296zM153 574l22 115h120l-22 -115h-120z" />
    <glyph glyph-name="schwa" unicode="&#x259;" horiz-adv-x="381" 
d="M0 161c0 48 9 100 25 170h207c1 8 2 14 2 18c0 54 -25 73 -73 73c-32 0 -63 -8 -104 -28l16 129c33 17 75 28 122 28c113 0 178 -65 178 -196c0 -76 -27 -234 -107 -314c-36 -36 -78 -54 -125 -54c-87 0 -141 61 -141 174zM176 123c16 16 30 62 40 108h-75
c-7 -32 -10 -57 -10 -76c0 -29 9 -41 25 -41c6 0 13 2 20 9z" />
    <glyph glyph-name="germandbls" unicode="&#xdf;" horiz-adv-x="432" 
d="M160 -1l24 123c58 4 80 55 80 113c0 39 -15 60 -44 73l21 107c45 19 68 74 68 124c0 31 -13 50 -35 50c-30 0 -46 -31 -57 -88l-98 -501h-146l99 509c13 67 35 116 68 148c38 38 86 54 144 54c111 0 172 -70 172 -162c0 -84 -39 -153 -116 -188c41 -32 68 -74 68 -137
c0 -127 -73 -235 -248 -225z" />
    <glyph glyph-name="zero" unicode="0" horiz-adv-x="428" 
d="M280 712c94 0 162 -57 162 -202c0 -92 -35 -367 -139 -471c-35 -35 -77 -51 -126 -51c-93 0 -161 57 -161 202c0 92 35 367 139 471c35 35 77 51 125 51zM187 124c8 0 15 2 23 10c41 41 91 315 91 392c0 41 -15 50 -31 50c-7 0 -14 -2 -22 -10c-41 -41 -91 -315 -91 -392
c0 -41 15 -50 30 -50z" />
    <glyph glyph-name="one" unicode="1" horiz-adv-x="266" 
d="M33 0l104 541l-76 -21l27 147l117 36h111l-133 -703h-150z" />
    <glyph glyph-name="two" unicode="2" horiz-adv-x="353" 
d="M-34 0l25 134l181 260c36 52 55 89 55 122c0 31 -18 51 -56 51c-34 0 -62 -11 -100 -28l27 146c34 15 70 25 115 26c107 2 169 -62 169 -159c0 -62 -20 -119 -82 -207l-140 -198h156l-29 -147h-321z" />
    <glyph glyph-name="three" unicode="3" horiz-adv-x="350" 
d="M106 -11c-56 0 -103 15 -138 37l27 142c34 -20 66 -35 102 -35c58 0 84 45 84 89c0 48 -27 78 -109 91l18 97l133 147h-151l27 143h313l-26 -137l-154 -169c65 -33 97 -84 97 -161c0 -62 -18 -132 -70 -183c-38 -39 -91 -61 -153 -61z" />
    <glyph glyph-name="three.alt" horiz-adv-x="353" 
d="M108 -11c-55 0 -104 14 -140 35l27 141c33 -22 67 -35 104 -35c48 0 80 34 80 88c0 40 -25 74 -105 82l24 121c93 1 138 38 138 92c0 34 -21 57 -67 57c-31 0 -58 -8 -91 -20l27 140c31 12 69 21 112 21c106 0 173 -57 173 -162c-1 -94 -52 -166 -143 -198
c50 -30 79 -79 79 -140c0 -131 -86 -222 -218 -222z" />
    <glyph glyph-name="four" unicode="4" horiz-adv-x="417" 
d="M158 0l23 119h-199l22 110l271 472h160l-89 -456h57l-25 -126h-57l-23 -119h-140zM128 245h79l46 233z" />
    <glyph glyph-name="five" unicode="5" horiz-adv-x="361" 
d="M107 -11c-48 0 -95 14 -129 34l28 145c28 -20 60 -36 96 -36c63 0 96 69 96 133c0 42 -21 59 -51 59c-19 0 -33 -4 -46 -9l-64 40l87 345h281l-28 -142h-170l-28 -113c8 2 16 3 25 3c96 0 144 -55 144 -159c0 -88 -30 -182 -88 -240c-40 -40 -91 -60 -153 -60z" />
    <glyph glyph-name="six" unicode="6" horiz-adv-x="395" 
d="M165 -11c-48 0 -82 16 -104 38c-34 34 -48 87 -48 159c0 117 48 370 144 465c41 42 86 59 144 59c37 0 79 -8 115 -26l-26 -136c-21 14 -54 29 -87 29c-24 0 -42 -7 -58 -23c-21 -20 -37 -57 -52 -114c21 10 45 17 68 17c74 0 120 -50 120 -148c1 -86 -30 -207 -91 -269
c-34 -33 -76 -51 -125 -51zM176 116c8 0 15 3 21 10c29 29 45 129 45 163c0 40 -16 51 -36 51c-13 0 -23 -3 -34 -8l-4 -20c-16 -78 -21 -126 -21 -148c0 -15 2 -30 9 -39c5 -7 12 -9 20 -9z" />
    <glyph glyph-name="seven" unicode="7" horiz-adv-x="341" 
d="M4 0l224 553h-163l29 147h314l-22 -112l-231 -588h-151z" />
    <glyph glyph-name="eight" unicode="8" horiz-adv-x="398" 
d="M169 -12c-108 0 -170 68 -170 168c0 93 39 182 116 222c-29 32 -45 73 -45 121c0 111 68 213 192 213c98 0 163 -63 163 -164c0 -75 -36 -156 -105 -191c30 -29 51 -72 51 -132c0 -118 -70 -237 -202 -237zM171 105c47 0 64 108 64 150c0 29 -9 53 -32 53
c-47 0 -64 -108 -64 -150c0 -30 9 -53 32 -53zM232 417c42 0 55 98 55 131c0 24 -7 46 -31 46c-42 0 -55 -97 -55 -130c0 -24 7 -47 31 -47z" />
    <glyph glyph-name="nine" unicode="9" horiz-adv-x="395" 
d="M124 -9c-40 0 -84 8 -125 30l25 136c26 -17 62 -33 98 -33c25 0 43 6 60 23c19 19 34 50 48 106c-20 -10 -44 -17 -67 -17c-74 0 -119 52 -120 152c0 91 32 211 93 273c33 33 75 51 124 51c48 0 83 -16 106 -38c33 -34 47 -87 47 -159c0 -117 -48 -370 -144 -465
c-42 -42 -86 -59 -145 -59zM217 353c13 0 24 3 34 8l5 25c17 80 23 129 23 151c0 15 -3 30 -9 39c-6 7 -12 9 -20 9s-15 -3 -22 -10c-29 -29 -46 -129 -46 -168c0 -41 15 -54 35 -54z" />
    <glyph glyph-name="period" unicode="." horiz-adv-x="215" 
d="M-25 0l32 161h159l-31 -161h-160z" />
    <glyph glyph-name="comma" unicode="," horiz-adv-x="215" 
d="M-52 -148l-3 57c81 12 100 55 107 91h-77l32 161h159l-28 -148c-21 -109 -86 -156 -190 -161z" />
    <glyph glyph-name="colon" unicode=":" horiz-adv-x="220" 
d="M-22 0l31 161h160l-32 -161h-159zM51 380l32 161h159l-31 -161h-160z" />
    <glyph glyph-name="semicolon" unicode=";" horiz-adv-x="220" 
d="M-49 -148l-3 57c81 12 99 55 107 91h-77l31 161h160l-29 -148c-20 -109 -85 -156 -189 -161zM51 380l32 161h159l-31 -161h-160z" />
    <glyph glyph-name="ellipsis" unicode="&#x2026;" horiz-adv-x="685" 
d="M-20 0l32 161h159l-31 -161h-160zM210 0l32 161h160l-32 -161h-160zM440 0l32 161h160l-32 -161h-160z" />
    <glyph glyph-name="periodcentered" unicode="&#xb7;" horiz-adv-x="226" 
d="M25 232l32 161h159l-31 -161h-160z" />
    <glyph glyph-name="bullet" unicode="&#x2022;" horiz-adv-x="363" 
d="M221 525c61 0 104 -39 104 -119c0 -60 -20 -143 -63 -186c-22 -22 -52 -37 -88 -37c-61 0 -103 39 -103 119c0 60 19 143 62 186c22 22 52 37 88 37z" />
    <glyph glyph-name="ampersand" unicode="&#x26;" horiz-adv-x="464" 
d="M354 331l107 -30c-18 -75 -47 -135 -81 -182l35 -89l-115 -47l-18 46c-34 -24 -72 -39 -116 -39c-105 0 -174 68 -174 171c0 102 54 180 146 234c-22 49 -30 89 -30 134c0 91 57 182 169 182c93 0 154 -61 154 -146c0 -87 -49 -161 -144 -217l38 -106c10 24 19 54 29 89z
M189 113c16 0 31 6 46 18l-55 157c-34 -32 -48 -70 -48 -108s18 -67 57 -67zM232 527c0 -26 4 -50 14 -79c44 35 61 69 61 105c0 27 -11 43 -32 43c-27 0 -43 -32 -43 -69z" />
    <glyph glyph-name="exclam" unicode="!" horiz-adv-x="226" 
d="M70 224l35 460l3 16h177l-3 -16l-144 -460h-68zM-19 0l31 159h159l-31 -159h-159z" />
    <glyph glyph-name="exclamdown" unicode="&#xa1;" horiz-adv-x="225" 
d="M186 476l-35 -460l-3 -16h-177l3 16l144 460h68zM275 700l-31 -159h-159l31 159h159z" />
    <glyph glyph-name="question" unicode="?" horiz-adv-x="337" 
d="M79 224l24 183l4 6c82 15 116 52 116 98c0 34 -24 56 -70 56c-31 0 -59 -9 -86 -20l27 141c30 11 64 19 104 19c109 0 180 -62 180 -166c1 -104 -59 -182 -163 -215l-38 -102h-98zM7 0l31 159h159l-31 -159h-159z" />
    <glyph glyph-name="questiondown" unicode="&#xbf;" horiz-adv-x="337" 
d="M289 476l-24 -183l-4 -6c-82 -15 -116 -52 -116 -98c0 -34 24 -56 70 -56c31 0 59 9 86 20l-27 -141c-30 -11 -64 -19 -104 -19c-109 0 -180 62 -180 166c-1 104 59 182 163 215l38 102h98zM361 700l-31 -159h-159l31 159h159z" />
    <glyph glyph-name="quotedblleft" unicode="&#x201c;" horiz-adv-x="410" 
d="M52 395l28 148c21 107 86 155 186 161l3 -57c-77 -13 -96 -57 -103 -91h72l-31 -161h-155zM248 395l28 148c21 107 86 155 185 161l3 -57c-76 -13 -95 -57 -102 -91h72l-31 -161h-155z" />
    <glyph glyph-name="quotedblright" unicode="&#x201d;" horiz-adv-x="410" 
d="M56 391l-3 57c76 13 95 57 102 91h-72l31 161h155l-28 -148c-20 -107 -86 -155 -185 -161zM252 391l-3 57c76 13 95 57 102 91h-72l31 161h155l-28 -148c-21 -107 -86 -155 -185 -161z" />
    <glyph glyph-name="quoteleft" unicode="&#x2018;" horiz-adv-x="219" 
d="M52 395l28 148c21 108 86 155 190 161l3 -57c-81 -12 -100 -56 -107 -91h77l-32 -161h-159z" />
    <glyph glyph-name="quoteright" unicode="&#x2019;" horiz-adv-x="219" 
d="M56 391l-3 57c81 12 99 55 107 91h-77l31 161h160l-29 -148c-20 -109 -85 -156 -189 -161z" />
    <glyph glyph-name="quotedblbase" unicode="&#x201e;" horiz-adv-x="428" 
d="M-41 -148l-3 57c77 13 96 57 103 91h-73l32 161h155l-28 -148c-21 -107 -86 -155 -186 -161zM155 -148l-3 57c77 13 96 57 103 91h-73l32 161h155l-29 -148c-20 -107 -85 -155 -185 -161z" />
    <glyph glyph-name="quotesinglbase" unicode="&#x201a;" horiz-adv-x="231" 
d="M-41 -148l-3 57c81 12 100 55 107 91h-77l32 161h159l-28 -148c-20 -109 -86 -156 -190 -161z" />
    <glyph glyph-name="guillemotleft" unicode="&#xab;" horiz-adv-x="432" 
d="M104 44l-90 216l4 21l166 216l84 -48l-120 -182l58 -182zM281 44l-89 222l2 8l174 223l84 -48l-123 -182l53 -182z" />
    <glyph glyph-name="guillemotright" unicode="&#xbb;" horiz-adv-x="432" 
d="M328 496l90 -216l-4 -21l-166 -216l-84 48l120 182l-58 182zM151 496l89 -222l-2 -8l-174 -223l-84 48l123 182l-53 182z" />
    <glyph glyph-name="guilsinglleft" unicode="&#x2039;" horiz-adv-x="252" 
d="M100 44l-86 216l4 21l170 216l84 -48l-124 -182l54 -182z" />
    <glyph glyph-name="guilsinglright" unicode="&#x203a;" horiz-adv-x="252" 
d="M151 496l86 -216l-4 -21l-170 -216l-84 48l124 182l-54 182z" />
    <glyph glyph-name="hyphen" unicode="-" horiz-adv-x="325" 
d="M22 241l28 143h270l-28 -143h-270z" />
    <glyph glyph-name="endash" unicode="&#x2013;" horiz-adv-x="447" 
d="M22 244l26 137h394l-27 -137h-393z" />
    <glyph glyph-name="emdash" unicode="&#x2014;" horiz-adv-x="671" 
d="M22 244l27 137h617l-26 -137h-618z" />
    <glyph glyph-name="underscore" unicode="_" horiz-adv-x="479" 
d="M-84 -151l21 108h483l-21 -108h-483z" />
    <glyph glyph-name="slash" unicode="/" horiz-adv-x="318" 
d="M-92 -98l406 866h112l-406 -866h-112z" />
    <glyph glyph-name="backslash" unicode="\" horiz-adv-x="315" 
d="M157 -98l-77 866h104l76 -866h-103z" />
    <glyph glyph-name="bar" unicode="|" horiz-adv-x="231" 
d="M-8 -98l168 866h103l-168 -866h-103z" />
    <glyph glyph-name="parenleft" unicode="(" horiz-adv-x="290" 
d="M196 -132c-118 38 -177 158 -177 312c0 163 46 338 152 443c54 54 120 84 189 86l-20 -104c-23 -7 -45 -20 -66 -41c-90 -90 -121 -309 -121 -422c0 -74 18 -142 63 -172z" />
    <glyph glyph-name="parenright" unicode=")" horiz-adv-x="290" 
d="M99 708c118 -38 177 -158 177 -312c0 -163 -46 -338 -152 -443c-54 -54 -120 -84 -189 -86l20 104c23 7 45 20 66 41c90 90 121 309 121 422c0 74 -18 142 -63 172z" />
    <glyph glyph-name="bracketleft" unicode="[" horiz-adv-x="276" 
d="M-35 -130l161 830h214l-19 -101h-88l-122 -628h87l-19 -101h-214z" />
    <glyph glyph-name="bracketright" unicode="]" horiz-adv-x="276" 
d="M316 700l-161 -830h-214l19 101h88l122 628h-87l19 101h214z" />
    <glyph glyph-name="braceleft" unicode="{" horiz-adv-x="317" 
d="M219 -137c-131 15 -184 67 -184 138c0 38 15 70 29 99c14 31 28 57 28 82c0 32 -28 50 -70 50h-11l21 108h13c34 0 58 9 73 25c29 29 24 68 20 122c-4 55 -4 118 43 165c41 41 107 60 202 57l-20 -100c-37 -1 -63 -8 -79 -25c-26 -26 -24 -63 -19 -115
c5 -49 10 -99 -30 -139c-23 -24 -58 -39 -104 -45c63 -19 92 -52 92 -94c0 -32 -11 -54 -30 -94c-18 -36 -27 -55 -27 -77c0 -31 26 -49 72 -58z" />
    <glyph glyph-name="braceright" unicode="}" horiz-adv-x="317" 
d="M104 709c131 -15 184 -67 184 -138c0 -38 -15 -70 -29 -99c-14 -31 -28 -57 -28 -82c0 -32 28 -50 70 -50h11l-21 -108h-13c-34 0 -58 -9 -73 -25c-29 -29 -24 -68 -20 -122c4 -55 4 -118 -43 -165c-41 -41 -107 -60 -202 -57l20 100c37 1 63 8 79 25c26 26 24 63 19 115
c-5 49 -10 99 30 139c23 24 58 39 104 45c-63 19 -92 52 -92 94c0 32 11 54 30 94c18 36 27 55 27 77c0 31 -26 49 -72 58z" />
    <glyph glyph-name="at" unicode="@" horiz-adv-x="615" 
d="M257 -136c-145 0 -247 99 -247 295c0 268 141 552 374 552c144 0 228 -116 228 -272c0 -186 -76 -381 -205 -381c-53 0 -85 30 -90 85c-29 -47 -63 -81 -109 -81c-47 0 -78 37 -78 114c0 134 81 343 184 343c41 0 60 -30 66 -67l15 58l106 -16l-71 -289
c-5 -21 -12 -54 -12 -69c0 -17 7 -26 21 -26c56 0 130 154 130 326c0 127 -60 233 -191 233c-205 0 -323 -284 -323 -508c0 -168 79 -256 206 -256c50 0 99 13 147 44l18 -37c-52 -30 -106 -48 -169 -48zM264 151c43 0 89 172 89 237c0 22 -6 33 -19 33
c-44 0 -89 -174 -89 -237c0 -23 7 -33 19 -33z" />
    <glyph glyph-name="copyright" unicode="&#xa9;" horiz-adv-x="510" 
d="M262 142c-69 0 -113 44 -113 134c0 70 25 187 80 243c26 26 57 39 91 39c30 0 50 -7 67 -16l-19 -90c-14 10 -28 16 -44 16c-12 0 -23 -4 -33 -14c-29 -29 -47 -128 -47 -168s15 -54 41 -54c14 0 27 3 44 10l-18 -89c-16 -7 -30 -11 -49 -11zM514 466
c0 -114 -33 -311 -131 -408c-42 -43 -94 -70 -163 -70c-116 0 -198 88 -198 246c0 114 33 311 131 408c43 43 95 70 164 70c116 0 197 -88 197 -246zM60 233c0 -134 63 -210 162 -210c54 0 95 18 136 59c86 87 119 275 119 385c0 134 -63 210 -163 210
c-53 0 -94 -18 -135 -59c-87 -87 -119 -275 -119 -385z" />
    <glyph glyph-name="published" unicode="&#x2117;" horiz-adv-x="510" 
d="M217 555h62c80 0 128 -38 128 -115c0 -90 -57 -166 -157 -166h-2l-24 -121h-85zM322 435c0 27 -12 44 -33 44h-1l-25 -128h3c36 0 56 49 56 84zM317 712c116 0 197 -88 197 -246c0 -114 -33 -311 -131 -408c-42 -43 -94 -70 -163 -70c-116 0 -198 88 -198 246
c0 114 33 311 131 408c43 43 95 70 164 70zM222 23c54 0 95 18 136 59c86 87 119 275 119 385c0 134 -63 210 -163 210c-53 0 -94 -18 -135 -59c-87 -87 -119 -275 -119 -385c0 -134 63 -210 162 -210z" />
    <glyph glyph-name="registered.alt" horiz-adv-x="510" 
d="M317 712c116 0 197 -88 197 -246c0 -114 -33 -311 -131 -408c-42 -43 -94 -70 -163 -70c-116 0 -198 88 -198 246c0 114 33 311 131 408c43 43 95 70 164 70zM222 23c54 0 95 18 136 59c86 87 119 275 119 385c0 134 -63 210 -163 210c-53 0 -94 -18 -135 -59
c-87 -87 -119 -275 -119 -385c0 -134 63 -210 162 -210zM240 285l-25 -131h-86l78 402h66c46 0 80 -10 102 -32c20 -20 29 -46 29 -80c0 -44 -15 -82 -43 -110c-9 -9 -20 -17 -31 -23l25 -157h-91l-17 131h-7zM254 358h7c12 0 23 4 32 13c14 14 23 42 23 67
c0 14 -3 25 -10 32c-6 6 -15 9 -26 9h-2z" />
    <glyph glyph-name="registered" unicode="&#xae;" horiz-adv-x="288" 
d="M219 713c63 0 104 -51 104 -127c0 -60 -17 -143 -66 -192c-22 -22 -49 -35 -85 -35c-63 0 -104 51 -104 127c0 59 17 143 66 191c22 22 49 36 85 36zM174 378c28 0 50 10 69 30c43 43 58 123 58 177c0 64 -29 108 -84 108c-28 0 -50 -10 -69 -29
c-43 -43 -58 -123 -58 -177c0 -65 29 -109 84 -109zM180 504l-11 -63h-43l34 195h36c43 0 67 -16 68 -54c0 -29 -14 -53 -37 -66l16 -75h-46l-12 63h-5zM187 541h4c7 0 13 2 17 7c8 7 11 18 11 30c0 14 -8 20 -19 20h-4z" />
    <glyph glyph-name="servicemark" unicode="&#x2120;" horiz-adv-x="439" 
d="M117 382c-28 0 -57 10 -74 22l13 70c19 -14 38 -24 57 -24c17 0 26 10 26 24s-10 27 -22 43c-21 27 -39 53 -39 89c0 27 9 53 28 72c15 14 39 25 68 25c28 0 50 -7 67 -17l-13 -69c-16 10 -33 18 -50 18c-16 0 -25 -10 -25 -24s11 -28 23 -44c22 -28 38 -51 38 -87
c0 -26 -9 -53 -28 -71c-17 -17 -41 -27 -69 -27zM220 385l61 315h69l18 -98l55 98h73l-61 -315h-70l33 169l-58 -103h-1l-17 103l-32 -169h-70z" />
    <glyph glyph-name="trademark" unicode="&#x2122;" horiz-adv-x="439" 
d="M76 385l47 244h-43l14 71h160l-14 -71h-44l-47 -244h-73zM216 385l61 315h71l19 -97l55 97h74l-61 -315h-71l33 168l-58 -101h-2l-18 101l-32 -168h-71z" />
    <glyph glyph-name="asterisk" unicode="*" horiz-adv-x="315" 
d="M229 385l-97 19l48 108l-90 -61l-32 92l109 13l-96 52l64 73l60 -90l-4 118l97 -19l-49 -107l90 60l33 -92l-109 -12l96 -52l-65 -74l-60 90z" />
    <glyph glyph-name="dagger" unicode="&#x2020;" horiz-adv-x="259" 
d="M75 238l65 262l-78 -9l18 97l74 -10l7 122h103l-40 -122l77 10l-19 -97l-74 9l-37 -262h-96z" />
    <glyph glyph-name="daggerdbl" unicode="&#x2021;" horiz-adv-x="273" 
d="M33 0l40 121l-77 -9l18 97l76 -10l12 151l46 150l-79 -9l18 97l74 -10l8 122h102l-40 -122l77 10l-19 -97l-75 9l-13 -150l-45 -151l79 10l-19 -97l-74 9l-7 -121h-102z" />
    <glyph glyph-name="dollar" unicode="$" horiz-adv-x="371" 
d="M233 774h104l-15 -78c30 -6 56 -17 82 -33l-29 -151c-33 26 -74 47 -112 47c-33 0 -52 -24 -52 -51c0 -23 11 -50 51 -102c56 -77 83 -123 83 -192c0 -107 -62 -189 -158 -211l-21 -110h-104l21 110c-38 8 -72 24 -99 44l29 151c33 -26 80 -56 125 -56c32 0 56 22 56 56
c0 22 -8 42 -53 102c-52 69 -81 124 -81 191c0 111 67 186 158 206z" />
    <glyph glyph-name="sterling" unicode="&#xa3;" horiz-adv-x="384" 
d="M-34 0l20 103l60 28l28 140h-53l26 133h52l18 94c14 73 33 124 72 163c34 34 79 49 137 49c45 0 83 -10 108 -22l-27 -139c-23 12 -45 19 -67 19c-21 0 -37 -6 -49 -18c-16 -16 -23 -38 -28 -67l-15 -79h104l-26 -133h-104l-26 -132h145l-26 -139h-349z" />
    <glyph glyph-name="Euro" unicode="&#x20ac;" horiz-adv-x="394" 
d="M32 381l20 102h50c22 63 53 124 94 165c44 45 95 63 146 63c47 0 82 -10 112 -26l-30 -149c-29 23 -51 32 -75 32c-21 0 -40 -9 -55 -25c-14 -14 -28 -37 -39 -63h104l-20 -99h-114c-5 -22 -9 -41 -12 -58h115l-20 -100h-105c2 -66 28 -92 76 -92c22 0 43 6 74 19
l-28 -141c-26 -12 -52 -19 -83 -19c-112 0 -185 71 -185 229v2h-56l20 102h45l10 58h-44z" />
    <glyph glyph-name="yen" unicode="&#xa5;" horiz-adv-x="418" 
d="M82 0l18 96h-96l22 110h95l10 51h-96l22 111h67l-43 332h143l15 -253l109 253h152l-173 -332h68l-22 -111h-96l-10 -51h97l-22 -110h-96l-19 -96h-145z" />
    <glyph glyph-name="cent" unicode="&#xa2;" horiz-adv-x="316" 
d="M219 705h100l-15 -77c22 -5 41 -13 55 -21l-28 -140c-21 17 -41 28 -62 28c-17 0 -30 -6 -41 -17c-41 -41 -57 -150 -57 -201c0 -52 20 -71 54 -71c19 0 37 5 58 14l-26 -137c-21 -8 -39 -12 -62 -13l-14 -76h-100l18 96c-49 28 -76 87 -76 168c0 89 28 245 106 323
c23 24 49 38 75 46z" />
    <glyph glyph-name="numbersign" unicode="#" horiz-adv-x="404" 
d="M9 0l35 150h-48l21 131h57l33 142h-53l23 131h60l34 146h96l-34 -146h63l34 146h96l-34 -146h50l-23 -131h-57l-33 -142h53l-22 -131h-61l-35 -150h-96l34 150h-62l-35 -150h-96zM167 278h67l35 148h-68z" />
    <glyph glyph-name="paragraph" unicode="&#xb6;" horiz-adv-x="355" 
d="M141 0l44 225c-37 7 -70 23 -95 48c-30 31 -48 73 -48 130c0 81 27 167 84 223c49 49 116 74 193 74h90l-136 -700h-132z" />
    <glyph glyph-name="section" unicode="&#xa7;" horiz-adv-x="417" 
d="M425 360c0 -69 -49 -113 -111 -140c18 -26 23 -50 23 -76c0 -77 -57 -155 -173 -155c-58 0 -111 20 -140 39l25 123c33 -23 72 -41 106 -41c25 0 42 12 42 33c0 17 -13 33 -64 65c-72 42 -109 74 -109 132c0 69 49 113 111 140c-17 26 -23 50 -23 76c0 77 57 155 173 155
c59 0 111 -20 141 -39l-25 -123c-33 23 -73 41 -107 41c-25 0 -42 -12 -42 -33c0 -17 13 -33 64 -65c73 -42 109 -74 109 -132zM159 365c0 -19 8 -33 65 -71l23 -14c33 18 43 39 43 55c0 19 -9 34 -64 71l-24 14c-32 -18 -43 -39 -43 -55z" />
    <glyph glyph-name="ordfeminine" unicode="&#xaa;" horiz-adv-x="244" 
d="M111 402c-27 0 -46 21 -46 62c0 31 12 127 85 127c16 0 31 -5 44 -13l1 8c2 8 2 14 2 18c0 20 -12 29 -33 29c-18 0 -39 -6 -56 -14l15 74c21 7 42 12 69 12c55 0 85 -30 85 -82c0 -11 -1 -22 -3 -33l-35 -183h-79l5 26c-15 -20 -34 -31 -54 -31zM153 459
c10 0 20 8 23 25l8 47c-5 3 -12 5 -18 5c-23 0 -26 -50 -26 -57c0 -16 6 -20 13 -20zM28 291l13 65h195l-12 -65h-196z" />
    <glyph glyph-name="ordmasculine" unicode="&#xba;" horiz-adv-x="244" 
d="M29 291l13 65h190l-12 -65h-191zM147 492c0 -17 5 -23 14 -23c3 0 6 1 10 4c18 19 33 113 33 140c0 17 -5 23 -13 23c-3 0 -7 -1 -10 -4c-19 -19 -34 -113 -34 -140zM281 606c0 -40 -14 -134 -59 -179c-19 -19 -42 -28 -67 -28c-56 0 -85 40 -85 100c0 41 14 134 59 179
c19 19 42 28 68 28c55 0 84 -40 84 -100z" />
    <glyph glyph-name="degree" unicode="&#xb0;" horiz-adv-x="274" 
d="M211 706c66 0 101 -49 101 -118c0 -44 -14 -146 -66 -198c-24 -24 -51 -35 -83 -35c-64 0 -101 48 -101 119c0 44 15 146 66 198c25 24 51 34 83 34zM171 441c4 0 9 1 14 6c19 20 37 110 37 146c0 21 -8 28 -18 28c-4 0 -9 -2 -14 -7c-19 -19 -38 -110 -38 -146
c0 -20 8 -27 19 -27z" />
    <glyph glyph-name="percent" unicode="%" horiz-adv-x="581" 
d="M36 0l237 357l221 343h82l-237 -357l-220 -343h-83zM158 316c-61 0 -99 41 -99 120c0 70 22 188 72 238c22 22 45 32 75 32c61 0 98 -40 98 -119c0 -71 -22 -189 -71 -239c-23 -22 -45 -32 -75 -32zM165 403c4 0 8 1 13 6c21 22 41 151 41 182c0 18 -5 29 -20 29
c-4 0 -8 -2 -13 -7c-21 -21 -41 -151 -41 -182c0 -18 5 -28 20 -28zM407 -6c-61 0 -99 40 -99 119c0 71 22 189 72 239c22 22 45 32 75 32c61 0 99 -41 99 -120c0 -70 -22 -188 -72 -238c-22 -22 -45 -32 -75 -32zM414 80c4 0 8 2 13 7c21 21 41 151 41 182
c0 18 -5 28 -20 28c-4 0 -8 -1 -13 -6c-21 -22 -41 -151 -41 -182c0 -18 5 -29 20 -29z" />
    <glyph glyph-name="perthousand" unicode="&#x2030;" horiz-adv-x="837" 
d="M36 0l237 357l221 343h82l-237 -357l-220 -343h-83zM158 316c-61 0 -99 41 -99 120c0 70 22 188 72 238c22 22 45 32 75 32c61 0 98 -40 98 -119c0 -71 -22 -189 -71 -239c-23 -22 -45 -32 -75 -32zM165 403c4 0 8 1 13 6c21 22 41 151 41 182c0 18 -5 29 -20 29
c-4 0 -8 -2 -13 -7c-21 -21 -41 -151 -41 -182c0 -18 5 -28 20 -28zM407 -6c-61 0 -99 40 -99 119c0 71 22 189 72 239c22 22 45 32 75 32c61 0 99 -41 99 -120c0 -70 -22 -188 -72 -238c-22 -22 -45 -32 -75 -32zM414 80c4 0 8 2 13 7c21 21 41 151 41 182
c0 18 -5 28 -20 28c-4 0 -8 -1 -13 -6c-21 -22 -41 -151 -41 -182c0 -18 5 -29 20 -29zM667 -6c-61 0 -98 40 -98 119c0 71 22 189 72 239c22 22 45 32 75 32c61 0 98 -41 98 -120c0 -70 -22 -188 -72 -238c-22 -22 -45 -32 -75 -32zM674 80c4 0 8 2 13 7
c22 21 42 151 42 182c0 18 -6 28 -20 28c-4 0 -8 -1 -13 -6c-22 -22 -42 -151 -42 -182c0 -18 6 -29 20 -29z" />
    <glyph glyph-name="quotedbl" unicode="&#x22;" horiz-adv-x="360" 
d="M53 380l63 320h142l-1 -9l-145 -311h-59zM228 380l63 320h142l-1 -9l-145 -311h-59z" />
    <glyph glyph-name="quotesingle" unicode="'" horiz-adv-x="187" 
d="M54 380l62 320h145l-1 -9l-147 -311h-59z" />
    <glyph glyph-name="plus" unicode="+" horiz-adv-x="408" 
d="M116 157l25 128h-117l25 134h118l25 128h132l-25 -128h118l-26 -134h-118l-25 -128h-132z" />
    <glyph glyph-name="minus" unicode="&#x2212;" horiz-adv-x="408" 
d="M25 283l27 138h367l-27 -138h-367z" />
    <glyph glyph-name="divide" unicode="&#xf7;" horiz-adv-x="408" 
d="M107 116l24 126h134l-25 -126h-133zM26 288l24 128h364l-25 -128h-363zM174 462l24 126h134l-25 -126h-133z" />
    <glyph glyph-name="equal" unicode="=" horiz-adv-x="408" 
d="M7 178l26 135h363l-27 -135h-362zM48 392l27 135h363l-27 -135h-363z" />
    <glyph glyph-name="multiply" unicode="&#xd7;" horiz-adv-x="408" 
d="M94 157l-85 95l123 106l-78 103l105 82l73 -98l112 102l85 -95l-122 -107l78 -103l-105 -82l-72 98z" />
    <glyph glyph-name="less" unicode="&#x3c;" horiz-adv-x="408" 
d="M340 99l-309 189l25 128l382 189l-32 -166l-218 -94l181 -95z" />
    <glyph glyph-name="greater" unicode="&#x3e;" horiz-adv-x="408" 
d="M0 98l32 166l218 94l-181 96l29 151l309 -189l-25 -129z" />
    <glyph glyph-name="plusminus" unicode="&#xb1;" horiz-adv-x="408" 
d="M121 177l25 129h-117l25 132h118l25 129h132l-25 -129h118l-25 -132h-119l-25 -129h-132zM-30 0l24 125h367l-24 -125h-367z" />
    <glyph glyph-name="space" unicode=" " horiz-adv-x="150" 
 />
    <glyph glyph-name="uni00A0" unicode="&#xa0;" horiz-adv-x="150" 
 />
    <glyph glyph-name="emspace" unicode="&#x2003;" horiz-adv-x="1000" 
 />
    <glyph glyph-name="enspace" unicode="&#x2002;" 
 />
    <glyph glyph-name="threeperemspace" unicode="&#x2004;" horiz-adv-x="333" 
 />
    <glyph glyph-name="fourperemspace" unicode="&#x2005;" horiz-adv-x="250" 
 />
    <glyph glyph-name="thinspace" unicode="&#x2009;" horiz-adv-x="133" 
 />
    <glyph glyph-name="hairspace" unicode="&#x200a;" horiz-adv-x="75" 
 />
    <glyph glyph-name="asciicircum" unicode="^" 
d="M156 492l118 204h118l39 -204h-90l-22 129l-72 -129h-91z" />
    <glyph glyph-name="asciitilde" unicode="~" horiz-adv-x="362" 
d="M96 250l-64 16c20 78 59 112 98 112c26 0 44 -9 65 -20c21 -10 33 -17 48 -17c17 0 29 13 40 41l65 -16c-21 -78 -59 -112 -98 -112c-26 0 -44 9 -66 20c-21 10 -32 17 -47 17c-17 0 -29 -13 -41 -41z" />
    <glyph glyph-name="NUL" horiz-adv-x="0" 
 />
    <glyph glyph-name="hfjslug" horiz-adv-x="694" 
d="M255 276h8l11 34h1l11 -34h8l14 47h-8l-10 -35h-1l-11 35h-7l-11 -35h-1l-10 35h-8zM321 388c13 0 23 9 29 24h1l12 -24l12 6l-17 32c5 12 9 25 13 39l-13 3c-2 -9 -5 -21 -8 -30h-1l-16 31c13 12 23 26 23 42c0 17 -9 31 -27 31c-17 0 -28 -14 -28 -31
c0 -15 6 -24 14 -39c-15 -12 -23 -28 -23 -47c0 -22 12 -37 29 -37zM50 -200v303c18 0 32 14 32 32c0 17 -14 32 -32 32v554h100l30 79h334l29 -79h101v-921h-208l-8 14h-163l-8 -14h-207zM523 277h8v12l8 8l15 -20h10l-20 26l18 20h-10l-20 -24h-1v24h-8v-46zM193 277h34v7
h-26v13h23v7h-23v12h26v7h-34v-46zM184 391h15v79h47v-79h15v172h-15v-79h-47v79h-15v-172zM132 277h8v32l25 -32h7v46h-8v-32l-25 32h-7v-46zM400 391h15v78h38v14h-38v66h43v14h-58v-172zM468 277h8v15h12l10 -15h9l-12 17c5 2 10 6 10 14c0 9 -7 15 -17 15h-20v-46z
M366 277h8v17l18 29h-9l-13 -22l-13 22h-9l18 -29v-17zM481 390c20 0 31 11 31 36v137h-16v-137c0 -16 -5 -22 -16 -22c-6 0 -15 3 -20 5v-15c5 -2 14 -4 21 -4zM476 299v17h11c6 0 10 -3 10 -8s-4 -9 -10 -9h-11zM322 402c-9 0 -16 10 -16 25c0 13 7 26 16 35l20 -39
c-5 -13 -12 -21 -20 -21zM327 479c-7 13 -12 22 -12 32c0 11 6 19 14 19s13 -8 13 -19c0 -12 -5 -21 -15 -32zM426 283c-10 0 -16 8 -16 17c0 8 6 17 16 17s16 -9 16 -17c0 -9 -6 -17 -16 -17zM426 276c14 0 24 11 24 24c0 12 -10 24 -24 24s-24 -12 -24 -24
c0 -13 10 -24 24 -24z" />
    <glyph glyph-name="i.dot" horiz-adv-x="200" 
d="M-25 0l105 541h145l-105 -541h-145zM87 582l25 128h147l-25 -128h-147z" />
    <glyph glyph-name="acute" unicode="&#xb4;" 
d="M209 572l102 138l117 -44l-128 -94h-91z" />
    <glyph glyph-name="hungarumlaut" unicode="&#x2dd;" 
d="M276 572l53 73l-91 -73h-82l101 138l92 -38l28 38l101 -42l-120 -96h-82z" />
    <glyph glyph-name="caron.alt" 
d="M244 563l37 147h87v-1l-67 -146h-57z" />
    <glyph glyph-name="grave" unicode="`" 
d="M317 572l-101 94l122 44l66 -138h-87z" />
    <glyph glyph-name="circumflex" unicode="&#x2c6;" 
d="M177 572l104 128h104l53 -128h-82l-36 51l-56 -51h-87z" />
    <glyph glyph-name="caron" unicode="&#x2c7;" 
d="M256 572l-53 128h82l36 -50l56 50h87l-104 -128h-104z" />
    <glyph glyph-name="breve" unicode="&#x2d8;" 
d="M315 568c-71 0 -116 37 -109 119h78c0 -27 13 -43 39 -43s43 16 51 43h81c-20 -81 -73 -119 -140 -119z" />
    <glyph glyph-name="tilde" unicode="&#x2dc;" 
d="M403 698l69 -14c-21 -77 -54 -114 -94 -114c-21 0 -37 8 -59 17c-23 10 -35 15 -46 15c-16 0 -25 -9 -36 -36l-69 14c22 80 54 114 94 114c21 0 38 -8 59 -17c23 -10 34 -15 46 -15c16 0 25 9 36 36z" />
    <glyph glyph-name="macron" unicode="&#xaf;" 
d="M185 575l18 90h247l-18 -90h-247z" />
    <glyph glyph-name="dieresis" unicode="&#xa8;" 
d="M181 574l22 115h113l-22 -115h-113zM324 574l22 115h113l-22 -115h-113z" />
    <glyph glyph-name="dotaccent" unicode="&#x2d9;" 
d="M249 574l22 115h120l-22 -115h-120z" />
    <glyph glyph-name="ring" unicode="&#x2da;" 
d="M418 672c0 -52 -39 -105 -103 -105c-47 0 -84 33 -84 82c0 52 39 106 104 106c47 0 83 -33 83 -83zM284 652c0 -20 12 -38 35 -38c26 0 47 24 47 55c0 21 -12 38 -36 38c-26 0 -46 -23 -46 -55z" />
    <glyph glyph-name="acute.cap" 
d="M236 728l94 118l132 -42l-120 -76h-106z" />
    <glyph glyph-name="hungarumlaut.cap" 
d="M324 728l49 62l-90 -62h-95l94 118l106 -37l29 37l115 -40l-113 -78h-95z" />
    <glyph glyph-name="grave.cap" 
d="M327 728l-96 76l135 42l62 -118h-101z" />
    <glyph glyph-name="circumflex.cap" 
d="M208 728l95 111h113l53 -111h-88l-33 41l-48 -41h-92z" />
    <glyph glyph-name="caron.cap" 
d="M490 839l-95 -111h-113l-53 111h89l33 -41l48 41h91z" />
    <glyph glyph-name="breve.cap" 
d="M342 724c-69 0 -116 34 -105 108h78c0 -22 13 -33 37 -33c23 0 38 11 47 33h81c-18 -74 -70 -108 -138 -108z" />
    <glyph glyph-name="tilde.cap" 
d="M267 722l-70 15c23 80 51 116 93 116c20 0 39 -8 63 -18c23 -10 34 -15 45 -15c15 0 24 10 35 36l71 -14c-24 -80 -52 -116 -94 -116c-20 0 -37 7 -61 17s-36 15 -47 15c-15 0 -23 -9 -35 -36z" />
    <glyph glyph-name="macron.cap" 
d="M210 731l18 91h258l-18 -91h-258z" />
    <glyph glyph-name="dieresis.cap" 
d="M205 730l21 110h116l-21 -110h-116zM356 730l21 110h116l-21 -110h-116z" />
    <glyph glyph-name="dotaccent.cap" 
d="M278 730l21 110h121l-21 -110h-121z" />
    <glyph glyph-name="ring.cap" 
d="M364 905c49 0 89 -33 89 -80c0 -57 -46 -101 -108 -101c-48 0 -88 33 -88 79c0 58 46 102 107 102zM350 771c28 0 49 21 49 49c0 23 -16 38 -39 38c-28 0 -49 -22 -49 -49c0 -23 16 -38 39 -38z" />
    <glyph glyph-name="commaaccent" unicode="&#x326;" 
d="M103 -220v42c46 7 63 21 69 47h-55l18 97h116l-15 -82c-14 -71 -64 -98 -133 -104z" />
    <glyph glyph-name="cedilla" unicode="&#xb8;" 
d="M184 -129l-125 35l103 114h94z" />
    <glyph glyph-name="ogonek" unicode="&#x2db;" 
d="M265 -66l-15 -77c-18 -3 -37 -4 -55 -4c-63 0 -97 21 -97 60c0 38 29 69 84 109l84 -7c-31 -31 -44 -47 -44 -60s11 -19 43 -21z" />
    </font>
</defs>
</svg>
