<?xml version="1.0" encoding="UTF-8"?>
<svg width="19px" height="19px" viewBox="0 0 19 19" version="1.1" xmlns="http://www.w3.org/2000/svg" xmlns:xlink="http://www.w3.org/1999/xlink">
    <!-- Generator: Sketch 43.1 (39012) - http://www.bohemiancoding.com/sketch -->
    <title>X</title>
    <desc>Created with Sketch.</desc>
    <defs></defs>
    <g id="•••-Contexual-Search-Button" stroke="none" stroke-width="1" fill="none" fill-rule="evenodd">
        <g id="04_Simple-version---UX-rules" transform="translate(-578.000000, -587.000000)" stroke="#0078B3" stroke-width="1.5">
            <g id="Group-2" transform="translate(346.000000, 576.000000)">
                <g id="Past-visit-search" transform="translate(14.000000, 8.000000)">
                    <g id="X-search" transform="translate(219.000000, 4.000000)">
                        <path d="M8.5,8.96374667 L11.4362533,11.9 L11.9,11.4362533 L8.96374667,8.5 L11.9,5.56374667 L11.4362533,5.1 L8.5,8.03625333 L5.56374667,5.1 L5.1,5.56374667 L8.03625333,8.5 L5.1,11.4362533 L5.56374667,11.9 L8.5,8.96374667 Z M8.5,17 C3.80557963,17 0,13.1944204 0,8.5 C0,3.80557963 3.80557963,0 8.5,0 C13.1944204,0 17,3.80557963 17,8.5 C17,13.1944204 13.1944204,17 8.5,17 Z" id="Combined-Shape"></path>
                    </g>
                </g>
            </g>
        </g>
    </g>
</svg>