<?xml version="1.0" encoding="UTF-8" standalone="no"?>
<svg
   xmlns:dc="http://purl.org/dc/elements/1.1/"
   xmlns:cc="http://creativecommons.org/ns#"
   xmlns:rdf="http://www.w3.org/1999/02/22-rdf-syntax-ns#"
   xmlns:svg="http://www.w3.org/2000/svg"
   xmlns="http://www.w3.org/2000/svg"
   viewBox="0 0 373.33334 48"
   height="48"
   width="373.33334"
   xml:space="preserve"
   id="svg2"
   version="1.1"><metadata
     id="metadata8"><rdf:RDF><cc:Work
         rdf:about=""><dc:format>image/svg+xml</dc:format><dc:type
           rdf:resource="http://purl.org/dc/dcmitype/StillImage" /></cc:Work></rdf:RDF></metadata><defs
     id="defs6" /><g
     transform="matrix(1.3333333,0,0,-1.3333333,0,48)"
     id="g10"><g
       transform="scale(0.1)"
       id="g12"><path
         id="path14"
         style="fill:#00aaa2;fill-opacity:1;fill-rule:nonzero;stroke:none"
         d="m 408.051,332.52 h 29.758 l 32.972,-53.051 32.93,53.051 H 533.48 V 207.051 h -27.429 v 81.91 l -35.27,-53.59 h -0.742 l -34.918,53.039 v -81.359 h -27.07 V 332.52" /><path
         id="path16"
         style="fill:#00aaa2;fill-opacity:1;fill-rule:nonzero;stroke:none"
         d="m 604.801,333.41 h 25.429 l 53.75,-126.32 h -28.82 l -11.488,28.121 H 590.621 L 579.18,207.09 h -28.129 z m 29.027,-73.82 -16.68,40.66 -16.636,-40.66 z" /><path
         id="path18"
         style="fill:#00aaa2;fill-opacity:1;fill-rule:nonzero;stroke:none"
         d="m 695.121,260.84 v 71.68 h 27.578 v -70.981 c 0,-20.43 10.231,-31.019 27.071,-31.019 16.832,0 27.07,10.242 27.07,30.121 v 71.879 h 27.609 v -70.79 c 0,-38 -21.328,-56.64 -55.039,-56.64 -33.711,0 -54.289,18.832 -54.289,55.75" /><path
         id="path20"
         style="fill:#00aaa2;fill-opacity:1;fill-rule:nonzero;stroke:none"
         d="m 832.031,207.09 h 27.5781 V 332.52 H 832.031 Z" /><path
         id="path22"
         style="fill:#00aaa2;fill-opacity:1;fill-rule:nonzero;stroke:none"
         d="m 941.129,332.52 h 27.621 v -49.649 h 50.9 v 49.649 h 27.58 V 207.051 h -27.58 v 50.347 h -50.9 V 207.051 H 941.129 V 332.52" /><path
         id="path24"
         style="fill:#00aaa2;fill-opacity:1;fill-rule:nonzero;stroke:none"
         d="m 1075.55,332.52 h 94.61 v -24.571 h -67.23 V 282.52 h 59.18 v -24.571 h -59.18 v -26.328 h 68.12 v -24.57 h -95.5 V 332.52" /><path
         id="path26"
         style="fill:#00aaa2;fill-opacity:1;fill-rule:nonzero;stroke:none"
         d="m 1236.8,333.41 h 25.47 l 53.75,-126.32 h -28.83 l -11.49,28.121 h -53.08 l -11.45,-28.121 h -28.12 z m 29.06,-73.82 -16.72,40.66 -16.64,-40.66 z" /><path
         id="path28"
         style="fill:#00aaa2;fill-opacity:1;fill-rule:nonzero;stroke:none"
         d="m 1333.55,332.52 h 27.62 V 232.16 h 62.54 v -25.109 h -90.16 V 332.52" /><path
         id="path30"
         style="fill:#00aaa2;fill-opacity:1;fill-rule:nonzero;stroke:none"
         d="m 1453.98,307.051 h -38.16 v 25.469 h 103.91 v -25.469 h -38.17 V 207.09 h -27.58 v 99.961" /><path
         id="path32"
         style="fill:#00aaa2;fill-opacity:1;fill-rule:nonzero;stroke:none"
         d="m 1539.1,332.52 h 27.62 v -49.649 h 50.9 v 49.649 h 27.58 V 207.051 h -27.58 v 50.347 h -50.9 V 207.051 H 1539.1 V 332.52" /><path
         id="path34"
         style="fill:#00aaa2;fill-opacity:1;fill-rule:nonzero;stroke:none"
         d="m 1716.88,225.328 16.28,19.531 c 11.29,-9.3 23.13,-15.199 37.46,-15.199 11.29,0 18.09,4.461 18.09,11.801 v 0.391 c 0,6.957 -4.3,10.546 -25.27,15.937 -25.28,6.441 -41.56,13.441 -41.56,38.359 v 0.352 c 0,22.73 18.28,37.77 43.9,37.77 18.24,0 33.87,-5.7 46.56,-15.93 l -14.29,-20.781 c -11.14,7.691 -22.07,12.382 -32.62,12.382 -10.59,0 -16.13,-4.851 -16.13,-10.941 v -0.352 c 0,-8.277 5.39,-10.937 27.07,-16.488 25.43,-6.64 39.76,-15.781 39.76,-37.648 v -0.352 c 0,-24.89 -18.98,-38.871 -46.05,-38.871 -18.99,0 -38.17,6.602 -53.2,20.039" /><path
         id="path36"
         style="fill:#00aaa2;fill-opacity:1;fill-rule:nonzero;stroke:none"
         d="m 1868.28,256.539 -48.2,75.981 h 32.22 l 29.97,-50.36 30.43,50.36 h 31.36 l -48.2,-75.469 V 207.09 h -27.58 v 49.449" /><path
         id="path38"
         style="fill:#00aaa2;fill-opacity:1;fill-rule:nonzero;stroke:none"
         d="m 1944.61,225.328 16.29,19.531 c 11.29,-9.3 23.12,-15.199 37.5,-15.199 11.29,0 18.05,4.461 18.05,11.801 v 0.391 c 0,6.957 -4.26,10.546 -25.24,15.937 -25.27,6.441 -41.56,13.441 -41.56,38.359 v 0.352 c 0,22.73 18.24,37.77 43.87,37.77 18.28,0 33.86,-5.7 46.6,-15.93 l -14.34,-20.781 c -11.13,7.691 -22.03,12.382 -32.62,12.382 -10.54,0 -16.13,-4.851 -16.13,-10.941 v -0.352 c 0,-8.277 5.39,-10.937 27.07,-16.488 25.43,-6.64 39.81,-15.781 39.81,-37.648 v -0.352 c 0,-24.89 -19.03,-38.871 -46.1,-38.871 -18.98,0 -38.12,6.602 -53.2,20.039" /><path
         id="path40"
         style="fill:#00aaa2;fill-opacity:1;fill-rule:nonzero;stroke:none"
         d="m 2092.62,307.051 h -38.17 v 25.469 h 103.95 v -25.469 h -38.2 V 207.09 h -27.58 v 99.961" /><path
         id="path42"
         style="fill:#00aaa2;fill-opacity:1;fill-rule:nonzero;stroke:none"
         d="m 2177.73,332.52 h 94.61 v -24.571 h -67.18 V 282.52 h 59.14 v -24.571 h -59.14 v -26.328 h 68.08 v -24.57 h -95.51 V 332.52" /><path
         id="path44"
         style="fill:#00aaa2;fill-opacity:1;fill-rule:nonzero;stroke:none"
         d="m 2296.02,332.52 h 29.72 l 32.97,-53.051 33.01,53.051 h 29.73 V 207.051 h -27.43 v 81.91 l -35.31,-53.59 h -0.7 l -34.96,53.039 v -81.359 h -27.03 V 332.52" /><path
         id="path46"
         style="fill:none;stroke:#d6cfc6;stroke-width:4.80000019;stroke-linecap:butt;stroke-linejoin:miter;stroke-miterlimit:4;stroke-dasharray:none;stroke-opacity:1"
         d="M 408.051,154.074 H 2759.77" /><path
         id="path48"
         style="fill:#595c60;fill-opacity:1;fill-rule:nonzero;stroke:none"
         d="m 455.469,46.5391 c -3.828,-5.5078 -10.078,-8.4805 -17.188,-8.4805 -14.761,0 -24.101,11.4102 -24.101,25.7812 0,14.0313 9.492,25.711 24.371,25.711 6.609,0 12.859,-3.1719 15.898,-7.5 l 7.071,5.4297 c -4.68,6.5195 -14.219,9.9179 -22.969,9.9179 -19.492,0 -34.141,-13.5586 -34.141,-33.5586 0,-19.7187 14.11,-33.75 33.75,-33.75 11.25,0 19.461,4.8086 24.461,11.5704 z m 58.16,6.7226 c 0,13.1992 -10,22.5391 -23.117,22.5391 -13.172,0 -23.09,-9.3399 -23.09,-22.5391 0,-13.2422 9.918,-22.7031 23.09,-22.7031 13.117,0 23.117,9.4609 23.117,22.7031 m -8.828,0 c 0,-8.1719 -5.071,-15.5898 -14.289,-15.5898 -9.141,0 -14.34,7.4179 -14.34,15.5898 0,8.1602 5.199,15.4688 14.34,15.4688 9.218,0 14.289,-7.3086 14.289,-15.4688 m 28.949,14.2969 h -0.27 c 0,1.793 -0.199,4.8828 -0.359,7.0312 h -8.043 c 0.274,-2.7812 0.352,-6.9179 0.352,-9.2187 V 31.7305 h 8.48 v 22.7812 c 0,8.5078 4.719,14.1367 10.969,14.1367 6.801,0 9.07,-4.6875 9.07,-11.4101 V 31.7305 h 8.473 v 23.1679 c 0,6.6797 3.09,13.75 10.898,13.75 7.418,0 9.489,-6.1679 9.489,-13.1289 v -23.789 h 8.48 v 26.6093 c 0,9.5704 -4.961,17.461 -15.98,17.461 -6.09,0 -11.719,-3.0899 -14.571,-8.6016 -2.648,6.0625 -7.617,8.6016 -13.316,8.6016 -6.524,0 -11.481,-3.711 -13.672,-8.2422 m 80.27,0 h -0.27 c 0,1.793 -0.199,4.8828 -0.352,7.0312 h -8.046 c 0.269,-2.7812 0.347,-6.9179 0.347,-9.2187 V 31.7305 h 8.481 v 22.7812 c 0,8.5078 4.73,14.1367 10.98,14.1367 6.789,0 9.059,-4.6875 9.059,-11.4101 V 31.7305 h 8.48 v 23.1679 c 0,6.6797 3.082,13.75 10.852,13.75 7.469,0 9.539,-6.1679 9.539,-13.1289 v -23.789 h 8.469 v 26.6093 c 0,9.5704 -4.957,17.461 -15.969,17.461 -6.102,0 -11.68,-3.0899 -14.61,-8.6016 -2.621,6.0625 -7.582,8.6016 -13.281,8.6016 -6.527,0 -11.527,-3.711 -13.679,-8.2422 M 724.262,31.7305 c -0.282,2.7812 -0.352,6.9609 -0.352,9.2187 v 33.6797 h -8.519 V 51.8086 c 0,-8.5078 -4.731,-14.1367 -11.481,-14.1367 -7.89,0 -9.808,6.1679 -9.808,13.2383 v 23.6796 h -8.481 V 48.0195 c 0,-9.6093 4.969,-17.4609 16.02,-17.4609 6.25,0 11.839,3.7109 14.019,8.2109 h 0.199 c 0,-1.8007 0.161,-4.8906 0.352,-7.039 z m 14.019,42.8593 c 0.27,-2.7812 0.348,-6.9179 0.348,-9.2187 V 31.7305 h 8.519 v 22.7812 c 0,8.5078 4.801,14.1367 11.481,14.1367 7.891,0 9.812,-6.1679 9.812,-13.1289 v -23.789 h 8.469 v 26.6093 c 0,9.5704 -4.961,17.461 -16.012,17.461 -6.128,0 -11.839,-3.6406 -13.91,-8.2422 h -0.308 c 0,1.793 -0.16,4.8828 -0.352,7.0312 z m 61.641,0.0391 h -8.51172 V 31.7305 h 8.51172 z m 1.449,15.4609 c 0,3.1719 -2.66,5.5118 -5.711,5.5118 -3.082,0 -5.621,-2.4219 -5.621,-5.5118 0,-3 2.539,-5.4296 5.621,-5.4296 3.051,0 5.711,2.3515 5.711,5.4296 m 34.367,-15.5 H 824.34 v 12.3399 h -8.399 V 74.5898 h -8.242 v -6.9179 h 8.242 V 44.3906 c 0,-8.8711 4.411,-13.4023 12.5,-13.4023 2.61,0 5.231,0.4726 7.219,1.1719 l -0.269,6.9609 c -1.442,-0.7109 -3.442,-1.0625 -5,-1.0625 -4.262,0 -6.051,2.0703 -6.051,7.2305 v 22.3828 h 11.398 z m 11.801,0 h -9.527 l 18.398,-42.8593 -2.738,-7.1797 c -1.793,-4.6094 -3.512,-7.1524 -7.973,-7.1524 -1.359,0 -2.89,0.2735 -4.25,0.7422 l -0.828,-7.5 c 1.918,-0.4687 3.828,-0.6211 5.629,-0.6211 8.441,0 12.031,4.4102 14.84,11.5586 l 20.82,53.0117 h -9.058 L 861.02,40.9492 h -0.2 z m 73.91,-6.4882 V 100.129 H 912.93 V 31.7305 h 8.519 v 22.6992 c 0,8.5195 4.879,14.1406 11.602,14.1406 7.89,0 9.679,-6.1719 9.679,-13.1211 V 31.7305 h 8.481 v 26.6093 c 0,9.5704 -4.961,17.461 -16.012,17.461 -6.14,0 -11.57,-3.4414 -13.558,-7.6992 z m 87.611,-14.8399 c 0,13.1992 -10.04,22.5391 -23.162,22.5391 -13.128,0 -23.089,-9.3399 -23.089,-22.5391 0,-13.2422 9.961,-22.7031 23.089,-22.7031 13.122,0 23.162,9.4609 23.162,22.7031 m -8.86,0 c 0,-8.1719 -5.079,-15.5898 -14.302,-15.5898 -9.136,0 -14.296,7.4179 -14.296,15.5898 0,8.1602 5.16,15.4688 14.296,15.4688 9.223,0 14.302,-7.3086 14.302,-15.4688 m 49.68,15.4688 c -3.08,4.6093 -9.49,7.0703 -15.58,7.0703 -8.13,0 -16.18,-3.9102 -16.18,-13.1289 0,-8.043 6.76,-10.5117 12.47,-11.8711 7.34,-1.7227 11.25,-3.1719 11.25,-7.1524 0,-4.6875 -4.26,-6.25 -8.52,-6.25 -4.8,0 -9.14,2.6211 -11.41,5.9805 l -6.05,-5.1601 c 4.06,-5.1602 10.74,-7.6602 17.26,-7.6602 8.72,0 17.11,3.7109 17.11,13.832 0,7.5 -6.25,10.8594 -14.37,12.6602 -6.52,1.4375 -9.81,2.8086 -9.81,6.4375 0,4.0703 4.11,5.5898 7.97,5.5898 4.38,0 8.09,-2.2265 9.96,-5.3086 z m 19.61,-30.5899 h 0.28 c 3.2,-4.8008 9.06,-7.582 15.11,-7.582 13.24,0 21.64,10.1211 21.64,22.7031 0,12.6875 -8.67,22.5391 -21.44,22.5391 -7.07,0 -12.66,-3.3594 -15.47,-7.8906 h -0.27 v 6.6796 h -8.32 V 10.0195 h 8.47 z m 28.28,15.1211 c 0,-8.0508 -5,-15.5898 -14.33,-15.5898 -8.67,0 -14.46,7.2695 -14.46,15.5078 0,8.2422 5.79,15.5508 14.46,15.5508 9.33,0 14.33,-7.4219 14.33,-15.4688 m 29.22,21.3672 h -8.51 V 31.7305 h 8.51 z m 1.45,15.4609 c 0,3.1719 -2.66,5.5118 -5.71,5.5118 -3.08,0 -5.58,-2.4219 -5.58,-5.5118 0,-3 2.5,-5.4296 5.58,-5.4296 3.05,0 5.71,2.3515 5.71,5.4296 m 34.37,-15.5 h -11.4 v 12.3399 h -8.4 V 74.5898 h -8.24 v -6.9179 h 8.24 V 44.3906 c 0,-8.8711 4.41,-13.4023 12.5,-13.4023 2.61,0 5.23,0.4726 7.22,1.1719 l -0.27,6.9609 c -1.44,-0.7109 -3.44,-1.0625 -5,-1.0625 -4.26,0 -6.05,2.0703 -6.05,7.2305 v 22.3828 h 11.4 z m 35.47,-16.289 c -14.45,0 -29.84,-1.5313 -29.84,-14.461 0,-9.8789 8.79,-13.1992 15.54,-13.1992 6.45,0 11.33,2.6211 14.42,7.2305 h 0.27 c 0,-1.9922 0.28,-4.2617 0.71,-6.1406 h 7.69 c -0.47,2.0781 -0.62,5.5898 -0.62,8.4804 v 18.75 c 0,9.4883 -5.63,16.8399 -17.93,16.8399 -6.96,0 -13.4,-2.461 -17.54,-6.4102 l 4.53,-5.4687 c 2.89,2.9297 7.38,5 12.19,5 6.36,0 10.58,-3.0821 10.58,-9.4102 z m 0,-6.1406 v -2.2618 c 0,-7.2265 -4.41,-12.5781 -12.38,-12.5781 -4.26,0 -8.79,1.6406 -8.79,6.7188 0,7.2304 10.7,8.1211 19.1,8.1211 z m 31.06,47.9688 h -8.5195 V 31.7306 h 8.5195 z m 43.9,-31.3985 c -3.08,4.6093 -9.49,7.0703 -15.58,7.0703 -8.13,0 -16.18,-3.9102 -16.18,-13.1289 0,-8.043 6.76,-10.5117 12.47,-11.8711 7.34,-1.7227 11.25,-3.1719 11.25,-7.1524 0,-4.6875 -4.26,-6.25 -8.52,-6.25 -4.8,0 -9.14,2.6211 -11.41,5.9805 l -6.05,-5.1601 c 4.06,-5.1602 10.74,-7.6602 17.26,-7.6602 8.72,0 17.11,3.7109 17.11,13.832 0,7.5 -6.25,10.8594 -14.37,12.6602 -6.52,1.4375 -9.81,2.8086 -9.81,6.4375 0,4.0703 4.11,5.5898 7.97,5.5898 4.38,0 8.09,-2.2265 9.96,-5.3086 z m 60.43,-10.4297 c -14.45,0 -29.84,-1.5313 -29.84,-14.461 0,-9.8789 8.79,-13.1992 15.55,-13.1992 6.44,0 11.32,2.6211 14.41,7.2305 h 0.27 c 0,-1.9922 0.28,-4.2617 0.71,-6.1406 h 7.69 c -0.47,2.0781 -0.62,5.5898 -0.62,8.4804 v 18.75 c 0,9.4883 -5.63,16.8399 -17.93,16.8399 -6.96,0 -13.4,-2.461 -17.54,-6.4102 l 4.53,-5.4687 c 2.89,2.9297 7.38,5 12.19,5 6.36,0 10.58,-3.0821 10.58,-9.4102 z m 0,-6.1406 v -2.2618 c 0,-7.2265 -4.41,-12.5781 -12.38,-12.5781 -4.26,0 -8.79,1.6406 -8.79,6.7188 0,7.2304 10.7,8.1211 19.1,8.1211 z m 42.54,22.4296 h -9.96 v 8.9805 c 0,5.2695 1.17,10.3086 7.62,10.3086 1.64,0 2.97,-0.2695 4.25,-0.6172 l 0.98,7.3403 c -1.64,0.429 -3.32,0.628 -5.31,0.628 -11.6,0 -16.02,-7.6206 -16.02,-17.6597 v -8.9805 h -8.51 v -6.9179 h 8.51 V 31.7305 h 8.48 v 35.9414 h 9.96 z m 26.17,0 h -9.96 v 8.9805 c 0,5.2695 1.17,10.3086 7.62,10.3086 1.6,0 2.97,-0.2695 4.26,-0.6172 l 0.97,7.3403 c -1.64,0.429 -3.36,0.628 -5.35,0.628 -11.56,0 -16.01,-7.6206 -16.01,-17.6597 v -8.9805 h -8.52 v -6.9179 h 8.52 V 31.7305 h 8.51 v 35.9414 h 9.96 z m 16.92,0 h -8.5195 V 31.7304 h 8.5195 z m 1.44,15.5 c 0,3.1719 -2.62,5.5118 -5.7,5.5118 -3.05,0 -5.59,-2.4219 -5.59,-5.5118 0,-3 2.54,-5.4296 5.59,-5.4296 3.08,0 5.7,2.3515 5.7,5.4296 m 22.07,10.0392 h -8.47 V 31.7305 h 8.47 z m 23.48,-25.5001 h -8.5195 V 31.7305 h 8.5195 z m 1.41,15.4609 c 0,3.1719 -2.62,5.5118 -5.67,5.5118 -3.08,0 -5.62,-2.4219 -5.62,-5.5118 0,-3 2.54,-5.4296 5.62,-5.4296 3.05,0 5.67,2.3515 5.67,5.4296 m 40.11,-31.789 c -14.49,0 -29.84,-1.5313 -29.84,-14.461 0,-9.8789 8.75,-13.1992 15.55,-13.1992 6.4,0 11.32,2.6211 14.37,7.2305 h 0.27 c 0,-1.9922 0.28,-4.2617 0.75,-6.1406 h 7.65 c -0.43,2.0781 -0.62,5.5898 -0.62,8.4804 v 18.75 c 0,9.4883 -5.59,16.8399 -17.89,16.8399 -7,0 -13.4,-2.461 -17.58,-6.4102 l 4.53,-5.4687 c 2.89,2.9297 7.42,5 12.23,5 6.32,0 10.58,-3.0821 10.58,-9.4102 z m 0,-6.1406 v -2.2618 c 0,-7.2265 -4.41,-12.5781 -12.42,-12.5781 -4.22,0 -8.75,1.6406 -8.75,6.7188 0,7.2304 10.66,8.1211 19.1,8.1211 z m 42.42,22.4296 h -11.36 v 12.3399 h -8.44 V 74.5898 h -8.2 v -6.9179 h 8.2 V 44.3906 c 0,-8.8711 4.45,-13.4023 12.5,-13.4023 2.62,0 5.23,0.4726 7.23,1.1719 l -0.28,6.9609 c -1.44,-0.7109 -3.43,-1.0625 -4.96,-1.0625 -4.26,0 -6.05,2.0703 -6.05,7.2305 v 22.3828 h 11.36 z m 14.69,-17.621 c 0.55,6.6796 6.13,12.1093 13.48,12.1093 7.89,0 11.87,-5.3086 12.07,-12.1093 z m 34.1,-3.4375 c 0,13.6679 -7.93,22.2695 -20.62,22.2695 -12.58,0 -22.15,-9.3399 -22.15,-22.7422 0,-13.4688 9.57,-22.5 22.62,-22.5 7.58,0 13.83,2.7812 18.43,8.75 l -5.93,4.8125 c -2.46,-3.6406 -6.72,-6.5313 -12.5,-6.5313 -7.54,0 -13.67,5.711 -13.95,13.0508 h 34.03 c 0.07,0.9805 0.07,1.9883 0.07,2.8907 m 46.1,-15.043 h 0.15 v -6.7578 h 8.25 v 68.3985 h -8.48 V 68.1797 h -0.2 c -2.96,4.1797 -8.32,7.6211 -15.31,7.6211 -12.85,0 -21.52,-9.8516 -21.52,-22.5391 0,-12.582 8.4,-22.7031 21.64,-22.7031 6.05,0 12.23,2.7812 15.47,7.9297 m -28.24,14.7734 c 0,8.0469 4.88,15.4688 14.21,15.4688 8.68,0 14.46,-7.3086 14.46,-15.5508 0,-8.2383 -5.78,-15.5078 -14.46,-15.5078 -9.33,0 -14.21,7.539 -14.21,15.5898 m 68.04,21.3281 14.3,-42.8593 h 8.87 l 10.5,32.2304 h 0.2 l 10.59,-32.2304 h 8.86 l 14.18,42.8593 h -8.94 l -9.69,-32.7382 h -0.2 l -10.39,32.7382 h -8.94 l -10.24,-32.7382 h -0.19 l -9.69,32.7382 z m 84.61,0.0391 h -8.4805 V 31.7305 h 8.4805 z m 1.45,15.4609 c 0,3.1719 -2.62,5.5118 -5.71,5.5118 -3.04,0 -5.58,-2.4219 -5.58,-5.5118 0,-3 2.54,-5.4296 5.58,-5.4296 3.09,0 5.71,2.3515 5.71,5.4296 m 34.41,-15.5 h -11.41 v 12.3399 h -8.39 V 74.5898 h -8.25 v -6.9179 h 8.25 V 44.3906 c 0,-8.8711 4.41,-13.4023 12.46,-13.4023 2.61,0 5.23,0.4726 7.22,1.1719 l -0.27,6.9609 c -1.45,-0.7109 -3.44,-1.0625 -4.96,-1.0625 -4.26,0 -6.06,2.0703 -6.06,7.2305 v 22.3828 h 11.41 z m 17.46,-6.4882 v 32.0274 h -8.47 V 31.7305 h 8.47 v 22.6992 c 0,8.5195 4.88,14.1406 11.56,14.1406 7.89,0 9.69,-6.1719 9.69,-13.1211 V 31.7305 h 8.52 v 26.6093 c 0,9.5704 -4.96,17.461 -16.02,17.461 -6.13,0 -11.56,-3.4414 -13.59,-7.6992 h -0.16" /><path
         id="path50"
         style="fill:#595c60;fill-opacity:1;fill-rule:nonzero;stroke:none"
         d="m 2006.6,31.3789 h 11.5977 V 98.4883 H 2006.6 Z" /><path
         id="path52"
         style="fill:#595c60;fill-opacity:1;fill-rule:nonzero;stroke:none"
         d="m 1965.51,98.4883 -19.69,-56.9102 -19.18,24.1836 25.59,32.7266 h -13.36 l -23.71,-31.8281 v 31.8281 h -11.61 V 31.3789 h 11.61 v 33.0899 l 24.57,-33.0899 h 2.57 v -0.0703 h 11.33 l 6.21,19.4102 h 24.61 l 6.45,-19.3399 h 12.11 l -23.17,67.1094 z m -2.66,-38.3985 8.91,27.7813 h 0.27 l 9.3,-27.7813 h -18.48" /><path
         id="path54"
         style="fill:#595c60;fill-opacity:1;fill-rule:nonzero;stroke:none"
         d="m 2394.14,49.9414 -11.6,48.6289 h -20.27 V 31.4609 h 11.36 v 57.2305 l 14.73,-57.2305 h 11.6 c 0.16,0 14.65,57.1094 14.65,57.1094 V 31.4609 h 11.29 v 67.1094 h -19.81 l -11.95,-48.6289" /><path
         id="path56"
         style="fill:#595c60;fill-opacity:1;fill-rule:nonzero;stroke:none"
         d="M 2455.04,98.5703 2431.8,31.3789 h 11.32 l 6.22,19.4219 h 24.64 l 6.49,-19.4219 h 12.11 l -23.24,67.1914 z m -2.7,-38.3984 8.95,27.7773 h 0.23 l 9.34,-27.7773 h -18.52" /><path
         id="path58"
         style="fill:#595c60;fill-opacity:1;fill-rule:nonzero;stroke:none"
         d="m 2539.61,46.7695 -26.68,51.8399 -15.27,-0.0781 0.04,-67.0704 h 10.93 v 50.5508 l 26.33,-50.5508 h 15.78 v 67.1485 h -11.13 V 46.7695" /><path
         id="path60"
         style="fill:#595c60;fill-opacity:1;fill-rule:nonzero;stroke:none"
         d="m 2759.14,41.2305 h -27.54 v 18.9414 h 20.35 v 9.7265 h -20.35 v 18.9805 c 2.62,-0.0391 25.2,0 25.2,0 v 9.7305 c -6.88,0.039 -36.68,-0.0391 -36.68,-0.0391 V 31.4219 l 39.02,-0.043 v 9.8516" /><path
         id="path62"
         style="fill:#595c60;fill-opacity:1;fill-rule:nonzero;stroke:none"
         d="m 2653.52,98.6094 h 0.03 -2.1 V 46.2305 l -26.68,52.3398 h -15.28 V 41.2305 h -35.19 v 18.9414 h 20.39 v 9.7265 h -20.39 v 18.9805 c 2.65,-0.0703 25.15,0 25.15,0 v 9.7305 c -6.79,0.039 -36.6,-0.0391 -36.6,-0.0391 l -0.04,-67.1484 56.76,0.039 h 0.9 v 51.1289 l 26.25,-51.1289 h 15.9 v 56.9883 h 20.35 V 31.3789 h 11.6 v 57.0703 h 19.88 l -0.07,10.1602 h -60.86" /><path
         id="path64"
         style="fill:#595c60;fill-opacity:1;fill-rule:nonzero;stroke:none"
         d="m 2345.51,65.2109 c 3.59,3.168 6.37,8.0899 6.37,14.3008 0,6.2071 -2.62,11.0078 -6.26,14.1797 -4.06,3.5469 -9.72,4.8789 -19.45,4.8789 h -19.45 V 41.2305 h -35.47 v 18.9414 h 20.39 v 9.7265 h -20.39 v 18.9805 c 2.7,-0.0703 25.23,0 25.23,0 v 9.7305 c -6.83,0.039 -36.71,-0.0391 -36.71,-0.0391 V 31.4219 l 58.59,0.039 v 28.5196 h 5.74 c 5.31,-8.4024 16.64,-28.6407 16.64,-28.6407 h 13.83 l -18.05,29.5704 c 3.83,0.8593 6.64,2.2695 8.99,4.3007 m -27.15,4.5704 v 18.9492 h 9.76 c 8.79,0 12.35,-3.4805 12.35,-9.3399 0,-6.4414 -3.52,-9.6093 -12.35,-9.6093 h -9.76" /><path
         id="path66"
         style="fill:#595c60;fill-opacity:1;fill-rule:nonzero;stroke:none"
         d="m 2162.58,65.2109 c 3.63,3.168 6.37,8.0899 6.37,14.3008 0,6.2071 -2.62,11.0078 -6.25,14.1797 -4.07,3.5469 -9.73,4.8789 -19.42,4.8789 h -19.49 V 70.2109 h -0.04 V 41.2305 h -35.35 v 18.9414 h 20.35 v 9.7265 h -20.35 v 18.9805 c 2.62,-0.0703 25.15,0 25.15,0 v 9.7305 c -6.79,0.039 -36.67,-0.0391 -36.67,-0.0391 V 31.4219 l 58.55,0.039 v 28.5196 h 5.78 c 5.27,-8.4024 16.6,-28.6407 16.6,-28.6407 h 13.83 l -18.05,29.5704 c 3.87,0.8593 6.68,2.2695 8.99,4.3007 m -27.15,4.5704 v 18.9492 h 9.8 c 8.79,0 12.35,-3.4805 12.35,-9.3399 0,-6.4414 -3.52,-9.6093 -12.35,-9.6093 h -9.8" /><path
         id="path68"
         style="fill:#595c60;fill-opacity:1;fill-rule:nonzero;stroke:none"
         d="m 2246.37,93.4883 c -4.07,3.5625 -9.81,5.082 -19.46,5.082 h -19.49 V 31.3789 h 11.64 v 27.6602 h 7.85 c 9.65,0 15.32,1.6797 19.34,5.1914 3.63,3.1679 6.33,8.4414 6.33,14.6484 0,6.2109 -2.62,11.4922 -6.21,14.6094 m -17.5,-24.6485 h -9.81 v 19.8907 h 9.81 c 8.75,0 12.3,-3.9102 12.3,-9.8086 0,-6.0938 -3.98,-10.0821 -12.3,-10.0821" /><path
         id="path70"
         style="fill:#595c60;fill-opacity:1;fill-rule:nonzero;stroke:none"
         d="m 2052.03,70.6016 c -9.14,3.3593 -13.48,5.8593 -13.48,11.1289 0,4.0703 4.11,8.6797 12.19,8.6797 5.86,0 11.6,-2.0313 14.46,-3.5196 v 9.6485 c -2.97,1.4414 -8.56,3.1211 -14.22,3.1211 -14.38,0 -24.26,-8.1211 -24.26,-19.0196 0,-9.6914 7.42,-15.5508 18.67,-19.4101 8.75,-3.0899 12.42,-6.1719 12.42,-11.3711 0,-5.6992 -4.76,-9.6485 -12.77,-9.6485 -6.37,0 -14.3,2.1094 -18.36,4.8477 V 34.6602 c 3.91,-2.1797 10.82,-3.9805 17.54,-3.9805 17.3,0 25.51,9.3789 25.51,20 0,9.8008 -5.98,15.5508 -17.7,19.9219" /><path
         id="path72"
         style="fill:#595c60;fill-opacity:1;fill-rule:nonzero;stroke:none"
         d="m 2769.77,43.3008 c 0,6.4375 4.84,11.289 11.05,11.289 6.17,0 11.02,-4.8515 11.02,-11.289 0,-6.5313 -4.85,-11.332 -11.02,-11.332 -6.21,0 -11.05,4.8007 -11.05,11.332 m 11.05,-13.6406 c 7.42,0 13.71,5.75 13.71,13.6406 0,7.8086 -6.29,13.5508 -13.71,13.5508 -7.5,0 -13.79,-5.7422 -13.79,-13.5508 0,-7.8906 6.29,-13.6406 13.79,-13.6406 m -2.85,12.539 h 2.73 l 4.1,-6.789 h 2.66 l -4.45,6.9101 c 2.3,0.2695 4.06,1.4883 4.06,4.3008 0,3.1172 -1.84,4.4883 -5.51,4.4883 h -5.97 V 35.4102 h 2.38 z m 0,2.0313 v 4.8476 h 3.2 c 1.64,0 3.44,-0.3476 3.44,-2.3086 0,-2.3789 -1.84,-2.539 -3.79,-2.539 h -2.85" /><path
         id="path74"
         style="fill:#00aaa2;fill-opacity:1;fill-rule:nonzero;stroke:none"
         d="m 323.012,286.191 c -4.102,4.797 -8.442,9.45 -13.133,13.789 -31.289,29.059 -74.098,44.719 -117.149,42.731 -40.07,-1.762 -76.359,-18.481 -102.1402,-46.992 -23.9882,-26.52 -36.4492,-62.34 -34.2617,-98.278 2.0313,-32.812 16.25,-62.23 40.0821,-82.812 C 118.32,95.7188 147.5,86.3398 176.41,88.9219 c 25.621,2.2695 48.238,13.9491 63.711,32.9301 13.668,16.796 20.188,39.648 17.418,61.058 -1.68,12.969 -7.461,31.168 -25.551,44.328 -12.027,8.75 -28.359,12.352 -42.648,9.383 -7.738,-1.601 -18.32,-5.941 -25.039,-17.351 -3.91,-6.641 -4.852,-16.559 -2.153,-23.2 0.704,-1.761 1.524,-3.011 2.461,-3.91 0.621,4.219 2.692,8.25 6.129,11.328 7.891,7.032 20,6.41 27.071,-1.476 8.871,-9.922 10.312,-22.621 3.75,-33.133 -8.707,-14.059 -29.758,-19.649 -43.118,-15.899 -14.691,4.071 -25.98,14.301 -31.839,28.75 -7.114,17.7 -5.313,40.04 4.687,56.961 10.781,18.36 28.59,30.938 50.231,35.43 24.929,5.149 52.23,-0.781 73.05,-15.902 22.7,-16.559 37.231,-41.559 40.942,-70.391 C 299.609,156.191 290,122.48 269.801,97.6719 247.77,70.6016 215.82,53.9219 179.77,50.7617 140.551,47.2383 101.051,60.0195 71.3711,85.6406 39.6914,113.02 20.7383,151.891 18.0898,195.059 c -2.8203,46.171 13.2383,92.222 44.0586,126.32 12.0313,13.32 25.8633,24.57 41.0116,33.641 L 0,355.02 V 32.0117 H 323.012 V 286.191" /></g></g></svg>