<?xml version="1.0" encoding="UTF-8" standalone="no"?>
<svg width="18px" height="18px" viewBox="0 0 18 18" version="1.1" xmlns="http://www.w3.org/2000/svg" xmlns:xlink="http://www.w3.org/1999/xlink">
    <!-- Generator: Sketch 46.2 (44496) - http://www.bohemiancoding.com/sketch -->
    <title>Shape</title>
    <desc>Created with Sketch.</desc>
    <defs></defs>
    <g id="Page-1" stroke="none" stroke-width="1" fill="none" fill-rule="evenodd" opacity="0.649720149">
        <g id="ic_exit_to_app_black_18px-copy-4" transform="translate(-1.000000, -3.000000)" fill="#5F6480">
            <path d="M8.09,15.59 L9.5,17 L14.5,12 L9.5,7 L8.09,8.41 L10.67,11 L1,11 L1,13 L10.67,13 L8.09,15.59 Z M17,3 L3,3 C1.89,3 1,3.9 1,5 L1,9 L3,9 L3,5 L17,5 L17,19 L3,19 L3,15 L1,15 L1,19 C1,20.1 1.89,21 3,21 L17,21 C18.1,21 19,20.1 19,19 L19,5 C19,3.9 18.1,3 17,3 Z" id="Shape"></path>
        </g>
    </g>
</svg>