<?xml version="1.0" encoding="UTF-8"?>
<svg width="64px" height="64px" viewBox="0 0 64 64" version="1.1" xmlns="http://www.w3.org/2000/svg" xmlns:xlink="http://www.w3.org/1999/xlink">
    <!-- Generator: Sketch 43.1 (39012) - http://www.bohemiancoding.com/sketch -->
    <title>Contact Pharmacist</title>
    <desc>Created with Sketch.</desc>
    <defs></defs>
    <g id="•-Icons" stroke="none" stroke-width="1" fill="none" fill-rule="evenodd">
        <g id="08_Messages" transform="translate(-606.000000, -350.000000)">
            <g id="Contact-Pharmacist" transform="translate(569.000000, 350.000000)">
                <g transform="translate(37.000000, 0.000000)">
                    <g id="New---Secondary---PaleBlue" fill="#F0F7FA">
                        <path d="M32,64 C49.673112,64 64,49.673112 64,32 C64,14.326888 49.673112,0 32,0 C14.326888,0 0,14.326888 0,32 C0,49.673112 14.326888,64 32,64 Z"></path>
                    </g>
                    <g id="RX" transform="translate(20.000000, 17.000000)" fill="#4A7628">
                        <path d="M4.94431993,4.18110714 L8.17551116,4.18110714 C9.98280601,4.18110714 12.0116683,4.53083607 12.0116683,6.78017961 C12.0116683,9.2185071 9.66566052,9.28584621 7.85945178,9.28584621 L4.94431993,9.28584621 L4.94431993,4.18110714 Z M19.0171081,21.0864824 L24.0273552,13.9268143 L18.7336321,13.9268143 L16.1030623,18.1072698 L12.3755167,12.9460527 C15.4915798,12.3497758 17.1446463,9.92230942 17.1446463,6.81276305 C17.1446463,1.5842069 13.278078,-0.000434445879 8.68381283,-0.000434445879 L0.000325834409,-0.000434445879 L0.000325834409,22.436523 L4.94431993,22.436523 L4.94431993,13.4706461 L7.1958357,13.4706461 L12.9033684,21.0864824 L6.81786779,29.3246624 L12.3635694,29.3246624 L15.9759869,24.1949427 L19.3342535,29.3246624 L24.9462082,29.3246624 L19.0171081,21.0864824 Z" id="Fill-1"></path>
                    </g>
                </g>
            </g>
        </g>
    </g>
</svg>