<?xml version="1.0" encoding="UTF-8"?>
<svg width="64px" height="64px" viewBox="0 0 64 64" version="1.1" xmlns="http://www.w3.org/2000/svg" xmlns:xlink="http://www.w3.org/1999/xlink">
    <!-- Generator: Sketch 43.1 (39012) - http://www.bohemiancoding.com/sketch -->
    <title>Doctors office</title>
    <desc>Created with Sketch.</desc>
    <defs></defs>
    <g id="•-Icons" stroke="none" stroke-width="1" fill="none" fill-rule="evenodd">
        <g id="08_Messages" transform="translate(-222.000000, -349.000000)">
            <g id="Doctors-office" transform="translate(203.000000, 349.000000)">
                <g transform="translate(19.000000, 0.000000)">
                    <g id="New---Secondary---PaleBlue" fill="#F0F7FA">
                        <path d="M32,64 C49.673112,64 64,49.673112 64,32 C64,14.326888 49.673112,0 32,0 C14.326888,0 0,14.326888 0,32 C0,49.673112 14.326888,64 32,64 Z"></path>
                    </g>
                    <g id="Stethoscope" transform="translate(15.000000, 16.000000)" fill="#4A7628">
                        <path d="M4.9013641,17.9979523 C3.58716531,17.9979523 2.51908012,19.0660375 2.51908012,20.3766521 C2.51908012,21.6872667 3.58716531,22.7529625 4.9013641,22.7529625 C6.20958925,22.7529625 7.27647972,21.6872667 7.27647972,20.3766521 C7.27647972,19.0660375 6.20958925,17.9979523 4.9013641,17.9979523 M14.504573,32.2582039 C10.1748854,32.2582039 7.19165416,29.8914513 5.62536815,25.220072 C5.38761765,25.2559138 5.14747769,25.27264 4.9013641,25.27264 C2.19769878,25.27264 0.000597363083,23.077928 0.000597363083,20.3766521 C0.000597363083,17.6753763 2.19769878,15.4782748 4.9013641,15.4782748 C7.59905578,15.4782748 9.7961572,17.6753763 9.7961572,20.3766521 C9.7961572,21.926212 9.07215314,23.3108996 7.94433164,24.2081389 C9.52256491,29.1507211 12.42336,29.7385264 14.504573,29.7385264 C16.6825588,29.7385264 18.2811024,29.2056785 19.2571937,28.1495406 C19.9262404,27.4327049 20.1986379,26.5713073 20.3061633,25.9297394 C15.6240314,24.5127941 10.5177718,16.0768327 10.5177718,9.10082657 C10.5177718,5.34341278 11.7567028,3.94319371 14.9275061,2.29686105 C14.9525953,1.84883874 15.2190193,1.43785294 15.6407576,1.23594422 L17.9597211,0.126043611 C18.3002181,-0.0376338742 18.6968671,-0.0388286004 19.0397535,0.121264706 C19.3814452,0.282552738 19.6335325,0.586013185 19.7267211,0.952794118 L20.3228895,3.3123783 C20.4172728,3.6779645 20.3384209,4.06744523 20.1173966,4.37090568 C19.8915933,4.6731714 19.5451227,4.86074341 19.1675892,4.88105375 L16.6013174,5.01247363 C16.2835203,5.02322617 15.9609442,4.91928499 15.7231937,4.71857099 C13.326573,5.99573327 13.038644,6.75557911 13.038644,9.10082657 C13.038644,15.9262972 18.6419097,23.6155548 21.6275304,23.6155548 C24.6143458,23.6155548 30.2140274,15.9262972 30.2140274,9.10082657 C30.2140274,6.75557911 29.9272931,5.99573327 27.5306724,4.71737627 C27.2917272,4.91689554 26.9655669,5.02561562 26.6561329,5.01008418 L24.0874716,4.87746957 C23.7099381,4.85715923 23.3610781,4.66958722 23.1376643,4.3673215 C22.9130558,4.06266633 22.8401775,3.67438032 22.9297819,3.30998884 L23.5295345,0.949209939 C23.6227231,0.583623732 23.8748103,0.27896856 24.216502,0.117680527 C24.5581937,-0.0400233266 24.9536481,-0.0388286004 25.294145,0.122459432 L27.615498,1.23236004 C28.038431,1.43546349 28.304855,1.84883874 28.3311389,2.29805578 C31.4995527,3.94319371 32.7337049,5.34580223 32.7337049,9.10082657 C32.7337049,16.1294006 27.5533722,24.6394351 22.8461511,25.9584128 C22.724289,26.9954351 22.3312241,28.5222951 21.136498,29.831715 C19.6657901,31.4422059 17.4328469,32.2582039 14.504573,32.2582039" id="Fill-1"></path>
                    </g>
                </g>
            </g>
        </g>
    </g>
</svg>