<?xml version="1.0" encoding="UTF-8"?>
<svg width="64px" height="64px" viewBox="0 0 64 64" version="1.1" xmlns="http://www.w3.org/2000/svg" xmlns:xlink="http://www.w3.org/1999/xlink">
    <!-- Generator: Sketch 43.1 (39012) - http://www.bohemiancoding.com/sketch -->
    <title>Advice Nurse</title>
    <desc>Created with Sketch.</desc>
    <defs></defs>
    <g id="•-Icons" stroke="none" stroke-width="1" fill="none" fill-rule="evenodd">
        <g id="08_Messages" transform="translate(-1160.000000, -350.000000)">
            <g id="Advice-Nurse" transform="translate(1145.000000, 350.000000)">
                <g transform="translate(15.000000, 0.000000)">
                    <g id="New---Secondary---PaleBlue" fill="#F0F7FA">
                        <path d="M32,64 C49.673112,64 64,49.673112 64,32 C64,14.326888 49.673112,0 32,0 C14.326888,0 0,14.326888 0,32 C0,49.673112 14.326888,64 32,64 Z"></path>
                    </g>
                    <g id="nurse" transform="translate(15.000000, 20.000000)" fill="#4A7628">
                        <path d="M20.6679167,9.034 L18.8629167,9.034 L18.8629167,7.229 C18.8629167,6.694 18.4254167,6.2565 17.8904167,6.2565 C17.35625,6.2565 16.91875,6.694 16.91875,7.229 L16.91875,9.034 L15.1129167,9.034 C14.57875,9.034 14.14125,9.4715 14.14125,10.0065 C14.14125,10.5406667 14.57875,10.9781667 15.1129167,10.9781667 L16.91875,10.9781667 L16.91875,12.7831667 C16.91875,13.3181667 17.35625,13.7556667 17.8904167,13.7556667 C18.4254167,13.7556667 18.8629167,13.3181667 18.8629167,12.7831667 L18.8629167,10.9781667 L20.6679167,10.9781667 C21.2029167,10.9781667 21.6404167,10.5406667 21.6404167,10.0065 C21.6404167,9.4715 21.2029167,9.034 20.6679167,9.034" id="Fill-1"></path>
                        <g id="Group-5" transform="translate(0.000000, 0.801083)">
                            <path d="M17.8905,14.9864167 C14.6971667,14.9864167 12.1088333,12.3980833 12.1088333,9.20475 C12.1088333,6.01225 14.6971667,3.42391667 17.8905,3.42391667 C21.0838333,3.42391667 23.6721667,6.01225 23.6721667,9.20475 C23.6721667,12.3980833 21.0838333,14.9864167 17.8905,14.9864167 M17.4996667,0.0339166667 C6.97883333,-0.07025 -0.000333333333,4.16641667 -0.000333333333,4.16641667 L4.16633333,19.99975 C4.16633333,19.99975 9.748,18.6555833 17.4996667,18.63475 C26.2763333,18.6114167 30.833,19.99975 30.833,19.99975 L34.9996667,4.16641667 C34.9996667,4.16641667 28.0205,0.138083333 17.4996667,0.0339166667" id="Fill-3"></path>
                        </g>
                    </g>
                </g>
            </g>
        </g>
    </g>
</svg>