<?xml version="1.0" standalone="no"?>
<!DOCTYPE svg PUBLIC "-//W3C//DTD SVG 1.1//EN" "http://www.w3.org/Graphics/SVG/1.1/DTD/svg11.dtd" >
<svg xmlns="http://www.w3.org/2000/svg" xmlns:xlink="http://www.w3.org/1999/xlink" version="1.1">
<metadata>
Created by FontForge 20170910 at Fri Sep 12 14:35:18 2008
 By Jimmy Wärting
Copyright (C) 2001, 2008 Hoefler &#38; Frere-Jones. http://www.typography.com
</metadata>
<defs>
<font id="GothamCondensed-Bold" horiz-adv-x="240" >
  <font-face 
    font-family="Gotham Condensed Bold"
    font-weight="400"
    font-stretch="condensed"
    units-per-em="1000"
    panose-1="0 0 0 0 0 0 0 0 0 0"
    ascent="800"
    descent="-200"
    x-height="536"
    cap-height="700"
    bbox="-142 -230 804 937"
    underline-thickness="50"
    underline-position="-100"
    stemh="113"
    stemv="118"
    unicode-range="U+0020-FB04"
  />
<missing-glyph horiz-adv-x="500" 
d="M0 -200v1000h500v-1000h-500zM71 750l179 -390l179 390h-358zM50 -76l172 376l-172 376v-752zM450 676l-172 -376l172 -376v752zM250 240l-179 -390h358z" />
    <glyph glyph-name="f_f" unicode="ff" horiz-adv-x="460" 
d="M276 0v440h-31v96h31v39c0 44 11 76 33 98c23 23 58 34 102 34c20 0 32 -1 44 -4v-98c-5 1 -7 1 -14 1c-29 0 -47 -16 -47 -49v-21h61v-96h-61v-440h-118zM46 0v440h-33v96h33v39c0 44 11 76 33 98c23 23 58 34 102 34c20 0 32 -1 44 -4v-98c-5 1 -7 1 -14 1
c-29 0 -47 -16 -47 -49v-21h59v-96h-59v-440h-118z" />
    <glyph glyph-name="fi" unicode="fi" horiz-adv-x="420" 
d="M46 0v440h-33v96h33v39c0 44 11 76 33 98c23 23 58 34 102 34c20 0 32 -1 44 -4v-98c-5 1 -7 1 -14 1c-29 0 -47 -16 -47 -49v-21h61v-96h-61v-440h-118zM268 0v536h118v-536h-118zM267 587v118h120v-118h-120z" />
    <glyph glyph-name="fl" unicode="fl" horiz-adv-x="420" 
d="M46 0v440h-33v96h33v39c0 44 11 76 33 98c23 23 58 34 102 34c20 0 32 -1 44 -4v-98c-5 1 -7 1 -14 1c-29 0 -47 -16 -47 -49v-21h61v-96h-61v-440h-118zM268 0v705h118v-705h-118z" />
    <glyph glyph-name="f_f_i" unicode="ffi" horiz-adv-x="650" 
d="M276 0v440h-31v96h31v39c0 44 11 76 33 98c23 23 58 34 102 34c20 0 32 -1 44 -4v-98c-5 1 -7 1 -14 1c-29 0 -47 -16 -47 -49v-21h61v-96h-61v-440h-118zM46 0v440h-33v96h33v39c0 44 11 76 33 98c23 23 58 34 102 34c20 0 32 -1 44 -4v-98c-5 1 -7 1 -14 1
c-29 0 -47 -16 -47 -49v-21h59v-96h-59v-440h-118zM498 0v536h118v-536h-118zM497 587v118h120v-118h-120z" />
    <glyph glyph-name="f_f_l" unicode="ffl" horiz-adv-x="650" 
d="M276 0v440h-31v96h31v39c0 44 11 76 33 98c23 23 58 34 102 34c20 0 32 -1 44 -4v-98c-5 1 -7 1 -14 1c-29 0 -47 -16 -47 -49v-21h61v-96h-61v-440h-118zM46 0v440h-33v96h33v39c0 44 11 76 33 98c23 23 58 34 102 34c20 0 32 -1 44 -4v-98c-5 1 -7 1 -14 1
c-29 0 -47 -16 -47 -49v-21h59v-96h-59v-440h-118zM498 0v705h118v-705h-118z" />
    <glyph glyph-name=".notdef" horiz-adv-x="500" 
d="M0 -200v1000h500v-1000h-500zM71 750l179 -390l179 390h-358zM50 -76l172 376l-172 376v-752zM450 676l-172 -376l172 -376v752zM250 240l-179 -390h358z" />
    <glyph glyph-name="A" unicode="A" horiz-adv-x="398" 
d="M1 0l133 702h130l133 -702h-122l-23 139h-111l-22 -139h-118zM159 249h75l-37 231z" />
    <glyph glyph-name="B" unicode="B" horiz-adv-x="392" 
d="M36 0v700h104c72 0 141 -18 182 -59c30 -30 46 -68 46 -119v-5c0 -90 -51 -134 -101 -158c59 -26 110 -67 110 -156v-9c0 -124 -96 -194 -232 -194h-109zM248 498v2c0 61 -36 87 -90 87h-2v-181h2c54 0 90 31 90 92zM255 209c0 58 -40 91 -96 91h-3v-187h3
c56 0 96 33 96 91v5z" />
    <glyph glyph-name="C" unicode="C" horiz-adv-x="336" 
d="M221 -5c-112 0 -197 99 -197 343v24c0 246 91 343 205 343c34 0 54 -4 80 -16v-126c-25 15 -45 23 -68 23c-54 0 -93 -48 -93 -223v-26c0 -185 39 -223 95 -223c19 0 43 7 68 22v-120c-28 -16 -55 -21 -90 -21z" />
    <glyph glyph-name="D" unicode="D" horiz-adv-x="419" 
d="M36 0v700h114c156 0 245 -113 245 -338v-24c0 -225 -89 -338 -245 -338h-114zM163 588h-5v-476h5c58 0 108 51 108 226v24c0 175 -50 226 -108 226z" />
    <glyph glyph-name="E" unicode="E" horiz-adv-x="330" 
d="M36 0v700h268v-116h-146v-174h129v-116h-129v-178h149v-116h-271z" />
    <glyph glyph-name="F" unicode="F" horiz-adv-x="310" 
d="M36 0v700h255v-116h-133v-176h116v-116h-116v-292h-122z" />
    <glyph glyph-name="G" unicode="G" horiz-adv-x="405" 
d="M247 -10c-122 0 -223 100 -223 348v24c0 230 96 348 234 348c37 0 68 -8 93 -20v-127c-30 18 -57 30 -89 30c-70 0 -114 -71 -114 -226v-34c0 -187 54 -230 104 -230c4 0 5 0 11 1v184h-60v109h171v-377c-44 -19 -80 -30 -127 -30z" />
    <glyph glyph-name="H" unicode="H" horiz-adv-x="422" 
d="M36 0v700h122v-290h106v290h122v-700h-122v294h-106v-294h-122z" />
    <glyph glyph-name="I" unicode="I" horiz-adv-x="198" 
d="M38 0v700h122v-700h-122z" />
    <glyph glyph-name="J" unicode="J" horiz-adv-x="295" 
d="M93 -6c-31 0 -55 5 -77 10v121c19 -7 38 -12 59 -12c40 0 64 21 64 72v515h122v-524c0 -63 -17 -109 -47 -139c-29 -29 -70 -43 -121 -43z" />
    <glyph glyph-name="K" unicode="K" horiz-adv-x="403" 
d="M36 0v700h122v-300l101 300h134l-117 -296l119 -404h-132l-77 268l-28 -78v-190h-122z" />
    <glyph glyph-name="L" unicode="L" horiz-adv-x="300" 
d="M36 0v700h122v-584h129v-116h-251z" />
    <glyph glyph-name="M" unicode="M" horiz-adv-x="486" 
d="M36 0v700h123l84 -266l84 266h123v-700h-117v425l-89 -267h-2l-89 267v-425h-117z" />
    <glyph glyph-name="N" unicode="N" horiz-adv-x="428" 
d="M36 0v700h113l126 -362v362h117v-700h-107l-132 379v-379h-117z" />
    <glyph glyph-name="O" unicode="O" horiz-adv-x="420" 
d="M210 -10c-111 0 -186 111 -186 342v36c0 231 75 342 186 342s186 -111 186 -342v-36c0 -231 -75 -342 -186 -342zM210 102c37 0 62 50 62 230v36c0 180 -25 230 -62 230s-62 -50 -62 -230v-36c0 -180 25 -230 62 -230z" />
    <glyph glyph-name="P" unicode="P" horiz-adv-x="385" 
d="M36 0v700h109c133 0 226 -72 226 -236v-2c0 -158 -88 -233 -212 -242h-1v-220h-122zM158 333h1c51 3 90 40 90 125v2c0 89 -34 127 -87 127h-4v-254z" />
    <glyph glyph-name="Q" unicode="Q" horiz-adv-x="427" 
d="M421 49l-61 -65l-48 50c-29 -30 -63 -44 -99 -44c-115 0 -189 111 -189 342v36c0 231 75 342 186 342s186 -111 186 -342v-36c0 -95 -14 -170 -38 -225zM219 100c8 0 15 2 22 8l-60 59l57 63l29 -31c3 33 5 76 5 133v36c0 180 -25 230 -62 230s-62 -50 -62 -230v-36
c0 -196 26 -232 71 -232z" />
    <glyph glyph-name="Q.alt" horiz-adv-x="420" 
d="M295 -81l-48 76c-12 -3 -24 -5 -37 -5c-111 0 -186 111 -186 342v36c0 231 75 342 186 342s186 -111 186 -342v-36c0 -123 -22 -212 -58 -269l85 -144h-128zM210 102c37 0 62 50 62 230v36c0 180 -25 230 -62 230s-62 -50 -62 -230v-36c0 -180 25 -230 62 -230z" />
    <glyph glyph-name="R" unicode="R" horiz-adv-x="398" 
d="M36 0v700h126c65 0 120 -18 158 -56c37 -37 58 -91 58 -167v-9c0 -91 -36 -149 -82 -184l94 -284h-130l-79 244h-23v-244h-122zM158 354h6c53 0 92 31 92 113v8c0 88 -42 111 -95 111h-3v-232z" />
    <glyph glyph-name="S" unicode="S" horiz-adv-x="325" 
d="M145 -5c-48 0 -89 12 -124 29v125c43 -25 71 -39 108 -39c39 0 67 23 67 69c0 23 -7 55 -67 120c-86 94 -118 143 -118 224c0 111 73 182 173 182c46 0 78 -10 105 -22v-125c-38 22 -61 32 -93 32c-34 0 -63 -22 -63 -63c0 -29 10 -49 68 -116c96 -111 117 -158 117 -233
c0 -110 -77 -183 -173 -183z" />
    <glyph glyph-name="T" unicode="T" horiz-adv-x="324" 
d="M101 0v584h-86v116h294v-116h-86v-584h-122z" />
    <glyph glyph-name="U" unicode="U" horiz-adv-x="416" 
d="M208 -9c-100 0 -174 66 -174 213v496h122v-508c0 -63 22 -87 52 -87s52 24 52 87v508h122v-496c0 -147 -74 -213 -174 -213z" />
    <glyph glyph-name="V" unicode="V" horiz-adv-x="378" 
d="M126 -2l-125 702h124l66 -456l66 456h120l-125 -702h-126z" />
    <glyph glyph-name="W" unicode="W" horiz-adv-x="592" 
d="M109 -2l-106 702h125l51 -429l61 429h113l60 -429l52 429h122l-106 -702h-128l-58 415l-58 -415h-128z" />
    <glyph glyph-name="X" unicode="X" horiz-adv-x="392" 
d="M253 700h127l-110 -343l114 -357h-130l-59 213l-60 -213h-127l114 357l-110 343h130l55 -203z" />
    <glyph glyph-name="Y" unicode="Y" horiz-adv-x="382" 
d="M130 0v276l-130 424h126l66 -262l67 262h123l-130 -424v-276h-122z" />
    <glyph glyph-name="Z" unicode="Z" horiz-adv-x="340" 
d="M23 0v97l161 488h-155v115h289v-97l-161 -488h161v-115h-295z" />
    <glyph glyph-name="a" unicode="a" horiz-adv-x="350" 
d="M115 -9c-59 0 -101 60 -101 158v17c0 120 48 170 119 170c25 0 48 -7 71 -20v32c0 55 -26 84 -75 84c-31 0 -63 -12 -89 -25v112c36 16 77 23 107 23c58 0 97 -14 126 -43c32 -32 48 -80 48 -143v-356h-118v57c-21 -44 -50 -66 -88 -66zM164 90c20 0 40 17 40 51v92
c-9 5 -27 11 -37 11c-24 0 -40 -20 -40 -71v-14c0 -53 16 -69 37 -69z" />
    <glyph glyph-name="a.alt" horiz-adv-x="384" 
d="M139 -10c-64 0 -114 61 -114 254v48c0 191 50 254 114 254c52 0 76 -43 94 -75v65h118v-536h-118v67c-17 -32 -42 -77 -94 -77zM187 103c30 0 47 51 47 147v36c0 95 -17 147 -47 147s-44 -52 -44 -147v-36c0 -96 14 -147 44 -147z" />
    <glyph glyph-name="b" unicode="b" horiz-adv-x="384" 
d="M245 -10c-52 0 -76 43 -94 75v-65h-118v705h118v-236c17 32 42 77 94 77c64 0 114 -61 114 -254v-48c0 -191 -50 -254 -114 -254zM197 103c30 0 44 52 44 147v36c0 96 -14 147 -44 147s-47 -51 -47 -147v-36c0 -95 17 -147 47 -147z" />
    <glyph glyph-name="c" unicode="c" horiz-adv-x="286" 
d="M189 -10c-100 0 -166 89 -166 261v32c0 172 72 261 169 261c34 0 50 -3 74 -14v-121c-20 12 -38 20 -59 20c-37 0 -64 -38 -64 -144v-36c0 -104 27 -144 66 -144c17 0 38 10 58 23v-116c-27 -15 -47 -22 -78 -22z" />
    <glyph glyph-name="d" unicode="d" horiz-adv-x="384" 
d="M139 -10c-64 0 -114 61 -114 254v48c0 191 50 254 114 254c52 0 76 -43 94 -75v234h118v-705h-118v67c-17 -32 -42 -77 -94 -77zM187 103c30 0 47 51 47 147v36c0 95 -17 147 -47 147s-44 -52 -44 -147v-36c0 -96 14 -147 44 -147z" />
    <glyph glyph-name="e" unicode="e" horiz-adv-x="350" 
d="M204 -10c-100 0 -184 91 -184 264v26c0 172 74 264 163 264c93 0 152 -93 152 -269v-62h-197c7 -84 42 -113 81 -113c36 0 59 15 94 39l9 -108c-41 -27 -73 -41 -118 -41zM137 306h87c0 90 -13 133 -41 133c-27 0 -44 -38 -46 -133z" />
    <glyph glyph-name="f" unicode="f" horiz-adv-x="230" 
d="M46 0v440h-33v96h33v39c0 44 11 76 33 98c23 23 58 34 102 34c20 0 32 -1 44 -4v-98c-5 1 -7 1 -14 1c-29 0 -47 -16 -47 -49v-21h61v-96h-61v-440h-118z" />
    <glyph glyph-name="g" unicode="g" horiz-adv-x="384" 
d="M163 -132c-50 0 -78 6 -116 17v109c33 -12 76 -22 100 -22c53 0 86 22 86 84v53c-17 -33 -43 -77 -95 -77c-64 0 -113 64 -113 254v6c0 191 49 254 113 254c52 0 77 -42 95 -75v65h118v-489c0 -60 -15 -102 -46 -133c-32 -32 -81 -46 -142 -46zM187 145
c28 0 47 47 47 143v2c0 95 -19 143 -47 143s-44 -48 -44 -143v-2c0 -96 16 -143 44 -143z" />
    <glyph glyph-name="h" unicode="h" horiz-adv-x="379" 
d="M33 0v705h118v-233c21 41 48 74 95 74c68 0 103 -58 103 -140v-406h-118v379c0 39 -15 61 -39 61s-41 -22 -41 -61v-379h-118z" />
    <glyph glyph-name="i" unicode="i" horiz-adv-x="186" 
d="M33 587v118h120v-118h-120zM34 0v536h118v-536h-118z" />
    <glyph glyph-name="j" unicode="j" horiz-adv-x="188" 
d="M28 -133c-23 0 -31 1 -47 4v93h11c26 0 44 11 44 43v529h118v-539c0 -92 -48 -130 -126 -130zM35 587v118h120v-118h-120z" />
    <glyph glyph-name="k" unicode="k" horiz-adv-x="357" 
d="M33 0v705h118v-379l77 210h126l-92 -217l88 -319h-129l-48 206l-22 -59v-147h-118z" />
    <glyph glyph-name="l" unicode="l" horiz-adv-x="186" 
d="M34 0v705h118v-705h-118z" />
    <glyph glyph-name="m" unicode="m" horiz-adv-x="576" 
d="M33 0v536h118v-63c24 45 51 73 95 73c45 0 71 -27 90 -62c21 29 50 62 96 62c57 0 111 -48 111 -142v-404h-118v378c0 39 -14 62 -38 62s-40 -23 -40 -62v-378h-118v378c0 39 -14 62 -38 62s-40 -23 -40 -62v-378h-118z" />
    <glyph glyph-name="n" unicode="n" horiz-adv-x="379" 
d="M33 0v536h118v-64c21 41 48 74 95 74c68 0 103 -58 103 -140v-406h-118v379c0 39 -15 61 -39 61s-41 -22 -41 -61v-379h-118z" />
    <glyph glyph-name="o" unicode="o" horiz-adv-x="378" 
d="M189 -10c-96 0 -166 89 -166 261v32c0 172 70 261 166 261s166 -89 166 -261v-32c0 -172 -70 -261 -166 -261zM189 95c30 0 48 50 48 154v36c0 106 -18 154 -48 154s-48 -48 -48 -154v-36c0 -104 18 -154 48 -154z" />
    <glyph glyph-name="p" unicode="p" horiz-adv-x="384" 
d="M33 -130v666h118v-67c17 32 42 77 94 77c64 0 114 -61 114 -254v-48c0 -191 -50 -254 -114 -254c-52 0 -76 43 -94 75v-195h-118zM197 103c30 0 44 52 44 147v36c0 96 -14 147 -44 147s-47 -51 -47 -147v-36c0 -95 17 -147 47 -147z" />
    <glyph glyph-name="q" unicode="q" horiz-adv-x="384" 
d="M233 -130v197c-17 -32 -42 -77 -94 -77c-64 0 -114 61 -114 254v48c0 191 50 254 114 254c52 0 76 -43 94 -75v65h118v-666h-118zM187 103c30 0 47 51 47 147v36c0 95 -17 147 -47 147s-44 -52 -44 -147v-36c0 -96 14 -147 44 -147z" />
    <glyph glyph-name="r" unicode="r" horiz-adv-x="250" 
d="M33 0v536h118v-67c16 46 41 76 86 73v-142h-2c-56 0 -84 -38 -84 -114v-286h-118z" />
    <glyph glyph-name="s" unicode="s" horiz-adv-x="284" 
d="M126 -10c-35 0 -75 10 -109 25v116c40 -21 74 -35 101 -35c28 0 44 16 44 43c0 22 -9 39 -60 89c-54 53 -91 101 -91 169v2c0 89 61 145 152 145c33 0 58 -4 88 -14v-116c-25 13 -53 24 -81 24c-29 0 -45 -15 -45 -37c0 -21 9 -35 64 -89c66 -64 87 -107 87 -168v-2
c0 -93 -65 -152 -150 -152z" />
    <glyph glyph-name="t" unicode="t" horiz-adv-x="244" 
d="M157 -7c-56 0 -110 18 -110 99v348h-32v96h32v137h118v-137h63v-96h-63v-308c0 -24 12 -33 33 -33c9 0 19 2 29 6v-94c-18 -10 -46 -18 -70 -18z" />
    <glyph glyph-name="u" unicode="u" horiz-adv-x="379" 
d="M133 -10c-68 0 -103 58 -103 140v406h118v-379c0 -39 15 -61 39 -61s41 22 41 61v379h118v-536h-118v64c-21 -41 -48 -74 -95 -74z" />
    <glyph glyph-name="v" unicode="v" horiz-adv-x="362" 
d="M121 -2l-111 538h117l55 -348l55 348h115l-110 -538h-121z" />
    <glyph glyph-name="w" unicode="w" horiz-adv-x="526" 
d="M103 -2l-92 538h119l41 -309l47 309h92l47 -309l41 309h117l-91 -538h-112l-49 301l-48 -301h-112z" />
    <glyph glyph-name="x" unicode="x" horiz-adv-x="356" 
d="M132 536l47 -160l47 160h120l-95 -261l97 -275h-124l-47 170l-47 -170h-122l97 275l-95 261h122z" />
    <glyph glyph-name="y" unicode="y" horiz-adv-x="362" 
d="M179 220l56 316h116l-148 -666h-115l34 149l-111 517h117z" />
    <glyph glyph-name="z" unicode="z" horiz-adv-x="290" 
d="M12 0v84l141 352h-136v100h262v-84l-141 -352h141v-100h-267z" />
    <glyph glyph-name="Aacute" unicode="&#xc1;" horiz-adv-x="398" 
d="M1 0l133 702h130l133 -702h-122l-23 139h-111l-22 -139h-118zM159 249h75l-37 231zM148 740l86 127l101 -50l-99 -77h-88z" />
    <glyph glyph-name="aacute" unicode="&#xe1;" horiz-adv-x="350" 
d="M115 -9c-59 0 -101 60 -101 158v17c0 120 48 170 119 170c25 0 48 -7 71 -20v32c0 55 -26 84 -75 84c-31 0 -63 -12 -89 -25v112c36 16 77 23 107 23c58 0 97 -14 126 -43c32 -32 48 -80 48 -143v-356h-118v57c-21 -44 -50 -66 -88 -66zM164 90c20 0 40 17 40 51v92
c-9 5 -27 11 -37 11c-24 0 -40 -20 -40 -71v-14c0 -53 16 -69 37 -69zM125 580l86 147l93 -49l-99 -98h-80z" />
    <glyph glyph-name="aacute.alt" horiz-adv-x="384" 
d="M139 -10c-64 0 -114 61 -114 254v48c0 191 50 254 114 254c52 0 76 -43 94 -75v65h118v-536h-118v67c-17 -32 -42 -77 -94 -77zM187 103c30 0 47 51 47 147v36c0 95 -17 147 -47 147s-44 -52 -44 -147v-36c0 -96 14 -147 44 -147zM153 580l86 147l93 -49l-99 -98h-80z
" />
    <glyph glyph-name="Abreve" unicode="&#x102;" horiz-adv-x="398" 
d="M1 0l133 702h130l133 -702h-122l-23 139h-111l-22 -139h-118zM159 249h75l-37 231zM199 734c-65 0 -114 36 -115 111h70c4 -27 19 -39 45 -39c24 0 41 12 45 39h70c-2 -75 -51 -111 -115 -111z" />
    <glyph glyph-name="abreve" unicode="&#x103;" horiz-adv-x="350" 
d="M115 -9c-59 0 -101 60 -101 158v17c0 120 48 170 119 170c25 0 48 -7 71 -20v32c0 55 -26 84 -75 84c-31 0 -63 -12 -89 -25v112c36 16 77 23 107 23c58 0 97 -14 126 -43c32 -32 48 -80 48 -143v-356h-118v57c-21 -44 -50 -66 -88 -66zM164 90c20 0 40 17 40 51v92
c-9 5 -27 11 -37 11c-24 0 -40 -20 -40 -71v-14c0 -53 16 -69 37 -69zM172 574c-62 0 -113 37 -118 119h70c4 -28 19 -47 48 -47s44 19 48 47h70c-5 -82 -56 -119 -118 -119z" />
    <glyph glyph-name="abreve.alt" horiz-adv-x="384" 
d="M139 -10c-64 0 -114 61 -114 254v48c0 191 50 254 114 254c52 0 76 -43 94 -75v65h118v-536h-118v67c-17 -32 -42 -77 -94 -77zM187 103c30 0 47 51 47 147v36c0 95 -17 147 -47 147s-44 -52 -44 -147v-36c0 -96 14 -147 44 -147zM200 574c-62 0 -113 37 -118 119h70
c4 -28 19 -47 48 -47s44 19 48 47h70c-5 -82 -56 -119 -118 -119z" />
    <glyph glyph-name="Acircumflex" unicode="&#xc2;" horiz-adv-x="398" 
d="M1 0l133 702h130l133 -702h-122l-23 139h-111l-22 -139h-118zM159 249h75l-37 231zM77 740l74 119h96l74 -119h-82l-41 48l-41 -48h-80z" />
    <glyph glyph-name="acircumflex" unicode="&#xe2;" horiz-adv-x="350" 
d="M115 -9c-59 0 -101 60 -101 158v17c0 120 48 170 119 170c25 0 48 -7 71 -20v32c0 55 -26 84 -75 84c-31 0 -63 -12 -89 -25v112c36 16 77 23 107 23c58 0 97 -14 126 -43c32 -32 48 -80 48 -143v-356h-118v57c-21 -44 -50 -66 -88 -66zM164 90c20 0 40 17 40 51v92
c-9 5 -27 11 -37 11c-24 0 -40 -20 -40 -71v-14c0 -53 16 -69 37 -69zM50 580l78 139h88l78 -139h-77l-46 62l-46 -62h-75z" />
    <glyph glyph-name="acircumflex.alt" horiz-adv-x="384" 
d="M139 -10c-64 0 -114 61 -114 254v48c0 191 50 254 114 254c52 0 76 -43 94 -75v65h118v-536h-118v67c-17 -32 -42 -77 -94 -77zM187 103c30 0 47 51 47 147v36c0 95 -17 147 -47 147s-44 -52 -44 -147v-36c0 -96 14 -147 44 -147zM78 580l78 139h88l78 -139h-77l-46 62
l-46 -62h-75z" />
    <glyph glyph-name="Adieresis" unicode="&#xc4;" horiz-adv-x="398" 
d="M1 0l133 702h130l133 -702h-122l-23 139h-111l-22 -139h-118zM159 249h75l-37 231zM220 743v108h108v-108h-108zM70 743v108h108v-108h-108z" />
    <glyph glyph-name="adieresis" unicode="&#xe4;" horiz-adv-x="350" 
d="M115 -9c-59 0 -101 60 -101 158v17c0 120 48 170 119 170c25 0 48 -7 71 -20v32c0 55 -26 84 -75 84c-31 0 -63 -12 -89 -25v112c36 16 77 23 107 23c58 0 97 -14 126 -43c32 -32 48 -80 48 -143v-356h-118v57c-21 -44 -50 -66 -88 -66zM164 90c20 0 40 17 40 51v92
c-9 5 -27 11 -37 11c-24 0 -40 -20 -40 -71v-14c0 -53 16 -69 37 -69zM190 583v108h106v-108h-106zM48 583v108h106v-108h-106z" />
    <glyph glyph-name="adieresis.alt" horiz-adv-x="384" 
d="M139 -10c-64 0 -114 61 -114 254v48c0 191 50 254 114 254c52 0 76 -43 94 -75v65h118v-536h-118v67c-17 -32 -42 -77 -94 -77zM187 103c30 0 47 51 47 147v36c0 95 -17 147 -47 147s-44 -52 -44 -147v-36c0 -96 14 -147 44 -147zM218 583v108h106v-108h-106zM76 583v108
h106v-108h-106z" />
    <glyph glyph-name="AE" unicode="&#xc6;" horiz-adv-x="556" 
d="M0 0l184 700h346v-116h-146v-174h129v-116h-129v-178h149v-116h-271v139h-112l-32 -139h-118zM176 249h86v325h-9z" />
    <glyph glyph-name="ae" unicode="&#xe6;" horiz-adv-x="531" 
d="M131 -9c-74 0 -117 60 -117 158v17c0 120 48 170 119 170c25 0 48 -7 71 -20v32c0 55 -27 84 -75 84c-30 0 -60 -12 -89 -25v112c36 16 66 23 112 23c55 0 92 -22 116 -59c23 39 55 61 96 61c93 0 152 -93 152 -269v-62h-197c7 -84 42 -113 81 -113c36 0 59 15 94 39
l9 -108c-41 -27 -73 -41 -118 -41c-62 0 -111 34 -140 101c-18 -58 -60 -100 -114 -100zM318 306h87c0 90 -13 133 -41 133c-27 0 -44 -38 -46 -133zM169 90c19 0 44 21 56 69c-4 21 -7 45 -8 70c-15 9 -32 15 -50 15c-24 0 -40 -20 -40 -71v-14c0 -51 16 -69 42 -69z" />
    <glyph glyph-name="AEacute" unicode="&#x1fc;" horiz-adv-x="556" 
d="M0 0l184 700h346v-116h-146v-174h129v-116h-129v-178h149v-116h-271v139h-112l-32 -139h-118zM176 249h86v325h-9zM263 735l86 127l101 -50l-99 -77h-88z" />
    <glyph glyph-name="aeacute" unicode="&#x1fd;" horiz-adv-x="531" 
d="M131 -9c-74 0 -117 60 -117 158v17c0 120 48 170 119 170c25 0 48 -7 71 -20v32c0 55 -27 84 -75 84c-30 0 -60 -12 -89 -25v112c36 16 66 23 112 23c55 0 92 -22 116 -59c23 39 55 61 96 61c93 0 152 -93 152 -269v-62h-197c7 -84 42 -113 81 -113c36 0 59 15 94 39
l9 -108c-41 -27 -73 -41 -118 -41c-62 0 -111 34 -140 101c-18 -58 -60 -100 -114 -100zM318 306h87c0 90 -13 133 -41 133c-27 0 -44 -38 -46 -133zM169 90c19 0 44 21 56 69c-4 21 -7 45 -8 70c-15 9 -32 15 -50 15c-24 0 -40 -20 -40 -71v-14c0 -51 16 -69 42 -69z
M218 575l86 147l93 -49l-99 -98h-80z" />
    <glyph glyph-name="Agrave" unicode="&#xc0;" horiz-adv-x="398" 
d="M1 0l133 702h130l133 -702h-122l-23 139h-111l-22 -139h-118zM159 249h75l-37 231zM250 740h-88l-99 77l101 50z" />
    <glyph glyph-name="agrave" unicode="&#xe0;" horiz-adv-x="350" 
d="M115 -9c-59 0 -101 60 -101 158v17c0 120 48 170 119 170c25 0 48 -7 71 -20v32c0 55 -26 84 -75 84c-31 0 -63 -12 -89 -25v112c36 16 77 23 107 23c58 0 97 -14 126 -43c32 -32 48 -80 48 -143v-356h-118v57c-21 -44 -50 -66 -88 -66zM164 90c20 0 40 17 40 51v92
c-9 5 -27 11 -37 11c-24 0 -40 -20 -40 -71v-14c0 -53 16 -69 37 -69zM139 580l-99 98l93 49l86 -147h-80z" />
    <glyph glyph-name="agrave.alt" horiz-adv-x="384" 
d="M139 -10c-64 0 -114 61 -114 254v48c0 191 50 254 114 254c52 0 76 -43 94 -75v65h118v-536h-118v67c-17 -32 -42 -77 -94 -77zM187 103c30 0 47 51 47 147v36c0 95 -17 147 -47 147s-44 -52 -44 -147v-36c0 -96 14 -147 44 -147zM167 580l-99 98l93 49l86 -147h-80z" />
    <glyph glyph-name="Amacron" unicode="&#x100;" horiz-adv-x="398" 
d="M1 0l133 702h130l133 -702h-122l-23 139h-111l-22 -139h-118zM159 249h75l-37 231zM78 743v79h242v-79h-242z" />
    <glyph glyph-name="amacron" unicode="&#x101;" horiz-adv-x="350" 
d="M115 -9c-59 0 -101 60 -101 158v17c0 120 48 170 119 170c25 0 48 -7 71 -20v32c0 55 -26 84 -75 84c-31 0 -63 -12 -89 -25v112c36 16 77 23 107 23c58 0 97 -14 126 -43c32 -32 48 -80 48 -143v-356h-118v57c-21 -44 -50 -66 -88 -66zM164 90c20 0 40 17 40 51v92
c-9 5 -27 11 -37 11c-24 0 -40 -20 -40 -71v-14c0 -53 16 -69 37 -69zM56 583v78h232v-78h-232z" />
    <glyph glyph-name="amacron.alt" horiz-adv-x="384" 
d="M139 -10c-64 0 -114 61 -114 254v48c0 191 50 254 114 254c52 0 76 -43 94 -75v65h118v-536h-118v67c-17 -32 -42 -77 -94 -77zM187 103c30 0 47 51 47 147v36c0 95 -17 147 -47 147s-44 -52 -44 -147v-36c0 -96 14 -147 44 -147zM84 583v78h232v-78h-232z" />
    <glyph glyph-name="Aogonek" unicode="&#x104;" horiz-adv-x="398" 
d="M403 -79v-68c-15 -3 -29 -4 -41 -4c-62 0 -97 24 -97 71c0 33 14 56 36 80h-26l-23 139h-111l-22 -139h-118l133 702h130l133 -702h-14c-16 -21 -21 -36 -21 -51c0 -23 15 -30 41 -28zM159 249h75l-37 231z" />
    <glyph glyph-name="aogonek" unicode="&#x105;" horiz-adv-x="350" 
d="M325 -79v-68c-15 -3 -29 -4 -41 -4c-62 0 -97 24 -97 71c0 33 14 56 36 80h-20v57c-21 -44 -50 -66 -88 -66c-59 0 -101 60 -101 158v17c0 120 48 170 119 170c25 0 48 -7 71 -20v32c0 55 -26 84 -75 84c-31 0 -63 -12 -89 -25v112c36 16 77 23 107 23
c58 0 97 -14 126 -43c32 -32 48 -80 48 -143v-356h-16c-16 -21 -21 -36 -21 -51c0 -23 15 -30 41 -28zM164 90c20 0 40 17 40 51v92c-9 5 -27 11 -37 11c-24 0 -40 -20 -40 -71v-14c0 -53 16 -69 37 -69z" />
    <glyph glyph-name="aogonek.alt" horiz-adv-x="384" 
d="M355 -79v-68c-15 -3 -29 -4 -41 -4c-62 0 -97 24 -97 71c0 33 14 56 36 80h-20v67c-17 -32 -42 -77 -94 -77c-64 0 -114 61 -114 254v48c0 191 50 254 114 254c52 0 76 -43 94 -75v65h118v-536h-16c-16 -21 -21 -36 -21 -51c0 -23 15 -30 41 -28zM187 103
c30 0 47 51 47 147v36c0 95 -17 147 -47 147s-44 -52 -44 -147v-36c0 -96 14 -147 44 -147z" />
    <glyph glyph-name="Aring" unicode="&#xc5;" horiz-adv-x="398" 
d="M1 0l128 679c-10 14 -16 31 -16 51c0 48 39 84 87 84s87 -35 87 -84c0 -20 -7 -39 -19 -53l129 -677h-122l-23 139h-111l-22 -139h-118zM159 249h75l-37 231zM200 690c22 0 39 17 39 40s-17 40 -39 40s-39 -17 -39 -40s17 -40 39 -40z" />
    <glyph glyph-name="aring" unicode="&#xe5;" horiz-adv-x="350" 
d="M115 -9c-59 0 -101 60 -101 158v17c0 120 48 170 119 170c25 0 48 -7 71 -20v32c0 55 -26 84 -75 84c-31 0 -63 -12 -89 -25v112c36 16 77 23 107 23c58 0 97 -14 126 -43c32 -32 48 -80 48 -143v-356h-118v57c-21 -44 -50 -66 -88 -66zM164 90c20 0 40 17 40 51v92
c-9 5 -27 11 -37 11c-24 0 -40 -20 -40 -71v-14c0 -53 16 -69 37 -69zM172 574c-48 0 -87 37 -87 90c0 52 39 90 87 90s87 -37 87 -90c0 -52 -39 -90 -87 -90zM172 619c22 0 39 19 39 45s-17 45 -39 45s-39 -19 -39 -45s17 -45 39 -45z" />
    <glyph glyph-name="aring.alt" horiz-adv-x="384" 
d="M139 -10c-64 0 -114 61 -114 254v48c0 191 50 254 114 254c52 0 76 -43 94 -75v65h118v-536h-118v67c-17 -32 -42 -77 -94 -77zM187 103c30 0 47 51 47 147v36c0 95 -17 147 -47 147s-44 -52 -44 -147v-36c0 -96 14 -147 44 -147zM200 574c-48 0 -87 37 -87 90
c0 52 39 90 87 90s87 -37 87 -90c0 -52 -39 -90 -87 -90zM200 619c22 0 39 19 39 45s-17 45 -39 45s-39 -19 -39 -45s17 -45 39 -45z" />
    <glyph glyph-name="aring.alt2" horiz-adv-x="350" 
d="M116 -9c-59 0 -102 60 -102 158v17c0 120 48 170 119 170c25 0 48 -7 71 -20v32c0 55 -27 84 -75 84c-30 0 -60 -12 -89 -25v112c21 9 40 15 61 19c-10 13 -15 30 -15 50c0 52 39 90 87 90s87 -37 87 -90c0 -26 -11 -47 -26 -62c14 -7 27 -16 39 -27
c32 -32 48 -80 48 -143v-356h-118v57c-21 -44 -49 -66 -87 -66zM164 90c20 0 40 17 40 51v92c-9 5 -27 11 -37 11c-24 0 -40 -20 -40 -71v-14c0 -53 16 -69 37 -69zM134 588c0 -26 17 -45 39 -45s39 19 39 45s-17 45 -39 45s-39 -19 -39 -45z" />
    <glyph glyph-name="Aringacute" unicode="&#x1fa;" horiz-adv-x="398" 
d="M1 0l128 679c-10 14 -16 31 -16 51c0 48 39 84 87 84s87 -35 87 -84c0 -20 -7 -39 -19 -53l129 -677h-122l-23 139h-111l-22 -139h-118zM155 830l80 107l101 -50l-88 -57h-93zM159 249h75l-37 231zM200 690c22 0 39 17 39 40s-17 40 -39 40s-39 -17 -39 -40
s17 -40 39 -40z" />
    <glyph glyph-name="aringacute" unicode="&#x1fb;" horiz-adv-x="350" 
d="M129 773l76 112l93 -44l-85 -68h-84zM115 -9c-59 0 -101 60 -101 158v17c0 120 48 170 119 170c25 0 48 -7 71 -20v32c0 55 -26 84 -75 84c-31 0 -63 -12 -89 -25v112c36 16 77 23 107 23c58 0 97 -14 126 -43c32 -32 48 -80 48 -143v-356h-118v57
c-21 -44 -50 -66 -88 -66zM164 90c20 0 40 17 40 51v92c-9 5 -27 11 -37 11c-24 0 -40 -20 -40 -71v-14c0 -53 16 -69 37 -69zM173 574c-48 0 -87 37 -87 90c0 52 39 90 87 90s87 -37 87 -90c0 -52 -39 -90 -87 -90zM173 619c22 0 39 19 39 45s-17 45 -39 45
s-39 -19 -39 -45s17 -45 39 -45z" />
    <glyph glyph-name="aringacute.alt" horiz-adv-x="384" 
d="M156 773l76 112l93 -44l-85 -68h-84zM139 -10c-64 0 -114 61 -114 254v48c0 191 50 254 114 254c52 0 76 -43 94 -75v65h118v-536h-118v67c-17 -32 -42 -77 -94 -77zM187 103c30 0 47 51 47 147v36c0 95 -17 147 -47 147s-44 -52 -44 -147v-36c0 -96 14 -147 44 -147z
M200 574c-48 0 -87 37 -87 90c0 52 39 90 87 90s87 -37 87 -90c0 -52 -39 -90 -87 -90zM200 619c22 0 39 19 39 45s-17 45 -39 45s-39 -19 -39 -45s17 -45 39 -45z" />
    <glyph glyph-name="aringacute.alt2" horiz-adv-x="350" 
d="M129 701l76 112l93 -44l-85 -68h-84zM116 -9c-59 0 -102 60 -102 158v17c0 120 48 170 119 170c25 0 48 -7 71 -20v32c0 55 -27 84 -75 84c-30 0 -60 -12 -89 -25v112c21 9 40 15 61 19c-10 13 -15 30 -15 50c0 52 39 90 87 90s87 -37 87 -90c0 -26 -11 -47 -26 -62
c14 -7 27 -16 39 -27c32 -32 48 -80 48 -143v-356h-118v57c-21 -44 -49 -66 -87 -66zM164 90c20 0 40 17 40 51v92c-9 5 -27 11 -37 11c-24 0 -40 -20 -40 -71v-14c0 -53 16 -69 37 -69zM134 588c0 -26 17 -45 39 -45s39 19 39 45s-17 45 -39 45s-39 -19 -39 -45z" />
    <glyph glyph-name="Atilde" unicode="&#xc3;" horiz-adv-x="398" 
d="M1 0l133 702h130l133 -702h-122l-23 139h-111l-22 -139h-118zM159 249h75l-37 231zM265 739c-21 0 -43 10 -62 19c-17 8 -33 16 -43 16c-13 0 -18 -9 -26 -39l-69 17c13 80 34 109 74 109c22 0 46 -11 66 -21c16 -7 29 -14 39 -14c13 0 18 9 26 39l69 -17
c-13 -80 -34 -109 -74 -109z" />
    <glyph glyph-name="atilde" unicode="&#xe3;" horiz-adv-x="350" 
d="M115 -9c-59 0 -101 60 -101 158v17c0 120 48 170 119 170c25 0 48 -7 71 -20v32c0 55 -26 84 -75 84c-31 0 -63 -12 -89 -25v112c36 16 77 23 107 23c58 0 97 -14 126 -43c32 -32 48 -80 48 -143v-356h-118v57c-21 -44 -50 -66 -88 -66zM164 90c20 0 40 17 40 51v92
c-9 5 -27 11 -37 11c-24 0 -40 -20 -40 -71v-14c0 -53 16 -69 37 -69zM238 579c-20 0 -43 11 -63 20c-17 8 -32 15 -42 15c-15 0 -20 -9 -28 -39l-65 16c13 78 33 106 72 106c20 0 43 -11 63 -20c17 -8 32 -15 42 -15c15 0 20 9 28 39l65 -16c-13 -78 -33 -106 -72 -106z
" />
    <glyph glyph-name="atilde.alt" horiz-adv-x="384" 
d="M139 -10c-64 0 -114 61 -114 254v48c0 191 50 254 114 254c52 0 76 -43 94 -75v65h118v-536h-118v67c-17 -32 -42 -77 -94 -77zM187 103c30 0 47 51 47 147v36c0 95 -17 147 -47 147s-44 -52 -44 -147v-36c0 -96 14 -147 44 -147zM266 579c-20 0 -43 11 -63 20
c-17 8 -32 15 -42 15c-15 0 -20 -9 -28 -39l-65 16c13 78 33 106 72 106c20 0 43 -11 63 -20c17 -8 32 -15 42 -15c15 0 20 9 28 39l65 -16c-13 -78 -33 -106 -72 -106z" />
    <glyph glyph-name="Cacute" unicode="&#x106;" horiz-adv-x="336" 
d="M221 -5c-112 0 -197 99 -197 343v24c0 246 91 343 205 343c34 0 54 -4 80 -16v-126c-25 15 -45 23 -68 23c-54 0 -93 -48 -93 -223v-26c0 -185 39 -223 95 -223c19 0 43 7 68 22v-120c-28 -16 -55 -21 -90 -21zM152 740l86 127l101 -50l-99 -77h-88z" />
    <glyph glyph-name="cacute" unicode="&#x107;" horiz-adv-x="286" 
d="M189 -10c-100 0 -166 89 -166 261v32c0 172 72 261 169 261c34 0 50 -3 74 -14v-121c-20 12 -38 20 -59 20c-37 0 -64 -38 -64 -144v-36c0 -104 27 -144 66 -144c17 0 38 10 58 23v-116c-27 -15 -47 -22 -78 -22zM127 580l86 147l93 -49l-99 -98h-80z" />
    <glyph glyph-name="Ccaron" unicode="&#x10c;" horiz-adv-x="336" 
d="M221 -5c-112 0 -197 99 -197 343v24c0 246 91 343 205 343c34 0 54 -4 80 -16v-126c-25 15 -45 23 -68 23c-54 0 -93 -48 -93 -223v-26c0 -185 39 -223 95 -223c19 0 43 7 68 22v-120c-28 -16 -55 -21 -90 -21zM325 859l-74 -119h-96l-74 119h82l41 -48l41 48h80z" />
    <glyph glyph-name="ccaron" unicode="&#x10d;" horiz-adv-x="286" 
d="M189 -10c-100 0 -166 89 -166 261v32c0 172 72 261 169 261c34 0 50 -3 74 -14v-121c-20 12 -38 20 -59 20c-37 0 -64 -38 -64 -144v-36c0 -104 27 -144 66 -144c17 0 38 10 58 23v-116c-27 -15 -47 -22 -78 -22zM296 719l-78 -139h-88l-78 139h77l46 -62l46 62h75z" />
    <glyph glyph-name="Ccedilla" unicode="&#xc7;" horiz-adv-x="336" 
d="M202 -127l-100 38l62 93c-83 30 -140 133 -140 334v24c0 246 91 343 205 343c34 0 54 -4 80 -16v-126c-25 15 -45 23 -68 23c-54 0 -93 -48 -93 -223v-26c0 -185 39 -223 95 -223c19 0 43 7 68 22v-120c-22 -13 -44 -18 -69 -20z" />
    <glyph glyph-name="ccedilla" unicode="&#xe7;" horiz-adv-x="286" 
d="M171 -127l-100 38l60 90c-67 29 -108 113 -108 250v32c0 172 72 261 169 261c34 0 50 -3 74 -14v-121c-20 12 -38 20 -59 20c-37 0 -64 -38 -64 -144v-36c0 -104 27 -144 66 -144c17 0 38 10 58 23v-116c-21 -12 -37 -18 -58 -21z" />
    <glyph glyph-name="Cdotaccent" unicode="&#x10a;" horiz-adv-x="336" 
d="M221 -5c-112 0 -197 99 -197 343v24c0 246 91 343 205 343c34 0 54 -4 80 -16v-126c-25 15 -45 23 -68 23c-54 0 -93 -48 -93 -223v-26c0 -185 39 -223 95 -223c19 0 43 7 68 22v-120c-28 -16 -55 -21 -90 -21zM148 743v108h110v-108h-110z" />
    <glyph glyph-name="cdotaccent" unicode="&#x10b;" horiz-adv-x="286" 
d="M189 -10c-100 0 -166 89 -166 261v32c0 172 72 261 169 261c34 0 50 -3 74 -14v-121c-20 12 -38 20 -59 20c-37 0 -64 -38 -64 -144v-36c0 -104 27 -144 66 -144c17 0 38 10 58 23v-116c-27 -15 -47 -22 -78 -22zM120 583v108h108v-108h-108z" />
    <glyph glyph-name="Dcaron" unicode="&#x10e;" horiz-adv-x="419" 
d="M36 0v700h114c156 0 245 -113 245 -338v-24c0 -225 -89 -338 -245 -338h-114zM163 588h-5v-476h5c58 0 108 51 108 226v24c0 175 -50 226 -108 226zM325 854l-74 -119h-96l-74 119h82l41 -48l41 48h80z" />
    <glyph glyph-name="dcaron" unicode="&#x10f;" horiz-adv-x="384" 
d="M139 -10c-64 0 -114 61 -114 254v48c0 191 50 254 114 254c52 0 76 -43 94 -75v234h118v-705h-118v67c-17 -32 -42 -77 -94 -77zM187 103c30 0 47 51 47 147v36c0 95 -17 147 -47 147s-44 -52 -44 -147v-36c0 -96 14 -147 44 -147zM374 560l10 145h79v-2l-38 -143h-51z
" />
    <glyph glyph-name="Dcroat" unicode="&#x110;" horiz-adv-x="427" 
d="M44 0v297h-36v110h36v293h114c156 0 245 -113 245 -338v-24c0 -225 -89 -338 -245 -338h-114zM220 297h-54v-185h5c58 0 108 51 108 226v24c0 175 -50 226 -108 226h-5v-181h54v-110z" />
    <glyph glyph-name="dcroat" unicode="&#x111;" horiz-adv-x="384" 
d="M154 579v80h79v46h118v-46h33v-82h-33v-577h-118v67c-17 -32 -42 -77 -94 -77c-64 0 -114 61 -114 254v48c0 191 50 254 114 254c52 0 76 -43 94 -75v108h-79zM187 103c30 0 47 51 47 147v36c0 95 -17 147 -47 147s-44 -52 -44 -147v-36c0 -96 14 -147 44 -147z" />
    <glyph glyph-name="Eacute" unicode="&#xc9;" horiz-adv-x="330" 
d="M36 0v700h268v-116h-146v-174h129v-116h-129v-178h149v-116h-271zM120 735l86 127l101 -50l-99 -77h-88z" />
    <glyph glyph-name="eacute" unicode="&#xe9;" horiz-adv-x="350" 
d="M204 -10c-100 0 -184 91 -184 264v26c0 172 74 264 163 264c93 0 152 -93 152 -269v-62h-197c7 -84 42 -113 81 -113c36 0 59 15 94 39l9 -108c-41 -27 -73 -41 -118 -41zM137 306h87c0 90 -13 133 -41 133c-27 0 -44 -38 -46 -133zM134 580l86 147l93 -49l-99 -98h-80z
" />
    <glyph glyph-name="Ebreve" unicode="&#x114;" horiz-adv-x="330" 
d="M36 0v700h268v-116h-146v-174h129v-116h-129v-178h149v-116h-271zM171 729c-65 0 -114 36 -115 111h70c4 -27 19 -39 45 -39c24 0 41 12 45 39h70c-2 -75 -51 -111 -115 -111z" />
    <glyph glyph-name="ebreve" unicode="&#x115;" horiz-adv-x="350" 
d="M204 -10c-100 0 -184 91 -184 264v26c0 172 74 264 163 264c93 0 152 -93 152 -269v-62h-197c7 -84 42 -113 81 -113c36 0 59 15 94 39l9 -108c-41 -27 -73 -41 -118 -41zM137 306h87c0 90 -13 133 -41 133c-27 0 -44 -38 -46 -133zM181 574c-62 0 -113 37 -118 119h70
c4 -28 19 -47 48 -47s44 19 48 47h70c-5 -82 -56 -119 -118 -119z" />
    <glyph glyph-name="Ecaron" unicode="&#x11a;" horiz-adv-x="330" 
d="M36 0v700h268v-116h-146v-174h129v-116h-129v-178h149v-116h-271zM293 854l-74 -119h-96l-74 119h82l41 -48l41 48h80z" />
    <glyph glyph-name="ecaron" unicode="&#x11b;" horiz-adv-x="350" 
d="M204 -10c-100 0 -184 91 -184 264v26c0 172 74 264 163 264c93 0 152 -93 152 -269v-62h-197c7 -84 42 -113 81 -113c36 0 59 15 94 39l9 -108c-41 -27 -73 -41 -118 -41zM137 306h87c0 90 -13 133 -41 133c-27 0 -44 -38 -46 -133zM303 719l-78 -139h-88l-78 139h77
l46 -62l46 62h75z" />
    <glyph glyph-name="Ecircumflex" unicode="&#xca;" horiz-adv-x="330" 
d="M36 0v700h268v-116h-146v-174h129v-116h-129v-178h149v-116h-271zM49 735l74 119h96l74 -119h-82l-41 48l-41 -48h-80z" />
    <glyph glyph-name="ecircumflex" unicode="&#xea;" horiz-adv-x="350" 
d="M204 -10c-100 0 -184 91 -184 264v26c0 172 74 264 163 264c93 0 152 -93 152 -269v-62h-197c7 -84 42 -113 81 -113c36 0 59 15 94 39l9 -108c-41 -27 -73 -41 -118 -41zM137 306h87c0 90 -13 133 -41 133c-27 0 -44 -38 -46 -133zM59 580l78 139h88l78 -139h-77l-46 62
l-46 -62h-75z" />
    <glyph glyph-name="Edieresis" unicode="&#xcb;" horiz-adv-x="330" 
d="M36 0v700h268v-116h-146v-174h129v-116h-129v-178h149v-116h-271zM192 738v108h108v-108h-108zM42 738v108h108v-108h-108z" />
    <glyph glyph-name="edieresis" unicode="&#xeb;" horiz-adv-x="350" 
d="M204 -10c-100 0 -184 91 -184 264v26c0 172 74 264 163 264c93 0 152 -93 152 -269v-62h-197c7 -84 42 -113 81 -113c36 0 59 15 94 39l9 -108c-41 -27 -73 -41 -118 -41zM137 306h87c0 90 -13 133 -41 133c-27 0 -44 -38 -46 -133zM199 583v108h106v-108h-106zM57 583
v108h106v-108h-106z" />
    <glyph glyph-name="Edotaccent" unicode="&#x116;" horiz-adv-x="330" 
d="M36 0v700h268v-116h-146v-174h129v-116h-129v-178h149v-116h-271zM116 738v108h110v-108h-110z" />
    <glyph glyph-name="edotaccent" unicode="&#x117;" horiz-adv-x="350" 
d="M204 -10c-100 0 -184 91 -184 264v26c0 172 74 264 163 264c93 0 152 -93 152 -269v-62h-197c7 -84 42 -113 81 -113c36 0 59 15 94 39l9 -108c-41 -27 -73 -41 -118 -41zM137 306h87c0 90 -13 133 -41 133c-27 0 -44 -38 -46 -133zM127 583v108h108v-108h-108z" />
    <glyph glyph-name="Egrave" unicode="&#xc8;" horiz-adv-x="330" 
d="M36 0v700h268v-116h-146v-174h129v-116h-129v-178h149v-116h-271zM222 735h-88l-99 77l101 50z" />
    <glyph glyph-name="egrave" unicode="&#xe8;" horiz-adv-x="350" 
d="M204 -10c-100 0 -184 91 -184 264v26c0 172 74 264 163 264c93 0 152 -93 152 -269v-62h-197c7 -84 42 -113 81 -113c36 0 59 15 94 39l9 -108c-41 -27 -73 -41 -118 -41zM137 306h87c0 90 -13 133 -41 133c-27 0 -44 -38 -46 -133zM148 580l-99 98l93 49l86 -147h-80z
" />
    <glyph glyph-name="Emacron" unicode="&#x112;" horiz-adv-x="330" 
d="M36 0v700h268v-116h-146v-174h129v-116h-129v-178h149v-116h-271zM50 738v79h242v-79h-242z" />
    <glyph glyph-name="emacron" unicode="&#x113;" horiz-adv-x="350" 
d="M204 -10c-100 0 -184 91 -184 264v26c0 172 74 264 163 264c93 0 152 -93 152 -269v-62h-197c7 -84 42 -113 81 -113c36 0 59 15 94 39l9 -108c-41 -27 -73 -41 -118 -41zM137 306h87c0 90 -13 133 -41 133c-27 0 -44 -38 -46 -133zM65 583v78h232v-78h-232z" />
    <glyph glyph-name="Eogonek" unicode="&#x118;" horiz-adv-x="330" 
d="M36 0v700h268v-116h-146v-174h129v-116h-129v-178h149v-116h-19c-16 -21 -21 -36 -21 -51c0 -23 15 -30 41 -28v-68c-15 -3 -29 -4 -41 -4c-62 0 -97 24 -97 71c0 33 14 56 36 80h-170z" />
    <glyph glyph-name="eogonek" unicode="&#x119;" horiz-adv-x="350" 
d="M313 139l9 -106c-39 -42 -49 -66 -49 -84c0 -23 15 -30 41 -28v-68c-15 -3 -29 -4 -41 -4c-62 0 -97 24 -97 71c0 29 11 50 29 72h-1c-100 0 -184 89 -184 262v26c0 172 74 264 163 264c93 0 152 -93 152 -269v-62h-197c7 -84 42 -113 81 -113c36 0 59 15 94 39zM137 306
h87c0 90 -13 133 -41 133c-27 0 -44 -38 -46 -133z" />
    <glyph glyph-name="Eth" unicode="&#xd0;" horiz-adv-x="427" 
d="M44 0v297h-36v110h36v293h114c156 0 245 -113 245 -338v-24c0 -225 -89 -338 -245 -338h-114zM220 297h-54v-185h5c58 0 108 51 108 226v24c0 175 -50 226 -108 226h-5v-181h54v-110z" />
    <glyph glyph-name="eth" unicode="&#xf0;" horiz-adv-x="378" 
d="M328 635l-49 -18c45 -87 74 -195 74 -315v-28c0 -198 -72 -284 -169 -284c-94 0 -161 95 -161 260v37c0 162 67 249 128 249c25 0 42 -10 63 -31c-10 26 -20 51 -33 75l-68 -25l-28 72l54 20c-14 19 -29 38 -46 58h129l16 -21l62 23zM187 94c32 0 48 53 48 157v34
c0 106 -19 157 -48 157c-27 0 -46 -51 -46 -157v-34c0 -104 16 -157 46 -157z" />
    <glyph glyph-name="Gbreve" unicode="&#x11e;" horiz-adv-x="405" 
d="M247 -10c-122 0 -223 100 -223 348v24c0 230 96 348 234 348c37 0 68 -8 93 -20v-127c-30 18 -57 30 -89 30c-70 0 -114 -71 -114 -226v-34c0 -187 54 -230 104 -230c4 0 5 0 11 1v184h-60v109h171v-377c-44 -19 -80 -30 -127 -30zM233 734c-65 0 -114 36 -115 111h70
c4 -27 19 -39 45 -39c24 0 41 12 45 39h70c-2 -75 -51 -111 -115 -111z" />
    <glyph glyph-name="gbreve" unicode="&#x11f;" horiz-adv-x="384" 
d="M163 -132c-50 0 -78 6 -116 17v109c33 -12 76 -22 100 -22c53 0 86 22 86 84v53c-17 -33 -43 -77 -95 -77c-64 0 -113 64 -113 254v6c0 191 49 254 113 254c52 0 77 -42 95 -75v65h118v-489c0 -60 -15 -102 -46 -133c-32 -32 -81 -46 -142 -46zM187 145
c28 0 47 47 47 143v2c0 95 -19 143 -47 143s-44 -48 -44 -143v-2c0 -96 16 -143 44 -143zM200 574c-62 0 -113 37 -118 119h70c4 -28 19 -47 48 -47s44 19 48 47h70c-5 -82 -56 -119 -118 -119z" />
    <glyph glyph-name="Gcommaaccent" unicode="&#x122;" horiz-adv-x="405" 
d="M247 -10c-122 0 -223 100 -223 348v24c0 230 96 348 234 348c37 0 68 -8 93 -20v-127c-30 18 -57 30 -89 30c-70 0 -114 -71 -114 -226v-34c0 -187 54 -230 104 -230c4 0 5 0 11 1v184h-60v109h171v-377c-44 -19 -80 -30 -127 -30zM179 -230l-5 40c43 6 55 19 54 53h-48
v90h106v-81c0 -70 -38 -97 -107 -102z" />
    <glyph glyph-name="gcommaaccent" unicode="&#x123;" horiz-adv-x="384" 
d="M163 -132c-50 0 -78 6 -116 17v109c33 -12 76 -22 100 -22c53 0 86 22 86 84v53c-17 -33 -43 -77 -95 -77c-64 0 -113 64 -113 254v6c0 191 49 254 113 254c52 0 77 -42 95 -75v65h118v-489c0 -60 -15 -102 -46 -133c-32 -32 -81 -46 -142 -46zM187 145
c28 0 47 47 47 143v2c0 95 -19 143 -47 143s-44 -48 -44 -143v-2c0 -96 16 -143 44 -143zM253 766l5 -40c-43 -6 -55 -19 -54 -53h48v-90h-106v81c0 70 38 97 107 102z" />
    <glyph glyph-name="Gdotaccent" unicode="&#x120;" horiz-adv-x="405" 
d="M247 -10c-122 0 -223 100 -223 348v24c0 230 96 348 234 348c37 0 68 -8 93 -20v-127c-30 18 -57 30 -89 30c-70 0 -114 -71 -114 -226v-34c0 -187 54 -230 104 -230c4 0 5 0 11 1v184h-60v109h171v-377c-44 -19 -80 -30 -127 -30zM178 743v108h110v-108h-110z" />
    <glyph glyph-name="gdotaccent" unicode="&#x121;" horiz-adv-x="384" 
d="M163 -132c-50 0 -78 6 -116 17v109c33 -12 76 -22 100 -22c53 0 86 22 86 84v53c-17 -33 -43 -77 -95 -77c-64 0 -113 64 -113 254v6c0 191 49 254 113 254c52 0 77 -42 95 -75v65h118v-489c0 -60 -15 -102 -46 -133c-32 -32 -81 -46 -142 -46zM187 145
c28 0 47 47 47 143v2c0 95 -19 143 -47 143s-44 -48 -44 -143v-2c0 -96 16 -143 44 -143zM146 583v108h108v-108h-108z" />
    <glyph glyph-name="Hbar" unicode="&#x126;" horiz-adv-x="438" 
d="M8 517v104h36v79h122v-81h106v81h122v-79h36v-104h-36v-517h-122v294h-106v-294h-122v517h-36zM166 410h106v109h-106v-109z" />
    <glyph glyph-name="hbar" unicode="&#x127;" horiz-adv-x="379" 
d="M230 579h-79v-107c21 41 48 74 95 74c68 0 103 -58 103 -140v-406h-118v379c0 39 -15 61 -39 61s-41 -22 -41 -61v-379h-118v577h-33v82h33v46h118v-46h79v-80z" />
    <glyph glyph-name="Iacute" unicode="&#xcd;" horiz-adv-x="198" 
d="M38 0v700h122v-700h-122zM48 735l86 127l101 -50l-99 -77h-88z" />
    <glyph glyph-name="iacute" unicode="&#xed;" horiz-adv-x="186" 
d="M34 0v536h118v-536h-118zM46 575l86 147l93 -49l-99 -98h-80z" />
    <glyph glyph-name="Ibreve" unicode="&#x12c;" horiz-adv-x="198" 
d="M38 0v700h122v-700h-122zM99 729c-65 0 -114 36 -115 111h70c4 -27 19 -39 45 -39c24 0 41 12 45 39h70c-2 -75 -51 -111 -115 -111z" />
    <glyph glyph-name="ibreve" unicode="&#x12d;" horiz-adv-x="186" 
d="M34 0v536h118v-536h-118zM93 569c-62 0 -113 37 -118 119h70c4 -28 19 -47 48 -47s44 19 48 47h70c-5 -82 -56 -119 -118 -119z" />
    <glyph glyph-name="Icircumflex" unicode="&#xce;" horiz-adv-x="198" 
d="M38 0v700h122v-700h-122zM-23 735l74 119h96l74 -119h-82l-41 48l-41 -48h-80z" />
    <glyph glyph-name="icircumflex" unicode="&#xee;" horiz-adv-x="186" 
d="M34 0v536h118v-536h-118zM-29 575l78 139h88l78 -139h-77l-46 62l-46 -62h-75z" />
    <glyph glyph-name="Idieresis" unicode="&#xcf;" horiz-adv-x="198" 
d="M38 0v700h122v-700h-122zM120 738v108h108v-108h-108zM-30 738v108h108v-108h-108z" />
    <glyph glyph-name="idieresis" unicode="&#xef;" horiz-adv-x="186" 
d="M34 0v536h118v-536h-118zM111 578v108h106v-108h-106zM-31 578v108h106v-108h-106z" />
    <glyph glyph-name="Idotaccent" unicode="&#x130;" horiz-adv-x="198" 
d="M38 0v700h122v-700h-122zM44 738v108h110v-108h-110z" />
    <glyph glyph-name="dotlessi" unicode="&#x131;" horiz-adv-x="186" 
d="M34 0v536h118v-536h-118z" />
    <glyph glyph-name="Igrave" unicode="&#xcc;" horiz-adv-x="198" 
d="M38 0v700h122v-700h-122zM150 735h-88l-99 77l101 50z" />
    <glyph glyph-name="igrave" unicode="&#xec;" horiz-adv-x="186" 
d="M34 0v536h118v-536h-118zM60 575l-99 98l93 49l86 -147h-80z" />
    <glyph glyph-name="Imacron" unicode="&#x12a;" horiz-adv-x="198" 
d="M38 0v700h122v-700h-122zM-22 738v79h242v-79h-242z" />
    <glyph glyph-name="imacron" unicode="&#x12b;" horiz-adv-x="186" 
d="M34 0v536h118v-536h-118zM-23 578v78h232v-78h-232z" />
    <glyph glyph-name="Iogonek" unicode="&#x12e;" horiz-adv-x="198" 
d="M38 0v700h122v-700h-17c-16 -21 -21 -36 -21 -51c0 -23 15 -30 41 -28v-68c-15 -3 -29 -4 -41 -4c-62 0 -97 24 -97 71c0 33 14 56 36 80h-23z" />
    <glyph glyph-name="iogonek" unicode="&#x12f;" horiz-adv-x="186" 
d="M34 0v536h118v-536h-15c-16 -21 -21 -36 -21 -51c0 -23 15 -30 41 -28v-68c-15 -3 -29 -4 -41 -4c-62 0 -97 24 -97 71c0 33 14 56 36 80h-21zM33 587v118h120v-118h-120z" />
    <glyph glyph-name="Kcommaaccent" unicode="&#x136;" horiz-adv-x="403" 
d="M36 0v700h122v-300l101 300h134l-117 -296l119 -404h-132l-77 268l-28 -78v-190h-122zM151 -220l-5 40c43 6 55 19 54 53h-48v90h106v-81c0 -70 -38 -97 -107 -102z" />
    <glyph glyph-name="kcommaaccent" unicode="&#x137;" horiz-adv-x="357" 
d="M33 0v705h118v-379l77 210h126l-92 -217l88 -319h-129l-48 206l-22 -59v-147h-118zM129 -220l-5 40c43 6 55 19 54 53h-48v90h106v-81c0 -70 -38 -97 -107 -102z" />
    <glyph glyph-name="Lacute" unicode="&#x139;" horiz-adv-x="300" 
d="M36 0v700h122v-584h129v-116h-251zM62 733l86 127l101 -50l-99 -77h-88z" />
    <glyph glyph-name="lacute" unicode="&#x13a;" horiz-adv-x="186" 
d="M34 0v705h118v-705h-118zM52 735l86 127l101 -50l-99 -77h-88z" />
    <glyph glyph-name="Lcaron" unicode="&#x13d;" horiz-adv-x="300" 
d="M36 0v700h122v-584h129v-116h-251zM181 555l10 145h79v-2l-38 -143h-51z" />
    <glyph glyph-name="lcaron" unicode="&#x13e;" horiz-adv-x="186" 
d="M34 0v705h118v-705h-118zM175 560l10 145h79v-2l-38 -143h-51z" />
    <glyph glyph-name="Lcommaaccent" unicode="&#x13b;" horiz-adv-x="300" 
d="M36 0v700h122v-584h129v-116h-251zM107 -225l-5 40c43 6 55 19 54 53h-48v90h106v-81c0 -70 -38 -97 -107 -102z" />
    <glyph glyph-name="lcommaaccent" unicode="&#x13c;" horiz-adv-x="186" 
d="M34 0v705h118v-705h-118zM39 -225l-5 40c43 6 55 19 54 53h-48v90h106v-81c0 -70 -38 -97 -107 -102z" />
    <glyph glyph-name="Ldot" unicode="&#x13f;" horiz-adv-x="300" 
d="M199 307v108h98v-108h-98zM36 0v700h122v-584h129v-116h-251z" />
    <glyph glyph-name="ldot" unicode="&#x140;" horiz-adv-x="274" 
d="M186 304v108h88v-108h-88zM34 0v705h118v-705h-118z" />
    <glyph glyph-name="Lslash" unicode="&#x141;" horiz-adv-x="327" 
d="M236 370l-70 -40v-214h129v-116h-251v259l-36 -21v118l36 20v324h122v-253l70 41v-118z" />
    <glyph glyph-name="lslash" unicode="&#x142;" horiz-adv-x="222" 
d="M216 367l-46 -28v-339h-118v268l-46 -28v114l46 27v324h118v-252l46 28v-114z" />
    <glyph glyph-name="Nacute" unicode="&#x143;" horiz-adv-x="428" 
d="M36 0v700h113l126 -362v362h117v-700h-107l-132 379v-379h-117zM163 730l86 127l101 -50l-99 -77h-88z" />
    <glyph glyph-name="nacute" unicode="&#x144;" horiz-adv-x="379" 
d="M33 0v536h118v-64c21 41 48 74 95 74c68 0 103 -58 103 -140v-406h-118v379c0 39 -15 61 -39 61s-41 -22 -41 -61v-379h-118zM144 580l86 147l93 -49l-99 -98h-80z" />
    <glyph glyph-name="Ncaron" unicode="&#x147;" horiz-adv-x="428" 
d="M36 0v700h113l126 -362v362h117v-700h-107l-132 379v-379h-117zM336 849l-74 -119h-96l-74 119h82l41 -48l41 48h80z" />
    <glyph glyph-name="ncaron" unicode="&#x148;" horiz-adv-x="379" 
d="M33 0v536h118v-64c21 41 48 74 95 74c68 0 103 -58 103 -140v-406h-118v379c0 39 -15 61 -39 61s-41 -22 -41 -61v-379h-118zM313 719l-78 -139h-88l-78 139h77l46 -62l46 62h75z" />
    <glyph glyph-name="Ncommaaccent" unicode="&#x145;" horiz-adv-x="428" 
d="M36 0v700h113l126 -362v362h117v-700h-107l-132 379v-379h-117zM160 -220l-5 40c43 6 55 19 54 53h-48v90h106v-81c0 -70 -38 -97 -107 -102z" />
    <glyph glyph-name="ncommaaccent" unicode="&#x146;" horiz-adv-x="379" 
d="M33 0v536h118v-64c21 41 48 74 95 74c68 0 103 -58 103 -140v-406h-118v379c0 39 -15 61 -39 61s-41 -22 -41 -61v-379h-118zM137 -220l-5 40c43 6 55 19 54 53h-48v90h106v-81c0 -70 -38 -97 -107 -102z" />
    <glyph glyph-name="Ntilde" unicode="&#xd1;" horiz-adv-x="428" 
d="M36 0v700h113l126 -362v362h117v-700h-107l-132 379v-379h-117zM280 729c-21 0 -43 10 -62 19c-17 8 -33 16 -43 16c-13 0 -18 -9 -26 -39l-69 17c13 80 34 109 74 109c22 0 46 -11 66 -21c16 -7 29 -14 39 -14c13 0 18 9 26 39l69 -17c-13 -80 -34 -109 -74 -109z" />
    <glyph glyph-name="ntilde" unicode="&#xf1;" horiz-adv-x="379" 
d="M33 0v536h118v-64c21 41 48 74 95 74c68 0 103 -58 103 -140v-406h-118v379c0 39 -15 61 -39 61s-41 -22 -41 -61v-379h-118zM257 579c-20 0 -43 11 -63 20c-17 8 -32 15 -42 15c-15 0 -20 -9 -28 -39l-65 16c13 78 33 106 72 106c20 0 43 -11 63 -20
c17 -8 32 -15 42 -15c15 0 20 9 28 39l65 -16c-13 -78 -33 -106 -72 -106z" />
    <glyph glyph-name="Oacute" unicode="&#xd3;" horiz-adv-x="420" 
d="M210 -10c-111 0 -186 111 -186 342v36c0 231 75 342 186 342s186 -111 186 -342v-36c0 -231 -75 -342 -186 -342zM210 102c37 0 62 50 62 230v36c0 180 -25 230 -62 230s-62 -50 -62 -230v-36c0 -180 25 -230 62 -230zM159 740l86 127l101 -50l-99 -77h-88z" />
    <glyph glyph-name="oacute" unicode="&#xf3;" horiz-adv-x="378" 
d="M189 -10c-96 0 -166 89 -166 261v32c0 172 70 261 166 261s166 -89 166 -261v-32c0 -172 -70 -261 -166 -261zM189 95c30 0 48 50 48 154v36c0 106 -18 154 -48 154s-48 -48 -48 -154v-36c0 -104 18 -154 48 -154zM142 580l86 147l93 -49l-99 -98h-80z" />
    <glyph glyph-name="Obreve" unicode="&#x14e;" horiz-adv-x="420" 
d="M210 -10c-111 0 -186 111 -186 342v36c0 231 75 342 186 342s186 -111 186 -342v-36c0 -231 -75 -342 -186 -342zM210 102c37 0 62 50 62 230v36c0 180 -25 230 -62 230s-62 -50 -62 -230v-36c0 -180 25 -230 62 -230zM210 734c-65 0 -114 36 -115 111h70
c4 -27 19 -39 45 -39c24 0 41 12 45 39h70c-2 -75 -51 -111 -115 -111z" />
    <glyph glyph-name="obreve" unicode="&#x14f;" horiz-adv-x="378" 
d="M189 -10c-96 0 -166 89 -166 261v32c0 172 70 261 166 261s166 -89 166 -261v-32c0 -172 -70 -261 -166 -261zM189 95c30 0 48 50 48 154v36c0 106 -18 154 -48 154s-48 -48 -48 -154v-36c0 -104 18 -154 48 -154zM189 574c-62 0 -113 37 -118 119h70
c4 -28 19 -47 48 -47s44 19 48 47h70c-5 -82 -56 -119 -118 -119z" />
    <glyph glyph-name="Ocircumflex" unicode="&#xd4;" horiz-adv-x="420" 
d="M210 -10c-111 0 -186 111 -186 342v36c0 231 75 342 186 342s186 -111 186 -342v-36c0 -231 -75 -342 -186 -342zM210 102c37 0 62 50 62 230v36c0 180 -25 230 -62 230s-62 -50 -62 -230v-36c0 -180 25 -230 62 -230zM88 740l74 119h96l74 -119h-82l-41 48l-41 -48h-80z
" />
    <glyph glyph-name="ocircumflex" unicode="&#xf4;" horiz-adv-x="378" 
d="M189 -10c-96 0 -166 89 -166 261v32c0 172 70 261 166 261s166 -89 166 -261v-32c0 -172 -70 -261 -166 -261zM189 95c30 0 48 50 48 154v36c0 106 -18 154 -48 154s-48 -48 -48 -154v-36c0 -104 18 -154 48 -154zM67 580l78 139h88l78 -139h-77l-46 62l-46 -62h-75z" />
    <glyph glyph-name="Odieresis" unicode="&#xd6;" horiz-adv-x="420" 
d="M210 -10c-111 0 -186 111 -186 342v36c0 231 75 342 186 342s186 -111 186 -342v-36c0 -231 -75 -342 -186 -342zM210 102c37 0 62 50 62 230v36c0 180 -25 230 -62 230s-62 -50 -62 -230v-36c0 -180 25 -230 62 -230zM231 743v108h108v-108h-108zM81 743v108h108v-108
h-108z" />
    <glyph glyph-name="odieresis" unicode="&#xf6;" horiz-adv-x="378" 
d="M189 -10c-96 0 -166 89 -166 261v32c0 172 70 261 166 261s166 -89 166 -261v-32c0 -172 -70 -261 -166 -261zM189 95c30 0 48 50 48 154v36c0 106 -18 154 -48 154s-48 -48 -48 -154v-36c0 -104 18 -154 48 -154zM207 583v108h106v-108h-106zM65 583v108h106v-108h-106z
" />
    <glyph glyph-name="OE" unicode="&#x152;" horiz-adv-x="556" 
d="M269 0c-156 0 -245 113 -245 338v24c0 225 89 338 245 338h261v-116h-146v-174h129v-116h-129v-178h149v-116h-264zM256 112h5v476h-5c-58 0 -108 -51 -108 -226v-24c0 -175 50 -226 108 -226z" />
    <glyph glyph-name="oe" unicode="&#x153;" horiz-adv-x="577" 
d="M189 -10c-96 0 -166 89 -166 261v32c0 172 70 261 166 261c49 0 87 -24 113 -71c25 47 62 71 108 71c93 0 152 -93 152 -269v-62h-197c7 -84 42 -113 81 -113c36 0 59 15 94 39l9 -108c-41 -27 -73 -41 -118 -41c-53 0 -97 25 -127 75c-25 -50 -64 -75 -115 -75zM364 306
h87c0 90 -13 133 -41 133c-27 0 -44 -38 -46 -133zM189 95c30 0 48 50 48 154v36c0 106 -18 154 -48 154s-48 -48 -48 -154v-36c0 -104 18 -154 48 -154z" />
    <glyph glyph-name="Ograve" unicode="&#xd2;" horiz-adv-x="420" 
d="M210 -10c-111 0 -186 111 -186 342v36c0 231 75 342 186 342s186 -111 186 -342v-36c0 -231 -75 -342 -186 -342zM210 102c37 0 62 50 62 230v36c0 180 -25 230 -62 230s-62 -50 -62 -230v-36c0 -180 25 -230 62 -230zM261 740h-88l-99 77l101 50z" />
    <glyph glyph-name="ograve" unicode="&#xf2;" horiz-adv-x="378" 
d="M189 -10c-96 0 -166 89 -166 261v32c0 172 70 261 166 261s166 -89 166 -261v-32c0 -172 -70 -261 -166 -261zM189 95c30 0 48 50 48 154v36c0 106 -18 154 -48 154s-48 -48 -48 -154v-36c0 -104 18 -154 48 -154zM156 580l-99 98l93 49l86 -147h-80z" />
    <glyph glyph-name="Ohungarumlaut" unicode="&#x150;" horiz-adv-x="420" 
d="M210 -10c-111 0 -186 111 -186 342v36c0 231 75 342 186 342s186 -111 186 -342v-36c0 -231 -75 -342 -186 -342zM210 102c37 0 62 50 62 230v36c0 180 -25 230 -62 230s-62 -50 -62 -230v-36c0 -180 25 -230 62 -230zM222 740l44 64l-80 -64h-82l86 127l86 -48l32 48
l91 -50l-95 -77h-82z" />
    <glyph glyph-name="ohungarumlaut" unicode="&#x151;" horiz-adv-x="378" 
d="M189 -10c-96 0 -166 89 -166 261v32c0 172 70 261 166 261s166 -89 166 -261v-32c0 -172 -70 -261 -166 -261zM189 95c30 0 48 50 48 154v36c0 106 -18 154 -48 154s-48 -48 -48 -154v-36c0 -104 18 -154 48 -154zM88 580l86 147l83 -47l28 47l85 -48l-96 -99h-75l55 93
l-91 -93h-75z" />
    <glyph glyph-name="Omacron" unicode="&#x14c;" horiz-adv-x="420" 
d="M210 -10c-111 0 -186 111 -186 342v36c0 231 75 342 186 342s186 -111 186 -342v-36c0 -231 -75 -342 -186 -342zM210 102c37 0 62 50 62 230v36c0 180 -25 230 -62 230s-62 -50 -62 -230v-36c0 -180 25 -230 62 -230zM89 743v79h242v-79h-242z" />
    <glyph glyph-name="omacron" unicode="&#x14d;" horiz-adv-x="378" 
d="M189 -10c-96 0 -166 89 -166 261v32c0 172 70 261 166 261s166 -89 166 -261v-32c0 -172 -70 -261 -166 -261zM189 95c30 0 48 50 48 154v36c0 106 -18 154 -48 154s-48 -48 -48 -154v-36c0 -104 18 -154 48 -154zM73 583v78h232v-78h-232z" />
    <glyph glyph-name="Oslash" unicode="&#xd8;" horiz-adv-x="420" 
d="M321 705h69l-39 -92c29 -57 45 -138 45 -245v-36c0 -231 -75 -342 -186 -342c-37 0 -70 12 -98 37l-13 -32h-69l38 92c-28 56 -44 138 -44 245v36c0 231 75 342 186 342c37 0 70 -13 97 -38zM146 332c0 -21 0 -40 1 -57l111 268c-11 42 -28 57 -48 57
c-38 0 -64 -52 -64 -232v-36zM210 100c38 0 64 52 64 232v36c0 21 -1 39 -1 57l-112 -269c12 -41 28 -56 49 -56z" />
    <glyph glyph-name="oslash" unicode="&#xf8;" horiz-adv-x="378" 
d="M295 542h69l-44 -84c22 -43 35 -102 35 -175v-32c0 -172 -70 -261 -166 -261c-34 0 -65 11 -90 33l-16 -31h-69l44 84c-22 43 -35 101 -35 175v32c0 172 70 261 166 261c34 0 64 -11 90 -33zM134 249v-26l94 181c-9 25 -23 37 -39 37c-33 0 -55 -50 -55 -156v-36zM189 93
c33 0 55 52 55 156v36c0 9 0 17 -1 26l-94 -181c10 -25 24 -37 40 -37z" />
    <glyph glyph-name="Oslashacute" unicode="&#x1fe;" horiz-adv-x="420" 
d="M321 705h69l-39 -92c29 -57 45 -138 45 -245v-36c0 -231 -75 -342 -186 -342c-37 0 -70 12 -98 37l-13 -32h-69l38 92c-28 56 -44 138 -44 245v36c0 231 75 342 186 342c37 0 70 -13 97 -38zM210 100c38 0 64 52 64 232v36c0 21 -1 39 -1 57l-112 -269
c12 -41 28 -56 49 -56zM146 332c0 -21 0 -40 1 -57l111 268c-11 42 -28 57 -48 57c-38 0 -64 -52 -64 -232v-36zM159 740l86 127l101 -50l-99 -77h-88z" />
    <glyph glyph-name="oslashacute" unicode="&#x1ff;" horiz-adv-x="378" 
d="M295 542h69l-44 -84c22 -43 35 -102 35 -175v-32c0 -172 -70 -261 -166 -261c-34 0 -65 11 -90 33l-16 -31h-69l44 84c-22 43 -35 101 -35 175v32c0 172 70 261 166 261c34 0 64 -11 90 -33zM140 580l86 147l93 -49l-99 -98h-80zM134 249v-26l94 181c-9 25 -23 37 -39 37
c-33 0 -55 -50 -55 -156v-36zM189 93c33 0 55 52 55 156v36c0 9 0 17 -1 26l-94 -181c10 -25 24 -37 40 -37z" />
    <glyph glyph-name="Otilde" unicode="&#xd5;" horiz-adv-x="420" 
d="M210 -10c-111 0 -186 111 -186 342v36c0 231 75 342 186 342s186 -111 186 -342v-36c0 -231 -75 -342 -186 -342zM210 102c37 0 62 50 62 230v36c0 180 -25 230 -62 230s-62 -50 -62 -230v-36c0 -180 25 -230 62 -230zM276 739c-21 0 -43 10 -62 19c-17 8 -33 16 -43 16
c-13 0 -18 -9 -26 -39l-69 17c13 80 34 109 74 109c22 0 46 -11 66 -21c16 -7 29 -14 39 -14c13 0 18 9 26 39l69 -17c-13 -80 -34 -109 -74 -109z" />
    <glyph glyph-name="otilde" unicode="&#xf5;" horiz-adv-x="378" 
d="M189 -10c-96 0 -166 89 -166 261v32c0 172 70 261 166 261s166 -89 166 -261v-32c0 -172 -70 -261 -166 -261zM189 95c30 0 48 50 48 154v36c0 106 -18 154 -48 154s-48 -48 -48 -154v-36c0 -104 18 -154 48 -154zM255 579c-20 0 -43 11 -63 20c-17 8 -32 15 -42 15
c-15 0 -20 -9 -28 -39l-65 16c13 78 33 106 72 106c20 0 43 -11 63 -20c17 -8 32 -15 42 -15c15 0 20 9 28 39l65 -16c-13 -78 -33 -106 -72 -106z" />
    <glyph glyph-name="Racute" unicode="&#x154;" horiz-adv-x="398" 
d="M36 0v700h126c65 0 120 -18 158 -56c37 -37 58 -91 58 -167v-9c0 -91 -36 -149 -82 -184l94 -284h-130l-79 244h-23v-244h-122zM158 354h6c53 0 92 31 92 113v8c0 88 -42 111 -95 111h-3v-232zM142 735l86 127l101 -50l-99 -77h-88z" />
    <glyph glyph-name="racute" unicode="&#x155;" horiz-adv-x="250" 
d="M33 0v536h118v-67c16 46 41 76 86 73v-142h-2c-56 0 -84 -38 -84 -114v-286h-118zM82 575l86 147l93 -49l-99 -98h-80z" />
    <glyph glyph-name="Rcaron" unicode="&#x158;" horiz-adv-x="398" 
d="M36 0v700h126c65 0 120 -18 158 -56c37 -37 58 -91 58 -167v-9c0 -91 -36 -149 -82 -184l94 -284h-130l-79 244h-23v-244h-122zM158 354h6c53 0 92 31 92 113v8c0 88 -42 111 -95 111h-3v-232zM315 854l-74 -119h-96l-74 119h82l41 -48l41 48h80z" />
    <glyph glyph-name="rcaron" unicode="&#x159;" horiz-adv-x="250" 
d="M33 0v536h118v-67c16 46 41 76 86 73v-142h-2c-56 0 -84 -38 -84 -114v-286h-118zM251 714l-78 -139h-88l-78 139h77l46 -62l46 62h75z" />
    <glyph glyph-name="Rcommaaccent" unicode="&#x156;" horiz-adv-x="398" 
d="M36 0v700h126c65 0 120 -18 158 -56c37 -37 58 -91 58 -167v-9c0 -91 -36 -149 -82 -184l94 -284h-130l-79 244h-23v-244h-122zM158 354h6c53 0 92 31 92 113v8c0 88 -42 111 -95 111h-3v-232zM139 -220l-5 40c43 6 55 19 54 53h-48v90h106v-81c0 -70 -38 -97 -107 -102z
" />
    <glyph glyph-name="rcommaaccent" unicode="&#x157;" horiz-adv-x="250" 
d="M33 0v536h118v-67c16 46 41 76 86 73v-142h-2c-56 0 -84 -38 -84 -114v-286h-118zM44 -225l-5 40c43 6 55 19 54 53h-48v90h106v-81c0 -70 -38 -97 -107 -102z" />
    <glyph glyph-name="Sacute" unicode="&#x15a;" horiz-adv-x="325" 
d="M145 -5c-48 0 -89 12 -124 29v125c43 -25 71 -39 108 -39c39 0 67 23 67 69c0 23 -7 55 -67 120c-86 94 -118 143 -118 224c0 111 73 182 173 182c46 0 78 -10 105 -22v-125c-38 22 -61 32 -93 32c-34 0 -63 -22 -63 -63c0 -29 10 -49 68 -116c96 -111 117 -158 117 -233
c0 -110 -77 -183 -173 -183zM117 740l86 127l101 -50l-99 -77h-88z" />
    <glyph glyph-name="sacute" unicode="&#x15b;" horiz-adv-x="284" 
d="M126 -10c-35 0 -75 10 -109 25v116c40 -21 74 -35 101 -35c28 0 44 16 44 43c0 22 -9 39 -60 89c-54 53 -91 101 -91 169v2c0 89 61 145 152 145c33 0 58 -4 88 -14v-116c-25 13 -53 24 -81 24c-29 0 -45 -15 -45 -37c0 -21 9 -35 64 -89c66 -64 87 -107 87 -168v-2
c0 -93 -65 -152 -150 -152zM98 580l86 147l93 -49l-99 -98h-80z" />
    <glyph glyph-name="Scaron" unicode="&#x160;" horiz-adv-x="325" 
d="M145 -5c-48 0 -89 12 -124 29v125c43 -25 71 -39 108 -39c39 0 67 23 67 69c0 23 -7 55 -67 120c-86 94 -118 143 -118 224c0 111 73 182 173 182c46 0 78 -10 105 -22v-125c-38 22 -61 32 -93 32c-34 0 -63 -22 -63 -63c0 -29 10 -49 68 -116c96 -111 117 -158 117 -233
c0 -110 -77 -183 -173 -183zM290 859l-74 -119h-96l-74 119h82l41 -48l41 48h80z" />
    <glyph glyph-name="scaron" unicode="&#x161;" horiz-adv-x="284" 
d="M126 -10c-35 0 -75 10 -109 25v116c40 -21 74 -35 101 -35c28 0 44 16 44 43c0 22 -9 39 -60 89c-54 53 -91 101 -91 169v2c0 89 61 145 152 145c33 0 58 -4 88 -14v-116c-25 13 -53 24 -81 24c-29 0 -45 -15 -45 -37c0 -21 9 -35 64 -89c66 -64 87 -107 87 -168v-2
c0 -93 -65 -152 -150 -152zM267 719l-78 -139h-88l-78 139h77l46 -62l46 62h75z" />
    <glyph glyph-name="Scedilla" unicode="&#x15e;" horiz-adv-x="325" 
d="M162 -127l-100 38l57 85c-37 4 -70 14 -98 28v125c43 -25 71 -39 108 -39c39 0 67 23 67 69c0 23 -7 55 -67 120c-86 94 -118 143 -118 224c0 111 73 182 173 182c46 0 78 -10 105 -22v-125c-38 22 -61 32 -93 32c-34 0 -63 -22 -63 -63c0 -29 10 -49 68 -116
c96 -111 117 -158 117 -233c0 -86 -47 -150 -113 -173z" />
    <glyph glyph-name="scedilla" unicode="&#x15f;" horiz-adv-x="284" 
d="M140 -127l-100 38l54 82c-26 4 -53 11 -77 22v116c40 -21 74 -35 101 -35c28 0 44 16 44 43c0 22 -9 39 -60 89c-54 53 -91 101 -91 169v2c0 89 61 145 152 145c33 0 58 -4 88 -14v-116c-25 13 -53 24 -81 24c-29 0 -45 -15 -45 -37c0 -21 9 -35 64 -89
c66 -64 87 -107 87 -168v-2c0 -72 -39 -123 -95 -143z" />
    <glyph glyph-name="Scommaaccent" unicode="&#x218;" horiz-adv-x="325" 
d="M145 -5c-48 0 -89 12 -124 29v125c43 -25 71 -39 108 -39c39 0 67 23 67 69c0 23 -7 55 -67 120c-86 94 -118 143 -118 224c0 111 73 182 173 182c46 0 78 -10 105 -22v-125c-38 22 -61 32 -93 32c-34 0 -63 -22 -63 -63c0 -29 10 -49 68 -116c96 -111 117 -158 117 -233
c0 -110 -77 -183 -173 -183zM104 -230l-5 40c43 6 55 19 54 53h-48v90h106v-81c0 -70 -38 -97 -107 -102z" />
    <glyph glyph-name="scommaaccent" unicode="&#x219;" horiz-adv-x="284" 
d="M126 -10c-35 0 -75 10 -109 25v116c40 -21 74 -35 101 -35c28 0 44 16 44 43c0 22 -9 39 -60 89c-54 53 -91 101 -91 169v2c0 89 61 145 152 145c33 0 58 -4 88 -14v-116c-25 13 -53 24 -81 24c-29 0 -45 -15 -45 -37c0 -21 9 -35 64 -89c66 -64 87 -107 87 -168v-2
c0 -93 -65 -152 -150 -152zM84 -230l-5 40c43 6 55 19 54 53h-48v90h106v-81c0 -70 -38 -97 -107 -102z" />
    <glyph glyph-name="Tcaron" unicode="&#x164;" horiz-adv-x="324" 
d="M101 0v584h-86v116h294v-116h-86v-584h-122zM284 854l-74 -119h-96l-74 119h82l41 -48l41 48h80z" />
    <glyph glyph-name="tcaron" unicode="&#x165;" horiz-adv-x="244" 
d="M157 -7c-56 0 -110 18 -110 99v348h-32v96h32v137h118v-137h63v-96h-63v-308c0 -24 12 -33 33 -33c9 0 19 2 29 6v-94c-18 -10 -46 -18 -70 -18zM188 560l10 145h79v-2l-38 -143h-51z" />
    <glyph glyph-name="Tcommaaccent" unicode="&#x162;" horiz-adv-x="324" 
d="M101 0v584h-86v116h294v-116h-86v-584h-122zM108 -225l-5 40c43 6 55 19 54 53h-48v90h106v-81c0 -70 -38 -97 -107 -102z" />
    <glyph glyph-name="tcommaaccent" unicode="&#x163;" horiz-adv-x="244" 
d="M157 -7c-56 0 -110 18 -110 99v348h-32v96h32v137h118v-137h63v-96h-63v-308c0 -24 12 -33 33 -33c9 0 19 2 29 6v-94c-18 -10 -46 -18 -70 -18zM79 -230l-5 40c43 6 55 19 54 53h-48v90h106v-81c0 -70 -38 -97 -107 -102z" />
    <glyph glyph-name="Thorn" unicode="&#xde;" horiz-adv-x="385" 
d="M36 0v700h122v-96h1c101 0 212 -62 212 -236v-2c0 -158 -88 -233 -212 -242h-1v-124h-122zM158 237h1c51 3 90 40 90 125v2c0 89 -34 127 -87 127h-4v-254z" />
    <glyph glyph-name="thorn" unicode="&#xfe;" horiz-adv-x="384" 
d="M33 -130v835h118v-236c17 32 42 77 94 77c64 0 114 -61 114 -254v-48c0 -191 -50 -254 -114 -254c-52 0 -76 43 -94 75v-195h-118zM197 103c30 0 44 52 44 147v36c0 96 -14 147 -44 147s-47 -51 -47 -147v-36c0 -95 17 -147 47 -147z" />
    <glyph glyph-name="Uacute" unicode="&#xda;" horiz-adv-x="416" 
d="M208 -9c-100 0 -174 66 -174 213v496h122v-508c0 -63 22 -87 52 -87s52 24 52 87v508h122v-496c0 -147 -74 -213 -174 -213zM157 730l86 127l101 -50l-99 -77h-88z" />
    <glyph glyph-name="uacute" unicode="&#xfa;" horiz-adv-x="379" 
d="M133 -10c-68 0 -103 58 -103 140v406h118v-379c0 -39 15 -61 39 -61s41 22 41 61v379h118v-536h-118v64c-21 -41 -48 -74 -95 -74zM141 570l86 147l93 -49l-99 -98h-80z" />
    <glyph glyph-name="Ubreve" unicode="&#x16c;" horiz-adv-x="416" 
d="M208 -9c-100 0 -174 66 -174 213v496h122v-508c0 -63 22 -87 52 -87s52 24 52 87v508h122v-496c0 -147 -74 -213 -174 -213zM208 719c-65 0 -114 36 -115 111h70c4 -27 19 -39 45 -39c24 0 41 12 45 39h70c-2 -75 -51 -111 -115 -111z" />
    <glyph glyph-name="ubreve" unicode="&#x16d;" horiz-adv-x="379" 
d="M133 -10c-68 0 -103 58 -103 140v406h118v-379c0 -39 15 -61 39 -61s41 22 41 61v379h118v-536h-118v64c-21 -41 -48 -74 -95 -74zM188 564c-62 0 -113 37 -118 119h70c4 -28 19 -47 48 -47s44 19 48 47h70c-5 -82 -56 -119 -118 -119z" />
    <glyph glyph-name="Ucircumflex" unicode="&#xdb;" horiz-adv-x="416" 
d="M208 -9c-100 0 -174 66 -174 213v496h122v-508c0 -63 22 -87 52 -87s52 24 52 87v508h122v-496c0 -147 -74 -213 -174 -213zM86 730l74 119h96l74 -119h-82l-41 48l-41 -48h-80z" />
    <glyph glyph-name="ucircumflex" unicode="&#xfb;" horiz-adv-x="379" 
d="M133 -10c-68 0 -103 58 -103 140v406h118v-379c0 -39 15 -61 39 -61s41 22 41 61v379h118v-536h-118v64c-21 -41 -48 -74 -95 -74zM66 570l78 139h88l78 -139h-77l-46 62l-46 -62h-75z" />
    <glyph glyph-name="Udieresis" unicode="&#xdc;" horiz-adv-x="416" 
d="M208 -9c-100 0 -174 66 -174 213v496h122v-508c0 -63 22 -87 52 -87s52 24 52 87v508h122v-496c0 -147 -74 -213 -174 -213zM229 733v108h108v-108h-108zM79 733v108h108v-108h-108z" />
    <glyph glyph-name="udieresis" unicode="&#xfc;" horiz-adv-x="379" 
d="M133 -10c-68 0 -103 58 -103 140v406h118v-379c0 -39 15 -61 39 -61s41 22 41 61v379h118v-536h-118v64c-21 -41 -48 -74 -95 -74zM206 574v108h106v-108h-106zM64 574v108h106v-108h-106z" />
    <glyph glyph-name="Ugrave" unicode="&#xd9;" horiz-adv-x="416" 
d="M208 -9c-100 0 -174 66 -174 213v496h122v-508c0 -63 22 -87 52 -87s52 24 52 87v508h122v-496c0 -147 -74 -213 -174 -213zM259 730h-88l-99 77l101 50z" />
    <glyph glyph-name="ugrave" unicode="&#xf9;" horiz-adv-x="379" 
d="M133 -10c-68 0 -103 58 -103 140v406h118v-379c0 -39 15 -61 39 -61s41 22 41 61v379h118v-536h-118v64c-21 -41 -48 -74 -95 -74zM155 570l-99 98l93 49l86 -147h-80z" />
    <glyph glyph-name="Uhungarumlaut" unicode="&#x170;" horiz-adv-x="416" 
d="M208 -9c-100 0 -174 66 -174 213v496h122v-508c0 -63 22 -87 52 -87s52 24 52 87v508h122v-496c0 -147 -74 -213 -174 -213zM220 730l44 64l-80 -64h-82l86 127l86 -48l32 48l91 -50l-95 -77h-82z" />
    <glyph glyph-name="uhungarumlaut" unicode="&#x171;" horiz-adv-x="379" 
d="M133 -10c-68 0 -103 58 -103 140v406h118v-379c0 -39 15 -61 39 -61s41 22 41 61v379h118v-536h-118v64c-21 -41 -48 -74 -95 -74zM87 570l86 147l83 -47l28 47l85 -48l-96 -99h-75l55 93l-91 -93h-75z" />
    <glyph glyph-name="Umacron" unicode="&#x16a;" horiz-adv-x="416" 
d="M208 -9c-100 0 -174 66 -174 213v496h122v-508c0 -63 22 -87 52 -87s52 24 52 87v508h122v-496c0 -147 -74 -213 -174 -213zM87 733v79h242v-79h-242z" />
    <glyph glyph-name="umacron" unicode="&#x16b;" horiz-adv-x="379" 
d="M133 -10c-68 0 -103 58 -103 140v406h118v-379c0 -39 15 -61 39 -61s41 22 41 61v379h118v-536h-118v64c-21 -41 -48 -74 -95 -74zM72 573v78h232v-78h-232z" />
    <glyph glyph-name="Uogonek" unicode="&#x172;" horiz-adv-x="416" 
d="M271 -79v-68c-15 -3 -29 -4 -41 -4c-62 0 -97 24 -97 71c0 31 12 53 32 76c-77 16 -131 83 -131 208v496h122v-508c0 -63 22 -87 52 -87s52 24 52 87v508h122v-496c0 -127 -55 -193 -134 -209c-13 -19 -18 -32 -18 -46c0 -23 15 -30 41 -28z" />
    <glyph glyph-name="uogonek" unicode="&#x173;" horiz-adv-x="379" 
d="M350 -79v-68c-15 -3 -29 -4 -41 -4c-62 0 -97 24 -97 71c0 33 14 56 36 80h-20v64c-21 -41 -48 -74 -95 -74c-68 0 -103 58 -103 140v406h118v-379c0 -39 15 -61 39 -61s41 22 41 61v379h118v-536h-16c-16 -21 -21 -36 -21 -51c0 -23 15 -30 41 -28z" />
    <glyph glyph-name="Uring" unicode="&#x16e;" horiz-adv-x="416" 
d="M208 -9c-100 0 -174 66 -174 213v496h122v-508c0 -63 22 -87 52 -87s52 24 52 87v508h122v-496c0 -147 -74 -213 -174 -213zM208 714c-48 0 -87 35 -87 84c0 48 39 84 87 84s87 -35 87 -84c0 -48 -39 -84 -87 -84zM208 758c22 0 39 17 39 40s-17 40 -39 40
s-39 -17 -39 -40s17 -40 39 -40z" />
    <glyph glyph-name="uring" unicode="&#x16f;" horiz-adv-x="379" 
d="M133 -10c-68 0 -103 58 -103 140v406h118v-379c0 -39 15 -61 39 -61s41 22 41 61v379h118v-536h-118v64c-21 -41 -48 -74 -95 -74zM188 564c-48 0 -87 37 -87 90c0 52 39 90 87 90s87 -37 87 -90c0 -52 -39 -90 -87 -90zM188 609c22 0 39 19 39 45s-17 45 -39 45
s-39 -19 -39 -45s17 -45 39 -45z" />
    <glyph glyph-name="Wacute" unicode="&#x1e82;" horiz-adv-x="592" 
d="M109 -2l-106 702h125l51 -429l61 429h113l60 -429l52 429h122l-106 -702h-128l-58 415l-58 -415h-128zM244 735l86 127l101 -50l-99 -77h-88z" />
    <glyph glyph-name="wacute" unicode="&#x1e83;" horiz-adv-x="526" 
d="M103 -2l-92 538h119l41 -309l47 309h92l47 -309l41 309h117l-91 -538h-112l-49 301l-48 -301h-112zM216 575l86 147l93 -49l-99 -98h-80z" />
    <glyph glyph-name="Wcircumflex" unicode="&#x174;" horiz-adv-x="592" 
d="M109 -2l-106 702h125l51 -429l61 429h113l60 -429l52 429h122l-106 -702h-128l-58 415l-58 -415h-128zM173 735l74 119h96l74 -119h-82l-41 48l-41 -48h-80z" />
    <glyph glyph-name="wcircumflex" unicode="&#x175;" horiz-adv-x="526" 
d="M103 -2l-92 538h119l41 -309l47 309h92l47 -309l41 309h117l-91 -538h-112l-49 301l-48 -301h-112zM141 575l78 139h88l78 -139h-77l-46 62l-46 -62h-75z" />
    <glyph glyph-name="Wdieresis" unicode="&#x1e84;" horiz-adv-x="592" 
d="M109 -2l-106 702h125l51 -429l61 429h113l60 -429l52 429h122l-106 -702h-128l-58 415l-58 -415h-128zM316 738v108h108v-108h-108zM166 738v108h108v-108h-108z" />
    <glyph glyph-name="wdieresis" unicode="&#x1e85;" horiz-adv-x="526" 
d="M103 -2l-92 538h119l41 -309l47 309h92l47 -309l41 309h117l-91 -538h-112l-49 301l-48 -301h-112zM281 578v108h106v-108h-106zM139 578v108h106v-108h-106z" />
    <glyph glyph-name="Wgrave" unicode="&#x1e80;" horiz-adv-x="592" 
d="M109 -2l-106 702h125l51 -429l61 429h113l60 -429l52 429h122l-106 -702h-128l-58 415l-58 -415h-128zM346 735h-88l-99 77l101 50z" />
    <glyph glyph-name="wgrave" unicode="&#x1e81;" horiz-adv-x="526" 
d="M103 -2l-92 538h119l41 -309l47 309h92l47 -309l41 309h117l-91 -538h-112l-49 301l-48 -301h-112zM230 575l-99 98l93 49l86 -147h-80z" />
    <glyph glyph-name="Yacute" unicode="&#xdd;" horiz-adv-x="382" 
d="M130 0v276l-130 424h126l66 -262l67 262h123l-130 -424v-276h-122zM140 730l86 127l101 -50l-99 -77h-88z" />
    <glyph glyph-name="yacute" unicode="&#xfd;" horiz-adv-x="362" 
d="M179 220l56 316h116l-148 -666h-115l34 149l-111 517h117zM134 570l86 147l93 -49l-99 -98h-80z" />
    <glyph glyph-name="Ycircumflex" unicode="&#x176;" horiz-adv-x="382" 
d="M130 0v276l-130 424h126l66 -262l67 262h123l-130 -424v-276h-122zM69 730l74 119h96l74 -119h-82l-41 48l-41 -48h-80z" />
    <glyph glyph-name="ycircumflex" unicode="&#x177;" horiz-adv-x="362" 
d="M179 220l56 316h116l-148 -666h-115l34 149l-111 517h117zM59 570l78 139h88l78 -139h-77l-46 62l-46 -62h-75z" />
    <glyph glyph-name="Ydieresis" unicode="&#x178;" horiz-adv-x="382" 
d="M130 0v276l-130 424h126l66 -262l67 262h123l-130 -424v-276h-122zM212 733v108h108v-108h-108zM62 733v108h108v-108h-108z" />
    <glyph glyph-name="ydieresis" unicode="&#xff;" horiz-adv-x="362" 
d="M179 220l56 316h116l-148 -666h-115l34 149l-111 517h117zM57 573v108h106v-108h-106zM199 573v108h106v-108h-106z" />
    <glyph glyph-name="Ygrave" unicode="&#x1ef2;" horiz-adv-x="382" 
d="M130 0v276l-130 424h126l66 -262l67 262h123l-130 -424v-276h-122zM242 730h-88l-99 77l101 50z" />
    <glyph glyph-name="ygrave" unicode="&#x1ef3;" horiz-adv-x="362" 
d="M179 220l56 316h116l-148 -666h-115l34 149l-111 517h117zM148 570l-99 98l93 49l86 -147h-80z" />
    <glyph glyph-name="Zacute" unicode="&#x179;" horiz-adv-x="340" 
d="M23 0v97l161 488h-155v115h289v-97l-161 -488h161v-115h-295zM122 735l86 127l101 -50l-99 -77h-88z" />
    <glyph glyph-name="zacute" unicode="&#x17a;" horiz-adv-x="290" 
d="M12 0v84l141 352h-136v100h262v-84l-141 -352h141v-100h-267zM102 575l86 147l93 -49l-99 -98h-80z" />
    <glyph glyph-name="Zcaron" unicode="&#x17d;" horiz-adv-x="340" 
d="M23 0v97l161 488h-155v115h289v-97l-161 -488h161v-115h-295zM295 854l-74 -119h-96l-74 119h82l41 -48l41 48h80z" />
    <glyph glyph-name="zcaron" unicode="&#x17e;" horiz-adv-x="290" 
d="M12 0v84l141 352h-136v100h262v-84l-141 -352h141v-100h-267zM271 714l-78 -139h-88l-78 139h77l46 -62l46 62h75z" />
    <glyph glyph-name="Zdotaccent" unicode="&#x17b;" horiz-adv-x="340" 
d="M23 0v97l161 488h-155v115h289v-97l-161 -488h161v-115h-295zM118 738v108h110v-108h-110z" />
    <glyph glyph-name="zdotaccent" unicode="&#x17c;" horiz-adv-x="290" 
d="M12 0v84l141 352h-136v100h262v-84l-141 -352h141v-100h-267zM95 578v108h108v-108h-108z" />
    <glyph glyph-name="schwa" unicode="&#x259;" horiz-adv-x="350" 
d="M146 546c100 0 184 -91 184 -264v-26c0 -172 -74 -264 -163 -264c-93 0 -152 93 -152 269v62h197c-7 84 -42 113 -81 113c-36 0 -59 -15 -94 -39l-9 108c41 27 73 41 118 41zM213 230h-87c0 -90 13 -133 41 -133c27 0 44 38 46 133z" />
    <glyph glyph-name="germandbls" unicode="&#xdf;" horiz-adv-x="402" 
d="M199 -2v101c45 6 66 43 66 106v3c0 57 -19 97 -66 110v86c37 25 52 66 52 116v6c0 50 -17 78 -49 78c-33 0 -51 -35 -51 -102v-502h-118v498c0 124 60 209 172 209c104 0 159 -77 159 -165v-8c0 -80 -31 -128 -77 -160c59 -29 95 -81 95 -166v-7
c0 -123 -61 -199 -183 -203z" />
    <glyph glyph-name="zero" unicode="0" horiz-adv-x="394" 
d="M197 -10c-113 0 -173 99 -173 341v38c0 242 60 341 173 341c111 0 173 -99 173 -341v-38c0 -242 -62 -341 -173 -341zM197 102c28 0 52 32 52 230v36c0 198 -24 230 -52 230c-29 0 -53 -32 -53 -230v-36c0 -198 24 -230 53 -230z" />
    <glyph glyph-name="one" unicode="1" horiz-adv-x="253" 
d="M87 0v571l-73 -23v123l108 34h87v-705h-122z" />
    <glyph glyph-name="two" unicode="2" horiz-adv-x="332" 
d="M21 0v103l127 268c40 85 51 121 51 154c0 35 -21 67 -67 67c-37 0 -69 -16 -97 -34v118c33 17 72 34 125 34c95 0 158 -60 158 -164v-5c0 -55 -13 -108 -54 -191l-113 -230h164v-120h-294z" />
    <glyph glyph-name="three" unicode="3" horiz-adv-x="328" 
d="M118 -10c-43 0 -75 7 -104 19v116c29 -12 51 -19 88 -19c49 0 87 36 87 100v8c0 73 -48 103 -122 108v80l114 179h-158v119h282v-109l-118 -183c71 -24 122 -74 122 -185v-11c0 -138 -81 -222 -191 -222z" />
    <glyph glyph-name="three.alt" horiz-adv-x="328" 
d="M120 -10c-42 0 -76 7 -106 19v116c28 -12 55 -19 82 -19c59 0 95 39 95 100v3c0 64 -42 101 -122 103v101c72 6 120 46 120 107v2c0 45 -30 73 -75 73c-33 0 -60 -11 -90 -27v113c34 17 67 29 114 29c93 0 169 -57 169 -174v-4c0 -84 -48 -137 -99 -161
c58 -24 103 -74 103 -168v-5c0 -132 -83 -208 -191 -208z" />
    <glyph glyph-name="four" unicode="4" horiz-adv-x="386" 
d="M204 0v129h-190v93l184 480h120v-468h57v-105h-57v-129h-114zM113 234h91v256z" />
    <glyph glyph-name="five" unicode="5" horiz-adv-x="333" 
d="M122 -10c-35 0 -70 9 -93 19v119c23 -12 53 -21 80 -21c57 0 89 47 89 122v7c0 74 -27 100 -67 100c-18 0 -31 -3 -48 -10l-59 39l19 335h249v-116h-159l-9 -142c13 3 27 5 47 5c74 0 147 -54 147 -210v-9c0 -152 -80 -238 -196 -238z" />
    <glyph glyph-name="six" unicode="6" horiz-adv-x="368" 
d="M188 -10c-38 0 -69 11 -95 37c-46 46 -69 139 -69 290v26c0 289 83 367 197 367c37 0 61 -7 84 -16v-115c-19 11 -46 21 -71 21c-55 0 -93 -38 -94 -177c25 21 46 30 79 30c64 0 131 -49 131 -204v-21c0 -144 -68 -238 -162 -238zM189 99c30 0 47 38 47 124v22
c0 80 -23 107 -52 107c-20 0 -32 -8 -43 -18v-86c0 -108 19 -149 48 -149z" />
    <glyph glyph-name="seven" unicode="7" horiz-adv-x="331" 
d="M57 0l133 577h-175v123h292v-86l-131 -614h-119z" />
    <glyph glyph-name="eight" unicode="8" horiz-adv-x="372" 
d="M186 -10c-96 0 -166 76 -166 204v7c0 92 43 148 81 174c-45 29 -71 80 -71 149v6c0 112 71 180 156 180s156 -68 156 -180v-6c0 -69 -26 -120 -71 -149c38 -26 81 -82 81 -174v-7c0 -128 -70 -204 -166 -204zM186 412c27 0 44 32 44 100v6c0 73 -20 96 -44 96
s-44 -23 -44 -96v-6c0 -68 17 -100 44 -100zM186 87c28 0 49 28 49 113v7c0 81 -21 111 -49 111s-49 -30 -49 -111v-7c0 -85 21 -113 49 -113z" />
    <glyph glyph-name="nine" unicode="9" horiz-adv-x="368" 
d="M134 100c53 0 91 38 94 168c-25 -21 -48 -29 -79 -29c-66 0 -131 50 -131 211v16c0 152 68 244 162 244c38 0 69 -11 95 -37c46 -46 69 -139 69 -290v-26c0 -289 -83 -367 -197 -367c-37 0 -66 8 -94 19v115c25 -13 54 -24 81 -24zM184 340c19 0 32 8 43 18v94
c0 108 -19 149 -48 149c-30 0 -47 -37 -47 -130v-17c0 -86 20 -114 52 -114z" />
    <glyph glyph-name="period" unicode="." horiz-adv-x="218" 
d="M40 0v139h138v-139h-138z" />
    <glyph glyph-name="comma" unicode="," horiz-adv-x="218" 
d="M28 -162l-10 49c74 16 89 69 84 113h-62v139h138v-114c0 -106 -51 -174 -150 -187z" />
    <glyph glyph-name="colon" unicode=":" horiz-adv-x="228" 
d="M45 397v139h138v-139h-138zM45 0v139h138v-139h-138z" />
    <glyph glyph-name="semicolon" unicode=";" horiz-adv-x="228" 
d="M45 397v139h138v-139h-138zM33 -162l-10 49c74 16 89 69 84 113h-62v139h138v-114c0 -106 -51 -174 -150 -187z" />
    <glyph glyph-name="ellipsis" unicode="&#x2026;" horiz-adv-x="734" 
d="M546 0v139h138v-139h-138zM298 0v139h138v-139h-138zM50 0v139h138v-139h-138z" />
    <glyph glyph-name="periodcentered" unicode="&#xb7;" horiz-adv-x="238" 
d="M50 240v139h138v-139h-138z" />
    <glyph glyph-name="bullet" unicode="&#x2022;" horiz-adv-x="351" 
d="M175 203c-64 0 -111 48 -111 142v18c0 94 47 142 111 142s111 -48 111 -142v-18c0 -94 -47 -142 -111 -142z" />
    <glyph glyph-name="ampersand" unicode="&#x26;" horiz-adv-x="434" 
d="M345 -13l-34 62c-33 -37 -69 -59 -130 -59c-90 0 -168 75 -168 189v6c0 85 40 148 107 206c-39 63 -59 110 -59 159v7c0 84 58 153 145 153c85 0 141 -62 141 -152v-7c0 -80 -38 -136 -99 -188l63 -120c5 22 9 52 15 94l94 -17c-9 -79 -25 -135 -45 -180l58 -99zM200 445
c31 30 43 66 43 103v8c0 34 -16 56 -39 56c-24 0 -39 -22 -39 -52v-10c0 -28 11 -59 35 -105zM196 96c26 0 46 12 63 33l-88 174c-26 -32 -41 -74 -41 -109v-8c0 -54 26 -90 66 -90z" />
    <glyph glyph-name="exclam" unicode="!" horiz-adv-x="222" 
d="M81 218l-42 462v20h144v-20l-42 -462h-60zM42 0v139h138v-139h-138z" />
    <glyph glyph-name="exclamdown" unicode="&#xa1;" horiz-adv-x="222" 
d="M42 561v139h138v-139h-138zM39 0v20l42 462h60l42 -462v-20h-144z" />
    <glyph glyph-name="question" unicode="?" horiz-adv-x="320" 
d="M97 218l-11 175l4 5c57 18 96 57 96 114v2c0 46 -34 79 -81 79c-34 0 -62 -10 -85 -24v110c31 15 61 26 109 26c106 0 177 -76 177 -179v-9c0 -99 -55 -151 -117 -179l-12 -120h-80zM70 0v139h138v-139h-138z" />
    <glyph glyph-name="questiondown" unicode="&#xbf;" horiz-adv-x="320" 
d="M112 561v139h138v-139h-138zM191 -5c-106 0 -177 76 -177 179v9c0 99 55 151 117 179l12 120h80l11 -175l-4 -5c-57 -18 -96 -57 -96 -114v-2c0 -46 34 -79 81 -79c34 0 62 10 85 24v-110c-31 -15 -61 -26 -109 -26z" />
    <glyph glyph-name="quotedblleft" unicode="&#x201c;" horiz-adv-x="415" 
d="M230 402v114c0 106 51 174 150 187l10 -49c-74 -16 -89 -69 -84 -113h62v-139h-138zM40 402v114c0 106 51 174 150 187l10 -49c-74 -16 -89 -69 -84 -113h62v-139h-138z" />
    <glyph glyph-name="quotedblright" unicode="&#x201d;" horiz-adv-x="415" 
d="M225 399l-10 49c74 16 89 69 84 113h-62v139h138v-114c0 -106 -51 -174 -150 -187zM35 399l-10 49c74 16 89 69 84 113h-62v139h138v-114c0 -106 -51 -174 -150 -187z" />
    <glyph glyph-name="quoteleft" unicode="&#x2018;" horiz-adv-x="225" 
d="M40 402v114c0 106 51 174 150 187l10 -49c-74 -16 -89 -69 -84 -113h62v-139h-138z" />
    <glyph glyph-name="quoteright" unicode="&#x2019;" horiz-adv-x="225" 
d="M35 399l-10 49c74 16 89 69 84 113h-62v139h138v-114c0 -106 -51 -174 -150 -187z" />
    <glyph glyph-name="quotedblbase" unicode="&#x201e;" horiz-adv-x="450" 
d="M238 -162l-10 49c83 17 101 69 96 113h-62v139h138v-114c0 -106 -51 -173 -162 -187zM38 -162l-10 49c83 17 101 69 96 113h-62v139h138v-114c0 -106 -51 -173 -162 -187z" />
    <glyph glyph-name="quotesinglbase" unicode="&#x201a;" horiz-adv-x="250" 
d="M38 -162l-10 49c83 17 101 69 96 113h-62v139h138v-114c0 -106 -51 -173 -162 -187z" />
    <glyph glyph-name="guillemotleft" unicode="&#xab;" horiz-adv-x="454" 
d="M167 43l-144 221v8l144 221l82 -48l-98 -176l101 -176zM350 43l-144 221v8l144 221l82 -48l-98 -176l101 -176z" />
    <glyph glyph-name="guillemotright" unicode="&#xbb;" horiz-adv-x="454" 
d="M287 493l144 -221v-8l-144 -221l-82 48l98 176l-101 176zM104 493l144 -221v-8l-144 -221l-82 48l98 176l-101 176z" />
    <glyph glyph-name="guilsinglleft" unicode="&#x2039;" horiz-adv-x="271" 
d="M167 43l-144 221v8l144 221l82 -48l-98 -176l101 -176z" />
    <glyph glyph-name="guilsinglright" unicode="&#x203a;" horiz-adv-x="271" 
d="M104 493l144 -221v-8l-144 -221l-82 48l98 176l-101 176z" />
    <glyph glyph-name="hyphen" unicode="-" horiz-adv-x="336" 
d="M39 250v120h258v-120h-258z" />
    <glyph glyph-name="endash" unicode="&#x2013;" horiz-adv-x="456" 
d="M39 251v118h378v-118h-378z" />
    <glyph glyph-name="emdash" unicode="&#x2014;" horiz-adv-x="674" 
d="M39 251v118h596v-118h-596z" />
    <glyph glyph-name="underscore" unicode="_" horiz-adv-x="452" 
d="M-2 -151v92h456v-92h-456z" />
    <glyph glyph-name="slash" unicode="/" horiz-adv-x="308" 
d="M-9 -98l219 866h99l-219 -866h-99z" />
    <glyph glyph-name="backslash" unicode="\" horiz-adv-x="308" 
d="M218 -98l-219 866h99l219 -866h-99z" />
    <glyph glyph-name="bar" unicode="|" horiz-adv-x="249" 
d="M78 -98v866h93v-866h-93z" />
    <glyph glyph-name="parenleft" unicode="(" horiz-adv-x="299" 
d="M272 -139c-167 49 -230 222 -230 427c0 203 63 377 230 426v-88c-86 -45 -117 -176 -117 -338c0 -163 31 -294 117 -339v-88z" />
    <glyph glyph-name="parenright" unicode=")" horiz-adv-x="299" 
d="M27 -139v88c86 45 117 176 117 339c0 162 -31 293 -117 338v88c167 -49 230 -223 230 -426c0 -205 -63 -378 -230 -427z" />
    <glyph glyph-name="bracketleft" unicode="[" horiz-adv-x="286" 
d="M62 -130v830h196v-84h-93v-662h93v-84h-196z" />
    <glyph glyph-name="bracketright" unicode="]" horiz-adv-x="286" 
d="M28 -130v84h93v662h-93v84h196v-830h-196z" />
    <glyph glyph-name="braceleft" unicode="{" horiz-adv-x="311" 
d="M281 -141c-126 3 -186 70 -186 163c0 51 27 81 27 139c0 50 -31 78 -79 78h-19v96h19c46 0 79 28 79 78c0 58 -27 88 -27 139c0 93 60 160 186 163v-80c-41 -1 -83 -28 -83 -79c0 -61 31 -90 31 -145c0 -72 -51 -114 -119 -124c68 -10 119 -51 119 -124
c0 -55 -31 -84 -31 -145c0 -51 42 -78 83 -79v-80z" />
    <glyph glyph-name="braceright" unicode="}" horiz-adv-x="311" 
d="M30 -141v80c41 1 83 28 83 79c0 61 -31 90 -31 145c0 72 51 114 119 124c-68 10 -119 51 -119 124c0 55 31 84 31 145c0 51 -42 78 -83 79v80c126 -3 186 -70 186 -163c0 -51 -27 -81 -27 -139c0 -50 31 -78 79 -78h19v-96h-19c-46 0 -79 -28 -79 -78
c0 -58 27 -88 27 -139c0 -93 -60 -160 -186 -163z" />
    <glyph glyph-name="at" unicode="@" horiz-adv-x="636" 
d="M298 -137c-153 0 -273 116 -271 352c1 253 126 496 334 496c148 0 246 -139 246 -305c0 -169 -57 -338 -168 -338c-63 0 -92 36 -99 81c-26 -47 -57 -77 -98 -77c-47 0 -85 39 -85 120c0 164 67 315 147 315c42 0 63 -32 72 -64l10 56l96 -16l-44 -254
c-4 -22 -7 -41 -7 -67c0 -32 11 -45 31 -45c54 0 101 140 101 294c0 139 -76 258 -207 258c-173 0 -285 -229 -285 -459c-1 -199 94 -306 232 -306c51 0 99 11 146 39l21 -35c-55 -33 -103 -45 -172 -45zM285 156c7 0 13 3 20 10c34 34 51 153 51 203c0 33 -11 45 -28 45
c-7 0 -13 -3 -20 -10c-34 -34 -51 -153 -51 -203c0 -33 11 -45 28 -45z" />
    <glyph glyph-name="copyright" unicode="&#xa9;" horiz-adv-x="522" 
d="M261 -10c-140 0 -237 132 -237 343v34c0 211 97 343 237 343s237 -132 237 -343v-34c0 -211 -97 -343 -237 -343zM261 26c124 0 199 121 199 306v36c0 185 -75 306 -199 306s-199 -121 -199 -306v-36c0 -185 75 -306 199 -306zM272 151c-62 0 -109 57 -109 191v18
c0 135 50 191 113 191c19 0 30 -2 44 -9v-72c-14 8 -25 13 -37 13c-30 0 -50 -26 -50 -122v-20c0 -101 20 -122 51 -122c10 0 23 4 37 13v-69c-15 -9 -30 -12 -49 -12z" />
    <glyph glyph-name="published" unicode="&#x2117;" horiz-adv-x="522" 
d="M261 -10c-140 0 -237 132 -237 343v34c0 211 97 343 237 343s237 -132 237 -343v-34c0 -211 -97 -343 -237 -343zM261 26c124 0 199 121 199 306v36c0 185 -75 306 -199 306s-199 -121 -199 -306v-36c0 -185 75 -306 199 -306zM187 164v385h60c73 0 124 -39 124 -129v-2
c0 -87 -48 -128 -116 -133h-1v-121h-67zM254 347h1c28 2 49 22 49 69v1c0 49 -18 70 -48 70h-2v-140z" />
    <glyph glyph-name="registered.alt" horiz-adv-x="522" 
d="M261 -10c-140 0 -237 132 -237 343v34c0 211 97 343 237 343s237 -132 237 -343v-34c0 -211 -97 -343 -237 -343zM261 26c124 0 199 121 199 306v36c0 185 -75 306 -199 306s-199 -121 -199 -306v-36c0 -185 75 -306 199 -306zM171 164v385h70c35 0 66 -10 86 -30
c21 -21 32 -51 32 -93v-5c0 -50 -19 -82 -45 -101l52 -156h-71l-44 134h-13v-134h-67zM238 359h4c29 0 50 17 50 62v4c0 49 -23 61 -52 61h-2v-127z" />
    <glyph glyph-name="registered" unicode="&#xae;" horiz-adv-x="312" 
d="M156 355c-75 0 -127 68 -127 173v16c0 105 52 173 127 173s127 -68 127 -173v-16c0 -105 -52 -173 -127 -173zM156 378c64 0 102 61 102 150v16c0 89 -38 150 -102 150s-102 -61 -102 -150v-16c0 -89 38 -150 102 -150zM108 443v192h41c38 0 62 -21 62 -61v-3
c0 -25 -12 -42 -26 -51l29 -77h-37l-25 66h-10v-66h-34zM142 540h7c15 0 26 10 26 31v2c0 24 -12 30 -27 30h-6v-63z" />
    <glyph glyph-name="servicemark" unicode="&#x2120;" horiz-adv-x="441" 
d="M198 385v315h67l36 -105l36 105h67v-315h-62v191l-41 -120h-1l-39 120v-191h-63zM81 383c-23 0 -46 5 -62 14v65c19 -11 38 -19 55 -19c14 0 25 8 25 23c0 14 -5 24 -27 46c-39 38 -58 58 -58 104c0 53 37 86 83 86c24 0 41 -3 55 -10v-66c-17 10 -33 15 -48 15
c-13 0 -24 -9 -24 -22c0 -14 5 -21 27 -44c43 -43 58 -65 58 -106c0 -52 -39 -86 -84 -86z" />
    <glyph glyph-name="trademark" unicode="&#x2122;" horiz-adv-x="431" 
d="M188 385v315h67l36 -105l36 105h67v-315h-62v191l-41 -120h-1l-39 120v-191h-63zM54 385v253h-39v62h142v-62h-39v-253h-64z" />
    <glyph glyph-name="asterisk" unicode="*" horiz-adv-x="298" 
d="M109 394l18 112l-74 -66l-40 70l91 37l-91 37l40 70l74 -66l-18 112h80l-18 -112l74 66l40 -70l-91 -37l91 -37l-40 -70l-74 66l18 -112h-80z" />
    <glyph glyph-name="dagger" unicode="&#x2020;" horiz-adv-x="238" 
d="M79 238l13 272l-74 -10v79l73 -11l-15 132h86l-15 -132l73 11v-79l-74 10l13 -272h-80z" />
    <glyph glyph-name="daggerdbl" unicode="&#x2021;" horiz-adv-x="256" 
d="M85 0l15 131l-73 -10v79l74 -11l-15 161l15 160l-74 -10v79l73 -11l-15 132h86l-15 -132l73 11v-79l-74 10l14 -160l-14 -161l74 11v-79l-73 10l15 -131h-86z" />
    <glyph glyph-name="dollar" unicode="$" horiz-adv-x="350" 
d="M303 683v-125c-38 22 -61 32 -93 32c-34 0 -63 -22 -63 -63c0 -29 10 -49 68 -116c96 -111 117 -158 117 -233c0 -88 -49 -153 -118 -175v-110h-79v103c-38 3 -71 14 -100 28v125c43 -25 71 -39 108 -39c39 0 67 23 67 69c0 23 -7 55 -67 120c-86 94 -118 143 -118 224
c0 86 43 148 110 171v80h79v-70c37 -2 65 -11 89 -21z" />
    <glyph glyph-name="sterling" unicode="&#xa3;" horiz-adv-x="350" 
d="M22 0v81l49 24v175h-46v111h46v111c0 76 14 125 51 162c27 27 69 44 118 44c35 0 57 -4 76 -9v-120c-14 5 -34 10 -55 10c-20 0 -36 -6 -48 -18c-16 -16 -20 -41 -20 -68v-112h96v-111h-96v-169h142v-111h-313z" />
    <glyph glyph-name="Euro" unicode="&#x20ac;" horiz-adv-x="379" 
d="M354 694v-126c-25 15 -45 23 -68 23c-40 0 -72 -28 -86 -113h101v-90h-108v-24v-28v-20h108v-90h-102c13 -93 46 -117 89 -117c19 0 43 7 68 22v-120c-28 -16 -55 -21 -90 -21c-94 0 -168 71 -191 236h-60v90h54v21v26v25h-54v90h62c24 163 103 232 197 232
c34 0 54 -4 80 -16z" />
    <glyph glyph-name="yen" unicode="&#xa5;" horiz-adv-x="402" 
d="M55 249v92h65l-110 359h122l70 -285l71 285h119l-110 -359h65v-92h-87v-60h87v-92h-87v-97h-118v97h-87v92h87v60h-87z" />
    <glyph glyph-name="cent" unicode="&#xa2;" horiz-adv-x="300" 
d="M214 705v-77c21 -1 35 -5 54 -13v-121c-20 12 -38 20 -59 20c-37 0 -64 -38 -64 -144v-36c0 -104 27 -144 66 -144c17 0 38 10 58 23v-116c-20 -11 -36 -18 -55 -21v-82h-79v91c-68 29 -110 113 -110 251v32c0 135 44 218 110 248v89h79z" />
    <glyph glyph-name="baht" unicode="&#xe3f;" horiz-adv-x="392" 
d="M200 793h79l-14 -116c61 -25 103 -74 103 -155v-5c0 -90 -51 -134 -101 -158c59 -26 110 -67 110 -156v-9c0 -112 -79 -180 -195 -192l-14 -125h-79l14 123h-67v700h104c16 0 32 -1 48 -3zM156 113h3c56 0 96 33 96 91v5c0 58 -40 91 -96 91h-3v-187zM156 406h2
c54 0 90 31 90 92v2c0 61 -36 87 -90 87h-2v-181z" />
    <glyph glyph-name="colonmonetary" unicode="&#x20a1;" horiz-adv-x="334" 
d="M255 779h36l-8 -80c8 -3 17 -6 26 -10v-126c-25 15 -45 23 -68 23c-54 0 -93 -48 -93 -223v-26c0 -185 39 -223 95 -223c19 0 43 7 68 22v-120c-28 -16 -55 -21 -90 -21h-13l-12 -113h-36l13 119c-18 6 -35 15 -51 27l-16 -146h-36l20 179c-41 55 -66 144 -66 277v24
c0 190 54 291 132 327l9 90h36l-8 -78c12 3 24 4 36 4c6 0 12 0 18 -1z" />
    <glyph glyph-name="florin" unicode="&#x192;" horiz-adv-x="333" 
d="M66 -5c-24 0 -41 3 -55 6v106c8 -2 14 -3 26 -3c23 0 40 14 43 51l15 207h-45v96h52l7 97c7 99 61 150 141 150c37 0 57 -4 72 -8v-107c-11 3 -23 6 -39 6c-32 0 -54 -19 -57 -63l-6 -75h81v-96h-88l-16 -222c-8 -106 -57 -145 -131 -145z" />
    <glyph glyph-name="naira" unicode="&#x20a6;" horiz-adv-x="532" 
d="M520 192h-76v-192h-108l-69 198l-60 173v-371h-119v192h-76v104h76v112h-76v104h76v188h114l59 -169l64 -185v354h119v-188h76v-104h-76v-111h76v-105z" />
    <glyph glyph-name="peso" unicode="&#x20b1;" horiz-adv-x="498" 
d="M79 0v403h-76v104h76v193h109c121 0 209 -60 224 -193h78v-104h-81c-19 -118 -100 -175 -207 -183h-1v-220h-122zM202 333c51 3 90 40 90 125v2c0 89 -34 127 -87 127h-4v-254h1z" />
    <glyph glyph-name="R_p" horiz-adv-x="710" 
d="M30 0v700h120c113 0 193 -66 193 -223v-9c0 -91 -30 -146 -73 -183l84 -285h-121l-72 247h-17v-247h-114zM386 -130v666h110v-67c15 32 38 77 88 77c61 0 107 -61 107 -254v-48c0 -191 -46 -254 -107 -254c-50 0 -72 43 -88 75v-195h-110zM535 98c29 0 38 52 38 147v46
c0 96 -9 147 -38 147c-28 0 -40 -51 -40 -147v-46c0 -95 12 -147 40 -147zM144 351h5c46 0 81 33 81 118v8c0 91 -37 115 -83 115h-3v-241z" />
    <glyph glyph-name="rupee" unicode="&#x20a8;" horiz-adv-x="627" 
d="M30 0v700h120c113 0 193 -66 193 -223v-9c0 -91 -30 -146 -73 -183l84 -285h-121l-72 247h-17v-247h-114zM482 -10c-34 0 -73 8 -106 23v110c39 -20 70 -30 99 -30c24 0 42 17 42 44v2c0 25 -7 43 -57 93c-53 53 -86 97 -86 165v2c0 89 56 145 145 145c32 0 56 -2 86 -12
v-110c-26 12 -53 19 -79 19c-27 0 -44 -16 -44 -39v-2c0 -22 7 -38 61 -92c64 -64 82 -103 82 -164v-2c0 -93 -60 -152 -143 -152zM144 351h5c46 0 81 33 81 118v8c0 91 -37 115 -83 115h-3v-241z" />
    <glyph glyph-name="won" unicode="&#x20a9;" horiz-adv-x="685" 
d="M634 700l-29 -188h78v-104h-93l-17 -111h110v-105h-126l-29 -194h-128l-32 229l-26 186l-26 -186l-32 -229h-128l-30 194h-124v104h109l-17 112h-92v104h76l-28 188h125l24 -202l27 -227l33 232l28 197h113l28 -200l32 -229l52 429h122z" />
    <glyph glyph-name="sheqel" unicode="&#x20aa;" horiz-adv-x="454" 
d="M162 139l-17 183h60l13 -125c5 -52 24 -74 57 -74h60v413h82v-536h-142c-61 0 -104 44 -113 139zM241 338c0 49 -17 75 -49 75h-73v-413h-82v536h171c51 0 93 -47 93 -126v-196h-60v124z" />
    <glyph glyph-name="numbersign" unicode="#" horiz-adv-x="377" 
d="M346 268v-108h-65l-14 -160h-77l14 160h-64l-14 -160h-77l14 160h-50v108h59l15 168h-56v108h65l14 156h77l-14 -156h64l14 156h77l-14 -156h50v-108h-59l-15 -168h56zM164 436l-15 -168h64l15 168h-64z" />
    <glyph glyph-name="paragraph" unicode="&#xb6;" horiz-adv-x="360" 
d="M197 0v224c-90 10 -183 80 -183 238v2c0 172 104 236 231 236h74v-700h-122z" />
    <glyph glyph-name="section" unicode="&#xa7;" horiz-adv-x="409" 
d="M309 222c21 -25 32 -55 32 -88v-1c0 -87 -65 -143 -156 -143c-40 0 -65 6 -93 17v112c33 -15 63 -23 86 -23c31 0 48 17 48 37v1c0 27 -20 41 -87 79c-65 37 -122 72 -122 147v2c0 46 30 93 84 116c-21 25 -32 55 -32 88v1c0 87 65 143 156 143c40 0 65 -6 93 -17v-112
c-33 15 -63 23 -86 23c-31 0 -48 -17 -48 -37v-1c0 -27 20 -41 87 -79c65 -37 122 -72 122 -147v-2c0 -46 -30 -93 -84 -116zM252 272c21 17 27 38 27 51v2c0 22 -10 43 -108 96l-13 7c-21 -17 -27 -38 -27 -51v-2c0 -22 10 -43 108 -96z" />
    <glyph glyph-name="ordfeminine" unicode="&#xaa;" horiz-adv-x="250" 
d="M93 402c-32 0 -56 33 -56 87v9c0 66 26 93 65 93c14 0 27 -4 40 -11v17c0 30 -15 46 -42 46c-16 0 -33 -7 -49 -14v62c20 9 37 13 62 13c33 0 58 -11 73 -31c13 -17 20 -42 20 -72v-194h-65v32c-12 -24 -27 -37 -48 -37zM32 302v48h186v-48h-186zM120 457
c11 0 22 9 22 28v50c-5 2 -15 6 -21 6c-13 0 -22 -11 -22 -39v-7c0 -29 9 -38 21 -38z" />
    <glyph glyph-name="ordmasculine" unicode="&#xba;" horiz-adv-x="250" 
d="M125 401c-53 0 -91 49 -91 143v18c0 94 38 143 91 143s91 -49 91 -143v-18c0 -94 -38 -143 -91 -143zM35 302v48h180v-48h-180zM125 458c17 0 26 28 26 85v20c0 58 -9 85 -26 85s-26 -27 -26 -85v-20c0 -57 9 -85 26 -85z" />
    <glyph glyph-name="degree" unicode="&#xb0;" horiz-adv-x="274" 
d="M137 362c-68 0 -112 67 -112 166v12c0 99 44 166 112 166s112 -67 112 -166v-12c0 -99 -44 -166 -112 -166zM137 438c20 0 35 22 35 90v12c0 68 -15 90 -35 90s-35 -22 -35 -90v-12c0 -68 15 -90 35 -90z" />
    <glyph glyph-name="percent" unicode="%" horiz-adv-x="570" 
d="M137 332c-68 0 -112 67 -112 176v22c0 109 44 176 112 176s112 -67 112 -176v-22c0 -109 -44 -176 -112 -176zM137 625c-19 0 -30 -22 -30 -96v-20c0 -74 11 -96 30 -96s30 22 30 96v20c0 74 -11 96 -30 96zM258 364l156 336h71l-171 -364l-156 -336h-71zM433 -6
c-68 0 -112 67 -112 176v22c0 109 44 176 112 176s112 -67 112 -176v-22c0 -109 -44 -176 -112 -176zM433 75c19 0 30 22 30 96v20c0 74 -11 96 -30 96s-30 -22 -30 -96v-20c0 -74 11 -96 30 -96z" />
    <glyph glyph-name="perthousand" unicode="&#x2030;" horiz-adv-x="829" 
d="M137 413c19 0 30 22 30 96v20c0 74 -11 96 -30 96s-30 -22 -30 -96v-20c0 -74 11 -96 30 -96zM137 332c-68 0 -112 67 -112 176v22c0 109 44 176 112 176s112 -67 112 -176v-22c0 -109 -44 -176 -112 -176zM485 700l-171 -364l-156 -336h-71l171 364l156 336h71zM433 75
c19 0 30 22 30 96v20c0 74 -11 96 -30 96s-30 -22 -30 -96v-20c0 -74 11 -96 30 -96zM433 -6c-68 0 -112 67 -112 176v22c0 109 44 176 112 176s112 -67 112 -176v-22c0 -109 -44 -176 -112 -176zM692 75c19 0 30 22 30 96v20c0 74 -11 96 -30 96s-30 -22 -30 -96v-20
c0 -74 11 -96 30 -96zM692 -6c-68 0 -112 67 -112 176v22c0 109 44 176 112 176s112 -67 112 -176v-22c0 -109 -44 -176 -112 -176z" />
    <glyph glyph-name="quotedbl" unicode="&#x22;" horiz-adv-x="345" 
d="M210 381v319h120v-9l-76 -310h-44zM45 381v319h120v-9l-76 -310h-44z" />
    <glyph glyph-name="quotesingle" unicode="'" horiz-adv-x="180" 
d="M45 381v319h120v-9l-76 -310h-44z" />
    <glyph glyph-name="plus" unicode="+" horiz-adv-x="380" 
d="M135 173v122h-113v114h113v122h110v-122h113v-114h-113v-122h-110z" />
    <glyph glyph-name="minus" unicode="&#x2212;" horiz-adv-x="380" 
d="M356 292h-332v120h332v-120z" />
    <glyph glyph-name="divide" unicode="&#xf7;" horiz-adv-x="380" 
d="M133 458v116h114v-116h-114zM356 297h-332v110h332v-110zM133 130v116h114v-116h-114z" />
    <glyph glyph-name="equal" unicode="=" horiz-adv-x="380" 
d="M24 388v120h332v-120h-332zM24 196v120h332v-120h-332z" />
    <glyph glyph-name="multiply" unicode="&#xd7;" horiz-adv-x="380" 
d="M277 169l-87 102l-88 -102l-86 70l102 113l-102 113l87 70l87 -102l88 102l86 -70l-102 -113l102 -113z" />
    <glyph glyph-name="less" unicode="&#x3c;" horiz-adv-x="380" 
d="M346 106l-317 192v108l317 192v-141l-193 -104l193 -104v-143z" />
    <glyph glyph-name="greater" unicode="&#x3e;" horiz-adv-x="380" 
d="M34 106v141l192 104l-192 104v143l317 -192v-108z" />
    <glyph glyph-name="plusminus" unicode="&#xb1;" horiz-adv-x="380" 
d="M358 295h-113v-122h-110v122h-113v114h113v122h110v-122h113v-114zM356 0h-332v107h332v-107z" />
    <glyph glyph-name="onehalf" unicode="&#xbd;" horiz-adv-x="495" 
d="M276 0v64l75 115c22 34 34 51 34 71s-13 33 -34 33s-41 -11 -68 -40v78c19 18 46 34 82 34c56 0 98 -33 98 -94c0 -24 -5 -52 -36 -98l-60 -91h94v-72h-185zM152 350h-79v271l-52 -24v75l75 31h56v-353zM50 0l150 364l131 336h63l-150 -364l-131 -336h-63z" />
    <glyph glyph-name="onehalf.alt" horiz-adv-x="540" 
d="M218 350h-189v66h61v208l-59 -24v73l79 30h56v-287h52v-66zM330 0v64l75 115c22 34 34 51 34 71s-13 33 -34 33s-41 -11 -68 -40v78c19 18 46 34 82 34c56 0 98 -33 98 -94c0 -24 -5 -52 -36 -98l-60 -91h94v-72h-185zM105 0l150 364l131 336h63l-150 -364l-131 -336h-63
z" />
    <glyph glyph-name="onethird" unicode="&#x2153;" horiz-adv-x="495" 
d="M368 -5c-38 0 -64 15 -77 25v72c14 -13 41 -28 67 -28c30 0 47 16 47 43s-27 41 -76 42h-2l-1 52l61 79h-94v70h186v-56l-74 -89c42 -11 77 -38 77 -96c0 -71 -48 -114 -114 -114zM152 350h-79v271l-52 -24v75l75 31h56v-353zM50 0l150 364l131 336h63l-150 -364
l-131 -336h-63z" />
    <glyph glyph-name="onethird.alt" horiz-adv-x="540" 
d="M218 350h-189v66h61v208l-59 -24v73l79 30h56v-287h52v-66zM410 -5c-38 0 -64 15 -77 25v72c14 -13 41 -28 67 -28c30 0 47 16 47 43s-27 41 -76 42h-2l-1 52l61 79h-94v70h186v-56l-74 -89c42 -11 77 -38 77 -96c0 -71 -48 -114 -114 -114zM100 0l150 364l131 336h63
l-150 -364l-131 -336h-63z" />
    <glyph glyph-name="twothirds" unicode="&#x2154;" horiz-adv-x="540" 
d="M420 -5c-38 0 -64 15 -77 25v72c14 -13 41 -28 67 -28c30 0 47 16 47 43s-27 41 -76 42h-2l-1 52l61 79h-94v70h186v-56l-74 -89c42 -11 77 -38 77 -96c0 -71 -48 -114 -114 -114zM24 350v64l75 115c22 34 34 51 34 71s-13 33 -34 33s-41 -11 -68 -40v78
c19 18 46 34 82 34c56 0 98 -33 98 -94c0 -24 -5 -52 -36 -98l-60 -91h94v-72h-185zM98 0l150 364l131 336h63l-150 -364l-131 -336h-63z" />
    <glyph glyph-name="onequarter" unicode="&#xbc;" horiz-adv-x="495" 
d="M152 350h-79v271l-52 -24v75l75 31h56v-353zM65 0l150 364l131 336h63l-150 -364l-131 -336h-63zM444 64v-64h-68v64h-117v66l84 222h101v-223h27v-65h-27zM380 129v140h-7l-53 -140h60z" />
    <glyph glyph-name="onequarter.alt" horiz-adv-x="540" 
d="M223 350h-189v66h61v208l-59 -24v73l79 30h56v-287h52v-66zM115 0l150 364l131 336h63l-150 -364l-131 -336h-63zM491 64v-64h-68v64h-117v66l84 222h101v-223h27v-65h-27zM427 129v140h-7l-53 -140h60z" />
    <glyph glyph-name="threequarters" unicode="&#xbe;" horiz-adv-x="540" 
d="M107 345c-38 0 -64 15 -77 25v72c14 -13 41 -28 67 -28c30 0 47 16 47 43s-27 41 -76 42h-2l-1 52l61 79h-94v70h186v-56l-74 -89c42 -11 77 -38 77 -96c0 -71 -48 -114 -114 -114zM110 0l150 364l131 336h63l-150 -364l-131 -336h-63zM495 64v-64h-68v64h-117v66l84 222
h101v-223h27v-65h-27zM431 129v140h-7l-53 -140h60z" />
    <glyph glyph-name="onefifth" unicode="&#x2155;" horiz-adv-x="495" 
d="M357 -5c-32 0 -61 11 -78 25v72c17 -15 42 -28 68 -28c29 0 49 19 49 50c0 27 -18 41 -42 41c-13 0 -25 -4 -35 -8l-43 19l15 184h166v-69h-107c-1 -20 -4 -42 -5 -61c10 2 18 3 29 3c51 0 99 -31 99 -107c0 -78 -54 -121 -116 -121zM152 350h-79v271l-52 -24v75l75 31
h56v-353zM45 0l150 364l131 336h63l-150 -364l-131 -336h-63z" />
    <glyph glyph-name="onefifth.alt" horiz-adv-x="540" 
d="M218 350h-189v66h61v208l-59 -24v73l79 30h56v-287h52v-66zM409 -5c-32 0 -61 11 -78 25v72c17 -15 42 -28 68 -28c29 0 49 19 49 50c0 27 -18 41 -42 41c-13 0 -25 -4 -35 -8l-43 19l15 184h166v-69h-107c-1 -20 -4 -42 -5 -61c10 2 18 3 29 3c51 0 99 -31 99 -107
c0 -78 -54 -121 -116 -121zM105 0l150 364l131 336h63l-150 -364l-131 -336h-63z" />
    <glyph glyph-name="twofifths" unicode="&#x2156;" horiz-adv-x="540" 
d="M24 350v64l75 115c22 34 34 51 34 71s-13 33 -34 33s-41 -11 -68 -40v78c19 18 46 34 82 34c56 0 98 -33 98 -94c0 -24 -5 -52 -36 -98l-60 -91h94v-72h-185zM103 0l150 364l131 336h63l-150 -364l-131 -336h-63zM414 -5c-32 0 -61 11 -78 25v72c17 -15 42 -28 68 -28
c29 0 49 19 49 50c0 27 -18 41 -42 41c-13 0 -25 -4 -35 -8l-43 19l15 184h166v-69h-107c-1 -20 -4 -42 -5 -61c10 2 18 3 29 3c51 0 99 -31 99 -107c0 -78 -54 -121 -116 -121z" />
    <glyph glyph-name="threefifths" unicode="&#x2157;" horiz-adv-x="540" 
d="M414 -5c-32 0 -61 11 -78 25v72c17 -15 42 -28 68 -28c29 0 49 19 49 50c0 27 -18 41 -42 41c-13 0 -25 -4 -35 -8l-43 19l15 184h166v-69h-107c-1 -20 -4 -42 -5 -61c10 2 18 3 29 3c51 0 99 -31 99 -107c0 -78 -54 -121 -116 -121zM95 0l150 364l131 336h63l-150 -364
l-131 -336h-63zM112 345c-38 0 -64 15 -77 25v72c14 -13 41 -28 67 -28c30 0 47 16 47 43s-27 41 -76 42h-2l-1 52l61 79h-94v70h186v-56l-74 -89c42 -11 77 -38 77 -96c0 -71 -48 -114 -114 -114z" />
    <glyph glyph-name="fourfifths" unicode="&#x2158;" horiz-adv-x="540" 
d="M192 414v-64h-68v64h-117v66l84 222h101v-223h27v-65h-27zM128 479v140h-7l-53 -140h60zM414 -5c-32 0 -61 11 -78 25v72c17 -15 42 -28 68 -28c29 0 49 19 49 50c0 27 -18 41 -42 41c-13 0 -25 -4 -35 -8l-43 19l15 184h166v-69h-107c-1 -20 -4 -42 -5 -61
c10 2 18 3 29 3c51 0 99 -31 99 -107c0 -78 -54 -121 -116 -121zM97 0l150 364l131 336h63l-150 -364l-131 -336h-63z" />
    <glyph glyph-name="onesixth" unicode="&#x2159;" horiz-adv-x="495" 
d="M365 -5c-22 0 -44 7 -61 24c-25 23 -39 68 -39 140v13c0 139 52 183 119 183c25 0 44 -7 57 -15l-4 -73c-12 9 -29 20 -48 20c-27 0 -46 -21 -48 -68c10 6 22 13 44 13c37 0 79 -25 79 -113c0 -80 -45 -124 -99 -124zM366 62c15 0 27 13 27 53s-12 53 -30 53
c-11 0 -18 -4 -23 -10v-31c0 -47 8 -65 26 -65zM152 350h-79v271l-52 -24v75l75 31h56v-353zM53 0l150 364l131 336h63l-150 -364l-131 -336h-63z" />
    <glyph glyph-name="onesixth.alt" horiz-adv-x="540" 
d="M218 350h-189v66h61v208l-59 -24v73l79 30h56v-287h52v-66zM426 -5c-22 0 -44 7 -61 24c-25 23 -39 68 -39 140v13c0 139 52 183 119 183c25 0 44 -7 57 -15l-4 -73c-12 9 -29 20 -48 20c-27 0 -46 -21 -48 -68c10 6 22 13 44 13c37 0 79 -25 79 -113
c0 -80 -45 -124 -99 -124zM427 62c15 0 27 13 27 53s-12 53 -30 53c-11 0 -18 -4 -23 -10v-31c0 -47 8 -65 26 -65zM110 0l150 364l131 336h63l-150 -364l-131 -336h-63z" />
    <glyph glyph-name="fivesixths" unicode="&#x215a;" horiz-adv-x="540" 
d="M416 -5c-22 0 -44 7 -61 24c-25 23 -39 68 -39 140v13c0 139 52 183 119 183c25 0 44 -7 57 -15l-4 -73c-12 9 -29 20 -48 20c-27 0 -46 -21 -48 -68c10 6 22 13 44 13c37 0 79 -25 79 -113c0 -80 -45 -124 -99 -124zM417 62c15 0 27 13 27 53s-12 53 -30 53
c-11 0 -18 -4 -23 -10v-31c0 -47 8 -65 26 -65zM109 345c-32 0 -61 11 -78 25v72c17 -15 42 -28 68 -28c29 0 49 19 49 50c0 27 -18 41 -42 41c-13 0 -25 -4 -35 -8l-43 19l15 184h166v-69h-107c-1 -20 -4 -42 -5 -61c10 2 18 3 29 3c51 0 99 -31 99 -107
c0 -78 -54 -121 -116 -121zM95 0l150 364l131 336h63l-150 -364l-131 -336h-63z" />
    <glyph glyph-name="oneeighth" unicode="&#x215b;" horiz-adv-x="495" 
d="M364 -5c-64 0 -106 40 -106 102c0 46 22 74 45 88c-23 15 -38 42 -38 76c0 59 42 94 99 94s99 -35 99 -94c0 -34 -15 -61 -38 -76c23 -14 45 -42 45 -88c0 -62 -42 -102 -106 -102zM364 300c-19 0 -29 -14 -29 -43s10 -42 29 -42s29 13 29 42s-10 43 -29 43zM364 154
c-20 0 -32 -16 -32 -52c0 -35 12 -51 32 -51s32 16 32 51c0 36 -12 52 -32 52zM152 350h-79v271l-52 -24v75l75 31h56v-353zM46 0l150 364l131 336h63l-150 -364l-131 -336h-63z" />
    <glyph glyph-name="oneeighth.alt" horiz-adv-x="540" 
d="M213 350h-189v66h61v208l-59 -24v73l79 30h56v-287h52v-66zM424 -5c-64 0 -106 40 -106 102c0 46 22 74 45 88c-23 15 -38 42 -38 76c0 59 42 94 99 94s99 -35 99 -94c0 -34 -15 -61 -38 -76c23 -14 45 -42 45 -88c0 -62 -42 -102 -106 -102zM424 300
c-19 0 -29 -14 -29 -43s10 -42 29 -42s29 13 29 42s-10 43 -29 43zM424 154c-20 0 -32 -16 -32 -52c0 -35 12 -51 32 -51s32 16 32 51c0 36 -12 52 -32 52zM105 0l150 364l131 336h63l-150 -364l-131 -336h-63z" />
    <glyph glyph-name="threeeighths" unicode="&#x215c;" horiz-adv-x="540" 
d="M421 -5c-64 0 -106 40 -106 102c0 46 22 74 45 88c-23 15 -38 42 -38 76c0 59 42 94 99 94s99 -35 99 -94c0 -34 -15 -61 -38 -76c23 -14 45 -42 45 -88c0 -62 -42 -102 -106 -102zM421 300c-19 0 -29 -14 -29 -43s10 -42 29 -42s29 13 29 42s-10 43 -29 43zM421 154
c-20 0 -32 -16 -32 -52c0 -35 12 -51 32 -51s32 16 32 51c0 36 -12 52 -32 52zM95 0l150 364l131 336h63l-150 -364l-131 -336h-63zM112 345c-38 0 -64 15 -77 25v72c14 -13 41 -28 67 -28c30 0 47 16 47 43s-27 41 -76 42h-2l-1 52l61 79h-94v70h186v-56l-74 -89
c42 -11 77 -38 77 -96c0 -71 -48 -114 -114 -114z" />
    <glyph glyph-name="fiveeighths" unicode="&#x215d;" horiz-adv-x="540" 
d="M421 -5c-64 0 -106 40 -106 102c0 46 22 74 45 88c-23 15 -38 42 -38 76c0 59 42 94 99 94s99 -35 99 -94c0 -34 -15 -61 -38 -76c23 -14 45 -42 45 -88c0 -62 -42 -102 -106 -102zM421 300c-19 0 -29 -14 -29 -43s10 -42 29 -42s29 13 29 42s-10 43 -29 43zM421 154
c-20 0 -32 -16 -32 -52c0 -35 12 -51 32 -51s32 16 32 51c0 36 -12 52 -32 52zM111 345c-32 0 -61 11 -78 25v72c17 -15 42 -28 68 -28c29 0 49 19 49 50c0 27 -18 41 -42 41c-13 0 -25 -4 -35 -8l-43 19l15 184h166v-69h-107c-1 -20 -4 -42 -5 -61c10 2 18 3 29 3
c51 0 99 -31 99 -107c0 -78 -54 -121 -116 -121zM95 0l150 364l131 336h63l-150 -364l-131 -336h-63z" />
    <glyph glyph-name="seveneighths" unicode="&#x215e;" horiz-adv-x="540" 
d="M392 -5c-64 0 -106 40 -106 102c0 46 22 74 45 88c-23 15 -38 42 -38 76c0 59 42 94 99 94s99 -35 99 -94c0 -34 -15 -61 -38 -76c23 -14 45 -42 45 -88c0 -62 -42 -102 -106 -102zM392 300c-19 0 -29 -14 -29 -43s10 -42 29 -42s29 13 29 42s-10 43 -29 43zM392 154
c-20 0 -32 -16 -32 -52c0 -35 12 -51 32 -51s32 16 32 51c0 36 -12 52 -32 52zM134 350h-78l91 278h-109v72h189v-53zM60 0l150 364l131 336h63l-150 -364l-131 -336h-63z" />
    <glyph glyph-name="zero.sup" unicode="&#x2070;" 
d="M120 456c-70 0 -100 55 -100 172v16c0 117 30 172 100 172s100 -55 100 -172v-16c0 -117 -30 -172 -100 -172zM120 747c-19 0 -26 -21 -26 -106v-10c0 -85 7 -106 26 -106s26 21 26 106v10c0 85 -7 106 -26 106z" />
    <glyph glyph-name="one.sup" unicode="&#xb9;" horiz-adv-x="195" 
d="M149 461h-79v271l-52 -24v75l75 31h56v-353z" />
    <glyph glyph-name="one.sup_alt" 
d="M224 461h-189v66h61v208l-59 -24v73l79 30h56v-287h52v-66z" />
    <glyph glyph-name="two.sup" unicode="&#xb2;" 
d="M28 461v64l75 115c22 34 34 51 34 71s-13 33 -34 33s-41 -11 -68 -40v78c19 18 46 34 82 34c56 0 98 -33 98 -94c0 -24 -5 -52 -36 -98l-60 -91h94v-72h-185z" />
    <glyph glyph-name="three.sup" unicode="&#xb3;" 
d="M106 456c-38 0 -64 15 -77 25v72c14 -13 41 -28 67 -28c30 0 47 16 47 43s-27 41 -76 42h-2l-1 52l61 79h-94v70h186v-56l-74 -89c42 -11 77 -38 77 -96c0 -71 -48 -114 -114 -114z" />
    <glyph glyph-name="four.sup" unicode="&#x2074;" 
d="M201 525v-64h-68v64h-117v66l84 222h101v-223h27v-65h-27zM137 590v140h-7l-53 -140h60z" />
    <glyph glyph-name="five.sup" unicode="&#x2075;" 
d="M105 456c-32 0 -61 11 -78 25v72c17 -15 42 -28 68 -28c29 0 49 19 49 50c0 27 -18 41 -42 41c-13 0 -25 -4 -35 -8l-43 19l15 184h166v-69h-107c-1 -20 -4 -42 -5 -61c10 2 18 3 29 3c51 0 99 -31 99 -107c0 -78 -54 -121 -116 -121z" />
    <glyph glyph-name="six.sup" unicode="&#x2076;" 
d="M122 456c-22 0 -44 7 -61 24c-25 23 -39 68 -39 140v13c0 139 52 183 119 183c25 0 44 -7 57 -15l-4 -73c-12 9 -29 20 -48 20c-27 0 -46 -21 -48 -68c10 6 22 13 44 13c37 0 79 -25 79 -113c0 -80 -45 -124 -99 -124zM123 523c15 0 27 13 27 53s-12 53 -30 53
c-11 0 -18 -4 -23 -10v-31c0 -47 8 -65 26 -65z" />
    <glyph glyph-name="seven.sup" unicode="&#x2077;" 
d="M120 461h-78l91 278h-109v72h189v-53z" />
    <glyph glyph-name="eight.sup" unicode="&#x2078;" 
d="M120 456c-64 0 -106 40 -106 102c0 46 22 74 45 88c-23 15 -38 42 -38 76c0 59 42 94 99 94s99 -35 99 -94c0 -34 -15 -61 -38 -76c23 -14 45 -42 45 -88c0 -62 -42 -102 -106 -102zM120 761c-19 0 -29 -14 -29 -43s10 -42 29 -42s29 13 29 42s-10 43 -29 43zM120 615
c-20 0 -32 -16 -32 -52c0 -35 12 -51 32 -51s32 16 32 51c0 36 -12 52 -32 52z" />
    <glyph glyph-name="nine.sup" unicode="&#x2079;" 
d="M118 816c22 0 44 -7 61 -24c25 -23 39 -68 39 -140v-13c0 -139 -52 -183 -119 -183c-23 0 -41 7 -61 18v73c15 -12 35 -23 56 -23c27 0 46 18 48 65c-10 -6 -22 -13 -44 -13c-37 0 -79 25 -79 114c0 81 45 126 99 126zM120 640c11 0 18 4 23 10v32c0 48 -8 67 -26 67
c-15 0 -27 -14 -27 -55s12 -54 30 -54z" />
    <glyph glyph-name="zero.inf" unicode="&#x2080;" 
d="M120 -137c-70 0 -100 55 -100 172v16c0 117 30 172 100 172s100 -55 100 -172v-16c0 -117 -30 -172 -100 -172zM120 154c-19 0 -26 -21 -26 -106v-10c0 -85 7 -106 26 -106s26 21 26 106v10c0 85 -7 106 -26 106z" />
    <glyph glyph-name="one.inf" unicode="&#x2081;" horiz-adv-x="195" 
d="M149 -132h-79v271l-52 -24v75l75 31h56v-353z" />
    <glyph glyph-name="one.inf_alt" 
d="M224 -132h-189v66h61v208l-59 -24v73l79 30h56v-287h52v-66z" />
    <glyph glyph-name="two.inf" unicode="&#x2082;" 
d="M28 -132v64l75 115c22 34 34 51 34 71s-13 33 -34 33s-41 -11 -68 -40v78c19 18 46 34 82 34c56 0 98 -33 98 -94c0 -24 -5 -52 -36 -98l-60 -91h94v-72h-185z" />
    <glyph glyph-name="three.inf" unicode="&#x2083;" 
d="M106 -137c-38 0 -64 15 -77 25v72c14 -13 41 -28 67 -28c30 0 47 16 47 43s-27 41 -76 42h-2l-1 52l61 79h-94v70h186v-56l-74 -89c42 -11 77 -38 77 -96c0 -71 -48 -114 -114 -114z" />
    <glyph glyph-name="four.inf" unicode="&#x2084;" 
d="M201 -68v-64h-68v64h-117v66l84 222h101v-223h27v-65h-27zM137 -3v140h-7l-53 -140h60z" />
    <glyph glyph-name="five.inf" unicode="&#x2085;" 
d="M105 -137c-32 0 -61 11 -78 25v72c17 -15 42 -28 68 -28c29 0 49 19 49 50c0 27 -18 41 -42 41c-13 0 -25 -4 -35 -8l-43 19l15 184h166v-69h-107c-1 -20 -4 -42 -5 -61c10 2 18 3 29 3c51 0 99 -31 99 -107c0 -78 -54 -121 -116 -121z" />
    <glyph glyph-name="six.inf" unicode="&#x2086;" 
d="M122 -137c-22 0 -44 7 -61 24c-25 23 -39 68 -39 140v13c0 139 52 183 119 183c25 0 44 -7 57 -15l-4 -73c-12 9 -29 20 -48 20c-27 0 -46 -21 -48 -68c10 6 22 13 44 13c37 0 79 -25 79 -113c0 -80 -45 -124 -99 -124zM123 -70c15 0 27 13 27 53s-12 53 -30 53
c-11 0 -18 -4 -23 -10v-31c0 -47 8 -65 26 -65z" />
    <glyph glyph-name="seven.inf" unicode="&#x2087;" 
d="M120 -132h-78l91 278h-109v72h189v-53z" />
    <glyph glyph-name="eight.inf" unicode="&#x2088;" 
d="M120 -137c-64 0 -106 40 -106 102c0 46 22 74 45 88c-23 15 -38 42 -38 76c0 59 42 94 99 94s99 -35 99 -94c0 -34 -15 -61 -38 -76c23 -14 45 -42 45 -88c0 -62 -42 -102 -106 -102zM120 168c-19 0 -29 -14 -29 -43s10 -42 29 -42s29 13 29 42s-10 43 -29 43zM120 22
c-20 0 -32 -16 -32 -52c0 -35 12 -51 32 -51s32 16 32 51c0 36 -12 52 -32 52z" />
    <glyph glyph-name="nine.inf" unicode="&#x2089;" 
d="M118 223c22 0 44 -7 61 -24c25 -23 39 -68 39 -140v-13c0 -139 -52 -183 -119 -183c-23 0 -41 7 -61 18v73c15 -12 35 -23 56 -23c27 0 46 18 48 65c-10 -6 -22 -13 -44 -13c-37 0 -79 25 -79 114c0 81 45 126 99 126zM120 47c11 0 18 4 23 10v32c0 48 -8 67 -26 67
c-15 0 -27 -14 -27 -55s12 -54 30 -54z" />
    <glyph glyph-name="zero.tab" horiz-adv-x="360" 
d="M180 -10c-113 0 -165 98 -165 341v37c0 244 52 342 165 342c111 0 165 -98 165 -341v-37c0 -244 -54 -342 -165 -342zM180 597c-33 0 -49 -34 -49 -229v-35c0 -196 16 -230 49 -230c32 0 48 34 48 229v35c0 196 -16 230 -48 230z" />
    <glyph glyph-name="one.tab" horiz-adv-x="360" 
d="M352 0h-318v107h108v465l-105 -51v122l141 62h86v-598h88v-107z" />
    <glyph glyph-name="two.tab" horiz-adv-x="360" 
d="M336 0h-308v104l134 266c40 80 51 126 51 155c0 48 -30 66 -63 66c-32 0 -69 -18 -114 -56v120c37 35 83 55 137 55c91 0 160 -60 160 -164v-4c0 -56 -12 -105 -65 -212l-104 -208h172v-122z" />
    <glyph glyph-name="three.tab" horiz-adv-x="360" 
d="M136 -10c-49 0 -86 10 -115 30v115c27 -15 58 -29 96 -29c59 0 97 37 97 100v8c0 73 -52 103 -133 108h-3l-1 81l121 177h-169v120h302v-109l-131 -182c79 -24 136 -73 136 -186v-11c0 -138 -84 -222 -200 -222z" />
    <glyph glyph-name="three.tab_alt" horiz-adv-x="360" 
d="M136 -10c-50 0 -88 13 -113 29v114c27 -16 62 -27 95 -27c57 0 97 34 97 103c0 65 -41 100 -129 102h-3v102h4c80 6 125 46 125 105c0 50 -32 77 -80 77c-35 0 -67 -13 -99 -35v111c24 18 65 39 126 39c96 0 173 -58 173 -176c0 -88 -48 -139 -103 -163
c60 -25 107 -71 107 -170c0 -133 -87 -211 -200 -211z" />
    <glyph glyph-name="four.tab" horiz-adv-x="360" 
d="M196 0v130h-182l-2 95l148 477h145v-467h45v-105h-45v-130h-109zM196 235v268h-9l-80 -268h89z" />
    <glyph glyph-name="five.tab" horiz-adv-x="360" 
d="M139 -10c-39 0 -80 12 -104 30v118c29 -20 60 -31 94 -31c62 0 88 45 88 120v4c0 74 -28 101 -67 101c-28 0 -49 -13 -60 -23l-61 40l20 351h263v-117h-171l-9 -150c7 3 27 11 52 11c81 0 155 -53 155 -209v-6c0 -151 -81 -239 -200 -239z" />
    <glyph glyph-name="six.tab" horiz-adv-x="360" 
d="M215 457c67 0 128 -51 128 -208v-18c0 -145 -63 -241 -159 -241c-39 0 -70 12 -94 35c-45 46 -67 138 -67 295v21c0 288 76 369 196 369c35 0 59 -8 81 -18v-115c-21 12 -47 22 -71 22c-59 0 -86 -50 -87 -171c16 15 36 29 73 29zM185 100c31 0 43 40 43 126v19
c0 79 -16 110 -47 110c-22 0 -30 -10 -40 -22v-84c0 -107 13 -149 44 -149z" />
    <glyph glyph-name="seven.tab" horiz-adv-x="360" 
d="M207 576h-184v124h305v-88l-152 -612h-121z" />
    <glyph glyph-name="eight.tab" horiz-adv-x="360" 
d="M180 -10c-100 0 -165 76 -165 204v7c0 91 37 147 77 173c-45 30 -66 80 -66 150v5c0 112 64 181 154 181s154 -69 154 -181v-5c0 -70 -21 -120 -66 -150c40 -26 77 -82 77 -173v-7c0 -128 -65 -204 -165 -204zM180 412c28 0 46 32 46 99v6c0 72 -20 96 -46 96
s-46 -24 -46 -96v-6c0 -67 18 -99 46 -99zM180 88c30 0 52 29 52 112v7c0 80 -22 110 -52 110s-52 -30 -52 -110v-7c0 -83 22 -112 52 -112z" />
    <glyph glyph-name="nine.tab" horiz-adv-x="360" 
d="M145 235c-67 0 -128 55 -128 212v18c0 145 63 245 159 245c39 0 70 -12 94 -35c45 -46 67 -138 67 -295v-21c0 -288 -76 -369 -196 -369c-35 0 -60 7 -91 21v115c30 -16 57 -25 81 -25c59 0 85 49 87 163c-16 -15 -37 -29 -73 -29zM175 600c-31 0 -43 -44 -43 -130v-20
c0 -79 16 -114 47 -114c22 0 30 10 40 22v92c0 107 -13 150 -44 150z" />
    <glyph glyph-name="period.tab" horiz-adv-x="180" 
d="M30 0v150h120v-150h-120z" />
    <glyph glyph-name="comma.tab" horiz-adv-x="180" 
d="M16 -157l-11 47c64 14 81 65 76 110h-51v150h120v-125c0 -107 -42 -170 -134 -182z" />
    <glyph glyph-name="colon.tab" horiz-adv-x="180" 
d="M30 386v150h120v-150h-120zM30 0v150h120v-150h-120z" />
    <glyph glyph-name="semicolon.tab" horiz-adv-x="180" 
d="M30 386v150h120v-150h-120zM16 -157l-11 47c64 14 81 65 76 110h-51v150h120v-125c0 -107 -42 -170 -134 -182z" />
    <glyph glyph-name="twodotleader.tab" horiz-adv-x="360" 
d="M210 0v146h120v-146h-120zM30 0v146h120v-146h-120z" />
    <glyph glyph-name="periodcentered.tab" horiz-adv-x="180" 
d="M30 235v149h120v-149h-120z" />
    <glyph glyph-name="slash.tab" horiz-adv-x="360" 
d="M353 769l-254 -868h-101l255 868h100z" />
    <glyph glyph-name="bar.tab" horiz-adv-x="180" 
d="M43 -99v868h94v-868h-94z" />
    <glyph glyph-name="underscore.tab" horiz-adv-x="360" 
d="M-2 -151v93h364v-93h-364z" />
    <glyph glyph-name="dollar.tab" horiz-adv-x="360" 
d="M253 774l-6 -73c26 -4 48 -12 66 -20v-127c-39 23 -66 34 -100 34c-35 0 -65 -23 -65 -60v-1c0 -31 15 -50 72 -113c91 -99 122 -145 122 -227v-2c0 -104 -64 -172 -149 -187l-8 -105h-80l8 106c-29 5 -53 15 -78 28v126c45 -28 81 -41 113 -41c43 0 71 25 71 68v1
c0 28 -11 51 -70 115c-87 91 -123 137 -123 223v2c0 99 58 166 141 181l6 72h80z" />
    <glyph glyph-name="sterling.tab" horiz-adv-x="360" 
d="M73 391v110c0 76 14 125 51 162c28 28 70 45 121 45c38 0 60 -6 80 -13v-119c-18 6 -37 12 -57 12c-24 0 -38 -6 -49 -17c-17 -17 -21 -42 -21 -70v-110h99v-111h-99v-168h147v-112h-322v82l50 24v174h-48v111h48z" />
    <glyph glyph-name="Euro.tab" horiz-adv-x="360" 
d="M13 388v90h54c24 162 102 232 194 232c29 0 49 -5 76 -19v-125c-25 16 -44 25 -65 25c-36 0 -67 -29 -80 -113h93v-90h-100v-24v-27v-21h100v-90h-94c13 -91 44 -117 83 -117c17 0 39 8 65 24v-118c-29 -18 -56 -25 -86 -25c-91 0 -165 72 -187 236h-53v90h47v21v25v26
h-47z" />
    <glyph glyph-name="yen.tab" horiz-adv-x="360" 
d="M40 189h82v61h-82v92h62l-99 358h122l56 -287l57 287h119l-100 -358h63v-92h-82v-61h82v-92h-82v-97h-116v97h-82v92z" />
    <glyph glyph-name="cent.tab" horiz-adv-x="360" 
d="M245 705v-77c33 -3 56 -14 76 -26v-120c-26 17 -51 32 -83 32c-52 0 -87 -39 -87 -145v-34c0 -104 33 -144 87 -144c30 0 58 16 84 34v-114c-18 -14 -42 -30 -77 -35v-82h-80v88c-85 25 -135 112 -135 255v30c0 140 52 226 135 253v85h80z" />
    <glyph glyph-name="numbersign.tab" horiz-adv-x="360" 
d="M12 268h54l10 168h-46v108h53l10 156h76l-11 -156h65l11 156h76l-10 -156h49v-108h-56l-10 -168h48v-108h-55l-10 -160h-76l10 160h-65l-10 -160h-76l10 160h-47v108zM152 436l-10 -168h65l10 168h-65z" />
    <glyph glyph-name="paragraph.tab" horiz-adv-x="360" 
d="M193 0v224h-1c-85 10 -177 80 -177 238v2c0 171 102 236 222 236h80v-700h-124z" />
    <glyph glyph-name="section.tab" horiz-adv-x="360" 
d="M273 221c21 -28 32 -58 32 -87v-2c0 -92 -59 -142 -142 -142c-22 0 -60 5 -91 20v112c32 -18 58 -26 80 -26c26 0 42 14 42 37v2c0 28 -38 51 -78 77c-57 37 -106 72 -106 147v2c0 48 27 97 77 118c-21 28 -32 58 -32 87v2c0 92 59 142 142 142c22 0 60 -5 91 -20v-112
c-32 18 -58 26 -80 26c-26 0 -42 -14 -42 -37v-2c0 -28 38 -51 78 -77c57 -37 106 -72 106 -147v-2c0 -48 -27 -97 -77 -118zM139 430c-21 -16 -27 -40 -27 -53v-2c0 -22 13 -48 88 -94c4 -1 20 -11 21 -11c21 16 27 40 27 53v2c0 22 -13 48 -88 94c-4 1 -20 11 -21 11z" />
    <glyph glyph-name="degree.tab" horiz-adv-x="360" 
d="M180 302c-82 0 -136 79 -136 195v14c0 116 54 195 136 195s136 -79 136 -195v-14c0 -116 -54 -195 -136 -195zM180 388c32 0 51 37 51 109v14c0 72 -19 109 -51 109s-51 -37 -51 -109v-14c0 -72 19 -109 51 -109z" />
    <glyph glyph-name="percent.tab" horiz-adv-x="360" 
d="M108 706c69 0 99 -62 99 -176v-36c0 -8 0 -16 -1 -24l81 230h61l-134 -327c11 6 24 9 38 9c69 0 99 -62 99 -176v-36c0 -114 -30 -176 -99 -176s-99 62 -99 176v36v23l-80 -229h-61l134 326c-11 -5 -24 -8 -38 -8c-69 0 -99 62 -99 176v36c0 114 30 176 99 176zM250 311
c-20 0 -27 -25 -27 -105v-36c0 -80 7 -105 27 -105s28 25 28 105v36c0 80 -8 105 -28 105zM110 635c-20 0 -28 -25 -28 -105v-36c0 -80 8 -105 28 -105s27 25 27 105v36c0 80 -7 105 -27 105z" />
    <glyph glyph-name="quotedbl.tab" horiz-adv-x="360" 
d="M217 381l2 319h122v-9l-79 -310h-45zM48 381l2 319h122v-9l-78 -310h-46z" />
    <glyph glyph-name="quotesingle.tab" horiz-adv-x="180" 
d="M44 381l2 319h122v-9l-78 -310h-46z" />
    <glyph glyph-name="plus.tab" horiz-adv-x="360" 
d="M342 298h-110v-118h-104v118h-110v108h110v118h104v-118h110v-108z" />
    <glyph glyph-name="minus.tab" horiz-adv-x="360" 
d="M340 293h-320v118h320v-118z" />
    <glyph glyph-name="divide.tab" horiz-adv-x="360" 
d="M126 458v113h108v-113h-108zM340 298h-320v108h320v-108zM126 133v113h108v-113h-108z" />
    <glyph glyph-name="equal.tab" horiz-adv-x="360" 
d="M339 389h-318v117h318v-117zM339 198h-318v117h318v-117z" />
    <glyph glyph-name="multiply.tab" horiz-adv-x="360" 
d="M267 171l-87 101l-88 -101l-82 69l100 112l-100 112l83 69l87 -101l88 101l82 -69l-100 -112l100 -112z" />
    <glyph glyph-name="less.tab" horiz-adv-x="360" 
d="M331 108l-304 193v102l304 193v-137l-179 -106l179 -106v-139z" />
    <glyph glyph-name="greater.tab" horiz-adv-x="360" 
d="M332 301l-304 -193v137l179 106l-179 106v139l304 -193v-102z" />
    <glyph glyph-name="plusminus.tab" horiz-adv-x="360" 
d="M342 303h-110v-119h-104v119h-110v107h110v119h104v-119h110v-107zM340 0h-320v104h320v-104z" />
    <glyph glyph-name="space" unicode=" " horiz-adv-x="159" 
 />
    <glyph glyph-name="uni00A0" unicode="&#xa0;" horiz-adv-x="159" 
 />
    <glyph glyph-name="emspace" unicode="&#x2003;" horiz-adv-x="1000" 
 />
    <glyph glyph-name="enspace" unicode="&#x2002;" horiz-adv-x="500" 
 />
    <glyph glyph-name="threeperemspace" unicode="&#x2004;" horiz-adv-x="333" 
 />
    <glyph glyph-name="fourperemspace" unicode="&#x2005;" horiz-adv-x="250" 
 />
    <glyph glyph-name="thinspace" unicode="&#x2009;" horiz-adv-x="133" 
 />
    <glyph glyph-name="hairspace" unicode="&#x200a;" horiz-adv-x="75" 
 />
    <glyph glyph-name="space.tab" horiz-adv-x="180" 
 />
    <glyph glyph-name="figurespace" unicode="&#x2007;" horiz-adv-x="360" 
 />
    <glyph glyph-name="NUL" horiz-adv-x="0" 
 />
    <glyph glyph-name="asciicircum" unicode="^" horiz-adv-x="500" 
d="M128 502l73 191h97l74 -191h-76l-47 129l-47 -129h-74z" />
    <glyph glyph-name="asciitilde" unicode="~" horiz-adv-x="369" 
d="M246 254c-31 0 -50 13 -67 25c-15 10 -28 20 -46 20c-17 0 -29 -15 -38 -49l-58 18c8 80 52 110 86 110c31 0 50 -13 67 -25c15 -10 28 -20 46 -20c17 0 29 15 38 49l58 -18c-8 -80 -52 -110 -86 -110z" />
    <glyph glyph-name="hfjslug" horiz-adv-x="694" 
d="M644 -200h-208l-8 14h-163l-8 -14h-207v303c18 0 32 14 32 32c0 17 -14 32 -32 32v554h100l30 79h334l29 -79h101v-921zM400 563v-172h15v78h38v14h-38v66h43v14h-58zM184 563v-172h15v79h47v-79h15v172h-15v-79h-47v79h-15zM460 394c5 -2 14 -4 21 -4c20 0 31 11 31 36
v137h-16v-137c0 -16 -5 -22 -16 -22c-6 0 -15 3 -20 5v-15zM371 465l-13 3c-2 -9 -5 -21 -8 -30h-1l-16 31c13 12 23 26 23 42c0 15 -9 31 -27 31c-17 0 -28 -16 -28 -31s6 -24 14 -39c-15 -12 -23 -28 -23 -47c0 -22 12 -37 29 -37c13 0 23 9 29 24h1l12 -24l12 6l-17 32
c5 12 9 25 13 39zM523 323v-46h8v12l8 8l15 -20h10l-20 26l18 20h-10l-20 -24h-1v24h-8zM488 292l10 -15h9l-12 17c5 2 10 6 10 14c0 9 -7 15 -17 15h-20v-46h8v15h12zM426 276c14 0 24 11 24 24c0 12 -10 24 -24 24s-24 -12 -24 -24c0 -13 10 -24 24 -24zM370 301l-13 22
h-9l18 -29v-17h8v17l18 29h-9zM193 323v-46h34v7h-26v13h23v7h-23v12h26v7h-34zM132 323v-46h8v32l25 -32h7v46h-8v-32l-25 32h-7zM241 323l14 -47h8l11 34h1l11 -34h8l14 47h-8l-10 -35h-1l-11 35h-7l-11 -35h-1l-10 35h-8zM327 479c-7 13 -12 22 -12 32s6 19 14 19
s13 -9 13 -19c0 -12 -5 -21 -15 -32zM342 423c-5 -13 -12 -21 -20 -21c-9 0 -16 10 -16 25c0 13 7 26 16 35zM487 299h-11v17h11c6 0 10 -3 10 -8s-4 -9 -10 -9zM426 283c-10 0 -16 8 -16 17c0 8 6 17 16 17s16 -9 16 -17c0 -9 -6 -17 -16 -17z" />
    <glyph glyph-name="i.dot" horiz-adv-x="186" 
d="M33 587v118h120v-118h-120zM34 0v536h118v-536h-118z" />
    <glyph glyph-name="fraction" unicode="&#x2044;" horiz-adv-x="60" 
d="M-142 0l150 364l131 336h63l-150 -364l-131 -336h-63z" />
    <glyph glyph-name="zero.num" 
d="M120 345c-70 0 -100 55 -100 172v16c0 117 30 172 100 172s100 -55 100 -172v-16c0 -117 -30 -172 -100 -172zM120 636c-19 0 -26 -21 -26 -106v-10c0 -85 7 -106 26 -106s26 21 26 106v10c0 85 -7 106 -26 106z" />
    <glyph glyph-name="one.num" horiz-adv-x="195" 
d="M149 350h-79v271l-52 -24v75l75 31h56v-353z" />
    <glyph glyph-name="one.num_alt" 
d="M224 350h-189v66h61v208l-59 -24v73l79 30h56v-287h52v-66z" />
    <glyph glyph-name="two.num" 
d="M28 350v64l75 115c22 34 34 51 34 71s-13 33 -34 33s-41 -11 -68 -40v78c19 18 46 34 82 34c56 0 98 -33 98 -94c0 -24 -5 -52 -36 -98l-60 -91h94v-72h-185z" />
    <glyph glyph-name="three.num" 
d="M106 345c-38 0 -64 15 -77 25v72c14 -13 41 -28 67 -28c30 0 47 16 47 43s-27 41 -76 42h-2l-1 52l61 79h-94v70h186v-56l-74 -89c42 -11 77 -38 77 -96c0 -71 -48 -114 -114 -114z" />
    <glyph glyph-name="four.num" 
d="M201 414v-64h-68v64h-117v66l84 222h101v-223h27v-65h-27zM137 479v140h-7l-53 -140h60z" />
    <glyph glyph-name="five.num" 
d="M105 345c-32 0 -61 11 -78 25v72c17 -15 42 -28 68 -28c29 0 49 19 49 50c0 27 -18 41 -42 41c-13 0 -25 -4 -35 -8l-43 19l15 184h166v-69h-107c-1 -20 -4 -42 -5 -61c10 2 18 3 29 3c51 0 99 -31 99 -107c0 -78 -54 -121 -116 -121z" />
    <glyph glyph-name="six.num" 
d="M122 345c-22 0 -44 7 -61 24c-25 23 -39 68 -39 140v13c0 139 52 183 119 183c25 0 44 -7 57 -15l-4 -73c-12 9 -29 20 -48 20c-27 0 -46 -21 -48 -68c10 6 22 13 44 13c37 0 79 -25 79 -113c0 -80 -45 -124 -99 -124zM123 412c15 0 27 13 27 53s-12 53 -30 53
c-11 0 -18 -4 -23 -10v-31c0 -47 8 -65 26 -65z" />
    <glyph glyph-name="seven.num" 
d="M120 350h-78l91 278h-109v72h189v-53z" />
    <glyph glyph-name="eight.num" 
d="M120 345c-64 0 -106 40 -106 102c0 46 22 74 45 88c-23 15 -38 42 -38 76c0 59 42 94 99 94s99 -35 99 -94c0 -34 -15 -61 -38 -76c23 -14 45 -42 45 -88c0 -62 -42 -102 -106 -102zM120 650c-19 0 -29 -14 -29 -43s10 -42 29 -42s29 13 29 42s-10 43 -29 43zM120 504
c-20 0 -32 -16 -32 -52c0 -35 12 -51 32 -51s32 16 32 51c0 36 -12 52 -32 52z" />
    <glyph glyph-name="nine.num" 
d="M118 705c22 0 44 -7 61 -24c25 -23 39 -68 39 -140v-13c0 -139 -52 -183 -119 -183c-23 0 -41 7 -61 18v73c15 -12 35 -23 56 -23c27 0 46 18 48 65c-10 -6 -22 -13 -44 -13c-37 0 -79 25 -79 114c0 81 45 126 99 126zM120 529c11 0 18 4 23 10v32c0 48 -8 67 -26 67
c-15 0 -27 -14 -27 -55s12 -54 30 -54z" />
    <glyph glyph-name="zero.den" 
d="M120 -5c-70 0 -100 55 -100 172v16c0 117 30 172 100 172s100 -55 100 -172v-16c0 -117 -30 -172 -100 -172zM120 286c-19 0 -26 -21 -26 -106v-10c0 -85 7 -106 26 -106s26 21 26 106v10c0 85 -7 106 -26 106z" />
    <glyph glyph-name="one.den" horiz-adv-x="195" 
d="M149 0h-79v271l-52 -24v75l75 31h56v-353z" />
    <glyph glyph-name="one.den_alt" 
d="M224 0h-189v66h61v208l-59 -24v73l79 30h56v-287h52v-66z" />
    <glyph glyph-name="two.den" 
d="M28 0v64l75 115c22 34 34 51 34 71s-13 33 -34 33s-41 -11 -68 -40v78c19 18 46 34 82 34c56 0 98 -33 98 -94c0 -24 -5 -52 -36 -98l-60 -91h94v-72h-185z" />
    <glyph glyph-name="three.den" 
d="M106 -5c-38 0 -64 15 -77 25v72c14 -13 41 -28 67 -28c30 0 47 16 47 43s-27 41 -76 42h-2l-1 52l61 79h-94v70h186v-56l-74 -89c42 -11 77 -38 77 -96c0 -71 -48 -114 -114 -114z" />
    <glyph glyph-name="four.den" 
d="M201 64v-64h-68v64h-117v66l84 222h101v-223h27v-65h-27zM137 129v140h-7l-53 -140h60z" />
    <glyph glyph-name="five.den" 
d="M105 -5c-32 0 -61 11 -78 25v72c17 -15 42 -28 68 -28c29 0 49 19 49 50c0 27 -18 41 -42 41c-13 0 -25 -4 -35 -8l-43 19l15 184h166v-69h-107c-1 -20 -4 -42 -5 -61c10 2 18 3 29 3c51 0 99 -31 99 -107c0 -78 -54 -121 -116 -121z" />
    <glyph glyph-name="six.den" 
d="M122 -5c-22 0 -44 7 -61 24c-25 23 -39 68 -39 140v13c0 139 52 183 119 183c25 0 44 -7 57 -15l-4 -73c-12 9 -29 20 -48 20c-27 0 -46 -21 -48 -68c10 6 22 13 44 13c37 0 79 -25 79 -113c0 -80 -45 -124 -99 -124zM123 62c15 0 27 13 27 53s-12 53 -30 53
c-11 0 -18 -4 -23 -10v-31c0 -47 8 -65 26 -65z" />
    <glyph glyph-name="seven.den" 
d="M120 0h-78l91 278h-109v72h189v-53z" />
    <glyph glyph-name="eight.den" 
d="M120 -5c-64 0 -106 40 -106 102c0 46 22 74 45 88c-23 15 -38 42 -38 76c0 59 42 94 99 94s99 -35 99 -94c0 -34 -15 -61 -38 -76c23 -14 45 -42 45 -88c0 -62 -42 -102 -106 -102zM120 300c-19 0 -29 -14 -29 -43s10 -42 29 -42s29 13 29 42s-10 43 -29 43zM120 154
c-20 0 -32 -16 -32 -52c0 -35 12 -51 32 -51s32 16 32 51c0 36 -12 52 -32 52z" />
    <glyph glyph-name="nine.den" 
d="M118 355c22 0 44 -7 61 -24c25 -23 39 -68 39 -140v-13c0 -139 -52 -183 -119 -183c-23 0 -41 7 -61 18v73c15 -12 35 -23 56 -23c27 0 46 18 48 65c-10 -6 -22 -13 -44 -13c-37 0 -79 25 -79 114c0 81 45 126 99 126zM120 179c11 0 18 4 23 10v32c0 48 -8 67 -26 67
c-15 0 -27 -14 -27 -55s12 -54 30 -54z" />
    <glyph glyph-name="acute" unicode="&#xb4;" horiz-adv-x="500" 
d="M156 575l86 147l93 -49l-99 -98h-80z" />
    <glyph glyph-name="hungarumlaut" unicode="&#x2dd;" horiz-adv-x="500" 
d="M107 575l86 147l83 -47l28 47l85 -48l-96 -99h-75l55 93l-91 -93h-75z" />
    <glyph glyph-name="caron.alt" horiz-adv-x="500" 
d="M175 560l10 145h79v-2l-38 -143h-51z" />
    <glyph glyph-name="grave" unicode="`" horiz-adv-x="500" 
d="M252 575l-99 98l93 49l86 -147h-80z" />
    <glyph glyph-name="circumflex" unicode="&#x2c6;" horiz-adv-x="500" 
d="M128 575l78 139h88l78 -139h-77l-46 62l-46 -62h-75z" />
    <glyph glyph-name="caron" unicode="&#x2c7;" horiz-adv-x="500" 
d="M372 714l-78 -139h-88l-78 139h77l46 -62l46 62h75z" />
    <glyph glyph-name="breve" unicode="&#x2d8;" horiz-adv-x="500" 
d="M250 569c-62 0 -113 37 -118 119h70c4 -28 19 -47 48 -47s44 19 48 47h70c-5 -82 -56 -119 -118 -119z" />
    <glyph glyph-name="tilde" unicode="&#x2dc;" horiz-adv-x="500" 
d="M313 574c-20 0 -43 11 -63 20c-17 8 -32 15 -42 15c-15 0 -20 -9 -28 -39l-65 16c13 78 33 106 72 106c20 0 43 -11 63 -20c17 -8 32 -15 42 -15c15 0 20 9 28 39l65 -16c-13 -78 -33 -106 -72 -106z" />
    <glyph glyph-name="macron" unicode="&#xaf;" horiz-adv-x="500" 
d="M134 578v78h232v-78h-232z" />
    <glyph glyph-name="dieresis" unicode="&#xa8;" horiz-adv-x="500" 
d="M268 578v108h106v-108h-106zM126 578v108h106v-108h-106z" />
    <glyph glyph-name="dotaccent" unicode="&#x2d9;" horiz-adv-x="500" 
d="M196 578v108h108v-108h-108z" />
    <glyph glyph-name="ring" unicode="&#x2da;" horiz-adv-x="500" 
d="M250 569c-48 0 -87 37 -87 90c0 52 39 90 87 90s87 -37 87 -90c0 -52 -39 -90 -87 -90zM250 614c22 0 39 19 39 45s-17 45 -39 45s-39 -19 -39 -45s17 -45 39 -45z" />
    <glyph glyph-name="acute.cap" horiz-adv-x="500" 
d="M156 735l86 127l101 -50l-99 -77h-88z" />
    <glyph glyph-name="hungarumlaut.cap" horiz-adv-x="500" 
d="M218 735l44 64l-80 -64h-82l86 127l86 -48l32 48l91 -50l-95 -77h-82z" />
    <glyph glyph-name="grave.cap" horiz-adv-x="500" 
d="M332 735h-88l-99 77l101 50z" />
    <glyph glyph-name="circumflex.cap" horiz-adv-x="500" 
d="M128 735l74 119h96l74 -119h-82l-41 48l-41 -48h-80z" />
    <glyph glyph-name="caron.cap" horiz-adv-x="500" 
d="M372 854l-74 -119h-96l-74 119h82l41 -48l41 48h80z" />
    <glyph glyph-name="breve.cap" horiz-adv-x="500" 
d="M250 729c-65 0 -114 36 -115 111h70c4 -27 19 -39 45 -39c24 0 41 12 45 39h70c-2 -75 -51 -111 -115 -111z" />
    <glyph glyph-name="tilde.cap" horiz-adv-x="500" 
d="M313 734c-21 0 -43 10 -62 19c-17 8 -33 16 -43 16c-13 0 -18 -9 -26 -39l-69 17c13 80 34 109 74 109c22 0 46 -11 66 -21c16 -7 29 -14 39 -14c13 0 18 9 26 39l69 -17c-13 -80 -34 -109 -74 -109z" />
    <glyph glyph-name="macron.cap" horiz-adv-x="500" 
d="M129 738v79h242v-79h-242z" />
    <glyph glyph-name="dieresis.cap" horiz-adv-x="500" 
d="M271 738v108h108v-108h-108zM121 738v108h108v-108h-108z" />
    <glyph glyph-name="dotaccent.cap" horiz-adv-x="500" 
d="M195 738v108h110v-108h-110z" />
    <glyph glyph-name="ring.cap" horiz-adv-x="500" 
d="M250 729c-48 0 -87 35 -87 84c0 48 39 84 87 84s87 -35 87 -84c0 -48 -39 -84 -87 -84zM250 773c22 0 39 17 39 40s-17 40 -39 40s-39 -17 -39 -40s17 -40 39 -40z" />
    <glyph glyph-name="commaaccent" unicode="&#x326;" horiz-adv-x="500" 
d="M199 -225l-5 40c43 6 55 19 54 53h-48v90h106v-81c0 -70 -38 -97 -107 -102z" />
    <glyph glyph-name="cedilla" unicode="&#xb8;" horiz-adv-x="500" 
d="M251 -127l-100 38l73 109h75z" />
    <glyph glyph-name="ogonek" unicode="&#x2db;" horiz-adv-x="500" 
d="M315 -79v-68c-15 -3 -29 -4 -41 -4c-62 0 -97 24 -97 71c0 37 18 61 46 90h80c-21 -27 -29 -44 -29 -61c0 -23 15 -30 41 -28z" />
    </font>
</defs>
</svg>
