<?xml version="1.0" standalone="no"?>
<!DOCTYPE svg PUBLIC "-//W3C//DTD SVG 1.1//EN" "http://www.w3.org/Graphics/SVG/1.1/DTD/svg11.dtd" >
<svg xmlns="http://www.w3.org/2000/svg" xmlns:xlink="http://www.w3.org/1999/xlink" version="1.1">
<metadata>
Created by FontForge 20170910 at Fri Sep 12 14:34:41 2008
 By Jimmy Wärting
Copyright (C) 2005, 2008 Hoefler &#38; Frere-Jones. http://www.typography.com
</metadata>
<defs>
<font id="GothamCondensed-LightItalic" horiz-adv-x="240" >
  <font-face 
    font-family="Gotham Condensed Light"
    font-weight="300"
    font-style="italic"
    font-stretch="condensed"
    units-per-em="1000"
    panose-1="0 0 0 0 0 0 0 0 0 0"
    ascent="800"
    descent="-200"
    x-height="525"
    cap-height="700"
    bbox="-197 -200 714 914"
    underline-thickness="50"
    underline-position="-100"
    slope="-12"
    stemh="40"
    stemv="42"
    unicode-range="U+0020-FB04"
  />
<missing-glyph horiz-adv-x="500" 
d="M0 -200v1000h500v-1000h-500zM50 -76l172 376l-172 376v-752zM71 -150h358l-179 390zM250 360l179 390h-358zM450 -76v752l-172 -376z" />
    <glyph glyph-name="f_f" unicode="ff" horiz-adv-x="430" 
d="M23 0l94 486h-54l8 39h54l10 57c10 54 22 82 49 105c18 14 37 22 63 22c13 0 33 -3 45 -9l-9 -40c-12 6 -28 8 -36 8c-42 0 -57 -27 -68 -82l-12 -61h86l-8 -39h-86l-94 -486h-42zM239 0l94 486h-54l8 39h54l10 57c10 54 22 82 49 105c18 14 37 22 63 22
c13 0 33 -3 45 -9l-9 -40c-12 6 -28 8 -36 8c-42 0 -57 -27 -68 -82l-12 -61h86l-8 -39h-86l-94 -486h-42z" />
    <glyph glyph-name="fi" unicode="fi" horiz-adv-x="376" 
d="M23 0l94 486h-54l8 39h54l10 57c10 54 22 82 49 105c18 14 37 22 63 22c13 0 33 -3 45 -9l-9 -40c-12 6 -28 8 -36 8c-42 0 -57 -27 -68 -82l-12 -61h86l-8 -39h-86l-94 -486h-42zM224 0l102 525h42l-102 -525h-42zM346 637l13 70h46l-13 -70h-46z" />
    <glyph glyph-name="fl" unicode="fl" horiz-adv-x="376" 
d="M23 0l94 486h-54l8 39h54l10 57c10 54 22 82 49 105c18 14 37 22 63 22c13 0 33 -3 45 -9l-9 -40c-12 6 -28 8 -36 8c-42 0 -57 -27 -68 -82l-12 -61h86l-8 -39h-86l-94 -486h-42zM224 0l137 707h42l-137 -707h-42z" />
    <glyph glyph-name="f_f_i" unicode="ffi" horiz-adv-x="592" 
d="M23 0l94 486h-54l8 39h54l10 57c10 54 22 82 49 105c18 14 37 22 63 22c13 0 33 -3 45 -9l-9 -40c-12 6 -28 8 -36 8c-42 0 -57 -27 -68 -82l-12 -61h86l-8 -39h-86l-94 -486h-42zM239 0l94 486h-54l8 39h54l10 57c10 54 22 82 49 105c18 14 37 22 63 22
c13 0 33 -3 45 -9l-9 -40c-12 6 -28 8 -36 8c-42 0 -57 -27 -68 -82l-12 -61h86l-8 -39h-86l-94 -486h-42zM440 0l102 525h42l-102 -525h-42zM562 637l13 70h46l-13 -70h-46z" />
    <glyph glyph-name="f_f_l" unicode="ffl" horiz-adv-x="592" 
d="M23 0l94 486h-54l8 39h54l10 57c10 54 22 82 49 105c18 14 37 22 63 22c13 0 33 -3 45 -9l-9 -40c-12 6 -28 8 -36 8c-42 0 -57 -27 -68 -82l-12 -61h86l-8 -39h-86l-94 -486h-42zM239 0l94 486h-54l8 39h54l10 57c10 54 22 82 49 105c18 14 37 22 63 22
c13 0 33 -3 45 -9l-9 -40c-12 6 -28 8 -36 8c-42 0 -57 -27 -68 -82l-12 -61h86l-8 -39h-86l-94 -486h-42zM440 0l137 707h42l-137 -707h-42z" />
    <glyph glyph-name=".notdef" horiz-adv-x="500" 
d="M0 -200v1000h500v-1000h-500zM50 -76l172 376l-172 376v-752zM71 -150h358l-179 390zM250 360l179 390h-358zM450 -76v752l-172 -376z" />
    <glyph glyph-name="A" unicode="A" horiz-adv-x="410" 
d="M-22 0l289 703h48l16 -703h-44l-3 196h-182l-79 -196h-45zM118 236h165l-5 398z" />
    <glyph glyph-name="B" unicode="B" horiz-adv-x="373" 
d="M5 0l136 700h80c99 0 163 -56 163 -150c0 -121 -90 -179 -164 -197c66 -20 107 -70 107 -141c0 -159 -136 -212 -250 -212h-72zM57 40h24c125 0 202 60 202 172c0 72 -49 121 -138 121h-32zM121 373h18c121 0 200 73 200 173c0 73 -45 114 -121 114h-41z" />
    <glyph glyph-name="C" unicode="C" horiz-adv-x="327" 
d="M180 -6c-93 0 -138 81 -138 234c0 141 48 333 141 426c39 39 77 52 113 52c30 0 57 -9 77 -22l-9 -48c-19 16 -44 28 -71 28c-30 0 -55 -14 -77 -36c-73 -73 -130 -249 -130 -399c0 -118 28 -193 99 -193c22 0 43 7 70 23l-9 -46c-15 -10 -38 -19 -66 -19z" />
    <glyph glyph-name="D" unicode="D" horiz-adv-x="400" 
d="M5 0l136 700h71c47 0 87 -14 118 -45c41 -41 62 -105 62 -196c0 -88 -30 -285 -134 -389c-49 -49 -104 -70 -174 -70h-79zM297 626c-23 23 -54 34 -89 34h-31l-120 -620h37c49 0 95 19 133 57c93 93 121 279 121 359c0 79 -18 137 -51 170z" />
    <glyph glyph-name="E" unicode="E" horiz-adv-x="325" 
d="M5 0l136 700h238l-8 -40h-194l-55 -287h177l-8 -40h-177l-57 -293h197l-8 -40h-241z" />
    <glyph glyph-name="F" unicode="F" horiz-adv-x="306" 
d="M5 0l136 700h229l-8 -40h-185l-57 -297h168l-8 -40h-168l-63 -323h-44z" />
    <glyph glyph-name="G" unicode="G" horiz-adv-x="393" 
d="M202 -7c-103 0 -160 98 -160 244s50 309 141 400c46 46 95 69 149 69c32 0 62 -8 84 -22l-10 -48c-20 17 -47 28 -78 28c-37 0 -76 -16 -112 -52c-83 -83 -130 -240 -130 -375c0 -122 45 -204 122 -204c14 0 33 4 48 13l52 272h-104l8 40h146l-65 -338
c-33 -20 -61 -27 -91 -27z" />
    <glyph glyph-name="H" unicode="H" horiz-adv-x="416" 
d="M5 0l136 700h44l-64 -328h216l64 328h44l-136 -700h-44l65 332h-216l-65 -332h-44z" />
    <glyph glyph-name="I" unicode="I" horiz-adv-x="170" 
d="M12 0l136 700h44l-136 -700h-44z" />
    <glyph glyph-name="J" unicode="J" horiz-adv-x="238" 
d="M45 -5c-34 0 -63 15 -75 25l8 40c12 -10 38 -24 65 -24c17 0 31 5 42 16c13 13 21 37 28 72l112 576h44l-109 -560c-13 -64 -21 -96 -44 -119c-21 -21 -46 -26 -71 -26z" />
    <glyph glyph-name="K" unicode="K" horiz-adv-x="370" 
d="M5 0l136 700h44l-77 -395l272 395h51l-225 -320l105 -380h-46l-91 334l-83 -117l-42 -217h-44z" />
    <glyph glyph-name="L" unicode="L" horiz-adv-x="284" 
d="M5 0l136 700h44l-128 -660h176l-8 -40h-220z" />
    <glyph glyph-name="M" unicode="M" horiz-adv-x="478" 
d="M5 0l136 700h52l54 -391l205 391h55l-137 -700h-42l118 603l-218 -407h-4l-60 407l-118 -603h-41z" />
    <glyph glyph-name="N" unicode="N" horiz-adv-x="420" 
d="M5 0l136 700h45l106 -588l115 588h42l-137 -700h-39l-109 604l-118 -604h-41z" />
    <glyph glyph-name="O" unicode="O" horiz-adv-x="406" 
d="M278 708c75 0 123 -67 123 -206c0 -148 -50 -373 -141 -464c-31 -31 -64 -46 -98 -46c-75 0 -123 67 -123 206c0 148 50 373 141 464c31 31 64 46 98 46zM164 32c22 0 43 10 65 32c78 78 129 305 129 437c0 115 -32 167 -82 167c-22 0 -43 -10 -65 -32
c-78 -78 -129 -305 -129 -437c0 -115 32 -167 82 -167z" />
    <glyph glyph-name="P" unicode="P" horiz-adv-x="364" 
d="M5 0l136 700h66c58 0 101 -17 133 -49c31 -31 47 -75 47 -132c0 -77 -26 -145 -75 -194c-42 -42 -103 -67 -175 -67h-38l-50 -258h-44zM306 624c-27 27 -63 36 -103 36h-26l-70 -363h31c57 0 106 18 143 55c40 40 61 101 61 166c0 49 -13 83 -36 106z" />
    <glyph glyph-name="Q" unicode="Q" horiz-adv-x="406" 
d="M278 708c75 0 123 -67 123 -206c0 -131 -40 -324 -115 -430l43 -68l-33 -24l-37 59l-1 -1c-31 -31 -64 -46 -97 -46c-74 0 -122 67 -122 206c0 148 50 373 141 464c31 31 64 46 98 46zM164 32c24 0 47 12 69 34l5 6l-54 88l33 24l47 -77c60 99 94 277 94 394
c0 115 -32 167 -82 167c-22 0 -43 -10 -65 -32c-78 -78 -129 -305 -129 -437c0 -115 32 -167 82 -167z" />
    <glyph glyph-name="Q.alt" horiz-adv-x="406" 
d="M278 708c75 0 123 -67 123 -206c0 -131 -40 -324 -115 -430l43 -68l-33 -24l-37 59l-1 -1c-31 -31 -64 -46 -97 -46c-74 0 -122 67 -122 206c0 148 50 373 141 464c31 31 64 46 98 46zM164 32c24 0 47 12 69 34l5 6l-54 88l33 24l47 -77c60 99 94 277 94 394
c0 115 -32 167 -82 167c-22 0 -43 -10 -65 -32c-78 -78 -129 -305 -129 -437c0 -115 32 -167 82 -167z" />
    <glyph glyph-name="R" unicode="R" horiz-adv-x="383" 
d="M259 0l-72 285c-15 -2 -30 -3 -46 -3h-37l-55 -282h-44l136 700h76c53 0 99 -18 127 -46c31 -31 46 -69 46 -122c0 -80 -29 -140 -71 -182c-27 -27 -57 -44 -90 -55l76 -295h-46zM111 321h27c70 0 111 16 147 52c38 38 60 93 60 159c0 39 -11 71 -32 92
c-26 26 -62 36 -104 36h-32z" />
    <glyph glyph-name="S" unicode="S" horiz-adv-x="326" 
d="M118 -8c-45 0 -90 19 -127 56l9 52c41 -46 81 -66 121 -66c64 0 105 52 105 121c0 44 -20 102 -61 183c-57 113 -69 160 -69 212c0 49 19 90 45 116c27 27 61 42 104 42c41 0 81 -17 112 -45l-9 -51c-35 36 -69 54 -106 54c-65 0 -102 -53 -102 -114
c0 -44 15 -90 59 -177c50 -100 71 -159 71 -215c0 -50 -16 -95 -46 -125c-28 -28 -62 -43 -106 -43z" />
    <glyph glyph-name="T" unicode="T" horiz-adv-x="296" 
d="M75 0l128 660h-114l8 40h272l-8 -40h-114l-128 -660h-44z" />
    <glyph glyph-name="U" unicode="U" horiz-adv-x="407" 
d="M166 -9c-81 0 -134 49 -134 135c0 22 4 54 12 95l93 479h44l-96 -493c-6 -32 -9 -59 -9 -78c0 -64 37 -98 94 -98c28 0 53 10 72 29c26 26 42 63 54 124l100 516h44l-101 -520c-13 -69 -34 -115 -64 -145c-29 -29 -64 -44 -109 -44z" />
    <glyph glyph-name="V" unicode="V" horiz-adv-x="390" 
d="M120 -5l-9 705h44l3 -622l243 622h46l-283 -705h-44z" />
    <glyph glyph-name="W" unicode="W" horiz-adv-x="611" 
d="M99 -5l16 705h45l-23 -611l232 611h41l-5 -611l214 611h47l-258 -705h-41l6 611l-233 -611h-41z" />
    <glyph glyph-name="X" unicode="X" horiz-adv-x="357" 
d="M-31 0l204 372l-54 328h43l45 -287l155 287h46l-185 -336l61 -364h-43l-54 322l-172 -322h-46z" />
    <glyph glyph-name="Y" unicode="Y" horiz-adv-x="352" 
d="M103 0l59 302l-69 398h45l56 -343l187 343h48l-223 -398l-59 -302h-44z" />
    <glyph glyph-name="Z" unicode="Z" horiz-adv-x="326" 
d="M-21 0l4 28l346 635h-220l7 37h267l-4 -27l-346 -635h231l-7 -38h-278z" />
    <glyph glyph-name="a" unicode="a" horiz-adv-x="345" 
d="M104 -9c-62 0 -102 44 -102 125c0 65 22 129 63 170c26 26 61 43 102 43c36 0 68 -10 95 -26l4 22c9 46 11 64 11 83c0 48 -22 83 -89 83c-28 0 -59 -6 -91 -20l8 41c29 13 68 19 91 19c78 0 123 -44 123 -118c0 -22 -3 -46 -12 -92l-62 -321h-42l14 71
c-26 -44 -61 -80 -113 -80zM115 28c63 0 107 68 122 146l17 89c-23 18 -61 27 -90 27s-52 -11 -70 -29c-34 -34 -50 -92 -50 -145c0 -60 28 -88 71 -88z" />
    <glyph glyph-name="a.alt" horiz-adv-x="376" 
d="M128 -8c-61 0 -102 59 -102 167s36 262 109 335c27 27 53 39 81 39c56 0 87 -52 95 -116l22 108h42l-102 -525h-42l17 88c-29 -53 -72 -96 -120 -96zM137 29c20 0 41 10 61 30c60 60 95 193 95 295c0 91 -32 142 -76 142c-18 0 -36 -9 -54 -27c-61 -61 -96 -210 -96 -311
c0 -83 27 -129 70 -129z" />
    <glyph glyph-name="b" unicode="b" horiz-adv-x="376" 
d="M161 -8c-56 0 -87 52 -95 116l-22 -108h-42l137 707h42l-52 -270c29 53 72 96 120 96c61 0 102 -59 102 -167s-36 -262 -109 -335c-27 -27 -53 -39 -81 -39zM160 29c18 0 36 9 54 27c61 61 96 210 96 311c0 83 -27 129 -70 129c-20 0 -42 -11 -62 -31
c-61 -61 -94 -196 -94 -294c0 -91 32 -142 76 -142z" />
    <glyph glyph-name="c" unicode="c" horiz-adv-x="281" 
d="M142 -7c-66 0 -121 56 -121 176c0 115 42 248 111 317c29 29 63 46 100 46c27 0 55 -10 71 -25l-9 -45c-15 17 -36 30 -65 30c-25 0 -48 -12 -68 -32c-61 -61 -98 -192 -98 -281c0 -109 40 -146 86 -146c23 0 45 9 66 24l-8 -45c-20 -12 -42 -19 -65 -19z" />
    <glyph glyph-name="d" unicode="d" horiz-adv-x="376" 
d="M231 0l17 88c-29 -53 -72 -96 -120 -96c-61 0 -102 59 -102 167s36 262 109 335c27 27 53 39 81 39c56 0 87 -52 95 -116l57 290h42l-137 -707h-42zM137 29c20 0 41 10 61 30c60 60 95 193 95 295c0 91 -32 142 -76 142c-18 0 -36 -9 -54 -27c-61 -61 -96 -210 -96 -311
c0 -83 27 -129 70 -129z" />
    <glyph glyph-name="e" unicode="e" horiz-adv-x="348" 
d="M307 245h-239c-3 -21 -4 -41 -4 -60c0 -103 41 -152 103 -152c28 0 57 10 87 31l-3 -43c-14 -11 -49 -28 -87 -28c-80 0 -141 59 -141 192c0 115 43 241 107 305c27 27 57 43 90 43c62 0 104 -54 104 -158c0 -29 -5 -74 -17 -130zM159 466c-40 -40 -70 -111 -85 -184h199
c7 33 10 63 10 96c0 70 -21 116 -67 116c-20 0 -39 -10 -57 -28z" />
    <glyph glyph-name="f" unicode="f" horiz-adv-x="214" 
d="M23 0l94 486h-54l8 39h54l10 57c10 54 22 82 49 105c18 14 37 22 63 22c13 0 33 -3 45 -9l-9 -40c-12 6 -28 8 -36 8c-42 0 -57 -27 -68 -82l-12 -61h86l-8 -39h-86l-94 -486h-42z" />
    <glyph glyph-name="g" unicode="g" horiz-adv-x="376" 
d="M107 -132c-33 0 -85 10 -121 28l7 43c34 -20 78 -32 119 -32c33 0 63 8 86 31c18 18 29 44 37 85l20 101c-29 -53 -72 -96 -120 -96c-63 0 -105 61 -105 169c0 78 32 224 105 297c27 27 53 39 81 39c56 0 87 -52 95 -116l22 108h42l-98 -500c-11 -55 -23 -88 -48 -113
c-31 -31 -73 -44 -122 -44zM144 65c22 0 43 12 62 31c37 37 87 133 87 258c0 91 -32 142 -76 142c-18 0 -36 -9 -54 -27c-61 -61 -92 -199 -92 -273c0 -83 28 -131 73 -131z" />
    <glyph glyph-name="h" unicode="h" horiz-adv-x="372" 
d="M2 0l138 707h42l-51 -259c29 50 69 85 121 85c57 0 95 -41 95 -111c0 -20 -2 -45 -11 -91l-64 -331h-42l65 335c9 46 10 68 10 86c0 49 -23 76 -65 76c-62 0 -112 -68 -127 -143l-69 -354h-42z" />
    <glyph glyph-name="i" unicode="i" horiz-adv-x="160" 
d="M8 0l102 525h42l-102 -525h-42zM130 637l13 70h46l-13 -70h-46z" />
    <glyph glyph-name="j" unicode="j" horiz-adv-x="167" 
d="M-59 -132c-15 0 -32 3 -37 5l8 39c8 -2 16 -4 30 -4c46 0 63 39 73 93l102 524h42l-106 -543c-12 -65 -42 -114 -112 -114zM137 637l13 70h46l-13 -70h-46z" />
    <glyph glyph-name="k" unicode="k" horiz-adv-x="320" 
d="M2 0l137 707h42l-91 -468l205 286h49l-158 -211l67 -314h-42l-56 273l-78 -104l-33 -169h-42z" />
    <glyph glyph-name="l" unicode="l" horiz-adv-x="160" 
d="M8 0l137 707h42l-137 -707h-42z" />
    <glyph glyph-name="m" unicode="m" horiz-adv-x="588" 
d="M2 0l102 525h42l-15 -77c29 50 69 85 118 85s83 -33 89 -92c38 62 83 92 133 92c54 0 92 -41 92 -111c0 -20 -2 -45 -11 -91l-64 -331h-42l65 335c9 46 10 68 10 86c0 49 -23 76 -62 76c-54 0 -108 -62 -122 -132l-71 -365h-42l65 335c9 46 10 68 10 86
c0 49 -23 76 -62 76c-59 0 -109 -68 -124 -143l-69 -354h-42z" />
    <glyph glyph-name="n" unicode="n" horiz-adv-x="372" 
d="M2 0l102 525h42l-15 -77c29 50 69 85 121 85c57 0 95 -41 95 -111c0 -20 -2 -45 -11 -91l-64 -331h-42l65 335c9 46 10 68 10 86c0 49 -23 76 -65 76c-62 0 -112 -68 -127 -143l-69 -354h-42z" />
    <glyph glyph-name="o" unicode="o" horiz-adv-x="362" 
d="M223 533c69 0 115 -65 115 -178c0 -128 -46 -260 -107 -321c-30 -30 -63 -42 -92 -42c-69 0 -115 65 -115 178c0 128 46 260 107 321c30 30 63 42 92 42zM142 31c22 0 41 10 60 29c54 54 94 187 94 297c0 87 -29 137 -76 137c-22 0 -41 -10 -60 -29
c-54 -54 -94 -187 -94 -297c0 -87 29 -137 76 -137z" />
    <glyph glyph-name="p" unicode="p" horiz-adv-x="376" 
d="M161 -8c-56 0 -87 52 -95 116l-47 -238h-42l127 655h42l-17 -88c29 53 72 96 120 96c61 0 102 -59 102 -167s-36 -262 -109 -335c-27 -27 -53 -39 -81 -39zM160 29c18 0 36 9 54 27c61 61 96 210 96 311c0 83 -27 129 -70 129c-20 0 -41 -10 -61 -30
c-60 -60 -95 -193 -95 -295c0 -91 32 -142 76 -142z" />
    <glyph glyph-name="q" unicode="q" horiz-adv-x="376" 
d="M128 -8c-61 0 -102 59 -102 167s36 262 109 335c27 27 53 39 81 39c56 0 87 -52 95 -116l22 108h42l-127 -655h-42l42 218c-29 -53 -72 -96 -120 -96zM137 29c20 0 41 10 61 30c60 60 95 193 95 295c0 91 -32 142 -76 142c-18 0 -36 -9 -54 -27
c-61 -61 -96 -210 -96 -311c0 -83 27 -129 70 -129z" />
    <glyph glyph-name="r" unicode="r" horiz-adv-x="234" 
d="M2 0l102 525h42l-15 -77c29 48 71 87 139 83l-9 -45h-4c-72 0 -127 -42 -145 -134l-68 -352h-42z" />
    <glyph glyph-name="s" unicode="s" horiz-adv-x="276" 
d="M94 -6c-41 0 -79 15 -116 42l11 44c32 -28 71 -46 107 -46c48 0 85 30 85 88c0 32 -15 67 -57 125c-51 71 -68 111 -68 158c0 67 42 126 126 126c42 0 77 -17 98 -33l-10 -44c-26 22 -59 37 -90 37c-51 0 -82 -33 -82 -84c0 -29 11 -62 55 -124c49 -68 70 -111 70 -158
c0 -75 -46 -131 -129 -131z" />
    <glyph glyph-name="t" unicode="t" horiz-adv-x="225" 
d="M105 -4c-43 0 -72 22 -72 67c0 16 5 42 7 52l72 371h-50l8 39h50l28 148h42l-28 -148h85l-8 -39h-85l-76 -392c-2 -10 -3 -18 -3 -24c0 -22 12 -34 40 -34c14 0 32 5 40 10l-7 -39c-10 -6 -27 -11 -43 -11z" />
    <glyph glyph-name="u" unicode="u" horiz-adv-x="372" 
d="M120 -8c-57 0 -95 41 -95 111c0 20 2 45 11 91l64 331h42l-65 -335c-9 -46 -10 -68 -10 -86c0 -49 23 -76 65 -76c62 0 112 68 127 143l69 354h42l-102 -525h-42l15 77c-29 -50 -69 -85 -121 -85z" />
    <glyph glyph-name="v" unicode="v" horiz-adv-x="344" 
d="M100 -3l-26 528h41l17 -454l193 454h43l-232 -528h-36z" />
    <glyph glyph-name="w" unicode="w" horiz-adv-x="529" 
d="M85 -3l-6 528h42l-3 -455l176 455h38v-455l173 455h43l-212 -528h-38l-2 442l-173 -442h-38z" />
    <glyph glyph-name="x" unicode="x" horiz-adv-x="337" 
d="M132 525l46 -214l130 214h44l-159 -254l63 -271h-41l-52 233l-141 -233h-43l169 273l-57 252h41z" />
    <glyph glyph-name="y" unicode="y" horiz-adv-x="342" 
d="M99 5l-26 520h42l17 -448l191 448h43l-286 -655h-40z" />
    <glyph glyph-name="z" unicode="z" horiz-adv-x="278" 
d="M-25 0l6 29l268 459h-180l7 37h227l-6 -29l-268 -459h185l-7 -37h-232z" />
    <glyph glyph-name="Aacute" unicode="&#xc1;" horiz-adv-x="410" 
d="M-22 0l289 703h48l16 -703h-44l-3 196h-182l-79 -196h-45zM118 236h165l-5 398zM277 745l83 104l45 -23l-94 -81h-34z" />
    <glyph glyph-name="aacute" unicode="&#xe1;" horiz-adv-x="345" 
d="M104 -9c-62 0 -102 44 -102 125c0 65 22 129 63 170c26 26 61 43 102 43c36 0 68 -10 95 -26l4 22c9 46 11 64 11 83c0 48 -22 83 -89 83c-28 0 -59 -6 -91 -20l8 41c29 13 68 19 91 19c78 0 123 -44 123 -118c0 -22 -3 -46 -12 -92l-62 -321h-42l14 71
c-26 -44 -61 -80 -113 -80zM115 28c63 0 107 68 122 146l17 89c-23 18 -61 27 -90 27s-52 -11 -70 -29c-34 -34 -50 -92 -50 -145c0 -60 28 -88 71 -88zM200 581l89 125l44 -26l-101 -99h-32z" />
    <glyph glyph-name="aacute.alt" horiz-adv-x="376" 
d="M128 -8c-61 0 -102 59 -102 167s36 262 109 335c27 27 53 39 81 39c56 0 87 -52 95 -116l22 108h42l-102 -525h-42l17 88c-29 -53 -72 -96 -120 -96zM137 29c20 0 41 10 61 30c60 60 95 193 95 295c0 91 -32 142 -76 142c-18 0 -36 -9 -54 -27c-61 -61 -96 -210 -96 -311
c0 -83 27 -129 70 -129zM230 581l89 125l44 -26l-101 -99h-32z" />
    <glyph glyph-name="Abreve" unicode="&#x102;" horiz-adv-x="410" 
d="M-22 0l289 703h48l16 -703h-44l-3 196h-182l-79 -196h-45zM118 236h165l-5 398zM302 748c-50 0 -88 26 -85 79h37c3 -27 20 -39 51 -39s50 12 63 39h37c-17 -53 -53 -79 -103 -79z" />
    <glyph glyph-name="abreve" unicode="&#x103;" horiz-adv-x="345" 
d="M104 -9c-62 0 -102 44 -102 125c0 65 22 129 63 170c26 26 61 43 102 43c36 0 68 -10 95 -26l4 22c9 46 11 64 11 83c0 48 -22 83 -89 83c-28 0 -59 -6 -91 -20l8 41c29 13 68 19 91 19c78 0 123 -44 123 -118c0 -22 -3 -46 -12 -92l-62 -321h-42l14 71
c-26 -44 -61 -80 -113 -80zM115 28c63 0 107 68 122 146l17 89c-23 18 -61 27 -90 27s-52 -11 -70 -29c-34 -34 -50 -92 -50 -145c0 -60 28 -88 71 -88zM224 584c-50 0 -87 29 -80 94h36c-1 -38 18 -55 46 -55c32 0 53 17 68 55h36c-19 -65 -57 -94 -106 -94z" />
    <glyph glyph-name="abreve.alt" horiz-adv-x="376" 
d="M128 -8c-61 0 -102 59 -102 167s36 262 109 335c27 27 53 39 81 39c56 0 87 -52 95 -116l22 108h42l-102 -525h-42l17 88c-29 -53 -72 -96 -120 -96zM137 29c20 0 41 10 61 30c60 60 95 193 95 295c0 91 -32 142 -76 142c-18 0 -36 -9 -54 -27c-61 -61 -96 -210 -96 -311
c0 -83 27 -129 70 -129zM254 584c-50 0 -87 29 -80 94h36c-1 -38 18 -55 46 -55c32 0 53 17 68 55h36c-19 -65 -57 -94 -106 -94z" />
    <glyph glyph-name="Acircumflex" unicode="&#xc2;" horiz-adv-x="410" 
d="M-22 0l289 703h48l16 -703h-44l-3 196h-182l-79 -196h-45zM118 236h165l-5 398zM208 750l91 97h40l53 -97h-40l-40 58l-62 -58h-42z" />
    <glyph glyph-name="acircumflex" unicode="&#xe2;" horiz-adv-x="345" 
d="M104 -9c-62 0 -102 44 -102 125c0 65 22 129 63 170c26 26 61 43 102 43c36 0 68 -10 95 -26l4 22c9 46 11 64 11 83c0 48 -22 83 -89 83c-28 0 -59 -6 -91 -20l8 41c29 13 68 19 91 19c78 0 123 -44 123 -118c0 -22 -3 -46 -12 -92l-62 -321h-42l14 71
c-26 -44 -61 -80 -113 -80zM115 28c63 0 107 68 122 146l17 89c-23 18 -61 27 -90 27s-52 -11 -70 -29c-34 -34 -50 -92 -50 -145c0 -60 28 -88 71 -88zM137 586l90 122h34l44 -122h-35l-34 75l-62 -75h-37z" />
    <glyph glyph-name="acircumflex.alt" horiz-adv-x="376" 
d="M128 -8c-61 0 -102 59 -102 167s36 262 109 335c27 27 53 39 81 39c56 0 87 -52 95 -116l22 108h42l-102 -525h-42l17 88c-29 -53 -72 -96 -120 -96zM137 29c20 0 41 10 61 30c60 60 95 193 95 295c0 91 -32 142 -76 142c-18 0 -36 -9 -54 -27c-61 -61 -96 -210 -96 -311
c0 -83 27 -129 70 -129zM167 586l90 122h34l44 -122h-35l-34 75l-62 -75h-37z" />
    <glyph glyph-name="Adieresis" unicode="&#xc4;" horiz-adv-x="410" 
d="M-22 0l289 703h48l16 -703h-44l-3 196h-182l-79 -196h-45zM118 236h165l-5 398zM227 755l12 63h50l-12 -63h-50zM331 755l12 63h50l-12 -63h-50z" />
    <glyph glyph-name="adieresis" unicode="&#xe4;" horiz-adv-x="345" 
d="M104 -9c-62 0 -102 44 -102 125c0 65 22 129 63 170c26 26 61 43 102 43c36 0 68 -10 95 -26l4 22c9 46 11 64 11 83c0 48 -22 83 -89 83c-28 0 -59 -6 -91 -20l8 41c29 13 68 19 91 19c78 0 123 -44 123 -118c0 -22 -3 -46 -12 -92l-62 -321h-42l14 71
c-26 -44 -61 -80 -113 -80zM115 28c63 0 107 68 122 146l17 89c-23 18 -61 27 -90 27s-52 -11 -70 -29c-34 -34 -50 -92 -50 -145c0 -60 28 -88 71 -88zM152 591l13 67h46l-13 -67h-46zM252 591l13 67h46l-13 -67h-46z" />
    <glyph glyph-name="adieresis.alt" horiz-adv-x="376" 
d="M128 -8c-61 0 -102 59 -102 167s36 262 109 335c27 27 53 39 81 39c56 0 87 -52 95 -116l22 108h42l-102 -525h-42l17 88c-29 -53 -72 -96 -120 -96zM137 29c20 0 41 10 61 30c60 60 95 193 95 295c0 91 -32 142 -76 142c-18 0 -36 -9 -54 -27c-61 -61 -96 -210 -96 -311
c0 -83 27 -129 70 -129zM181 591l13 67h46l-13 -67h-46zM281 591l13 67h46l-13 -67h-46z" />
    <glyph glyph-name="AE" unicode="&#xc6;" horiz-adv-x="509" 
d="M-49 0l333 700h279l-8 -40h-194l-55 -287h177l-8 -40h-177l-57 -293h197l-8 -40h-241l38 196h-139l-93 -196h-44zM107 236h128l82 424h-10z" />
    <glyph glyph-name="ae" unicode="&#xe6;" horiz-adv-x="566" 
d="M382 -7c-65 0 -112 39 -128 124c-42 -84 -91 -126 -150 -126c-62 0 -102 44 -102 125c0 65 22 129 63 170c26 26 61 43 102 43c36 0 68 -10 95 -26l4 22c9 46 11 64 11 83c0 48 -22 83 -89 83c-28 0 -59 -6 -91 -20l8 41c29 13 68 19 91 19c70 0 109 -35 116 -96
c31 57 74 98 126 98c62 0 104 -54 104 -158c0 -29 -5 -74 -17 -130h-239c-3 -21 -4 -41 -4 -60c0 -103 41 -152 103 -152c28 0 57 10 87 31l-3 -43c-14 -11 -49 -28 -87 -28zM113 28c56 0 105 66 135 135c-1 39 2 71 7 99c-24 19 -62 28 -90 28c-29 0 -53 -11 -71 -29
c-34 -34 -50 -92 -50 -145c0 -60 28 -88 69 -88zM377 466c-40 -40 -70 -111 -85 -184h199c7 33 10 63 10 96c0 70 -21 116 -67 116c-20 0 -39 -10 -57 -28z" />
    <glyph glyph-name="AEacute" unicode="&#x1fc;" horiz-adv-x="509" 
d="M-49 0l333 700h279l-8 -40h-194l-55 -287h177l-8 -40h-177l-57 -293h197l-8 -40h-241l38 196h-139l-93 -196h-44zM107 236h128l82 424h-10zM366 740l83 104l45 -23l-94 -81h-34z" />
    <glyph glyph-name="aeacute" unicode="&#x1fd;" horiz-adv-x="566" 
d="M382 -7c-65 0 -112 39 -128 124c-42 -84 -91 -126 -150 -126c-62 0 -102 44 -102 125c0 65 22 129 63 170c26 26 61 43 102 43c36 0 68 -10 95 -26l4 22c9 46 11 64 11 83c0 48 -22 83 -89 83c-28 0 -59 -6 -91 -20l8 41c29 13 68 19 91 19c70 0 109 -35 116 -96
c31 57 74 98 126 98c62 0 104 -54 104 -158c0 -29 -5 -74 -17 -130h-239c-3 -21 -4 -41 -4 -60c0 -103 41 -152 103 -152c28 0 57 10 87 31l-3 -43c-14 -11 -49 -28 -87 -28zM113 28c56 0 105 66 135 135c-1 39 2 71 7 99c-24 19 -62 28 -90 28c-29 0 -53 -11 -71 -29
c-34 -34 -50 -92 -50 -145c0 -60 28 -88 69 -88zM377 466c-40 -40 -70 -111 -85 -184h199c7 33 10 63 10 96c0 70 -21 116 -67 116c-20 0 -39 -10 -57 -28zM304 576l89 125l44 -26l-101 -99h-32z" />
    <glyph glyph-name="Agrave" unicode="&#xc0;" horiz-adv-x="410" 
d="M-22 0l289 703h48l16 -703h-44l-3 196h-182l-79 -196h-45zM118 236h165l-5 398zM288 745l-81 82l44 22l69 -104h-32z" />
    <glyph glyph-name="agrave" unicode="&#xe0;" horiz-adv-x="345" 
d="M104 -9c-62 0 -102 44 -102 125c0 65 22 129 63 170c26 26 61 43 102 43c36 0 68 -10 95 -26l4 22c9 46 11 64 11 83c0 48 -22 83 -89 83c-28 0 -59 -6 -91 -20l8 41c29 13 68 19 91 19c78 0 123 -44 123 -118c0 -22 -3 -46 -12 -92l-62 -321h-42l14 71
c-26 -44 -61 -80 -113 -80zM115 28c63 0 107 68 122 146l17 89c-23 18 -61 27 -90 27s-52 -11 -70 -29c-34 -34 -50 -92 -50 -145c0 -60 28 -88 71 -88zM203 581l-81 100l43 25l67 -125h-29z" />
    <glyph glyph-name="agrave.alt" horiz-adv-x="376" 
d="M128 -8c-61 0 -102 59 -102 167s36 262 109 335c27 27 53 39 81 39c56 0 87 -52 95 -116l22 108h42l-102 -525h-42l17 88c-29 -53 -72 -96 -120 -96zM137 29c20 0 41 10 61 30c60 60 95 193 95 295c0 91 -32 142 -76 142c-18 0 -36 -9 -54 -27c-61 -61 -96 -210 -96 -311
c0 -83 27 -129 70 -129zM233 581l-81 100l43 25l67 -125h-29z" />
    <glyph glyph-name="Amacron" unicode="&#x100;" horiz-adv-x="410" 
d="M-22 0l289 703h48l16 -703h-44l-3 196h-182l-79 -196h-45zM118 236h165l-5 398zM208 757l8 41h192l-8 -41h-192z" />
    <glyph glyph-name="amacron" unicode="&#x101;" horiz-adv-x="345" 
d="M104 -9c-62 0 -102 44 -102 125c0 65 22 129 63 170c26 26 61 43 102 43c36 0 68 -10 95 -26l4 22c9 46 11 64 11 83c0 48 -22 83 -89 83c-28 0 -59 -6 -91 -20l8 41c29 13 68 19 91 19c78 0 123 -44 123 -118c0 -22 -3 -46 -12 -92l-62 -321h-42l14 71
c-26 -44 -61 -80 -113 -80zM115 28c63 0 107 68 122 146l17 89c-23 18 -61 27 -90 27s-52 -11 -70 -29c-34 -34 -50 -92 -50 -145c0 -60 28 -88 71 -88zM134 593l8 39h180l-8 -39h-180z" />
    <glyph glyph-name="amacron.alt" horiz-adv-x="376" 
d="M128 -8c-61 0 -102 59 -102 167s36 262 109 335c27 27 53 39 81 39c56 0 87 -52 95 -116l22 108h42l-102 -525h-42l17 88c-29 -53 -72 -96 -120 -96zM137 29c20 0 41 10 61 30c60 60 95 193 95 295c0 91 -32 142 -76 142c-18 0 -36 -9 -54 -27c-61 -61 -96 -210 -96 -311
c0 -83 27 -129 70 -129zM164 593l8 39h180l-8 -39h-180z" />
    <glyph glyph-name="Aogonek" unicode="&#x104;" horiz-adv-x="410" 
d="M320 -87l-6 -32h-1c-53 0 -72 20 -72 46c0 22 15 44 52 73h-6l-3 196h-182l-79 -196h-45l289 703h48l16 -703h-7c-30 -32 -43 -46 -43 -62s13 -23 39 -25zM118 236h165l-5 398z" />
    <glyph glyph-name="aogonek" unicode="&#x105;" horiz-adv-x="345" 
d="M235 -87l-6 -32h-1c-53 0 -72 20 -72 46c0 22 15 44 52 73h-5l14 71c-26 -44 -61 -80 -113 -80c-62 0 -102 44 -102 125c0 65 22 129 63 170c26 26 61 43 102 43c36 0 68 -10 95 -26l4 22c9 46 11 64 11 83c0 48 -22 83 -89 83c-28 0 -59 -6 -91 -20l8 41
c29 13 68 19 91 19c78 0 123 -44 123 -118c0 -22 -3 -46 -12 -92l-62 -321h-6c-30 -32 -43 -46 -43 -62s13 -23 39 -25zM115 28c63 0 107 68 122 146l17 89c-23 18 -61 27 -90 27s-52 -11 -70 -29c-34 -34 -50 -92 -50 -145c0 -60 28 -88 71 -88z" />
    <glyph glyph-name="aogonek.alt" horiz-adv-x="376" 
d="M263 -87l-6 -32h-1c-53 0 -72 20 -72 46c0 22 15 44 52 73h-5l17 88c-29 -53 -72 -96 -120 -96c-61 0 -102 59 -102 167s36 262 109 335c27 27 53 39 81 39c56 0 87 -52 95 -116l22 108h42l-102 -525h-6c-30 -32 -43 -46 -43 -62s13 -23 39 -25zM137 29c20 0 41 10 61 30
c60 60 95 193 95 295c0 91 -32 142 -76 142c-18 0 -36 -9 -54 -27c-61 -61 -96 -210 -96 -311c0 -83 27 -129 70 -129z" />
    <glyph glyph-name="Aring" unicode="&#xc5;" horiz-adv-x="410" 
d="M-22 0l275 669c-24 11 -37 35 -37 61c0 44 36 79 84 79c45 0 74 -31 74 -69c0 -36 -24 -66 -59 -76l16 -664h-44l-3 196h-182l-79 -196h-45zM118 236h165l-5 398zM291 688c34 0 52 25 52 50c0 24 -16 44 -44 44c-34 0 -52 -25 -52 -50c0 -24 16 -44 44 -44z" />
    <glyph glyph-name="aring" unicode="&#xe5;" horiz-adv-x="345" 
d="M104 -9c-62 0 -102 44 -102 125c0 65 22 129 63 170c26 26 61 43 102 43c36 0 68 -10 95 -26l4 22c9 46 11 64 11 83c0 48 -22 83 -89 83c-28 0 -59 -6 -91 -20l8 41c29 13 68 19 91 19c78 0 123 -44 123 -118c0 -22 -3 -46 -12 -92l-62 -321h-42l14 71
c-26 -44 -61 -80 -113 -80zM115 28c63 0 107 68 122 146l17 89c-23 18 -61 27 -90 27s-52 -11 -70 -29c-34 -34 -50 -92 -50 -145c0 -60 28 -88 71 -88zM317 668c0 -46 -36 -86 -86 -86c-42 0 -72 31 -72 72c0 46 36 86 86 86c42 0 72 -31 72 -72zM188 656
c0 -26 16 -48 45 -48c33 0 55 27 55 58c0 26 -16 48 -45 48c-33 0 -55 -27 -55 -58z" />
    <glyph glyph-name="aring.alt" horiz-adv-x="376" 
d="M128 -8c-61 0 -102 59 -102 167s36 262 109 335c27 27 53 39 81 39c56 0 87 -52 95 -116l22 108h42l-102 -525h-42l17 88c-29 -53 -72 -96 -120 -96zM137 29c20 0 41 10 61 30c60 60 95 193 95 295c0 91 -32 142 -76 142c-18 0 -36 -9 -54 -27c-61 -61 -96 -210 -96 -311
c0 -83 27 -129 70 -129zM347 668c0 -46 -36 -86 -86 -86c-42 0 -72 31 -72 72c0 46 36 86 86 86c42 0 72 -31 72 -72zM218 656c0 -26 16 -48 45 -48c33 0 55 27 55 58c0 26 -16 48 -45 48c-33 0 -55 -27 -55 -58z" />
    <glyph glyph-name="aring.alt2" horiz-adv-x="345" 
d="M203 0l14 71c-26 -44 -61 -80 -113 -80c-62 0 -102 44 -102 125c0 65 22 129 63 170c26 26 61 43 102 43c36 0 68 -10 95 -26l4 22c9 46 11 64 11 83c0 48 -22 83 -89 83c-28 0 -59 -6 -91 -20l8 41c20 9 44 15 65 17c-10 13 -16 29 -16 48c0 46 36 86 86 86
c42 0 72 -31 72 -72c0 -32 -18 -62 -46 -76c34 -19 53 -55 53 -102c0 -22 -3 -46 -12 -92l-62 -321h-42zM228 531c33 0 55 27 55 58c0 26 -16 48 -45 48c-33 0 -55 -27 -55 -58c0 -26 16 -48 45 -48zM115 28c63 0 107 68 122 146l17 89c-23 18 -61 27 -90 27
s-52 -11 -70 -29c-34 -34 -50 -92 -50 -145c0 -60 28 -88 71 -88z" />
    <glyph glyph-name="Aringacute" unicode="&#x1fa;" horiz-adv-x="410" 
d="M-22 0l275 669c-24 11 -37 35 -37 61c0 44 36 79 84 79c45 0 74 -31 74 -69c0 -36 -24 -66 -59 -76l16 -664h-44l-3 196h-182l-79 -196h-45zM118 236h165l-5 398zM291 688c34 0 52 25 52 50c0 24 -16 44 -44 44c-34 0 -52 -25 -52 -50c0 -24 16 -44 44 -44zM296 830
l79 84l43 -21l-86 -63h-36z" />
    <glyph glyph-name="aringacute" unicode="&#x1fb;" horiz-adv-x="345" 
d="M249 766l87 100l40 -24l-94 -76h-33zM104 -9c-62 0 -102 44 -102 125c0 65 22 129 63 170c26 26 61 43 102 43c36 0 68 -10 95 -26l4 22c9 46 11 64 11 83c0 48 -22 83 -89 83c-28 0 -59 -6 -91 -20l8 41c29 13 68 19 91 19c78 0 123 -44 123 -118c0 -22 -3 -46 -12 -92
l-62 -321h-42l14 71c-26 -44 -61 -80 -113 -80zM115 28c63 0 107 68 122 146l17 89c-23 18 -61 27 -90 27s-52 -11 -70 -29c-34 -34 -50 -92 -50 -145c0 -60 28 -88 71 -88zM325 663c0 -46 -36 -86 -86 -86c-42 0 -72 31 -72 72c0 46 36 86 86 86c42 0 72 -31 72 -72z
M196 651c0 -26 16 -48 45 -48c33 0 55 27 55 58c0 26 -16 48 -45 48c-33 0 -55 -27 -55 -58z" />
    <glyph glyph-name="aringacute.alt" horiz-adv-x="376" 
d="M271 766l87 100l40 -24l-94 -76h-33zM128 -8c-61 0 -102 59 -102 167s36 262 109 335c27 27 53 39 81 39c56 0 87 -52 95 -116l22 108h42l-102 -525h-42l17 88c-29 -53 -72 -96 -120 -96zM137 29c20 0 41 10 61 30c60 60 95 193 95 295c0 91 -32 142 -76 142
c-18 0 -36 -9 -54 -27c-61 -61 -96 -210 -96 -311c0 -83 27 -129 70 -129zM347 663c0 -46 -36 -86 -86 -86c-42 0 -72 31 -72 72c0 46 36 86 86 86c42 0 72 -31 72 -72zM218 651c0 -26 16 -48 45 -48c33 0 55 27 55 58c0 26 -16 48 -45 48c-33 0 -55 -27 -55 -58z" />
    <glyph glyph-name="aringacute.alt2" horiz-adv-x="345" 
d="M236 694l87 100l40 -24l-94 -76h-33zM203 0l14 71c-26 -44 -61 -80 -113 -80c-62 0 -102 44 -102 125c0 65 22 129 63 170c26 26 61 43 102 43c36 0 68 -10 95 -26l4 22c9 46 11 64 11 83c0 48 -22 83 -89 83c-28 0 -59 -6 -91 -20l8 41c20 9 44 15 65 17
c-10 13 -16 29 -16 48c0 46 36 86 86 86c42 0 72 -31 72 -72c0 -32 -18 -62 -46 -76c34 -19 53 -55 53 -102c0 -22 -3 -46 -12 -92l-62 -321h-42zM228 531c33 0 55 27 55 58c0 26 -16 48 -45 48c-33 0 -55 -27 -55 -58c0 -26 16 -48 45 -48zM115 28c63 0 107 68 122 146
l17 89c-23 18 -61 27 -90 27s-52 -11 -70 -29c-34 -34 -50 -92 -50 -145c0 -60 28 -88 71 -88z" />
    <glyph glyph-name="Atilde" unicode="&#xc3;" horiz-adv-x="410" 
d="M-22 0l289 703h48l16 -703h-44l-3 196h-182l-79 -196h-45zM118 236h165l-5 398zM233 751l-31 10c19 39 38 63 67 63c19 0 30 -8 48 -21c17 -13 24 -18 33 -18c14 0 23 13 35 35l31 -10c-19 -39 -38 -63 -67 -63c-19 0 -30 8 -48 21c-17 13 -24 18 -33 18
c-14 0 -23 -13 -35 -35z" />
    <glyph glyph-name="atilde" unicode="&#xe3;" horiz-adv-x="345" 
d="M104 -9c-62 0 -102 44 -102 125c0 65 22 129 63 170c26 26 61 43 102 43c36 0 68 -10 95 -26l4 22c9 46 11 64 11 83c0 48 -22 83 -89 83c-28 0 -59 -6 -91 -20l8 41c29 13 68 19 91 19c78 0 123 -44 123 -118c0 -22 -3 -46 -12 -92l-62 -321h-42l14 71
c-26 -44 -61 -80 -113 -80zM115 28c63 0 107 68 122 146l17 89c-23 18 -61 27 -90 27s-52 -11 -70 -29c-34 -34 -50 -92 -50 -145c0 -60 28 -88 71 -88zM304 667l29 -9c-18 -50 -37 -75 -65 -75c-18 0 -30 9 -44 25c-16 18 -22 24 -31 24c-12 0 -24 -17 -35 -46l-29 9
c18 50 37 75 65 75c18 0 30 -9 44 -25c16 -18 22 -24 31 -24c12 0 24 17 35 46z" />
    <glyph glyph-name="atilde.alt" horiz-adv-x="376" 
d="M128 -8c-61 0 -102 59 -102 167s36 262 109 335c27 27 53 39 81 39c56 0 87 -52 95 -116l22 108h42l-102 -525h-42l17 88c-29 -53 -72 -96 -120 -96zM137 29c20 0 41 10 61 30c60 60 95 193 95 295c0 91 -32 142 -76 142c-18 0 -36 -9 -54 -27c-61 -61 -96 -210 -96 -311
c0 -83 27 -129 70 -129zM334 667l29 -9c-18 -50 -37 -75 -65 -75c-18 0 -30 9 -44 25c-16 18 -22 24 -31 24c-12 0 -24 -17 -35 -46l-29 9c18 50 37 75 65 75c18 0 30 -9 44 -25c16 -18 22 -24 31 -24c12 0 24 17 35 46z" />
    <glyph glyph-name="Cacute" unicode="&#x106;" horiz-adv-x="327" 
d="M180 -6c-93 0 -138 81 -138 234c0 141 48 333 141 426c39 39 77 52 113 52c30 0 57 -9 77 -22l-9 -48c-19 16 -44 28 -71 28c-30 0 -55 -14 -77 -36c-73 -73 -130 -249 -130 -399c0 -118 28 -193 99 -193c22 0 43 7 70 23l-9 -46c-15 -10 -38 -19 -66 -19zM267 745
l83 104l45 -23l-94 -81h-34z" />
    <glyph glyph-name="cacute" unicode="&#x107;" horiz-adv-x="281" 
d="M142 -7c-66 0 -121 56 -121 176c0 115 42 248 111 317c29 29 63 46 100 46c27 0 55 -10 71 -25l-9 -45c-15 17 -36 30 -65 30c-25 0 -48 -12 -68 -32c-61 -61 -98 -192 -98 -281c0 -109 40 -146 86 -146c23 0 45 9 66 24l-8 -45c-20 -12 -42 -19 -65 -19zM207 581l89 125
l44 -26l-101 -99h-32z" />
    <glyph glyph-name="Ccaron" unicode="&#x10c;" horiz-adv-x="327" 
d="M180 -6c-93 0 -138 81 -138 234c0 141 48 333 141 426c39 39 77 52 113 52c30 0 57 -9 77 -22l-9 -48c-19 16 -44 28 -71 28c-30 0 -55 -14 -77 -36c-73 -73 -130 -249 -130 -399c0 -118 28 -193 99 -193c22 0 43 7 70 23l-9 -46c-15 -10 -38 -19 -66 -19zM401 847
l-91 -97h-40l-53 97h40l40 -58l62 58h42z" />
    <glyph glyph-name="ccaron" unicode="&#x10d;" horiz-adv-x="281" 
d="M142 -7c-66 0 -121 56 -121 176c0 115 42 248 111 317c29 29 63 46 100 46c27 0 55 -10 71 -25l-9 -45c-15 17 -36 30 -65 30c-25 0 -48 -12 -68 -32c-61 -61 -98 -192 -98 -281c0 -109 40 -146 86 -146c23 0 45 9 66 24l-8 -45c-20 -12 -42 -19 -65 -19zM211 586
l-44 122h35l34 -75l62 75h37l-90 -122h-34z" />
    <glyph glyph-name="Ccedilla" unicode="&#xc7;" horiz-adv-x="327" 
d="M108 -110l-44 20l71 91c-63 23 -93 101 -93 227c0 141 48 333 141 426c39 39 77 52 113 52c30 0 57 -9 77 -22l-9 -48c-19 16 -44 28 -71 28c-30 0 -55 -14 -77 -36c-73 -73 -130 -249 -130 -399c0 -118 28 -193 99 -193c22 0 43 7 70 23l-9 -46c-15 -10 -38 -19 -66 -19
c-5 0 -9 0 -14 1z" />
    <glyph glyph-name="ccedilla" unicode="&#xe7;" horiz-adv-x="281" 
d="M76 -110l-44 20l70 90c-47 19 -81 74 -81 169c0 115 42 248 111 317c29 29 63 46 100 46c27 0 55 -10 71 -25l-9 -45c-15 17 -36 30 -65 30c-25 0 -48 -12 -68 -32c-61 -61 -98 -192 -98 -281c0 -109 40 -146 86 -146c23 0 45 9 66 24l-8 -45c-20 -12 -42 -19 -65 -19
c-3 0 -6 1 -9 1z" />
    <glyph glyph-name="Cdotaccent" unicode="&#x10a;" horiz-adv-x="327" 
d="M180 -6c-93 0 -138 81 -138 234c0 141 48 333 141 426c39 39 77 52 113 52c30 0 57 -9 77 -22l-9 -48c-19 16 -44 28 -71 28c-30 0 -55 -14 -77 -36c-73 -73 -130 -249 -130 -399c0 -118 28 -193 99 -193c22 0 43 7 70 23l-9 -46c-15 -10 -38 -19 -66 -19zM268 755l12 63
h52l-12 -63h-52z" />
    <glyph glyph-name="cdotaccent" unicode="&#x10b;" horiz-adv-x="281" 
d="M142 -7c-66 0 -121 56 -121 176c0 115 42 248 111 317c29 29 63 46 100 46c27 0 55 -10 71 -25l-9 -45c-15 17 -36 30 -65 30c-25 0 -48 -12 -68 -32c-61 -61 -98 -192 -98 -281c0 -109 40 -146 86 -146c23 0 45 9 66 24l-8 -45c-20 -12 -42 -19 -65 -19zM206 591l13 67
h50l-13 -67h-50z" />
    <glyph glyph-name="Dcaron" unicode="&#x10e;" horiz-adv-x="400" 
d="M5 0l136 700h71c47 0 87 -14 118 -45c41 -41 62 -105 62 -196c0 -88 -30 -285 -134 -389c-49 -49 -104 -70 -174 -70h-79zM297 626c-23 23 -54 34 -89 34h-31l-120 -620h37c49 0 95 19 133 57c93 93 121 279 121 359c0 79 -18 137 -51 170zM370 842l-91 -97h-40l-53 97
h40l40 -58l62 58h42z" />
    <glyph glyph-name="dcaron" unicode="&#x10f;" horiz-adv-x="376" 
d="M231 0l17 88c-29 -53 -72 -96 -120 -96c-61 0 -102 59 -102 167s36 262 109 335c27 27 53 39 81 39c56 0 87 -52 95 -116l57 290h42l-137 -707h-42zM137 29c20 0 41 10 61 30c60 60 95 193 95 295c0 91 -32 142 -76 142c-18 0 -36 -9 -54 -27c-61 -61 -96 -210 -96 -311
c0 -83 27 -129 70 -129zM410 559l36 148h38v-2l-54 -146h-20z" />
    <glyph glyph-name="Dcroat" unicode="&#x110;" horiz-adv-x="406" 
d="M20 333l8 38h55l64 329h71c47 0 87 -14 118 -45c41 -41 62 -105 62 -196c0 -88 -30 -285 -134 -389c-49 -49 -104 -70 -174 -70h-79l64 333h-55zM303 626c-23 23 -54 34 -89 34h-31l-56 -289h88l-8 -38h-88l-56 -293h37c49 0 95 19 133 57c93 93 121 279 121 359
c0 79 -18 137 -51 170z" />
    <glyph glyph-name="dcroat" unicode="&#x111;" horiz-adv-x="376" 
d="M241 599l7 36h106l14 72h42l-14 -72h48l-7 -36h-48l-116 -599h-42l17 88c-29 -53 -72 -96 -120 -96c-61 0 -102 59 -102 167s36 262 109 335c27 27 53 39 81 39c56 0 87 -52 95 -116l36 182h-106zM137 29c20 0 41 10 61 30c60 60 95 193 95 295c0 91 -32 142 -76 142
c-18 0 -36 -9 -54 -27c-61 -61 -96 -210 -96 -311c0 -83 27 -129 70 -129z" />
    <glyph glyph-name="Eacute" unicode="&#xc9;" horiz-adv-x="325" 
d="M5 0l136 700h238l-8 -40h-194l-55 -287h177l-8 -40h-177l-57 -293h197l-8 -40h-241zM236 740l83 104l45 -23l-94 -81h-34z" />
    <glyph glyph-name="eacute" unicode="&#xe9;" horiz-adv-x="348" 
d="M307 245h-239c-3 -21 -4 -41 -4 -60c0 -103 41 -152 103 -152c28 0 57 10 87 31l-3 -43c-14 -11 -49 -28 -87 -28c-80 0 -141 59 -141 192c0 115 43 241 107 305c27 27 57 43 90 43c62 0 104 -54 104 -158c0 -29 -5 -74 -17 -130zM159 466c-40 -40 -70 -111 -85 -184h199
c7 33 10 63 10 96c0 70 -21 116 -67 116c-20 0 -39 -10 -57 -28zM210 581l89 125l44 -26l-101 -99h-32z" />
    <glyph glyph-name="Ebreve" unicode="&#x114;" horiz-adv-x="325" 
d="M5 0l136 700h238l-8 -40h-194l-55 -287h177l-8 -40h-177l-57 -293h197l-8 -40h-241zM261 743c-50 0 -88 26 -85 79h37c3 -27 20 -39 51 -39s50 12 63 39h37c-17 -53 -53 -79 -103 -79z" />
    <glyph glyph-name="ebreve" unicode="&#x115;" horiz-adv-x="348" 
d="M307 245h-239c-3 -21 -4 -41 -4 -60c0 -103 41 -152 103 -152c28 0 57 10 87 31l-3 -43c-14 -11 -49 -28 -87 -28c-80 0 -141 59 -141 192c0 115 43 241 107 305c27 27 57 43 90 43c62 0 104 -54 104 -158c0 -29 -5 -74 -17 -130zM159 466c-40 -40 -70 -111 -85 -184h199
c7 33 10 63 10 96c0 70 -21 116 -67 116c-20 0 -39 -10 -57 -28zM234 584c-50 0 -87 29 -80 94h36c-1 -38 18 -55 46 -55c32 0 53 17 68 55h36c-19 -65 -57 -94 -106 -94z" />
    <glyph glyph-name="Ecaron" unicode="&#x11a;" horiz-adv-x="325" 
d="M5 0l136 700h238l-8 -40h-194l-55 -287h177l-8 -40h-177l-57 -293h197l-8 -40h-241zM370 842l-91 -97h-40l-53 97h40l40 -58l62 58h42z" />
    <glyph glyph-name="ecaron" unicode="&#x11b;" horiz-adv-x="348" 
d="M307 245h-239c-3 -21 -4 -41 -4 -60c0 -103 41 -152 103 -152c28 0 57 10 87 31l-3 -43c-14 -11 -49 -28 -87 -28c-80 0 -141 59 -141 192c0 115 43 241 107 305c27 27 57 43 90 43c62 0 104 -54 104 -158c0 -29 -5 -74 -17 -130zM159 466c-40 -40 -70 -111 -85 -184h199
c7 33 10 63 10 96c0 70 -21 116 -67 116c-20 0 -39 -10 -57 -28zM214 586l-44 122h35l34 -75l62 75h37l-90 -122h-34z" />
    <glyph glyph-name="Ecircumflex" unicode="&#xca;" horiz-adv-x="325" 
d="M5 0l136 700h238l-8 -40h-194l-55 -287h177l-8 -40h-177l-57 -293h197l-8 -40h-241zM167 745l91 97h40l53 -97h-40l-40 58l-62 -58h-42z" />
    <glyph glyph-name="ecircumflex" unicode="&#xea;" horiz-adv-x="348" 
d="M307 245h-239c-3 -21 -4 -41 -4 -60c0 -103 41 -152 103 -152c28 0 57 10 87 31l-3 -43c-14 -11 -49 -28 -87 -28c-80 0 -141 59 -141 192c0 115 43 241 107 305c27 27 57 43 90 43c62 0 104 -54 104 -158c0 -29 -5 -74 -17 -130zM159 466c-40 -40 -70 -111 -85 -184h199
c7 33 10 63 10 96c0 70 -21 116 -67 116c-20 0 -39 -10 -57 -28zM147 586l90 122h34l44 -122h-35l-34 75l-62 -75h-37z" />
    <glyph glyph-name="Edieresis" unicode="&#xcb;" horiz-adv-x="325" 
d="M5 0l136 700h238l-8 -40h-194l-55 -287h177l-8 -40h-177l-57 -293h197l-8 -40h-241zM186 750l12 63h50l-12 -63h-50zM290 750l12 63h50l-12 -63h-50z" />
    <glyph glyph-name="edieresis" unicode="&#xeb;" horiz-adv-x="348" 
d="M307 245h-239c-3 -21 -4 -41 -4 -60c0 -103 41 -152 103 -152c28 0 57 10 87 31l-3 -43c-14 -11 -49 -28 -87 -28c-80 0 -141 59 -141 192c0 115 43 241 107 305c27 27 57 43 90 43c62 0 104 -54 104 -158c0 -29 -5 -74 -17 -130zM159 466c-40 -40 -70 -111 -85 -184h199
c7 33 10 63 10 96c0 70 -21 116 -67 116c-20 0 -39 -10 -57 -28zM161 591l13 67h46l-13 -67h-46zM261 591l13 67h46l-13 -67h-46z" />
    <glyph glyph-name="Edotaccent" unicode="&#x116;" horiz-adv-x="325" 
d="M5 0l136 700h238l-8 -40h-194l-55 -287h177l-8 -40h-177l-57 -293h197l-8 -40h-241zM237 750l12 63h52l-12 -63h-52z" />
    <glyph glyph-name="edotaccent" unicode="&#x117;" horiz-adv-x="348" 
d="M307 245h-239c-3 -21 -4 -41 -4 -60c0 -103 41 -152 103 -152c28 0 57 10 87 31l-3 -43c-14 -11 -49 -28 -87 -28c-80 0 -141 59 -141 192c0 115 43 241 107 305c27 27 57 43 90 43c62 0 104 -54 104 -158c0 -29 -5 -74 -17 -130zM159 466c-40 -40 -70 -111 -85 -184h199
c7 33 10 63 10 96c0 70 -21 116 -67 116c-20 0 -39 -10 -57 -28zM209 591l13 67h50l-13 -67h-50z" />
    <glyph glyph-name="Egrave" unicode="&#xc8;" horiz-adv-x="325" 
d="M5 0l136 700h238l-8 -40h-194l-55 -287h177l-8 -40h-177l-57 -293h197l-8 -40h-241zM247 740l-81 82l44 22l69 -104h-32z" />
    <glyph glyph-name="egrave" unicode="&#xe8;" horiz-adv-x="348" 
d="M307 245h-239c-3 -21 -4 -41 -4 -60c0 -103 41 -152 103 -152c28 0 57 10 87 31l-3 -43c-14 -11 -49 -28 -87 -28c-80 0 -141 59 -141 192c0 115 43 241 107 305c27 27 57 43 90 43c62 0 104 -54 104 -158c0 -29 -5 -74 -17 -130zM159 466c-40 -40 -70 -111 -85 -184h199
c7 33 10 63 10 96c0 70 -21 116 -67 116c-20 0 -39 -10 -57 -28zM213 581l-81 100l43 25l67 -125h-29z" />
    <glyph glyph-name="Emacron" unicode="&#x112;" horiz-adv-x="325" 
d="M5 0l136 700h238l-8 -40h-194l-55 -287h177l-8 -40h-177l-57 -293h197l-8 -40h-241zM167 752l8 41h192l-8 -41h-192z" />
    <glyph glyph-name="emacron" unicode="&#x113;" horiz-adv-x="348" 
d="M307 245h-239c-3 -21 -4 -41 -4 -60c0 -103 41 -152 103 -152c28 0 57 10 87 31l-3 -43c-14 -11 -49 -28 -87 -28c-80 0 -141 59 -141 192c0 115 43 241 107 305c27 27 57 43 90 43c62 0 104 -54 104 -158c0 -29 -5 -74 -17 -130zM159 466c-40 -40 -70 -111 -85 -184h199
c7 33 10 63 10 96c0 70 -21 116 -67 116c-20 0 -39 -10 -57 -28zM144 593l8 39h180l-8 -39h-180z" />
    <glyph glyph-name="Eogonek" unicode="&#x118;" horiz-adv-x="325" 
d="M5 0l136 700h238l-8 -40h-194l-55 -287h177l-8 -40h-177l-57 -293h197l-8 -40h-9c-30 -32 -43 -46 -43 -62s13 -23 39 -25l-6 -32h-1c-53 0 -72 20 -72 46c0 22 15 44 52 73h-201z" />
    <glyph glyph-name="eogonek" unicode="&#x119;" horiz-adv-x="348" 
d="M254 64l-3 -43c-11 -9 -29 -23 -43 -37c-16 -16 -28 -32 -28 -46c0 -16 13 -23 39 -25l-6 -32h-1c-53 0 -72 20 -72 46c0 20 13 41 47 68c-8 -1 -17 -2 -23 -2c-80 0 -141 59 -141 192c0 115 43 241 107 305c27 27 57 43 90 43c62 0 104 -54 104 -158
c0 -29 -5 -74 -17 -130h-239c-3 -21 -4 -41 -4 -60c0 -103 41 -152 103 -152c28 0 57 10 87 31zM159 466c-40 -40 -70 -111 -85 -184h199c7 33 10 63 10 96c0 70 -21 116 -67 116c-20 0 -39 -10 -57 -28z" />
    <glyph glyph-name="Eth" unicode="&#xd0;" horiz-adv-x="406" 
d="M20 333l8 38h55l64 329h71c47 0 87 -14 118 -45c41 -41 62 -105 62 -196c0 -88 -30 -285 -134 -389c-49 -49 -104 -70 -174 -70h-79l64 333h-55zM303 626c-23 23 -54 34 -89 34h-31l-56 -289h88l-8 -38h-88l-56 -293h37c49 0 95 19 133 57c93 93 121 279 121 359
c0 79 -18 137 -51 170z" />
    <glyph glyph-name="eth" unicode="&#xf0;" horiz-adv-x="363" 
d="M174 575l-13 32l78 34c-11 22 -24 43 -38 66h45c10 -17 19 -34 27 -51l78 35l13 -31l-76 -34c35 -76 53 -147 53 -236c0 -162 -54 -297 -112 -355c-31 -31 -63 -43 -91 -43c-68 0 -114 65 -114 178c0 128 46 260 106 320c31 31 62 43 89 43c35 0 60 -21 80 -64
c-6 45 -21 92 -45 142zM141 31c21 0 40 10 59 29c54 54 93 187 93 297c0 87 -28 137 -74 137c-21 0 -40 -10 -59 -29c-54 -54 -94 -187 -94 -297c0 -87 29 -137 75 -137z" />
    <glyph glyph-name="Gbreve" unicode="&#x11e;" horiz-adv-x="393" 
d="M202 -7c-103 0 -160 98 -160 244s50 309 141 400c46 46 95 69 149 69c32 0 62 -8 84 -22l-10 -48c-20 17 -47 28 -78 28c-37 0 -76 -16 -112 -52c-83 -83 -130 -240 -130 -375c0 -122 45 -204 122 -204c14 0 33 4 48 13l52 272h-104l8 40h146l-65 -338
c-33 -20 -61 -27 -91 -27zM322 748c-50 0 -88 26 -85 79h37c3 -27 20 -39 51 -39s50 12 63 39h37c-17 -53 -53 -79 -103 -79z" />
    <glyph glyph-name="gbreve" unicode="&#x11f;" horiz-adv-x="376" 
d="M107 -132c-33 0 -85 10 -121 28l7 43c34 -20 78 -32 119 -32c33 0 63 8 86 31c18 18 29 44 37 85l20 101c-29 -53 -72 -96 -120 -96c-63 0 -105 61 -105 169c0 78 32 224 105 297c27 27 53 39 81 39c56 0 87 -52 95 -116l22 108h42l-98 -500c-11 -55 -23 -88 -48 -113
c-31 -31 -73 -44 -122 -44zM144 65c22 0 43 12 62 31c37 37 87 133 87 258c0 91 -32 142 -76 142c-18 0 -36 -9 -54 -27c-61 -61 -92 -199 -92 -273c0 -83 28 -131 73 -131zM251 584c-50 0 -87 29 -80 94h36c-1 -38 18 -55 46 -55c32 0 53 17 68 55h36
c-19 -65 -57 -94 -106 -94z" />
    <glyph glyph-name="Gcommaaccent" unicode="&#x122;" horiz-adv-x="393" 
d="M202 -7c-103 0 -160 98 -160 244s50 309 141 400c46 46 95 69 149 69c32 0 62 -8 84 -22l-10 -48c-20 17 -47 28 -78 28c-37 0 -76 -16 -112 -52c-83 -83 -130 -240 -130 -375c0 -122 45 -204 122 -204c14 0 33 4 48 13l52 272h-104l8 40h146l-65 -338
c-33 -20 -61 -27 -91 -27zM123 -185l-8 19c27 15 36 23 39 51h-21l11 58h50l-12 -58c-9 -42 -21 -54 -59 -70z" />
    <glyph glyph-name="gcommaaccent" unicode="&#x123;" horiz-adv-x="376" 
d="M107 -132c-33 0 -85 10 -121 28l7 43c34 -20 78 -32 119 -32c33 0 63 8 86 31c18 18 29 44 37 85l20 101c-29 -53 -72 -96 -120 -96c-63 0 -105 61 -105 169c0 78 32 224 105 297c27 27 53 39 81 39c56 0 87 -52 95 -116l22 108h42l-98 -500c-11 -55 -23 -88 -48 -113
c-31 -31 -73 -44 -122 -44zM144 65c22 0 43 12 62 31c37 37 87 133 87 258c0 91 -32 142 -76 142c-18 0 -36 -9 -54 -27c-61 -61 -92 -199 -92 -273c0 -83 28 -131 73 -131zM296 714l8 -19c-27 -15 -36 -23 -39 -51h21l-11 -58h-50l12 58c9 42 21 54 59 70z" />
    <glyph glyph-name="Gdotaccent" unicode="&#x120;" horiz-adv-x="393" 
d="M202 -7c-103 0 -160 98 -160 244s50 309 141 400c46 46 95 69 149 69c32 0 62 -8 84 -22l-10 -48c-20 17 -47 28 -78 28c-37 0 -76 -16 -112 -52c-83 -83 -130 -240 -130 -375c0 -122 45 -204 122 -204c14 0 33 4 48 13l52 272h-104l8 40h146l-65 -338
c-33 -20 -61 -27 -91 -27zM298 755l12 63h52l-12 -63h-52z" />
    <glyph glyph-name="gdotaccent" unicode="&#x121;" horiz-adv-x="376" 
d="M107 -132c-33 0 -85 10 -121 28l7 43c34 -20 78 -32 119 -32c33 0 63 8 86 31c18 18 29 44 37 85l20 101c-29 -53 -72 -96 -120 -96c-63 0 -105 61 -105 169c0 78 32 224 105 297c27 27 53 39 81 39c56 0 87 -52 95 -116l22 108h42l-98 -500c-11 -55 -23 -88 -48 -113
c-31 -31 -73 -44 -122 -44zM144 65c22 0 43 12 62 31c37 37 87 133 87 258c0 91 -32 142 -76 142c-18 0 -36 -9 -54 -27c-61 -61 -92 -199 -92 -273c0 -83 28 -131 73 -131zM226 591l13 67h50l-13 -67h-50z" />
    <glyph glyph-name="Hbar" unicode="&#x126;" horiz-adv-x="428" 
d="M63 555l8 38h55l21 107h44l-21 -107h216l21 107h44l-21 -107h55l-8 -38h-54l-108 -555h-44l65 332h-216l-65 -332h-44l108 555h-56zM127 372h216l36 184h-216z" />
    <glyph glyph-name="hbar" unicode="&#x127;" horiz-adv-x="372" 
d="M71 599l7 36h48l14 72h42l-14 -72h106l-7 -36h-106l-30 -151c29 50 69 85 121 85c57 0 95 -41 95 -111c0 -20 -2 -45 -11 -91l-64 -331h-42l65 335c9 46 10 68 10 86c0 49 -23 76 -65 76c-62 0 -112 -68 -127 -143l-69 -354h-42l117 599h-48z" />
    <glyph glyph-name="Iacute" unicode="&#xcd;" horiz-adv-x="170" 
d="M12 0l136 700h44l-136 -700h-44zM153 740l83 104l45 -23l-94 -81h-34z" />
    <glyph glyph-name="iacute" unicode="&#xed;" horiz-adv-x="160" 
d="M8 0l102 525h42l-102 -525h-42zM119 576l89 125l44 -26l-101 -99h-32z" />
    <glyph glyph-name="Ibreve" unicode="&#x12c;" horiz-adv-x="170" 
d="M12 0l136 700h44l-136 -700h-44zM178 743c-50 0 -88 26 -85 79h37c3 -27 20 -39 51 -39s50 12 63 39h37c-17 -53 -53 -79 -103 -79z" />
    <glyph glyph-name="ibreve" unicode="&#x12d;" horiz-adv-x="160" 
d="M8 0l102 525h42l-102 -525h-42zM143 579c-50 0 -87 29 -80 94h36c-1 -38 18 -55 46 -55c32 0 53 17 68 55h36c-19 -65 -57 -94 -106 -94z" />
    <glyph glyph-name="Icircumflex" unicode="&#xce;" horiz-adv-x="170" 
d="M12 0l136 700h44l-136 -700h-44zM84 745l91 97h40l53 -97h-40l-40 58l-62 -58h-42z" />
    <glyph glyph-name="icircumflex" unicode="&#xee;" horiz-adv-x="160" 
d="M8 0l102 525h42l-102 -525h-42zM56 581l90 122h34l44 -122h-35l-34 75l-62 -75h-37z" />
    <glyph glyph-name="Idieresis" unicode="&#xcf;" horiz-adv-x="170" 
d="M12 0l136 700h44l-136 -700h-44zM103 750l12 63h50l-12 -63h-50zM207 750l12 63h50l-12 -63h-50z" />
    <glyph glyph-name="idieresis" unicode="&#xef;" horiz-adv-x="160" 
d="M8 0l102 525h42l-102 -525h-42zM70 586l13 67h46l-13 -67h-46zM170 586l13 67h46l-13 -67h-46z" />
    <glyph glyph-name="Idotaccent" unicode="&#x130;" horiz-adv-x="170" 
d="M12 0l136 700h44l-136 -700h-44zM154 750l12 63h52l-12 -63h-52z" />
    <glyph glyph-name="dotlessi" unicode="&#x131;" horiz-adv-x="160" 
d="M8 0l102 525h42l-102 -525h-42z" />
    <glyph glyph-name="Igrave" unicode="&#xcc;" horiz-adv-x="170" 
d="M12 0l136 700h44l-136 -700h-44zM164 740l-81 82l44 22l69 -104h-32z" />
    <glyph glyph-name="igrave" unicode="&#xec;" horiz-adv-x="160" 
d="M8 0l102 525h42l-102 -525h-42zM122 576l-81 100l43 25l67 -125h-29z" />
    <glyph glyph-name="Imacron" unicode="&#x12a;" horiz-adv-x="170" 
d="M12 0l136 700h44l-136 -700h-44zM84 752l8 41h192l-8 -41h-192z" />
    <glyph glyph-name="imacron" unicode="&#x12b;" horiz-adv-x="160" 
d="M8 0l102 525h42l-102 -525h-42zM53 588l8 39h180l-8 -39h-180z" />
    <glyph glyph-name="Iogonek" unicode="&#x12e;" horiz-adv-x="170" 
d="M12 0l136 700h44l-136 -700h-4c-30 -32 -43 -46 -43 -62s13 -23 39 -25l-6 -32h-1c-53 0 -72 20 -72 46c0 22 16 44 52 73h-9z" />
    <glyph glyph-name="iogonek" unicode="&#x12f;" horiz-adv-x="160" 
d="M8 0l102 525h42l-102 -525h-5c-30 -32 -43 -46 -43 -62s13 -23 39 -25l-6 -32h-1c-53 0 -72 20 -72 46c0 22 16 44 52 73h-6zM130 637l13 70h46l-13 -70h-46z" />
    <glyph glyph-name="Kcommaaccent" unicode="&#x136;" horiz-adv-x="370" 
d="M5 0l136 700h44l-77 -395l272 395h51l-225 -320l105 -380h-46l-91 334l-83 -117l-42 -217h-44zM97 -185l-8 19c27 15 36 23 39 51h-21l11 58h50l-12 -58c-9 -42 -21 -54 -59 -70z" />
    <glyph glyph-name="kcommaaccent" unicode="&#x137;" horiz-adv-x="320" 
d="M2 0l137 707h42l-91 -468l205 286h49l-158 -211l67 -314h-42l-56 273l-78 -104l-33 -169h-42zM58 -180l-8 19c27 15 36 23 39 51h-21l11 58h50l-12 -58c-9 -42 -21 -54 -59 -70z" />
    <glyph glyph-name="Lacute" unicode="&#x139;" horiz-adv-x="284" 
d="M5 0l136 700h44l-128 -660h176l-8 -40h-220zM151 740l83 104l45 -23l-94 -81h-34z" />
    <glyph glyph-name="lacute" unicode="&#x13a;" horiz-adv-x="160" 
d="M8 0l137 707h42l-137 -707h-42zM147 740l83 104l45 -23l-94 -81h-34z" />
    <glyph glyph-name="Lcaron" unicode="&#x13d;" horiz-adv-x="284" 
d="M5 0l136 700h44l-128 -660h176l-8 -40h-220zM194 552l36 148h38v-2l-54 -146h-20z" />
    <glyph glyph-name="lcaron" unicode="&#x13e;" horiz-adv-x="160" 
d="M8 0l137 707h42l-137 -707h-42zM187 559l36 148h38v-2l-54 -146h-20z" />
    <glyph glyph-name="Lcommaaccent" unicode="&#x13b;" horiz-adv-x="284" 
d="M5 0l136 700h44l-128 -660h176l-8 -40h-220zM57 -185l-8 19c27 15 36 23 39 51h-21l11 58h50l-12 -58c-9 -42 -21 -54 -59 -70z" />
    <glyph glyph-name="lcommaaccent" unicode="&#x13c;" horiz-adv-x="160" 
d="M8 0l137 707h42l-137 -707h-42zM-26 -185l-8 19c27 15 36 23 39 51h-21l11 58h50l-12 -58c-9 -42 -21 -54 -59 -70z" />
    <glyph glyph-name="Ldot" unicode="&#x13f;" horiz-adv-x="284" 
d="M202 327l13 67h50l-13 -67h-50zM5 0l136 700h44l-128 -660h176l-8 -40h-220z" />
    <glyph glyph-name="ldot" unicode="&#x140;" horiz-adv-x="208" 
d="M172 320l15 75h46l-15 -75h-46zM8 0l137 707h42l-137 -707h-42z" />
    <glyph glyph-name="Lslash" unicode="&#x141;" horiz-adv-x="290" 
d="M6 255l10 49l61 37l70 359h44l-64 -328l99 60l-9 -49l-99 -60l-55 -283h176l-8 -40h-220l57 292z" />
    <glyph glyph-name="lslash" unicode="&#x142;" horiz-adv-x="170" 
d="M10 283l9 49l66 39l65 336h42l-60 -307l67 40l-9 -49l-67 -40l-68 -351h-42l62 322z" />
    <glyph glyph-name="Nacute" unicode="&#x143;" horiz-adv-x="420" 
d="M5 0l136 700h45l106 -588l115 588h42l-137 -700h-39l-109 604l-118 -604h-41zM275 735l83 104l45 -23l-94 -81h-34z" />
    <glyph glyph-name="nacute" unicode="&#x144;" horiz-adv-x="372" 
d="M2 0l102 525h42l-15 -77c29 50 69 85 121 85c57 0 95 -41 95 -111c0 -20 -2 -45 -11 -91l-64 -331h-42l65 335c9 46 10 68 10 86c0 49 -23 76 -65 76c-62 0 -112 -68 -127 -143l-69 -354h-42zM219 581l89 125l44 -26l-101 -99h-32z" />
    <glyph glyph-name="Ncaron" unicode="&#x147;" horiz-adv-x="420" 
d="M5 0l136 700h45l106 -588l115 588h42l-137 -700h-39l-109 604l-118 -604h-41zM409 837l-91 -97h-40l-53 97h40l40 -58l62 58h42z" />
    <glyph glyph-name="ncaron" unicode="&#x148;" horiz-adv-x="372" 
d="M2 0l102 525h42l-15 -77c29 50 69 85 121 85c57 0 95 -41 95 -111c0 -20 -2 -45 -11 -91l-64 -331h-42l65 335c9 46 10 68 10 86c0 49 -23 76 -65 76c-62 0 -112 -68 -127 -143l-69 -354h-42zM223 586l-44 122h35l34 -75l62 75h37l-90 -122h-34z" />
    <glyph glyph-name="Ncommaaccent" unicode="&#x145;" horiz-adv-x="420" 
d="M5 0l136 700h45l106 -588l115 588h42l-137 -700h-39l-109 604l-118 -604h-41zM102 -185l-8 19c27 15 36 23 39 51h-21l11 58h50l-12 -58c-9 -42 -21 -54 -59 -70z" />
    <glyph glyph-name="ncommaaccent" unicode="&#x146;" horiz-adv-x="372" 
d="M2 0l102 525h42l-15 -77c29 50 69 85 121 85c57 0 95 -41 95 -111c0 -20 -2 -45 -11 -91l-64 -331h-42l65 335c9 46 10 68 10 86c0 49 -23 76 -65 76c-62 0 -112 -68 -127 -143l-69 -354h-42zM75 -180l-8 19c27 15 36 23 39 51h-21l11 58h50l-12 -58
c-9 -42 -21 -54 -59 -70z" />
    <glyph glyph-name="Ntilde" unicode="&#xd1;" horiz-adv-x="420" 
d="M5 0l136 700h45l106 -588l115 588h42l-137 -700h-39l-109 604l-118 -604h-41zM232 741l-31 10c19 39 38 63 67 63c19 0 30 -8 48 -21c17 -13 24 -18 33 -18c14 0 23 13 35 35l31 -10c-19 -39 -38 -63 -67 -63c-19 0 -30 8 -48 21c-17 13 -24 18 -33 18
c-14 0 -23 -13 -35 -35z" />
    <glyph glyph-name="ntilde" unicode="&#xf1;" horiz-adv-x="372" 
d="M2 0l102 525h42l-15 -77c29 50 69 85 121 85c57 0 95 -41 95 -111c0 -20 -2 -45 -11 -91l-64 -331h-42l65 335c9 46 10 68 10 86c0 49 -23 76 -65 76c-62 0 -112 -68 -127 -143l-69 -354h-42zM323 667l29 -9c-18 -50 -37 -75 -65 -75c-18 0 -30 9 -44 25
c-16 18 -22 24 -31 24c-12 0 -24 -17 -35 -46l-29 9c18 50 37 75 65 75c18 0 30 -9 44 -25c16 -18 22 -24 31 -24c12 0 24 17 35 46z" />
    <glyph glyph-name="Oacute" unicode="&#xd3;" horiz-adv-x="406" 
d="M278 708c75 0 123 -67 123 -206c0 -148 -50 -373 -141 -464c-31 -31 -64 -46 -98 -46c-75 0 -123 67 -123 206c0 148 50 373 141 464c31 31 64 46 98 46zM164 32c22 0 43 10 65 32c78 78 129 305 129 437c0 115 -32 167 -82 167c-22 0 -43 -10 -65 -32
c-78 -78 -129 -305 -129 -437c0 -115 32 -167 82 -167zM267 745l83 104l45 -23l-94 -81h-34z" />
    <glyph glyph-name="oacute" unicode="&#xf3;" horiz-adv-x="362" 
d="M223 533c69 0 115 -65 115 -178c0 -128 -46 -260 -107 -321c-30 -30 -63 -42 -92 -42c-69 0 -115 65 -115 178c0 128 46 260 107 321c30 30 63 42 92 42zM142 31c22 0 41 10 60 29c54 54 94 187 94 297c0 87 -29 137 -76 137c-22 0 -41 -10 -60 -29
c-54 -54 -94 -187 -94 -297c0 -87 29 -137 76 -137zM215 581l89 125l44 -26l-101 -99h-32z" />
    <glyph glyph-name="Obreve" unicode="&#x14e;" horiz-adv-x="406" 
d="M278 708c75 0 123 -67 123 -206c0 -148 -50 -373 -141 -464c-31 -31 -64 -46 -98 -46c-75 0 -123 67 -123 206c0 148 50 373 141 464c31 31 64 46 98 46zM164 32c22 0 43 10 65 32c78 78 129 305 129 437c0 115 -32 167 -82 167c-22 0 -43 -10 -65 -32
c-78 -78 -129 -305 -129 -437c0 -115 32 -167 82 -167zM292 748c-50 0 -88 26 -85 79h37c3 -27 20 -39 51 -39s50 12 63 39h37c-17 -53 -53 -79 -103 -79z" />
    <glyph glyph-name="obreve" unicode="&#x14f;" horiz-adv-x="362" 
d="M223 533c69 0 115 -65 115 -178c0 -128 -46 -260 -107 -321c-30 -30 -63 -42 -92 -42c-69 0 -115 65 -115 178c0 128 46 260 107 321c30 30 63 42 92 42zM142 31c22 0 41 10 60 29c54 54 94 187 94 297c0 87 -29 137 -76 137c-22 0 -41 -10 -60 -29
c-54 -54 -94 -187 -94 -297c0 -87 29 -137 76 -137zM239 584c-50 0 -87 29 -80 94h36c-1 -38 18 -55 46 -55c32 0 53 17 68 55h36c-19 -65 -57 -94 -106 -94z" />
    <glyph glyph-name="Ocircumflex" unicode="&#xd4;" horiz-adv-x="406" 
d="M278 708c75 0 123 -67 123 -206c0 -148 -50 -373 -141 -464c-31 -31 -64 -46 -98 -46c-75 0 -123 67 -123 206c0 148 50 373 141 464c31 31 64 46 98 46zM164 32c22 0 43 10 65 32c78 78 129 305 129 437c0 115 -32 167 -82 167c-22 0 -43 -10 -65 -32
c-78 -78 -129 -305 -129 -437c0 -115 32 -167 82 -167zM198 750l91 97h40l53 -97h-40l-40 58l-62 -58h-42z" />
    <glyph glyph-name="ocircumflex" unicode="&#xf4;" horiz-adv-x="362" 
d="M223 533c69 0 115 -65 115 -178c0 -128 -46 -260 -107 -321c-30 -30 -63 -42 -92 -42c-69 0 -115 65 -115 178c0 128 46 260 107 321c30 30 63 42 92 42zM142 31c22 0 41 10 60 29c54 54 94 187 94 297c0 87 -29 137 -76 137c-22 0 -41 -10 -60 -29
c-54 -54 -94 -187 -94 -297c0 -87 29 -137 76 -137zM152 586l90 122h34l44 -122h-35l-34 75l-62 -75h-37z" />
    <glyph glyph-name="Odieresis" unicode="&#xd6;" horiz-adv-x="406" 
d="M278 708c75 0 123 -67 123 -206c0 -148 -50 -373 -141 -464c-31 -31 -64 -46 -98 -46c-75 0 -123 67 -123 206c0 148 50 373 141 464c31 31 64 46 98 46zM164 32c22 0 43 10 65 32c78 78 129 305 129 437c0 115 -32 167 -82 167c-22 0 -43 -10 -65 -32
c-78 -78 -129 -305 -129 -437c0 -115 32 -167 82 -167zM217 755l12 63h50l-12 -63h-50zM321 755l12 63h50l-12 -63h-50z" />
    <glyph glyph-name="odieresis" unicode="&#xf6;" horiz-adv-x="362" 
d="M223 533c69 0 115 -65 115 -178c0 -128 -46 -260 -107 -321c-30 -30 -63 -42 -92 -42c-69 0 -115 65 -115 178c0 128 46 260 107 321c30 30 63 42 92 42zM142 31c22 0 41 10 60 29c54 54 94 187 94 297c0 87 -29 137 -76 137c-22 0 -41 -10 -60 -29
c-54 -54 -94 -187 -94 -297c0 -87 29 -137 76 -137zM166 591l13 67h46l-13 -67h-46zM266 591l13 67h46l-13 -67h-46z" />
    <glyph glyph-name="OE" unicode="&#x152;" horiz-adv-x="559" 
d="M222 0c-47 0 -87 14 -118 45c-41 41 -62 105 -62 196c0 88 30 285 134 389c49 49 104 70 174 70h263l-8 -40h-194l-55 -287h177l-8 -40h-177l-57 -293h197l-8 -40h-258zM137 74c23 -23 54 -34 89 -34h21l120 620h-27c-49 0 -95 -19 -133 -57c-93 -93 -121 -279 -121 -359
c0 -79 18 -137 51 -170z" />
    <glyph glyph-name="oe" unicode="&#x153;" horiz-adv-x="602" 
d="M561 245h-239c-3 -21 -4 -41 -4 -60c0 -103 41 -152 103 -152c28 0 57 10 87 31l-3 -43c-14 -11 -49 -28 -87 -28c-67 0 -117 41 -132 132c-30 -72 -81 -133 -147 -133c-69 0 -115 65 -115 178c0 128 46 260 106 320c31 31 64 43 93 43c58 0 96 -46 108 -127
c27 59 75 127 143 127c62 0 104 -54 104 -158c0 -29 -5 -74 -17 -130zM142 31c22 0 41 10 60 29c54 54 94 187 94 297c0 87 -29 137 -76 137c-22 0 -41 -10 -60 -29c-54 -54 -94 -187 -94 -297c0 -87 29 -137 76 -137zM413 466c-40 -40 -70 -111 -85 -184h199
c7 33 10 63 10 96c0 70 -21 116 -67 116c-20 0 -39 -10 -57 -28z" />
    <glyph glyph-name="Ograve" unicode="&#xd2;" horiz-adv-x="406" 
d="M278 708c75 0 123 -67 123 -206c0 -148 -50 -373 -141 -464c-31 -31 -64 -46 -98 -46c-75 0 -123 67 -123 206c0 148 50 373 141 464c31 31 64 46 98 46zM164 32c22 0 43 10 65 32c78 78 129 305 129 437c0 115 -32 167 -82 167c-22 0 -43 -10 -65 -32
c-78 -78 -129 -305 -129 -437c0 -115 32 -167 82 -167zM278 745l-81 82l44 22l69 -104h-32z" />
    <glyph glyph-name="ograve" unicode="&#xf2;" horiz-adv-x="362" 
d="M223 533c69 0 115 -65 115 -178c0 -128 -46 -260 -107 -321c-30 -30 -63 -42 -92 -42c-69 0 -115 65 -115 178c0 128 46 260 107 321c30 30 63 42 92 42zM142 31c22 0 41 10 60 29c54 54 94 187 94 297c0 87 -29 137 -76 137c-22 0 -41 -10 -60 -29
c-54 -54 -94 -187 -94 -297c0 -87 29 -137 76 -137zM218 581l-81 100l43 25l67 -125h-29z" />
    <glyph glyph-name="Ohungarumlaut" unicode="&#x150;" horiz-adv-x="406" 
d="M278 708c75 0 123 -67 123 -206c0 -148 -50 -373 -141 -464c-31 -31 -64 -46 -98 -46c-75 0 -123 67 -123 206c0 148 50 373 141 464c31 31 64 46 98 46zM164 32c22 0 43 10 65 32c78 78 129 305 129 437c0 115 -32 167 -82 167c-22 0 -43 -10 -65 -32
c-78 -78 -129 -305 -129 -437c0 -115 32 -167 82 -167zM222 745l83 104l43 -22l-93 -82h-33zM312 745l83 104l43 -22l-93 -82h-33z" />
    <glyph glyph-name="ohungarumlaut" unicode="&#x151;" horiz-adv-x="362" 
d="M223 533c69 0 115 -65 115 -178c0 -128 -46 -260 -107 -321c-30 -30 -63 -42 -92 -42c-69 0 -115 65 -115 178c0 128 46 260 107 321c30 30 63 42 92 42zM142 31c22 0 41 10 60 29c54 54 94 187 94 297c0 87 -29 137 -76 137c-22 0 -41 -10 -60 -29
c-54 -54 -94 -187 -94 -297c0 -87 29 -137 76 -137zM168 581l89 125l40 -24l-98 -101h-31zM262 581l89 125l40 -24l-98 -101h-31z" />
    <glyph glyph-name="Omacron" unicode="&#x14c;" horiz-adv-x="406" 
d="M278 708c75 0 123 -67 123 -206c0 -148 -50 -373 -141 -464c-31 -31 -64 -46 -98 -46c-75 0 -123 67 -123 206c0 148 50 373 141 464c31 31 64 46 98 46zM164 32c22 0 43 10 65 32c78 78 129 305 129 437c0 115 -32 167 -82 167c-22 0 -43 -10 -65 -32
c-78 -78 -129 -305 -129 -437c0 -115 32 -167 82 -167zM198 757l8 41h192l-8 -41h-192z" />
    <glyph glyph-name="omacron" unicode="&#x14d;" horiz-adv-x="362" 
d="M223 533c69 0 115 -65 115 -178c0 -128 -46 -260 -107 -321c-30 -30 -63 -42 -92 -42c-69 0 -115 65 -115 178c0 128 46 260 107 321c30 30 63 42 92 42zM142 31c22 0 41 10 60 29c54 54 94 187 94 297c0 87 -29 137 -76 137c-22 0 -41 -10 -60 -29
c-54 -54 -94 -187 -94 -297c0 -87 29 -137 76 -137zM149 593l8 39h180l-8 -39h-180z" />
    <glyph glyph-name="Oslash" unicode="&#xd8;" horiz-adv-x="406" 
d="M278 708c41 0 75 -21 96 -63l39 63h44l-66 -110c6 -27 10 -59 10 -96c0 -148 -50 -373 -141 -464c-31 -31 -64 -46 -98 -46c-42 0 -75 20 -97 63l-38 -63h-44l65 110c-6 27 -9 59 -9 96c0 148 50 373 141 464c31 31 64 46 98 46zM164 32c22 0 43 10 65 32
c78 78 129 305 129 437c0 14 -1 27 -2 39l-264 -436c13 -49 39 -72 72 -72zM82 199c0 -14 0 -27 1 -39l265 436c-13 49 -39 72 -72 72c-22 0 -43 -10 -65 -32c-78 -78 -129 -305 -129 -437z" />
    <glyph glyph-name="oslash" unicode="&#xf8;" horiz-adv-x="362" 
d="M223 533c35 0 64 -17 84 -48l31 44h41l-55 -81c9 -26 14 -57 14 -93c0 -128 -46 -260 -107 -321c-30 -30 -63 -42 -92 -42c-35 0 -65 16 -85 48l-30 -44h-41l54 81c-8 25 -13 57 -13 93c0 128 46 260 107 321c30 30 63 42 92 42zM297 357c0 16 -1 31 -3 45l-216 -321
c13 -33 36 -51 64 -51c22 0 41 10 60 29c54 54 95 188 95 298zM220 495c-22 0 -41 -10 -60 -29c-54 -54 -95 -188 -95 -298c0 -17 1 -32 3 -45l215 321c-13 33 -35 51 -63 51z" />
    <glyph glyph-name="Oslashacute" unicode="&#x1fe;" horiz-adv-x="406" 
d="M278 708c41 0 75 -21 96 -63l39 63h44l-66 -110c6 -27 10 -59 10 -96c0 -148 -50 -373 -141 -464c-31 -31 -64 -46 -98 -46c-42 0 -75 20 -97 63l-38 -63h-44l65 110c-6 27 -9 59 -9 96c0 148 50 373 141 464c31 31 64 46 98 46zM164 32c22 0 43 10 65 32
c78 78 129 305 129 437c0 14 -1 27 -2 39l-264 -436c13 -49 39 -72 72 -72zM82 199c0 -14 0 -27 1 -39l265 436c-13 49 -39 72 -72 72c-22 0 -43 -10 -65 -32c-78 -78 -129 -305 -129 -437zM267 745l83 104l45 -23l-94 -81h-34z" />
    <glyph glyph-name="oslashacute" unicode="&#x1ff;" horiz-adv-x="362" 
d="M223 533c35 0 64 -17 84 -48l31 44h41l-55 -81c9 -26 14 -57 14 -93c0 -128 -46 -260 -107 -321c-30 -30 -63 -42 -92 -42c-35 0 -65 16 -85 48l-30 -44h-41l54 81c-8 25 -13 57 -13 93c0 128 46 260 107 321c30 30 63 42 92 42zM297 357c0 16 -1 31 -3 45l-216 -321
c13 -33 36 -51 64 -51c22 0 41 10 60 29c54 54 95 188 95 298zM220 495c-22 0 -41 -10 -60 -29c-54 -54 -95 -188 -95 -298c0 -17 1 -32 3 -45l215 321c-13 33 -35 51 -63 51zM215 581l89 125l44 -26l-101 -99h-32z" />
    <glyph glyph-name="Otilde" unicode="&#xd5;" horiz-adv-x="406" 
d="M278 708c75 0 123 -67 123 -206c0 -148 -50 -373 -141 -464c-31 -31 -64 -46 -98 -46c-75 0 -123 67 -123 206c0 148 50 373 141 464c31 31 64 46 98 46zM164 32c22 0 43 10 65 32c78 78 129 305 129 437c0 115 -32 167 -82 167c-22 0 -43 -10 -65 -32
c-78 -78 -129 -305 -129 -437c0 -115 32 -167 82 -167zM224 751l-31 10c19 39 38 63 67 63c19 0 30 -8 48 -21c17 -13 24 -18 33 -18c14 0 23 13 35 35l31 -10c-19 -39 -38 -63 -67 -63c-19 0 -30 8 -48 21c-17 13 -24 18 -33 18c-14 0 -23 -13 -35 -35z" />
    <glyph glyph-name="otilde" unicode="&#xf5;" horiz-adv-x="362" 
d="M223 533c69 0 115 -65 115 -178c0 -128 -46 -260 -107 -321c-30 -30 -63 -42 -92 -42c-69 0 -115 65 -115 178c0 128 46 260 107 321c30 30 63 42 92 42zM142 31c22 0 41 10 60 29c54 54 94 187 94 297c0 87 -29 137 -76 137c-22 0 -41 -10 -60 -29
c-54 -54 -94 -187 -94 -297c0 -87 29 -137 76 -137zM319 667l29 -9c-18 -50 -37 -75 -65 -75c-18 0 -30 9 -44 25c-16 18 -22 24 -31 24c-12 0 -24 -17 -35 -46l-29 9c18 50 37 75 65 75c18 0 30 -9 44 -25c16 -18 22 -24 31 -24c12 0 24 17 35 46z" />
    <glyph glyph-name="Racute" unicode="&#x154;" horiz-adv-x="383" 
d="M259 0l-72 285c-15 -2 -30 -3 -46 -3h-37l-55 -282h-44l136 700h76c53 0 99 -18 127 -46c31 -31 46 -69 46 -122c0 -80 -29 -140 -71 -182c-27 -27 -57 -44 -90 -55l76 -295h-46zM111 321h27c70 0 111 16 147 52c38 38 60 93 60 159c0 39 -11 71 -32 92
c-26 26 -62 36 -104 36h-32zM251 740l83 104l45 -23l-94 -81h-34z" />
    <glyph glyph-name="racute" unicode="&#x155;" horiz-adv-x="234" 
d="M2 0l102 525h42l-15 -77c29 48 71 87 139 83l-9 -45h-4c-72 0 -127 -42 -145 -134l-68 -352h-42zM168 576l89 125l44 -26l-101 -99h-32z" />
    <glyph glyph-name="Rcaron" unicode="&#x158;" horiz-adv-x="383" 
d="M259 0l-72 285c-15 -2 -30 -3 -46 -3h-37l-55 -282h-44l136 700h76c53 0 99 -18 127 -46c31 -31 46 -69 46 -122c0 -80 -29 -140 -71 -182c-27 -27 -57 -44 -90 -55l76 -295h-46zM111 321h27c70 0 111 16 147 52c38 38 60 93 60 159c0 39 -11 71 -32 92
c-26 26 -62 36 -104 36h-32zM385 842l-91 -97h-40l-53 97h40l40 -58l62 58h42z" />
    <glyph glyph-name="rcaron" unicode="&#x159;" horiz-adv-x="234" 
d="M2 0l102 525h42l-15 -77c29 48 71 87 139 83l-9 -45h-4c-72 0 -127 -42 -145 -134l-68 -352h-42zM172 581l-44 122h35l34 -75l62 75h37l-90 -122h-34z" />
    <glyph glyph-name="Rcommaaccent" unicode="&#x156;" horiz-adv-x="383" 
d="M259 0l-72 285c-15 -2 -30 -3 -46 -3h-37l-55 -282h-44l136 700h76c53 0 99 -18 127 -46c31 -31 46 -69 46 -122c0 -80 -29 -140 -71 -182c-27 -27 -57 -44 -90 -55l76 -295h-46zM111 321h27c70 0 111 16 147 52c38 38 60 93 60 159c0 39 -11 71 -32 92
c-26 26 -62 36 -104 36h-32zM77 -185l-8 19c27 15 36 23 39 51h-21l11 58h50l-12 -58c-9 -42 -21 -54 -59 -70z" />
    <glyph glyph-name="rcommaaccent" unicode="&#x157;" horiz-adv-x="234" 
d="M2 0l102 525h42l-15 -77c29 48 71 87 139 83l-9 -45h-4c-72 0 -127 -42 -145 -134l-68 -352h-42zM-32 -185l-8 19c27 15 36 23 39 51h-21l11 58h50l-12 -58c-9 -42 -21 -54 -59 -70z" />
    <glyph glyph-name="Sacute" unicode="&#x15a;" horiz-adv-x="326" 
d="M118 -8c-45 0 -90 19 -127 56l9 52c41 -46 81 -66 121 -66c64 0 105 52 105 121c0 44 -20 102 -61 183c-57 113 -69 160 -69 212c0 49 19 90 45 116c27 27 61 42 104 42c41 0 81 -17 112 -45l-9 -51c-35 36 -69 54 -106 54c-65 0 -102 -53 -102 -114
c0 -44 15 -90 59 -177c50 -100 71 -159 71 -215c0 -50 -16 -95 -46 -125c-28 -28 -62 -43 -106 -43zM230 745l83 104l45 -23l-94 -81h-34z" />
    <glyph glyph-name="sacute" unicode="&#x15b;" horiz-adv-x="276" 
d="M94 -6c-41 0 -79 15 -116 42l11 44c32 -28 71 -46 107 -46c48 0 85 30 85 88c0 32 -15 67 -57 125c-51 71 -68 111 -68 158c0 67 42 126 126 126c42 0 77 -17 98 -33l-10 -44c-26 22 -59 37 -90 37c-51 0 -82 -33 -82 -84c0 -29 11 -62 55 -124c49 -68 70 -111 70 -158
c0 -75 -46 -131 -129 -131zM165 581l89 125l44 -26l-101 -99h-32z" />
    <glyph glyph-name="Scaron" unicode="&#x160;" horiz-adv-x="326" 
d="M118 -8c-45 0 -90 19 -127 56l9 52c41 -46 81 -66 121 -66c64 0 105 52 105 121c0 44 -20 102 -61 183c-57 113 -69 160 -69 212c0 49 19 90 45 116c27 27 61 42 104 42c41 0 81 -17 112 -45l-9 -51c-35 36 -69 54 -106 54c-65 0 -102 -53 -102 -114
c0 -44 15 -90 59 -177c50 -100 71 -159 71 -215c0 -50 -16 -95 -46 -125c-28 -28 -62 -43 -106 -43zM364 847l-91 -97h-40l-53 97h40l40 -58l62 58h42z" />
    <glyph glyph-name="scaron" unicode="&#x161;" horiz-adv-x="276" 
d="M94 -6c-41 0 -79 15 -116 42l11 44c32 -28 71 -46 107 -46c48 0 85 30 85 88c0 32 -15 67 -57 125c-51 71 -68 111 -68 158c0 67 42 126 126 126c42 0 77 -17 98 -33l-10 -44c-26 22 -59 37 -90 37c-51 0 -82 -33 -82 -84c0 -29 11 -62 55 -124c49 -68 70 -111 70 -158
c0 -75 -46 -131 -129 -131zM169 586l-44 122h35l34 -75l62 75h37l-90 -122h-34z" />
    <glyph glyph-name="Scedilla" unicode="&#x15e;" horiz-adv-x="326" 
d="M72 -110l-44 20l65 84c-36 6 -72 24 -102 54l9 52c41 -46 81 -66 121 -66c64 0 105 52 105 121c0 44 -20 102 -61 183c-57 113 -69 160 -69 212c0 49 19 90 45 116c27 27 61 42 104 42c41 0 81 -17 112 -45l-9 -51c-35 36 -69 54 -106 54c-65 0 -102 -53 -102 -114
c0 -44 15 -90 59 -177c50 -100 71 -159 71 -215c0 -50 -16 -95 -46 -125c-26 -26 -57 -40 -95 -43z" />
    <glyph glyph-name="scedilla" unicode="&#x15f;" horiz-adv-x="276" 
d="M47 -110l-44 20l67 86c-32 4 -63 18 -92 40l11 44c32 -28 71 -46 107 -46c48 0 85 30 85 88c0 32 -15 67 -57 125c-51 71 -68 111 -68 158c0 67 42 126 126 126c42 0 77 -17 98 -33l-10 -44c-26 22 -59 37 -90 37c-51 0 -82 -33 -82 -84c0 -29 11 -62 55 -124
c49 -68 70 -111 70 -158c0 -72 -42 -125 -118 -130z" />
    <glyph glyph-name="Scommaaccent" unicode="&#x218;" horiz-adv-x="326" 
d="M118 -8c-45 0 -90 19 -127 56l9 52c41 -46 81 -66 121 -66c64 0 105 52 105 121c0 44 -20 102 -61 183c-57 113 -69 160 -69 212c0 49 19 90 45 116c27 27 61 42 104 42c41 0 81 -17 112 -45l-9 -51c-35 36 -69 54 -106 54c-65 0 -102 -53 -102 -114
c0 -44 15 -90 59 -177c50 -100 71 -159 71 -215c0 -50 -16 -95 -46 -125c-28 -28 -62 -43 -106 -43zM55 -185l-8 19c27 15 36 23 39 51h-21l11 58h50l-12 -58c-9 -42 -21 -54 -59 -70z" />
    <glyph glyph-name="scommaaccent" unicode="&#x219;" horiz-adv-x="276" 
d="M94 -6c-41 0 -79 15 -116 42l11 44c32 -28 71 -46 107 -46c48 0 85 30 85 88c0 32 -15 67 -57 125c-51 71 -68 111 -68 158c0 67 42 126 126 126c42 0 77 -17 98 -33l-10 -44c-26 22 -59 37 -90 37c-51 0 -82 -33 -82 -84c0 -29 11 -62 55 -124c49 -68 70 -111 70 -158
c0 -75 -46 -131 -129 -131zM20 -185l-8 19c27 15 36 23 39 51h-21l11 58h50l-12 -58c-9 -42 -21 -54 -59 -70z" />
    <glyph glyph-name="Tcaron" unicode="&#x164;" horiz-adv-x="296" 
d="M75 0l128 660h-114l8 40h272l-8 -40h-114l-128 -660h-44zM350 842l-91 -97h-40l-53 97h40l40 -58l62 58h42z" />
    <glyph glyph-name="tcaron" unicode="&#x165;" horiz-adv-x="225" 
d="M105 -4c-43 0 -72 22 -72 67c0 16 5 42 7 52l72 371h-50l8 39h50l28 148h42l-28 -148h85l-8 -39h-85l-76 -392c-2 -10 -3 -18 -3 -24c0 -22 12 -34 40 -34c14 0 32 5 40 10l-7 -39c-10 -6 -27 -11 -43 -11zM211 559l36 148h38v-2l-54 -146h-20z" />
    <glyph glyph-name="Tcommaaccent" unicode="&#x162;" horiz-adv-x="296" 
d="M75 0l128 660h-114l8 40h272l-8 -40h-114l-128 -660h-44zM42 -185l-8 19c27 15 36 23 39 51h-21l11 58h50l-12 -58c-9 -42 -21 -54 -59 -70z" />
    <glyph glyph-name="tcommaaccent" unicode="&#x163;" horiz-adv-x="225" 
d="M105 -4c-43 0 -72 22 -72 67c0 16 5 42 7 52l72 371h-50l8 39h50l28 148h42l-28 -148h85l-8 -39h-85l-76 -392c-2 -10 -3 -18 -3 -24c0 -22 12 -34 40 -34c14 0 32 5 40 10l-7 -39c-10 -6 -27 -11 -43 -11zM26 -185l-8 19c27 15 36 23 39 51h-21l11 58h50l-12 -58
c-9 -42 -21 -54 -59 -70z" />
    <glyph glyph-name="Thorn" unicode="&#xde;" horiz-adv-x="364" 
d="M5 0l136 700h44l-24 -122h22c58 0 101 -17 133 -49c31 -31 47 -75 47 -132c0 -77 -26 -145 -75 -194c-42 -42 -103 -67 -175 -67h-37l-27 -136h-44zM83 175h31c57 0 106 18 143 55c40 40 61 101 61 166c0 49 -13 83 -36 106c-27 27 -63 36 -103 36h-26z" />
    <glyph glyph-name="thorn" unicode="&#xfe;" horiz-adv-x="376" 
d="M181 707l-52 -270c29 53 72 96 120 96c61 0 102 -59 102 -167s-36 -262 -109 -335c-27 -27 -53 -39 -81 -39c-56 0 -87 52 -95 116l-47 -238h-42l162 837h42zM160 29c18 0 36 9 54 27c61 61 96 210 96 311c0 83 -27 129 -70 129c-20 0 -41 -10 -61 -30
c-60 -60 -95 -193 -95 -295c0 -91 32 -142 76 -142z" />
    <glyph glyph-name="Uacute" unicode="&#xda;" horiz-adv-x="407" 
d="M166 -9c-81 0 -134 49 -134 135c0 22 4 54 12 95l93 479h44l-96 -493c-6 -32 -9 -59 -9 -78c0 -64 37 -98 94 -98c28 0 53 10 72 29c26 26 42 63 54 124l100 516h44l-101 -520c-13 -69 -34 -115 -64 -145c-29 -29 -64 -44 -109 -44zM264 735l83 104l45 -23l-94 -81h-34z
" />
    <glyph glyph-name="uacute" unicode="&#xfa;" horiz-adv-x="372" 
d="M120 -8c-57 0 -95 41 -95 111c0 20 2 45 11 91l64 331h42l-65 -335c-9 -46 -10 -68 -10 -86c0 -49 23 -76 65 -76c62 0 112 68 127 143l69 354h42l-102 -525h-42l15 77c-29 -50 -69 -85 -121 -85zM219 571l89 125l44 -26l-101 -99h-32z" />
    <glyph glyph-name="Ubreve" unicode="&#x16c;" horiz-adv-x="407" 
d="M166 -9c-81 0 -134 49 -134 135c0 22 4 54 12 95l93 479h44l-96 -493c-6 -32 -9 -59 -9 -78c0 -64 37 -98 94 -98c28 0 53 10 72 29c26 26 42 63 54 124l100 516h44l-101 -520c-13 -69 -34 -115 -64 -145c-29 -29 -64 -44 -109 -44zM289 738c-50 0 -88 26 -85 79h37
c3 -27 20 -39 51 -39s50 12 63 39h37c-17 -53 -53 -79 -103 -79z" />
    <glyph glyph-name="ubreve" unicode="&#x16d;" horiz-adv-x="372" 
d="M120 -8c-57 0 -95 41 -95 111c0 20 2 45 11 91l64 331h42l-65 -335c-9 -46 -10 -68 -10 -86c0 -49 23 -76 65 -76c62 0 112 68 127 143l69 354h42l-102 -525h-42l15 77c-29 -50 -69 -85 -121 -85zM243 574c-50 0 -87 29 -80 94h36c-1 -38 18 -55 46 -55c32 0 53 17 68 55
h36c-19 -65 -57 -94 -106 -94z" />
    <glyph glyph-name="Ucircumflex" unicode="&#xdb;" horiz-adv-x="407" 
d="M166 -9c-81 0 -134 49 -134 135c0 22 4 54 12 95l93 479h44l-96 -493c-6 -32 -9 -59 -9 -78c0 -64 37 -98 94 -98c28 0 53 10 72 29c26 26 42 63 54 124l100 516h44l-101 -520c-13 -69 -34 -115 -64 -145c-29 -29 -64 -44 -109 -44zM195 740l91 97h40l53 -97h-40l-40 58
l-62 -58h-42z" />
    <glyph glyph-name="ucircumflex" unicode="&#xfb;" horiz-adv-x="372" 
d="M120 -8c-57 0 -95 41 -95 111c0 20 2 45 11 91l64 331h42l-65 -335c-9 -46 -10 -68 -10 -86c0 -49 23 -76 65 -76c62 0 112 68 127 143l69 354h42l-102 -525h-42l15 77c-29 -50 -69 -85 -121 -85zM156 576l90 122h34l44 -122h-35l-34 75l-62 -75h-37z" />
    <glyph glyph-name="Udieresis" unicode="&#xdc;" horiz-adv-x="407" 
d="M166 -9c-81 0 -134 49 -134 135c0 22 4 54 12 95l93 479h44l-96 -493c-6 -32 -9 -59 -9 -78c0 -64 37 -98 94 -98c28 0 53 10 72 29c26 26 42 63 54 124l100 516h44l-101 -520c-13 -69 -34 -115 -64 -145c-29 -29 -64 -44 -109 -44zM214 745l12 63h50l-12 -63h-50z
M318 745l12 63h50l-12 -63h-50z" />
    <glyph glyph-name="udieresis" unicode="&#xfc;" horiz-adv-x="372" 
d="M120 -8c-57 0 -95 41 -95 111c0 20 2 45 11 91l64 331h42l-65 -335c-9 -46 -10 -68 -10 -86c0 -49 23 -76 65 -76c62 0 112 68 127 143l69 354h42l-102 -525h-42l15 77c-29 -50 -69 -85 -121 -85zM170 581l13 67h46l-13 -67h-46zM270 581l13 67h46l-13 -67h-46z" />
    <glyph glyph-name="Ugrave" unicode="&#xd9;" horiz-adv-x="407" 
d="M166 -9c-81 0 -134 49 -134 135c0 22 4 54 12 95l93 479h44l-96 -493c-6 -32 -9 -59 -9 -78c0 -64 37 -98 94 -98c28 0 53 10 72 29c26 26 42 63 54 124l100 516h44l-101 -520c-13 -69 -34 -115 -64 -145c-29 -29 -64 -44 -109 -44zM275 735l-81 82l44 22l69 -104h-32z
" />
    <glyph glyph-name="ugrave" unicode="&#xf9;" horiz-adv-x="372" 
d="M120 -8c-57 0 -95 41 -95 111c0 20 2 45 11 91l64 331h42l-65 -335c-9 -46 -10 -68 -10 -86c0 -49 23 -76 65 -76c62 0 112 68 127 143l69 354h42l-102 -525h-42l15 77c-29 -50 -69 -85 -121 -85zM222 571l-81 100l43 25l67 -125h-29z" />
    <glyph glyph-name="Uhungarumlaut" unicode="&#x170;" horiz-adv-x="407" 
d="M166 -9c-81 0 -134 49 -134 135c0 22 4 54 12 95l93 479h44l-96 -493c-6 -32 -9 -59 -9 -78c0 -64 37 -98 94 -98c28 0 53 10 72 29c26 26 42 63 54 124l100 516h44l-101 -520c-13 -69 -34 -115 -64 -145c-29 -29 -64 -44 -109 -44zM219 735l83 104l43 -22l-93 -82h-33z
M309 735l83 104l43 -22l-93 -82h-33z" />
    <glyph glyph-name="uhungarumlaut" unicode="&#x171;" horiz-adv-x="372" 
d="M120 -8c-57 0 -95 41 -95 111c0 20 2 45 11 91l64 331h42l-65 -335c-9 -46 -10 -68 -10 -86c0 -49 23 -76 65 -76c62 0 112 68 127 143l69 354h42l-102 -525h-42l15 77c-29 -50 -69 -85 -121 -85zM172 571l89 125l40 -24l-98 -101h-31zM266 571l89 125l40 -24l-98 -101
h-31z" />
    <glyph glyph-name="Umacron" unicode="&#x16a;" horiz-adv-x="407" 
d="M166 -9c-81 0 -134 49 -134 135c0 22 4 54 12 95l93 479h44l-96 -493c-6 -32 -9 -59 -9 -78c0 -64 37 -98 94 -98c28 0 53 10 72 29c26 26 42 63 54 124l100 516h44l-101 -520c-13 -69 -34 -115 -64 -145c-29 -29 -64 -44 -109 -44zM195 747l8 41h192l-8 -41h-192z" />
    <glyph glyph-name="umacron" unicode="&#x16b;" horiz-adv-x="372" 
d="M120 -8c-57 0 -95 41 -95 111c0 20 2 45 11 91l64 331h42l-65 -335c-9 -46 -10 -68 -10 -86c0 -49 23 -76 65 -76c62 0 112 68 127 143l69 354h42l-102 -525h-42l15 77c-29 -50 -69 -85 -121 -85zM153 583l8 39h180l-8 -39h-180z" />
    <glyph glyph-name="Uogonek" unicode="&#x172;" horiz-adv-x="407" 
d="M171 -87l-6 -32h-1c-53 0 -72 20 -72 46c0 21 13 40 45 67c-65 10 -105 56 -105 132c0 22 4 54 12 95l93 479h44l-96 -493c-6 -32 -9 -59 -9 -78c0 -64 37 -98 94 -98c28 0 53 10 72 29c26 26 42 63 54 124l100 516h44l-101 -520c-13 -69 -34 -115 -64 -145
c-29 -29 -64 -44 -109 -44c-24 -26 -34 -39 -34 -53c0 -16 13 -23 39 -25z" />
    <glyph glyph-name="uogonek" unicode="&#x173;" horiz-adv-x="372" 
d="M259 -87l-6 -32h-1c-53 0 -72 20 -72 46c0 22 15 44 52 73h-6l15 77c-29 -50 -69 -85 -121 -85c-57 0 -95 41 -95 111c0 20 2 45 11 91l64 331h42l-65 -335c-9 -46 -10 -68 -10 -86c0 -49 23 -76 65 -76c62 0 112 68 127 143l69 354h42l-102 -525h-5
c-30 -32 -43 -46 -43 -62s13 -23 39 -25z" />
    <glyph glyph-name="Uring" unicode="&#x16e;" horiz-adv-x="407" 
d="M166 -9c-81 0 -134 49 -134 135c0 22 4 54 12 95l93 479h44l-96 -493c-6 -32 -9 -59 -9 -78c0 -64 37 -98 94 -98c28 0 53 10 72 29c26 26 42 63 54 124l100 516h44l-101 -520c-13 -69 -34 -115 -64 -145c-29 -29 -64 -44 -109 -44zM305 874c45 0 74 -31 74 -69
c0 -44 -36 -79 -84 -79c-45 0 -74 31 -74 69c0 44 36 79 84 79zM296 753c34 0 52 25 52 50c0 24 -16 44 -44 44c-34 0 -52 -25 -52 -50c0 -24 16 -44 44 -44z" />
    <glyph glyph-name="uring" unicode="&#x16f;" horiz-adv-x="372" 
d="M120 -8c-57 0 -95 41 -95 111c0 20 2 45 11 91l64 331h42l-65 -335c-9 -46 -10 -68 -10 -86c0 -49 23 -76 65 -76c62 0 112 68 127 143l69 354h42l-102 -525h-42l15 77c-29 -50 -69 -85 -121 -85zM335 658c0 -46 -36 -86 -86 -86c-42 0 -72 31 -72 72c0 46 36 86 86 86
c42 0 72 -31 72 -72zM206 646c0 -26 16 -48 45 -48c33 0 55 27 55 58c0 26 -16 48 -45 48c-33 0 -55 -27 -55 -58z" />
    <glyph glyph-name="Wacute" unicode="&#x1e82;" horiz-adv-x="611" 
d="M99 -5l16 705h45l-23 -611l232 611h41l-5 -611l214 611h47l-258 -705h-41l6 611l-233 -611h-41zM371 740l83 104l45 -23l-94 -81h-34z" />
    <glyph glyph-name="wacute" unicode="&#x1e83;" horiz-adv-x="529" 
d="M85 -3l-6 528h42l-3 -455l176 455h38v-455l173 455h43l-212 -528h-38l-2 442l-173 -442h-38zM295 576l89 125l44 -26l-101 -99h-32z" />
    <glyph glyph-name="Wcircumflex" unicode="&#x174;" horiz-adv-x="611" 
d="M99 -5l16 705h45l-23 -611l232 611h41l-5 -611l214 611h47l-258 -705h-41l6 611l-233 -611h-41zM303 745l91 97h40l53 -97h-40l-40 58l-62 -58h-42z" />
    <glyph glyph-name="wcircumflex" unicode="&#x175;" horiz-adv-x="529" 
d="M85 -3l-6 528h42l-3 -455l176 455h38v-455l173 455h43l-212 -528h-38l-2 442l-173 -442h-38zM232 581l90 122h34l44 -122h-35l-34 75l-62 -75h-37z" />
    <glyph glyph-name="Wdieresis" unicode="&#x1e84;" horiz-adv-x="611" 
d="M99 -5l16 705h45l-23 -611l232 611h41l-5 -611l214 611h47l-258 -705h-41l6 611l-233 -611h-41zM321 750l12 63h50l-12 -63h-50zM425 750l12 63h50l-12 -63h-50z" />
    <glyph glyph-name="wdieresis" unicode="&#x1e85;" horiz-adv-x="529" 
d="M85 -3l-6 528h42l-3 -455l176 455h38v-455l173 455h43l-212 -528h-38l-2 442l-173 -442h-38zM247 586l13 67h46l-13 -67h-46zM347 586l13 67h46l-13 -67h-46z" />
    <glyph glyph-name="Wgrave" unicode="&#x1e80;" horiz-adv-x="611" 
d="M99 -5l16 705h45l-23 -611l232 611h41l-5 -611l214 611h47l-258 -705h-41l6 611l-233 -611h-41zM382 740l-81 82l44 22l69 -104h-32z" />
    <glyph glyph-name="wgrave" unicode="&#x1e81;" horiz-adv-x="529" 
d="M85 -3l-6 528h42l-3 -455l176 455h38v-455l173 455h43l-212 -528h-38l-2 442l-173 -442h-38zM298 576l-81 100l43 25l67 -125h-29z" />
    <glyph glyph-name="Yacute" unicode="&#xdd;" horiz-adv-x="352" 
d="M103 0l59 302l-69 398h45l56 -343l187 343h48l-223 -398l-59 -302h-44zM235 735l83 104l45 -23l-94 -81h-34z" />
    <glyph glyph-name="yacute" unicode="&#xfd;" horiz-adv-x="342" 
d="M99 5l-26 520h42l17 -448l191 448h43l-286 -655h-40zM197 571l89 125l44 -26l-101 -99h-32z" />
    <glyph glyph-name="Ycircumflex" unicode="&#x176;" horiz-adv-x="352" 
d="M103 0l59 302l-69 398h45l56 -343l187 343h48l-223 -398l-59 -302h-44zM166 740l91 97h40l53 -97h-40l-40 58l-62 -58h-42z" />
    <glyph glyph-name="ycircumflex" unicode="&#x177;" horiz-adv-x="342" 
d="M99 5l-26 520h42l17 -448l191 448h43l-286 -655h-40zM134 576l90 122h34l44 -122h-35l-34 75l-62 -75h-37z" />
    <glyph glyph-name="Ydieresis" unicode="&#x178;" horiz-adv-x="352" 
d="M103 0l59 302l-69 398h45l56 -343l187 343h48l-223 -398l-59 -302h-44zM185 745l12 63h50l-12 -63h-50zM289 745l12 63h50l-12 -63h-50z" />
    <glyph glyph-name="ydieresis" unicode="&#xff;" horiz-adv-x="342" 
d="M99 5l-26 520h42l17 -448l191 448h43l-286 -655h-40zM248 581l13 67h46l-13 -67h-46zM148 581l13 67h46l-13 -67h-46z" />
    <glyph glyph-name="Ygrave" unicode="&#x1ef2;" horiz-adv-x="352" 
d="M103 0l59 302l-69 398h45l56 -343l187 343h48l-223 -398l-59 -302h-44zM246 735l-81 82l44 22l69 -104h-32z" />
    <glyph glyph-name="ygrave" unicode="&#x1ef3;" horiz-adv-x="342" 
d="M99 5l-26 520h42l17 -448l191 448h43l-286 -655h-40zM200 571l-81 100l43 25l67 -125h-29z" />
    <glyph glyph-name="Zacute" unicode="&#x179;" horiz-adv-x="326" 
d="M-21 0l4 28l346 635h-220l7 37h267l-4 -27l-346 -635h231l-7 -38h-278zM221 740l83 104l45 -23l-94 -81h-34z" />
    <glyph glyph-name="zacute" unicode="&#x17a;" horiz-adv-x="278" 
d="M-25 0l6 29l268 459h-180l7 37h227l-6 -29l-268 -459h185l-7 -37h-232zM169 576l89 125l44 -26l-101 -99h-32z" />
    <glyph glyph-name="Zcaron" unicode="&#x17d;" horiz-adv-x="326" 
d="M-21 0l4 28l346 635h-220l7 37h267l-4 -27l-346 -635h231l-7 -38h-278zM355 842l-91 -97h-40l-53 97h40l40 -58l62 58h42z" />
    <glyph glyph-name="zcaron" unicode="&#x17e;" horiz-adv-x="278" 
d="M-25 0l6 29l268 459h-180l7 37h227l-6 -29l-268 -459h185l-7 -37h-232zM173 581l-44 122h35l34 -75l62 75h37l-90 -122h-34z" />
    <glyph glyph-name="Zdotaccent" unicode="&#x17b;" horiz-adv-x="326" 
d="M-21 0l4 28l346 635h-220l7 37h267l-4 -27l-346 -635h231l-7 -38h-278zM222 750l12 63h52l-12 -63h-52z" />
    <glyph glyph-name="zdotaccent" unicode="&#x17c;" horiz-adv-x="278" 
d="M-25 0l6 29l268 459h-180l7 37h227l-6 -29l-268 -459h185l-7 -37h-232zM168 586l13 67h50l-13 -67h-50z" />
    <glyph glyph-name="schwa" unicode="&#x259;" horiz-adv-x="348" 
d="M24 151c0 29 5 74 17 130h239c2 20 4 40 4 60c0 103 -41 152 -103 152c-28 0 -57 -10 -87 -31l3 43c14 11 49 28 87 28c80 0 141 -59 141 -192c0 -115 -43 -241 -107 -305c-27 -27 -57 -43 -90 -43c-62 0 -104 54 -104 158zM189 60c39 39 70 110 85 184h-199
c-7 -33 -10 -63 -10 -96c0 -70 21 -116 67 -116c20 0 39 10 57 28z" />
    <glyph glyph-name="germandbls" unicode="&#xdf;" horiz-adv-x="364" 
d="M102 -2l7 36c125 -4 173 75 173 172c0 69 -38 117 -112 140l6 33c98 18 156 105 156 194c0 60 -31 97 -77 97c-53 0 -88 -42 -107 -137l-104 -533h-41l105 545c11 58 31 101 58 128c25 25 55 37 90 37c70 0 119 -54 119 -135c0 -92 -53 -182 -152 -213
c61 -31 102 -77 102 -158c0 -115 -72 -215 -223 -206z" />
    <glyph glyph-name="zero" unicode="0" horiz-adv-x="372" 
d="M261 708c63 0 110 -45 110 -177c0 -144 -53 -409 -145 -501c-30 -30 -55 -38 -81 -38c-63 0 -110 45 -110 177c0 144 53 409 145 501c30 30 55 38 81 38zM147 32c10 0 26 2 46 22c80 80 135 341 135 474c0 110 -32 140 -69 140c-10 0 -26 -2 -46 -22
c-80 -80 -135 -341 -135 -474c0 -110 32 -140 69 -140z" />
    <glyph glyph-name="one" unicode="1" horiz-adv-x="205" 
d="M44 0l125 642l-80 -39l10 54l86 43h39l-137 -700h-43z" />
    <glyph glyph-name="two" unicode="2" horiz-adv-x="329" 
d="M-25 0l6 29l205 306c70 105 105 163 105 236c0 62 -37 93 -87 93c-36 0 -65 -12 -99 -30l9 48c26 14 58 26 96 26c79 0 128 -54 128 -134c0 -83 -49 -160 -107 -246l-192 -285h212l-8 -43h-268z" />
    <glyph glyph-name="three" unicode="3" horiz-adv-x="310" 
d="M82 -8c-32 0 -69 9 -106 35l9 43c34 -27 66 -37 97 -37c86 0 146 82 146 185c0 84 -50 127 -127 141l6 31l189 265h-199l9 45h255l-6 -29l-203 -284c72 -25 120 -77 120 -172c0 -56 -20 -124 -67 -171c-31 -31 -72 -52 -123 -52z" />
    <glyph glyph-name="three.alt" horiz-adv-x="310" 
d="M81 -8c-40 0 -84 15 -105 36l8 42c22 -20 56 -38 99 -38c96 0 140 85 140 171c0 79 -50 130 -131 142l7 38c109 10 184 75 184 178c0 67 -45 107 -102 107c-31 0 -61 -9 -86 -24l7 41c20 14 51 23 84 23c94 0 141 -67 141 -143c0 -89 -49 -170 -163 -205
c62 -28 103 -80 103 -158c0 -112 -66 -210 -186 -210z" />
    <glyph glyph-name="four" unicode="4" horiz-adv-x="343" 
d="M177 0l31 161h-209l8 42l306 502h41l-98 -506h55l-8 -38h-55l-31 -161h-40zM48 199h168l78 405z" />
    <glyph glyph-name="five" unicode="5" horiz-adv-x="328" 
d="M94 -8c-35 0 -70 9 -101 34l9 44c19 -17 52 -37 93 -37c101 0 151 120 151 226c0 97 -46 121 -98 121c-17 0 -39 -4 -57 -11l-26 20l74 311h212l-8 -43h-174l-59 -244c16 5 40 7 49 7c74 0 131 -47 131 -162c0 -81 -28 -165 -79 -216c-32 -32 -72 -50 -117 -50z" />
    <glyph glyph-name="six" unicode="6" horiz-adv-x="354" 
d="M148 -8c-28 0 -54 10 -72 28c-27 27 -43 74 -43 154c0 91 38 373 154 489c22 22 55 45 103 45c37 0 66 -13 79 -22l-9 -45c-17 12 -45 24 -73 24c-29 0 -53 -13 -71 -31c-52 -52 -88 -148 -111 -241c34 25 70 41 105 41c63 0 114 -52 114 -155c0 -91 -31 -191 -87 -247
c-24 -24 -55 -40 -89 -40zM149 31c18 0 37 5 60 28c39 39 71 130 71 217c0 82 -32 118 -82 118c-36 0 -70 -20 -101 -45l-8 -41c-8 -42 -15 -100 -15 -142c0 -58 11 -97 32 -118c13 -13 27 -17 43 -17z" />
    <glyph glyph-name="seven" unicode="7" horiz-adv-x="308" 
d="M14 0l289 657h-200l9 43h245l-8 -38l-291 -662h-44z" />
    <glyph glyph-name="eight" unicode="8" horiz-adv-x="328" 
d="M132 -8c-78 0 -123 57 -125 150c-2 84 42 195 130 225c-33 27 -50 69 -51 125c-1 101 54 216 151 216c56 0 109 -42 110 -137c1 -79 -34 -184 -116 -215c43 -31 61 -81 62 -141c2 -98 -50 -223 -161 -223zM136 31c79 0 114 108 114 191c0 71 -30 119 -78 119
c-76 0 -122 -110 -122 -190s33 -120 86 -120zM197 380c70 0 109 113 108 190c-1 67 -30 99 -71 99c-75 0 -106 -116 -106 -183c0 -47 16 -106 69 -106z" />
    <glyph glyph-name="nine" unicode="9" horiz-adv-x="354" 
d="M98 -8c-37 0 -67 12 -88 29l9 45c25 -20 54 -31 82 -31c29 0 53 13 71 31c52 52 88 148 109 233c-34 -25 -69 -41 -104 -41c-63 0 -112 53 -112 159c0 94 30 195 86 251c24 24 55 40 89 40c28 0 54 -10 72 -28c27 -27 43 -74 43 -154c0 -91 -38 -373 -154 -489
c-22 -22 -55 -45 -103 -45zM189 298c36 0 69 20 100 45l10 49c8 42 15 100 15 142c0 58 -11 97 -32 118c-13 13 -27 17 -43 17c-18 0 -37 -5 -60 -28c-39 -39 -70 -131 -70 -221c0 -85 30 -122 80 -122z" />
    <glyph glyph-name="period" unicode="." horiz-adv-x="150" 
d="M-7 0l16 82h62l-16 -82h-62z" />
    <glyph glyph-name="comma" unicode="," horiz-adv-x="150" 
d="M-36 -101l-10 26c45 20 61 35 66 75h-27l16 82h62l-14 -71c-13 -66 -35 -91 -93 -112z" />
    <glyph glyph-name="colon" unicode=":" horiz-adv-x="160" 
d="M-2 0l16 82h62l-16 -82h-62zM84 443l16 82h62l-16 -82h-62z" />
    <glyph glyph-name="semicolon" unicode=";" horiz-adv-x="160" 
d="M-31 -101l-10 26c45 20 61 35 66 75h-27l16 82h62l-14 -71c-13 -66 -35 -91 -93 -112zM84 443l16 82h62l-16 -82h-62z" />
    <glyph glyph-name="ellipsis" unicode="&#x2026;" horiz-adv-x="470" 
d="M-8 0l17 85h64l-17 -85h-64zM152 0l17 85h64l-17 -85h-64zM312 0l17 85h64l-17 -85h-64z" />
    <glyph glyph-name="periodcentered" unicode="&#xb7;" horiz-adv-x="152" 
d="M42 255l17 85h64l-17 -85h-64z" />
    <glyph glyph-name="bullet" unicode="&#x2022;" horiz-adv-x="311" 
d="M188 464c41 0 70 -29 70 -80c0 -52 -21 -102 -50 -123c-17 -13 -35 -17 -49 -17c-41 0 -70 29 -70 80c0 52 21 102 50 123c17 13 35 17 49 17z" />
    <glyph glyph-name="ampersand" unicode="&#x26;" horiz-adv-x="410" 
d="M342 307l36 -12c-22 -64 -45 -123 -72 -171l43 -116l-38 -15l-32 88c-38 -54 -83 -88 -137 -88c-87 0 -132 70 -132 153c0 104 53 182 154 251c-27 74 -34 125 -34 160c0 78 44 151 124 151c73 0 106 -61 106 -113c0 -91 -61 -156 -149 -212l77 -216c20 42 38 90 54 140z
M145 33c47 0 86 35 118 88l-86 243c-79 -53 -123 -123 -123 -209c0 -68 28 -122 91 -122zM172 560c0 -32 2 -77 26 -144c66 39 120 99 120 174c0 42 -21 79 -68 79c-53 0 -78 -57 -78 -109z" />
    <glyph glyph-name="exclam" unicode="!" horiz-adv-x="192" 
d="M69 183l72 447l14 70h52l-14 -70l-102 -447h-22zM15 0l15 82h60l-16 -82h-59z" />
    <glyph glyph-name="exclamdown" unicode="&#xa1;" horiz-adv-x="192" 
d="M157 517l-72 -447l-14 -70h-52l14 70l102 447h22zM211 700l-15 -82h-60l16 82h59z" />
    <glyph glyph-name="question" unicode="?" horiz-adv-x="303" 
d="M93 183l26 182l7 7c108 25 162 101 162 187c0 80 -55 105 -98 105c-40 0 -68 -15 -94 -30l9 45c22 13 49 25 89 25c75 0 139 -48 139 -143c0 -111 -74 -191 -174 -221l-39 -157h-27zM44 0l16 82h60l-16 -82h-60z" />
    <glyph glyph-name="questiondown" unicode="&#xbf;" horiz-adv-x="303" 
d="M244 517l-26 -182l-7 -7c-108 -25 -162 -101 -162 -187c0 -80 55 -105 98 -105c40 0 68 15 94 30l-9 -45c-22 -13 -49 -25 -89 -25c-75 0 -139 48 -139 143c0 111 74 191 174 221l39 157h27zM293 700l-16 -82h-60l16 82h60z" />
    <glyph glyph-name="quotedblleft" unicode="&#x201c;" horiz-adv-x="280" 
d="M92 517l14 71c13 66 35 91 93 112l10 -26c-45 -20 -61 -35 -66 -75h27l-16 -82h-62zM222 517l14 71c13 66 35 91 93 112l10 -26c-45 -20 -61 -35 -66 -75h27l-16 -82h-62z" />
    <glyph glyph-name="quotedblright" unicode="&#x201d;" horiz-adv-x="280" 
d="M86 517l-10 26c45 20 61 35 66 75h-27l16 82h62l-14 -71c-13 -66 -35 -91 -93 -112zM216 517l-10 26c45 20 61 35 66 75h-27l16 82h62l-14 -71c-13 -66 -35 -91 -93 -112z" />
    <glyph glyph-name="quoteleft" unicode="&#x2018;" horiz-adv-x="150" 
d="M92 517l14 71c13 66 35 91 93 112l10 -26c-45 -20 -61 -35 -66 -75h27l-16 -82h-62z" />
    <glyph glyph-name="quoteright" unicode="&#x2019;" horiz-adv-x="150" 
d="M86 517l-10 26c45 20 61 35 66 75h-27l16 82h62l-14 -71c-13 -66 -35 -91 -93 -112z" />
    <glyph glyph-name="quotedblbase" unicode="&#x201e;" horiz-adv-x="280" 
d="M-36 -101l-10 26c45 20 61 35 66 75h-27l16 82h62l-14 -71c-13 -66 -35 -91 -93 -112zM94 -101l-10 26c45 20 61 35 66 75h-27l16 82h62l-14 -71c-13 -66 -35 -91 -93 -112z" />
    <glyph glyph-name="quotesinglbase" unicode="&#x201a;" horiz-adv-x="150" 
d="M-36 -101l-10 26c45 20 61 35 66 75h-27l16 82h62l-14 -71c-13 -66 -35 -91 -93 -112z" />
    <glyph glyph-name="guillemotleft" unicode="&#xab;" horiz-adv-x="339" 
d="M110 43l-80 208l1 8l162 208l26 -21l-144 -195l67 -197zM232 43l-80 208l1 8l162 208l26 -21l-144 -195l67 -197z" />
    <glyph glyph-name="guillemotright" unicode="&#xbb;" horiz-adv-x="339" 
d="M227 467l80 -208l-1 -8l-162 -208l-26 21l144 195l-67 197zM105 467l80 -208l-1 -8l-162 -208l-26 21l144 195l-67 197z" />
    <glyph glyph-name="guilsinglleft" unicode="&#x2039;" horiz-adv-x="217" 
d="M110 43l-80 208l1 8l162 208l26 -21l-144 -195l67 -197z" />
    <glyph glyph-name="guilsinglright" unicode="&#x203a;" horiz-adv-x="217" 
d="M104 467l80 -208l-1 -8l-162 -208l-26 21l144 195l-67 197z" />
    <glyph glyph-name="hyphen" unicode="-" horiz-adv-x="268" 
d="M43 276l7 40h188l-7 -40h-188z" />
    <glyph glyph-name="endash" unicode="&#x2013;" horiz-adv-x="398" 
d="M43 276l7 40h318l-7 -40h-318z" />
    <glyph glyph-name="emdash" unicode="&#x2014;" horiz-adv-x="578" 
d="M43 276l7 40h498l-7 -40h-498z" />
    <glyph glyph-name="underscore" unicode="_" horiz-adv-x="452" 
d="M-83 -158l7 35h456l-7 -35h-456z" />
    <glyph glyph-name="slash" unicode="/" horiz-adv-x="260" 
d="M-75 -98l386 866h40l-386 -866h-40z" />
    <glyph glyph-name="backslash" unicode="\" horiz-adv-x="260" 
d="M157 -98l-49 866h36l49 -866h-36z" />
    <glyph glyph-name="bar" unicode="|" horiz-adv-x="216" 
d="M20 -98l168 866h36l-168 -866h-36z" />
    <glyph glyph-name="parenleft" unicode="(" horiz-adv-x="235" 
d="M141 -137c-69 65 -114 172 -114 304c0 201 74 369 178 473c33 33 68 59 103 77l-7 -36c-19 -13 -39 -30 -65 -56c-111 -111 -169 -308 -169 -461c0 -121 33 -207 81 -268z" />
    <glyph glyph-name="parenright" unicode=")" horiz-adv-x="235" 
d="M104 717c69 -65 114 -172 114 -304c0 -201 -74 -369 -178 -473c-33 -33 -68 -59 -103 -77l7 36c19 13 39 30 65 56c111 111 169 308 169 461c0 121 -33 207 -81 268z" />
    <glyph glyph-name="bracketleft" unicode="[" horiz-adv-x="253" 
d="M3 -130l160 830h139l-6 -33h-97l-149 -764h97l-6 -33h-138z" />
    <glyph glyph-name="bracketright" unicode="]" horiz-adv-x="253" 
d="M259 700l-160 -830h-139l6 33h97l149 764h-97l6 33h138z" />
    <glyph glyph-name="braceleft" unicode="{" horiz-adv-x="266" 
d="M167 -136c-87 16 -121 56 -121 113c0 36 20 76 46 125c23 43 34 67 34 97c0 33 -23 76 -99 76h-6l6 30h10c51 0 83 15 104 36c42 42 32 100 26 160c-7 67 -14 127 33 174c25 25 65 43 132 40l-6 -32c-42 2 -73 -9 -93 -29c-38 -38 -31 -89 -21 -180
c7 -64 2 -108 -35 -145c-19 -19 -46 -34 -84 -42c54 -21 74 -53 74 -92c0 -33 -18 -71 -38 -110c-19 -36 -41 -76 -41 -109c0 -38 21 -69 85 -80z" />
    <glyph glyph-name="braceright" unicode="}" horiz-adv-x="266" 
d="M110 716c87 -16 121 -56 121 -113c0 -36 -20 -76 -46 -125c-23 -43 -34 -67 -34 -97c0 -33 23 -76 99 -76h6l-6 -30h-10c-51 0 -83 -15 -104 -36c-42 -42 -32 -100 -26 -160c7 -67 14 -127 -33 -174c-25 -25 -65 -43 -132 -40l6 32c42 -2 73 9 93 29c38 38 31 89 21 180
c-7 64 -2 108 35 145c19 19 46 34 84 42c-54 21 -74 53 -74 92c0 33 18 71 38 110c19 36 41 76 41 109c0 38 -21 69 -85 80z" />
    <glyph glyph-name="at" unicode="@" horiz-adv-x="634" 
d="M264 -133c-125 0 -237 78 -237 287c0 268 149 554 366 554c146 0 219 -116 219 -276c0 -158 -77 -359 -179 -359c-59 0 -76 54 -66 108c-33 -60 -76 -111 -128 -111c-46 0 -76 39 -76 111c0 124 83 327 189 327c50 0 71 -42 74 -99l23 82l39 -8l-73 -257
c-8 -28 -13 -56 -13 -75c0 -28 12 -47 37 -47c81 0 145 194 145 328c0 144 -60 250 -194 250c-201 0 -337 -289 -337 -528c0 -193 107 -261 211 -261c68 0 114 22 156 48l13 -23c-44 -26 -97 -51 -169 -51zM250 109c67 0 157 148 157 269c0 55 -21 91 -56 91
c-76 0 -147 -177 -147 -285c0 -51 17 -75 46 -75z" />
    <glyph glyph-name="copyright" unicode="&#xa9;" horiz-adv-x="523" 
d="M261 152c-52 0 -82 46 -82 132c0 77 23 179 75 231c26 27 51 33 70 33c20 0 35 -8 50 -19l-7 -38c-16 16 -30 22 -43 22c-12 0 -28 -4 -44 -20c-42 -41 -65 -136 -65 -208c0 -62 17 -98 51 -98c15 0 32 7 47 16l-7 -37c-11 -7 -26 -14 -45 -14zM530 438
c0 -130 -42 -286 -134 -378c-44 -44 -97 -70 -160 -70c-140 0 -209 122 -209 273c0 130 42 286 134 378c44 44 97 70 160 70c140 0 209 -122 209 -273zM53 262c-2 -130 56 -247 185 -247c56 0 101 23 139 61c92 92 126 256 127 363c2 130 -56 247 -185 247
c-56 0 -101 -23 -139 -61c-92 -92 -126 -256 -127 -363z" />
    <glyph glyph-name="published" unicode="&#x2117;" horiz-adv-x="523" 
d="M249 549h37c70 0 108 -36 108 -103c0 -77 -46 -146 -143 -146h-16l-27 -136h-34zM359 443c1 43 -17 72 -71 72h-12l-35 -181h18c70 0 98 50 100 109zM321 711c140 0 209 -122 209 -273c0 -130 -42 -286 -134 -378c-44 -44 -97 -70 -160 -70c-140 0 -209 122 -209 273
c0 130 42 286 134 378c44 44 97 70 160 70zM238 15c56 0 101 23 139 61c92 92 126 256 127 363c2 130 -56 247 -185 247c-56 0 -101 -23 -139 -61c-92 -92 -126 -256 -127 -363c-2 -130 56 -247 185 -247z" />
    <glyph glyph-name="registered.alt" horiz-adv-x="523" 
d="M321 711c140 0 209 -122 209 -273c0 -130 -42 -286 -134 -378c-44 -44 -97 -70 -160 -70c-140 0 -209 122 -209 273c0 130 42 286 134 378c44 44 97 70 160 70zM238 15c56 0 101 23 139 61c92 92 126 256 127 363c2 130 -56 247 -185 247c-56 0 -101 -23 -139 -61
c-92 -92 -126 -256 -127 -363c-2 -130 56 -247 185 -247zM231 313l-29 -149h-34l75 385h35c41 0 71 -10 91 -30c17 -17 26 -42 26 -73c0 -38 -14 -70 -36 -92c-14 -14 -30 -24 -50 -31l37 -159h-34l-34 151c-16 -2 -22 -2 -47 -2zM238 346h15c35 0 61 9 79 27s28 44 28 74
c0 22 -6 37 -17 48c-14 14 -35 20 -61 20h-12z" />
    <glyph glyph-name="registered" unicode="&#xae;" horiz-adv-x="312" 
d="M234 717c74 0 108 -60 108 -131c0 -63 -23 -145 -71 -193c-23 -23 -53 -38 -88 -38c-74 0 -108 60 -108 131c0 63 23 145 71 193c23 23 53 38 88 38zM184 373c29 0 53 12 73 32c45 45 66 127 66 181c0 56 -26 113 -90 113c-29 0 -53 -12 -73 -32
c-45 -45 -66 -127 -66 -181c0 -56 26 -113 90 -113zM185 516l-14 -72h-22l37 191h15c43 0 69 -16 69 -54c0 -29 -17 -50 -42 -59l21 -78h-22l-19 73c-9 -1 -14 -1 -23 -1zM189 536h7c18 0 32 4 40 12c9 9 13 21 13 33c0 25 -17 33 -41 33h-4z" />
    <glyph glyph-name="servicemark" unicode="&#x2120;" horiz-adv-x="415" 
d="M126 382c-25 0 -46 10 -63 26l7 35c18 -22 39 -32 55 -32c24 0 44 18 44 51c0 18 -6 37 -28 71c-27 42 -37 69 -37 93c0 25 8 43 22 57c13 13 31 20 50 20c23 0 43 -10 56 -21l-7 -35c-16 17 -32 27 -49 27c-24 0 -40 -19 -40 -46c0 -17 8 -38 29 -72
c26 -42 36 -65 36 -92c0 -26 -9 -47 -23 -61s-32 -21 -52 -21zM227 385l61 315h39l18 -154l78 154h40l-61 -315h-30l50 257l-89 -174h-4l-22 174l-50 -257h-30z" />
    <glyph glyph-name="trademark" unicode="&#x2122;" horiz-adv-x="389" 
d="M77 385l55 286h-50l6 29h132l-6 -29h-51l-55 -286h-31zM200 385l61 315h39l18 -154l78 154h40l-61 -315h-30l50 257l-89 -174h-4l-22 174l-50 -257h-30z" />
    <glyph glyph-name="asterisk" unicode="*" horiz-adv-x="278" 
d="M190 431l-35 7l30 112l-94 -45l-12 34l101 31l-82 67l24 27l70 -76l14 115l35 -7l-30 -112l94 45l12 -34l-101 -31l82 -67l-24 -27l-70 76z" />
    <glyph glyph-name="dagger" unicode="&#x2020;" horiz-adv-x="231" 
d="M90 238l64 290l-87 -10l8 43l83 -10l18 149h48l-40 -149l86 10l-8 -43l-82 10l-48 -290h-42z" />
    <glyph glyph-name="daggerdbl" unicode="&#x2021;" horiz-adv-x="255" 
d="M51 0l41 149l-86 -10l9 43l82 -10l25 178l44 178l-87 -10l9 43l83 -10l18 149h48l-40 -149l86 10l-9 -43l-82 10l-24 -178l-45 -178l86 10l-9 -43l-82 10l-19 -149h-48z" />
    <glyph glyph-name="dollar" unicode="$" horiz-adv-x="340" 
d="M251 768h34l-13 -66c32 -5 65 -20 93 -48l-9 -47c-30 36 -63 52 -92 57l-59 -290c66 -67 89 -117 89 -176c0 -91 -47 -200 -166 -204l-19 -93h-34l19 95c-35 5 -74 20 -105 49l9 50c32 -39 72 -55 104 -60l64 313c-76 85 -82 138 -82 177c0 96 57 176 154 180zM252 204
c0 31 -9 71 -56 122l-60 -293c85 8 116 97 116 171zM126 521c0 -26 3 -65 50 -123l55 267c-71 -5 -105 -71 -105 -144z" />
    <glyph glyph-name="sterling" unicode="&#xa3;" horiz-adv-x="322" 
d="M-18 0l4 21l52 18l56 288h-54l8 37h54l33 170c14 74 29 106 58 135c26 26 58 38 96 38c33 0 60 -9 77 -18l-8 -42c-16 9 -39 20 -71 20c-23 0 -46 -7 -64 -25s-33 -45 -45 -108l-33 -170h128l-8 -37h-128l-56 -288h185l-7 -39h-277z" />
    <glyph glyph-name="Euro" unicode="&#x20ac;" horiz-adv-x="359" 
d="M42 417l6 35h52c23 76 57 147 106 196c45 45 85 58 123 58c31 0 55 -8 75 -22l-9 -49c-18 18 -39 29 -69 29c-28 0 -56 -10 -88 -42c-41 -41 -72 -102 -93 -170h167l-6 -35h-171c-11 -42 -17 -87 -20 -129h165l-6 -35h-161v-16c0 -124 31 -201 104 -201c22 0 42 7 69 24
l-9 -47c-15 -10 -38 -19 -66 -19c-90 0 -142 81 -142 234v25h-58l6 35h54c3 42 9 86 20 129h-49z" />
    <glyph glyph-name="yen" unicode="&#xa5;" horiz-adv-x="342" 
d="M97 0l27 141h-96l7 35h96l19 99h-96l7 35h90l-62 390h46l50 -354l188 354h48l-215 -390h91l-7 -35h-98l-19 -99h98l-7 -35h-98l-27 -141h-42z" />
    <glyph glyph-name="cent" unicode="&#xa2;" horiz-adv-x="290" 
d="M241 703h34l-17 -84c26 -3 48 -13 65 -24l-9 -45c-17 13 -38 26 -64 29l-94 -458h4c23 0 50 9 75 24l-8 -45c-21 -12 -50 -19 -72 -19h-7l-17 -86h-34l19 92c-50 16 -75 68 -75 162c0 110 36 261 105 330c24 24 50 37 78 40zM83 257c0 -77 15 -114 41 -128l92 448
c-14 -4 -28 -12 -39 -23c-64 -64 -94 -211 -94 -297z" />
    <glyph glyph-name="baht" unicode="&#xe3f;" horiz-adv-x="373" 
d="M5 0l136 700h74c22 0 43 -3 62 -9l27 88h38l-30 -103c43 -25 69 -69 69 -127c0 -134 -106 -183 -164 -196v-3c63 -21 103 -69 103 -138c0 -135 -98 -194 -198 -208l-37 -124h-39l36 120h-12h-65zM121 373h11c21 0 41 2 60 6l76 272c-16 6 -33 9 -53 9h-38zM276 212
c0 50 -24 89 -68 108l-77 -275c91 16 145 73 145 167zM56 40h18c8 0 16 0 23 1l81 288c-12 3 -26 4 -40 4h-25zM336 547c0 37 -14 67 -39 87l-69 -245c68 25 108 81 108 158z" />
    <glyph glyph-name="colonmonetary" unicode="&#x20a1;" horiz-adv-x="359" 
d="M383 779h38l-27 -92c8 -5 16 -11 23 -18l-9 -49c-10 11 -20 21 -30 28l-182 -611c4 -1 9 -1 14 -1c31 0 57 12 93 39l-9 -49c-14 -13 -51 -32 -88 -32c-7 0 -14 1 -20 2l-35 -114h-38l38 123c-16 8 -31 19 -44 33l-48 -156h-38l60 196c-18 38 -29 88 -29 150
c0 142 46 321 144 419c23 23 47 39 70 48l25 84h38l-22 -74c6 0 11 1 17 1c11 0 24 -2 36 -5zM122 97c12 -23 27 -41 46 -51l182 614c-9 3 -19 4 -29 4s-20 -1 -31 -4zM94 237c0 -35 4 -67 11 -94l148 500c-9 -6 -18 -14 -28 -24c-77 -77 -131 -243 -131 -382z" />
    <glyph glyph-name="florin" unicode="&#x192;" horiz-adv-x="323" 
d="M9 -5c-18 0 -36 5 -50 13l8 41c13 -9 31 -13 41 -13c37 0 52 27 71 93l77 260h-56l7 36h59l52 175c25 84 70 105 110 105c27 0 48 -8 64 -17l-9 -44c-17 11 -37 18 -56 18c-23 0 -50 -10 -71 -84l-45 -153h98l-7 -36h-101l-86 -291c-18 -61 -48 -103 -106 -103z" />
    <glyph glyph-name="naira" unicode="&#x20a6;" horiz-adv-x="480" 
d="M460 242h-71l-47 -242h-62l-27 242h-130l-47 -242h-42l47 242h-68l5 35h70l30 150h-71l7 35h71l46 238h65l26 -238h128l47 238h42l-47 -238h70l-7 -35h-70l-29 -150h70zM159 427l-29 -150h116l-17 150h-70zM269 427l18 -150h67l29 150h-114zM203 650l-37 -190h59z
M291 244l21 -184l35 184h-56z" />
    <glyph glyph-name="peso" unicode="&#x20b1;" horiz-adv-x="431" 
d="M460 461h-65c-9 -57 -33 -106 -70 -144c-41 -42 -102 -66 -175 -66h-35l-50 -251h-43l89 461h-69l7 35h69l40 204h53c60 0 107 -17 139 -50c31 -31 49 -78 49 -139v-15h68zM123 290h28c60 0 107 17 144 54c30 30 48 70 56 118h-195zM194 660l-32 -165h192c0 4 1 8 1 13
c0 53 -13 89 -37 114c-27 27 -65 38 -109 38h-15z" />
    <glyph glyph-name="R_p" horiz-adv-x="656" 
d="M-5 0l135 700h42c122 0 179 -76 179 -173c0 -101 -50 -204 -157 -239l64 -288h-43l-61 279c-15 -2 -31 -3 -64 -3l-54 -276h-41zM289 -130l128 659h41l-16 -87c26 51 66 94 110 94c55 0 90 -59 90 -167c0 -111 -36 -267 -106 -340c-26 -28 -51 -37 -73 -37
c-50 0 -79 52 -87 112l-46 -234h-41zM97 313h18c141 0 191 116 191 216c0 88 -53 133 -131 133h-10zM462 29c13 0 30 6 48 26c56 61 92 211 92 315c0 83 -22 129 -59 129c-17 0 -34 -10 -52 -29c-58 -62 -95 -197 -95 -299c0 -91 28 -142 66 -142z" />
    <glyph glyph-name="rupee" unicode="&#x20a8;" horiz-adv-x="586" 
d="M490 122c0 33 -14 66 -54 126c-48 72 -64 111 -64 157c0 67 41 126 122 126c39 0 73 -17 94 -33l-10 -42c-26 22 -59 37 -87 37c-48 0 -78 -33 -78 -86c0 -30 10 -61 52 -125c46 -69 66 -111 66 -157c0 -75 -45 -131 -125 -131c-38 0 -75 14 -112 41l11 43
c32 -28 71 -46 104 -46c45 0 81 30 81 90zM215 0l-61 279c-15 -2 -31 -3 -64 -3l-54 -276h-41l135 700h42c122 0 179 -76 179 -173c0 -101 -50 -204 -157 -239l64 -288h-43zM97 313h18c141 0 191 116 191 216c0 88 -53 133 -131 133h-10z" />
    <glyph glyph-name="won" unicode="&#x20a9;" horiz-adv-x="619" 
d="M609 241h-111l-78 -244h-53l6 244h-137l-88 -244h-53l16 244h-108l6 35h105l10 152h-86l7 35h82l16 237h43l-21 -237h115l85 237h57l-9 -237h115l73 237h45l-77 -237h83l-7 -35h-87l-49 -152h106zM303 428l-54 -152h124l5 152h-75zM149 276h65l53 152h-106zM409 276h64
l45 152h-105zM383 651l-67 -188h63l7 188h-3zM132 49h3l67 192h-55zM403 49h3l57 192h-55z" />
    <glyph glyph-name="sheqel" unicode="&#x20aa;" horiz-adv-x="397" 
d="M-7 0l98 510h76c57 0 115 -16 115 -110c0 -19 -2 -40 -7 -65l-32 -164h-39l32 165c5 25 7 46 7 63c0 67 -36 74 -76 74h-43l-92 -473h-39zM225 0c-70 0 -113 30 -102 138l22 211h37l-20 -200c-9 -86 11 -112 67 -112h41l92 473h40l-99 -510h-78z" />
    <glyph glyph-name="numbersign" unicode="#" horiz-adv-x="388" 
d="M46 0l37 186h-73l6 40h75l49 248h-68l6 40h70l37 186h36l-37 -186h111l36 186h36l-37 -186h73l-6 -40h-75l-49 -248h68l-6 -40h-70l-37 -186h-36l37 186h-111l-36 -186h-36zM126 226h111l50 248h-111z" />
    <glyph glyph-name="paragraph" unicode="&#xb6;" horiz-adv-x="325" 
d="M173 0l51 258c-44 4 -87 17 -119 49c-31 31 -49 77 -49 137c0 77 26 143 74 191c41 41 102 65 175 65h49l-137 -700h-44z" />
    <glyph glyph-name="section" unicode="&#xa7;" horiz-adv-x="360" 
d="M357 345c-1 -69 -54 -104 -142 -141c29 -28 43 -56 43 -90c0 -71 -53 -121 -128 -121c-42 0 -75 12 -101 26l9 43c28 -18 62 -30 94 -30c50 0 83 30 83 79c0 38 -25 64 -74 102c-81 63 -104 94 -103 142c1 69 54 104 142 141c-29 28 -43 56 -43 90c0 71 53 121 128 121
c42 0 75 -12 101 -26l-9 -43c-28 18 -62 30 -94 30c-50 0 -83 -30 -83 -79c0 -38 25 -64 74 -102c81 -63 104 -94 103 -142zM82 356c0 -38 18 -58 74 -102l31 -24c53 20 126 51 126 114c0 38 -18 58 -74 102l-31 24c-53 -20 -126 -51 -126 -114z" />
    <glyph glyph-name="ordfeminine" unicode="&#xaa;" horiz-adv-x="250" 
d="M138 403c-31 0 -54 25 -54 71c0 54 29 116 86 116c19 0 35 -6 51 -14l3 15c3 15 5 29 5 40c0 20 -12 38 -44 38c-16 0 -33 -4 -52 -12l7 35c16 7 38 10 51 10c44 0 71 -25 72 -66c0 -12 -1 -24 -6 -50l-35 -178h-34l7 34c-11 -18 -30 -39 -57 -39zM148 433
c30 0 53 38 60 76l7 37c-11 8 -28 14 -42 14c-42 0 -55 -49 -56 -81c-1 -33 13 -46 31 -46zM54 322l5 28h165l-5 -28h-165z" />
    <glyph glyph-name="ordmasculine" unicode="&#xba;" horiz-adv-x="250" 
d="M58 322l6 28h158l-6 -28h-158zM125 496c0 -35 9 -61 34 -61c11 0 20 5 28 13c30 30 51 109 51 162c0 35 -9 61 -34 61c-11 0 -20 -5 -28 -13c-30 -30 -51 -109 -51 -162zM272 607c0 -60 -22 -141 -61 -180c-16 -16 -34 -24 -54 -24c-41 0 -66 32 -66 96
c0 58 22 141 61 180c16 16 34 24 54 24c41 0 66 -32 66 -96z" />
    <glyph glyph-name="degree" unicode="&#xb0;" horiz-adv-x="248" 
d="M204 708c46 0 81 -36 81 -103c0 -75 -29 -148 -66 -179c-21 -18 -42 -24 -62 -24c-46 0 -81 36 -81 103c0 71 26 139 58 171c18 18 39 32 70 32zM162 437c12 0 23 4 34 13c32 27 53 96 53 152c0 47 -18 71 -50 71c-14 0 -27 -6 -38 -17c-30 -30 -49 -95 -49 -148
c0 -47 18 -71 50 -71z" />
    <glyph glyph-name="percent" unicode="%" horiz-adv-x="500" 
d="M157 373c-49 0 -85 42 -85 122c0 70 24 140 64 180c18 18 39 30 65 30c49 0 85 -42 85 -122c0 -70 -24 -140 -64 -180c-18 -18 -39 -30 -65 -30zM332 -5c-49 0 -85 42 -85 122c0 70 24 140 64 180c18 18 39 30 65 30c49 0 85 -42 85 -122c0 -70 -24 -140 -64 -180
c-18 -18 -39 -30 -65 -30zM334 32c16 0 29 8 40 19c31 31 50 98 50 150c0 64 -21 89 -50 89c-16 0 -29 -8 -40 -19c-31 -31 -50 -98 -50 -150c0 -64 21 -89 50 -89zM159 410c16 0 29 8 40 19c31 31 50 98 50 150c0 64 -21 89 -50 89c-16 0 -29 -8 -40 -19
c-31 -31 -50 -98 -50 -150c0 -64 21 -89 50 -89zM22 0l450 700h39l-450 -700h-39z" />
    <glyph glyph-name="perthousand" unicode="&#x2030;" horiz-adv-x="753" 
d="M157 373c-49 0 -85 42 -85 122c0 70 24 140 64 180c18 18 39 30 65 30c49 0 85 -42 85 -122c0 -70 -24 -140 -64 -180c-18 -18 -39 -30 -65 -30zM332 -5c-49 0 -85 42 -85 122c0 70 24 140 64 180c18 18 39 30 65 30c49 0 85 -42 85 -122c0 -70 -24 -140 -64 -180
c-18 -18 -39 -30 -65 -30zM585 -5c-49 0 -85 42 -85 122c0 70 24 140 64 180c18 18 39 30 65 30c49 0 85 -42 85 -122c0 -70 -24 -140 -64 -180c-18 -18 -39 -30 -65 -30zM334 32c16 0 29 8 40 19c31 31 50 98 50 150c0 64 -21 89 -50 89c-16 0 -29 -8 -40 -19
c-31 -31 -50 -98 -50 -150c0 -64 21 -89 50 -89zM587 32c16 0 29 8 40 19c31 31 50 98 50 150c0 64 -21 89 -50 89c-16 0 -29 -8 -40 -19c-31 -31 -50 -98 -50 -150c0 -64 21 -89 50 -89zM159 410c16 0 29 8 40 19c31 31 50 98 50 150c0 64 -21 89 -50 89
c-16 0 -29 -8 -40 -19c-31 -31 -50 -98 -50 -150c0 -64 21 -89 50 -89zM22 0l450 700h39l-450 -700h-39z" />
    <glyph glyph-name="quotedbl" unicode="&#x22;" horiz-adv-x="231" 
d="M81 458l47 242h50l-2 -9l-76 -233h-19zM186 458l47 242h50l-2 -9l-76 -233h-19z" />
    <glyph glyph-name="quotesingle" unicode="'" horiz-adv-x="116" 
d="M81 458l47 242h50l-2 -9l-76 -233h-19z" />
    <glyph glyph-name="plus" unicode="+" horiz-adv-x="340" 
d="M139 207l25 125h-122l8 40h121l25 125h40l-25 -125h122l-8 -40h-121l-25 -125h-40z" />
    <glyph glyph-name="minus" unicode="&#x2212;" horiz-adv-x="340" 
d="M42 330l9 44h282l-9 -44h-282z" />
    <glyph glyph-name="divide" unicode="&#xf7;" horiz-adv-x="340" 
d="M129 189l14 71h54l-14 -71h-54zM42 330l9 44h282l-9 -44h-282zM178 444l14 71h54l-14 -71h-54z" />
    <glyph glyph-name="equal" unicode="=" horiz-adv-x="340" 
d="M34 262l8 41h272l-8 -41h-272zM61 401l8 41h272l-8 -41h-272z" />
    <glyph glyph-name="multiply" unicode="&#xd7;" horiz-adv-x="340" 
d="M72 220l-26 28l116 106l-72 104l31 23l70 -100l112 103l26 -28l-116 -107l72 -103l-31 -23l-70 100z" />
    <glyph glyph-name="less" unicode="&#x3c;" horiz-adv-x="340" 
d="M272 181l-218 151l7 40l278 151l-11 -53l-227 -121l180 -121z" />
    <glyph glyph-name="greater" unicode="&#x3e;" horiz-adv-x="340" 
d="M35 181l11 53l227 121l-180 121l9 47l218 -151l-7 -40z" />
    <glyph glyph-name="plusminus" unicode="&#xb1;" horiz-adv-x="340" 
d="M139 207l24 125h-121l8 40h121l24 125h40l-24 -125h121l-8 -40h-121l-24 -125h-40zM-2 97l8 41h281l-8 -41h-281z" />
    <glyph glyph-name="onehalf" unicode="&#xbd;" horiz-adv-x="495" 
d="M209 0l5 22l133 146c41 45 53 72 53 97c0 34 -24 50 -52 50c-33 0 -59 -19 -82 -39l5 42c18 16 45 30 80 30c47 0 85 -31 85 -81c0 -35 -12 -63 -62 -118l-107 -115h135l-7 -34h-186zM-15 0l214 358l205 343h35l-215 -358l-205 -343h-34zM93 354l59 302l-74 -37l7 38
l78 43h32l-67 -346h-35z" />
    <glyph glyph-name="onehalf.alt" horiz-adv-x="540" 
d="M20 354l6 32h78l53 273l-86 -40l8 40l89 44h32l-61 -317h69l-6 -32h-182zM271 0l5 22l133 146c41 45 53 72 53 97c0 34 -24 50 -52 50c-33 0 -59 -19 -82 -39l5 42c18 16 45 30 80 30c47 0 85 -31 85 -81c0 -35 -12 -63 -62 -118l-107 -115h135l-7 -34h-186zM52 0
l214 358l205 343h35l-215 -358l-205 -343h-34z" />
    <glyph glyph-name="onethird" unicode="&#x2153;" horiz-adv-x="495" 
d="M319 -4c-34 0 -63 12 -87 32l8 39c17 -20 48 -38 79 -38c45 0 70 34 70 73c0 44 -34 65 -91 67h-1l4 23l115 121h-128l7 34h175l-5 -27l-122 -126c54 -12 82 -45 82 -91c0 -61 -44 -107 -106 -107zM92 354l59 302l-74 -37l7 38l78 43h32l-67 -346h-35zM-16 0l214 358
l205 343h35l-215 -358l-205 -343h-34z" />
    <glyph glyph-name="onethird.alt" horiz-adv-x="540" 
d="M20 354l6 32h78l53 273l-86 -40l8 40l89 44h32l-61 -317h69l-6 -32h-182zM369 -4c-34 0 -63 12 -87 32l8 39c17 -20 48 -38 79 -38c45 0 70 34 70 73c0 44 -34 65 -91 67h-1l4 23l115 121h-128l7 34h175l-5 -27l-122 -126c54 -12 82 -45 82 -91c0 -61 -44 -107 -106 -107
zM47 0l214 358l205 343h35l-215 -358l-205 -343h-34z" />
    <glyph glyph-name="twothirds" unicode="&#x2154;" horiz-adv-x="540" 
d="M369 -4c-34 0 -63 12 -87 32l8 39c17 -20 48 -38 79 -38c45 0 70 34 70 73c0 44 -34 65 -91 67h-1l4 23l115 121h-128l7 34h175l-5 -27l-122 -126c54 -12 82 -45 82 -91c0 -61 -44 -107 -106 -107zM23 354l5 22l133 146c41 45 53 72 53 97c0 34 -24 50 -52 50
c-33 0 -59 -19 -82 -39l5 42c18 16 45 30 80 30c47 0 85 -31 85 -81c0 -35 -12 -63 -62 -118l-107 -115h135l-7 -34h-186zM45 0l214 358l205 343h35l-215 -358l-205 -343h-34z" />
    <glyph glyph-name="onequarter" unicode="&#xbc;" horiz-adv-x="495" 
d="M93 354l59 302l-74 -37l7 38l78 43h32l-67 -346h-35zM14 0l214 358l205 343h35l-215 -358l-205 -343h-34zM333 0l14 72h-135l5 25l170 251h45l-47 -246h35l-6 -30h-35l-14 -72h-32zM257 102h96l36 190h-6z" />
    <glyph glyph-name="onequarter.alt" horiz-adv-x="540" 
d="M25 354l6 32h78l53 273l-86 -40l8 40l89 44h32l-61 -317h69l-6 -32h-182zM62 0l214 358l205 343h35l-215 -358l-205 -343h-34zM388 0l14 72h-135l5 25l170 251h45l-47 -246h35l-6 -30h-35l-14 -72h-32zM312 102h96l36 190h-6z" />
    <glyph glyph-name="threequarters" unicode="&#xbe;" horiz-adv-x="540" 
d="M382 0l14 72h-135l5 25l170 251h45l-47 -246h35l-6 -30h-35l-14 -72h-32zM306 102h96l36 190h-6zM62 0l214 358l205 343h35l-215 -358l-205 -343h-34zM124 350c-34 0 -63 12 -87 32l8 39c17 -20 48 -38 79 -38c45 0 70 34 70 73c0 44 -34 65 -91 67h-1l4 23l115 121h-128
l7 34h175l-5 -27l-122 -126c54 -12 82 -45 82 -91c0 -61 -44 -107 -106 -107z" />
    <glyph glyph-name="onefifth" unicode="&#x2155;" horiz-adv-x="495" 
d="M307 -4c-30 0 -56 10 -81 29l7 39c17 -15 40 -35 75 -35c49 0 73 45 73 92s-27 59 -55 59c-18 0 -32 -5 -44 -10l-24 13l43 163h145l-7 -34h-114l-29 -105c9 3 23 6 37 6c44 0 85 -27 85 -92c0 -57 -34 -125 -111 -125zM93 354l59 302l-74 -37l7 38l78 43h32l-67 -346
h-35zM-15 0l214 358l205 343h35l-215 -358l-205 -343h-34z" />
    <glyph glyph-name="onefifth.alt" horiz-adv-x="540" 
d="M20 354l6 32h78l53 273l-86 -40l8 40l89 44h32l-61 -317h69l-6 -32h-182zM367 -4c-30 0 -56 10 -81 29l7 39c17 -15 40 -35 75 -35c49 0 73 45 73 92s-27 59 -55 59c-18 0 -32 -5 -44 -10l-24 13l43 163h145l-7 -34h-114l-29 -105c9 3 23 6 37 6c44 0 85 -27 85 -92
c0 -57 -34 -125 -111 -125zM52 0l214 358l205 343h35l-215 -358l-205 -343h-34z" />
    <glyph glyph-name="twofifths" unicode="&#x2156;" horiz-adv-x="540" 
d="M372 -4c-30 0 -56 10 -81 29l7 39c17 -15 40 -35 75 -35c49 0 73 45 73 92s-27 59 -55 59c-18 0 -32 -5 -44 -10l-24 13l43 163h145l-7 -34h-114l-29 -105c9 3 23 6 37 6c44 0 85 -27 85 -92c0 -57 -34 -125 -111 -125zM50 0l214 358l205 343h35l-215 -358l-205 -343h-34
zM23 354l5 22l133 146c41 45 53 72 53 97c0 34 -24 50 -52 50c-33 0 -59 -19 -82 -39l5 42c18 16 45 30 80 30c47 0 85 -31 85 -81c0 -35 -12 -63 -62 -118l-107 -115h135l-7 -34h-186z" />
    <glyph glyph-name="threefifths" unicode="&#x2157;" horiz-adv-x="540" 
d="M372 -4c-30 0 -56 10 -81 29l7 39c17 -15 40 -35 75 -35c49 0 73 45 73 92s-27 59 -55 59c-18 0 -32 -5 -44 -10l-24 13l43 163h145l-7 -34h-114l-29 -105c9 3 23 6 37 6c44 0 85 -27 85 -92c0 -57 -34 -125 -111 -125zM42 0l214 358l205 343h35l-215 -358l-205 -343h-34
zM113 350c-34 0 -63 12 -87 32l8 39c17 -20 48 -38 79 -38c45 0 70 34 70 73c0 44 -34 65 -91 67h-1l4 23l115 121h-128l7 34h175l-5 -27l-122 -126c54 -12 82 -45 82 -91c0 -61 -44 -107 -106 -107z" />
    <glyph glyph-name="fourfifths" unicode="&#x2158;" horiz-adv-x="540" 
d="M147 354l14 72h-135l5 25l170 251h45l-47 -246h35l-6 -30h-35l-14 -72h-32zM71 456h96l36 190h-6zM372 -4c-30 0 -56 10 -81 29l7 39c17 -15 40 -35 75 -35c49 0 73 45 73 92s-27 59 -55 59c-18 0 -32 -5 -44 -10l-24 13l43 163h145l-7 -34h-114l-29 -105c9 3 23 6 37 6
c44 0 85 -27 85 -92c0 -57 -34 -125 -111 -125zM44 0l214 358l205 343h35l-215 -358l-205 -343h-34z" />
    <glyph glyph-name="onesixth" unicode="&#x2159;" horiz-adv-x="495" 
d="M312 -4c-42 0 -83 25 -83 102c0 44 18 167 74 223c20 20 42 29 70 29c26 0 48 -10 61 -18l-8 -38c-16 13 -37 22 -56 22c-15 0 -29 -4 -42 -17c-19 -19 -37 -55 -48 -98c15 10 35 19 58 19c40 0 79 -25 79 -86c0 -72 -42 -138 -105 -138zM313 29c42 0 68 50 68 103
c0 41 -24 55 -51 55c-17 0 -40 -7 -57 -21l-2 -10c-4 -20 -7 -43 -7 -60c0 -49 24 -67 49 -67zM93 354l59 302l-74 -37l7 38l78 43h32l-67 -346h-35zM-10 0l214 358l205 343h35l-215 -358l-205 -343h-34z" />
    <glyph glyph-name="onesixth.alt" horiz-adv-x="540" 
d="M20 354l6 32h78l53 273l-86 -40l8 40l89 44h32l-61 -317h69l-6 -32h-182zM381 -4c-42 0 -83 25 -83 102c0 44 18 167 74 223c20 20 42 29 70 29c26 0 48 -10 61 -18l-8 -38c-16 13 -37 22 -56 22c-15 0 -29 -4 -42 -17c-19 -19 -37 -55 -48 -98c15 10 35 19 58 19
c40 0 79 -25 79 -86c0 -72 -42 -138 -105 -138zM382 29c42 0 68 50 68 103c0 41 -24 55 -51 55c-17 0 -40 -7 -57 -21l-2 -10c-4 -20 -7 -43 -7 -60c0 -49 24 -67 49 -67zM57 0l214 358l205 343h35l-215 -358l-205 -343h-34z" />
    <glyph glyph-name="fivesixths" unicode="&#x215a;" horiz-adv-x="540" 
d="M376 -4c-42 0 -83 25 -83 102c0 44 18 167 74 223c20 20 42 29 70 29c26 0 48 -10 61 -18l-8 -38c-16 13 -37 22 -56 22c-15 0 -29 -4 -42 -17c-19 -19 -37 -55 -48 -98c15 10 35 19 58 19c40 0 79 -25 79 -86c0 -72 -42 -138 -105 -138zM377 29c42 0 68 50 68 103
c0 41 -24 55 -51 55c-17 0 -40 -7 -57 -21l-2 -10c-4 -20 -7 -43 -7 -60c0 -49 24 -67 49 -67zM42 0l214 358l205 343h35l-215 -358l-205 -343h-34zM116 350c-30 0 -56 10 -81 29l7 39c17 -15 40 -35 75 -35c49 0 73 45 73 92s-27 59 -55 59c-18 0 -32 -5 -44 -10l-24 13
l43 163h145l-7 -34h-114l-29 -105c9 3 23 6 37 6c44 0 85 -27 85 -92c0 -57 -34 -125 -111 -125z" />
    <glyph glyph-name="oneeighth" unicode="&#x215b;" horiz-adv-x="495" 
d="M309 -4c-54 0 -89 35 -89 86c0 48 28 88 72 102c-19 15 -32 38 -32 67c0 61 43 99 92 99c48 0 82 -33 82 -83c0 -43 -26 -79 -62 -93c27 -18 38 -45 38 -74c0 -55 -40 -104 -101 -104zM311 28c37 0 65 30 65 74c0 30 -16 60 -56 60c-37 0 -66 -34 -66 -76
c0 -31 18 -58 57 -58zM342 194c32 0 58 31 58 71c0 30 -17 53 -49 53c-33 0 -57 -30 -57 -68c0 -32 18 -56 48 -56zM93 354l59 302l-74 -37l7 38l78 43h32l-67 -346h-35zM-10 0l214 358l205 343h35l-215 -358l-205 -343h-34z" />
    <glyph glyph-name="oneeighth.alt" horiz-adv-x="540" 
d="M20 354l6 32h78l53 273l-86 -40l8 40l89 44h32l-61 -317h69l-6 -32h-182zM378 -4c-54 0 -89 35 -89 86c0 48 28 88 72 102c-19 15 -32 38 -32 67c0 61 43 99 92 99c48 0 82 -33 82 -83c0 -43 -26 -79 -62 -93c27 -18 38 -45 38 -74c0 -55 -40 -104 -101 -104zM380 28
c37 0 65 30 65 74c0 30 -16 60 -56 60c-37 0 -66 -34 -66 -76c0 -31 18 -58 57 -58zM411 194c32 0 58 31 58 71c0 30 -17 53 -49 53c-33 0 -57 -30 -57 -68c0 -32 18 -56 48 -56zM57 0l214 358l205 343h35l-215 -358l-205 -343h-34z" />
    <glyph glyph-name="threeeighths" unicode="&#x215c;" horiz-adv-x="540" 
d="M373 -4c-54 0 -89 35 -89 86c0 48 28 88 72 102c-19 15 -32 38 -32 67c0 61 43 99 92 99c48 0 82 -33 82 -83c0 -43 -26 -79 -62 -93c27 -18 38 -45 38 -74c0 -55 -40 -104 -101 -104zM375 28c37 0 65 30 65 74c0 30 -16 60 -56 60c-37 0 -66 -34 -66 -76
c0 -31 18 -58 57 -58zM406 194c32 0 58 31 58 71c0 30 -17 53 -49 53c-33 0 -57 -30 -57 -68c0 -32 18 -56 48 -56zM42 0l214 358l205 343h35l-215 -358l-205 -343h-34zM119 350c-34 0 -63 12 -87 32l8 39c17 -20 48 -38 79 -38c45 0 70 34 70 73c0 44 -34 65 -91 67h-1
l4 23l115 121h-128l7 34h175l-5 -27l-122 -126c54 -12 82 -45 82 -91c0 -61 -44 -107 -106 -107z" />
    <glyph glyph-name="fiveeighths" unicode="&#x215d;" horiz-adv-x="540" 
d="M373 -4c-54 0 -89 35 -89 86c0 48 28 88 72 102c-19 15 -32 38 -32 67c0 61 43 99 92 99c48 0 82 -33 82 -83c0 -43 -26 -79 -62 -93c27 -18 38 -45 38 -74c0 -55 -40 -104 -101 -104zM375 28c37 0 65 30 65 74c0 30 -16 60 -56 60c-37 0 -66 -34 -66 -76
c0 -31 18 -58 57 -58zM406 194c32 0 58 31 58 71c0 30 -17 53 -49 53c-33 0 -57 -30 -57 -68c0 -32 18 -56 48 -56zM42 0l214 358l205 343h35l-215 -358l-205 -343h-34zM116 350c-30 0 -56 10 -81 29l7 39c17 -15 40 -35 75 -35c49 0 73 45 73 92s-27 59 -55 59
c-18 0 -32 -5 -44 -10l-24 13l43 163h145l-7 -34h-114l-29 -105c9 3 23 6 37 6c44 0 85 -27 85 -92c0 -57 -34 -125 -111 -125z" />
    <glyph glyph-name="seveneighths" unicode="&#x215e;" horiz-adv-x="540" 
d="M354 -4c-54 0 -89 35 -89 86c0 48 28 88 72 102c-19 15 -32 38 -32 67c0 61 43 99 92 99c48 0 82 -33 82 -83c0 -43 -26 -79 -62 -93c27 -18 38 -45 38 -74c0 -55 -40 -104 -101 -104zM356 28c37 0 65 30 65 74c0 30 -16 60 -56 60c-37 0 -66 -34 -66 -76
c0 -31 18 -58 57 -58zM387 194c32 0 58 31 58 71c0 30 -17 53 -49 53c-33 0 -57 -30 -57 -68c0 -32 18 -56 48 -56zM53 354l179 312h-141l6 34h179l-6 -29l-180 -317h-37zM7 0l214 358l205 343h35l-215 -358l-205 -343h-34z" />
    <glyph glyph-name="zero.sup" unicode="&#x2070;" 
d="M299 708c0 -53 -15 -169 -66 -220c-16 -16 -36 -26 -60 -26c-56 0 -80 45 -80 108c0 53 15 169 66 220c16 16 36 26 60 26c56 0 80 -45 80 -108zM129 568c0 -50 17 -73 45 -73c13 0 24 6 33 15c43 43 56 158 56 200c0 50 -17 73 -45 73c-13 0 -24 -6 -33 -15
c-43 -43 -56 -158 -56 -200z" />
    <glyph glyph-name="one.sup" unicode="&#xb9;" horiz-adv-x="195" 
d="M128 466l59 302l-74 -37l7 38l78 43h32l-67 -346h-35z" />
    <glyph glyph-name="one.sup_alt" 
d="M74 466l6 32h78l53 273l-86 -40l8 40l89 44h32l-61 -317h69l-6 -32h-182z" />
    <glyph glyph-name="two.sup" unicode="&#xb2;" 
d="M63 466l5 22l133 146c41 45 53 72 53 97c0 34 -24 50 -52 50c-33 0 -59 -19 -82 -39l5 42c18 16 45 30 80 30c47 0 85 -31 85 -81c0 -35 -12 -63 -62 -118l-107 -115h135l-7 -34h-186z" />
    <glyph glyph-name="three.sup" unicode="&#xb3;" 
d="M162 462c-34 0 -63 12 -87 32l8 39c17 -20 48 -38 79 -38c45 0 70 34 70 73c0 44 -34 65 -91 67h-1l4 23l115 121h-128l7 34h175l-5 -27l-122 -126c54 -12 82 -45 82 -91c0 -61 -44 -107 -106 -107z" />
    <glyph glyph-name="four.sup" unicode="&#x2074;" 
d="M194 466l14 72h-135l5 25l170 251h45l-47 -246h35l-6 -30h-35l-14 -72h-32zM118 568h96l36 190h-6z" />
    <glyph glyph-name="five.sup" unicode="&#x2075;" 
d="M159 462c-30 0 -56 10 -81 29l7 39c17 -15 40 -35 75 -35c49 0 73 45 73 92s-27 59 -55 59c-18 0 -32 -5 -44 -10l-24 13l43 163h145l-7 -34h-114l-29 -105c9 3 23 6 37 6c44 0 85 -27 85 -92c0 -57 -34 -125 -111 -125z" />
    <glyph glyph-name="six.sup" unicode="&#x2076;" 
d="M176 462c-42 0 -83 25 -83 102c0 44 18 167 74 223c20 20 42 29 70 29c26 0 48 -10 61 -18l-8 -38c-16 13 -37 22 -56 22c-15 0 -29 -4 -42 -17c-19 -19 -37 -55 -48 -98c15 10 35 19 58 19c40 0 79 -25 79 -86c0 -72 -42 -138 -105 -138zM177 495c42 0 68 50 68 103
c0 41 -24 55 -51 55c-17 0 -40 -7 -57 -21l-2 -10c-4 -20 -7 -43 -7 -60c0 -49 24 -67 49 -67z" />
    <glyph glyph-name="seven.sup" unicode="&#x2077;" 
d="M91 466l179 312h-141l6 34h179l-6 -29l-180 -317h-37z" />
    <glyph glyph-name="eight.sup" unicode="&#x2078;" 
d="M171 462c-54 0 -89 35 -89 86c0 48 28 88 72 102c-19 15 -32 38 -32 67c0 61 43 99 92 99c48 0 82 -33 82 -83c0 -43 -26 -79 -62 -93c27 -18 38 -45 38 -74c0 -55 -40 -104 -101 -104zM173 494c37 0 65 30 65 74c0 30 -16 60 -56 60c-37 0 -66 -34 -66 -76
c0 -31 18 -58 57 -58zM204 660c32 0 58 31 58 71c0 30 -17 53 -49 53c-33 0 -57 -30 -57 -68c0 -32 18 -56 48 -56z" />
    <glyph glyph-name="nine.sup" unicode="&#x2079;" 
d="M150 462c-26 0 -49 9 -68 20l8 38c22 -16 44 -24 63 -24c15 0 29 4 42 17c19 19 37 54 47 93c-15 -10 -35 -19 -60 -19c-38 0 -76 25 -76 89c0 74 42 140 105 140c42 0 83 -25 83 -102c0 -44 -18 -167 -74 -223c-20 -20 -42 -29 -70 -29zM192 620c17 0 40 7 57 21l3 15
c4 20 7 43 7 60c0 49 -24 67 -49 67c-42 0 -68 -50 -68 -105c0 -44 23 -58 50 -58z" />
    <glyph glyph-name="zero.inf" unicode="&#x2080;" 
d="M177 110c0 -53 -15 -169 -66 -220c-16 -16 -36 -26 -60 -26c-56 0 -80 45 -80 108c0 53 15 169 66 220c16 16 36 26 60 26c56 0 80 -45 80 -108zM7 -30c0 -50 17 -73 45 -73c13 0 24 6 33 15c43 43 56 158 56 200c0 50 -17 73 -45 73c-13 0 -24 -6 -33 -15
c-43 -43 -56 -158 -56 -200z" />
    <glyph glyph-name="one.inf" unicode="&#x2081;" horiz-adv-x="195" 
d="M13 -132l59 302l-74 -37l7 38l78 43h32l-67 -346h-35z" />
    <glyph glyph-name="one.inf_alt" 
d="M-41 -132l6 32h78l53 273l-86 -40l8 40l89 44h32l-61 -317h69l-6 -32h-182z" />
    <glyph glyph-name="two.inf" unicode="&#x2082;" 
d="M-52 -132l5 22l133 146c41 45 53 72 53 97c0 34 -24 50 -52 50c-33 0 -59 -19 -82 -39l5 42c18 16 45 30 80 30c47 0 85 -31 85 -81c0 -35 -12 -63 -62 -118l-107 -115h135l-7 -34h-186z" />
    <glyph glyph-name="three.inf" unicode="&#x2083;" 
d="M46 -136c-34 0 -63 12 -87 32l8 39c17 -20 48 -38 79 -38c45 0 70 34 70 73c0 44 -34 65 -91 67h-1l4 23l115 121h-128l7 34h175l-5 -27l-122 -126c54 -12 82 -45 82 -91c0 -61 -44 -107 -106 -107z" />
    <glyph glyph-name="four.inf" unicode="&#x2084;" 
d="M79 -132l14 72h-135l5 25l170 251h45l-47 -246h35l-6 -30h-35l-14 -72h-32zM3 -30h96l36 190h-6z" />
    <glyph glyph-name="five.inf" unicode="&#x2085;" 
d="M44 -136c-30 0 -56 10 -81 29l7 39c17 -15 40 -35 75 -35c49 0 73 45 73 92s-27 59 -55 59c-18 0 -32 -5 -44 -10l-24 13l43 163h145l-7 -34h-114l-29 -105c9 3 23 6 37 6c44 0 85 -27 85 -92c0 -57 -34 -125 -111 -125z" />
    <glyph glyph-name="six.inf" unicode="&#x2086;" 
d="M62 -136c-42 0 -83 25 -83 102c0 44 18 167 74 223c20 20 42 29 70 29c26 0 48 -10 61 -18l-8 -38c-16 13 -37 22 -56 22c-15 0 -29 -4 -42 -17c-19 -19 -37 -55 -48 -98c15 10 35 19 58 19c40 0 79 -25 79 -86c0 -72 -42 -138 -105 -138zM63 -103c42 0 68 50 68 103
c0 41 -24 55 -51 55c-17 0 -40 -7 -57 -21l-2 -10c-4 -20 -7 -43 -7 -60c0 -49 24 -67 49 -67z" />
    <glyph glyph-name="seven.inf" unicode="&#x2087;" 
d="M-24 -132l179 312h-141l6 34h179l-6 -29l-180 -317h-37z" />
    <glyph glyph-name="eight.inf" unicode="&#x2088;" 
d="M56 -136c-54 0 -89 35 -89 86c0 48 28 88 72 102c-19 15 -32 38 -32 67c0 61 43 99 92 99c48 0 82 -33 82 -83c0 -43 -26 -79 -62 -93c27 -18 38 -45 38 -74c0 -55 -40 -104 -101 -104zM58 -104c37 0 65 30 65 74c0 30 -16 60 -56 60c-37 0 -66 -34 -66 -76
c0 -31 18 -58 57 -58zM89 62c32 0 58 31 58 71c0 30 -17 53 -49 53c-33 0 -57 -30 -57 -68c0 -32 18 -56 48 -56z" />
    <glyph glyph-name="nine.inf" unicode="&#x2089;" 
d="M35 -136c-26 0 -49 9 -68 20l8 38c22 -16 44 -24 63 -24c15 0 29 4 42 17c19 19 37 54 47 93c-15 -10 -35 -19 -60 -19c-38 0 -76 25 -76 89c0 74 42 140 105 140c42 0 83 -25 83 -102c0 -44 -18 -167 -74 -223c-20 -20 -42 -29 -70 -29zM77 22c17 0 40 7 57 21l3 15
c4 20 7 43 7 60c0 49 -24 67 -49 67c-42 0 -68 -50 -68 -105c0 -44 23 -58 50 -58z" />
    <glyph glyph-name="zero.tab" horiz-adv-x="360" 
d="M347 544c0 -140 -54 -427 -141 -514c-29 -29 -57 -38 -83 -38c-55 0 -110 36 -110 164c0 140 54 427 141 514c29 29 57 38 83 38c55 0 110 -36 110 -164zM56 159c0 -109 39 -127 70 -127c16 0 32 7 47 22c75 75 131 358 131 487c0 109 -39 127 -70 127
c-16 0 -32 -7 -47 -22c-75 -75 -131 -358 -131 -487z" />
    <glyph glyph-name="one.tab" horiz-adv-x="360" 
d="M-21 0l8 40h127l117 603l-141 -78l10 53l147 82h39l-129 -660h113l-8 -40h-283z" />
    <glyph glyph-name="two.tab" horiz-adv-x="360" 
d="M-26 0l6 29l218 306c73 103 109 163 109 234c0 60 -34 95 -84 95c-57 0 -97 -40 -127 -67l12 59c13 12 57 52 119 52c77 0 128 -54 128 -137c0 -80 -49 -157 -111 -243l-203 -285h227l-8 -43h-286z" />
    <glyph glyph-name="three.tab" horiz-adv-x="360" 
d="M114 -8c-42 0 -96 15 -133 61l10 48c40 -56 90 -68 124 -68c83 0 139 73 139 172c0 83 -52 136 -148 150l6 31l208 269h-221l9 45h280l-6 -30l-224 -286c93 -25 141 -91 141 -181c0 -104 -69 -211 -185 -211z" />
    <glyph glyph-name="three.tab_alt" horiz-adv-x="360" 
d="M112 -8c-50 0 -97 20 -130 57l9 49c32 -39 73 -66 124 -66c87 0 132 79 132 164c0 89 -56 140 -149 149l7 38c141 8 202 83 202 175c0 67 -38 110 -97 110c-38 0 -74 -14 -118 -52l8 48c35 33 75 44 112 44c89 0 139 -67 139 -149s-46 -167 -170 -199
c67 -27 110 -83 110 -168c0 -103 -65 -200 -179 -200z" />
    <glyph glyph-name="four.tab" horiz-adv-x="360" 
d="M174 0l31 161h-215l8 42l302 502h51l-98 -505h56l-8 -39h-56l-31 -161h-40zM39 200h174l81 416h-5z" />
    <glyph glyph-name="five.tab" horiz-adv-x="360" 
d="M109 -8c-52 0 -96 25 -122 53l10 48c14 -18 56 -60 113 -60c92 0 144 111 144 220c0 94 -43 124 -97 124c-22 0 -53 -7 -75 -22l-27 20l77 325h226l-8 -43h-188l-61 -253c16 8 41 13 63 13c78 0 134 -54 134 -165c0 -119 -64 -260 -189 -260z" />
    <glyph glyph-name="six.tab" horiz-adv-x="360" 
d="M140 -8c-28 0 -54 10 -72 28c-28 28 -44 74 -44 154c0 91 38 371 156 489c22 22 55 45 103 45c37 0 67 -12 84 -28l-9 -45c-21 19 -50 30 -78 30c-29 0 -53 -13 -71 -31c-56 -56 -89 -148 -112 -241c34 25 70 41 106 41c65 0 116 -52 116 -155c0 -120 -60 -287 -179 -287
zM143 31c85 0 131 146 131 245c0 82 -32 118 -83 118c-37 0 -71 -20 -102 -45l-8 -41c-8 -42 -15 -102 -15 -144c0 -68 16 -133 77 -133z" />
    <glyph glyph-name="seven.tab" horiz-adv-x="360" 
d="M11 0l323 657h-236l9 43h282l-8 -38l-324 -662h-46z" />
    <glyph glyph-name="eight.tab" horiz-adv-x="360" 
d="M130 -8c-81 0 -126 57 -128 150c-2 84 40 195 130 225c-35 27 -51 70 -51 126c0 101 52 215 155 215c60 0 111 -47 111 -142c0 -76 -33 -180 -117 -210c43 -31 62 -86 62 -144c0 -98 -53 -220 -162 -220zM132 31c82 0 117 105 117 188c0 69 -30 122 -81 122
c-77 0 -124 -110 -124 -190s34 -120 88 -120zM194 380c74 0 111 112 111 184c0 70 -30 105 -73 105c-80 0 -109 -113 -109 -185c0 -40 16 -104 71 -104z" />
    <glyph glyph-name="nine.tab" horiz-adv-x="360" 
d="M80 -8c-37 0 -69 13 -93 35l9 45c29 -27 59 -37 87 -37c29 0 53 13 71 31c56 56 89 148 111 235c-34 -25 -70 -41 -106 -41c-65 0 -115 53 -115 158c0 124 60 290 179 290c28 0 54 -10 72 -28c28 -28 44 -74 44 -154c0 -91 -38 -371 -156 -489c-22 -22 -55 -45 -103 -45z
M171 300c37 0 71 20 102 45l9 47c8 42 15 102 15 144c0 68 -16 133 -77 133c-85 0 -131 -146 -131 -248c0 -84 31 -121 82 -121z" />
    <glyph glyph-name="period.tab" horiz-adv-x="180" 
d="M-14 0l17 90h74l-17 -90h-74z" />
    <glyph glyph-name="comma.tab" horiz-adv-x="180" 
d="M-37 -101l-10 26c45 20 61 35 66 75h-33l17 90h74l-15 -79c-13 -66 -35 -89 -99 -112z" />
    <glyph glyph-name="colon.tab" horiz-adv-x="180" 
d="M-14 0l17 90h74l-17 -90h-74zM70 434l17 90h74l-17 -90h-74z" />
    <glyph glyph-name="semicolon.tab" horiz-adv-x="180" 
d="M-37 -101l-10 26c45 20 61 35 66 75h-33l17 90h74l-15 -79c-13 -66 -35 -89 -99 -112zM70 434l17 90h74l-17 -90h-74z" />
    <glyph glyph-name="twodotleader.tab" horiz-adv-x="360" 
d="M-13 0l17 86h70l-17 -86h-70zM167 0l17 86h70l-17 -86h-70z" />
    <glyph glyph-name="periodcentered.tab" horiz-adv-x="180" 
d="M35 253l17 90h74l-17 -90h-74z" />
    <glyph glyph-name="slash.tab" horiz-adv-x="360" 
d="M-65 -99l430 868h41l-431 -868h-40z" />
    <glyph glyph-name="bar.tab" horiz-adv-x="180" 
d="M-15 -99l168 868h36l-168 -868h-36z" />
    <glyph glyph-name="underscore.tab" horiz-adv-x="360" 
d="M-100 -158l7 35h364l-7 -35h-364z" />
    <glyph glyph-name="dollar.tab" horiz-adv-x="360" 
d="M272 782h34l-20 -83c29 -7 58 -23 87 -52l-9 -47c-30 35 -62 52 -89 60l-71 -284c80 -71 98 -128 98 -187c0 -92 -51 -195 -178 -195c-5 0 -11 0 -16 1l-27 -108h-34l27 113c-33 8 -69 25 -101 60l9 50c33 -43 71 -63 103 -71l78 312c-82 86 -87 139 -87 178
c0 97 60 176 162 176c5 0 9 0 14 -1zM260 193c0 32 -7 81 -68 137l-74 -297h9c101 0 133 81 133 160zM118 527c0 -26 2 -68 57 -129l67 268h-6c-79 0 -118 -65 -118 -139z" />
    <glyph glyph-name="sterling.tab" horiz-adv-x="360" 
d="M-29 0l4 21l54 18l56 287h-56l8 38h56l33 170c14 74 29 106 58 135c26 26 58 38 96 38c45 0 81 -19 98 -30l-10 -42c-16 11 -49 32 -90 32c-23 0 -46 -7 -64 -25s-33 -45 -45 -108l-33 -170h149l-8 -38h-149l-56 -287h206l-7 -39h-300z" />
    <glyph glyph-name="Euro.tab" horiz-adv-x="360" 
d="M31 417l6 35h52c23 77 57 147 106 196c45 45 85 58 124 58c31 0 55 -8 75 -22l-9 -48c-18 18 -39 28 -69 28c-28 0 -56 -10 -88 -42c-40 -40 -72 -101 -93 -170h163l-6 -35h-166c-11 -42 -18 -86 -21 -129h161l-6 -35h-157v-16c0 -124 31 -201 104 -201c22 0 42 6 69 23
l-9 -46c-15 -10 -38 -19 -66 -19c-91 0 -143 81 -143 234v25h-58l6 35h54c3 42 9 86 20 129h-49z" />
    <glyph glyph-name="yen.tab" horiz-adv-x="360" 
d="M42 275l7 35h95l-62 390h46l50 -354l188 354h48l-215 -390h96l-7 -35h-103l-19 -99h103l-7 -35h-103l-27 -141h-42l27 141h-101l7 35h101l19 99h-101z" />
    <glyph glyph-name="cent.tab" horiz-adv-x="360" 
d="M299 703l-20 -86c25 -5 54 -17 79 -40l-9 -46c-26 27 -55 42 -79 47l-105 -457h10c23 0 56 6 102 43l-8 -46c-43 -34 -78 -37 -101 -37h-13l-19 -86h-34l21 93c-51 19 -85 72 -85 168c0 105 34 246 106 318c33 33 68 45 102 46l19 83h34zM80 259c0 -77 23 -114 53 -129
l104 449c-23 -2 -44 -12 -63 -31c-66 -66 -94 -205 -94 -289z" />
    <glyph glyph-name="numbersign.tab" horiz-adv-x="360" 
d="M28 0l32 186h-64l6 40h65l44 248h-61l6 40h62l33 186h36l-33 -186h107l33 186h36l-33 -186h65l-6 -40h-66l-44 -248h62l-6 -40h-63l-32 -186h-36l32 186h-107l-32 -186h-36zM103 226h107l44 248h-107z" />
    <glyph glyph-name="paragraph.tab" horiz-adv-x="360" 
d="M187 0l51 258c-39 3 -104 13 -147 57c-26 26 -47 69 -47 129c0 77 26 143 74 191c41 41 102 65 175 65h75l-137 -700h-44z" />
    <glyph glyph-name="section.tab" horiz-adv-x="360" 
d="M113 -7c-42 0 -76 12 -101 29l9 43c27 -21 62 -33 94 -33c50 0 83 30 83 79c0 38 -25 64 -74 102c-81 63 -104 94 -103 141c1 70 52 105 140 142c-29 28 -43 57 -43 91c0 71 53 120 128 120c42 0 76 -12 101 -29l-9 -43c-27 21 -62 33 -94 33c-50 0 -83 -30 -83 -79
c0 -38 25 -64 74 -102c81 -63 104 -94 103 -141c-1 -70 -52 -105 -140 -142c29 -28 43 -57 43 -91c0 -71 -53 -120 -128 -120zM170 230c53 20 124 52 124 114c0 39 -18 58 -74 102l-31 24c-53 -20 -124 -52 -124 -114c0 -39 18 -58 74 -102z" />
    <glyph glyph-name="degree.tab" horiz-adv-x="360" 
d="M238 708c59 0 103 -46 103 -129c0 -88 -32 -170 -74 -212c-22 -22 -50 -41 -90 -41c-59 0 -103 46 -103 129c0 88 32 170 74 212c22 22 50 41 90 41zM182 361c19 0 38 8 58 28c40 40 64 122 64 188c0 64 -26 96 -71 96c-19 0 -38 -8 -58 -28c-40 -40 -64 -122 -64 -188
c0 -64 26 -96 71 -96z" />
    <glyph glyph-name="percent.tab" horiz-adv-x="360" 
d="M159 705c47 0 71 -39 71 -100c0 -49 -18 -142 -62 -186c-15 -15 -34 -25 -56 -25c-47 0 -71 39 -71 100c0 49 18 142 62 186c15 15 34 25 56 25zM201 -5c-47 0 -71 39 -71 100c0 49 18 142 62 186c15 15 34 25 56 25c47 0 71 -39 71 -100c0 -49 -18 -142 -62 -186
c-15 -15 -34 -25 -56 -25zM373 700h36l-217 -359l-205 -341h-36l217 359zM204 29c11 0 21 5 30 14c34 34 49 121 49 166c0 36 -10 63 -38 63c-11 0 -21 -5 -30 -14c-34 -34 -49 -121 -49 -166c0 -36 10 -63 38 -63zM156 671c-11 0 -21 -5 -30 -14c-34 -34 -49 -121 -49 -166
c0 -36 10 -63 38 -63c11 0 21 5 30 14c34 34 49 121 49 166c0 36 -10 63 -38 63z" />
    <glyph glyph-name="quotedbl.tab" horiz-adv-x="360" 
d="M106 457l66 243h51l-3 -9l-95 -234h-19zM237 457l66 243h51l-3 -9l-95 -234h-19z" />
    <glyph glyph-name="quotesingle.tab" horiz-adv-x="180" 
d="M85 457l67 243h50l-3 -9l-94 -234h-20z" />
    <glyph glyph-name="plus.tab" horiz-adv-x="360" 
d="M131 203l25 129h-125l7 40h125l25 129h40l-25 -129h125l-7 -40h-125l-25 -129h-40z" />
    <glyph glyph-name="minus.tab" horiz-adv-x="360" 
d="M30 330l9 44h290l-9 -44h-290z" />
    <glyph glyph-name="divide.tab" horiz-adv-x="360" 
d="M119 185l14 72h56l-14 -72h-56zM30 330l9 44h290l-9 -44h-290zM170 447l14 72h56l-14 -72h-56z" />
    <glyph glyph-name="equal.tab" horiz-adv-x="360" 
d="M23 260l8 41h280l-8 -41h-280zM50 403l8 41h280l-8 -41h-280z" />
    <glyph glyph-name="multiply.tab" horiz-adv-x="360" 
d="M59 214l-26 28l123 112l-77 110l31 23l75 -106l119 109l26 -28l-123 -113l77 -109l-31 -23l-75 106z" />
    <glyph glyph-name="less.tab" horiz-adv-x="360" 
d="M268 177l-226 155l7 40l288 155l-11 -53l-236 -125l187 -125z" />
    <glyph glyph-name="greater.tab" horiz-adv-x="360" 
d="M93 527l226 -155l-7 -40l-288 -155l11 53l236 125l-187 125z" />
    <glyph glyph-name="plusminus.tab" horiz-adv-x="360" 
d="M133 205l24 128h-125l8 41h125l25 128h40l-25 -128h125l-8 -41h-125l-24 -128h-40zM-13 92l7 42h290l-8 -42h-289z" />
    <glyph glyph-name="space" unicode=" " horiz-adv-x="165" 
 />
    <glyph glyph-name="uni00A0" unicode="&#xa0;" horiz-adv-x="165" 
 />
    <glyph glyph-name="emspace" unicode="&#x2003;" horiz-adv-x="1000" 
 />
    <glyph glyph-name="enspace" unicode="&#x2002;" horiz-adv-x="500" 
 />
    <glyph glyph-name="threeperemspace" unicode="&#x2004;" horiz-adv-x="333" 
 />
    <glyph glyph-name="fourperemspace" unicode="&#x2005;" horiz-adv-x="250" 
 />
    <glyph glyph-name="thinspace" unicode="&#x2009;" horiz-adv-x="133" 
 />
    <glyph glyph-name="hairspace" unicode="&#x200a;" horiz-adv-x="75" 
 />
    <glyph glyph-name="space.tab" horiz-adv-x="180" 
 />
    <glyph glyph-name="figurespace" unicode="&#x2007;" horiz-adv-x="360" 
 />
    <glyph glyph-name="NUL" horiz-adv-x="0" 
 />
    <glyph glyph-name="asciicircum" unicode="^" horiz-adv-x="300" 
d="M115 533l99 153h34l41 -153h-37l-28 104l-68 -104h-41z" />
    <glyph glyph-name="asciitilde" unicode="~" horiz-adv-x="294" 
d="M77 253l-29 9c18 50 37 75 65 75c18 0 30 -9 44 -25c16 -18 22 -24 31 -24c12 0 24 17 35 46l29 -9c-18 -50 -37 -75 -65 -75c-18 0 -30 9 -44 25c-16 18 -22 24 -31 24c-12 0 -24 -17 -35 -46z" />
    <glyph glyph-name="hfjslug" horiz-adv-x="694" 
d="M255 276h8l11 34h1l11 -34h8l14 47h-8l-10 -35h-1l-11 35h-7l-11 -35h-1l-10 35h-8zM321 388c13 0 23 9 29 24h1l12 -24l12 6l-17 32c5 12 9 25 13 39l-13 3c-2 -9 -5 -21 -8 -30h-1l-16 31c13 12 23 26 23 42c0 17 -9 31 -27 31c-17 0 -28 -14 -28 -31
c0 -15 6 -24 14 -39c-15 -12 -23 -28 -23 -47c0 -22 12 -37 29 -37zM50 -200v303c18 0 32 14 32 32c0 17 -14 32 -32 32v554h100l30 79h334l29 -79h101v-921h-208l-8 14h-163l-8 -14h-207zM523 277h8v12l8 8l15 -20h10l-20 26l18 20h-10l-20 -24h-1v24h-8v-46zM193 277h34v7
h-26v13h23v7h-23v12h26v7h-34v-46zM184 391h15v79h47v-79h15v172h-15v-79h-47v79h-15v-172zM132 277h8v32l25 -32h7v46h-8v-32l-25 32h-7v-46zM400 391h15v78h38v14h-38v66h43v14h-58v-172zM468 277h8v15h12l10 -15h9l-12 17c5 2 10 6 10 14c0 9 -7 15 -17 15h-20v-46z
M366 277h8v17l18 29h-9l-13 -22l-13 22h-9l18 -29v-17zM481 390c20 0 31 11 31 36v137h-16v-137c0 -16 -5 -22 -16 -22c-6 0 -15 3 -20 5v-15c5 -2 14 -4 21 -4zM476 299v17h11c6 0 10 -3 10 -8s-4 -9 -10 -9h-11zM322 402c-9 0 -16 10 -16 25c0 13 7 26 16 35l20 -39
c-5 -13 -12 -21 -20 -21zM327 479c-7 13 -12 22 -12 32c0 11 6 19 14 19s13 -8 13 -19c0 -12 -5 -21 -15 -32zM426 283c-10 0 -16 8 -16 17c0 8 6 17 16 17s16 -9 16 -17c0 -9 -6 -17 -16 -17zM426 276c14 0 24 11 24 24c0 12 -10 24 -24 24s-24 -12 -24 -24
c0 -13 10 -24 24 -24z" />
    <glyph glyph-name="i.dot" horiz-adv-x="160" 
d="M8 0l102 525h42l-102 -525h-42zM130 637l13 70h46l-13 -70h-46z" />
    <glyph glyph-name="fraction" unicode="&#x2044;" horiz-adv-x="60" 
d="M-197 0l214 358l205 343h35l-215 -358l-205 -343h-34z" />
    <glyph glyph-name="zero.num" 
d="M258 596c0 -53 -15 -169 -66 -220c-16 -16 -36 -26 -60 -26c-56 0 -80 45 -80 108c0 53 15 169 66 220c16 16 36 26 60 26c56 0 80 -45 80 -108zM88 456c0 -50 17 -73 45 -73c13 0 24 6 33 15c43 43 56 158 56 200c0 50 -17 73 -45 73c-13 0 -24 -6 -33 -15
c-43 -43 -56 -158 -56 -200z" />
    <glyph glyph-name="one.num" horiz-adv-x="195" 
d="M90 354l59 302l-74 -37l7 38l78 43h32l-67 -346h-35z" />
    <glyph glyph-name="one.num_alt" 
d="M36 354l6 32h78l53 273l-86 -40l8 40l89 44h32l-61 -317h69l-6 -32h-182z" />
    <glyph glyph-name="two.num" 
d="M27 354l5 22l133 146c41 45 53 72 53 97c0 34 -24 50 -52 50c-33 0 -59 -19 -82 -39l5 42c18 16 45 30 80 30c47 0 85 -31 85 -81c0 -35 -12 -63 -62 -118l-107 -115h135l-7 -34h-186z" />
    <glyph glyph-name="three.num" 
d="M123 350c-34 0 -63 12 -87 32l8 39c17 -20 48 -38 79 -38c45 0 70 34 70 73c0 44 -34 65 -91 67h-1l4 23l115 121h-128l7 34h175l-5 -27l-122 -126c54 -12 82 -45 82 -91c0 -61 -44 -107 -106 -107z" />
    <glyph glyph-name="four.num" 
d="M156 354l14 72h-135l5 25l170 251h45l-47 -246h35l-6 -30h-35l-14 -72h-32zM80 456h96l36 190h-6z" />
    <glyph glyph-name="five.num" 
d="M121 350c-30 0 -56 10 -81 29l7 39c17 -15 40 -35 75 -35c49 0 73 45 73 92s-27 59 -55 59c-18 0 -32 -5 -44 -10l-24 13l43 163h145l-7 -34h-114l-29 -105c9 3 23 6 37 6c44 0 85 -27 85 -92c0 -57 -34 -125 -111 -125z" />
    <glyph glyph-name="six.num" 
d="M135 350c-42 0 -83 25 -83 102c0 44 18 167 74 223c20 20 42 29 70 29c26 0 48 -10 61 -18l-8 -38c-16 13 -37 22 -56 22c-15 0 -29 -4 -42 -17c-19 -19 -37 -55 -48 -98c15 10 35 19 58 19c40 0 79 -25 79 -86c0 -72 -42 -138 -105 -138zM136 383c42 0 68 50 68 103
c0 41 -24 55 -51 55c-17 0 -40 -7 -57 -21l-2 -10c-4 -20 -7 -43 -7 -60c0 -49 24 -67 49 -67z" />
    <glyph glyph-name="seven.num" 
d="M53 354l179 312h-141l6 34h179l-6 -29l-180 -317h-37z" />
    <glyph glyph-name="eight.num" 
d="M132 350c-54 0 -89 35 -89 86c0 48 28 88 72 102c-19 15 -32 38 -32 67c0 61 43 99 92 99c48 0 82 -33 82 -83c0 -43 -26 -79 -62 -93c27 -18 38 -45 38 -74c0 -55 -40 -104 -101 -104zM134 382c37 0 65 30 65 74c0 30 -16 60 -56 60c-37 0 -66 -34 -66 -76
c0 -31 18 -58 57 -58zM165 548c32 0 58 31 58 71c0 30 -17 53 -49 53c-33 0 -57 -30 -57 -68c0 -32 18 -56 48 -56z" />
    <glyph glyph-name="nine.num" 
d="M114 350c-26 0 -49 9 -68 20l8 38c22 -16 44 -24 63 -24c15 0 29 4 42 17c19 19 37 54 47 93c-15 -10 -35 -19 -60 -19c-38 0 -76 25 -76 89c0 74 42 140 105 140c42 0 83 -25 83 -102c0 -44 -18 -167 -74 -223c-20 -20 -42 -29 -70 -29zM156 508c17 0 40 7 57 21l3 15
c4 20 7 43 7 60c0 49 -24 67 -49 67c-42 0 -68 -50 -68 -105c0 -44 23 -58 50 -58z" />
    <glyph glyph-name="zero.den" 
d="M192 242c0 -53 -15 -169 -66 -220c-16 -16 -36 -26 -60 -26c-56 0 -80 45 -80 108c0 53 15 169 66 220c16 16 36 26 60 26c56 0 80 -45 80 -108zM22 102c0 -50 17 -73 45 -73c13 0 24 6 33 15c43 43 56 158 56 200c0 50 -17 73 -45 73c-13 0 -24 -6 -33 -15
c-43 -43 -56 -158 -56 -200z" />
    <glyph glyph-name="one.den" horiz-adv-x="195" 
d="M22 0l59 302l-74 -37l7 38l78 43h32l-67 -346h-35z" />
    <glyph glyph-name="one.den_alt" 
d="M-32 0l6 32h78l53 273l-86 -40l8 40l89 44h32l-61 -317h69l-6 -32h-182z" />
    <glyph glyph-name="two.den" 
d="M-41 0l5 22l133 146c41 45 53 72 53 97c0 34 -24 50 -52 50c-33 0 -59 -19 -82 -39l5 42c18 16 45 30 80 30c47 0 85 -31 85 -81c0 -35 -12 -63 -62 -118l-107 -115h135l-7 -34h-186z" />
    <glyph glyph-name="three.den" 
d="M55 -4c-34 0 -63 12 -87 32l8 39c17 -20 48 -38 79 -38c45 0 70 34 70 73c0 44 -34 65 -91 67h-1l4 23l115 121h-128l7 34h175l-5 -27l-122 -126c54 -12 82 -45 82 -91c0 -61 -44 -107 -106 -107z" />
    <glyph glyph-name="four.den" 
d="M88 0l14 72h-135l5 25l170 251h45l-47 -246h35l-6 -30h-35l-14 -72h-32zM12 102h96l36 190h-6z" />
    <glyph glyph-name="five.den" 
d="M53 -4c-30 0 -56 10 -81 29l7 39c17 -15 40 -35 75 -35c49 0 73 45 73 92s-27 59 -55 59c-18 0 -32 -5 -44 -10l-24 13l43 163h145l-7 -34h-114l-29 -105c9 3 23 6 37 6c44 0 85 -27 85 -92c0 -57 -34 -125 -111 -125z" />
    <glyph glyph-name="six.den" 
d="M67 -4c-42 0 -83 25 -83 102c0 44 18 167 74 223c20 20 42 29 70 29c26 0 48 -10 61 -18l-8 -38c-16 13 -37 22 -56 22c-15 0 -29 -4 -42 -17c-19 -19 -37 -55 -48 -98c15 10 35 19 58 19c40 0 79 -25 79 -86c0 -72 -42 -138 -105 -138zM68 29c42 0 68 50 68 103
c0 41 -24 55 -51 55c-17 0 -40 -7 -57 -21l-2 -10c-4 -20 -7 -43 -7 -60c0 -49 24 -67 49 -67z" />
    <glyph glyph-name="seven.den" 
d="M-15 0l179 312h-141l6 34h179l-6 -29l-180 -317h-37z" />
    <glyph glyph-name="eight.den" 
d="M64 -4c-54 0 -89 35 -89 86c0 48 28 88 72 102c-19 15 -32 38 -32 67c0 61 43 99 92 99c48 0 82 -33 82 -83c0 -43 -26 -79 -62 -93c27 -18 38 -45 38 -74c0 -55 -40 -104 -101 -104zM66 28c37 0 65 30 65 74c0 30 -16 60 -56 60c-37 0 -66 -34 -66 -76
c0 -31 18 -58 57 -58zM97 194c32 0 58 31 58 71c0 30 -17 53 -49 53c-33 0 -57 -30 -57 -68c0 -32 18 -56 48 -56z" />
    <glyph glyph-name="nine.den" 
d="M46 -4c-26 0 -49 9 -68 20l8 38c22 -16 44 -24 63 -24c15 0 29 4 42 17c19 19 37 54 47 93c-15 -10 -35 -19 -60 -19c-38 0 -76 25 -76 89c0 74 42 140 105 140c42 0 83 -25 83 -102c0 -44 -18 -167 -74 -223c-20 -20 -42 -29 -70 -29zM88 154c17 0 40 7 57 21l3 15
c4 20 7 43 7 60c0 49 -24 67 -49 67c-42 0 -68 -50 -68 -105c0 -44 23 -58 50 -58z" />
    <glyph glyph-name="acute" unicode="&#xb4;" horiz-adv-x="500" 
d="M251 576l89 125l44 -26l-101 -99h-32z" />
    <glyph glyph-name="hungarumlaut" unicode="&#x2dd;" horiz-adv-x="500" 
d="M204 576l89 125l40 -24l-98 -101h-31zM298 576l89 125l40 -24l-98 -101h-31z" />
    <glyph glyph-name="caron.alt" horiz-adv-x="500" 
d="M255 559l36 148h38v-2l-54 -146h-20z" />
    <glyph glyph-name="grave" unicode="`" horiz-adv-x="500" 
d="M339 576l-81 100l43 25l67 -125h-29z" />
    <glyph glyph-name="circumflex" unicode="&#x2c6;" horiz-adv-x="500" 
d="M227 581l90 122h34l44 -122h-35l-34 75l-62 -75h-37z" />
    <glyph glyph-name="caron" unicode="&#x2c7;" horiz-adv-x="500" 
d="M294 581l-44 122h35l34 -75l62 75h37l-90 -122h-34z" />
    <glyph glyph-name="breve" unicode="&#x2d8;" horiz-adv-x="500" 
d="M317 579c-50 0 -87 29 -80 94h36c-1 -38 18 -55 46 -55c32 0 53 17 68 55h36c-19 -65 -57 -94 -106 -94z" />
    <glyph glyph-name="tilde" unicode="&#x2dc;" horiz-adv-x="500" 
d="M392 662l29 -9c-18 -50 -37 -75 -65 -75c-18 0 -30 9 -44 25c-16 18 -22 24 -31 24c-12 0 -24 -17 -35 -46l-29 9c18 50 37 75 65 75c18 0 30 -9 44 -25c16 -18 22 -24 31 -24c12 0 24 17 35 46z" />
    <glyph glyph-name="macron" unicode="&#xaf;" horiz-adv-x="500" 
d="M222 588l8 39h180l-8 -39h-180z" />
    <glyph glyph-name="dieresis" unicode="&#xa8;" horiz-adv-x="500" 
d="M239 586l13 67h46l-13 -67h-46zM339 586l13 67h46l-13 -67h-46z" />
    <glyph glyph-name="dotaccent" unicode="&#x2d9;" horiz-adv-x="500" 
d="M287 586l13 67h50l-13 -67h-50z" />
    <glyph glyph-name="ring" unicode="&#x2da;" horiz-adv-x="500" 
d="M404 663c0 -46 -36 -86 -86 -86c-42 0 -72 31 -72 72c0 46 36 86 86 86c42 0 72 -31 72 -72zM275 651c0 -26 16 -48 45 -48c33 0 55 27 55 58c0 26 -16 48 -45 48c-33 0 -55 -27 -55 -58z" />
    <glyph glyph-name="acute.cap" horiz-adv-x="500" 
d="M280 740l83 104l45 -23l-94 -81h-34z" />
    <glyph glyph-name="hungarumlaut.cap" horiz-adv-x="500" 
d="M325 740l83 104l43 -22l-93 -82h-33zM415 740l83 104l43 -22l-93 -82h-33z" />
    <glyph glyph-name="grave.cap" horiz-adv-x="500" 
d="M371 740l-81 82l44 22l69 -104h-32z" />
    <glyph glyph-name="circumflex.cap" horiz-adv-x="500" 
d="M251 745l91 97h40l53 -97h-40l-40 58l-62 -58h-42z" />
    <glyph glyph-name="caron.cap" horiz-adv-x="500" 
d="M454 842l-91 -97h-40l-53 97h40l40 -58l62 58h42z" />
    <glyph glyph-name="breve.cap" horiz-adv-x="500" 
d="M348 743c-50 0 -88 26 -85 79h37c3 -27 20 -39 51 -39s50 12 63 39h37c-17 -53 -53 -79 -103 -79z" />
    <glyph glyph-name="tilde.cap" horiz-adv-x="500" 
d="M273 746l-31 10c19 39 38 63 67 63c19 0 30 -8 48 -21c17 -13 24 -18 33 -18c14 0 23 13 35 35l31 -10c-19 -39 -38 -63 -67 -63c-19 0 -30 8 -48 21c-17 13 -24 18 -33 18c-14 0 -23 -13 -35 -35z" />
    <glyph glyph-name="macron.cap" horiz-adv-x="500" 
d="M248 752l8 41h192l-8 -41h-192z" />
    <glyph glyph-name="dieresis.cap" horiz-adv-x="500" 
d="M267 750l12 63h50l-12 -63h-50zM371 750l12 63h50l-12 -63h-50z" />
    <glyph glyph-name="dotaccent.cap" horiz-adv-x="500" 
d="M318 750l12 63h52l-12 -63h-52z" />
    <glyph glyph-name="ring.cap" horiz-adv-x="500" 
d="M361 889c45 0 74 -31 74 -69c0 -44 -36 -79 -84 -79c-45 0 -74 31 -74 69c0 44 36 79 84 79zM352 768c34 0 52 25 52 50c0 24 -16 44 -44 44c-34 0 -52 -25 -52 -50c0 -24 16 -44 44 -44z" />
    <glyph glyph-name="commaaccent" unicode="&#x326;" horiz-adv-x="500" 
d="M145 -185l-8 19c27 15 36 23 39 51h-21l11 58h50l-12 -58c-9 -42 -21 -54 -59 -70z" />
    <glyph glyph-name="cedilla" unicode="&#xb8;" horiz-adv-x="500" 
d="M163 -110l-44 20l78 100h33z" />
    <glyph glyph-name="ogonek" unicode="&#x2db;" horiz-adv-x="500" 
d="M222 -87l-6 -32h-1c-53 0 -72 20 -72 46c0 23 17 45 58 77h29c-33 -35 -47 -50 -47 -66s13 -23 39 -25z" />
    </font>
</defs>
</svg>
