<?xml version="1.0" standalone="no"?>
<!DOCTYPE svg PUBLIC "-//W3C//DTD SVG 1.1//EN" "http://www.w3.org/Graphics/SVG/1.1/DTD/svg11.dtd" >
<svg xmlns="http://www.w3.org/2000/svg" xmlns:xlink="http://www.w3.org/1999/xlink" version="1.1">
<metadata>
Created by FontForge 20170910 at Fri Sep 12 14:34:22 2008
 By Jimmy Wärting
Copyright (C) 2005, 2008 Hoefler &#38; Frere-Jones. http://www.typography.com
</metadata>
<defs>
<font id="GothamCondensed-XBlackItalic" horiz-adv-x="500" >
  <font-face 
    font-family="Gotham Condensed XBlack"
    font-weight="475"
    font-style="italic"
    font-stretch="condensed"
    units-per-em="1000"
    panose-1="0 0 0 0 0 0 0 0 0 0"
    ascent="800"
    descent="-200"
    x-height="544"
    cap-height="700"
    bbox="-109 -223 827 949"
    underline-thickness="50"
    underline-position="-100"
    slope="-11"
    stemh="175"
    stemv="165"
    unicode-range="U+0020-FB04"
  />
<missing-glyph 
d="M0 -200v1000h500v-1000h-500zM50 -76l172 376l-172 376v-752zM71 -150h358l-179 390zM250 360l179 390h-358zM450 -76v752l-172 -376z" />
    <glyph glyph-name="f_f" unicode="ff" horiz-adv-x="525" 
d="M-15 0l81 414h-30l25 130h30l6 30c9 43 24 77 48 101c26 26 61 40 109 40c36 0 72 -8 91 -14l-24 -119c-11 3 -20 4 -31 4c-23 0 -34 -11 -38 -35l-2 -9h64l-25 -128h-61l-81 -414h-162zM246 0l81 414h-30l25 130h30l6 30c9 43 24 77 48 101c26 26 61 40 109 40
c36 0 72 -8 91 -14l-24 -119c-11 3 -20 4 -31 4c-23 0 -34 -11 -38 -35l-2 -9h64l-25 -128h-61l-81 -414h-162z" />
    <glyph glyph-name="fi" unicode="fi" horiz-adv-x="473" 
d="M-15 0l81 414h-30l25 130h30l6 30c9 43 24 77 48 101c26 26 61 40 109 40c36 0 72 -8 91 -14l-24 -119c-11 3 -20 4 -31 4c-23 0 -34 -11 -38 -35l-2 -9h64l-25 -128h-61l-81 -414h-162zM234 0l106 544h162l-105 -544h-163zM345 578l27 135h164l-26 -135h-165z" />
    <glyph glyph-name="fl" unicode="fl" horiz-adv-x="473" 
d="M-15 0l81 414h-30l25 130h30l6 30c9 43 24 77 48 101c26 26 61 40 109 40c36 0 72 -8 91 -14l-24 -119c-11 3 -20 4 -31 4c-23 0 -34 -11 -38 -35l-2 -9h64l-25 -128h-61l-81 -414h-162zM234 0l139 713h162l-138 -713h-163z" />
    <glyph glyph-name="f_f_i" unicode="ffi" horiz-adv-x="734" 
d="M-15 0l81 414h-30l25 130h30l6 30c9 43 24 77 48 101c26 26 61 40 109 40c36 0 72 -8 91 -14l-24 -119c-11 3 -20 4 -31 4c-23 0 -34 -11 -38 -35l-2 -9h64l-25 -128h-61l-81 -414h-162zM246 0l81 414h-30l25 130h30l6 30c9 43 24 77 48 101c26 26 61 40 109 40
c36 0 72 -8 91 -14l-24 -119c-11 3 -20 4 -31 4c-23 0 -34 -11 -38 -35l-2 -9h64l-25 -128h-61l-81 -414h-162zM495 0l106 544h162l-105 -544h-163zM606 578l27 135h164l-26 -135h-165z" />
    <glyph glyph-name="f_f_l" unicode="ffl" horiz-adv-x="734" 
d="M-15 0l81 414h-30l25 130h30l6 30c9 43 24 77 48 101c26 26 61 40 109 40c36 0 72 -8 91 -14l-24 -119c-11 3 -20 4 -31 4c-23 0 -34 -11 -38 -35l-2 -9h64l-25 -128h-61l-81 -414h-162zM246 0l81 414h-30l25 130h30l6 30c9 43 24 77 48 101c26 26 61 40 109 40
c36 0 72 -8 91 -14l-24 -119c-11 3 -20 4 -31 4c-23 0 -34 -11 -38 -35l-2 -9h64l-25 -128h-61l-81 -414h-162zM495 0l139 713h162l-138 -713h-163z" />
    <glyph glyph-name=".notdef" 
d="M0 -200v1000h500v-1000h-500zM50 -76l172 376l-172 376v-752zM71 -150h358l-179 390zM250 360l179 390h-358zM450 -76v752l-172 -376z" />
    <glyph glyph-name="A" unicode="A" horiz-adv-x="451" 
d="M-59 0l269 701h197l-3 -701h-164l6 118h-101l-40 -118h-164zM191 256h62l11 214z" />
    <glyph glyph-name="B" unicode="B" horiz-adv-x="436" 
d="M-30 0l136 700h137c144 0 223 -66 223 -163c0 -99 -54 -157 -121 -188c43 -27 72 -67 72 -128c0 -135 -97 -221 -282 -221h-165zM160 153h15c50 0 79 30 79 80c0 34 -24 53 -57 53h-10zM212 417h11c52 0 77 37 77 79c0 33 -20 51 -58 51h-5z" />
    <glyph glyph-name="C" unicode="C" horiz-adv-x="378" 
d="M218 -9c-127 0 -202 83 -202 241c0 128 44 315 138 410c46 46 100 67 162 67c55 0 92 -12 123 -30l-33 -163c-28 21 -54 33 -82 33c-22 0 -39 -7 -57 -24c-51 -52 -82 -212 -82 -280c0 -70 27 -97 79 -97c24 0 45 5 78 19l-31 -155c-29 -14 -57 -21 -93 -21z" />
    <glyph glyph-name="D" unicode="D" horiz-adv-x="463" 
d="M-30 0l136 700h105c88 0 158 -20 204 -66c38 -38 60 -97 60 -177c0 -96 -34 -287 -123 -376c-54 -54 -125 -81 -230 -81h-152zM287 530c-11 12 -27 16 -45 16l-76 -392h1c29 0 47 9 64 25c49 49 76 217 76 277c0 31 -5 59 -20 74z" />
    <glyph glyph-name="E" unicode="E" horiz-adv-x="365" 
d="M-30 0l136 700h324l-30 -158h-158l-22 -113h141l-31 -154h-141l-22 -117h161l-31 -158h-327z" />
    <glyph glyph-name="F" unicode="F" horiz-adv-x="348" 
d="M-30 0l136 700h312l-31 -158h-145l-23 -115h129l-30 -154h-129l-53 -273h-166z" />
    <glyph glyph-name="G" unicode="G" horiz-adv-x="446" 
d="M229 -12c-136 0 -213 89 -213 240c0 111 40 307 139 407c52 51 112 76 181 76s112 -19 143 -40l-33 -163c-31 24 -69 43 -109 43c-27 0 -49 -9 -67 -27c-62 -62 -85 -242 -85 -300c0 -55 17 -85 50 -85c5 0 10 1 14 2l25 130h-49l29 147h199l-77 -396
c-47 -21 -94 -34 -147 -34z" />
    <glyph glyph-name="H" unicode="H" horiz-adv-x="459" 
d="M-30 0l136 700h166l-52 -268h81l52 268h167l-136 -700h-167l53 272h-81l-53 -272h-166z" />
    <glyph glyph-name="I" unicode="I" horiz-adv-x="216" 
d="M-28 0l136 700h166l-136 -700h-166z" />
    <glyph glyph-name="J" unicode="J" horiz-adv-x="321" 
d="M75 -8c-47 0 -87 8 -114 18l31 156c20 -10 43 -15 68 -15c16 0 29 3 41 14c9 10 16 27 21 51l94 484h167l-98 -505c-13 -67 -35 -117 -70 -152c-34 -35 -81 -51 -140 -51z" />
    <glyph glyph-name="K" unicode="K" horiz-adv-x="441" 
d="M-30 0l136 700h166l-46 -242l120 242h175l-169 -312l33 -388h-173l-8 237l-33 -62l-35 -175h-166z" />
    <glyph glyph-name="L" unicode="L" horiz-adv-x="335" 
d="M-30 0l136 700h166l-105 -542h137l-31 -158h-303z" />
    <glyph glyph-name="M" unicode="M" horiz-adv-x="526" 
d="M-30 0l136 700h155l41 -215l123 215h162l-136 -700h-161l67 345l-119 -206h-2l-39 206l-66 -345h-161z" />
    <glyph glyph-name="N" unicode="N" horiz-adv-x="467" 
d="M-30 0l136 700h161l43 -294l58 294h160l-136 -700h-155l-47 311l-60 -311h-160z" />
    <glyph glyph-name="O" unicode="O" horiz-adv-x="466" 
d="M299 714c113 0 184 -76 184 -217c0 -115 -42 -352 -140 -450c-41 -41 -88 -61 -146 -61c-112 0 -183 76 -183 217c0 115 41 352 139 450c41 41 88 61 146 61zM209 138c11 0 18 5 24 11c40 40 86 297 86 365c0 33 -10 48 -31 48c-11 0 -18 -5 -25 -11
c-39 -40 -86 -297 -86 -365c0 -33 11 -48 32 -48z" />
    <glyph glyph-name="P" unicode="P" horiz-adv-x="423" 
d="M-30 0l136 700h130c75 0 133 -20 171 -57c33 -32 51 -77 51 -135c0 -79 -25 -176 -86 -233c-51 -48 -116 -70 -194 -70h-3l-40 -205h-165zM278 542c-8 8 -18 12 -32 12h-4l-39 -203h4c18 0 34 4 48 18c28 29 38 94 38 125c0 22 -5 38 -15 48z" />
    <glyph glyph-name="Q" unicode="Q" horiz-adv-x="469" 
d="M300 714c112 0 183 -78 183 -218c0 -90 -27 -254 -87 -367l39 -96l-124 -50l-13 34c-30 -18 -63 -29 -101 -29c-112 0 -183 76 -183 216c0 114 42 351 140 449c41 41 88 61 146 61zM210 135c13 0 21 5 29 13l-32 83l73 29c23 93 40 213 40 254c0 33 -11 48 -33 48
c-10 0 -17 -5 -24 -11c-39 -40 -87 -301 -87 -368c0 -35 12 -48 34 -48z" />
    <glyph glyph-name="Q.alt" horiz-adv-x="469" 
d="M300 714c112 0 183 -78 183 -218c0 -90 -27 -254 -87 -367l39 -96l-124 -50l-13 34c-30 -18 -63 -29 -101 -29c-112 0 -183 76 -183 216c0 114 42 351 140 449c41 41 88 61 146 61zM210 135c13 0 21 5 29 13l-32 83l73 29c23 93 40 213 40 254c0 33 -11 48 -33 48
c-10 0 -17 -5 -24 -11c-39 -40 -87 -301 -87 -368c0 -35 12 -48 34 -48z" />
    <glyph glyph-name="R" unicode="R" horiz-adv-x="437" 
d="M210 0l-26 218h-3h-4l-42 -218h-165l136 700h120c92 0 156 -19 194 -58c32 -32 48 -75 48 -133c0 -80 -24 -149 -72 -198c-15 -15 -34 -28 -54 -39l42 -272h-174zM203 354h4c22 0 37 5 52 19c26 27 37 87 37 122c0 19 -5 37 -15 46c-8 9 -19 13 -34 13h-5z" />
    <glyph glyph-name="S" unicode="S" horiz-adv-x="379" 
d="M138 -10c-67 0 -120 22 -163 51l32 164c48 -34 88 -57 130 -57c32 0 53 21 53 50c0 23 -14 44 -42 78c-56 65 -96 121 -96 200c0 70 24 133 68 176c39 39 89 58 150 58c62 0 111 -18 150 -41l-32 -163c-36 25 -75 46 -115 46c-33 0 -52 -21 -52 -49c0 -24 12 -44 40 -77
c58 -68 98 -124 98 -201c0 -70 -22 -131 -69 -177c-36 -37 -86 -58 -152 -58z" />
    <glyph glyph-name="T" unicode="T" horiz-adv-x="375" 
d="M51 0l106 541h-96l32 159h358l-32 -159h-96l-105 -541h-167z" />
    <glyph glyph-name="U" unicode="U" horiz-adv-x="450" 
d="M187 -11c-116 0 -183 63 -183 158c0 35 4 60 9 87l91 466h166l-94 -481c-2 -13 -6 -30 -6 -44c0 -21 12 -33 32 -33c11 0 19 3 26 11c10 10 15 23 20 45l98 502h166l-95 -495c-15 -74 -38 -121 -73 -157c-37 -36 -90 -59 -157 -59z" />
    <glyph glyph-name="V" unicode="V" horiz-adv-x="436" 
d="M75 -1l2 701h168l-23 -397l134 397h169l-271 -701h-179z" />
    <glyph glyph-name="W" unicode="W" horiz-adv-x="653" 
d="M54 -1l26 701h172l-36 -387l124 387h138l-27 -387l114 387h174l-246 -701h-173l15 314l-107 -314h-174z" />
    <glyph glyph-name="X" unicode="X" horiz-adv-x="420" 
d="M-54 0l179 366l-39 334h166l6 -185l76 185h167l-174 -354l42 -346h-167l-7 201l-83 -201h-166z" />
    <glyph glyph-name="Y" unicode="Y" horiz-adv-x="425" 
d="M76 0l49 251l-48 449h166l5 -237l97 237h168l-221 -449l-50 -251h-166z" />
    <glyph glyph-name="Z" unicode="Z" horiz-adv-x="369" 
d="M-39 0l28 142l229 400h-148l31 158h337l-28 -142l-227 -400h151l-30 -158h-343z" />
    <glyph glyph-name="a" unicode="a" horiz-adv-x="392" 
d="M71 -10c-57 0 -89 41 -89 114c0 64 22 154 67 199c24 24 55 36 89 36c35 0 57 -9 83 -24l2 11c3 10 4 22 4 29c0 34 -22 52 -68 52c-34 0 -73 -12 -103 -25l29 151c43 13 78 21 134 21c103 0 174 -48 174 -155c0 -22 -3 -47 -9 -75l-63 -324h-162l8 40
c-27 -31 -55 -50 -96 -50zM151 100c14 0 31 12 37 42l15 81c-9 5 -18 10 -28 10c-7 0 -14 -3 -19 -9c-18 -18 -27 -72 -27 -92c0 -24 9 -32 22 -32z" />
    <glyph glyph-name="a.alt" horiz-adv-x="427" 
d="M91 -12c-62 0 -92 50 -92 132c0 98 37 326 112 401c23 23 48 34 78 34c51 0 77 -29 95 -72l12 61h163l-106 -544h-163l12 61c-34 -44 -67 -73 -111 -73zM188 133c6 0 11 3 16 8c26 25 54 200 54 235c0 22 -7 35 -24 35c-5 0 -11 -3 -16 -8c-25 -25 -54 -200 -54 -235
c0 -22 7 -35 24 -35z" />
    <glyph glyph-name="b" unicode="b" horiz-adv-x="427" 
d="M238 -11c-51 0 -78 29 -95 72l-12 -61h-163l139 713h163l-45 -230c34 44 67 73 110 73c63 0 93 -50 93 -132c0 -98 -37 -326 -112 -401c-23 -23 -48 -34 -78 -34zM192 133c6 0 11 3 17 8c25 25 54 200 54 235c0 22 -7 35 -24 35c-6 0 -11 -3 -17 -8
c-25 -25 -54 -200 -54 -235c0 -22 7 -35 24 -35z" />
    <glyph glyph-name="c" unicode="c" horiz-adv-x="323" 
d="M172 -13c-111 0 -169 74 -169 192c0 89 27 240 105 320c39 40 86 58 139 58c42 0 86 -14 112 -29l-30 -153c-21 17 -43 28 -66 28c-18 0 -31 -6 -43 -18c-39 -38 -52 -131 -52 -178c0 -51 20 -71 56 -71c22 0 40 6 62 15l-29 -150c-27 -10 -49 -14 -85 -14z" />
    <glyph glyph-name="d" unicode="d" horiz-adv-x="427" 
d="M190 0l12 61c-34 -44 -67 -73 -111 -73c-62 0 -92 50 -92 132c0 98 37 326 112 401c23 23 48 34 78 34c51 0 77 -29 95 -72l44 230h163l-138 -713h-163zM188 133c6 0 11 3 16 8c26 25 54 200 54 235c0 22 -7 35 -24 35c-5 0 -11 -3 -16 -8c-25 -25 -54 -200 -54 -235
c0 -22 7 -35 24 -35z" />
    <glyph glyph-name="e" unicode="e" horiz-adv-x="400" 
d="M374 204h-215v-9c0 -49 25 -67 76 -67c36 0 70 9 110 28l-18 -142c-34 -16 -79 -28 -133 -28c-127 0 -190 71 -190 200c0 82 29 235 106 313c38 37 83 59 137 59c94 0 153 -63 153 -184c0 -50 -12 -110 -26 -170zM212 408c-14 -14 -26 -56 -35 -99h68c6 32 9 55 9 71
c0 27 -8 37 -23 37c-6 0 -13 -3 -19 -9z" />
    <glyph glyph-name="f" unicode="f" horiz-adv-x="264" 
d="M-15 0l81 414h-30l25 130h30l6 30c9 43 24 77 48 101c26 26 61 40 109 40c36 0 72 -8 91 -14l-24 -119c-11 3 -20 4 -31 4c-23 0 -34 -11 -38 -35l-2 -9h64l-25 -128h-61l-81 -414h-162z" />
    <glyph glyph-name="g" unicode="g" horiz-adv-x="427" 
d="M144 -134c-70 0 -123 10 -179 28l26 136c43 -15 92 -29 131 -29c26 0 44 5 57 18s21 33 28 63l7 34c-36 -48 -70 -75 -113 -75c-62 0 -92 46 -92 135c0 98 35 279 101 345c22 22 48 34 78 34c52 0 78 -29 96 -72l12 61h163l-93 -475c-13 -66 -35 -116 -68 -149
c-36 -36 -87 -54 -154 -54zM197 182c6 0 11 2 17 7c24 25 45 153 45 189c0 20 -8 33 -24 33c-6 0 -11 -3 -17 -8c-24 -25 -45 -152 -45 -188c0 -21 8 -33 24 -33z" />
    <glyph glyph-name="h" unicode="h" horiz-adv-x="415" 
d="M-32 0l139 713h163l-45 -230c27 37 64 73 115 73c62 0 90 -41 90 -93c0 -19 -2 -33 -6 -50l-80 -413h-163l70 357c3 13 5 22 5 30c0 13 -7 23 -21 23c-15 0 -27 -14 -31 -35l-73 -375h-163z" />
    <glyph glyph-name="i" unicode="i" horiz-adv-x="208" 
d="M-30 0l106 544h162l-105 -544h-163zM81 578l27 135h164l-26 -135h-165z" />
    <glyph glyph-name="j" unicode="j" horiz-adv-x="210" 
d="M-34 -135c-33 0 -52 3 -75 7l20 107c7 -1 15 -2 24 -2c23 0 35 10 41 41l102 526h162l-102 -526c-22 -115 -76 -153 -172 -153zM83 578l27 135h164l-26 -135h-165z" />
    <glyph glyph-name="k" unicode="k" horiz-adv-x="404" 
d="M-32 0l139 713h163l-65 -330l86 161h172l-136 -235l28 -309h-165l-5 189l-25 -41l-29 -148h-163z" />
    <glyph glyph-name="l" unicode="l" horiz-adv-x="208" 
d="M-30 0l139 713h162l-138 -713h-163z" />
    <glyph glyph-name="m" unicode="m" horiz-adv-x="623" 
d="M-32 0l106 544h161l-12 -61c28 37 65 73 120 73c52 0 75 -30 82 -71c32 40 72 71 123 71c62 0 89 -41 89 -93c0 -19 -2 -33 -5 -50l-80 -413h-161l70 357c2 13 4 22 4 30c0 13 -7 23 -20 23c-15 0 -27 -14 -31 -35l-73 -375h-162l70 357c3 13 5 22 5 30
c0 13 -7 23 -20 23c-16 0 -28 -14 -31 -35l-74 -375h-161z" />
    <glyph glyph-name="n" unicode="n" horiz-adv-x="415" 
d="M-32 0l106 544h163l-12 -61c27 37 64 73 115 73c62 0 90 -41 90 -93c0 -19 -2 -33 -6 -50l-80 -413h-163l70 357c3 13 5 22 5 30c0 13 -7 23 -21 23c-15 0 -27 -14 -31 -35l-73 -375h-163z" />
    <glyph glyph-name="o" unicode="o" horiz-adv-x="416" 
d="M248 558c112 0 166 -80 166 -189c0 -89 -31 -249 -106 -324c-38 -38 -84 -59 -140 -59c-111 0 -165 80 -165 189c0 89 30 248 106 324c37 37 83 59 139 59zM182 127c5 0 11 2 17 8c28 28 58 208 58 245c0 27 -8 37 -22 37c-6 0 -11 -3 -17 -8c-28 -29 -59 -208 -59 -246
c0 -26 9 -36 23 -36z" />
    <glyph glyph-name="p" unicode="p" horiz-adv-x="427" 
d="M238 -11c-51 0 -78 29 -95 72l-37 -191h-163l131 674h163l-12 -61c34 44 67 73 110 73c63 0 93 -50 93 -132c0 -98 -37 -326 -112 -401c-23 -23 -48 -34 -78 -34zM192 133c6 0 11 3 17 8c25 25 54 200 54 235c0 22 -7 35 -24 35c-6 0 -11 -3 -17 -8
c-25 -25 -54 -200 -54 -235c0 -22 7 -35 24 -35z" />
    <glyph glyph-name="q" unicode="q" horiz-adv-x="427" 
d="M91 -12c-62 0 -92 50 -92 132c0 98 37 326 112 401c23 23 48 34 78 34c51 0 77 -29 95 -72l12 61h163l-131 -674h-163l37 191c-34 -44 -67 -73 -111 -73zM188 133c6 0 11 3 16 8c26 25 54 200 54 235c0 22 -7 35 -24 35c-5 0 -11 -3 -16 -8c-25 -25 -54 -200 -54 -235
c0 -22 7 -35 24 -35z" />
    <glyph glyph-name="r" unicode="r" horiz-adv-x="275" 
d="M-32 0l106 544h162l-17 -82c29 60 62 92 104 89l-38 -195h-2c-57 0 -89 -35 -104 -110l-48 -246h-163z" />
    <glyph glyph-name="s" unicode="s" horiz-adv-x="322" 
d="M115 -12c-54 0 -112 21 -147 46l29 150c41 -31 82 -53 111 -53c20 0 32 12 32 28c0 15 -8 28 -34 57c-49 53 -76 94 -76 154c0 102 66 185 178 185c51 0 96 -13 134 -33l-30 -151c-35 24 -73 41 -97 41c-22 0 -32 -11 -32 -24c0 -14 8 -25 35 -55c44 -49 77 -92 77 -154
c0 -103 -69 -191 -180 -191z" />
    <glyph glyph-name="t" unicode="t" horiz-adv-x="269" 
d="M122 -9c-66 0 -117 29 -117 94c0 17 2 31 7 53l53 276h-30l26 130h29l25 129h162l-25 -129h61l-25 -130h-61l-46 -234c-2 -8 -5 -25 -5 -33c0 -13 9 -20 24 -20c11 0 20 2 32 6l-25 -129c-25 -8 -50 -13 -85 -13z" />
    <glyph glyph-name="u" unicode="u" horiz-adv-x="415" 
d="M75 -12c-62 0 -90 41 -90 93c0 19 2 33 6 50l80 413h163l-70 -357c-3 -13 -5 -22 -5 -30c0 -13 7 -23 21 -23c15 0 27 14 31 35l73 375h163l-106 -544h-163l12 61c-27 -37 -64 -73 -115 -73z" />
    <glyph glyph-name="v" unicode="v" horiz-adv-x="399" 
d="M63 -2l-15 546h163l-18 -298l97 298h166l-226 -546h-167z" />
    <glyph glyph-name="w" unicode="w" horiz-adv-x="563" 
d="M45 -2l6 546h160l-21 -265l81 265h125l-21 -265l81 265h161l-205 -546h-143l2 235l-81 -235h-145z" />
    <glyph glyph-name="x" unicode="x" horiz-adv-x="402" 
d="M215 544l11 -136l63 136h165l-157 -276l54 -268h-160l-12 147l-67 -147h-166l161 284l-52 260h160z" />
    <glyph glyph-name="y" unicode="y" horiz-adv-x="396" 
d="M64 9l-15 535h161l-15 -289l96 289h163l-288 -674h-162z" />
    <glyph glyph-name="z" unicode="z" horiz-adv-x="334" 
d="M-42 0l24 123l189 285h-132l26 136h312l-23 -122l-190 -286h135l-26 -136h-315z" />
    <glyph glyph-name="Aacute" unicode="&#xc1;" horiz-adv-x="451" 
d="M-59 0l269 701h197l-3 -701h-164l6 118h-101l-40 -118h-164zM191 256h62l11 214zM250 731l85 112l155 -36l-125 -76h-115z" />
    <glyph glyph-name="aacute" unicode="&#xe1;" horiz-adv-x="392" 
d="M71 -10c-57 0 -89 41 -89 114c0 64 22 154 67 199c24 24 55 36 89 36c35 0 57 -9 83 -24l2 11c3 10 4 22 4 29c0 34 -22 52 -68 52c-34 0 -73 -12 -103 -25l29 151c43 13 78 21 134 21c103 0 174 -48 174 -155c0 -22 -3 -47 -9 -75l-63 -324h-162l8 40
c-27 -31 -55 -50 -96 -50zM151 100c14 0 31 12 37 42l15 81c-9 5 -18 10 -28 10c-7 0 -14 -3 -19 -9c-18 -18 -27 -72 -27 -92c0 -24 9 -32 22 -32zM191 577l97 133l135 -40l-135 -93h-97z" />
    <glyph glyph-name="aacute.alt" horiz-adv-x="427" 
d="M228 577l97 133l135 -40l-135 -93h-97zM91 -12c-62 0 -92 50 -92 132c0 98 37 326 112 401c23 23 48 34 78 34c51 0 77 -29 95 -72l12 61h163l-106 -544h-163l12 61c-34 -44 -67 -73 -111 -73zM188 133c6 0 11 3 16 8c26 25 54 200 54 235c0 22 -7 35 -24 35
c-5 0 -11 -3 -16 -8c-25 -25 -54 -200 -54 -235c0 -22 7 -35 24 -35z" />
    <glyph glyph-name="Abreve" unicode="&#x102;" horiz-adv-x="451" 
d="M-59 0l269 701h197l-3 -701h-164l6 118h-101l-40 -118h-164zM191 256h62l11 214zM313 728c-71 0 -117 32 -107 105h85c1 -19 12 -28 34 -28s36 9 45 28h87c-19 -73 -72 -105 -144 -105z" />
    <glyph glyph-name="abreve" unicode="&#x103;" horiz-adv-x="392" 
d="M71 -10c-57 0 -89 41 -89 114c0 64 22 154 67 199c24 24 55 36 89 36c35 0 57 -9 83 -24l2 11c3 10 4 22 4 29c0 34 -22 52 -68 52c-34 0 -73 -12 -103 -25l29 151c43 13 78 21 134 21c103 0 174 -48 174 -155c0 -22 -3 -47 -9 -75l-63 -324h-162l8 40
c-27 -31 -55 -50 -96 -50zM151 100c14 0 31 12 37 42l15 81c-9 5 -18 10 -28 10c-7 0 -14 -3 -19 -9c-18 -18 -27 -72 -27 -92c0 -24 9 -32 22 -32zM251 574c-76 0 -120 37 -112 119h85c1 -26 13 -40 37 -40s41 14 49 40h87c-22 -79 -75 -119 -146 -119z" />
    <glyph glyph-name="abreve.alt" horiz-adv-x="427" 
d="M91 -12c-62 0 -92 50 -92 132c0 98 37 326 112 401c23 23 48 34 78 34c51 0 77 -29 95 -72l12 61h163l-106 -544h-163l12 61c-34 -44 -67 -73 -111 -73zM188 133c6 0 11 3 16 8c26 25 54 200 54 235c0 22 -7 35 -24 35c-5 0 -11 -3 -16 -8c-25 -25 -54 -200 -54 -235
c0 -22 7 -35 24 -35zM289 574c-76 0 -120 37 -112 119h85c1 -26 13 -40 37 -40s41 14 49 40h87c-22 -79 -75 -119 -146 -119z" />
    <glyph glyph-name="Acircumflex" unicode="&#xc2;" horiz-adv-x="451" 
d="M-59 0l269 701h197l-3 -701h-164l6 118h-101l-40 -118h-164zM191 256h62l11 214zM176 731l94 105h124l54 -105h-94l-34 36l-46 -36h-98z" />
    <glyph glyph-name="acircumflex" unicode="&#xe2;" horiz-adv-x="392" 
d="M71 -10c-57 0 -89 41 -89 114c0 64 22 154 67 199c24 24 55 36 89 36c35 0 57 -9 83 -24l2 11c3 10 4 22 4 29c0 34 -22 52 -68 52c-34 0 -73 -12 -103 -25l29 151c43 13 78 21 134 21c103 0 174 -48 174 -155c0 -22 -3 -47 -9 -75l-63 -324h-162l8 40
c-27 -31 -55 -50 -96 -50zM151 100c14 0 31 12 37 42l15 81c-9 5 -18 10 -28 10c-7 0 -14 -3 -19 -9c-18 -18 -27 -72 -27 -92c0 -24 9 -32 22 -32zM112 577l103 122h114l55 -122h-88l-37 44l-55 -44h-92z" />
    <glyph glyph-name="acircumflex.alt" horiz-adv-x="427" 
d="M151 577l103 122h114l55 -122h-88l-37 44l-55 -44h-92zM91 -12c-62 0 -92 50 -92 132c0 98 37 326 112 401c23 23 48 34 78 34c51 0 77 -29 95 -72l12 61h163l-106 -544h-163l12 61c-34 -44 -67 -73 -111 -73zM188 133c6 0 11 3 16 8c26 25 54 200 54 235
c0 22 -7 35 -24 35c-5 0 -11 -3 -16 -8c-25 -25 -54 -200 -54 -235c0 -22 7 -35 24 -35z" />
    <glyph glyph-name="Adieresis" unicode="&#xc4;" horiz-adv-x="451" 
d="M-59 0l269 701h197l-3 -701h-164l6 118h-101l-40 -118h-164zM191 256h62l11 214zM179 731l21 112h122l-21 -112h-122zM330 731l21 112h122l-21 -112h-122z" />
    <glyph glyph-name="adieresis" unicode="&#xe4;" horiz-adv-x="392" 
d="M71 -10c-57 0 -89 41 -89 114c0 64 22 154 67 199c24 24 55 36 89 36c35 0 57 -9 83 -24l2 11c3 10 4 22 4 29c0 34 -22 52 -68 52c-34 0 -73 -12 -103 -25l29 151c43 13 78 21 134 21c103 0 174 -48 174 -155c0 -22 -3 -47 -9 -75l-63 -324h-162l8 40
c-27 -31 -55 -50 -96 -50zM151 100c14 0 31 12 37 42l15 81c-9 5 -18 10 -28 10c-7 0 -14 -3 -19 -9c-18 -18 -27 -72 -27 -92c0 -24 9 -32 22 -32zM118 578l23 120h118l-23 -120h-118zM263 578l22 120h118l-22 -120h-118z" />
    <glyph glyph-name="adieresis.alt" horiz-adv-x="427" 
d="M157 578l23 120h118l-23 -120h-118zM302 578l22 120h118l-22 -120h-118zM91 -12c-62 0 -92 50 -92 132c0 98 37 326 112 401c23 23 48 34 78 34c51 0 77 -29 95 -72l12 61h163l-106 -544h-163l12 61c-34 -44 -67 -73 -111 -73zM188 133c6 0 11 3 16 8
c26 25 54 200 54 235c0 22 -7 35 -24 35c-5 0 -11 -3 -16 -8c-25 -25 -54 -200 -54 -235c0 -22 7 -35 24 -35z" />
    <glyph glyph-name="AE" unicode="&#xc6;" horiz-adv-x="606" 
d="M-63 0l293 700h442l-31 -158h-158l-22 -113h141l-30 -154h-141l-22 -117h161l-31 -158h-328l23 118h-90l-45 -118h-162zM193 256h67l55 285h-11z" />
    <glyph glyph-name="ae" unicode="&#xe6;" horiz-adv-x="593" 
d="M384 -12c-76 0 -128 26 -157 77c-39 -49 -86 -75 -138 -75c-64 0 -107 41 -107 115c0 66 22 153 67 198c24 24 55 36 89 36c35 0 57 -9 83 -24l2 11c3 10 4 22 4 29c0 34 -22 52 -68 52c-34 0 -73 -12 -103 -25l29 151c43 13 78 21 134 21c57 0 99 -16 124 -47
c33 34 71 51 115 51c87 0 135 -63 135 -184c0 -50 -11 -110 -25 -170h-216v-9c0 -49 26 -67 76 -67c36 0 70 9 111 28l-19 -142c-33 -16 -86 -26 -136 -26zM155 106c18 0 37 18 49 40c-2 21 -1 48 3 79c-11 7 -22 11 -32 11c-7 0 -14 -3 -19 -9c-16 -16 -27 -66 -27 -88
c0 -23 10 -33 26 -33zM405 408c-14 -14 -26 -56 -35 -99h68c6 32 9 55 9 71c0 27 -8 37 -23 37c-5 0 -13 -3 -19 -9z" />
    <glyph glyph-name="AEacute" unicode="&#x1fc;" horiz-adv-x="606" 
d="M355 724l85 112l155 -36l-125 -76h-115zM-63 0l293 700h442l-31 -158h-158l-22 -113h141l-30 -154h-141l-22 -117h161l-31 -158h-328l23 118h-90l-45 -118h-162zM193 256h67l55 285h-11z" />
    <glyph glyph-name="aeacute" unicode="&#x1fd;" horiz-adv-x="593" 
d="M384 -12c-76 0 -128 26 -157 77c-39 -49 -86 -75 -138 -75c-64 0 -107 41 -107 115c0 66 22 153 67 198c24 24 55 36 89 36c35 0 57 -9 83 -24l2 11c3 10 4 22 4 29c0 34 -22 52 -68 52c-34 0 -73 -12 -103 -25l29 151c43 13 78 21 134 21c57 0 99 -16 124 -47
c33 34 71 51 115 51c87 0 135 -63 135 -184c0 -50 -11 -110 -25 -170h-216v-9c0 -49 26 -67 76 -67c36 0 70 9 111 28l-19 -142c-33 -16 -86 -26 -136 -26zM286 570l97 133l135 -40l-135 -93h-97zM155 106c18 0 37 18 49 40c-2 21 -1 48 3 79c-11 7 -22 11 -32 11
c-7 0 -14 -3 -19 -9c-16 -16 -27 -66 -27 -88c0 -23 10 -33 26 -33zM405 408c-14 -14 -26 -56 -35 -99h68c6 32 9 55 9 71c0 27 -8 37 -23 37c-5 0 -13 -3 -19 -9z" />
    <glyph glyph-name="Agrave" unicode="&#xc0;" horiz-adv-x="451" 
d="M-59 0l269 701h197l-3 -701h-164l6 118h-101l-40 -118h-164zM191 256h62l11 214zM256 731l-97 76l160 36l47 -112h-110z" />
    <glyph glyph-name="agrave" unicode="&#xe0;" horiz-adv-x="392" 
d="M71 -10c-57 0 -89 41 -89 114c0 64 22 154 67 199c24 24 55 36 89 36c35 0 57 -9 83 -24l2 11c3 10 4 22 4 29c0 34 -22 52 -68 52c-34 0 -73 -12 -103 -25l29 151c43 13 78 21 134 21c103 0 174 -48 174 -155c0 -22 -3 -47 -9 -75l-63 -324h-162l8 40
c-27 -31 -55 -50 -96 -50zM151 100c14 0 31 12 37 42l15 81c-9 5 -18 10 -28 10c-7 0 -14 -3 -19 -9c-18 -18 -27 -72 -27 -92c0 -24 9 -32 22 -32zM204 577l-103 93l143 40l53 -133h-93z" />
    <glyph glyph-name="agrave.alt" horiz-adv-x="427" 
d="M91 -12c-62 0 -92 50 -92 132c0 98 37 326 112 401c23 23 48 34 78 34c51 0 77 -29 95 -72l12 61h163l-106 -544h-163l12 61c-34 -44 -67 -73 -111 -73zM188 133c6 0 11 3 16 8c26 25 54 200 54 235c0 22 -7 35 -24 35c-5 0 -11 -3 -16 -8c-25 -25 -54 -200 -54 -235
c0 -22 7 -35 24 -35zM243 577l-103 93l143 40l53 -133h-93z" />
    <glyph glyph-name="Amacron" unicode="&#x100;" horiz-adv-x="451" 
d="M-59 0l269 701h197l-3 -701h-164l6 118h-101l-40 -118h-164zM191 256h62l11 214zM180 733l20 100h269l-20 -100h-269z" />
    <glyph glyph-name="amacron" unicode="&#x101;" horiz-adv-x="392" 
d="M71 -10c-57 0 -89 41 -89 114c0 64 22 154 67 199c24 24 55 36 89 36c35 0 57 -9 83 -24l2 11c3 10 4 22 4 29c0 34 -22 52 -68 52c-34 0 -73 -12 -103 -25l29 151c43 13 78 21 134 21c103 0 174 -48 174 -155c0 -22 -3 -47 -9 -75l-63 -324h-162l8 40
c-27 -31 -55 -50 -96 -50zM151 100c14 0 31 12 37 42l15 81c-9 5 -18 10 -28 10c-7 0 -14 -3 -19 -9c-18 -18 -27 -72 -27 -92c0 -24 9 -32 22 -32zM120 579l20 98h257l-20 -98h-257z" />
    <glyph glyph-name="amacron.alt" horiz-adv-x="427" 
d="M91 -12c-62 0 -92 50 -92 132c0 98 37 326 112 401c23 23 48 34 78 34c51 0 77 -29 95 -72l12 61h163l-106 -544h-163l12 61c-34 -44 -67 -73 -111 -73zM188 133c6 0 11 3 16 8c26 25 54 200 54 235c0 22 -7 35 -24 35c-5 0 -11 -3 -16 -8c-25 -25 -54 -200 -54 -235
c0 -22 7 -35 24 -35zM160 579l20 98h257l-20 -98h-257z" />
    <glyph glyph-name="Aogonek" unicode="&#x104;" horiz-adv-x="451" 
d="M401 -57l-16 -83c-20 -3 -40 -4 -63 -4c-70 0 -106 18 -106 57c0 29 17 56 55 87h-31l6 118h-101l-40 -118h-164l269 701h197l-3 -701h-25c-18 -19 -23 -28 -23 -37c0 -11 9 -16 45 -20zM191 256h62l11 214z" />
    <glyph glyph-name="aogonek" unicode="&#x105;" horiz-adv-x="392" 
d="M319 -57l-16 -83c-20 -3 -40 -4 -63 -4c-70 0 -106 18 -106 57c0 29 17 56 55 87h-30l8 40c-27 -31 -55 -50 -96 -50c-57 0 -89 41 -89 114c0 64 22 154 67 199c24 24 55 36 89 36c35 0 57 -9 83 -24l2 11c3 10 4 22 4 29c0 34 -22 52 -68 52c-34 0 -73 -12 -103 -25
l29 151c43 13 78 21 134 21c103 0 174 -48 174 -155c0 -22 -3 -47 -9 -75l-63 -324h-24c-18 -19 -23 -28 -23 -37c0 -11 9 -16 45 -20zM151 100c14 0 31 12 37 42l15 81c-9 5 -18 10 -28 10c-7 0 -14 -3 -19 -9c-18 -18 -27 -72 -27 -92c0 -24 9 -32 22 -32z" />
    <glyph glyph-name="aogonek.alt" horiz-adv-x="427" 
d="M351 -57l-16 -83c-20 -3 -40 -4 -63 -4c-70 0 -106 18 -106 57c0 29 17 56 55 87h-31l12 61c-34 -44 -67 -73 -111 -73c-62 0 -92 50 -92 132c0 98 37 326 112 401c23 23 48 34 78 34c51 0 77 -29 95 -72l12 61h163l-106 -544h-24c-18 -19 -23 -28 -23 -37
c0 -11 9 -16 45 -20zM188 133c6 0 11 3 16 8c26 25 54 200 54 235c0 22 -7 35 -24 35c-5 0 -11 -3 -16 -8c-25 -25 -54 -200 -54 -235c0 -22 7 -35 24 -35z" />
    <glyph glyph-name="Aring" unicode="&#xc5;" horiz-adv-x="451" 
d="M-59 0l267 697l12 -1c-7 11 -10 25 -10 39c0 57 46 103 114 103c50 0 94 -34 94 -84c0 -21 -8 -41 -20 -58l9 1l-3 -697h-164l6 118h-101l-40 -118h-164zM309 696c32 0 53 24 53 52c0 25 -18 41 -43 41c-31 0 -52 -24 -52 -51c0 -25 17 -42 42 -42zM191 256h62l11 214z
" />
    <glyph glyph-name="aring" unicode="&#xe5;" horiz-adv-x="392" 
d="M71 -10c-57 0 -89 41 -89 114c0 64 22 154 67 199c24 24 55 36 89 36c35 0 57 -9 83 -24l2 11c3 10 4 22 4 29c0 34 -22 52 -68 52c-34 0 -73 -12 -103 -25l29 151c43 13 78 21 134 21c103 0 174 -48 174 -155c0 -22 -3 -47 -9 -75l-63 -324h-162l8 40
c-27 -31 -55 -50 -96 -50zM151 100c14 0 31 12 37 42l15 81c-9 5 -18 10 -28 10c-7 0 -14 -3 -19 -9c-18 -18 -27 -72 -27 -92c0 -24 9 -32 22 -32zM364 682c0 -53 -40 -109 -109 -109c-46 0 -86 30 -86 84c0 52 40 109 109 109c47 0 86 -31 86 -84zM224 660
c0 -21 13 -38 36 -38c26 0 49 22 49 57c0 20 -12 38 -36 38c-26 0 -49 -23 -49 -57z" />
    <glyph glyph-name="aring.alt" horiz-adv-x="427" 
d="M403 682c0 -53 -40 -109 -109 -109c-46 0 -86 30 -86 84c0 52 40 109 109 109c47 0 86 -31 86 -84zM263 660c0 -21 13 -38 36 -38c26 0 49 22 49 57c0 20 -12 38 -36 38c-26 0 -49 -23 -49 -57zM91 -12c-62 0 -92 50 -92 132c0 98 37 326 112 401c23 23 48 34 78 34
c51 0 77 -29 95 -72l12 61h163l-106 -544h-163l12 61c-34 -44 -67 -73 -111 -73zM188 133c6 0 11 3 16 8c26 25 54 200 54 235c0 22 -7 35 -24 35c-5 0 -11 -3 -16 -8c-25 -25 -54 -200 -54 -235c0 -22 7 -35 24 -35z" />
    <glyph glyph-name="aring.alt2" horiz-adv-x="392" 
d="M159 0l8 40c-27 -31 -55 -50 -96 -50c-57 0 -89 41 -89 114c0 64 22 154 67 199c24 24 55 36 89 36c35 0 57 -9 83 -24l2 11c3 10 4 22 4 29c0 34 -22 52 -68 52c-34 0 -73 -12 -103 -25l29 151c29 9 54 15 85 18c-6 12 -9 25 -9 41c0 52 40 108 109 108
c47 0 86 -31 86 -84c0 -32 -14 -63 -39 -82c48 -24 76 -68 76 -135c0 -22 -3 -47 -9 -75l-63 -324h-162zM252 556c26 0 49 22 49 57c0 20 -12 38 -36 38c-26 0 -49 -23 -49 -57c0 -21 13 -38 36 -38zM152 100c15 0 30 12 36 42l15 81c-9 5 -18 10 -28 10c-7 0 -14 -3 -19 -9
c-18 -18 -27 -77 -27 -94c0 -19 8 -30 23 -30z" />
    <glyph glyph-name="Aringacute" unicode="&#x1fa;" horiz-adv-x="451" 
d="M-59 0l267 697l12 -1c-7 11 -10 25 -10 39c0 57 46 103 114 103c50 0 94 -34 94 -84c0 -21 -8 -41 -20 -58l9 1l-3 -697h-164l6 118h-101l-40 -118h-164zM282 852l73 97l159 -32l-119 -65h-113zM309 696c32 0 53 24 53 52c0 25 -18 41 -43 41c-31 0 -52 -24 -52 -51
c0 -25 17 -42 42 -42zM191 256h62l11 214z" />
    <glyph glyph-name="aringacute" unicode="&#x1fb;" horiz-adv-x="392" 
d="M232 784l90 106l140 -31l-129 -75h-101zM71 -10c-57 0 -89 41 -89 114c0 64 22 154 67 199c24 24 55 36 89 36c35 0 57 -9 83 -24l2 11c3 10 4 22 4 29c0 34 -22 52 -68 52c-34 0 -73 -12 -103 -25l29 151c43 13 78 21 134 21c103 0 174 -48 174 -155
c0 -22 -3 -47 -9 -75l-63 -324h-162l8 40c-27 -31 -55 -50 -96 -50zM151 100c14 0 31 12 37 42l15 81c-9 5 -18 10 -28 10c-7 0 -14 -3 -19 -9c-18 -18 -27 -72 -27 -92c0 -24 9 -32 22 -32zM364 682c0 -53 -40 -109 -109 -109c-46 0 -86 30 -86 84c0 52 40 109 109 109
c47 0 86 -31 86 -84zM224 660c0 -21 13 -38 36 -38c26 0 49 22 49 57c0 20 -12 38 -36 38c-26 0 -49 -23 -49 -57z" />
    <glyph glyph-name="aringacute.alt" horiz-adv-x="427" 
d="M271 784l90 106l141 -31l-130 -75h-101zM403 682c0 -53 -40 -109 -109 -109c-46 0 -86 30 -86 84c0 52 40 109 109 109c47 0 86 -31 86 -84zM263 660c0 -21 13 -38 36 -38c26 0 49 22 49 57c0 20 -12 38 -36 38c-26 0 -49 -23 -49 -57zM91 -12c-62 0 -92 50 -92 132
c0 98 37 326 112 401c23 23 48 34 78 34c51 0 77 -29 95 -72l12 61h163l-106 -544h-163l12 61c-34 -44 -67 -73 -111 -73zM188 133c6 0 11 3 16 8c26 25 54 200 54 235c0 22 -7 35 -24 35c-5 0 -11 -3 -16 -8c-25 -25 -54 -200 -54 -235c0 -22 7 -35 24 -35z" />
    <glyph glyph-name="aringacute.alt2" horiz-adv-x="392" 
d="M224 718l90 105l141 -31l-130 -74h-101zM159 0l8 40c-27 -31 -55 -50 -96 -50c-57 0 -89 41 -89 114c0 64 22 154 67 199c24 24 55 36 89 36c35 0 57 -9 83 -24l2 11c3 10 4 22 4 29c0 34 -22 52 -68 52c-34 0 -73 -12 -103 -25l29 151c29 9 54 15 85 18
c-6 12 -9 25 -9 41c0 52 40 108 109 108c47 0 86 -31 86 -84c0 -32 -14 -63 -39 -82c48 -24 76 -68 76 -135c0 -22 -3 -47 -9 -75l-63 -324h-162zM252 556c26 0 49 22 49 57c0 20 -12 38 -36 38c-26 0 -49 -23 -49 -57c0 -21 13 -38 36 -38zM152 100c15 0 30 12 36 42l15 81
c-9 5 -18 10 -28 10c-7 0 -14 -3 -19 -9c-18 -18 -27 -77 -27 -94c0 -19 8 -30 23 -30z" />
    <glyph glyph-name="Atilde" unicode="&#xc3;" horiz-adv-x="451" 
d="M-59 0l269 701h197l-3 -701h-164l6 118h-101l-40 -118h-164zM191 256h62l11 214zM240 724l-72 13c21 80 54 120 97 120c19 0 35 -5 62 -16c29 -11 38 -15 51 -15c16 0 25 10 35 35l72 -13c-21 -80 -54 -121 -97 -121c-19 0 -34 6 -61 16c-30 11 -39 15 -52 15
c-16 0 -25 -9 -35 -34z" />
    <glyph glyph-name="atilde" unicode="&#xe3;" horiz-adv-x="392" 
d="M71 -10c-57 0 -89 41 -89 114c0 64 22 154 67 199c24 24 55 36 89 36c35 0 57 -9 83 -24l2 11c3 10 4 22 4 29c0 34 -22 52 -68 52c-34 0 -73 -12 -103 -25l29 151c43 13 78 21 134 21c103 0 174 -48 174 -155c0 -22 -3 -47 -9 -75l-63 -324h-162l8 40
c-27 -31 -55 -50 -96 -50zM151 100c14 0 31 12 37 42l15 81c-9 5 -18 10 -28 10c-7 0 -14 -3 -19 -9c-18 -18 -27 -72 -27 -92c0 -24 9 -32 22 -32zM347 706l72 -13c-19 -78 -56 -119 -97 -119c-21 0 -37 7 -61 16c-28 10 -38 15 -51 15c-16 0 -25 -10 -35 -34l-72 12
c20 81 56 120 97 120c21 0 38 -7 61 -16c28 -10 38 -15 51 -15c16 0 25 10 35 34z" />
    <glyph glyph-name="atilde.alt" horiz-adv-x="427" 
d="M91 -12c-62 0 -92 50 -92 132c0 98 37 326 112 401c23 23 48 34 78 34c51 0 77 -29 95 -72l12 61h163l-106 -544h-163l12 61c-34 -44 -67 -73 -111 -73zM188 133c6 0 11 3 16 8c26 25 54 200 54 235c0 22 -7 35 -24 35c-5 0 -11 -3 -16 -8c-25 -25 -54 -200 -54 -235
c0 -22 7 -35 24 -35zM385 706l72 -13c-19 -78 -56 -119 -97 -119c-21 0 -37 7 -61 16c-28 10 -38 15 -51 15c-16 0 -25 -10 -35 -34l-72 12c20 81 56 120 97 120c21 0 38 -7 61 -16c28 -10 38 -15 51 -15c16 0 25 10 35 34z" />
    <glyph glyph-name="Cacute" unicode="&#x106;" horiz-adv-x="378" 
d="M218 -9c-127 0 -202 83 -202 241c0 128 44 315 138 410c46 46 100 67 162 67c55 0 92 -12 123 -30l-33 -163c-28 21 -54 33 -82 33c-22 0 -39 -7 -57 -24c-51 -52 -82 -212 -82 -280c0 -70 27 -97 79 -97c24 0 45 5 78 19l-31 -155c-29 -14 -57 -21 -93 -21zM252 731
l85 112l155 -36l-125 -76h-115z" />
    <glyph glyph-name="cacute" unicode="&#x107;" horiz-adv-x="323" 
d="M190 577l97 133l135 -40l-135 -93h-97zM172 -13c-111 0 -169 74 -169 192c0 89 27 240 105 320c39 40 86 58 139 58c42 0 86 -14 112 -29l-30 -153c-21 17 -43 28 -66 28c-18 0 -31 -6 -43 -18c-39 -38 -52 -131 -52 -178c0 -51 20 -71 56 -71c22 0 40 6 62 15l-29 -150
c-27 -10 -49 -14 -85 -14z" />
    <glyph glyph-name="Ccaron" unicode="&#x10c;" horiz-adv-x="378" 
d="M218 -9c-127 0 -202 83 -202 241c0 128 44 315 138 410c46 46 100 67 162 67c55 0 92 -12 123 -30l-33 -163c-28 21 -54 33 -82 33c-22 0 -39 -7 -57 -24c-51 -52 -82 -212 -82 -280c0 -70 27 -97 79 -97c24 0 45 5 78 19l-31 -155c-29 -14 -57 -21 -93 -21zM473 836
l-94 -105h-124l-54 105h94l34 -36l46 36h98z" />
    <glyph glyph-name="ccaron" unicode="&#x10d;" horiz-adv-x="323" 
d="M190 577l-55 122h88l37 -44l55 44h92l-103 -122h-114zM172 -13c-111 0 -169 74 -169 192c0 89 27 240 105 320c39 40 86 58 139 58c42 0 86 -14 112 -29l-30 -153c-21 17 -43 28 -66 28c-18 0 -31 -6 -43 -18c-39 -38 -52 -131 -52 -178c0 -51 20 -71 56 -71
c22 0 40 6 62 15l-29 -150c-27 -10 -49 -14 -85 -14z" />
    <glyph glyph-name="Ccedilla" unicode="&#xc7;" horiz-adv-x="378" 
d="M162 -131l-145 33l102 110c-66 34 -103 109 -103 220c0 128 44 315 138 410c46 46 100 67 162 67c55 0 92 -12 123 -30l-33 -163c-28 21 -54 33 -82 33c-22 0 -39 -7 -57 -24c-51 -52 -82 -212 -82 -280c0 -70 27 -97 79 -97c24 0 45 5 78 19l-31 -155
c-29 -14 -57 -21 -93 -21h-1z" />
    <glyph glyph-name="ccedilla" unicode="&#xe7;" horiz-adv-x="323" 
d="M133 -131l-145 33l97 105c-54 29 -82 90 -82 172c0 89 27 240 105 320c39 40 86 58 139 58c42 0 86 -14 112 -29l-30 -153c-21 17 -43 28 -66 28c-18 0 -31 -6 -43 -18c-39 -38 -52 -131 -52 -178c0 -51 20 -71 56 -71c22 0 40 6 62 15l-29 -150c-23 -8 -43 -13 -70 -14z
" />
    <glyph glyph-name="Cdotaccent" unicode="&#x10a;" horiz-adv-x="378" 
d="M253 731l21 112h129l-21 -112h-129zM218 -9c-127 0 -202 83 -202 241c0 128 44 315 138 410c46 46 100 67 162 67c55 0 92 -12 123 -30l-33 -163c-28 21 -54 33 -82 33c-22 0 -39 -7 -57 -24c-51 -52 -82 -212 -82 -280c0 -70 27 -97 79 -97c24 0 45 5 78 19l-31 -155
c-29 -14 -57 -21 -93 -21z" />
    <glyph glyph-name="cdotaccent" unicode="&#x10b;" horiz-adv-x="323" 
d="M172 -13c-111 0 -169 74 -169 192c0 89 27 240 105 320c39 40 86 58 139 58c42 0 86 -14 112 -29l-30 -153c-21 17 -43 28 -66 28c-18 0 -31 -6 -43 -18c-39 -38 -52 -131 -52 -178c0 -51 20 -71 56 -71c22 0 40 6 62 15l-29 -150c-27 -10 -49 -14 -85 -14zM186 578
l22 120h128l-23 -120h-127z" />
    <glyph glyph-name="Dcaron" unicode="&#x10e;" horiz-adv-x="463" 
d="M-30 0l136 700h105c88 0 158 -20 204 -66c38 -38 60 -97 60 -177c0 -96 -34 -287 -123 -376c-54 -54 -125 -81 -230 -81h-152zM287 530c-11 12 -27 16 -45 16l-76 -392h1c29 0 47 9 64 25c49 49 76 217 76 277c0 31 -5 59 -20 74zM452 829l-94 -105h-124l-54 105h94
l34 -36l46 36h98z" />
    <glyph glyph-name="dcaron" unicode="&#x10f;" horiz-adv-x="427" 
d="M190 0l12 61c-34 -44 -67 -73 -111 -73c-62 0 -92 50 -92 132c0 98 37 326 112 401c23 23 48 34 78 34c51 0 77 -29 95 -72l44 230h163l-138 -713h-163zM188 133c6 0 11 3 16 8c26 25 54 200 54 235c0 22 -7 35 -24 35c-5 0 -11 -3 -16 -8c-25 -25 -54 -200 -54 -235
c0 -22 7 -35 24 -35zM481 565l36 148h90l-68 -148h-58z" />
    <glyph glyph-name="Dcroat" unicode="&#x110;" horiz-adv-x="481" 
d="M8 282l28 140h33l54 278h105c89 0 159 -20 205 -66c38 -38 60 -97 60 -177c0 -96 -35 -287 -123 -376c-54 -54 -126 -81 -230 -81h-153l55 282h-34zM305 530c-12 12 -28 16 -46 16h-2l-25 -126h45l-27 -136h-44l-25 -130h4c29 0 46 9 63 25c49 49 77 217 77 277
c0 31 -5 59 -20 74z" />
    <glyph glyph-name="dcroat" unicode="&#x111;" horiz-adv-x="427" 
d="M234 573l21 104h66l7 36h163l-7 -36h24l-21 -107h-24l-110 -570h-163l12 61c-34 -44 -67 -73 -111 -73c-62 0 -92 50 -92 132c0 98 37 326 112 401c23 23 48 34 78 34c51 0 77 -29 95 -72l17 90h-67zM188 133c6 0 11 3 16 8c26 25 54 200 54 235c0 22 -7 35 -24 35
c-5 0 -11 -3 -16 -8c-25 -25 -54 -200 -54 -235c0 -22 7 -35 24 -35z" />
    <glyph glyph-name="Eacute" unicode="&#xc9;" horiz-adv-x="365" 
d="M210 724l85 112l155 -36l-125 -76h-115zM-30 0l136 700h324l-30 -158h-158l-22 -113h141l-31 -154h-141l-22 -117h161l-31 -158h-327z" />
    <glyph glyph-name="eacute" unicode="&#xe9;" horiz-adv-x="400" 
d="M374 204h-215v-9c0 -49 25 -67 76 -67c36 0 70 9 110 28l-18 -142c-34 -16 -79 -28 -133 -28c-127 0 -190 71 -190 200c0 82 29 235 106 313c38 37 83 59 137 59c94 0 153 -63 153 -184c0 -50 -12 -110 -26 -170zM199 577l97 133l135 -40l-135 -93h-97zM212 408
c-14 -14 -26 -56 -35 -99h68c6 32 9 55 9 71c0 27 -8 37 -23 37c-6 0 -13 -3 -19 -9z" />
    <glyph glyph-name="Ebreve" unicode="&#x114;" horiz-adv-x="365" 
d="M272 721c-71 0 -117 32 -107 105h85c1 -19 12 -28 34 -28s36 9 45 28h87c-19 -73 -72 -105 -144 -105zM-30 0l136 700h324l-30 -158h-158l-22 -113h141l-31 -154h-141l-22 -117h161l-31 -158h-327z" />
    <glyph glyph-name="ebreve" unicode="&#x115;" horiz-adv-x="400" 
d="M374 204h-215v-9c0 -49 25 -67 76 -67c36 0 70 9 110 28l-18 -142c-34 -16 -79 -28 -133 -28c-127 0 -190 71 -190 200c0 82 29 235 106 313c38 37 83 59 137 59c94 0 153 -63 153 -184c0 -50 -12 -110 -26 -170zM259 574c-76 0 -120 37 -112 119h85c1 -26 13 -40 37 -40
s41 14 49 40h87c-22 -79 -75 -119 -146 -119zM212 408c-14 -14 -26 -56 -35 -99h68c6 32 9 55 9 71c0 27 -8 37 -23 37c-6 0 -13 -3 -19 -9z" />
    <glyph glyph-name="Ecaron" unicode="&#x11a;" horiz-adv-x="365" 
d="M429 829l-94 -105h-124l-54 105h94l34 -36l46 36h98zM-30 0l136 700h324l-30 -158h-158l-22 -113h141l-31 -154h-141l-22 -117h161l-31 -158h-327z" />
    <glyph glyph-name="ecaron" unicode="&#x11b;" horiz-adv-x="400" 
d="M374 204h-215v-9c0 -49 25 -67 76 -67c36 0 70 9 110 28l-18 -142c-34 -16 -79 -28 -133 -28c-127 0 -190 71 -190 200c0 82 29 235 106 313c38 37 83 59 137 59c94 0 153 -63 153 -184c0 -50 -12 -110 -26 -170zM199 577l-55 122h88l37 -44l55 44h92l-103 -122h-114z
M212 408c-14 -14 -26 -56 -35 -99h68c6 32 9 55 9 71c0 27 -8 37 -23 37c-6 0 -13 -3 -19 -9z" />
    <glyph glyph-name="Ecircumflex" unicode="&#xca;" horiz-adv-x="365" 
d="M-30 0l136 700h324l-30 -158h-158l-22 -113h141l-31 -154h-141l-22 -117h161l-31 -158h-327zM135 724l94 105h124l54 -105h-94l-34 36l-46 -36h-98z" />
    <glyph glyph-name="ecircumflex" unicode="&#xea;" horiz-adv-x="400" 
d="M374 204h-215v-9c0 -49 25 -67 76 -67c36 0 70 9 110 28l-18 -142c-34 -16 -79 -28 -133 -28c-127 0 -190 71 -190 200c0 82 29 235 106 313c38 37 83 59 137 59c94 0 153 -63 153 -184c0 -50 -12 -110 -26 -170zM120 577l103 122h114l55 -122h-88l-37 44l-55 -44h-92z
M212 408c-14 -14 -26 -56 -35 -99h68c6 32 9 55 9 71c0 27 -8 37 -23 37c-6 0 -13 -3 -19 -9z" />
    <glyph glyph-name="Edieresis" unicode="&#xcb;" horiz-adv-x="365" 
d="M137 724l21 112h122l-21 -112h-122zM288 724l21 112h122l-21 -112h-122zM-30 0l136 700h324l-30 -158h-158l-22 -113h141l-31 -154h-141l-22 -117h161l-31 -158h-327z" />
    <glyph glyph-name="edieresis" unicode="&#xeb;" horiz-adv-x="400" 
d="M374 204h-215v-9c0 -49 25 -67 76 -67c36 0 70 9 110 28l-18 -142c-34 -16 -79 -28 -133 -28c-127 0 -190 71 -190 200c0 82 29 235 106 313c38 37 83 59 137 59c94 0 153 -63 153 -184c0 -50 -12 -110 -26 -170zM272 578l22 120h118l-22 -120h-118zM127 578l23 120h118
l-23 -120h-118zM212 408c-14 -14 -26 -56 -35 -99h68c6 32 9 55 9 71c0 27 -8 37 -23 37c-6 0 -13 -3 -19 -9z" />
    <glyph glyph-name="Edotaccent" unicode="&#x116;" horiz-adv-x="365" 
d="M209 724l21 112h129l-21 -112h-129zM-30 0l136 700h324l-30 -158h-158l-22 -113h141l-31 -154h-141l-22 -117h161l-31 -158h-327z" />
    <glyph glyph-name="edotaccent" unicode="&#x117;" horiz-adv-x="400" 
d="M374 204h-215v-9c0 -49 25 -67 76 -67c36 0 70 9 110 28l-18 -142c-34 -16 -79 -28 -133 -28c-127 0 -190 71 -190 200c0 82 29 235 106 313c38 37 83 59 137 59c94 0 153 -63 153 -184c0 -50 -12 -110 -26 -170zM195 578l22 120h128l-23 -120h-127zM212 408
c-14 -14 -26 -56 -35 -99h68c6 32 9 55 9 71c0 27 -8 37 -23 37c-6 0 -13 -3 -19 -9z" />
    <glyph glyph-name="Egrave" unicode="&#xc8;" horiz-adv-x="365" 
d="M214 724l-97 76l160 36l47 -112h-110zM-30 0l136 700h324l-30 -158h-158l-22 -113h141l-31 -154h-141l-22 -117h161l-31 -158h-327z" />
    <glyph glyph-name="egrave" unicode="&#xe8;" horiz-adv-x="400" 
d="M374 204h-215v-9c0 -49 25 -67 76 -67c36 0 70 9 110 28l-18 -142c-34 -16 -79 -28 -133 -28c-127 0 -190 71 -190 200c0 82 29 235 106 313c38 37 83 59 137 59c94 0 153 -63 153 -184c0 -50 -12 -110 -26 -170zM213 577l-103 93l143 40l53 -133h-93zM212 408
c-14 -14 -26 -56 -35 -99h68c6 32 9 55 9 71c0 27 -8 37 -23 37c-6 0 -13 -3 -19 -9z" />
    <glyph glyph-name="Emacron" unicode="&#x112;" horiz-adv-x="365" 
d="M138 726l20 100h269l-20 -100h-269zM-30 0l136 700h324l-30 -158h-158l-22 -113h141l-31 -154h-141l-22 -117h161l-31 -158h-327z" />
    <glyph glyph-name="emacron" unicode="&#x113;" horiz-adv-x="400" 
d="M374 204h-215v-9c0 -49 25 -67 76 -67c36 0 70 9 110 28l-18 -142c-34 -16 -79 -28 -133 -28c-127 0 -190 71 -190 200c0 82 29 235 106 313c38 37 83 59 137 59c94 0 153 -63 153 -184c0 -50 -12 -110 -26 -170zM129 579l20 98h257l-20 -98h-257zM212 408
c-14 -14 -26 -56 -35 -99h68c6 32 9 55 9 71c0 27 -8 37 -23 37c-6 0 -13 -3 -19 -9z" />
    <glyph glyph-name="Eogonek" unicode="&#x118;" horiz-adv-x="365" 
d="M-30 0l136 700h324l-30 -158h-158l-22 -113h141l-31 -154h-141l-22 -117h161l-31 -158h-31c-18 -19 -23 -28 -23 -37c0 -11 9 -16 45 -20l-16 -83c-20 -3 -40 -4 -63 -4c-70 0 -106 18 -106 57c0 29 17 56 55 87h-188z" />
    <glyph glyph-name="eogonek" unicode="&#x119;" horiz-adv-x="400" 
d="M345 156l-17 -135c-20 -12 -33 -22 -44 -33c-9 -9 -14 -17 -14 -24c0 -12 9 -17 45 -21l-16 -83c-20 -3 -41 -4 -63 -4c-70 0 -106 18 -106 57c0 22 9 45 41 76c-103 7 -167 67 -167 197c0 82 29 235 106 313c38 37 83 59 137 59c94 0 153 -63 153 -184
c0 -50 -12 -110 -26 -170h-215v-9c0 -49 25 -67 76 -67c36 0 70 9 110 28zM212 408c-14 -14 -26 -56 -35 -99h68c6 32 9 55 9 71c0 27 -8 37 -23 37c-6 0 -13 -3 -19 -9z" />
    <glyph glyph-name="Eth" unicode="&#xd0;" horiz-adv-x="481" 
d="M8 282l28 140h33l54 278h105c89 0 159 -20 205 -66c38 -38 60 -97 60 -177c0 -96 -35 -287 -123 -376c-54 -54 -126 -81 -230 -81h-153l55 282h-34zM305 530c-12 12 -28 16 -46 16h-2l-25 -126h45l-27 -136h-44l-25 -130h4c29 0 46 9 63 25c49 49 77 217 77 277
c0 31 -5 59 -20 74z" />
    <glyph glyph-name="eth" unicode="&#xf0;" horiz-adv-x="416" 
d="M168 574l-16 67l51 14c-14 20 -30 40 -46 58h178l14 -19l64 17l17 -67l-48 -13c29 -73 36 -156 36 -217c0 -90 -23 -281 -114 -372c-35 -35 -82 -56 -136 -56c-111 0 -164 80 -164 189c0 84 32 261 107 337c27 27 56 39 86 39c28 0 50 -11 68 -30c-6 25 -15 49 -26 72z
M182 127c5 0 11 2 17 8c28 28 58 209 58 246c0 26 -8 36 -22 36c-6 0 -11 -2 -17 -8c-29 -28 -58 -209 -58 -246c0 -26 8 -36 22 -36z" />
    <glyph glyph-name="Gbreve" unicode="&#x11e;" horiz-adv-x="446" 
d="M334 728c-71 0 -117 32 -107 105h85c1 -19 12 -28 34 -28s36 9 45 28h87c-19 -73 -72 -105 -144 -105zM229 -12c-136 0 -213 89 -213 240c0 111 40 307 139 407c52 51 112 76 181 76s112 -19 143 -40l-33 -163c-31 24 -69 43 -109 43c-27 0 -49 -9 -67 -27
c-62 -62 -85 -242 -85 -300c0 -55 17 -85 50 -85c5 0 10 1 14 2l25 130h-49l29 147h199l-77 -396c-47 -21 -94 -34 -147 -34z" />
    <glyph glyph-name="gbreve" unicode="&#x11f;" horiz-adv-x="427" 
d="M144 -134c-70 0 -123 10 -179 28l26 136c43 -15 92 -29 131 -29c26 0 44 5 57 18s21 33 28 63l7 34c-36 -48 -70 -75 -113 -75c-62 0 -92 46 -92 135c0 98 35 279 101 345c22 22 48 34 78 34c52 0 78 -29 96 -72l12 61h163l-93 -475c-13 -66 -35 -116 -68 -149
c-36 -36 -87 -54 -154 -54zM197 182c6 0 11 2 17 7c24 25 45 153 45 189c0 20 -8 33 -24 33c-6 0 -11 -3 -17 -8c-24 -25 -45 -152 -45 -188c0 -21 8 -33 24 -33zM288 574c-76 0 -120 37 -112 119h85c1 -26 13 -40 37 -40s41 14 49 40h87c-22 -79 -75 -119 -146 -119z" />
    <glyph glyph-name="Gcommaaccent" unicode="&#x122;" horiz-adv-x="446" 
d="M94 -223v43c46 8 66 23 73 44h-60l19 101h123l-16 -82c-14 -71 -68 -97 -139 -106zM229 -12c-136 0 -213 89 -213 240c0 111 40 307 139 407c52 51 112 76 181 76s112 -19 143 -40l-33 -163c-31 24 -69 43 -109 43c-27 0 -49 -9 -67 -27c-62 -62 -85 -242 -85 -300
c0 -55 17 -85 50 -85c5 0 10 1 14 2l25 130h-49l29 147h199l-77 -396c-47 -21 -94 -34 -147 -34z" />
    <glyph glyph-name="gcommaaccent" unicode="&#x123;" horiz-adv-x="427" 
d="M378 765v-43c-46 -8 -66 -23 -73 -44h60l-19 -101h-123l16 82c14 71 68 97 139 106zM144 -134c-70 0 -123 10 -179 28l26 136c43 -15 92 -29 131 -29c26 0 44 5 57 18s21 33 28 63l7 34c-36 -48 -70 -75 -113 -75c-62 0 -92 46 -92 135c0 98 35 279 101 345
c22 22 48 34 78 34c52 0 78 -29 96 -72l12 61h163l-93 -475c-13 -66 -35 -116 -68 -149c-36 -36 -87 -54 -154 -54zM197 182c6 0 11 2 17 7c24 25 45 153 45 189c0 20 -8 33 -24 33c-6 0 -11 -3 -17 -8c-24 -25 -45 -152 -45 -188c0 -21 8 -33 24 -33z" />
    <glyph glyph-name="Gdotaccent" unicode="&#x120;" horiz-adv-x="446" 
d="M273 731l21 112h129l-21 -112h-129zM229 -12c-136 0 -213 89 -213 240c0 111 40 307 139 407c52 51 112 76 181 76s112 -19 143 -40l-33 -163c-31 24 -69 43 -109 43c-27 0 -49 -9 -67 -27c-62 -62 -85 -242 -85 -300c0 -55 17 -85 50 -85c5 0 10 1 14 2l25 130h-49
l29 147h199l-77 -396c-47 -21 -94 -34 -147 -34z" />
    <glyph glyph-name="gdotaccent" unicode="&#x121;" horiz-adv-x="427" 
d="M144 -134c-70 0 -123 10 -179 28l26 136c43 -15 92 -29 131 -29c26 0 44 5 57 18s21 33 28 63l7 34c-36 -48 -70 -75 -113 -75c-62 0 -92 46 -92 135c0 98 35 279 101 345c22 22 48 34 78 34c52 0 78 -29 96 -72l12 61h163l-93 -475c-13 -66 -35 -116 -68 -149
c-36 -36 -87 -54 -154 -54zM197 182c6 0 11 2 17 7c24 25 45 153 45 189c0 20 -8 33 -24 33c-6 0 -11 -3 -17 -8c-24 -25 -45 -152 -45 -188c0 -21 8 -33 24 -33zM223 578l22 120h128l-23 -120h-127z" />
    <glyph glyph-name="Hbar" unicode="&#x126;" horiz-adv-x="462" 
d="M37 507l23 128h34l13 65h167l-14 -69h80l14 69h167l-13 -65h33l-24 -128h-34l-98 -507h-167l53 272h-80l-53 -272h-167l98 507h-32zM220 427h81l16 84h-81z" />
    <glyph glyph-name="hbar" unicode="&#x127;" horiz-adv-x="415" 
d="M55 570l22 107h23l7 36h163l-7 -36h67l-21 -104h-67l-17 -90c27 37 64 73 115 73c62 0 90 -41 90 -93c0 -19 -2 -33 -6 -50l-80 -413h-163l70 357c3 13 5 22 5 30c0 13 -7 23 -21 23c-15 0 -27 -14 -31 -35l-73 -375h-163l111 570h-24z" />
    <glyph glyph-name="Iacute" unicode="&#xcd;" horiz-adv-x="216" 
d="M-28 0l136 700h166l-136 -700h-166zM134 724l85 112l155 -36l-125 -76h-115z" />
    <glyph glyph-name="iacute" unicode="&#xed;" horiz-adv-x="208" 
d="M104 570l97 133l135 -40l-135 -93h-97zM-30 0l106 544h162l-105 -544h-163z" />
    <glyph glyph-name="Ibreve" unicode="&#x12c;" horiz-adv-x="216" 
d="M-28 0l136 700h166l-136 -700h-166zM195 721c-71 0 -117 32 -107 105h85c1 -19 12 -28 34 -28s36 9 45 28h87c-19 -73 -72 -105 -144 -105z" />
    <glyph glyph-name="ibreve" unicode="&#x12d;" horiz-adv-x="208" 
d="M-30 0l106 544h162l-105 -544h-163zM165 567c-76 0 -120 37 -112 119h85c1 -26 13 -40 37 -40s41 14 49 40h87c-22 -79 -75 -119 -146 -119z" />
    <glyph glyph-name="Icircumflex" unicode="&#xce;" horiz-adv-x="216" 
d="M-28 0l136 700h166l-136 -700h-166zM59 724l94 105h124l54 -105h-94l-34 36l-46 -36h-98z" />
    <glyph glyph-name="icircumflex" unicode="&#xee;" horiz-adv-x="208" 
d="M26 570l103 122h114l55 -122h-88l-37 44l-55 -44h-92zM-30 0l106 544h162l-105 -544h-163z" />
    <glyph glyph-name="Idieresis" unicode="&#xcf;" horiz-adv-x="216" 
d="M-28 0l136 700h166l-136 -700h-166zM60 724l21 112h122l-21 -112h-122zM211 724l21 112h122l-21 -112h-122z" />
    <glyph glyph-name="idieresis" unicode="&#xef;" horiz-adv-x="208" 
d="M32 571l23 120h118l-23 -120h-118zM177 571l22 120h118l-22 -120h-118zM-30 0l106 544h162l-105 -544h-163z" />
    <glyph glyph-name="Idotaccent" unicode="&#x130;" horiz-adv-x="216" 
d="M-28 0l136 700h166l-136 -700h-166zM132 724l21 112h129l-21 -112h-129z" />
    <glyph glyph-name="dotlessi" unicode="&#x131;" horiz-adv-x="208" 
d="M-30 0l106 544h162l-105 -544h-163z" />
    <glyph glyph-name="Igrave" unicode="&#xcc;" horiz-adv-x="216" 
d="M-28 0l136 700h166l-136 -700h-166zM138 724l-97 76l160 36l47 -112h-110z" />
    <glyph glyph-name="igrave" unicode="&#xec;" horiz-adv-x="208" 
d="M-30 0l106 544h162l-105 -544h-163zM118 570l-103 93l143 40l53 -133h-93z" />
    <glyph glyph-name="Imacron" unicode="&#x12a;" horiz-adv-x="216" 
d="M-28 0l136 700h166l-136 -700h-166zM62 726l20 100h269l-20 -100h-269z" />
    <glyph glyph-name="imacron" unicode="&#x12b;" horiz-adv-x="208" 
d="M-30 0l106 544h162l-105 -544h-163zM35 572l20 98h257l-20 -98h-257z" />
    <glyph glyph-name="Iogonek" unicode="&#x12e;" horiz-adv-x="216" 
d="M-28 0l136 700h166l-136 -700h-27c-18 -19 -23 -28 -23 -37c0 -11 9 -16 45 -20l-16 -83c-20 -3 -40 -4 -63 -4c-70 0 -106 18 -106 57c0 29 17 56 55 87h-31z" />
    <glyph glyph-name="iogonek" unicode="&#x12f;" horiz-adv-x="208" 
d="M-30 0l106 544h162l-105 -544h-25c-18 -19 -23 -28 -23 -37c0 -11 9 -16 45 -20l-16 -83c-20 -3 -40 -4 -63 -4c-70 0 -106 18 -106 57c0 29 17 56 55 87h-30zM81 578l27 135h164l-26 -135h-165z" />
    <glyph glyph-name="Kcommaaccent" unicode="&#x136;" horiz-adv-x="441" 
d="M72 -217v43c46 8 66 23 73 44h-60l19 101h123l-16 -82c-14 -71 -68 -97 -139 -106zM-30 0l136 700h166l-46 -242l120 242h175l-169 -312l33 -388h-173l-8 237l-33 -62l-35 -175h-166z" />
    <glyph glyph-name="kcommaaccent" unicode="&#x137;" horiz-adv-x="404" 
d="M52 -217v43c46 8 66 23 73 44h-60l19 101h123l-16 -82c-14 -71 -68 -97 -139 -106zM-32 0l139 713h163l-65 -330l86 161h172l-136 -235l28 -309h-165l-5 189l-25 -41l-29 -148h-163z" />
    <glyph glyph-name="Lacute" unicode="&#x139;" horiz-adv-x="335" 
d="M143 724l85 112l155 -36l-125 -76h-115zM-30 0l136 700h166l-105 -542h137l-31 -158h-303z" />
    <glyph glyph-name="lacute" unicode="&#x13a;" horiz-adv-x="208" 
d="M136 734l85 112l155 -36l-125 -76h-115zM-30 0l139 713h162l-138 -713h-163z" />
    <glyph glyph-name="Lcaron" unicode="&#x13d;" horiz-adv-x="335" 
d="M-30 0l136 700h166l-105 -542h137l-31 -158h-303zM262 553l36 148h90l-68 -148h-58z" />
    <glyph glyph-name="lcaron" unicode="&#x13e;" horiz-adv-x="208" 
d="M-30 0l139 713h162l-138 -713h-163zM263 565l36 148h90l-68 -148h-58z" />
    <glyph glyph-name="Lcommaaccent" unicode="&#x13b;" horiz-adv-x="335" 
d="M22 -217v43c46 8 66 23 73 44h-60l19 101h123l-16 -82c-14 -71 -68 -97 -139 -106zM-30 0l136 700h166l-105 -542h137l-31 -158h-303z" />
    <glyph glyph-name="lcommaaccent" unicode="&#x13c;" horiz-adv-x="208" 
d="M-48 -217v43c46 8 66 23 73 44h-60l19 101h123l-16 -82c-14 -71 -68 -97 -139 -106zM-30 0l139 713h162l-138 -713h-163z" />
    <glyph glyph-name="Ldot" unicode="&#x13f;" horiz-adv-x="335" 
d="M221 305l30 153h117l-30 -153h-117zM-30 0l136 700h166l-105 -542h137l-31 -158h-303z" />
    <glyph glyph-name="ldot" unicode="&#x140;" horiz-adv-x="330" 
d="M213 278l30 152h115l-30 -152h-115zM-30 0l139 713h162l-138 -713h-163z" />
    <glyph glyph-name="Lslash" unicode="&#x141;" horiz-adv-x="357" 
d="M-8 198l33 168l36 15l62 319h166l-47 -240l86 38l-33 -168l-85 -37l-26 -135h137l-31 -158h-303l41 214z" />
    <glyph glyph-name="lslash" unicode="&#x142;" horiz-adv-x="252" 
d="M-5 213l31 159l41 19l63 322h162l-46 -238l44 21l-31 -160l-44 -21l-61 -315h-163l45 232z" />
    <glyph glyph-name="Nacute" unicode="&#x143;" horiz-adv-x="467" 
d="M257 723l85 112l155 -36l-125 -76h-115zM-30 0l136 700h161l43 -294l58 294h160l-136 -700h-155l-47 311l-60 -311h-160z" />
    <glyph glyph-name="nacute" unicode="&#x144;" horiz-adv-x="415" 
d="M209 577l97 133l135 -40l-135 -93h-97zM-32 0l106 544h163l-12 -61c27 37 64 73 115 73c62 0 90 -41 90 -93c0 -19 -2 -33 -6 -50l-80 -413h-163l70 357c3 13 5 22 5 30c0 13 -7 23 -21 23c-15 0 -27 -14 -31 -35l-73 -375h-163z" />
    <glyph glyph-name="Ncaron" unicode="&#x147;" horiz-adv-x="467" 
d="M477 828l-94 -105h-124l-54 105h94l34 -36l46 36h98zM-30 0l136 700h161l43 -294l58 294h160l-136 -700h-155l-47 311l-60 -311h-160z" />
    <glyph glyph-name="ncaron" unicode="&#x148;" horiz-adv-x="415" 
d="M210 577l-55 122h88l37 -44l55 44h92l-103 -122h-114zM-32 0l106 544h163l-12 -61c27 37 64 73 115 73c62 0 90 -41 90 -93c0 -19 -2 -33 -6 -50l-80 -413h-163l70 357c3 13 5 22 5 30c0 13 -7 23 -21 23c-15 0 -27 -14 -31 -35l-73 -375h-163z" />
    <glyph glyph-name="Ncommaaccent" unicode="&#x145;" horiz-adv-x="467" 
d="M80 -217v43c46 8 66 23 73 44h-60l19 101h123l-16 -82c-14 -71 -68 -97 -139 -106zM-30 0l136 700h161l43 -294l58 294h160l-136 -700h-155l-47 311l-60 -311h-160z" />
    <glyph glyph-name="ncommaaccent" unicode="&#x146;" horiz-adv-x="415" 
d="M57 -217v43c46 8 66 23 73 44h-60l19 101h123l-16 -82c-14 -71 -68 -97 -139 -106zM-32 0l106 544h163l-12 -61c27 37 64 73 115 73c62 0 90 -41 90 -93c0 -19 -2 -33 -6 -50l-80 -413h-163l70 357c3 13 5 22 5 30c0 13 -7 23 -21 23c-15 0 -27 -14 -31 -35l-73 -375
h-163z" />
    <glyph glyph-name="Ntilde" unicode="&#xd1;" horiz-adv-x="467" 
d="M246 716l-72 13c21 80 54 120 97 120c19 0 35 -5 62 -16c29 -11 38 -15 51 -15c16 0 25 10 35 35l72 -13c-21 -80 -54 -121 -97 -121c-19 0 -34 6 -61 16c-30 11 -39 15 -52 15c-16 0 -25 -9 -35 -34zM-30 0l136 700h161l43 -294l58 294h160l-136 -700h-155l-47 311
l-60 -311h-160z" />
    <glyph glyph-name="ntilde" unicode="&#xf1;" horiz-adv-x="415" 
d="M-32 0l106 544h163l-12 -61c27 37 64 73 115 73c62 0 90 -41 90 -93c0 -19 -2 -33 -6 -50l-80 -413h-163l70 357c3 13 5 22 5 30c0 13 -7 23 -21 23c-15 0 -27 -14 -31 -35l-73 -375h-163zM366 706l72 -13c-19 -78 -56 -119 -97 -119c-21 0 -37 7 -61 16
c-28 10 -38 15 -51 15c-16 0 -25 -10 -35 -34l-72 12c20 81 56 120 97 120c21 0 38 -7 61 -16c28 -10 38 -15 51 -15c16 0 25 10 35 34z" />
    <glyph glyph-name="Oacute" unicode="&#xd3;" horiz-adv-x="466" 
d="M256 731l85 112l155 -36l-125 -76h-115zM299 714c113 0 184 -76 184 -217c0 -115 -42 -352 -140 -450c-41 -41 -88 -61 -146 -61c-112 0 -183 76 -183 217c0 115 41 352 139 450c41 41 88 61 146 61zM209 138c11 0 18 5 24 11c40 40 86 297 86 365c0 33 -10 48 -31 48
c-11 0 -18 -5 -25 -11c-39 -40 -86 -297 -86 -365c0 -33 11 -48 32 -48z" />
    <glyph glyph-name="oacute" unicode="&#xf3;" horiz-adv-x="416" 
d="M209 577l97 133l135 -40l-135 -93h-97zM248 558c112 0 166 -80 166 -189c0 -89 -31 -249 -106 -324c-38 -38 -84 -59 -140 -59c-111 0 -165 80 -165 189c0 89 30 248 106 324c37 37 83 59 139 59zM182 127c5 0 11 2 17 8c28 28 58 208 58 245c0 27 -8 37 -22 37
c-6 0 -11 -3 -17 -8c-28 -29 -59 -208 -59 -246c0 -26 9 -36 23 -36z" />
    <glyph glyph-name="Obreve" unicode="&#x14e;" horiz-adv-x="466" 
d="M319 728c-71 0 -117 32 -107 105h85c1 -19 12 -28 34 -28s36 9 45 28h87c-19 -73 -72 -105 -144 -105zM299 714c113 0 184 -76 184 -217c0 -115 -42 -352 -140 -450c-41 -41 -88 -61 -146 -61c-112 0 -183 76 -183 217c0 115 41 352 139 450c41 41 88 61 146 61zM209 138
c11 0 18 5 24 11c40 40 86 297 86 365c0 33 -10 48 -31 48c-11 0 -18 -5 -25 -11c-39 -40 -86 -297 -86 -365c0 -33 11 -48 32 -48z" />
    <glyph glyph-name="obreve" unicode="&#x14f;" horiz-adv-x="416" 
d="M248 558c112 0 166 -80 166 -189c0 -89 -31 -249 -106 -324c-38 -38 -84 -59 -140 -59c-111 0 -165 80 -165 189c0 89 30 248 106 324c37 37 83 59 139 59zM182 127c5 0 11 2 17 8c28 28 58 208 58 245c0 27 -8 37 -22 37c-6 0 -11 -3 -17 -8c-28 -29 -59 -208 -59 -246
c0 -26 9 -36 23 -36zM270 574c-76 0 -120 37 -112 119h85c1 -26 13 -40 37 -40s41 14 49 40h87c-22 -79 -75 -119 -146 -119z" />
    <glyph glyph-name="Ocircumflex" unicode="&#xd4;" horiz-adv-x="466" 
d="M299 714c113 0 184 -76 184 -217c0 -115 -42 -352 -140 -450c-41 -41 -88 -61 -146 -61c-112 0 -183 76 -183 217c0 115 41 352 139 450c41 41 88 61 146 61zM209 138c11 0 18 5 24 11c40 40 86 297 86 365c0 33 -10 48 -31 48c-11 0 -18 -5 -25 -11
c-39 -40 -86 -297 -86 -365c0 -33 11 -48 32 -48zM182 731l94 105h124l54 -105h-94l-34 36l-46 -36h-98z" />
    <glyph glyph-name="ocircumflex" unicode="&#xf4;" horiz-adv-x="416" 
d="M131 577l103 122h114l55 -122h-88l-37 44l-55 -44h-92zM248 558c112 0 166 -80 166 -189c0 -89 -31 -249 -106 -324c-38 -38 -84 -59 -140 -59c-111 0 -165 80 -165 189c0 89 30 248 106 324c37 37 83 59 139 59zM182 127c5 0 11 2 17 8c28 28 58 208 58 245
c0 27 -8 37 -22 37c-6 0 -11 -3 -17 -8c-28 -29 -59 -208 -59 -246c0 -26 9 -36 23 -36z" />
    <glyph glyph-name="Odieresis" unicode="&#xd6;" horiz-adv-x="466" 
d="M185 731l21 112h122l-21 -112h-122zM336 731l21 112h122l-21 -112h-122zM299 714c113 0 184 -76 184 -217c0 -115 -42 -352 -140 -450c-41 -41 -88 -61 -146 -61c-112 0 -183 76 -183 217c0 115 41 352 139 450c41 41 88 61 146 61zM209 138c11 0 18 5 24 11
c40 40 86 297 86 365c0 33 -10 48 -31 48c-11 0 -18 -5 -25 -11c-39 -40 -86 -297 -86 -365c0 -33 11 -48 32 -48z" />
    <glyph glyph-name="odieresis" unicode="&#xf6;" horiz-adv-x="416" 
d="M138 578l23 120h118l-23 -120h-118zM283 578l22 120h118l-22 -120h-118zM248 558c112 0 166 -80 166 -189c0 -89 -31 -249 -106 -324c-38 -38 -84 -59 -140 -59c-111 0 -165 80 -165 189c0 89 30 248 106 324c37 37 83 59 139 59zM182 127c5 0 11 2 17 8
c28 28 58 208 58 245c0 27 -8 37 -22 37c-6 0 -11 -3 -17 -8c-28 -29 -59 -208 -59 -246c0 -26 9 -36 23 -36z" />
    <glyph glyph-name="OE" unicode="&#x152;" horiz-adv-x="617" 
d="M283 0c-89 0 -159 20 -205 66c-38 38 -60 97 -60 177c0 95 35 287 123 376c54 54 126 81 230 81h311l-31 -158h-158l-22 -113h141l-30 -154h-141l-22 -117h161l-31 -158h-266zM206 170c11 -12 27 -16 45 -16l76 392h-1c-29 0 -46 -9 -63 -25c-49 -49 -77 -217 -77 -277
c0 -31 5 -59 20 -74z" />
    <glyph glyph-name="oe" unicode="&#x153;" horiz-adv-x="626" 
d="M601 204h-216v-9c0 -49 26 -67 77 -67c36 0 70 9 110 28l-18 -142c-34 -16 -79 -28 -134 -28c-66 0 -109 19 -135 59c-35 -40 -77 -59 -125 -59c-108 0 -157 80 -157 189c0 89 31 248 106 324c38 37 84 59 139 59c53 0 90 -23 112 -63c35 39 78 63 129 63
c92 0 138 -63 138 -184c0 -50 -12 -110 -26 -170zM182 127c5 0 11 2 17 8c28 28 58 209 58 245c0 26 -8 37 -22 37c-6 0 -11 -3 -17 -8c-28 -29 -58 -209 -58 -246c0 -26 8 -36 22 -36zM439 408c-15 -14 -27 -56 -36 -99h68c7 32 10 55 10 71c0 27 -9 37 -23 37
c-6 0 -13 -3 -19 -9z" />
    <glyph glyph-name="Ograve" unicode="&#xd2;" horiz-adv-x="466" 
d="M262 731l-97 76l160 36l47 -112h-110zM299 714c113 0 184 -76 184 -217c0 -115 -42 -352 -140 -450c-41 -41 -88 -61 -146 -61c-112 0 -183 76 -183 217c0 115 41 352 139 450c41 41 88 61 146 61zM209 138c11 0 18 5 24 11c40 40 86 297 86 365c0 33 -10 48 -31 48
c-11 0 -18 -5 -25 -11c-39 -40 -86 -297 -86 -365c0 -33 11 -48 32 -48z" />
    <glyph glyph-name="ograve" unicode="&#xf2;" horiz-adv-x="416" 
d="M248 558c112 0 166 -80 166 -189c0 -89 -31 -249 -106 -324c-38 -38 -84 -59 -140 -59c-111 0 -165 80 -165 189c0 89 30 248 106 324c37 37 83 59 139 59zM182 127c5 0 11 2 17 8c28 28 58 208 58 245c0 27 -8 37 -22 37c-6 0 -11 -3 -17 -8c-28 -29 -59 -208 -59 -246
c0 -26 9 -36 23 -36zM224 577l-103 93l143 40l53 -133h-93z" />
    <glyph glyph-name="Ohungarumlaut" unicode="&#x150;" horiz-adv-x="466" 
d="M299 714c113 0 184 -76 184 -217c0 -115 -42 -352 -140 -450c-41 -41 -88 -61 -146 -61c-112 0 -183 76 -183 217c0 115 41 352 139 450c41 41 88 61 146 61zM209 138c11 0 18 5 24 11c40 40 86 297 86 365c0 33 -10 48 -31 48c-11 0 -18 -5 -25 -11
c-39 -40 -86 -297 -86 -365c0 -33 11 -48 32 -48zM332 731l45 59l-86 -59h-102l85 112l121 -29l22 29l132 -32l-116 -80h-101z" />
    <glyph glyph-name="ohungarumlaut" unicode="&#x151;" horiz-adv-x="416" 
d="M248 558c112 0 166 -80 166 -189c0 -89 -31 -249 -106 -324c-38 -38 -84 -59 -140 -59c-111 0 -165 80 -165 189c0 89 30 248 106 324c37 37 83 59 139 59zM272 577l48 65l-87 -65h-84l97 133l99 -33l24 33l114 -37l-127 -96h-84zM182 127c5 0 11 2 17 8
c28 28 58 208 58 245c0 27 -8 37 -22 37c-6 0 -11 -3 -17 -8c-28 -29 -59 -208 -59 -246c0 -26 9 -36 23 -36z" />
    <glyph glyph-name="Omacron" unicode="&#x14c;" horiz-adv-x="466" 
d="M186 733l20 100h269l-20 -100h-269zM299 714c113 0 184 -76 184 -217c0 -115 -42 -352 -140 -450c-41 -41 -88 -61 -146 -61c-112 0 -183 76 -183 217c0 115 41 352 139 450c41 41 88 61 146 61zM209 138c11 0 18 5 24 11c40 40 86 297 86 365c0 33 -10 48 -31 48
c-11 0 -18 -5 -25 -11c-39 -40 -86 -297 -86 -365c0 -33 11 -48 32 -48z" />
    <glyph glyph-name="omacron" unicode="&#x14d;" horiz-adv-x="416" 
d="M140 579l20 98h257l-20 -98h-257zM248 558c112 0 166 -80 166 -189c0 -89 -31 -249 -106 -324c-38 -38 -84 -59 -140 -59c-111 0 -165 80 -165 189c0 89 30 248 106 324c37 37 83 59 139 59zM182 127c5 0 11 2 17 8c28 28 58 208 58 245c0 27 -8 37 -22 37
c-6 0 -11 -3 -17 -8c-28 -29 -59 -208 -59 -246c0 -26 9 -36 23 -36z" />
    <glyph glyph-name="Oslash" unicode="&#xd8;" horiz-adv-x="466" 
d="M300 714c51 0 96 -17 128 -52l29 43h73l-67 -98c13 -31 20 -68 20 -112c0 -113 -42 -350 -140 -448c-41 -41 -88 -61 -146 -61c-52 0 -97 17 -129 51l-28 -42h-74l67 98c-13 31 -19 68 -19 112c0 113 41 350 139 448c41 41 89 61 147 61zM260 554
c-29 -29 -59 -161 -75 -261l139 235c-3 29 -18 39 -36 39c-13 0 -20 -5 -28 -13zM208 133c13 0 21 5 28 13c29 28 59 159 75 259l-139 -235c3 -28 18 -37 36 -37z" />
    <glyph glyph-name="oslash" unicode="&#xf8;" horiz-adv-x="416" 
d="M248 558c52 0 91 -17 119 -47l25 35h70l-64 -84c11 -27 16 -59 16 -93c0 -89 -31 -249 -106 -324c-38 -38 -84 -59 -140 -59c-52 0 -91 17 -118 46l-26 -34h-69l64 84c-11 27 -16 59 -16 93c0 89 30 248 106 324c37 37 83 59 139 59zM235 422c-7 0 -14 -3 -21 -10
c-19 -19 -39 -97 -51 -165l99 146c-2 20 -13 29 -27 29zM202 131c19 19 39 97 51 164l-100 -146c3 -19 14 -27 29 -27c6 0 14 3 20 9z" />
    <glyph glyph-name="Oslashacute" unicode="&#x1fe;" horiz-adv-x="466" 
d="M300 714c51 0 96 -17 128 -52l29 43h73l-67 -98c13 -31 20 -68 20 -112c0 -113 -42 -350 -140 -448c-41 -41 -88 -61 -146 -61c-52 0 -97 17 -129 51l-28 -42h-74l67 98c-13 31 -19 68 -19 112c0 113 41 350 139 448c41 41 89 61 147 61zM256 731l85 112l155 -36
l-125 -76h-115zM260 554c-29 -29 -59 -161 -75 -261l139 235c-3 29 -18 39 -36 39c-13 0 -20 -5 -28 -13zM208 133c13 0 21 5 28 13c29 28 59 159 75 259l-139 -235c3 -28 18 -37 36 -37z" />
    <glyph glyph-name="oslashacute" unicode="&#x1ff;" horiz-adv-x="416" 
d="M248 558c52 0 91 -17 119 -47l25 35h70l-64 -84c11 -27 16 -59 16 -93c0 -89 -31 -249 -106 -324c-38 -38 -84 -59 -140 -59c-52 0 -91 17 -118 46l-26 -34h-69l64 84c-11 27 -16 59 -16 93c0 89 30 248 106 324c37 37 83 59 139 59zM209 577l97 133l135 -40l-135 -93
h-97zM235 422c-7 0 -14 -3 -21 -10c-19 -19 -39 -97 -51 -165l99 146c-2 20 -13 29 -27 29zM202 131c19 19 39 97 51 164l-100 -146c3 -19 14 -27 29 -27c6 0 14 3 20 9z" />
    <glyph glyph-name="Otilde" unicode="&#xd5;" horiz-adv-x="466" 
d="M246 724l-72 13c21 80 54 120 97 120c19 0 35 -5 62 -16c29 -11 38 -15 51 -15c16 0 25 10 35 35l72 -13c-21 -80 -54 -121 -97 -121c-19 0 -34 6 -61 16c-30 11 -39 15 -52 15c-16 0 -25 -9 -35 -34zM299 714c113 0 184 -76 184 -217c0 -115 -42 -352 -140 -450
c-41 -41 -88 -61 -146 -61c-112 0 -183 76 -183 217c0 115 41 352 139 450c41 41 88 61 146 61zM209 138c11 0 18 5 24 11c40 40 86 297 86 365c0 33 -10 48 -31 48c-11 0 -18 -5 -25 -11c-39 -40 -86 -297 -86 -365c0 -33 11 -48 32 -48z" />
    <glyph glyph-name="otilde" unicode="&#xf5;" horiz-adv-x="416" 
d="M248 558c112 0 166 -80 166 -189c0 -89 -31 -249 -106 -324c-38 -38 -84 -59 -140 -59c-111 0 -165 80 -165 189c0 89 30 248 106 324c37 37 83 59 139 59zM182 127c5 0 11 2 17 8c28 28 58 208 58 245c0 27 -8 37 -22 37c-6 0 -11 -3 -17 -8c-28 -29 -59 -208 -59 -246
c0 -26 9 -36 23 -36zM366 706l72 -13c-19 -78 -56 -119 -97 -119c-21 0 -37 7 -61 16c-28 10 -38 15 -51 15c-16 0 -25 -10 -35 -34l-72 12c20 81 56 120 97 120c21 0 38 -7 61 -16c28 -10 38 -15 51 -15c16 0 25 10 35 34z" />
    <glyph glyph-name="Racute" unicode="&#x154;" horiz-adv-x="437" 
d="M210 0l-26 218h-3h-4l-42 -218h-165l136 700h120c92 0 156 -19 194 -58c32 -32 48 -75 48 -133c0 -80 -24 -149 -72 -198c-15 -15 -34 -28 -54 -39l42 -272h-174zM227 724l85 112l155 -36l-125 -76h-115zM203 354h4c22 0 37 5 52 19c26 27 37 87 37 122
c0 19 -5 37 -15 46c-8 9 -19 13 -34 13h-5z" />
    <glyph glyph-name="racute" unicode="&#x155;" horiz-adv-x="275" 
d="M136 570l97 133l135 -40l-135 -93h-97zM-32 0l106 544h162l-17 -82c29 60 62 92 104 89l-38 -195h-2c-57 0 -89 -35 -104 -110l-48 -246h-163z" />
    <glyph glyph-name="Rcaron" unicode="&#x158;" horiz-adv-x="437" 
d="M210 0l-26 218h-3h-4l-42 -218h-165l136 700h120c92 0 156 -19 194 -58c32 -32 48 -75 48 -133c0 -80 -24 -149 -72 -198c-15 -15 -34 -28 -54 -39l42 -272h-174zM446 829l-94 -105h-124l-54 105h94l34 -36l46 36h98zM203 354h4c22 0 37 5 52 19c26 27 37 87 37 122
c0 19 -5 37 -15 46c-8 9 -19 13 -34 13h-5z" />
    <glyph glyph-name="rcaron" unicode="&#x159;" horiz-adv-x="275" 
d="M137 570l-55 122h88l37 -44l55 44h92l-103 -122h-114zM-32 0l106 544h162l-17 -82c29 60 62 92 104 89l-38 -195h-2c-57 0 -89 -35 -104 -110l-48 -246h-163z" />
    <glyph glyph-name="Rcommaaccent" unicode="&#x156;" horiz-adv-x="437" 
d="M210 0l-26 218h-3h-4l-42 -218h-165l136 700h120c92 0 156 -19 194 -58c32 -32 48 -75 48 -133c0 -80 -24 -149 -72 -198c-15 -15 -34 -28 -54 -39l42 -272h-174zM61 -217v43c46 8 66 23 73 44h-60l19 101h123l-16 -82c-14 -71 -68 -97 -139 -106zM203 354h4
c22 0 37 5 52 19c26 27 37 87 37 122c0 19 -5 37 -15 46c-8 9 -19 13 -34 13h-5z" />
    <glyph glyph-name="rcommaaccent" unicode="&#x157;" horiz-adv-x="275" 
d="M-45 -217v43c46 8 66 23 73 44h-60l19 101h123l-16 -82c-14 -71 -68 -97 -139 -106zM-32 0l106 544h162l-17 -82c29 60 62 92 104 89l-38 -195h-2c-57 0 -89 -35 -104 -110l-48 -246h-163z" />
    <glyph glyph-name="Sacute" unicode="&#x15a;" horiz-adv-x="379" 
d="M138 -10c-67 0 -120 22 -163 51l32 164c48 -34 88 -57 130 -57c32 0 53 21 53 50c0 23 -14 44 -42 78c-56 65 -96 121 -96 200c0 70 24 133 68 176c39 39 89 58 150 58c62 0 111 -18 150 -41l-32 -163c-36 25 -75 46 -115 46c-33 0 -52 -21 -52 -49c0 -24 12 -44 40 -77
c58 -68 98 -124 98 -201c0 -70 -22 -131 -69 -177c-36 -37 -86 -58 -152 -58zM213 731l85 112l155 -36l-125 -76h-115z" />
    <glyph glyph-name="sacute" unicode="&#x15b;" horiz-adv-x="322" 
d="M162 577l97 133l135 -40l-135 -93h-97zM115 -12c-54 0 -112 21 -147 46l29 150c41 -31 82 -53 111 -53c20 0 32 12 32 28c0 15 -8 28 -34 57c-49 53 -76 94 -76 154c0 102 66 185 178 185c51 0 96 -13 134 -33l-30 -151c-35 24 -73 41 -97 41c-22 0 -32 -11 -32 -24
c0 -14 8 -25 35 -55c44 -49 77 -92 77 -154c0 -103 -69 -191 -180 -191z" />
    <glyph glyph-name="Scaron" unicode="&#x160;" horiz-adv-x="379" 
d="M138 -10c-67 0 -120 22 -163 51l32 164c48 -34 88 -57 130 -57c32 0 53 21 53 50c0 23 -14 44 -42 78c-56 65 -96 121 -96 200c0 70 24 133 68 176c39 39 89 58 150 58c62 0 111 -18 150 -41l-32 -163c-36 25 -75 46 -115 46c-33 0 -52 -21 -52 -49c0 -24 12 -44 40 -77
c58 -68 98 -124 98 -201c0 -70 -22 -131 -69 -177c-36 -37 -86 -58 -152 -58zM432 836l-94 -105h-124l-54 105h94l34 -36l46 36h98z" />
    <glyph glyph-name="scaron" unicode="&#x161;" horiz-adv-x="322" 
d="M162 577l-55 122h88l37 -44l55 44h92l-103 -122h-114zM115 -12c-54 0 -112 21 -147 46l29 150c41 -31 82 -53 111 -53c20 0 32 12 32 28c0 15 -8 28 -34 57c-49 53 -76 94 -76 154c0 102 66 185 178 185c51 0 96 -13 134 -33l-30 -151c-35 24 -73 41 -97 41
c-22 0 -32 -11 -32 -24c0 -14 8 -25 35 -55c44 -49 77 -92 77 -154c0 -103 -69 -191 -180 -191z" />
    <glyph glyph-name="Scedilla" unicode="&#x15e;" horiz-adv-x="379" 
d="M127 -131l-145 33l88 96c-36 9 -68 24 -95 43l32 164c48 -34 88 -57 130 -57c32 0 53 21 53 50c0 23 -14 44 -42 78c-56 65 -96 121 -96 200c0 70 24 133 68 176c39 39 89 58 150 58c62 0 111 -18 150 -41l-32 -163c-36 25 -75 46 -115 46c-33 0 -52 -21 -52 -49
c0 -24 12 -44 40 -77c58 -68 98 -124 98 -201c0 -70 -22 -131 -69 -177c-27 -28 -62 -47 -106 -54z" />
    <glyph glyph-name="scedilla" unicode="&#x15f;" horiz-adv-x="322" 
d="M100 -131l-145 33l89 97c-30 8 -56 21 -76 35l29 150c41 -31 82 -53 111 -53c20 0 32 12 32 28c0 15 -8 28 -34 57c-49 53 -76 94 -76 154c0 102 66 185 178 185c51 0 96 -13 134 -33l-30 -151c-35 24 -73 41 -97 41c-22 0 -32 -11 -32 -24c0 -14 8 -25 35 -55
c44 -49 77 -92 77 -154c0 -90 -52 -168 -139 -186z" />
    <glyph glyph-name="Scommaaccent" unicode="&#x218;" horiz-adv-x="379" 
d="M33 -223v43c46 8 66 23 73 44h-60l19 101h123l-16 -82c-14 -71 -68 -97 -139 -106zM138 -10c-67 0 -120 22 -163 51l32 164c48 -34 88 -57 130 -57c32 0 53 21 53 50c0 23 -14 44 -42 78c-56 65 -96 121 -96 200c0 70 24 133 68 176c39 39 89 58 150 58
c62 0 111 -18 150 -41l-32 -163c-36 25 -75 46 -115 46c-33 0 -52 -21 -52 -49c0 -24 12 -44 40 -77c58 -68 98 -124 98 -201c0 -70 -22 -131 -69 -177c-36 -37 -86 -58 -152 -58z" />
    <glyph glyph-name="scommaaccent" unicode="&#x219;" horiz-adv-x="322" 
d="M4 -217v43c46 8 66 23 73 44h-60l19 101h123l-16 -82c-14 -71 -68 -97 -139 -106zM115 -12c-54 0 -112 21 -147 46l29 150c41 -31 82 -53 111 -53c20 0 32 12 32 28c0 15 -8 28 -34 57c-49 53 -76 94 -76 154c0 102 66 185 178 185c51 0 96 -13 134 -33l-30 -151
c-35 24 -73 41 -97 41c-22 0 -32 -11 -32 -24c0 -14 8 -25 35 -55c44 -49 77 -92 77 -154c0 -103 -69 -191 -180 -191z" />
    <glyph glyph-name="Tcaron" unicode="&#x164;" horiz-adv-x="375" 
d="M433 829l-94 -105h-124l-54 105h94l34 -36l46 36h98zM51 0l106 541h-96l32 159h358l-32 -159h-96l-105 -541h-167z" />
    <glyph glyph-name="tcaron" unicode="&#x165;" horiz-adv-x="269" 
d="M122 -9c-66 0 -117 29 -117 94c0 17 2 31 7 53l53 276h-30l26 130h29l25 129h162l-25 -129h61l-25 -130h-61l-46 -234c-2 -8 -5 -25 -5 -33c0 -13 9 -20 24 -20c11 0 20 2 32 6l-25 -129c-25 -8 -50 -13 -85 -13zM276 565l36 148h90l-68 -148h-58z" />
    <glyph glyph-name="Tcommaaccent" unicode="&#x162;" horiz-adv-x="375" 
d="M36 -217v43c46 8 66 23 73 44h-60l19 101h123l-16 -82c-14 -71 -68 -97 -139 -106zM51 0l106 541h-96l32 159h358l-32 -159h-96l-105 -541h-167z" />
    <glyph glyph-name="tcommaaccent" unicode="&#x163;" horiz-adv-x="269" 
d="M-4 -223v43c46 8 66 23 73 44h-60l19 101h123l-16 -82c-14 -71 -68 -97 -139 -106zM122 -9c-66 0 -117 29 -117 94c0 17 2 31 7 53l53 276h-30l26 130h29l25 129h162l-25 -129h61l-25 -130h-61l-46 -234c-2 -8 -5 -25 -5 -33c0 -13 9 -20 24 -20c11 0 20 2 32 6l-25 -129
c-25 -8 -50 -13 -85 -13z" />
    <glyph glyph-name="Thorn" unicode="&#xde;" horiz-adv-x="423" 
d="M-30 0l136 700h165l-18 -88c54 -3 106 -25 136 -54c35 -33 52 -78 52 -135c0 -79 -25 -177 -86 -234c-51 -48 -116 -71 -195 -71h-3l-22 -118h-165zM186 264h3c19 0 35 5 49 19c28 28 38 94 38 124c0 22 -6 38 -16 48c-7 8 -18 13 -32 13h-3z" />
    <glyph glyph-name="thorn" unicode="&#xfe;" horiz-adv-x="427" 
d="M270 713l-45 -230c34 44 67 73 110 73c63 0 93 -50 93 -132c0 -98 -37 -326 -112 -401c-23 -23 -48 -34 -78 -34c-51 0 -78 29 -95 72l-37 -191h-163l164 843h163zM192 133c6 0 11 3 17 8c25 25 54 200 54 235c0 22 -7 35 -24 35c-6 0 -11 -3 -17 -8
c-25 -25 -54 -200 -54 -235c0 -22 7 -35 24 -35z" />
    <glyph glyph-name="Uacute" unicode="&#xda;" horiz-adv-x="450" 
d="M249 723l85 112l155 -36l-125 -76h-115zM187 -11c-116 0 -183 63 -183 158c0 35 4 60 9 87l91 466h166l-94 -481c-2 -13 -6 -30 -6 -44c0 -21 12 -33 32 -33c11 0 19 3 26 11c10 10 15 23 20 45l98 502h166l-95 -495c-15 -74 -38 -121 -73 -157c-37 -36 -90 -59 -157 -59
z" />
    <glyph glyph-name="uacute" unicode="&#xfa;" horiz-adv-x="415" 
d="M205 569l97 133l135 -40l-135 -93h-97zM75 -12c-62 0 -90 41 -90 93c0 19 2 33 6 50l80 413h163l-70 -357c-3 -13 -5 -22 -5 -30c0 -13 7 -23 21 -23c15 0 27 14 31 35l73 375h163l-106 -544h-163l12 61c-27 -37 -64 -73 -115 -73z" />
    <glyph glyph-name="Ubreve" unicode="&#x16c;" horiz-adv-x="450" 
d="M312 716c-71 0 -117 32 -107 105h85c1 -19 12 -28 34 -28s36 9 45 28h87c-19 -73 -72 -105 -144 -105zM187 -11c-116 0 -183 63 -183 158c0 35 4 60 9 87l91 466h166l-94 -481c-2 -13 -6 -30 -6 -44c0 -21 12 -33 32 -33c11 0 19 3 26 11c10 10 15 23 20 45l98 502h166
l-95 -495c-15 -74 -38 -121 -73 -157c-37 -36 -90 -59 -157 -59z" />
    <glyph glyph-name="ubreve" unicode="&#x16d;" horiz-adv-x="415" 
d="M75 -12c-62 0 -90 41 -90 93c0 19 2 33 6 50l80 413h163l-70 -357c-3 -13 -5 -22 -5 -30c0 -13 7 -23 21 -23c15 0 27 14 31 35l73 375h163l-106 -544h-163l12 61c-27 -37 -64 -73 -115 -73zM267 564c-76 0 -120 37 -112 119h85c1 -26 13 -40 37 -40s41 14 49 40h87
c-22 -79 -75 -119 -146 -119z" />
    <glyph glyph-name="Ucircumflex" unicode="&#xdb;" horiz-adv-x="450" 
d="M187 -11c-116 0 -183 63 -183 158c0 35 4 60 9 87l91 466h166l-94 -481c-2 -13 -6 -30 -6 -44c0 -21 12 -33 32 -33c11 0 19 3 26 11c10 10 15 23 20 45l98 502h166l-95 -495c-15 -74 -38 -121 -73 -157c-37 -36 -90 -59 -157 -59zM176 723l94 105h124l54 -105h-94
l-34 36l-46 -36h-98z" />
    <glyph glyph-name="ucircumflex" unicode="&#xfb;" horiz-adv-x="415" 
d="M128 569l103 122h114l55 -122h-88l-37 44l-55 -44h-92zM75 -12c-62 0 -90 41 -90 93c0 19 2 33 6 50l80 413h163l-70 -357c-3 -13 -5 -22 -5 -30c0 -13 7 -23 21 -23c15 0 27 14 31 35l73 375h163l-106 -544h-163l12 61c-27 -37 -64 -73 -115 -73z" />
    <glyph glyph-name="Udieresis" unicode="&#xdc;" horiz-adv-x="450" 
d="M177 723l21 112h122l-21 -112h-122zM328 723l21 112h122l-21 -112h-122zM187 -11c-116 0 -183 63 -183 158c0 35 4 60 9 87l91 466h166l-94 -481c-2 -13 -6 -30 -6 -44c0 -21 12 -33 32 -33c11 0 19 3 26 11c10 10 15 23 20 45l98 502h166l-95 -495
c-15 -74 -38 -121 -73 -157c-37 -36 -90 -59 -157 -59z" />
    <glyph glyph-name="udieresis" unicode="&#xfc;" horiz-adv-x="415" 
d="M134 570l23 120h118l-23 -120h-118zM279 570l22 120h118l-22 -120h-118zM75 -12c-62 0 -90 41 -90 93c0 19 2 33 6 50l80 413h163l-70 -357c-3 -13 -5 -22 -5 -30c0 -13 7 -23 21 -23c15 0 27 14 31 35l73 375h163l-106 -544h-163l12 61c-27 -37 -64 -73 -115 -73z" />
    <glyph glyph-name="Ugrave" unicode="&#xd9;" horiz-adv-x="450" 
d="M255 723l-97 76l160 36l47 -112h-110zM187 -11c-116 0 -183 63 -183 158c0 35 4 60 9 87l91 466h166l-94 -481c-2 -13 -6 -30 -6 -44c0 -21 12 -33 32 -33c11 0 19 3 26 11c10 10 15 23 20 45l98 502h166l-95 -495c-15 -74 -38 -121 -73 -157c-37 -36 -90 -59 -157 -59z
" />
    <glyph glyph-name="ugrave" unicode="&#xf9;" horiz-adv-x="415" 
d="M75 -12c-62 0 -90 41 -90 93c0 19 2 33 6 50l80 413h163l-70 -357c-3 -13 -5 -22 -5 -30c0 -13 7 -23 21 -23c15 0 27 14 31 35l73 375h163l-106 -544h-163l12 61c-27 -37 -64 -73 -115 -73zM219 569l-103 93l143 40l53 -133h-93z" />
    <glyph glyph-name="Uhungarumlaut" unicode="&#x170;" horiz-adv-x="450" 
d="M187 -11c-116 0 -183 63 -183 158c0 35 4 60 9 87l91 466h166l-94 -481c-2 -13 -6 -30 -6 -44c0 -21 12 -33 32 -33c11 0 19 3 26 11c10 10 15 23 20 45l98 502h166l-95 -495c-15 -74 -38 -121 -73 -157c-37 -36 -90 -59 -157 -59zM325 723l45 59l-86 -59h-102l85 112
l121 -29l22 29l132 -32l-116 -80h-101z" />
    <glyph glyph-name="uhungarumlaut" unicode="&#x171;" horiz-adv-x="415" 
d="M75 -12c-62 0 -90 41 -90 93c0 19 2 33 6 50l80 413h163l-70 -357c-3 -13 -5 -22 -5 -30c0 -13 7 -23 21 -23c15 0 27 14 31 35l73 375h163l-106 -544h-163l12 61c-27 -37 -64 -73 -115 -73zM268 569l48 65l-87 -65h-84l97 133l99 -33l24 33l114 -37l-127 -96h-84z" />
    <glyph glyph-name="Umacron" unicode="&#x16a;" horiz-adv-x="450" 
d="M179 725l20 100h269l-20 -100h-269zM187 -11c-116 0 -183 63 -183 158c0 35 4 60 9 87l91 466h166l-94 -481c-2 -13 -6 -30 -6 -44c0 -21 12 -33 32 -33c11 0 19 3 26 11c10 10 15 23 20 45l98 502h166l-95 -495c-15 -74 -38 -121 -73 -157c-37 -36 -90 -59 -157 -59z
" />
    <glyph glyph-name="umacron" unicode="&#x16b;" horiz-adv-x="415" 
d="M75 -12c-62 0 -90 41 -90 93c0 19 2 33 6 50l80 413h163l-70 -357c-3 -13 -5 -22 -5 -30c0 -13 7 -23 21 -23c15 0 27 14 31 35l73 375h163l-106 -544h-163l12 61c-27 -37 -64 -73 -115 -73zM136 571l20 98h257l-20 -98h-257z" />
    <glyph glyph-name="Uogonek" unicode="&#x172;" horiz-adv-x="450" 
d="M249 -57l-16 -83c-20 -3 -40 -4 -63 -4c-70 0 -106 18 -106 57c0 28 16 54 53 85c-73 20 -113 75 -113 149c0 35 4 60 9 87l91 466h166l-94 -481c-2 -13 -6 -30 -6 -44c0 -21 12 -33 32 -33c11 0 19 3 26 11c10 10 15 23 20 45l98 502h166l-95 -495
c-15 -74 -38 -121 -73 -157c-31 -30 -73 -51 -125 -57c-12 -13 -15 -21 -15 -28c0 -11 9 -16 45 -20z" />
    <glyph glyph-name="uogonek" unicode="&#x173;" horiz-adv-x="415" 
d="M75 -12c-62 0 -90 41 -90 93c0 19 2 33 6 50l80 413h163l-70 -357c-3 -13 -5 -22 -5 -30c0 -13 7 -23 21 -23c15 0 27 14 31 35l73 375h163l-106 -544h-24c-18 -19 -23 -28 -23 -37c0 -11 9 -16 45 -20l-16 -83c-20 -3 -40 -4 -63 -4c-70 0 -106 18 -106 57
c0 29 17 56 55 87h-31l12 61c-27 -37 -64 -73 -115 -73z" />
    <glyph glyph-name="Uring" unicode="&#x16e;" horiz-adv-x="450" 
d="M187 -11c-116 0 -183 63 -183 158c0 35 4 60 9 87l91 466h166l-94 -481c-2 -13 -6 -30 -6 -44c0 -21 12 -33 32 -33c11 0 19 3 26 11c10 10 15 23 20 45l98 502h166l-95 -495c-15 -74 -38 -121 -73 -157c-37 -36 -90 -59 -157 -59zM339 906c51 0 94 -34 94 -85
c0 -59 -46 -106 -113 -106c-51 0 -94 34 -94 84c0 59 45 107 113 107zM325 764c31 0 52 24 52 52c0 24 -17 41 -43 41c-31 0 -52 -24 -52 -52c0 -25 17 -41 43 -41z" />
    <glyph glyph-name="uring" unicode="&#x16f;" horiz-adv-x="415" 
d="M380 672c0 -53 -40 -109 -109 -109c-46 0 -86 30 -86 84c0 52 40 109 109 109c47 0 86 -31 86 -84zM240 650c0 -21 13 -38 36 -38c26 0 49 22 49 57c0 20 -12 38 -36 38c-26 0 -49 -23 -49 -57zM75 -12c-62 0 -90 41 -90 93c0 19 2 33 6 50l80 413h163l-70 -357
c-3 -13 -5 -22 -5 -30c0 -13 7 -23 21 -23c15 0 27 14 31 35l73 375h163l-106 -544h-163l12 61c-27 -37 -64 -73 -115 -73z" />
    <glyph glyph-name="Wacute" unicode="&#x1e82;" horiz-adv-x="653" 
d="M351 724l85 112l155 -36l-125 -76h-115zM54 -1l26 701h172l-36 -387l124 387h138l-27 -387l114 387h174l-246 -701h-173l15 314l-107 -314h-174z" />
    <glyph glyph-name="wacute" unicode="&#x1e83;" horiz-adv-x="563" 
d="M280 570l97 133l135 -40l-135 -93h-97zM45 -2l6 546h160l-21 -265l81 265h125l-21 -265l81 265h161l-205 -546h-143l2 235l-81 -235h-145z" />
    <glyph glyph-name="Wcircumflex" unicode="&#x174;" horiz-adv-x="653" 
d="M54 -1l26 701h172l-36 -387l124 387h138l-27 -387l114 387h174l-246 -701h-173l15 314l-107 -314h-174zM276 724l94 105h124l54 -105h-94l-34 36l-46 -36h-98z" />
    <glyph glyph-name="wcircumflex" unicode="&#x175;" horiz-adv-x="563" 
d="M202 570l103 122h114l55 -122h-88l-37 44l-55 -44h-92zM45 -2l6 546h160l-21 -265l81 265h125l-21 -265l81 265h161l-205 -546h-143l2 235l-81 -235h-145z" />
    <glyph glyph-name="Wdieresis" unicode="&#x1e84;" horiz-adv-x="653" 
d="M278 724l21 112h122l-21 -112h-122zM429 724l21 112h122l-21 -112h-122zM54 -1l26 701h172l-36 -387l124 387h138l-27 -387l114 387h174l-246 -701h-173l15 314l-107 -314h-174z" />
    <glyph glyph-name="wdieresis" unicode="&#x1e85;" horiz-adv-x="563" 
d="M208 571l23 120h118l-23 -120h-118zM353 571l22 120h118l-22 -120h-118zM45 -2l6 546h160l-21 -265l81 265h125l-21 -265l81 265h161l-205 -546h-143l2 235l-81 -235h-145z" />
    <glyph glyph-name="Wgrave" unicode="&#x1e80;" horiz-adv-x="653" 
d="M354 724l-97 76l160 36l47 -112h-110zM54 -1l26 701h172l-36 -387l124 387h138l-27 -387l114 387h174l-246 -701h-173l15 314l-107 -314h-174z" />
    <glyph glyph-name="wgrave" unicode="&#x1e81;" horiz-adv-x="563" 
d="M45 -2l6 546h160l-21 -265l81 265h125l-21 -265l81 265h161l-205 -546h-143l2 235l-81 -235h-145zM295 570l-103 93l143 40l53 -133h-93z" />
    <glyph glyph-name="Yacute" unicode="&#xdd;" horiz-adv-x="425" 
d="M76 0l49 251l-48 449h166l5 -237l97 237h168l-221 -449l-50 -251h-166zM234 723l85 112l155 -36l-125 -76h-115z" />
    <glyph glyph-name="yacute" unicode="&#xfd;" horiz-adv-x="396" 
d="M64 9l-15 535h161l-15 -289l96 289h163l-288 -674h-162zM196 569l97 133l135 -40l-135 -93h-97z" />
    <glyph glyph-name="Ycircumflex" unicode="&#x176;" horiz-adv-x="425" 
d="M76 0l49 251l-48 449h166l5 -237l97 237h168l-221 -449l-50 -251h-166zM160 723l94 105h124l54 -105h-94l-34 36l-46 -36h-98z" />
    <glyph glyph-name="ycircumflex" unicode="&#x177;" horiz-adv-x="396" 
d="M64 9l-15 535h161l-15 -289l96 289h163l-288 -674h-162zM117 569l103 122h114l55 -122h-88l-37 44l-55 -44h-92z" />
    <glyph glyph-name="Ydieresis" unicode="&#x178;" horiz-adv-x="425" 
d="M76 0l49 251l-48 449h166l5 -237l97 237h168l-221 -449l-50 -251h-166zM162 723l21 112h122l-21 -112h-122zM313 723l21 112h122l-21 -112h-122z" />
    <glyph glyph-name="ydieresis" unicode="&#xff;" horiz-adv-x="396" 
d="M64 9l-15 535h161l-15 -289l96 289h163l-288 -674h-162zM269 570l22 120h118l-22 -120h-118zM124 570l23 120h118l-23 -120h-118z" />
    <glyph glyph-name="Ygrave" unicode="&#x1ef2;" horiz-adv-x="425" 
d="M76 0l49 251l-48 449h166l5 -237l97 237h168l-221 -449l-50 -251h-166zM239 723l-97 76l160 36l47 -112h-110z" />
    <glyph glyph-name="ygrave" unicode="&#x1ef3;" horiz-adv-x="396" 
d="M64 9l-15 535h161l-15 -289l96 289h163l-288 -674h-162zM210 569l-103 93l143 40l53 -133h-93z" />
    <glyph glyph-name="Zacute" unicode="&#x179;" horiz-adv-x="369" 
d="M-39 0l28 142l229 400h-148l31 158h337l-28 -142l-227 -400h151l-30 -158h-343zM207 724l85 112l155 -36l-125 -76h-115z" />
    <glyph glyph-name="zacute" unicode="&#x17a;" horiz-adv-x="334" 
d="M165 570l97 133l135 -40l-135 -93h-97zM-42 0l24 123l189 285h-132l26 136h312l-23 -122l-190 -286h135l-26 -136h-315z" />
    <glyph glyph-name="Zcaron" unicode="&#x17d;" horiz-adv-x="369" 
d="M425 829l-94 -105h-124l-54 105h94l34 -36l46 36h98zM-39 0l28 142l229 400h-148l31 158h337l-28 -142l-227 -400h151l-30 -158h-343z" />
    <glyph glyph-name="zcaron" unicode="&#x17e;" horiz-adv-x="334" 
d="M165 570l-55 122h88l37 -44l55 44h92l-103 -122h-114zM-42 0l24 123l189 285h-132l26 136h312l-23 -122l-190 -286h135l-26 -136h-315z" />
    <glyph glyph-name="Zdotaccent" unicode="&#x17b;" horiz-adv-x="369" 
d="M205 724l21 112h129l-21 -112h-129zM-39 0l28 142l229 400h-148l31 158h337l-28 -142l-227 -400h151l-30 -158h-343z" />
    <glyph glyph-name="zdotaccent" unicode="&#x17c;" horiz-adv-x="334" 
d="M-42 0l24 123l189 285h-132l26 136h312l-23 -122l-190 -286h135l-26 -136h-315zM160 571l22 120h128l-23 -120h-127z" />
    <glyph glyph-name="schwa" unicode="&#x259;" horiz-adv-x="400" 
d="M-1 169c0 50 12 110 26 170h214c1 4 1 7 1 9c0 49 -25 67 -76 67c-36 0 -70 -9 -110 -28l18 142c34 16 79 28 133 28c127 0 190 -71 190 -200c0 -82 -29 -235 -106 -313c-38 -37 -83 -59 -137 -59c-94 0 -153 63 -153 184zM187 135c14 14 26 56 35 99h-68
c-6 -32 -9 -55 -9 -71c0 -27 8 -37 23 -37c6 0 13 3 19 9z" />
    <glyph glyph-name="germandbls" unicode="&#xdf;" horiz-adv-x="451" 
d="M169 0l27 136c51 7 73 48 73 101c0 35 -14 54 -40 66l23 121c39 16 61 66 61 112c0 27 -11 44 -30 44c-27 0 -43 -27 -54 -80l-98 -500h-163l99 510c12 64 35 112 69 146c39 40 91 59 159 59c121 0 183 -71 183 -165c0 -90 -42 -157 -117 -190c39 -28 68 -68 68 -134
c0 -140 -87 -238 -260 -226z" />
    <glyph glyph-name="zero" unicode="0" horiz-adv-x="448" 
d="M290 713c100 0 176 -57 176 -210c0 -76 -32 -353 -140 -461c-38 -37 -83 -55 -137 -55c-100 0 -176 57 -176 210c0 76 32 353 140 461c38 37 83 55 137 55zM200 137c9 0 15 3 23 10c37 38 86 300 86 369c0 36 -13 47 -30 47c-9 0 -15 -3 -23 -10
c-37 -38 -86 -300 -86 -369c0 -37 14 -47 30 -47z" />
    <glyph glyph-name="one" unicode="1" horiz-adv-x="274" 
d="M32 0l99 523l-76 -19l30 161l119 36h126l-131 -701h-167z" />
    <glyph glyph-name="two" unicode="2" horiz-adv-x="371" 
d="M-35 0l29 153l185 248c33 45 48 75 48 106c0 26 -14 44 -54 44c-33 0 -61 -8 -101 -24l29 163c38 13 77 21 125 22c116 0 175 -65 175 -162c0 -67 -23 -126 -85 -208l-137 -178h156l-32 -164h-338z" />
    <glyph glyph-name="three" unicode="3" horiz-adv-x="363" 
d="M112 -12c-58 0 -108 14 -144 34l30 158c36 -19 70 -31 106 -31c54 0 80 36 80 76c0 42 -26 66 -113 79l20 109l125 130h-151l30 157h334l-29 -151l-149 -154c62 -30 98 -79 98 -157c0 -68 -22 -135 -72 -184c-41 -42 -96 -66 -165 -66z" />
    <glyph glyph-name="three.alt" horiz-adv-x="369" 
d="M115 -12c-57 0 -111 13 -148 31l30 156c33 -17 69 -30 107 -30c47 0 78 29 78 74c0 37 -24 65 -110 71l27 136c98 0 138 36 138 79c0 31 -21 50 -64 50c-31 0 -60 -8 -99 -20l30 156c35 12 77 21 125 21c119 0 181 -63 181 -163c0 -101 -58 -169 -144 -201
c47 -28 79 -72 79 -138c0 -131 -90 -222 -230 -222z" />
    <glyph glyph-name="four" unicode="4" horiz-adv-x="436" 
d="M162 0l22 112h-205l24 122l277 466h175l-87 -448h57l-28 -140h-57l-21 -112h-157zM141 252h73l41 209z" />
    <glyph glyph-name="five" unicode="5" horiz-adv-x="379" 
d="M109 -12c-53 0 -101 14 -135 31l31 161c28 -18 60 -32 96 -32c60 0 96 51 96 112c0 36 -17 56 -51 56c-17 0 -29 -3 -43 -8l-69 39l87 353h302l-31 -158h-178l-23 -94c7 1 16 2 23 2c103 0 151 -55 151 -161c0 -93 -31 -181 -87 -236c-44 -44 -100 -65 -169 -65z" />
    <glyph glyph-name="six" unicode="6" horiz-adv-x="412" 
d="M175 -12c-51 0 -89 15 -115 41c-34 33 -50 85 -50 158c0 125 50 366 143 459c48 48 96 64 160 64c40 0 86 -9 120 -24l-28 -149c-25 13 -60 26 -92 26c-27 0 -47 -7 -63 -23c-18 -19 -32 -49 -43 -93c21 8 45 13 66 13c76 0 128 -46 128 -152c0 -89 -32 -206 -92 -265
c-37 -37 -83 -55 -134 -55zM186 126c6 0 13 3 20 10c23 23 40 114 40 154c0 34 -13 45 -32 45c-12 0 -21 -3 -30 -6l-4 -22c-15 -69 -21 -117 -21 -139c0 -16 3 -28 9 -34c5 -6 11 -8 18 -8z" />
    <glyph glyph-name="seven" unicode="7" horiz-adv-x="347" 
d="M-4 0l219 538h-155l31 162h328l-22 -115l-233 -585h-168z" />
    <glyph glyph-name="eight" unicode="8" horiz-adv-x="414" 
d="M178 -14c-114 0 -184 69 -184 172c0 97 42 180 115 218c-31 37 -46 76 -46 124c0 115 72 214 203 214c108 0 176 -67 176 -170c0 -76 -37 -154 -105 -190c33 -33 52 -75 52 -132c0 -125 -75 -236 -211 -236zM180 117c43 0 58 100 58 136c0 34 -12 48 -30 48
c-43 0 -59 -100 -59 -136c0 -34 12 -48 31 -48zM239 420c38 0 51 90 51 120c0 26 -9 42 -30 42c-38 0 -50 -90 -50 -120c0 -26 8 -42 29 -42z" />
    <glyph glyph-name="nine" unicode="9" horiz-adv-x="412" 
d="M130 -8c-47 0 -96 10 -132 27l28 149c26 -15 66 -30 103 -30c28 0 48 7 64 24c17 17 30 43 40 85c-21 -8 -45 -14 -66 -14c-75 0 -127 50 -128 156c0 95 35 211 94 270c37 37 83 55 134 55c50 0 89 -14 116 -41c33 -33 49 -85 49 -159c0 -124 -50 -366 -142 -459
c-48 -48 -97 -63 -160 -63zM226 359c12 0 21 3 30 6l5 24c15 72 22 122 22 145c0 15 -3 28 -9 34c-5 6 -11 7 -17 7c-7 0 -14 -2 -20 -9c-24 -24 -43 -115 -43 -159c0 -34 13 -48 32 -48z" />
    <glyph glyph-name="period" unicode="." horiz-adv-x="213" 
d="M-33 0l34 175h174l-35 -175h-173z" />
    <glyph glyph-name="comma" unicode="," horiz-adv-x="213" 
d="M-53 -140l-3 63c73 10 100 42 109 77h-86l34 175h174l-31 -158c-21 -109 -95 -151 -197 -157z" />
    <glyph glyph-name="colon" unicode=":" horiz-adv-x="215" 
d="M-32 0l34 175h174l-35 -175h-173zM40 369l34 175h173l-34 -175h-173z" />
    <glyph glyph-name="semicolon" unicode=";" horiz-adv-x="215" 
d="M-52 -140l-3 63c73 10 100 42 109 77h-86l34 175h174l-31 -158c-21 -109 -95 -151 -197 -157zM40 369l34 175h173l-34 -175h-173z" />
    <glyph glyph-name="ellipsis" unicode="&#x2026;" horiz-adv-x="656" 
d="M-31 0l34 175h174l-35 -175h-173zM188 0l35 175h173l-34 -175h-174zM408 0l34 175h173l-34 -175h-173z" />
    <glyph glyph-name="periodcentered" unicode="&#xb7;" horiz-adv-x="218" 
d="M13 226l34 175h173l-34 -175h-173z" />
    <glyph glyph-name="bullet" unicode="&#x2022;" horiz-adv-x="371" 
d="M226 537c62 0 109 -37 109 -124c0 -64 -23 -159 -68 -203c-23 -24 -53 -39 -90 -39c-62 0 -109 37 -109 124c0 64 23 159 68 203c23 24 53 39 90 39z" />
    <glyph glyph-name="ampersand" unicode="&#x26;" horiz-adv-x="482" 
d="M366 330l117 -31c-17 -70 -46 -134 -84 -185l31 -80l-126 -54l-16 42c-35 -21 -73 -33 -114 -33c-109 0 -184 65 -184 173c0 92 51 176 144 232c-21 50 -30 85 -30 131c0 91 58 187 178 187c99 0 164 -61 164 -150c0 -82 -46 -158 -144 -218l35 -97c11 25 21 53 29 83z
M202 124c11 0 22 2 33 9l-53 145c-26 -31 -36 -63 -36 -94c0 -35 17 -60 56 -60zM242 521c0 -24 3 -45 13 -69c39 32 55 63 55 96c0 22 -9 38 -28 38c-25 0 -40 -30 -40 -65z" />
    <glyph glyph-name="exclam" unicode="!" horiz-adv-x="228" 
d="M69 228l27 458l2 14h199l-3 -14l-151 -458h-74zM-25 0l33 171h173l-33 -171h-173z" />
    <glyph glyph-name="exclamdown" unicode="&#xa1;" horiz-adv-x="228" 
d="M189 472l-27 -458l-2 -14h-199l3 14l151 458h74zM283 700l-33 -171h-173l33 171h173z" />
    <glyph glyph-name="question" unicode="?" horiz-adv-x="348" 
d="M74 228l23 183l5 6c80 12 112 45 112 84c0 30 -22 48 -68 48c-30 0 -58 -7 -86 -17l30 157c31 11 72 19 113 19c114 0 188 -64 188 -168c1 -104 -59 -184 -167 -216l-41 -96h-109zM0 0l33 171h173l-33 -171h-173z" />
    <glyph glyph-name="questiondown" unicode="&#xbf;" horiz-adv-x="348" 
d="M304 472l-23 -183l-5 -6c-80 -12 -112 -45 -112 -84c0 -30 22 -48 68 -48c30 0 58 7 86 17l-30 -157c-31 -11 -72 -19 -113 -19c-114 0 -188 64 -188 168c-1 104 59 184 167 216l41 96h109zM378 700l-33 -171h-173l33 171h173z" />
    <glyph glyph-name="quotedblleft" unicode="&#x201c;" horiz-adv-x="407" 
d="M43 390l30 158c21 107 95 150 190 157l3 -63c-66 -11 -93 -44 -102 -77h79l-34 -175h-166zM242 390l31 158c21 107 95 150 189 157l3 -63c-65 -11 -92 -44 -101 -77h79l-35 -175h-166z" />
    <glyph glyph-name="quotedblright" unicode="&#x201d;" horiz-adv-x="407" 
d="M50 385l-3 63c66 11 93 44 102 77h-79l34 175h166l-30 -158c-21 -107 -95 -150 -190 -157zM250 385l-3 63c65 11 93 44 102 77h-79l34 175h166l-31 -158c-20 -107 -95 -150 -189 -157z" />
    <glyph glyph-name="quoteleft" unicode="&#x2018;" horiz-adv-x="215" 
d="M43 390l30 158c21 109 95 151 197 157l3 -63c-73 -10 -99 -42 -109 -77h86l-34 -175h-173z" />
    <glyph glyph-name="quoteright" unicode="&#x2019;" horiz-adv-x="215" 
d="M50 385l-3 63c73 10 100 42 109 77h-86l34 175h174l-31 -158c-21 -109 -95 -151 -197 -157z" />
    <glyph glyph-name="quotedblbase" unicode="&#x201e;" horiz-adv-x="414" 
d="M-48 -140l-3 63c65 11 93 44 101 77h-78l34 175h166l-31 -158c-21 -107 -95 -150 -189 -157zM151 -140l-3 63c66 11 93 44 102 77h-79l34 175h166l-30 -158c-21 -107 -95 -150 -190 -157z" />
    <glyph glyph-name="quotesinglbase" unicode="&#x201a;" horiz-adv-x="220" 
d="M-48 -140l-3 63c72 10 99 42 109 77h-86l34 175h173l-31 -158c-20 -109 -95 -151 -196 -157z" />
    <glyph glyph-name="guillemotleft" unicode="&#xab;" horiz-adv-x="419" 
d="M88 45l-79 213l5 28l158 213l91 -42l-114 -186l45 -187zM265 45l-81 223l2 8l167 223l91 -42l-116 -186l43 -187z" />
    <glyph glyph-name="guillemotright" unicode="&#xbb;" horiz-adv-x="419" 
d="M330 498l79 -213l-5 -28l-158 -213l-91 42l114 186l-45 187zM153 498l81 -223l-2 -8l-167 -223l-91 42l116 186l-43 187z" />
    <glyph glyph-name="guilsinglleft" unicode="&#x2039;" horiz-adv-x="240" 
d="M86 45l-77 213l5 28l160 213l91 -42l-116 -186l43 -187z" />
    <glyph glyph-name="guilsinglright" unicode="&#x203a;" horiz-adv-x="240" 
d="M153 498l77 -213l-5 -28l-160 -213l-91 42l116 186l-43 187z" />
    <glyph glyph-name="hyphen" unicode="-" horiz-adv-x="318" 
d="M13 234l31 160h278l-31 -160h-278z" />
    <glyph glyph-name="endash" unicode="&#x2013;" horiz-adv-x="441" 
d="M13 240l28 148h404l-29 -148h-403z" />
    <glyph glyph-name="emdash" unicode="&#x2014;" horiz-adv-x="669" 
d="M14 240l28 148h631l-28 -148h-631z" />
    <glyph glyph-name="underscore" unicode="_" horiz-adv-x="496" 
d="M-84 -151l23 118h500l-23 -118h-500z" />
    <glyph glyph-name="slash" unicode="/" horiz-adv-x="323" 
d="M-95 -98l407 866h121l-406 -866h-122z" />
    <glyph glyph-name="backslash" unicode="\" horiz-adv-x="322" 
d="M159 -98l-77 866h110l77 -866h-110z" />
    <glyph glyph-name="bar" unicode="|" horiz-adv-x="219" 
d="M-16 -98l168 866h108l-168 -866h-108z" />
    <glyph glyph-name="parenleft" unicode="(" horiz-adv-x="285" 
d="M193 -135c-117 28 -184 142 -184 309c0 154 47 343 156 451c56 56 123 83 192 82l-23 -117c-21 -7 -39 -17 -59 -36c-88 -88 -119 -330 -119 -424c0 -70 18 -123 59 -149z" />
    <glyph glyph-name="parenright" unicode=")" horiz-adv-x="285" 
d="M95 706c117 -28 184 -142 184 -309c0 -154 -47 -343 -156 -451c-56 -56 -123 -83 -192 -82l23 117c21 7 39 17 59 36c88 88 119 330 119 424c0 70 -18 123 -59 149z" />
    <glyph glyph-name="bracketleft" unicode="[" horiz-adv-x="269" 
d="M-48 -130l161 830h226l-22 -111h-83l-118 -608h83l-21 -111h-226z" />
    <glyph glyph-name="bracketright" unicode="]" horiz-adv-x="269" 
d="M322 700l-161 -830h-226l22 111h83l118 608h-83l21 111h226z" />
    <glyph glyph-name="braceleft" unicode="{" horiz-adv-x="321" 
d="M229 -135c-144 18 -199 71 -199 144c0 38 14 70 28 98c15 28 27 52 27 77c0 29 -25 43 -65 43h-15l23 117h15c32 0 54 6 68 20c25 26 23 66 20 116c-3 56 -3 119 45 167c40 40 109 61 217 58l-23 -112c-39 -1 -63 -8 -79 -24c-24 -24 -22 -63 -19 -112
c3 -45 6 -96 -30 -132c-22 -22 -54 -35 -101 -41c60 -16 90 -49 90 -92c0 -34 -12 -58 -30 -92c-16 -33 -24 -48 -24 -68c0 -28 22 -45 74 -55z" />
    <glyph glyph-name="braceright" unicode="}" horiz-adv-x="321" 
d="M97 705c144 -18 199 -71 199 -144c0 -38 -14 -70 -28 -98c-15 -28 -27 -52 -27 -77c0 -29 25 -43 65 -43h15l-23 -117h-15c-32 0 -54 -6 -68 -20c-25 -26 -23 -66 -20 -116c3 -56 3 -119 -45 -167c-40 -40 -109 -61 -217 -58l23 112c39 1 63 8 79 24c24 24 22 63 19 112
c-3 45 -6 96 30 132c22 22 54 35 101 41c-60 16 -90 49 -90 92c0 34 12 58 30 92c16 33 24 48 24 68c0 28 -22 45 -74 55z" />
    <glyph glyph-name="at" unicode="@" horiz-adv-x="602" 
d="M250 -135c-147 0 -245 101 -245 291c0 277 147 555 374 555c141 0 227 -111 227 -273c0 -187 -75 -387 -205 -387c-54 0 -85 32 -91 88c-28 -47 -63 -83 -111 -83c-46 0 -80 34 -80 114c0 137 85 356 189 356c41 0 61 -28 67 -69l15 60l113 -16l-76 -311
c-5 -18 -11 -47 -11 -62s6 -23 19 -23c55 0 128 159 128 330c0 138 -67 234 -189 234c-194 0 -325 -267 -325 -510c0 -162 76 -253 205 -253c49 0 101 14 147 45l20 -36c-54 -32 -109 -50 -171 -50zM259 147c38 0 90 179 90 250c0 18 -5 29 -17 29c-41 0 -91 -182 -91 -249
c0 -21 6 -30 18 -30z" />
    <glyph glyph-name="copyright" unicode="&#xa9;" horiz-adv-x="503" 
d="M263 137c-78 0 -125 50 -125 143c0 73 27 184 81 239c29 29 63 44 103 44c35 0 56 -8 75 -18l-22 -103c-15 12 -30 17 -47 17c-14 0 -25 -5 -36 -15c-26 -26 -44 -112 -44 -151c0 -37 15 -51 44 -51c16 0 28 3 48 11l-21 -104c-18 -8 -34 -12 -56 -12zM512 473
c0 -113 -37 -320 -133 -417c-42 -42 -93 -70 -163 -70c-115 0 -196 86 -196 241c0 113 36 320 132 417c43 42 93 70 164 70c114 0 196 -86 196 -241zM57 228c0 -131 61 -207 161 -207c55 0 96 19 136 59c84 84 120 289 120 392c0 131 -61 207 -161 207
c-55 0 -96 -19 -136 -59c-84 -84 -120 -289 -120 -392z" />
    <glyph glyph-name="published" unicode="&#x2117;" horiz-adv-x="503" 
d="M207 559h76c83 0 133 -36 133 -115c0 -84 -46 -177 -165 -177h-2l-24 -121h-98zM318 436c0 23 -10 37 -28 37h-1l-23 -120h3c40 0 49 63 49 83zM316 714c114 0 196 -86 196 -241c0 -113 -37 -320 -133 -417c-42 -42 -93 -70 -163 -70c-115 0 -196 86 -196 241
c0 113 36 320 132 417c43 42 93 70 164 70zM218 21c55 0 96 19 136 59c84 84 120 289 120 392c0 131 -61 207 -161 207c-55 0 -96 -19 -136 -59c-84 -84 -120 -289 -120 -392c0 -131 61 -207 161 -207z" />
    <glyph glyph-name="registered.alt" horiz-adv-x="503" 
d="M316 714c114 0 196 -86 196 -241c0 -113 -37 -320 -133 -417c-42 -42 -93 -70 -163 -70c-115 0 -196 86 -196 241c0 113 36 320 132 417c43 42 93 70 164 70zM218 21c55 0 96 19 136 59c84 84 120 289 120 392c0 131 -61 207 -161 207c-55 0 -96 -19 -136 -59
c-84 -84 -120 -289 -120 -392c0 -131 61 -207 161 -207zM239 276l-25 -128h-98l81 413h73c52 0 90 -11 113 -34c19 -19 28 -45 28 -80c0 -50 -17 -88 -44 -115c-9 -10 -20 -18 -31 -24l26 -160h-104l-16 128h-3zM255 357h3c12 0 21 2 30 12c14 13 23 45 23 70
c0 12 -3 21 -9 28c-5 5 -12 8 -21 8h-3z" />
    <glyph glyph-name="registered" unicode="&#xae;" horiz-adv-x="274" 
d="M213 710c60 0 100 -46 100 -120c0 -60 -19 -145 -67 -193c-21 -21 -48 -35 -84 -35c-59 0 -99 47 -99 120c0 60 19 146 67 193c21 22 48 35 83 35zM164 379c28 0 50 11 69 30c43 43 60 126 60 180c0 63 -29 104 -81 104c-28 0 -50 -11 -70 -30c-43 -43 -59 -126 -59 -179
c0 -64 29 -105 81 -105zM174 501l-11 -61h-49l36 197h38c47 0 71 -15 72 -53c0 -32 -14 -56 -37 -68l15 -76h-52l-9 61h-3zM182 542h2c6 0 11 1 16 5c7 7 10 19 10 30s-6 18 -16 18h-3z" />
    <glyph glyph-name="servicemark" unicode="&#x2120;" horiz-adv-x="438" 
d="M120 381c-32 0 -62 10 -80 23l14 75c22 -15 43 -25 62 -25c15 0 23 9 23 21c0 11 -8 21 -19 35c-25 28 -45 54 -45 91c0 31 10 57 29 76c16 16 43 27 74 27c30 0 52 -7 69 -17l-14 -75c-17 11 -36 19 -54 19c-15 0 -24 -9 -24 -21s8 -21 20 -36c27 -30 45 -54 45 -91
c0 -28 -10 -55 -30 -75c-17 -17 -42 -27 -70 -27zM220 385l61 315h72l19 -94l54 94h75l-61 -315h-74l30 156l-53 -93h-1l-18 93l-30 -156h-74z" />
    <glyph glyph-name="trademark" unicode="&#x2122;" horiz-adv-x="444" 
d="M76 385l46 238h-46l15 77h171l-15 -77h-46l-46 -238h-79zM220 385l61 315h75l20 -92l55 92h76l-61 -315h-75l30 153l-55 -88h-2l-19 88l-30 -153h-75z" />
    <glyph glyph-name="asterisk" unicode="*" horiz-adv-x="325" 
d="M239 380l-110 22l55 107l-92 -67l-36 102l116 9l-105 51l72 81l60 -96l-10 120l110 -21l-55 -108l92 67l37 -102l-116 -9l104 -51l-72 -81l-60 96z" />
    <glyph glyph-name="dagger" unicode="&#x2020;" horiz-adv-x="272" 
d="M76 238l65 256l-80 -9l21 109l75 -9l5 115h114l-41 -115l79 9l-21 -109l-76 9l-35 -256h-106z" />
    <glyph glyph-name="daggerdbl" unicode="&#x2021;" horiz-adv-x="283" 
d="M32 0l40 115l-79 -9l22 109l77 -9l10 144l46 144l-82 -9l22 109l75 -9l5 115h113l-40 -115l79 9l-21 -109l-78 9l-10 -144l-45 -144l81 9l-21 -109l-75 9l-6 -115h-113z" />
    <glyph glyph-name="dollar" unicode="$" horiz-adv-x="384" 
d="M231 774h119l-16 -81c33 -6 62 -18 87 -33l-31 -167c-37 27 -84 47 -122 47c-28 0 -45 -19 -45 -39c0 -22 11 -40 55 -94c57 -70 84 -113 84 -184c0 -109 -63 -192 -161 -216l-22 -114h-119l22 114c-41 8 -76 26 -103 45l33 167c36 -28 88 -57 134 -57c27 0 47 15 47 40
c0 21 -6 32 -55 91c-54 66 -84 120 -84 185c0 121 72 192 161 214z" />
    <glyph glyph-name="sterling" unicode="&#xa3;" horiz-adv-x="399" 
d="M-38 0l23 117l65 30l23 119h-56l28 146h56l15 79c15 77 35 127 75 167c36 36 85 53 148 53c50 0 90 -10 116 -22l-30 -152c-21 11 -43 18 -67 18c-23 0 -40 -7 -52 -19c-16 -16 -23 -36 -29 -65l-11 -59h110l-29 -146h-109l-21 -110h146l-29 -156h-372z" />
    <glyph glyph-name="Euro" unicode="&#x20ac;" horiz-adv-x="404" 
d="M28 376l22 110h45c21 59 52 117 92 157c46 46 99 67 158 67c53 0 89 -10 120 -26l-33 -163c-27 21 -50 32 -78 32c-22 0 -43 -10 -61 -27c-10 -10 -19 -25 -28 -43h104l-20 -107h-119l-10 -49h119l-21 -107h-107c6 -53 33 -76 79 -76c24 0 45 7 78 20l-31 -153
c-29 -14 -57 -21 -90 -21c-122 0 -197 75 -199 227h-51l21 110h40c3 14 5 30 9 49h-39z" />
    <glyph glyph-name="yen" unicode="&#xa5;" horiz-adv-x="428" 
d="M76 0l18 95h-102l24 121h101l9 47h-102l24 121h69l-45 316h159l15 -240l100 240h169l-169 -316h70l-25 -121h-102l-9 -47h103l-24 -121h-102l-18 -95h-163z" />
    <glyph glyph-name="cent" unicode="&#xa2;" horiz-adv-x="326" 
d="M220 705h113l-14 -76c22 -5 42 -13 56 -21l-31 -153c-21 17 -42 28 -65 28c-18 0 -32 -6 -44 -18c-38 -38 -51 -131 -51 -178c0 -51 19 -71 55 -71c22 0 40 6 62 16l-29 -151c-21 -8 -40 -12 -64 -14l-13 -73h-113l18 93c-54 29 -82 90 -82 172c0 89 27 240 105 320
c25 25 52 41 83 50z" />
    <glyph glyph-name="numbersign" unicode="#" horiz-adv-x="421" 
d="M5 0l33 143h-46l23 146h57l30 126h-51l24 146h61l33 139h107l-33 -139h62l33 139h107l-32 -139h47l-24 -146h-58l-29 -126h51l-24 -146h-61l-33 -143h-108l34 143h-62l-34 -143h-107zM175 285h69l32 134h-69z" />
    <glyph glyph-name="paragraph" unicode="&#xb6;" horiz-adv-x="352" 
d="M139 0l43 224c-37 9 -70 25 -96 50c-29 29 -46 69 -46 125c0 89 28 170 83 224c49 50 120 77 203 77h87l-136 -700h-138z" />
    <glyph glyph-name="section" unicode="&#xa7;" horiz-adv-x="424" 
d="M436 370c0 -68 -47 -113 -112 -140c21 -27 26 -55 26 -82c0 -90 -68 -160 -182 -160c-68 0 -126 25 -155 45l27 130c33 -24 77 -45 114 -45c26 0 41 12 41 29c0 14 -8 26 -59 53c-85 45 -117 74 -117 130c0 68 47 113 112 140c-20 27 -26 54 -26 82c0 90 68 160 182 160
c68 0 126 -25 155 -45l-27 -130c-33 24 -77 45 -114 45c-26 0 -40 -12 -40 -29c0 -14 8 -26 58 -53c86 -45 117 -74 117 -130zM164 358c0 -16 5 -26 51 -53l28 -15c36 18 48 36 48 52s-6 26 -51 53l-28 15c-35 -18 -48 -36 -48 -52z" />
    <glyph glyph-name="ordfeminine" unicode="&#xaa;" horiz-adv-x="240" 
d="M104 401c-28 0 -47 21 -47 63c0 25 10 126 89 126c16 0 31 -4 43 -11l1 6c1 8 2 11 2 15c0 17 -11 26 -33 26c-19 0 -44 -8 -60 -15l17 82c22 8 46 13 79 13c57 0 87 -30 87 -81c0 -10 -1 -21 -3 -33l-36 -186h-88l5 25c-16 -19 -35 -30 -56 -30zM150 461c9 0 18 8 21 24
l8 44c-4 3 -10 5 -16 5c-22 0 -25 -47 -25 -54c0 -14 6 -19 12 -19zM22 284l15 76h202l-15 -76h-202z" />
    <glyph glyph-name="ordmasculine" unicode="&#xba;" horiz-adv-x="240" 
d="M22 284l14 76h197l-15 -76h-196zM147 492c0 -13 5 -18 12 -18c2 0 6 1 8 4c17 16 32 109 32 133c0 13 -5 18 -12 18c-3 0 -6 -1 -9 -4c-16 -16 -31 -109 -31 -133zM284 605c0 -40 -15 -134 -59 -179c-20 -19 -44 -30 -73 -30c-62 0 -90 45 -90 102c0 41 14 134 59 179
c19 19 44 30 72 30c62 0 91 -45 91 -102z" />
    <glyph glyph-name="degree" unicode="&#xb0;" horiz-adv-x="274" 
d="M209 707c74 0 107 -54 107 -120c0 -45 -14 -149 -66 -201c-23 -23 -51 -35 -86 -35c-73 0 -107 53 -107 119c0 46 14 150 66 201c23 24 51 36 86 36zM170 443c4 0 7 1 11 5c17 16 36 113 36 146c0 15 -6 21 -14 21c-4 0 -7 -1 -11 -5c-17 -17 -36 -114 -36 -146
c0 -15 6 -21 14 -21z" />
    <glyph glyph-name="percent" unicode="%" horiz-adv-x="588" 
d="M37 0l241 363l214 337h89l-241 -363l-213 -337h-90zM154 306c-63 0 -102 41 -102 120c0 65 21 194 74 247c21 22 45 34 78 34c63 0 101 -42 101 -121c0 -65 -20 -194 -73 -247c-21 -21 -45 -33 -78 -33zM161 396c4 0 8 1 13 6c20 20 41 159 41 189c0 17 -5 25 -18 25
c-4 0 -8 -1 -13 -6c-20 -20 -42 -158 -42 -189c0 -16 6 -25 19 -25zM415 -7c-64 0 -102 42 -102 121c0 65 20 194 73 247c22 21 45 33 78 33c64 0 102 -41 102 -120c0 -65 -20 -194 -73 -247c-22 -22 -45 -34 -78 -34zM422 84c4 0 7 1 12 6c20 20 42 158 42 189
c0 16 -6 25 -19 25c-4 0 -7 -1 -12 -6c-20 -20 -42 -159 -42 -189c0 -17 6 -25 19 -25z" />
    <glyph glyph-name="perthousand" unicode="&#x2030;" horiz-adv-x="842" 
d="M37 0l241 363l214 337h89l-241 -363l-213 -337h-90zM154 306c-63 0 -102 41 -102 120c0 65 21 194 74 247c21 22 45 34 78 34c63 0 101 -42 101 -121c0 -65 -20 -194 -73 -247c-21 -21 -45 -33 -78 -33zM161 396c4 0 8 1 13 6c20 20 41 159 41 189c0 17 -5 25 -18 25
c-4 0 -8 -1 -13 -6c-20 -20 -42 -158 -42 -189c0 -16 6 -25 19 -25zM415 -7c-64 0 -102 42 -102 121c0 65 20 194 73 247c22 21 45 33 78 33c64 0 102 -41 102 -120c0 -65 -20 -194 -73 -247c-22 -22 -45 -34 -78 -34zM422 84c4 0 7 1 12 6c20 20 42 158 42 189
c0 16 -6 25 -19 25c-4 0 -7 -1 -12 -6c-20 -20 -42 -159 -42 -189c0 -17 6 -25 19 -25zM676 -7c-63 0 -102 42 -102 121c0 65 21 194 74 247c21 21 45 33 78 33c63 0 101 -41 101 -120c0 -65 -20 -194 -73 -247c-21 -22 -45 -34 -78 -34zM683 84c4 0 8 1 13 6
c20 20 41 158 41 189c0 16 -5 25 -18 25c-4 0 -8 -1 -13 -6c-20 -20 -42 -159 -42 -189c0 -17 6 -25 19 -25z" />
    <glyph glyph-name="quotedbl" unicode="&#x22;" horiz-adv-x="369" 
d="M45 379l62 321h157l-1 -8l-149 -313h-69zM226 379l62 321h157l-1 -8l-149 -313h-69z" />
    <glyph glyph-name="quotesingle" unicode="'" horiz-adv-x="192" 
d="M45 379l63 321h160l-1 -8l-153 -313h-69z" />
    <glyph glyph-name="plus" unicode="+" horiz-adv-x="425" 
d="M115 147l26 132h-120l29 146h119l26 132h145l-25 -132h120l-29 -146h-120l-25 -132h-146z" />
    <glyph glyph-name="minus" unicode="&#x2212;" horiz-adv-x="425" 
d="M22 278l29 148h384l-28 -148h-385z" />
    <glyph glyph-name="divide" unicode="&#xf7;" horiz-adv-x="425" 
d="M107 107l25 132h146l-25 -132h-146zM23 283l26 138h384l-27 -138h-383zM176 465l26 132h146l-26 -132h-146z" />
    <glyph glyph-name="equal" unicode="=" horiz-adv-x="425" 
d="M4 166l28 145h377l-28 -145h-377zM49 394l28 145h377l-28 -145h-377z" />
    <glyph glyph-name="multiply" unicode="&#xd7;" horiz-adv-x="425" 
d="M100 151l-90 107l120 101l-78 98l112 92l76 -96l114 100l89 -107l-118 -102l77 -98l-111 -93l-75 97z" />
    <glyph glyph-name="less" unicode="&#x3c;" horiz-adv-x="425" 
d="M356 94l-327 187l28 142l399 187l-34 -177l-221 -87l187 -91z" />
    <glyph glyph-name="greater" unicode="&#x3e;" horiz-adv-x="425" 
d="M-1 94l34 177l221 87l-186 90l31 162l327 -187l-27 -142z" />
    <glyph glyph-name="plusminus" unicode="&#xb1;" horiz-adv-x="425" 
d="M122 179l26 134h-120l28 142h120l26 134h145l-26 -134h120l-28 -142h-120l-25 -134h-146zM-32 0l27 136h384l-27 -136h-384z" />
    <glyph glyph-name="space" unicode=" " horiz-adv-x="144" 
 />
    <glyph glyph-name="uni00A0" unicode="&#xa0;" horiz-adv-x="144" 
 />
    <glyph glyph-name="emspace" unicode="&#x2003;" horiz-adv-x="1000" 
 />
    <glyph glyph-name="enspace" unicode="&#x2002;" 
 />
    <glyph glyph-name="threeperemspace" unicode="&#x2004;" horiz-adv-x="333" 
 />
    <glyph glyph-name="fourperemspace" unicode="&#x2005;" horiz-adv-x="250" 
 />
    <glyph glyph-name="thinspace" unicode="&#x2009;" horiz-adv-x="133" 
 />
    <glyph glyph-name="hairspace" unicode="&#x200a;" horiz-adv-x="75" 
 />
    <glyph glyph-name="asciicircum" unicode="^" 
d="M144 486l123 213h132l41 -213h-101l-22 129l-72 -129h-101z" />
    <glyph glyph-name="asciitilde" unicode="~" horiz-adv-x="357" 
d="M95 249l-68 15c20 77 58 115 98 115c23 0 42 -7 65 -17c27 -10 37 -15 51 -15c17 0 27 11 37 36l69 -15c-19 -77 -57 -115 -98 -115c-23 0 -41 7 -64 17c-27 10 -38 15 -52 15c-17 0 -27 -11 -38 -36z" />
    <glyph glyph-name="NUL" horiz-adv-x="0" 
 />
    <glyph glyph-name="hfjslug" horiz-adv-x="694" 
d="M255 276h8l11 34h1l11 -34h8l14 47h-8l-10 -35h-1l-11 35h-7l-11 -35h-1l-10 35h-8zM321 388c13 0 23 9 29 24h1l12 -24l12 6l-17 32c5 12 9 25 13 39l-13 3c-2 -9 -5 -21 -8 -30h-1l-16 31c13 12 23 26 23 42c0 17 -9 31 -27 31c-17 0 -28 -14 -28 -31
c0 -15 6 -24 14 -39c-15 -12 -23 -28 -23 -47c0 -22 12 -37 29 -37zM50 -200v303c18 0 32 14 32 32c0 17 -14 32 -32 32v554h100l30 79h334l29 -79h101v-921h-208l-8 14h-163l-8 -14h-207zM523 277h8v12l8 8l15 -20h10l-20 26l18 20h-10l-20 -24h-1v24h-8v-46zM193 277h34v7
h-26v13h23v7h-23v12h26v7h-34v-46zM184 391h15v79h47v-79h15v172h-15v-79h-47v79h-15v-172zM132 277h8v32l25 -32h7v46h-8v-32l-25 32h-7v-46zM400 391h15v78h38v14h-38v66h43v14h-58v-172zM468 277h8v15h12l10 -15h9l-12 17c5 2 10 6 10 14c0 9 -7 15 -17 15h-20v-46z
M366 277h8v17l18 29h-9l-13 -22l-13 22h-9l18 -29v-17zM481 390c20 0 31 11 31 36v137h-16v-137c0 -16 -5 -22 -16 -22c-6 0 -15 3 -20 5v-15c5 -2 14 -4 21 -4zM476 299v17h11c6 0 10 -3 10 -8s-4 -9 -10 -9h-11zM322 402c-9 0 -16 10 -16 25c0 13 7 26 16 35l20 -39
c-5 -13 -12 -21 -20 -21zM327 479c-7 13 -12 22 -12 32c0 11 6 19 14 19s13 -8 13 -19c0 -12 -5 -21 -15 -32zM426 283c-10 0 -16 8 -16 17c0 8 6 17 16 17s16 -9 16 -17c0 -9 -6 -17 -16 -17zM426 276c14 0 24 11 24 24c0 12 -10 24 -24 24s-24 -12 -24 -24
c0 -13 10 -24 24 -24z" />
    <glyph glyph-name="i.dot" horiz-adv-x="208" 
d="M-30 0l106 544h162l-105 -544h-163zM81 578l27 135h164l-26 -135h-165z" />
    <glyph glyph-name="acute" unicode="&#xb4;" 
d="M204 570l97 133l135 -40l-135 -93h-97z" />
    <glyph glyph-name="hungarumlaut" unicode="&#x2dd;" 
d="M273 570l48 65l-87 -65h-84l97 133l99 -33l24 33l114 -37l-127 -96h-84z" />
    <glyph glyph-name="caron.alt" 
d="M253 565l36 148h90l-68 -148h-58z" />
    <glyph glyph-name="grave" unicode="`" 
d="M316 570l-103 93l143 40l53 -133h-93z" />
    <glyph glyph-name="circumflex" unicode="&#x2c6;" 
d="M171 570l103 122h114l55 -122h-88l-37 44l-55 -44h-92z" />
    <glyph glyph-name="caron" unicode="&#x2c7;" 
d="M251 570l-55 122h88l37 -44l55 44h92l-103 -122h-114z" />
    <glyph glyph-name="breve" unicode="&#x2d8;" 
d="M313 567c-76 0 -120 37 -112 119h85c1 -26 13 -40 37 -40s41 14 49 40h87c-22 -79 -75 -119 -146 -119z" />
    <glyph glyph-name="tilde" unicode="&#x2dc;" 
d="M406 699l72 -13c-19 -78 -56 -119 -97 -119c-21 0 -37 7 -61 16c-28 10 -38 15 -51 15c-16 0 -25 -10 -35 -34l-72 12c20 81 56 120 97 120c21 0 38 -7 61 -16c28 -10 38 -15 51 -15c16 0 25 10 35 34z" />
    <glyph glyph-name="macron" unicode="&#xaf;" 
d="M179 572l20 98h257l-20 -98h-257z" />
    <glyph glyph-name="dieresis" unicode="&#xa8;" 
d="M177 571l23 120h118l-23 -120h-118zM322 571l22 120h118l-22 -120h-118z" />
    <glyph glyph-name="dotaccent" unicode="&#x2d9;" 
d="M245 571l22 120h128l-23 -120h-127z" />
    <glyph glyph-name="ring" unicode="&#x2da;" 
d="M422 675c0 -53 -40 -109 -109 -109c-46 0 -86 30 -86 84c0 52 40 109 109 109c47 0 86 -31 86 -84zM282 653c0 -21 13 -38 36 -38c26 0 49 22 49 57c0 20 -12 38 -36 38c-26 0 -49 -23 -49 -57z" />
    <glyph glyph-name="acute.cap" 
d="M229 724l85 112l155 -36l-125 -76h-115z" />
    <glyph glyph-name="hungarumlaut.cap" 
d="M333 724l45 59l-86 -59h-102l85 112l121 -29l22 29l132 -32l-116 -80h-101z" />
    <glyph glyph-name="grave.cap" 
d="M320 724l-97 76l160 36l47 -112h-110z" />
    <glyph glyph-name="circumflex.cap" 
d="M201 724l94 105h124l54 -105h-94l-34 36l-46 -36h-98z" />
    <glyph glyph-name="caron.cap" 
d="M494 829l-94 -105h-124l-54 105h94l34 -36l46 36h98z" />
    <glyph glyph-name="breve.cap" 
d="M339 721c-71 0 -117 32 -107 105h85c1 -19 12 -28 34 -28s36 9 45 28h87c-19 -73 -72 -105 -144 -105z" />
    <glyph glyph-name="tilde.cap" 
d="M263 717l-72 13c21 80 54 120 97 120c19 0 35 -5 62 -16c29 -11 38 -15 51 -15c16 0 25 10 35 35l72 -13c-21 -80 -54 -121 -97 -121c-19 0 -34 6 -61 16c-30 11 -39 15 -52 15c-16 0 -25 -9 -35 -34z" />
    <glyph glyph-name="macron.cap" 
d="M203 726l20 100h269l-20 -100h-269z" />
    <glyph glyph-name="dieresis.cap" 
d="M201 724l21 112h122l-21 -112h-122zM352 724l21 112h122l-21 -112h-122z" />
    <glyph glyph-name="dotaccent.cap" 
d="M273 724l21 112h129l-21 -112h-129z" />
    <glyph glyph-name="ring.cap" 
d="M365 911c51 0 94 -34 94 -85c0 -59 -46 -106 -113 -106c-51 0 -94 34 -94 84c0 59 45 107 113 107zM351 769c31 0 52 24 52 52c0 24 -17 41 -43 41c-31 0 -52 -24 -52 -52c0 -25 17 -41 43 -41z" />
    <glyph glyph-name="commaaccent" unicode="&#x326;" 
d="M100 -217v43c46 8 66 23 73 44h-60l19 101h123l-16 -82c-14 -71 -68 -97 -139 -106z" />
    <glyph glyph-name="cedilla" unicode="&#xb8;" 
d="M190 -131l-145 33l109 118h105z" />
    <glyph glyph-name="ogonek" unicode="&#x2db;" 
d="M276 -57l-16 -83c-20 -3 -40 -4 -63 -4c-70 0 -106 18 -106 57c0 37 29 71 96 117l86 -11c-34 -34 -42 -45 -42 -56s9 -16 45 -20z" />
    </font>
</defs>
</svg>
