<?xml version="1.0" standalone="no"?>
<!DOCTYPE svg PUBLIC "-//W3C//DTD SVG 1.1//EN" "http://www.w3.org/Graphics/SVG/1.1/DTD/svg11.dtd" >
<svg xmlns="http://www.w3.org/2000/svg" xmlns:xlink="http://www.w3.org/1999/xlink" version="1.1">
<metadata>
Created by FontForge 20170910 at Fri Sep 12 14:34:46 2008
 By Jimmy Wärting
Copyright (C) 2005, 2008 Hoefler &#38; Frere-Jones. http://www.typography.com
</metadata>
<defs>
<font id="GothamCondensed-XLightItalic" horiz-adv-x="500" >
  <font-face 
    font-family="Gotham Condensed XLight"
    font-weight="275"
    font-style="italic"
    font-stretch="condensed"
    units-per-em="1000"
    panose-1="0 0 0 0 0 0 0 0 0 0"
    ascent="800"
    descent="-200"
    x-height="523"
    cap-height="700"
    bbox="-98 -200 700 911"
    underline-thickness="50"
    underline-position="-100"
    slope="-5"
    stemh="28"
    stemv="30"
    unicode-range="U+0020-FB04"
  />
<missing-glyph 
d="M0 -200v1000h500v-1000h-500zM50 -76l172 376l-172 376v-752zM71 -150h358l-179 390zM250 360l179 390h-358zM450 -76v752l-172 -376z" />
    <glyph glyph-name="f_f" unicode="ff" horiz-adv-x="406" 
d="M22 0l96 496h-54l6 27h54l12 65c10 53 20 80 46 101c17 14 37 19 55 19c15 0 35 -4 44 -8l-6 -28c-9 4 -25 8 -39 8c-35 0 -55 -20 -67 -80l-15 -77h87l-6 -27h-87l-96 -496h-30zM227 0l96 496h-54l6 27h54l12 65c10 53 20 80 46 101c17 14 37 19 55 19c15 0 35 -4 44 -8
l-6 -28c-9 4 -25 8 -39 8c-35 0 -55 -20 -67 -80l-15 -77h87l-6 -27h-87l-96 -496h-30z" />
    <glyph glyph-name="fi" unicode="fi" horiz-adv-x="351" 
d="M22 0l96 496h-54l6 27h54l12 65c10 53 20 80 46 101c17 14 37 19 55 19c15 0 35 -4 44 -8l-6 -28c-9 4 -25 8 -39 8c-35 0 -55 -20 -67 -80l-15 -77h87l-6 -27h-87l-96 -496h-30zM213 0l101 523h30l-101 -523h-30zM336 645l12 62h33l-12 -62h-33z" />
    <glyph glyph-name="fl" unicode="fl" horiz-adv-x="351" 
d="M22 0l96 496h-54l6 27h54l12 65c10 53 20 80 46 101c17 14 37 19 55 19c15 0 35 -4 44 -8l-6 -28c-9 4 -25 8 -39 8c-35 0 -55 -20 -67 -80l-15 -77h87l-6 -27h-87l-96 -496h-30zM213 0l137 707h29l-137 -707h-29z" />
    <glyph glyph-name="f_f_i" unicode="ffi" horiz-adv-x="557" 
d="M22 0l96 496h-54l6 27h54l12 65c10 53 20 80 46 101c17 14 37 19 55 19c15 0 35 -4 44 -8l-6 -28c-9 4 -25 8 -39 8c-35 0 -55 -20 -67 -80l-15 -77h87l-6 -27h-87l-96 -496h-30zM227 0l96 496h-54l6 27h54l12 65c10 53 20 80 46 101c17 14 37 19 55 19c15 0 35 -4 44 -8
l-6 -28c-9 4 -25 8 -39 8c-35 0 -55 -20 -67 -80l-15 -77h87l-6 -27h-87l-96 -496h-30zM419 0l101 523h30l-101 -523h-30zM542 645l12 62h33l-12 -62h-33z" />
    <glyph glyph-name="f_f_l" unicode="ffl" horiz-adv-x="557" 
d="M22 0l96 496h-54l6 27h54l12 65c10 53 20 80 46 101c17 14 37 19 55 19c15 0 35 -4 44 -8l-6 -28c-9 4 -25 8 -39 8c-35 0 -55 -20 -67 -80l-15 -77h87l-6 -27h-87l-96 -496h-30zM227 0l96 496h-54l6 27h54l12 65c10 53 20 80 46 101c17 14 37 19 55 19c15 0 35 -4 44 -8
l-6 -28c-9 4 -25 8 -39 8c-35 0 -55 -20 -67 -80l-15 -77h87l-6 -27h-87l-96 -496h-30zM419 0l137 707h29l-137 -707h-29z" />
    <glyph glyph-name=".notdef" 
d="M0 -200v1000h500v-1000h-500zM50 -76l172 376l-172 376v-752zM71 -150h358l-179 390zM250 360l179 390h-358zM450 -76v752l-172 -376z" />
    <glyph glyph-name="A" unicode="A" horiz-adv-x="395" 
d="M-23 0l290 704h33l17 -704h-31l-4 206h-189l-83 -206h-33zM104 234h177l-7 416z" />
    <glyph glyph-name="B" unicode="B" horiz-adv-x="365" 
d="M5 0l136 700h58c113 0 177 -61 177 -153c0 -126 -97 -181 -171 -195c73 -18 114 -74 114 -143c0 -143 -112 -209 -253 -209h-61zM41 28h28c140 0 219 67 219 180c0 72 -48 131 -150 131h-37zM107 367h31c134 0 206 80 206 177c0 78 -50 128 -148 128h-30z" />
    <glyph glyph-name="C" unicode="C" horiz-adv-x="320" 
d="M176 -7c-85 0 -135 75 -135 227c0 140 45 336 143 434c36 36 74 53 113 53c27 0 54 -8 75 -24l-7 -34c-22 20 -44 29 -70 29c-33 0 -62 -16 -88 -42c-83 -82 -135 -264 -135 -416c0 -127 38 -198 107 -198c21 0 43 7 68 23l-6 -33c-17 -10 -38 -19 -65 -19z" />
    <glyph glyph-name="D" unicode="D" horiz-adv-x="390" 
d="M5 0l136 700h60c50 0 90 -14 120 -44c39 -39 60 -104 60 -192c0 -99 -33 -291 -136 -393c-46 -46 -101 -71 -169 -71h-71zM298 635c-25 25 -57 37 -100 37h-32l-125 -644h39c56 0 103 22 143 62c94 94 127 276 127 374c0 79 -19 138 -52 171z" />
    <glyph glyph-name="E" unicode="E" horiz-adv-x="318" 
d="M5 0l136 700h231l-6 -28h-200l-58 -305h182l-6 -28h-182l-61 -311h203l-6 -28h-233z" />
    <glyph glyph-name="F" unicode="F" horiz-adv-x="295" 
d="M5 0l136 700h222l-6 -28h-191l-60 -315h173l-6 -28h-173l-64 -329h-31z" />
    <glyph glyph-name="G" unicode="G" horiz-adv-x="380" 
d="M200 -7c-94 0 -158 85 -158 244c0 143 51 312 143 405c42 41 88 65 141 65c35 0 63 -11 86 -27l-7 -34c-21 18 -46 32 -82 32c-39 0 -79 -18 -114 -53c-85 -85 -136 -249 -136 -387c0 -140 53 -217 130 -217c18 0 40 5 55 15l55 287h-110l5 28h140l-65 -333
c-25 -17 -53 -25 -83 -25z" />
    <glyph glyph-name="H" unicode="H" horiz-adv-x="409" 
d="M5 0l136 700h31l-65 -333h235l65 333h31l-136 -700h-31l66 339h-236l-65 -339h-31z" />
    <glyph glyph-name="I" unicode="I" horiz-adv-x="154" 
d="M11 0l136 700h31l-136 -700h-31z" />
    <glyph glyph-name="J" unicode="J" horiz-adv-x="224" 
d="M35 -5c-29 0 -53 11 -69 21l6 28c14 -9 37 -20 63 -20c17 0 32 4 46 18c12 12 22 35 28 68l115 590h31l-112 -574c-10 -53 -18 -83 -41 -106c-16 -16 -39 -25 -67 -25z" />
    <glyph glyph-name="K" unicode="K" horiz-adv-x="347" 
d="M5 0l136 700h31l-80 -411l281 411h36l-225 -322l104 -378h-31l-94 345l-83 -118l-44 -227h-31z" />
    <glyph glyph-name="L" unicode="L" horiz-adv-x="278" 
d="M5 0l136 700h31l-131 -672h182l-6 -28h-212z" />
    <glyph glyph-name="M" unicode="M" horiz-adv-x="466" 
d="M5 0l136 700h35l60 -419l221 419h38l-136 -700h-30l123 630l-228 -425h-4l-63 425l-123 -630h-29z" />
    <glyph glyph-name="N" unicode="N" horiz-adv-x="413" 
d="M5 0l136 700h32l118 -621l121 621h30l-137 -700h-27l-121 633l-123 -633h-29z" />
    <glyph glyph-name="O" unicode="O" horiz-adv-x="400" 
d="M277 707c74 0 120 -67 120 -199c0 -155 -53 -378 -145 -471c-30 -29 -61 -44 -95 -44c-73 0 -119 67 -119 199c0 155 53 378 145 471c29 29 60 44 94 44zM159 21c25 0 48 12 71 35c84 84 136 310 136 452c0 113 -35 171 -90 171c-25 0 -48 -12 -72 -35
c-84 -84 -136 -310 -136 -452c0 -113 35 -171 91 -171z" />
    <glyph glyph-name="P" unicode="P" horiz-adv-x="351" 
d="M5 0l136 700h62c57 0 97 -16 127 -46s45 -73 45 -128c0 -78 -28 -147 -75 -194c-44 -44 -104 -68 -177 -68h-36l-51 -264h-31zM307 635c-27 26 -62 37 -107 37h-34l-73 -380h30c65 0 117 20 155 58c42 42 66 106 66 175c0 50 -13 86 -37 110z" />
    <glyph glyph-name="Q" unicode="Q" horiz-adv-x="406" 
d="M277 707c74 0 120 -67 120 -199c0 -141 -44 -339 -123 -444l41 -66l-23 -17l-37 60l-5 -5c-28 -28 -60 -43 -93 -43c-73 0 -119 67 -119 199c0 155 53 378 145 471c29 29 60 44 94 44zM159 21c25 0 50 13 74 37c2 2 4 5 7 7l-60 96l23 17l55 -89c69 99 108 290 108 419
c0 113 -35 171 -90 171c-25 0 -48 -12 -72 -35c-84 -84 -136 -310 -136 -452c0 -113 35 -171 91 -171z" />
    <glyph glyph-name="Q.alt" horiz-adv-x="406" 
d="M277 707c74 0 120 -67 120 -199c0 -141 -44 -339 -123 -444l41 -66l-23 -17l-37 60l-5 -5c-28 -28 -60 -43 -93 -43c-73 0 -119 67 -119 199c0 155 53 378 145 471c29 29 60 44 94 44zM159 21c25 0 50 13 74 37c2 2 4 5 7 7l-60 96l23 17l55 -89c69 99 108 290 108 419
c0 113 -35 171 -90 171c-25 0 -48 -12 -72 -35c-84 -84 -136 -310 -136 -452c0 -113 35 -171 91 -171z" />
    <glyph glyph-name="R" unicode="R" horiz-adv-x="372" 
d="M263 0l-81 292c-17 -3 -36 -4 -55 -4h-36l-55 -288h-31l136 700h63c59 0 104 -17 133 -47c30 -29 44 -69 44 -120c0 -71 -25 -133 -67 -175c-29 -29 -63 -49 -103 -60l83 -298h-31zM97 316h30c77 0 126 21 162 57c40 40 61 99 61 159c0 43 -11 77 -35 101
c-27 27 -63 39 -115 39h-34z" />
    <glyph glyph-name="S" unicode="S" horiz-adv-x="318" 
d="M117 -7c-51 0 -96 24 -130 62l9 34c40 -48 82 -68 123 -68c71 0 114 58 114 133c0 61 -29 123 -69 198c-46 89 -70 144 -70 206c0 48 17 86 42 110c27 27 61 39 98 39c53 0 92 -28 115 -49l-9 -34c-28 29 -62 54 -107 55c-66 0 -108 -52 -108 -119c0 -57 23 -108 65 -187
c45 -87 73 -152 73 -215c0 -49 -14 -94 -45 -125c-23 -23 -56 -40 -101 -40z" />
    <glyph glyph-name="T" unicode="T" horiz-adv-x="283" 
d="M75 0l131 672h-117l6 28h264l-5 -28h-117l-131 -672h-31z" />
    <glyph glyph-name="U" unicode="U" horiz-adv-x="400" 
d="M161 -8c-75 0 -130 47 -130 131c0 27 4 52 13 97l93 480h31l-94 -486c-8 -41 -12 -64 -12 -89c0 -69 43 -105 103 -105c32 0 59 11 82 34c25 24 43 64 54 123l101 523h31l-102 -528c-13 -65 -33 -108 -61 -136c-30 -30 -65 -44 -109 -44z" />
    <glyph glyph-name="V" unicode="V" horiz-adv-x="382" 
d="M124 -5l-12 705h30l8 -645l258 645h32l-286 -705h-30z" />
    <glyph glyph-name="W" unicode="W" horiz-adv-x="602" 
d="M100 -5l15 705h31l-19 -636l244 636h28l-3 -636l227 636h34l-259 -705h-29l3 633l-243 -633h-29z" />
    <glyph glyph-name="X" unicode="X" horiz-adv-x="345" 
d="M-31 0l205 362l-60 338h31l52 -307l172 307h34l-194 -341l64 -359h-31l-57 329l-183 -329h-33z" />
    <glyph glyph-name="Y" unicode="Y" horiz-adv-x="339" 
d="M103 0l59 302l-68 398h31l59 -357l198 357h34l-223 -398l-59 -302h-31z" />
    <glyph glyph-name="Z" unicode="Z" horiz-adv-x="315" 
d="M-22 0l4 23l350 650h-221l5 27h255l-4 -22l-350 -651h231l-5 -27h-265z" />
    <glyph glyph-name="a" unicode="a" horiz-adv-x="336" 
d="M102 -8c-61 0 -100 43 -100 122c0 64 20 129 61 169c25 25 58 41 99 41c40 0 76 -14 102 -29l6 32c7 36 11 61 11 88c0 51 -28 85 -90 85c-27 0 -57 -6 -92 -22l6 30c26 12 61 20 91 20c71 0 116 -42 116 -112c0 -23 -5 -54 -12 -88l-63 -328h-30l15 81
c-26 -46 -66 -89 -120 -89zM107 19c63 0 118 75 134 158l17 88c-23 18 -64 32 -98 32c-31 0 -56 -12 -76 -32c-35 -35 -52 -94 -52 -152c0 -59 27 -94 75 -94z" />
    <glyph glyph-name="a.alt" horiz-adv-x="370" 
d="M126 -7c-64 0 -102 64 -102 167c0 114 41 260 111 330c26 26 54 40 83 40c69 0 93 -73 96 -130l24 123h30l-102 -523h-29l21 110c-23 -48 -69 -117 -132 -117zM131 19c22 0 44 12 65 32c62 63 103 193 103 308c0 75 -24 144 -80 144c-22 0 -44 -12 -64 -32
c-62 -62 -102 -204 -102 -312c0 -85 28 -140 78 -140z" />
    <glyph glyph-name="b" unicode="b" horiz-adv-x="370" 
d="M151 -7c-68 0 -92 73 -95 130l-25 -123h-29l137 707h29l-56 -295c23 49 69 118 132 118c64 0 102 -64 102 -168c0 -114 -41 -259 -111 -329c-26 -26 -54 -40 -84 -40zM150 19c23 0 45 12 65 32c62 62 102 205 102 312c0 85 -29 140 -78 140c-23 0 -45 -11 -65 -32
c-63 -63 -103 -194 -103 -307c0 -76 24 -145 79 -145z" />
    <glyph glyph-name="c" unicode="c" horiz-adv-x="276" 
d="M141 -7c-69 0 -120 61 -120 180c0 112 41 245 109 312c29 29 62 45 98 45c30 0 55 -13 70 -25l-7 -33c-15 15 -37 29 -66 29c-26 0 -51 -11 -74 -34c-62 -63 -99 -192 -99 -291c0 -108 41 -154 93 -154c20 0 41 6 62 21l-5 -33c-18 -10 -38 -17 -61 -17z" />
    <glyph glyph-name="d" unicode="d" horiz-adv-x="370" 
d="M237 0l21 110c-23 -48 -69 -117 -132 -117c-64 0 -102 64 -102 167c0 114 41 260 111 330c26 26 54 40 83 40c69 0 93 -73 96 -130l61 307h29l-138 -707h-29zM131 19c22 0 44 12 65 32c62 63 103 193 103 308c0 75 -24 144 -80 144c-22 0 -44 -12 -64 -32
c-62 -62 -102 -204 -102 -312c0 -85 28 -140 78 -140z" />
    <glyph glyph-name="e" unicode="e" horiz-adv-x="339" 
d="M303 250h-245c-4 -26 -6 -52 -5 -76c2 -102 47 -153 110 -153c26 0 55 7 87 28l-2 -30c-18 -13 -52 -26 -87 -26c-78 0 -134 57 -137 181c-2 118 43 248 108 313c27 27 57 43 89 43c60 0 98 -55 98 -156c0 -36 -6 -80 -16 -124zM153 470c-41 -41 -74 -116 -90 -193h216
c7 33 10 67 10 97c0 78 -22 128 -71 128c-23 0 -45 -11 -65 -32z" />
    <glyph glyph-name="f" unicode="f" horiz-adv-x="200" 
d="M22 0l96 496h-54l6 27h54l12 65c10 53 20 80 46 101c17 14 37 19 55 19c15 0 35 -4 44 -8l-6 -28c-9 4 -25 8 -39 8c-35 0 -55 -20 -67 -80l-15 -77h87l-6 -27h-87l-96 -496h-30z" />
    <glyph glyph-name="g" unicode="g" horiz-adv-x="368" 
d="M102 -131c-33 0 -84 9 -117 26l5 31c34 -20 80 -30 113 -30c40 0 71 8 95 32c20 21 33 50 44 104l19 102c-22 -40 -68 -110 -130 -109c-64 1 -102 66 -102 164c0 102 43 237 106 301c26 26 54 40 83 40c68 0 91 -73 96 -121l23 114h29l-94 -483
c-11 -61 -23 -104 -56 -134c-27 -25 -67 -37 -114 -37zM137 52c22 0 44 12 64 32c56 56 96 171 96 275c0 75 -23 144 -78 144c-22 0 -44 -12 -64 -32c-55 -55 -97 -185 -97 -283c0 -80 29 -136 79 -136z" />
    <glyph glyph-name="h" unicode="h" horiz-adv-x="365" 
d="M2 0l137 707h30l-53 -270c25 50 70 93 129 93c48 0 95 -30 95 -108c0 -21 -3 -51 -14 -108l-61 -314h-30l62 314c8 40 14 80 14 106c0 60 -32 84 -73 84c-67 0 -121 -67 -139 -158l-68 -346h-29z" />
    <glyph glyph-name="i" unicode="i" horiz-adv-x="145" 
d="M7 0l101 523h30l-101 -523h-30zM130 645l12 62h33l-12 -62h-33z" />
    <glyph glyph-name="j" unicode="j" horiz-adv-x="148" 
d="M-59 -133c-13 0 -30 3 -39 8l6 28c10 -4 20 -8 34 -8c33 0 51 23 61 74l108 554h29l-110 -564c-11 -58 -38 -92 -89 -92zM133 645l12 62h33l-12 -62h-33z" />
    <glyph glyph-name="k" unicode="k" horiz-adv-x="302" 
d="M3 0l136 707h29l-96 -499l225 315h34l-158 -216l67 -307h-29l-60 278l-89 -122l-30 -156h-29z" />
    <glyph glyph-name="l" unicode="l" horiz-adv-x="145" 
d="M7 0l137 707h29l-137 -707h-29z" />
    <glyph glyph-name="m" unicode="m" horiz-adv-x="586" 
d="M2 0l101 523h30l-16 -84c24 48 66 91 124 91c43 0 89 -27 92 -100c30 61 78 100 135 100c45 0 93 -30 93 -108c0 -21 -4 -51 -15 -108l-61 -314h-29l61 314c8 40 14 80 14 106c0 60 -32 84 -70 84c-60 0 -117 -63 -134 -152l-69 -352h-29l62 316c8 40 13 78 13 104
c0 60 -32 84 -71 84c-63 0 -116 -68 -134 -156l-68 -348h-29z" />
    <glyph glyph-name="n" unicode="n" horiz-adv-x="365" 
d="M2 0l101 523h30l-17 -86c25 50 70 93 129 93c48 0 95 -30 95 -108c0 -21 -3 -51 -14 -108l-61 -314h-30l62 314c8 40 14 80 14 106c0 60 -32 84 -73 84c-67 0 -121 -67 -139 -158l-68 -346h-29z" />
    <glyph glyph-name="o" unicode="o" horiz-adv-x="358" 
d="M224 530c67 0 110 -64 110 -173c0 -124 -44 -257 -108 -322c-29 -29 -60 -42 -91 -42c-67 0 -111 63 -111 173c0 124 44 257 109 321c29 29 60 43 91 43zM137 20c25 0 46 12 67 33c59 59 100 190 100 304c0 89 -30 145 -82 145c-25 0 -47 -11 -68 -33
c-58 -58 -100 -190 -100 -303c0 -90 30 -146 83 -146z" />
    <glyph glyph-name="p" unicode="p" horiz-adv-x="371" 
d="M151 -7c-68 0 -92 73 -95 130l-50 -253h-29l126 653h30l-21 -111c23 49 69 118 132 118c64 0 102 -64 102 -168c0 -114 -41 -259 -111 -329c-26 -26 -54 -40 -84 -40zM150 19c23 0 45 12 65 32c62 62 102 205 102 312c0 85 -29 140 -78 140c-23 0 -44 -11 -65 -32
c-62 -62 -103 -193 -103 -307c0 -76 24 -145 79 -145z" />
    <glyph glyph-name="q" unicode="q" horiz-adv-x="370" 
d="M126 -7c-64 0 -102 64 -102 167c0 114 41 260 111 330c26 26 54 40 83 40c69 0 93 -73 96 -130l24 123h30l-127 -653h-29l46 240c-23 -48 -69 -117 -132 -117zM131 19c22 0 44 12 65 32c62 63 103 193 103 308c0 75 -24 144 -80 144c-22 0 -44 -12 -64 -32
c-62 -62 -102 -204 -102 -312c0 -85 28 -140 78 -140z" />
    <glyph glyph-name="r" unicode="r" horiz-adv-x="214" 
d="M2 0l101 523h30l-16 -85c27 52 72 93 137 90l-6 -31h-2c-68 0 -127 -49 -147 -146l-68 -351h-29z" />
    <glyph glyph-name="s" unicode="s" horiz-adv-x="270" 
d="M96 -5c-42 0 -82 17 -115 48l7 32c32 -34 73 -52 108 -52c56 0 91 39 91 95c0 37 -14 74 -59 136c-52 72 -70 113 -70 156c0 70 48 119 117 119c40 0 72 -16 97 -35l-7 -32c-25 22 -57 39 -90 39c-56 0 -87 -39 -87 -89c0 -32 12 -65 62 -136c46 -65 67 -110 67 -156
c0 -74 -50 -125 -121 -125z" />
    <glyph glyph-name="t" unicode="t" horiz-adv-x="211" 
d="M97 -4c-37 0 -65 21 -65 64c0 15 4 35 7 51l74 385h-50l6 27h50l28 150h30l-28 -150h87l-6 -27h-87l-76 -391c-3 -17 -5 -30 -5 -40c0 -29 16 -41 40 -41c16 0 32 5 41 9l-5 -27c-9 -6 -27 -10 -41 -10z" />
    <glyph glyph-name="u" unicode="u" horiz-adv-x="365" 
d="M119 -7c-47 0 -95 30 -95 108c0 21 4 51 15 108l61 314h29l-61 -314c-8 -40 -14 -80 -14 -106c0 -61 32 -84 73 -84c66 0 121 66 139 157l67 347h30l-102 -523h-29l16 85c-25 -50 -69 -92 -129 -92z" />
    <glyph glyph-name="v" unicode="v" horiz-adv-x="331" 
d="M101 -3l-29 526h28l24 -472l204 472h31l-233 -526h-25z" />
    <glyph glyph-name="w" unicode="w" horiz-adv-x="507" 
d="M81 -3l-6 526h29l1 -468l185 468h25l4 -468l181 468h31l-210 -526h-25l-7 456l-182 -456h-26z" />
    <glyph glyph-name="x" unicode="x" horiz-adv-x="317" 
d="M110 523l54 -225l142 225h32l-163 -254l67 -269h-29l-59 241l-151 -241h-31l172 271l-63 252h29z" />
    <glyph glyph-name="y" unicode="y" horiz-adv-x="331" 
d="M101 10l-29 513h29l23 -463l204 463h31l-292 -653h-29z" />
    <glyph glyph-name="z" unicode="z" horiz-adv-x="273" 
d="M-24 0l4 20l277 476h-184l5 27h218l-3 -20l-278 -477h192l-5 -26h-226z" />
    <glyph glyph-name="Aacute" unicode="&#xc1;" horiz-adv-x="395" 
d="M-23 0l290 704h33l17 -704h-31l-4 206h-189l-83 -206h-33zM104 234h177l-7 416zM276 745l82 101l31 -16l-92 -85h-21z" />
    <glyph glyph-name="aacute" unicode="&#xe1;" horiz-adv-x="336" 
d="M102 -8c-61 0 -100 43 -100 122c0 64 20 129 61 169c25 25 58 41 99 41c40 0 76 -14 102 -29l6 32c7 36 11 61 11 88c0 51 -28 85 -90 85c-27 0 -57 -6 -92 -22l6 30c26 12 61 20 91 20c71 0 116 -42 116 -112c0 -23 -5 -54 -12 -88l-63 -328h-30l15 81
c-26 -46 -66 -89 -120 -89zM107 19c63 0 118 75 134 158l17 88c-23 18 -64 32 -98 32c-31 0 -56 -12 -76 -32c-35 -35 -52 -94 -52 -152c0 -59 27 -94 75 -94zM203 581l90 121l30 -18l-100 -103h-20z" />
    <glyph glyph-name="aacute.alt" horiz-adv-x="370" 
d="M239 581l90 121l30 -18l-100 -103h-20zM126 -7c-64 0 -102 64 -102 167c0 114 41 260 111 330c26 26 54 40 83 40c69 0 93 -73 96 -130l24 123h30l-102 -523h-29l21 110c-23 -48 -69 -117 -132 -117zM131 19c22 0 44 12 65 32c62 63 103 193 103 308
c0 75 -24 144 -80 144c-22 0 -44 -12 -64 -32c-62 -62 -102 -204 -102 -312c0 -85 28 -140 78 -140z" />
    <glyph glyph-name="Abreve" unicode="&#x102;" horiz-adv-x="395" 
d="M-23 0l290 704h33l17 -704h-31l-4 206h-189l-83 -206h-33zM104 234h177l-7 416zM290 748c-48 0 -85 25 -82 79h25c1 -32 20 -52 59 -52c40 0 64 20 77 52h26c-18 -54 -56 -79 -105 -79z" />
    <glyph glyph-name="abreve" unicode="&#x103;" horiz-adv-x="336" 
d="M102 -8c-61 0 -100 43 -100 122c0 64 20 129 61 169c25 25 58 41 99 41c40 0 76 -14 102 -29l6 32c7 36 11 61 11 88c0 51 -28 85 -90 85c-27 0 -57 -6 -92 -22l6 30c26 12 61 20 91 20c71 0 116 -42 116 -112c0 -23 -5 -54 -12 -88l-63 -328h-30l15 81
c-26 -46 -66 -89 -120 -89zM107 19c63 0 118 75 134 158l17 88c-23 18 -64 32 -98 32c-31 0 -56 -12 -76 -32c-35 -35 -52 -94 -52 -152c0 -59 27 -94 75 -94zM219 584c-52 0 -83 34 -78 94h25c-1 -38 14 -68 55 -68c43 0 66 30 81 68h25c-19 -60 -56 -94 -108 -94z" />
    <glyph glyph-name="abreve.alt" horiz-adv-x="370" 
d="M126 -7c-64 0 -102 64 -102 167c0 114 41 260 111 330c26 26 54 40 83 40c69 0 93 -73 96 -130l24 123h30l-102 -523h-29l21 110c-23 -48 -69 -117 -132 -117zM131 19c22 0 44 12 65 32c62 63 103 193 103 308c0 75 -24 144 -80 144c-22 0 -44 -12 -64 -32
c-62 -62 -102 -204 -102 -312c0 -85 28 -140 78 -140zM255 584c-52 0 -83 34 -78 94h25c-1 -38 14 -68 55 -68c43 0 66 30 81 68h25c-19 -60 -56 -94 -108 -94z" />
    <glyph glyph-name="Acircumflex" unicode="&#xc2;" horiz-adv-x="395" 
d="M-23 0l290 704h33l17 -704h-31l-4 206h-189l-83 -206h-33zM104 234h177l-7 416zM206 750l89 97h25l52 -97h-25l-45 68l-69 -68h-27z" />
    <glyph glyph-name="acircumflex" unicode="&#xe2;" horiz-adv-x="336" 
d="M102 -8c-61 0 -100 43 -100 122c0 64 20 129 61 169c25 25 58 41 99 41c40 0 76 -14 102 -29l6 32c7 36 11 61 11 88c0 51 -28 85 -90 85c-27 0 -57 -6 -92 -22l6 30c26 12 61 20 91 20c71 0 116 -42 116 -112c0 -23 -5 -54 -12 -88l-63 -328h-30l15 81
c-26 -46 -66 -89 -120 -89zM107 19c63 0 118 75 134 158l17 88c-23 18 -64 32 -98 32c-31 0 -56 -12 -76 -32c-35 -35 -52 -94 -52 -152c0 -59 27 -94 75 -94zM139 586l91 122h23l45 -122h-23l-39 89l-73 -89h-24z" />
    <glyph glyph-name="acircumflex.alt" horiz-adv-x="370" 
d="M175 586l91 122h23l45 -122h-23l-39 89l-73 -89h-24zM126 -7c-64 0 -102 64 -102 167c0 114 41 260 111 330c26 26 54 40 83 40c69 0 93 -73 96 -130l24 123h30l-102 -523h-29l21 110c-23 -48 -69 -117 -132 -117zM131 19c22 0 44 12 65 32c62 63 103 193 103 308
c0 75 -24 144 -80 144c-22 0 -44 -12 -64 -32c-62 -62 -102 -204 -102 -312c0 -85 28 -140 78 -140z" />
    <glyph glyph-name="Adieresis" unicode="&#xc4;" horiz-adv-x="395" 
d="M-23 0l290 704h33l17 -704h-31l-4 206h-189l-83 -206h-33zM104 234h177l-7 416zM231 755l9 47h35l-9 -47h-35zM319 755l9 47h36l-9 -47h-36z" />
    <glyph glyph-name="adieresis" unicode="&#xe4;" horiz-adv-x="336" 
d="M102 -8c-61 0 -100 43 -100 122c0 64 20 129 61 169c25 25 58 41 99 41c40 0 76 -14 102 -29l6 32c7 36 11 61 11 88c0 51 -28 85 -90 85c-27 0 -57 -6 -92 -22l6 30c26 12 61 20 91 20c71 0 116 -42 116 -112c0 -23 -5 -54 -12 -88l-63 -328h-30l15 81
c-26 -46 -66 -89 -120 -89zM107 19c63 0 118 75 134 158l17 88c-23 18 -64 32 -98 32c-31 0 -56 -12 -76 -32c-35 -35 -52 -94 -52 -152c0 -59 27 -94 75 -94zM162 591l10 49h34l-10 -49h-34zM249 591l9 49h34l-9 -49h-34z" />
    <glyph glyph-name="adieresis.alt" horiz-adv-x="370" 
d="M197 591l10 49h34l-10 -49h-34zM284 591l9 49h34l-9 -49h-34zM126 -7c-64 0 -102 64 -102 167c0 114 41 260 111 330c26 26 54 40 83 40c69 0 93 -73 96 -130l24 123h30l-102 -523h-29l21 110c-23 -48 -69 -117 -132 -117zM131 19c22 0 44 12 65 32
c62 63 103 193 103 308c0 75 -24 144 -80 144c-22 0 -44 -12 -64 -32c-62 -62 -102 -204 -102 -312c0 -85 28 -140 78 -140z" />
    <glyph glyph-name="AE" unicode="&#xc6;" horiz-adv-x="498" 
d="M-48 0l337 700h263l-5 -28h-200l-59 -305h182l-5 -28h-183l-60 -311h202l-5 -28h-234l40 206h-143l-98 -206h-32zM96 234h135l85 437h-11z" />
    <glyph glyph-name="ae" unicode="&#xe6;" horiz-adv-x="562" 
d="M384 -7c-66 0 -114 41 -129 129c-38 -77 -89 -130 -153 -130c-61 0 -100 43 -100 122c0 64 20 129 61 169c25 25 58 41 99 41c40 0 76 -14 102 -29l6 32c7 36 11 61 11 88c0 51 -28 85 -90 85c-27 0 -57 -6 -92 -22l6 30c26 12 61 20 91 20c69 0 114 -42 112 -111
c29 56 76 113 135 113c61 0 98 -55 98 -156c0 -36 -5 -80 -15 -124h-244c-4 -26 -6 -52 -5 -76c2 -102 45 -153 109 -153c26 0 55 7 87 28l-2 -30c-18 -13 -52 -26 -87 -26zM106 19c61 0 114 68 145 145c-1 36 2 69 8 101c-24 18 -65 32 -98 32c-32 0 -57 -12 -77 -32
c-35 -35 -52 -94 -52 -152c0 -59 27 -94 74 -94zM376 470c-41 -41 -74 -116 -89 -193h215c7 33 10 67 10 97c0 78 -22 128 -71 128c-23 0 -44 -11 -65 -32z" />
    <glyph glyph-name="AEacute" unicode="&#x1fc;" horiz-adv-x="498" 
d="M352 740l82 101l31 -16l-92 -85h-21zM-48 0l337 700h263l-5 -28h-200l-59 -305h182l-5 -28h-183l-60 -311h202l-5 -28h-234l40 206h-143l-98 -206h-32zM96 234h135l85 437h-11z" />
    <glyph glyph-name="aeacute" unicode="&#x1fd;" horiz-adv-x="562" 
d="M384 -7c-66 0 -114 41 -129 129c-38 -77 -89 -130 -153 -130c-61 0 -100 43 -100 122c0 64 20 129 61 169c25 25 58 41 99 41c40 0 76 -14 102 -29l6 32c7 36 11 61 11 88c0 51 -28 85 -90 85c-27 0 -57 -6 -92 -22l6 30c26 12 61 20 91 20c69 0 114 -42 112 -111
c29 56 76 113 135 113c61 0 98 -55 98 -156c0 -36 -5 -80 -15 -124h-244c-4 -26 -6 -52 -5 -76c2 -102 45 -153 109 -153c26 0 55 7 87 28l-2 -30c-18 -13 -52 -26 -87 -26zM106 19c61 0 114 68 145 145c-1 36 2 69 8 101c-24 18 -65 32 -98 32c-32 0 -57 -12 -77 -32
c-35 -35 -52 -94 -52 -152c0 -59 27 -94 74 -94zM376 470c-41 -41 -74 -116 -89 -193h215c7 33 10 67 10 97c0 78 -22 128 -71 128c-23 0 -44 -11 -65 -32zM313 576l90 121l30 -18l-100 -103h-20z" />
    <glyph glyph-name="Agrave" unicode="&#xc0;" horiz-adv-x="395" 
d="M-23 0l290 704h33l17 -704h-31l-4 206h-189l-83 -206h-33zM104 234h177l-7 416zM280 745l-73 86l30 15l62 -101h-19z" />
    <glyph glyph-name="agrave" unicode="&#xe0;" horiz-adv-x="336" 
d="M102 -8c-61 0 -100 43 -100 122c0 64 20 129 61 169c25 25 58 41 99 41c40 0 76 -14 102 -29l6 32c7 36 11 61 11 88c0 51 -28 85 -90 85c-27 0 -57 -6 -92 -22l6 30c26 12 61 20 91 20c71 0 116 -42 116 -112c0 -23 -5 -54 -12 -88l-63 -328h-30l15 81
c-26 -46 -66 -89 -120 -89zM107 19c63 0 118 75 134 158l17 88c-23 18 -64 32 -98 32c-31 0 -56 -12 -76 -32c-35 -35 -52 -94 -52 -152c0 -59 27 -94 75 -94zM207 581l-78 104l29 17l67 -121h-18z" />
    <glyph glyph-name="agrave.alt" horiz-adv-x="370" 
d="M126 -7c-64 0 -102 64 -102 167c0 114 41 260 111 330c26 26 54 40 83 40c69 0 93 -73 96 -130l24 123h30l-102 -523h-29l21 110c-23 -48 -69 -117 -132 -117zM131 19c22 0 44 12 65 32c62 63 103 193 103 308c0 75 -24 144 -80 144c-22 0 -44 -12 -64 -32
c-62 -62 -102 -204 -102 -312c0 -85 28 -140 78 -140zM243 581l-78 104l29 17l67 -121h-18z" />
    <glyph glyph-name="Amacron" unicode="&#x100;" horiz-adv-x="395" 
d="M-23 0l290 704h33l17 -704h-31l-4 206h-189l-83 -206h-33zM104 234h177l-7 416zM206 757l5 27h173l-5 -27h-173z" />
    <glyph glyph-name="amacron" unicode="&#x101;" horiz-adv-x="336" 
d="M102 -8c-61 0 -100 43 -100 122c0 64 20 129 61 169c25 25 58 41 99 41c40 0 76 -14 102 -29l6 32c7 36 11 61 11 88c0 51 -28 85 -90 85c-27 0 -57 -6 -92 -22l6 30c26 12 61 20 91 20c71 0 116 -42 116 -112c0 -23 -5 -54 -12 -88l-63 -328h-30l15 81
c-26 -46 -66 -89 -120 -89zM107 19c63 0 118 75 134 158l17 88c-23 18 -64 32 -98 32c-31 0 -56 -12 -76 -32c-35 -35 -52 -94 -52 -152c0 -59 27 -94 75 -94zM138 593l6 26h168l-6 -26h-168z" />
    <glyph glyph-name="amacron.alt" horiz-adv-x="370" 
d="M126 -7c-64 0 -102 64 -102 167c0 114 41 260 111 330c26 26 54 40 83 40c69 0 93 -73 96 -130l24 123h30l-102 -523h-29l21 110c-23 -48 -69 -117 -132 -117zM131 19c22 0 44 12 65 32c62 63 103 193 103 308c0 75 -24 144 -80 144c-22 0 -44 -12 -64 -32
c-62 -62 -102 -204 -102 -312c0 -85 28 -140 78 -140zM173 593l6 26h168l-6 -26h-168z" />
    <glyph glyph-name="Aogonek" unicode="&#x104;" horiz-adv-x="395" 
d="M307 -91l-4 -21c-5 -1 -7 -1 -9 -1c-41 0 -56 18 -56 40c0 23 15 43 52 73h-4l-4 206h-189l-83 -206h-33l290 704h33l17 -704h-6c-36 -36 -45 -51 -45 -66c0 -14 10 -25 41 -25zM104 234h177l-7 416z" />
    <glyph glyph-name="aogonek" unicode="&#x105;" horiz-adv-x="336" 
d="M228 -91l-4 -21c-5 -1 -7 -1 -9 -1c-41 0 -56 18 -56 40c0 23 15 43 52 73h-4l15 81c-26 -46 -66 -89 -120 -89c-61 0 -100 43 -100 122c0 64 20 129 61 169c25 25 58 41 99 41c40 0 76 -14 102 -29l6 32c7 36 11 61 11 88c0 51 -28 85 -90 85c-27 0 -57 -6 -92 -22l6 30
c26 12 61 20 91 20c71 0 116 -42 116 -112c0 -23 -5 -54 -12 -88l-63 -328h-5c-36 -36 -45 -51 -45 -66c0 -14 10 -25 41 -25zM107 19c63 0 118 75 134 158l17 88c-23 18 -64 32 -98 32c-31 0 -56 -12 -76 -32c-35 -35 -52 -94 -52 -152c0 -59 27 -94 75 -94z" />
    <glyph glyph-name="aogonek.alt" horiz-adv-x="370" 
d="M258 -91l-4 -21c-5 -1 -7 -1 -9 -1c-41 0 -56 18 -56 40c0 23 15 43 52 73h-4l21 110c-23 -48 -69 -117 -132 -117c-64 0 -102 64 -102 167c0 114 41 260 111 330c26 26 54 40 83 40c69 0 93 -73 96 -130l24 123h30l-102 -523h-4c-36 -36 -45 -51 -45 -66
c0 -14 10 -25 41 -25zM131 19c22 0 44 12 65 32c62 63 103 193 103 308c0 75 -24 144 -80 144c-22 0 -44 -12 -64 -32c-62 -62 -102 -204 -102 -312c0 -85 28 -140 78 -140z" />
    <glyph glyph-name="Aring" unicode="&#xc5;" horiz-adv-x="395" 
d="M-23 0l277 672c-25 10 -39 33 -39 60c0 43 35 76 79 76c42 0 69 -29 69 -66s-27 -67 -63 -74l17 -668h-31l-4 206h-189l-83 -206h-33zM104 234h177l-7 416zM285 686c35 0 57 26 57 55c0 27 -19 48 -49 48c-35 0 -57 -27 -57 -55c0 -27 19 -48 49 -48z" />
    <glyph glyph-name="aring" unicode="&#xe5;" horiz-adv-x="336" 
d="M102 -8c-61 0 -100 43 -100 122c0 64 20 129 61 169c25 25 58 41 99 41c40 0 76 -14 102 -29l6 32c7 36 11 61 11 88c0 51 -28 85 -90 85c-27 0 -57 -6 -92 -22l6 30c26 12 61 20 91 20c71 0 116 -42 116 -112c0 -23 -5 -54 -12 -88l-63 -328h-30l15 81
c-26 -46 -66 -89 -120 -89zM107 19c63 0 118 75 134 158l17 88c-23 18 -64 32 -98 32c-31 0 -56 -12 -76 -32c-35 -35 -52 -94 -52 -152c0 -59 27 -94 75 -94zM308 667c0 -44 -33 -80 -78 -80c-40 0 -68 30 -68 69c0 44 34 80 78 80c41 0 68 -30 68 -69zM182 657
c0 -29 19 -51 49 -51c34 0 57 28 57 60c0 29 -18 52 -48 52c-35 0 -58 -29 -58 -61z" />
    <glyph glyph-name="aring.alt" horiz-adv-x="370" 
d="M344 667c0 -44 -33 -80 -78 -80c-40 0 -68 30 -68 69c0 44 34 80 78 80c41 0 68 -30 68 -69zM218 657c0 -29 19 -51 49 -51c34 0 57 28 57 60c0 29 -18 52 -48 52c-35 0 -58 -29 -58 -61zM126 -7c-64 0 -102 64 -102 167c0 114 41 260 111 330c26 26 54 40 83 40
c69 0 93 -73 96 -130l24 123h30l-102 -523h-29l21 110c-23 -48 -69 -117 -132 -117zM131 19c22 0 44 12 65 32c62 63 103 193 103 308c0 75 -24 144 -80 144c-22 0 -44 -12 -64 -32c-62 -62 -102 -204 -102 -312c0 -85 28 -140 78 -140z" />
    <glyph glyph-name="aring.alt2" horiz-adv-x="336" 
d="M207 0l15 81c-26 -46 -66 -89 -120 -89c-61 0 -100 43 -100 122c0 64 20 129 61 169c25 25 58 41 99 41c40 0 76 -14 102 -29l6 32c7 36 11 61 11 88c0 51 -28 85 -90 85c-27 0 -57 -6 -92 -22l6 30c21 10 49 17 76 19c-14 13 -22 30 -22 51c0 44 34 80 79 80
c40 0 67 -30 67 -68c0 -35 -20 -63 -50 -74c36 -18 57 -52 57 -100c0 -23 -5 -54 -12 -88l-63 -328h-30zM228 528c34 0 57 28 57 60c0 29 -18 52 -48 52c-34 0 -58 -28 -58 -60c0 -29 19 -52 49 -52zM107 19c63 0 118 75 134 158l17 88c-23 18 -64 32 -98 32
c-31 0 -56 -12 -76 -32c-35 -35 -52 -94 -52 -152c0 -59 27 -94 75 -94z" />
    <glyph glyph-name="Aringacute" unicode="&#x1fa;" horiz-adv-x="395" 
d="M-23 0l277 672c-25 10 -39 33 -39 60c0 43 35 76 79 76c42 0 69 -29 69 -66s-27 -67 -63 -74l17 -668h-31l-4 206h-189l-83 -206h-33zM104 234h177l-7 416zM285 686c35 0 57 26 57 55c0 27 -19 48 -49 48c-35 0 -57 -27 -57 -55c0 -27 19 -48 49 -48zM295 830l78 81
l30 -16l-86 -65h-22z" />
    <glyph glyph-name="aringacute" unicode="&#x1fb;" horiz-adv-x="336" 
d="M254 763l81 87l29 -16l-89 -71h-21zM102 -8c-61 0 -100 43 -100 122c0 64 20 129 61 169c25 25 58 41 99 41c40 0 76 -14 102 -29l6 32c7 36 11 61 11 88c0 51 -28 85 -90 85c-27 0 -57 -6 -92 -22l6 30c26 12 61 20 91 20c71 0 116 -42 116 -112c0 -23 -5 -54 -12 -88
l-63 -328h-30l15 81c-26 -46 -66 -89 -120 -89zM107 19c63 0 118 75 134 158l17 88c-23 18 -64 32 -98 32c-31 0 -56 -12 -76 -32c-35 -35 -52 -94 -52 -152c0 -59 27 -94 75 -94zM319 662c0 -44 -33 -80 -78 -80c-40 0 -68 30 -68 69c0 44 34 80 78 80c41 0 68 -30 68 -69z
M193 652c0 -29 19 -51 49 -51c34 0 57 28 57 60c0 29 -18 52 -48 52c-35 0 -58 -29 -58 -61z" />
    <glyph glyph-name="aringacute.alt" horiz-adv-x="370" 
d="M275 763l80 87l29 -16l-89 -71h-20zM339 662c0 -44 -33 -80 -78 -80c-40 0 -68 30 -68 69c0 44 34 80 78 80c41 0 68 -30 68 -69zM213 652c0 -29 19 -51 49 -51c34 0 57 28 57 60c0 29 -18 52 -48 52c-35 0 -58 -29 -58 -61zM126 -7c-64 0 -102 64 -102 167
c0 114 41 260 111 330c26 26 54 40 83 40c69 0 93 -73 96 -130l24 123h30l-102 -523h-29l21 110c-23 -48 -69 -117 -132 -117zM131 19c22 0 44 12 65 32c62 63 103 193 103 308c0 75 -24 144 -80 144c-22 0 -44 -12 -64 -32c-62 -62 -102 -204 -102 -312
c0 -85 28 -140 78 -140z" />
    <glyph glyph-name="aringacute.alt2" horiz-adv-x="337" 
d="M241 690l81 88l29 -17l-89 -71h-21zM207 0l15 81c-26 -46 -66 -89 -120 -89c-61 0 -100 43 -100 122c0 64 20 129 61 169c25 25 58 41 99 41c40 0 76 -14 102 -29l6 32c7 36 11 61 11 88c0 51 -28 85 -90 85c-27 0 -57 -6 -92 -22l6 30c21 10 49 17 76 19
c-14 13 -22 30 -22 51c0 44 34 80 79 80c40 0 67 -30 67 -68c0 -35 -20 -63 -50 -74c36 -18 57 -52 57 -100c0 -23 -5 -54 -12 -88l-63 -328h-30zM228 528c34 0 57 28 57 60c0 29 -18 52 -48 52c-34 0 -58 -28 -58 -60c0 -29 19 -52 49 -52zM107 19c63 0 118 75 134 158
l17 88c-23 18 -64 32 -98 32c-31 0 -56 -12 -76 -32c-35 -35 -52 -94 -52 -152c0 -59 27 -94 75 -94z" />
    <glyph glyph-name="Atilde" unicode="&#xc3;" horiz-adv-x="395" 
d="M-23 0l290 704h33l17 -704h-31l-4 206h-189l-83 -206h-33zM104 234h177l-7 416zM217 753l-22 6c17 37 36 60 62 60c17 0 29 -8 47 -22c17 -14 25 -20 35 -20c15 0 25 14 39 41l22 -7c-18 -37 -36 -60 -62 -60c-17 0 -29 9 -47 22c-17 14 -25 20 -35 20
c-15 0 -26 -14 -39 -40z" />
    <glyph glyph-name="atilde" unicode="&#xe3;" horiz-adv-x="336" 
d="M102 -8c-61 0 -100 43 -100 122c0 64 20 129 61 169c25 25 58 41 99 41c40 0 76 -14 102 -29l6 32c7 36 11 61 11 88c0 51 -28 85 -90 85c-27 0 -57 -6 -92 -22l6 30c26 12 61 20 91 20c71 0 116 -42 116 -112c0 -23 -5 -54 -12 -88l-63 -328h-30l15 81
c-26 -46 -66 -89 -120 -89zM107 19c63 0 118 75 134 158l17 88c-23 18 -64 32 -98 32c-31 0 -56 -12 -76 -32c-35 -35 -52 -94 -52 -152c0 -59 27 -94 75 -94zM306 665l21 -6c-15 -42 -33 -71 -61 -71c-17 0 -28 10 -41 25c-17 18 -24 26 -34 26c-14 0 -27 -17 -40 -50
l-21 6c15 42 34 70 62 70c17 0 28 -11 43 -27c16 -18 23 -24 32 -24c14 0 27 18 39 51z" />
    <glyph glyph-name="atilde.alt" horiz-adv-x="370" 
d="M126 -7c-64 0 -102 64 -102 167c0 114 41 260 111 330c26 26 54 40 83 40c69 0 93 -73 96 -130l24 123h30l-102 -523h-29l21 110c-23 -48 -69 -117 -132 -117zM131 19c22 0 44 12 65 32c62 63 103 193 103 308c0 75 -24 144 -80 144c-22 0 -44 -12 -64 -32
c-62 -62 -102 -204 -102 -312c0 -85 28 -140 78 -140zM342 665l21 -6c-15 -42 -33 -71 -61 -71c-17 0 -28 10 -41 25c-17 18 -24 26 -34 26c-14 0 -27 -17 -40 -50l-21 6c15 42 34 70 62 70c17 0 28 -11 43 -27c16 -18 23 -24 32 -24c14 0 27 18 39 51z" />
    <glyph glyph-name="Cacute" unicode="&#x106;" horiz-adv-x="320" 
d="M176 -7c-85 0 -135 75 -135 227c0 140 45 336 143 434c36 36 74 53 113 53c27 0 54 -8 75 -24l-7 -34c-22 20 -44 29 -70 29c-33 0 -62 -16 -88 -42c-83 -82 -135 -264 -135 -416c0 -127 38 -198 107 -198c21 0 43 7 68 23l-6 -33c-17 -10 -38 -19 -65 -19zM275 745
l82 101l31 -16l-92 -85h-21z" />
    <glyph glyph-name="cacute" unicode="&#x107;" horiz-adv-x="276" 
d="M206 581l90 121l30 -18l-100 -103h-20zM141 -7c-69 0 -120 61 -120 180c0 112 41 245 109 312c29 29 62 45 98 45c30 0 55 -13 70 -25l-7 -33c-15 15 -37 29 -66 29c-26 0 -51 -11 -74 -34c-62 -63 -99 -192 -99 -291c0 -108 41 -154 93 -154c20 0 41 6 62 21l-5 -33
c-18 -10 -38 -17 -61 -17z" />
    <glyph glyph-name="Ccaron" unicode="&#x10c;" horiz-adv-x="320" 
d="M176 -7c-85 0 -135 75 -135 227c0 140 45 336 143 434c36 36 74 53 113 53c27 0 54 -8 75 -24l-7 -34c-22 20 -44 29 -70 29c-33 0 -62 -16 -88 -42c-83 -82 -135 -264 -135 -416c0 -127 38 -198 107 -198c21 0 43 7 68 23l-6 -33c-17 -10 -38 -19 -65 -19zM391 847
l-89 -97h-25l-51 97h24l44 -68l71 68h26z" />
    <glyph glyph-name="ccaron" unicode="&#x10d;" horiz-adv-x="276" 
d="M212 586l-46 122h23l39 -89l73 89h24l-91 -122h-22zM141 -7c-69 0 -120 61 -120 180c0 112 41 245 109 312c29 29 62 45 98 45c30 0 55 -13 70 -25l-7 -33c-15 15 -37 29 -66 29c-26 0 -51 -11 -74 -34c-62 -63 -99 -192 -99 -291c0 -108 41 -154 93 -154
c20 0 41 6 62 21l-5 -33c-18 -10 -38 -17 -61 -17z" />
    <glyph glyph-name="Ccedilla" unicode="&#xc7;" horiz-adv-x="320" 
d="M95 -107l-30 14l71 93c-61 20 -95 93 -95 220c0 140 45 336 143 434c36 36 74 53 113 53c27 0 54 -8 75 -24l-7 -34c-22 20 -44 29 -70 29c-33 0 -62 -16 -88 -42c-83 -82 -135 -264 -135 -416c0 -127 38 -198 107 -198c21 0 43 7 68 23l-6 -33c-17 -10 -38 -19 -65 -19
c-8 0 -15 1 -21 2z" />
    <glyph glyph-name="ccedilla" unicode="&#xe7;" horiz-adv-x="276" 
d="M64 -107l-30 14l70 92c-50 18 -83 77 -83 174c0 112 41 245 109 312c29 29 62 45 98 45c30 0 55 -13 70 -25l-7 -33c-15 15 -37 29 -66 29c-26 0 -51 -11 -74 -34c-62 -63 -99 -192 -99 -291c0 -108 41 -154 93 -154c20 0 41 6 62 21l-5 -33c-18 -10 -38 -17 -61 -17
c-6 0 -12 1 -17 2z" />
    <glyph glyph-name="Cdotaccent" unicode="&#x10a;" horiz-adv-x="320" 
d="M273 755l9 47h36l-9 -47h-36zM176 -7c-85 0 -135 75 -135 227c0 140 45 336 143 434c36 36 74 53 113 53c27 0 54 -8 75 -24l-7 -34c-22 20 -44 29 -70 29c-33 0 -62 -16 -88 -42c-83 -82 -135 -264 -135 -416c0 -127 38 -198 107 -198c21 0 43 7 68 23l-6 -33
c-17 -10 -38 -19 -65 -19z" />
    <glyph glyph-name="cdotaccent" unicode="&#x10b;" horiz-adv-x="276" 
d="M141 -7c-69 0 -120 61 -120 180c0 112 41 245 109 312c29 29 62 45 98 45c30 0 55 -13 70 -25l-7 -33c-15 15 -37 29 -66 29c-26 0 -51 -11 -74 -34c-62 -63 -99 -192 -99 -291c0 -108 41 -154 93 -154c20 0 41 6 62 21l-5 -33c-18 -10 -38 -17 -61 -17zM207 591l10 49
h35l-9 -49h-36z" />
    <glyph glyph-name="Dcaron" unicode="&#x10e;" horiz-adv-x="390" 
d="M5 0l136 700h60c50 0 90 -14 120 -44c39 -39 60 -104 60 -192c0 -99 -33 -291 -136 -393c-46 -46 -101 -71 -169 -71h-71zM298 635c-25 25 -57 37 -100 37h-32l-125 -644h39c56 0 103 22 143 62c94 94 127 276 127 374c0 79 -19 138 -52 171zM354 842l-89 -97h-25l-51 97
h24l44 -68l71 68h26z" />
    <glyph glyph-name="dcaron" unicode="&#x10f;" horiz-adv-x="370" 
d="M409 559l36 148h28v-2l-50 -146h-14zM237 0l21 110c-23 -48 -69 -117 -132 -117c-64 0 -102 64 -102 167c0 114 41 260 111 330c26 26 54 40 83 40c69 0 93 -73 96 -130l61 307h29l-138 -707h-29zM131 19c22 0 44 12 65 32c62 63 103 193 103 308c0 75 -24 144 -80 144
c-22 0 -44 -12 -64 -32c-62 -62 -102 -204 -102 -312c0 -85 28 -140 78 -140z" />
    <glyph glyph-name="Dcroat" unicode="&#x110;" horiz-adv-x="396" 
d="M28 339l6 27h49l65 334h60c49 0 89 -14 120 -44c38 -39 60 -104 60 -192c0 -99 -34 -291 -137 -393c-46 -46 -100 -71 -169 -71h-70l66 339h-50zM305 635c-25 25 -58 37 -101 37h-31l-60 -306h98l-5 -27h-98l-60 -311h38c56 0 104 22 144 62c94 94 127 276 127 374
c0 79 -19 138 -52 171z" />
    <glyph glyph-name="dcroat" unicode="&#x111;" horiz-adv-x="370" 
d="M242 604l5 26h112l16 77h29l-15 -77h48l-4 -26h-49l-118 -604h-29l21 110c-23 -48 -69 -117 -132 -117c-64 0 -102 64 -102 167c0 114 41 260 111 330c26 26 54 40 83 40c69 0 93 -73 96 -130l40 204h-112zM131 19c22 0 44 12 65 32c62 63 103 193 103 308
c0 75 -24 144 -80 144c-22 0 -44 -12 -64 -32c-62 -62 -102 -204 -102 -312c0 -85 28 -140 78 -140z" />
    <glyph glyph-name="Eacute" unicode="&#xc9;" horiz-adv-x="318" 
d="M243 740l82 101l31 -16l-92 -85h-21zM5 0l136 700h231l-6 -28h-200l-58 -305h182l-6 -28h-182l-61 -311h203l-6 -28h-233z" />
    <glyph glyph-name="eacute" unicode="&#xe9;" horiz-adv-x="339" 
d="M303 250h-245c-4 -26 -6 -52 -5 -76c2 -102 47 -153 110 -153c26 0 55 7 87 28l-2 -30c-18 -13 -52 -26 -87 -26c-78 0 -134 57 -137 181c-2 118 43 248 108 313c27 27 57 43 89 43c60 0 98 -55 98 -156c0 -36 -6 -80 -16 -124zM153 470c-41 -41 -74 -116 -90 -193h216
c7 33 10 67 10 97c0 78 -22 128 -71 128c-23 0 -45 -11 -65 -32zM213 581l90 121l30 -18l-100 -103h-20z" />
    <glyph glyph-name="Ebreve" unicode="&#x114;" horiz-adv-x="318" 
d="M257 743c-48 0 -85 25 -82 79h25c1 -32 20 -52 59 -52c40 0 64 20 77 52h26c-18 -54 -56 -79 -105 -79zM5 0l136 700h231l-6 -28h-200l-58 -305h182l-6 -28h-182l-61 -311h203l-6 -28h-233z" />
    <glyph glyph-name="ebreve" unicode="&#x115;" horiz-adv-x="339" 
d="M303 250h-245c-4 -26 -6 -52 -5 -76c2 -102 47 -153 110 -153c26 0 55 7 87 28l-2 -30c-18 -13 -52 -26 -87 -26c-78 0 -134 57 -137 181c-2 118 43 248 108 313c27 27 57 43 89 43c60 0 98 -55 98 -156c0 -36 -6 -80 -16 -124zM153 470c-41 -41 -74 -116 -90 -193h216
c7 33 10 67 10 97c0 78 -22 128 -71 128c-23 0 -45 -11 -65 -32zM229 584c-52 0 -83 34 -78 94h25c-1 -38 14 -68 55 -68c43 0 66 30 81 68h25c-19 -60 -56 -94 -108 -94z" />
    <glyph glyph-name="Ecaron" unicode="&#x11a;" horiz-adv-x="318" 
d="M359 842l-89 -97h-25l-51 97h24l44 -68l71 68h26zM5 0l136 700h231l-6 -28h-200l-58 -305h182l-6 -28h-182l-61 -311h203l-6 -28h-233z" />
    <glyph glyph-name="ecaron" unicode="&#x11b;" horiz-adv-x="339" 
d="M303 250h-245c-4 -26 -6 -52 -5 -76c2 -102 47 -153 110 -153c26 0 55 7 87 28l-2 -30c-18 -13 -52 -26 -87 -26c-78 0 -134 57 -137 181c-2 118 43 248 108 313c27 27 57 43 89 43c60 0 98 -55 98 -156c0 -36 -6 -80 -16 -124zM153 470c-41 -41 -74 -116 -90 -193h216
c7 33 10 67 10 97c0 78 -22 128 -71 128c-23 0 -45 -11 -65 -32zM219 586l-46 122h23l39 -89l73 89h24l-91 -122h-22z" />
    <glyph glyph-name="Ecircumflex" unicode="&#xca;" horiz-adv-x="318" 
d="M5 0l136 700h231l-6 -28h-200l-58 -305h182l-6 -28h-182l-61 -311h203l-6 -28h-233zM174 745l89 97h25l52 -97h-25l-45 68l-69 -68h-27z" />
    <glyph glyph-name="ecircumflex" unicode="&#xea;" horiz-adv-x="339" 
d="M303 250h-245c-4 -26 -6 -52 -5 -76c2 -102 47 -153 110 -153c26 0 55 7 87 28l-2 -30c-18 -13 -52 -26 -87 -26c-78 0 -134 57 -137 181c-2 118 43 248 108 313c27 27 57 43 89 43c60 0 98 -55 98 -156c0 -36 -6 -80 -16 -124zM153 470c-41 -41 -74 -116 -90 -193h216
c7 33 10 67 10 97c0 78 -22 128 -71 128c-23 0 -45 -11 -65 -32zM149 586l91 122h23l45 -122h-23l-39 89l-73 -89h-24z" />
    <glyph glyph-name="Edieresis" unicode="&#xcb;" horiz-adv-x="318" 
d="M198 750l9 47h35l-9 -47h-35zM286 750l9 47h36l-9 -47h-36zM5 0l136 700h231l-6 -28h-200l-58 -305h182l-6 -28h-182l-61 -311h203l-6 -28h-233z" />
    <glyph glyph-name="edieresis" unicode="&#xeb;" horiz-adv-x="339" 
d="M303 250h-245c-4 -26 -6 -52 -5 -76c2 -102 47 -153 110 -153c26 0 55 7 87 28l-2 -30c-18 -13 -52 -26 -87 -26c-78 0 -134 57 -137 181c-2 118 43 248 108 313c27 27 57 43 89 43c60 0 98 -55 98 -156c0 -36 -6 -80 -16 -124zM153 470c-41 -41 -74 -116 -90 -193h216
c7 33 10 67 10 97c0 78 -22 128 -71 128c-23 0 -45 -11 -65 -32zM258 591l9 49h34l-9 -49h-34zM171 591l10 49h34l-10 -49h-34z" />
    <glyph glyph-name="Edotaccent" unicode="&#x116;" horiz-adv-x="318" 
d="M242 750l9 47h36l-9 -47h-36zM5 0l136 700h231l-6 -28h-200l-58 -305h182l-6 -28h-182l-61 -311h203l-6 -28h-233z" />
    <glyph glyph-name="edotaccent" unicode="&#x117;" horiz-adv-x="339" 
d="M303 250h-245c-4 -26 -6 -52 -5 -76c2 -102 47 -153 110 -153c26 0 55 7 87 28l-2 -30c-18 -13 -52 -26 -87 -26c-78 0 -134 57 -137 181c-2 118 43 248 108 313c27 27 57 43 89 43c60 0 98 -55 98 -156c0 -36 -6 -80 -16 -124zM153 470c-41 -41 -74 -116 -90 -193h216
c7 33 10 67 10 97c0 78 -22 128 -71 128c-23 0 -45 -11 -65 -32zM214 591l10 49h35l-9 -49h-36z" />
    <glyph glyph-name="Egrave" unicode="&#xc8;" horiz-adv-x="318" 
d="M247 740l-73 86l30 15l62 -101h-19zM5 0l136 700h231l-6 -28h-200l-58 -305h182l-6 -28h-182l-61 -311h203l-6 -28h-233z" />
    <glyph glyph-name="egrave" unicode="&#xe8;" horiz-adv-x="339" 
d="M303 250h-245c-4 -26 -6 -52 -5 -76c2 -102 47 -153 110 -153c26 0 55 7 87 28l-2 -30c-18 -13 -52 -26 -87 -26c-78 0 -134 57 -137 181c-2 118 43 248 108 313c27 27 57 43 89 43c60 0 98 -55 98 -156c0 -36 -6 -80 -16 -124zM153 470c-41 -41 -74 -116 -90 -193h216
c7 33 10 67 10 97c0 78 -22 128 -71 128c-23 0 -45 -11 -65 -32zM217 581l-78 104l29 17l67 -121h-18z" />
    <glyph glyph-name="Emacron" unicode="&#x112;" horiz-adv-x="318" 
d="M174 752l5 27h173l-5 -27h-173zM5 0l136 700h231l-6 -28h-200l-58 -305h182l-6 -28h-182l-61 -311h203l-6 -28h-233z" />
    <glyph glyph-name="emacron" unicode="&#x113;" horiz-adv-x="339" 
d="M303 250h-245c-4 -26 -6 -52 -5 -76c2 -102 47 -153 110 -153c26 0 55 7 87 28l-2 -30c-18 -13 -52 -26 -87 -26c-78 0 -134 57 -137 181c-2 118 43 248 108 313c27 27 57 43 89 43c60 0 98 -55 98 -156c0 -36 -6 -80 -16 -124zM153 470c-41 -41 -74 -116 -90 -193h216
c7 33 10 67 10 97c0 78 -22 128 -71 128c-23 0 -45 -11 -65 -32zM147 593l6 26h168l-6 -26h-168z" />
    <glyph glyph-name="Eogonek" unicode="&#x118;" horiz-adv-x="318" 
d="M5 0l136 700h231l-6 -28h-200l-58 -305h182l-6 -28h-182l-61 -311h203l-6 -28h-11c-36 -36 -45 -51 -45 -66c0 -14 10 -25 41 -25l-4 -21c-5 -1 -7 -1 -9 -1c-41 0 -56 18 -56 40c0 23 15 43 52 73h-201z" />
    <glyph glyph-name="eogonek" unicode="&#x119;" horiz-adv-x="339" 
d="M250 49l-2 -30c-12 -9 -30 -22 -45 -37c-16 -16 -28 -33 -28 -48c0 -14 10 -25 42 -25l-5 -21c-4 -1 -7 -1 -8 -1c-41 0 -57 18 -57 40s15 43 49 70c-11 -2 -25 -4 -35 -4c-78 0 -134 57 -137 181c-2 118 43 248 108 313c27 27 57 43 89 43c60 0 98 -55 98 -156
c0 -36 -6 -80 -16 -124h-245c-4 -26 -6 -52 -5 -76c2 -102 47 -153 110 -153c26 0 55 7 87 28zM153 470c-41 -41 -74 -116 -90 -193h216c7 33 10 67 10 97c0 78 -22 128 -71 128c-23 0 -45 -11 -65 -32z" />
    <glyph glyph-name="Eth" unicode="&#xd0;" horiz-adv-x="396" 
d="M28 339l6 27h49l65 334h60c49 0 89 -14 120 -44c38 -39 60 -104 60 -192c0 -99 -34 -291 -137 -393c-46 -46 -100 -71 -169 -71h-70l66 339h-50zM305 635c-25 25 -58 37 -101 37h-31l-60 -306h98l-5 -27h-98l-60 -311h38c56 0 104 22 144 62c94 94 127 276 127 374
c0 79 -19 138 -52 171z" />
    <glyph glyph-name="eth" unicode="&#xf0;" horiz-adv-x="353" 
d="M166 580l-9 22l88 39c-11 21 -23 43 -37 66h33l29 -55l75 33l9 -22l-74 -33c34 -74 54 -151 54 -242c0 -153 -48 -288 -114 -355c-27 -27 -57 -40 -87 -40c-67 0 -109 64 -109 174c0 124 44 259 110 325c26 27 57 41 85 41c45 0 70 -35 86 -74c-7 45 -22 100 -50 160z
M135 20c24 0 45 12 65 32c60 60 100 193 100 307c0 90 -32 146 -81 146c-22 0 -44 -10 -65 -31c-59 -59 -101 -193 -101 -307c0 -90 31 -147 82 -147z" />
    <glyph glyph-name="Gbreve" unicode="&#x11e;" horiz-adv-x="380" 
d="M316 748c-48 0 -85 25 -82 79h25c1 -32 20 -52 59 -52c40 0 64 20 77 52h26c-18 -54 -56 -79 -105 -79zM200 -7c-94 0 -158 85 -158 244c0 143 51 312 143 405c42 41 88 65 141 65c35 0 63 -11 86 -27l-7 -34c-21 18 -46 32 -82 32c-39 0 -79 -18 -114 -53
c-85 -85 -136 -249 -136 -387c0 -140 53 -217 130 -217c18 0 40 5 55 15l55 287h-110l5 28h140l-65 -333c-25 -17 -53 -25 -83 -25z" />
    <glyph glyph-name="gbreve" unicode="&#x11f;" horiz-adv-x="368" 
d="M102 -131c-33 0 -84 9 -117 26l5 31c34 -20 80 -30 113 -30c40 0 71 8 95 32c20 21 33 50 44 104l19 102c-22 -40 -68 -110 -130 -109c-64 1 -102 66 -102 164c0 102 43 237 106 301c26 26 54 40 83 40c68 0 91 -73 96 -121l23 114h29l-94 -483
c-11 -61 -23 -104 -56 -134c-27 -25 -67 -37 -114 -37zM137 52c22 0 44 12 64 32c56 56 96 171 96 275c0 75 -23 144 -78 144c-22 0 -44 -12 -64 -32c-55 -55 -97 -185 -97 -283c0 -80 29 -136 79 -136zM243 584c-52 0 -83 34 -78 94h25c-1 -38 14 -68 55 -68
c43 0 66 30 81 68h25c-19 -60 -56 -94 -108 -94z" />
    <glyph glyph-name="Gcommaaccent" unicode="&#x122;" horiz-adv-x="380" 
d="M118 -179l-6 15c24 14 31 20 35 49h-15l10 53h37l-12 -58c-7 -36 -20 -47 -49 -59zM200 -7c-94 0 -158 85 -158 244c0 143 51 312 143 405c42 41 88 65 141 65c35 0 63 -11 86 -27l-7 -34c-21 18 -46 32 -82 32c-39 0 -79 -18 -114 -53c-85 -85 -136 -249 -136 -387
c0 -140 53 -217 130 -217c18 0 40 5 55 15l55 287h-110l5 28h140l-65 -333c-25 -17 -53 -25 -83 -25z" />
    <glyph glyph-name="gcommaaccent" unicode="&#x123;" horiz-adv-x="368" 
d="M287 706l6 -15c-24 -14 -31 -20 -35 -49h15l-10 -53h-37l12 58c7 36 20 47 49 59zM102 -131c-33 0 -84 9 -117 26l5 31c34 -20 80 -30 113 -30c40 0 71 8 95 32c20 21 33 50 44 104l19 102c-22 -40 -68 -110 -130 -109c-64 1 -102 66 -102 164c0 102 43 237 106 301
c26 26 54 40 83 40c68 0 91 -73 96 -121l23 114h29l-94 -483c-11 -61 -23 -104 -56 -134c-27 -25 -67 -37 -114 -37zM137 52c22 0 44 12 64 32c56 56 96 171 96 275c0 75 -23 144 -78 144c-22 0 -44 -12 -64 -32c-55 -55 -97 -185 -97 -283c0 -80 29 -136 79 -136z" />
    <glyph glyph-name="Gdotaccent" unicode="&#x120;" horiz-adv-x="380" 
d="M300 755l9 47h36l-9 -47h-36zM200 -7c-94 0 -158 85 -158 244c0 143 51 312 143 405c42 41 88 65 141 65c35 0 63 -11 86 -27l-7 -34c-21 18 -46 32 -82 32c-39 0 -79 -18 -114 -53c-85 -85 -136 -249 -136 -387c0 -140 53 -217 130 -217c18 0 40 5 55 15l55 287h-110
l5 28h140l-65 -333c-25 -17 -53 -25 -83 -25z" />
    <glyph glyph-name="gdotaccent" unicode="&#x121;" horiz-adv-x="368" 
d="M102 -131c-33 0 -84 9 -117 26l5 31c34 -20 80 -30 113 -30c40 0 71 8 95 32c20 21 33 50 44 104l19 102c-22 -40 -68 -110 -130 -109c-64 1 -102 66 -102 164c0 102 43 237 106 301c26 26 54 40 83 40c68 0 91 -73 96 -121l23 114h29l-94 -483
c-11 -61 -23 -104 -56 -134c-27 -25 -67 -37 -114 -37zM137 52c22 0 44 12 64 32c56 56 96 171 96 275c0 75 -23 144 -78 144c-22 0 -44 -12 -64 -32c-55 -55 -97 -185 -97 -283c0 -80 29 -136 79 -136zM228 591l10 49h35l-9 -49h-36z" />
    <glyph glyph-name="Hbar" unicode="&#x126;" horiz-adv-x="420" 
d="M64 562l6 26h55l22 112h31l-22 -112h235l22 112h31l-22 -112h53l-5 -26h-53l-109 -562h-31l66 339h-236l-65 -339h-31l109 562h-56zM113 367h235l38 195h-235z" />
    <glyph glyph-name="hbar" unicode="&#x127;" horiz-adv-x="365" 
d="M72 604l4 26h48l15 77h30l-15 -77h113l-5 -26h-113l-33 -167c25 50 70 93 129 93c48 0 95 -30 95 -108c0 -21 -3 -51 -14 -108l-61 -314h-30l62 314c8 40 14 80 14 106c0 60 -32 84 -73 84c-67 0 -121 -67 -139 -158l-68 -346h-29l117 604h-47z" />
    <glyph glyph-name="Iacute" unicode="&#xcd;" horiz-adv-x="154" 
d="M11 0l136 700h31l-136 -700h-31zM157 740l82 101l31 -16l-92 -85h-21z" />
    <glyph glyph-name="iacute" unicode="&#xed;" horiz-adv-x="145" 
d="M118 576l90 121l30 -18l-100 -103h-20zM7 0l101 523h30l-101 -523h-30z" />
    <glyph glyph-name="Ibreve" unicode="&#x12c;" horiz-adv-x="154" 
d="M11 0l136 700h31l-136 -700h-31zM171 743c-48 0 -85 25 -82 79h25c1 -32 20 -52 59 -52c40 0 64 20 77 52h26c-18 -54 -56 -79 -105 -79z" />
    <glyph glyph-name="ibreve" unicode="&#x12d;" horiz-adv-x="145" 
d="M7 0l101 523h30l-101 -523h-30zM134 579c-52 0 -83 34 -78 94h25c-1 -38 14 -68 55 -68c43 0 66 30 81 68h25c-19 -60 -56 -94 -108 -94z" />
    <glyph glyph-name="Icircumflex" unicode="&#xce;" horiz-adv-x="154" 
d="M11 0l136 700h31l-136 -700h-31zM87 745l89 97h25l52 -97h-25l-45 68l-69 -68h-27z" />
    <glyph glyph-name="icircumflex" unicode="&#xee;" horiz-adv-x="145" 
d="M54 581l91 122h23l45 -122h-23l-39 89l-73 -89h-24zM7 0l101 523h30l-101 -523h-30z" />
    <glyph glyph-name="Idieresis" unicode="&#xcf;" horiz-adv-x="154" 
d="M11 0l136 700h31l-136 -700h-31zM112 750l9 47h35l-9 -47h-35zM200 750l9 47h36l-9 -47h-36z" />
    <glyph glyph-name="idieresis" unicode="&#xef;" horiz-adv-x="145" 
d="M76 586l10 49h34l-10 -49h-34zM163 586l9 49h34l-9 -49h-34zM7 0l101 523h30l-101 -523h-30z" />
    <glyph glyph-name="Idotaccent" unicode="&#x130;" horiz-adv-x="154" 
d="M11 0l136 700h31l-136 -700h-31zM155 750l9 47h36l-9 -47h-36z" />
    <glyph glyph-name="dotlessi" unicode="&#x131;" horiz-adv-x="145" 
d="M7 0l101 523h30l-101 -523h-30z" />
    <glyph glyph-name="Igrave" unicode="&#xcc;" horiz-adv-x="154" 
d="M11 0l136 700h31l-136 -700h-31zM161 740l-73 86l30 15l62 -101h-19z" />
    <glyph glyph-name="igrave" unicode="&#xec;" horiz-adv-x="145" 
d="M7 0l101 523h30l-101 -523h-30zM122 576l-78 104l29 17l67 -121h-18z" />
    <glyph glyph-name="Imacron" unicode="&#x12a;" horiz-adv-x="154" 
d="M11 0l136 700h31l-136 -700h-31zM87 752l5 27h173l-5 -27h-173z" />
    <glyph glyph-name="imacron" unicode="&#x12b;" horiz-adv-x="145" 
d="M7 0l101 523h30l-101 -523h-30zM52 588l6 26h168l-6 -26h-168z" />
    <glyph glyph-name="Iogonek" unicode="&#x12e;" horiz-adv-x="154" 
d="M11 0l136 700h31l-135 -696h1l-2 -2v-2h-2c-36 -36 -45 -51 -45 -66c0 -14 10 -25 41 -25l-4 -21c-5 -1 -7 -1 -9 -1c-41 0 -56 18 -56 40c0 23 16 43 52 73h-8z" />
    <glyph glyph-name="iogonek" unicode="&#x12f;" horiz-adv-x="145" 
d="M7 0l101 523h30l-101 -523h-4c-35 -36 -45 -51 -45 -66c0 -14 10 -25 41 -25l-4 -21c-5 -1 -7 -1 -9 -1c-41 0 -56 18 -56 40c0 23 16 43 52 73h-5zM130 645l12 62h33l-12 -62h-33z" />
    <glyph glyph-name="Kcommaaccent" unicode="&#x136;" horiz-adv-x="347" 
d="M81 -179l-6 15c24 14 31 20 35 49h-15l10 53h37l-12 -58c-7 -36 -20 -47 -49 -59zM5 0l136 700h31l-80 -411l281 411h36l-225 -322l104 -378h-31l-94 345l-83 -118l-44 -227h-31z" />
    <glyph glyph-name="kcommaaccent" unicode="&#x137;" horiz-adv-x="302" 
d="M55 -178l-6 15c24 14 31 20 35 49h-15l10 53h37l-12 -58c-7 -36 -20 -47 -49 -59zM3 0l136 707h29l-96 -499l225 315h34l-158 -216l67 -307h-29l-60 278l-89 -122l-30 -156h-29z" />
    <glyph glyph-name="Lacute" unicode="&#x139;" horiz-adv-x="278" 
d="M152 740l82 101l31 -16l-92 -85h-21zM5 0l136 700h31l-131 -672h182l-6 -28h-212z" />
    <glyph glyph-name="lacute" unicode="&#x13a;" horiz-adv-x="145" 
d="M150 753l82 101l31 -16l-92 -85h-21zM7 0l137 707h29l-137 -707h-29z" />
    <glyph glyph-name="Lcaron" unicode="&#x13d;" horiz-adv-x="278" 
d="M187 552l36 148h28v-2l-50 -146h-14zM5 0l136 700h31l-131 -672h182l-6 -28h-212z" />
    <glyph glyph-name="lcaron" unicode="&#x13e;" horiz-adv-x="145" 
d="M179 559l36 148h28v-2l-50 -146h-14zM7 0l137 707h29l-137 -707h-29z" />
    <glyph glyph-name="Lcommaaccent" unicode="&#x13b;" horiz-adv-x="278" 
d="M55 -179l-6 15c24 14 31 20 35 49h-15l10 53h37l-12 -58c-7 -36 -20 -47 -49 -59zM5 0l136 700h31l-131 -672h182l-6 -28h-212z" />
    <glyph glyph-name="lcommaaccent" unicode="&#x13c;" horiz-adv-x="145" 
d="M-32 -179l-6 15c24 14 31 20 35 49h-15l10 53h37l-12 -58c-7 -36 -20 -47 -49 -59zM7 0l137 707h29l-137 -707h-29z" />
    <glyph glyph-name="Ldot" unicode="&#x13f;" horiz-adv-x="278" 
d="M202 327l9 49h36l-9 -49h-36zM5 0l136 700h31l-131 -672h182l-6 -28h-212z" />
    <glyph glyph-name="ldot" unicode="&#x140;" horiz-adv-x="177" 
d="M155 320l11 55h33l-11 -55h-33zM7 0l137 707h29l-137 -707h-29z" />
    <glyph glyph-name="Lslash" unicode="&#x141;" horiz-adv-x="285" 
d="M8 265l7 34l62 38l71 363h31l-67 -342l104 63l-6 -34l-104 -63l-58 -296h182l-6 -28h-212l59 303z" />
    <glyph glyph-name="lslash" unicode="&#x142;" horiz-adv-x="161" 
d="M12 294l7 34l67 40l66 339h29l-62 -319l69 41l-6 -34l-70 -42l-68 -353h-29l65 334z" />
    <glyph glyph-name="Nacute" unicode="&#x143;" horiz-adv-x="413" 
d="M279 735l82 101l31 -16l-92 -85h-21zM5 0l136 700h32l118 -621l121 621h30l-137 -700h-27l-121 633l-123 -633h-29z" />
    <glyph glyph-name="nacute" unicode="&#x144;" horiz-adv-x="365" 
d="M219 581l90 121l30 -18l-100 -103h-20zM2 0l101 523h30l-17 -86c25 50 70 93 129 93c48 0 95 -30 95 -108c0 -21 -3 -51 -14 -108l-61 -314h-30l62 314c8 40 14 80 14 106c0 60 -32 84 -73 84c-67 0 -121 -67 -139 -158l-68 -346h-29z" />
    <glyph glyph-name="Ncaron" unicode="&#x147;" horiz-adv-x="413" 
d="M395 837l-89 -97h-25l-51 97h24l44 -68l71 68h26zM5 0l136 700h32l118 -621l121 621h30l-137 -700h-27l-121 633l-123 -633h-29z" />
    <glyph glyph-name="ncaron" unicode="&#x148;" horiz-adv-x="365" 
d="M225 586l-46 122h23l39 -89l73 89h24l-91 -122h-22zM2 0l101 523h30l-17 -86c25 50 70 93 129 93c48 0 95 -30 95 -108c0 -21 -3 -51 -14 -108l-61 -314h-30l62 314c8 40 14 80 14 106c0 60 -32 84 -73 84c-67 0 -121 -67 -139 -158l-68 -346h-29z" />
    <glyph glyph-name="Ncommaaccent" unicode="&#x145;" horiz-adv-x="413" 
d="M97 -179l-6 15c24 14 31 20 35 49h-15l10 53h37l-12 -58c-7 -36 -20 -47 -49 -59zM5 0l136 700h32l118 -621l121 621h30l-137 -700h-27l-121 633l-123 -633h-29z" />
    <glyph glyph-name="ncommaaccent" unicode="&#x146;" horiz-adv-x="365" 
d="M69 -178l-6 15c24 14 31 20 35 49h-15l10 53h37l-12 -58c-7 -36 -20 -47 -49 -59zM2 0l101 523h30l-17 -86c25 50 70 93 129 93c48 0 95 -30 95 -108c0 -21 -3 -51 -14 -108l-61 -314h-30l62 314c8 40 14 80 14 106c0 60 -32 84 -73 84c-67 0 -121 -67 -139 -158
l-68 -346h-29z" />
    <glyph glyph-name="Ntilde" unicode="&#xd1;" horiz-adv-x="413" 
d="M221 743l-22 6c17 37 36 60 62 60c17 0 29 -8 47 -22c17 -14 25 -20 35 -20c15 0 25 14 39 41l22 -7c-18 -37 -36 -60 -62 -60c-17 0 -29 9 -47 22c-17 14 -25 20 -35 20c-15 0 -26 -14 -39 -40zM5 0l136 700h32l118 -621l121 621h30l-137 -700h-27l-121 633l-123 -633
h-29z" />
    <glyph glyph-name="ntilde" unicode="&#xf1;" horiz-adv-x="365" 
d="M2 0l101 523h30l-17 -86c25 50 70 93 129 93c48 0 95 -30 95 -108c0 -21 -3 -51 -14 -108l-61 -314h-30l62 314c8 40 14 80 14 106c0 60 -32 84 -73 84c-67 0 -121 -67 -139 -158l-68 -346h-29zM322 665l21 -6c-15 -42 -33 -71 -61 -71c-17 0 -28 10 -41 25
c-17 18 -24 26 -34 26c-14 0 -27 -17 -40 -50l-21 6c15 42 34 70 62 70c17 0 28 -11 43 -27c16 -18 23 -24 32 -24c14 0 27 18 39 51z" />
    <glyph glyph-name="Oacute" unicode="&#xd3;" horiz-adv-x="400" 
d="M278 745l82 101l31 -16l-92 -85h-21zM277 707c74 0 120 -67 120 -199c0 -155 -53 -378 -145 -471c-30 -29 -61 -44 -95 -44c-73 0 -119 67 -119 199c0 155 53 378 145 471c29 29 60 44 94 44zM159 21c25 0 48 12 71 35c84 84 136 310 136 452c0 113 -35 171 -90 171
c-25 0 -48 -12 -72 -35c-84 -84 -136 -310 -136 -452c0 -113 35 -171 91 -171z" />
    <glyph glyph-name="oacute" unicode="&#xf3;" horiz-adv-x="358" 
d="M223 581l90 121l30 -18l-100 -103h-20zM224 530c67 0 110 -64 110 -173c0 -124 -44 -257 -108 -322c-29 -29 -60 -42 -91 -42c-67 0 -111 63 -111 173c0 124 44 257 109 321c29 29 60 43 91 43zM137 20c25 0 46 12 67 33c59 59 100 190 100 304c0 89 -30 145 -82 145
c-25 0 -47 -11 -68 -33c-58 -58 -100 -190 -100 -303c0 -90 30 -146 83 -146z" />
    <glyph glyph-name="Obreve" unicode="&#x14e;" horiz-adv-x="400" 
d="M292 748c-48 0 -85 25 -82 79h25c1 -32 20 -52 59 -52c40 0 64 20 77 52h26c-18 -54 -56 -79 -105 -79zM277 707c74 0 120 -67 120 -199c0 -155 -53 -378 -145 -471c-30 -29 -61 -44 -95 -44c-73 0 -119 67 -119 199c0 155 53 378 145 471c29 29 60 44 94 44zM159 21
c25 0 48 12 71 35c84 84 136 310 136 452c0 113 -35 171 -90 171c-25 0 -48 -12 -72 -35c-84 -84 -136 -310 -136 -452c0 -113 35 -171 91 -171z" />
    <glyph glyph-name="obreve" unicode="&#x14f;" horiz-adv-x="358" 
d="M224 530c67 0 110 -64 110 -173c0 -124 -44 -257 -108 -322c-29 -29 -60 -42 -91 -42c-67 0 -111 63 -111 173c0 124 44 257 109 321c29 29 60 43 91 43zM137 20c25 0 46 12 67 33c59 59 100 190 100 304c0 89 -30 145 -82 145c-25 0 -47 -11 -68 -33
c-58 -58 -100 -190 -100 -303c0 -90 30 -146 83 -146zM239 584c-52 0 -83 34 -78 94h25c-1 -38 14 -68 55 -68c43 0 66 30 81 68h25c-19 -60 -56 -94 -108 -94z" />
    <glyph glyph-name="Ocircumflex" unicode="&#xd4;" horiz-adv-x="400" 
d="M277 707c74 0 120 -67 120 -199c0 -155 -53 -378 -145 -471c-30 -29 -61 -44 -95 -44c-73 0 -119 67 -119 199c0 155 53 378 145 471c29 29 60 44 94 44zM159 21c25 0 48 12 71 35c84 84 136 310 136 452c0 113 -35 171 -90 171c-25 0 -48 -12 -72 -35
c-84 -84 -136 -310 -136 -452c0 -113 35 -171 91 -171zM208 750l89 97h25l52 -97h-25l-45 68l-69 -68h-27z" />
    <glyph glyph-name="ocircumflex" unicode="&#xf4;" horiz-adv-x="358" 
d="M159 586l91 122h23l45 -122h-23l-39 89l-73 -89h-24zM224 530c67 0 110 -64 110 -173c0 -124 -44 -257 -108 -322c-29 -29 -60 -42 -91 -42c-67 0 -111 63 -111 173c0 124 44 257 109 321c29 29 60 43 91 43zM137 20c25 0 46 12 67 33c59 59 100 190 100 304
c0 89 -30 145 -82 145c-25 0 -47 -11 -68 -33c-58 -58 -100 -190 -100 -303c0 -90 30 -146 83 -146z" />
    <glyph glyph-name="Odieresis" unicode="&#xd6;" horiz-adv-x="400" 
d="M233 755l9 47h35l-9 -47h-35zM321 755l9 47h36l-9 -47h-36zM277 707c74 0 120 -67 120 -199c0 -155 -53 -378 -145 -471c-30 -29 -61 -44 -95 -44c-73 0 -119 67 -119 199c0 155 53 378 145 471c29 29 60 44 94 44zM159 21c25 0 48 12 71 35c84 84 136 310 136 452
c0 113 -35 171 -90 171c-25 0 -48 -12 -72 -35c-84 -84 -136 -310 -136 -452c0 -113 35 -171 91 -171z" />
    <glyph glyph-name="odieresis" unicode="&#xf6;" horiz-adv-x="358" 
d="M181 591l10 49h34l-10 -49h-34zM268 591l9 49h34l-9 -49h-34zM224 530c67 0 110 -64 110 -173c0 -124 -44 -257 -108 -322c-29 -29 -60 -42 -91 -42c-67 0 -111 63 -111 173c0 124 44 257 109 321c29 29 60 43 91 43zM137 20c25 0 46 12 67 33c59 59 100 190 100 304
c0 89 -30 145 -82 145c-25 0 -47 -11 -68 -33c-58 -58 -100 -190 -100 -303c0 -90 30 -146 83 -146z" />
    <glyph glyph-name="OE" unicode="&#x152;" horiz-adv-x="546" 
d="M223 0c-50 0 -90 14 -120 44c-39 39 -60 104 -60 192c0 99 33 291 136 393c46 46 100 71 169 71h252l-6 -28h-200l-58 -305h182l-6 -28h-182l-61 -311h203l-6 -28h-243zM126 65c24 -25 57 -37 100 -37h13l124 644h-19c-56 0 -103 -22 -144 -62
c-93 -94 -127 -276 -127 -374c0 -79 20 -138 53 -171z" />
    <glyph glyph-name="oe" unicode="&#x153;" horiz-adv-x="603" 
d="M567 250h-245c-4 -26 -6 -52 -5 -76c2 -102 46 -153 109 -153c27 0 56 7 87 28l-1 -30c-19 -13 -52 -26 -87 -26c-72 0 -125 48 -134 156c-27 -79 -84 -156 -156 -156c-67 0 -111 63 -111 173c0 124 44 257 108 321c30 29 61 43 92 43c61 0 101 -53 107 -150
c26 67 80 150 153 150c61 0 98 -55 98 -156c0 -36 -5 -80 -15 -124zM137 20c25 0 46 12 67 33c59 59 100 190 100 304c0 89 -30 145 -82 145c-25 0 -47 -11 -68 -33c-58 -58 -100 -190 -100 -303c0 -90 30 -146 83 -146zM417 470c-42 -41 -75 -116 -91 -193h217
c7 33 10 67 10 97c0 78 -23 128 -71 128c-23 0 -45 -11 -65 -32z" />
    <glyph glyph-name="Ograve" unicode="&#xd2;" horiz-adv-x="400" 
d="M282 745l-73 86l30 15l62 -101h-19zM277 707c74 0 120 -67 120 -199c0 -155 -53 -378 -145 -471c-30 -29 -61 -44 -95 -44c-73 0 -119 67 -119 199c0 155 53 378 145 471c29 29 60 44 94 44zM159 21c25 0 48 12 71 35c84 84 136 310 136 452c0 113 -35 171 -90 171
c-25 0 -48 -12 -72 -35c-84 -84 -136 -310 -136 -452c0 -113 35 -171 91 -171z" />
    <glyph glyph-name="ograve" unicode="&#xf2;" horiz-adv-x="358" 
d="M224 530c67 0 110 -64 110 -173c0 -124 -44 -257 -108 -322c-29 -29 -60 -42 -91 -42c-67 0 -111 63 -111 173c0 124 44 257 109 321c29 29 60 43 91 43zM137 20c25 0 46 12 67 33c59 59 100 190 100 304c0 89 -30 145 -82 145c-25 0 -47 -11 -68 -33
c-58 -58 -100 -190 -100 -303c0 -90 30 -146 83 -146zM227 581l-78 104l29 17l67 -121h-18z" />
    <glyph glyph-name="Ohungarumlaut" unicode="&#x150;" horiz-adv-x="400" 
d="M277 707c74 0 120 -67 120 -199c0 -155 -53 -378 -145 -471c-30 -29 -61 -44 -95 -44c-73 0 -119 67 -119 199c0 155 53 378 145 471c29 29 60 44 94 44zM159 21c25 0 48 12 71 35c84 84 136 310 136 452c0 113 -35 171 -90 171c-25 0 -48 -12 -72 -35
c-84 -84 -136 -310 -136 -452c0 -113 35 -171 91 -171zM238 745l82 102l30 -17l-91 -85h-21zM316 745l80 102l30 -17l-90 -85h-20z" />
    <glyph glyph-name="ohungarumlaut" unicode="&#x151;" horiz-adv-x="358" 
d="M183 581l89 121l29 -17l-99 -104h-19zM265 581l89 121l29 -17l-99 -104h-19zM224 530c67 0 110 -64 110 -173c0 -124 -44 -257 -108 -322c-29 -29 -60 -42 -91 -42c-67 0 -111 63 -111 173c0 124 44 257 109 321c29 29 60 43 91 43zM137 20c25 0 46 12 67 33
c59 59 100 190 100 304c0 89 -30 145 -82 145c-25 0 -47 -11 -68 -33c-58 -58 -100 -190 -100 -303c0 -90 30 -146 83 -146z" />
    <glyph glyph-name="Omacron" unicode="&#x14c;" horiz-adv-x="400" 
d="M208 757l5 27h173l-5 -27h-173zM277 707c74 0 120 -67 120 -199c0 -155 -53 -378 -145 -471c-30 -29 -61 -44 -95 -44c-73 0 -119 67 -119 199c0 155 53 378 145 471c29 29 60 44 94 44zM159 21c25 0 48 12 71 35c84 84 136 310 136 452c0 113 -35 171 -90 171
c-25 0 -48 -12 -72 -35c-84 -84 -136 -310 -136 -452c0 -113 35 -171 91 -171z" />
    <glyph glyph-name="omacron" unicode="&#x14d;" horiz-adv-x="358" 
d="M157 593l6 26h168l-6 -26h-168zM224 530c67 0 110 -64 110 -173c0 -124 -44 -257 -108 -322c-29 -29 -60 -42 -91 -42c-67 0 -111 63 -111 173c0 124 44 257 109 321c29 29 60 43 91 43zM137 20c25 0 46 12 67 33c59 59 100 190 100 304c0 89 -30 145 -82 145
c-25 0 -47 -11 -68 -33c-58 -58 -100 -190 -100 -303c0 -90 30 -146 83 -146z" />
    <glyph glyph-name="Oslash" unicode="&#xd8;" horiz-adv-x="400" 
d="M279 707c42 0 75 -23 96 -69l42 70h30l-61 -102c7 -28 11 -60 11 -98c0 -155 -54 -378 -147 -471c-29 -29 -61 -44 -95 -44c-43 0 -76 23 -96 69l-42 -70h-29l60 102c-7 27 -10 60 -10 98c0 155 53 378 146 471c29 29 61 44 95 44zM68 192c0 -22 1 -42 3 -59l284 469
c-14 51 -41 77 -77 77c-26 0 -50 -12 -72 -34c-84 -85 -138 -311 -138 -453zM157 21c25 0 49 12 71 34c85 85 138 311 138 453c0 21 -1 41 -4 58l-283 -469c14 -51 42 -76 78 -76z" />
    <glyph glyph-name="oslash" unicode="&#xf8;" horiz-adv-x="357" 
d="M224 530c36 0 65 -19 84 -53l34 51h28l-50 -77c9 -26 14 -57 14 -94c0 -124 -44 -257 -108 -322c-29 -29 -60 -42 -91 -42c-36 0 -66 18 -85 52l-34 -50h-28l50 75c-9 26 -14 58 -14 96c0 124 44 257 109 321c29 29 60 43 91 43zM222 503c-25 0 -47 -12 -68 -33
c-58 -59 -100 -191 -100 -304c0 -24 2 -45 6 -63l231 344c-14 36 -38 56 -69 56zM305 357c0 23 -2 44 -6 63l-231 -345c14 -35 37 -55 69 -55c25 0 46 12 67 33c59 58 101 190 101 304z" />
    <glyph glyph-name="Oslashacute" unicode="&#x1fe;" horiz-adv-x="400" 
d="M279 707c42 0 75 -23 96 -69l42 70h30l-61 -102c7 -28 11 -60 11 -98c0 -155 -54 -378 -147 -471c-29 -29 -61 -44 -95 -44c-43 0 -76 23 -96 69l-42 -70h-29l60 102c-7 27 -10 60 -10 98c0 155 53 378 146 471c29 29 61 44 95 44zM68 192c0 -22 1 -42 3 -59l284 469
c-14 51 -41 77 -77 77c-26 0 -50 -12 -72 -34c-84 -85 -138 -311 -138 -453zM157 21c25 0 49 12 71 34c85 85 138 311 138 453c0 21 -1 41 -4 58l-283 -469c14 -51 42 -76 78 -76zM278 745l82 101l31 -16l-92 -85h-21z" />
    <glyph glyph-name="oslashacute" unicode="&#x1ff;" horiz-adv-x="357" 
d="M224 530c36 0 65 -19 84 -53l34 51h28l-50 -77c9 -26 14 -57 14 -94c0 -124 -44 -257 -108 -322c-29 -29 -60 -42 -91 -42c-36 0 -66 18 -85 52l-34 -50h-28l50 75c-9 26 -14 58 -14 96c0 124 44 257 109 321c29 29 60 43 91 43zM222 503c-25 0 -47 -12 -68 -33
c-58 -59 -100 -191 -100 -304c0 -24 2 -45 6 -63l231 344c-14 36 -38 56 -69 56zM305 357c0 23 -2 44 -6 63l-231 -345c14 -35 37 -55 69 -55c25 0 46 12 67 33c59 58 101 190 101 304zM223 581l90 121l30 -18l-100 -103h-20z" />
    <glyph glyph-name="Otilde" unicode="&#xd5;" horiz-adv-x="400" 
d="M220 753l-22 6c17 37 36 60 62 60c17 0 29 -8 47 -22c17 -14 25 -20 35 -20c15 0 25 14 39 41l22 -7c-18 -37 -36 -60 -62 -60c-17 0 -29 9 -47 22c-17 14 -25 20 -35 20c-15 0 -26 -14 -39 -40zM277 707c74 0 120 -67 120 -199c0 -155 -53 -378 -145 -471
c-30 -29 -61 -44 -95 -44c-73 0 -119 67 -119 199c0 155 53 378 145 471c29 29 60 44 94 44zM159 21c25 0 48 12 71 35c84 84 136 310 136 452c0 113 -35 171 -90 171c-25 0 -48 -12 -72 -35c-84 -84 -136 -310 -136 -452c0 -113 35 -171 91 -171z" />
    <glyph glyph-name="otilde" unicode="&#xf5;" horiz-adv-x="358" 
d="M224 530c67 0 110 -64 110 -173c0 -124 -44 -257 -108 -322c-29 -29 -60 -42 -91 -42c-67 0 -111 63 -111 173c0 124 44 257 109 321c29 29 60 43 91 43zM137 20c25 0 46 12 67 33c59 59 100 190 100 304c0 89 -30 145 -82 145c-25 0 -47 -11 -68 -33
c-58 -58 -100 -190 -100 -303c0 -90 30 -146 83 -146zM326 665l21 -6c-15 -42 -33 -71 -61 -71c-17 0 -28 10 -41 25c-17 18 -24 26 -34 26c-14 0 -27 -17 -40 -50l-21 6c15 42 34 70 62 70c17 0 28 -11 43 -27c16 -18 23 -24 32 -24c14 0 27 18 39 51z" />
    <glyph glyph-name="Racute" unicode="&#x154;" horiz-adv-x="372" 
d="M263 0l-81 292c-17 -3 -36 -4 -55 -4h-36l-55 -288h-31l136 700h63c59 0 104 -17 133 -47c30 -29 44 -69 44 -120c0 -71 -25 -133 -67 -175c-29 -29 -63 -49 -103 -60l83 -298h-31zM97 316h30c77 0 126 21 162 57c40 40 61 99 61 159c0 43 -11 77 -35 101
c-27 27 -63 39 -115 39h-34zM252 740l82 101l31 -16l-92 -85h-21z" />
    <glyph glyph-name="racute" unicode="&#x155;" horiz-adv-x="214" 
d="M162 576l90 121l30 -18l-100 -103h-20zM2 0l101 523h30l-16 -85c27 52 72 93 137 90l-6 -31h-2c-68 0 -127 -49 -147 -146l-68 -351h-29z" />
    <glyph glyph-name="Rcaron" unicode="&#x158;" horiz-adv-x="372" 
d="M263 0l-81 292c-17 -3 -36 -4 -55 -4h-36l-55 -288h-31l136 700h63c59 0 104 -17 133 -47c30 -29 44 -69 44 -120c0 -71 -25 -133 -67 -175c-29 -29 -63 -49 -103 -60l83 -298h-31zM97 316h30c77 0 126 21 162 57c40 40 61 99 61 159c0 43 -11 77 -35 101
c-27 27 -63 39 -115 39h-34zM368 842l-89 -97h-25l-51 97h24l44 -68l71 68h26z" />
    <glyph glyph-name="rcaron" unicode="&#x159;" horiz-adv-x="214" 
d="M169 581l-46 122h23l39 -89l73 89h24l-91 -122h-22zM2 0l101 523h30l-16 -85c27 52 72 93 137 90l-6 -31h-2c-68 0 -127 -49 -147 -146l-68 -351h-29z" />
    <glyph glyph-name="Rcommaaccent" unicode="&#x156;" horiz-adv-x="372" 
d="M263 0l-81 292c-17 -3 -36 -4 -55 -4h-36l-55 -288h-31l136 700h63c59 0 104 -17 133 -47c30 -29 44 -69 44 -120c0 -71 -25 -133 -67 -175c-29 -29 -63 -49 -103 -60l83 -298h-31zM97 316h30c77 0 126 21 162 57c40 40 61 99 61 159c0 43 -11 77 -35 101
c-27 27 -63 39 -115 39h-34zM69 -179l-6 15c24 14 31 20 35 49h-15l10 53h37l-12 -58c-7 -36 -20 -47 -49 -59z" />
    <glyph glyph-name="rcommaaccent" unicode="&#x157;" horiz-adv-x="214" 
d="M-35 -179l-6 15c24 14 31 20 35 49h-15l10 53h37l-12 -58c-7 -36 -20 -47 -49 -59zM2 0l101 523h30l-16 -85c27 52 72 93 137 90l-6 -31h-2c-68 0 -127 -49 -147 -146l-68 -351h-29z" />
    <glyph glyph-name="Sacute" unicode="&#x15a;" horiz-adv-x="318" 
d="M117 -7c-51 0 -96 24 -130 62l9 34c40 -48 82 -68 123 -68c71 0 114 58 114 133c0 61 -29 123 -69 198c-46 89 -70 144 -70 206c0 48 17 86 42 110c27 27 61 39 98 39c53 0 92 -28 115 -49l-9 -34c-28 29 -62 54 -107 55c-66 0 -108 -52 -108 -119c0 -57 23 -108 65 -187
c45 -87 73 -152 73 -215c0 -49 -14 -94 -45 -125c-23 -23 -56 -40 -101 -40zM235 745l82 101l31 -16l-92 -85h-21z" />
    <glyph glyph-name="sacute" unicode="&#x15b;" horiz-adv-x="270" 
d="M165 581l90 121l30 -18l-100 -103h-20zM96 -5c-42 0 -82 17 -115 48l7 32c32 -34 73 -52 108 -52c56 0 91 39 91 95c0 37 -14 74 -59 136c-52 72 -70 113 -70 156c0 70 48 119 117 119c40 0 72 -16 97 -35l-7 -32c-25 22 -57 39 -90 39c-56 0 -87 -39 -87 -89
c0 -32 12 -65 62 -136c46 -65 67 -110 67 -156c0 -74 -50 -125 -121 -125z" />
    <glyph glyph-name="Scaron" unicode="&#x160;" horiz-adv-x="318" 
d="M117 -7c-51 0 -96 24 -130 62l9 34c40 -48 82 -68 123 -68c71 0 114 58 114 133c0 61 -29 123 -69 198c-46 89 -70 144 -70 206c0 48 17 86 42 110c27 27 61 39 98 39c53 0 92 -28 115 -49l-9 -34c-28 29 -62 54 -107 55c-66 0 -108 -52 -108 -119c0 -57 23 -108 65 -187
c45 -87 73 -152 73 -215c0 -49 -14 -94 -45 -125c-23 -23 -56 -40 -101 -40zM351 847l-89 -97h-25l-51 97h24l44 -68l71 68h26z" />
    <glyph glyph-name="scaron" unicode="&#x161;" horiz-adv-x="270" 
d="M171 586l-46 122h23l39 -89l73 89h24l-91 -122h-22zM96 -5c-42 0 -82 17 -115 48l7 32c32 -34 73 -52 108 -52c56 0 91 39 91 95c0 37 -14 74 -59 136c-52 72 -70 113 -70 156c0 70 48 119 117 119c40 0 72 -16 97 -35l-7 -32c-25 22 -57 39 -90 39
c-56 0 -87 -39 -87 -89c0 -32 12 -65 62 -136c46 -65 67 -110 67 -156c0 -74 -50 -125 -121 -125z" />
    <glyph glyph-name="Scedilla" unicode="&#x15e;" horiz-adv-x="318" 
d="M60 -107l-30 14l67 87c-43 6 -81 28 -110 61l9 34c40 -48 82 -68 123 -68c71 0 114 58 114 133c0 61 -29 123 -69 198c-46 89 -70 144 -70 206c0 48 17 86 42 110c27 27 61 39 98 39c53 0 92 -28 115 -49l-9 -34c-28 29 -62 54 -107 55c-66 0 -108 -52 -108 -119
c0 -57 23 -108 65 -187c45 -87 73 -152 73 -215c0 -49 -14 -94 -45 -125c-23 -23 -55 -39 -99 -40z" />
    <glyph glyph-name="scedilla" unicode="&#x15f;" horiz-adv-x="270" 
d="M34 -107l-30 14l69 90c-34 4 -65 20 -92 46l7 32c32 -34 73 -52 108 -52c56 0 91 39 91 95c0 37 -14 74 -59 136c-52 72 -70 113 -70 156c0 70 48 119 117 119c40 0 72 -16 97 -35l-7 -32c-25 22 -57 39 -90 39c-56 0 -87 -39 -87 -89c0 -32 12 -65 62 -136
c46 -65 67 -110 67 -156c0 -74 -50 -125 -121 -125h-2z" />
    <glyph glyph-name="Scommaaccent" unicode="&#x218;" horiz-adv-x="318" 
d="M51 -179l-6 15c24 14 31 20 35 49h-15l10 53h37l-12 -58c-7 -36 -20 -47 -49 -59zM117 -7c-51 0 -96 24 -130 62l9 34c40 -48 82 -68 123 -68c71 0 114 58 114 133c0 61 -29 123 -69 198c-46 89 -70 144 -70 206c0 48 17 86 42 110c27 27 61 39 98 39
c53 0 92 -28 115 -49l-9 -34c-28 29 -62 54 -107 55c-66 0 -108 -52 -108 -119c0 -57 23 -108 65 -187c45 -87 73 -152 73 -215c0 -49 -14 -94 -45 -125c-23 -23 -56 -40 -101 -40z" />
    <glyph glyph-name="scommaaccent" unicode="&#x219;" horiz-adv-x="270" 
d="M15 -179l-6 15c24 14 31 20 35 49h-15l10 53h37l-12 -58c-7 -36 -20 -47 -49 -59zM96 -5c-42 0 -82 17 -115 48l7 32c32 -34 73 -52 108 -52c56 0 91 39 91 95c0 37 -14 74 -59 136c-52 72 -70 113 -70 156c0 70 48 119 117 119c40 0 72 -16 97 -35l-7 -32
c-25 22 -57 39 -90 39c-56 0 -87 -39 -87 -89c0 -32 12 -65 62 -136c46 -65 67 -110 67 -156c0 -74 -50 -125 -121 -125z" />
    <glyph glyph-name="Tcaron" unicode="&#x164;" horiz-adv-x="283" 
d="M337 842l-89 -97h-25l-51 97h24l44 -68l71 68h26zM75 0l131 672h-117l6 28h264l-5 -28h-117l-131 -672h-31z" />
    <glyph glyph-name="tcaron" unicode="&#x165;" horiz-adv-x="211" 
d="M202 559l36 148h28v-2l-50 -146h-14zM97 -4c-37 0 -65 21 -65 64c0 15 4 35 7 51l74 385h-50l6 27h50l28 150h30l-28 -150h87l-6 -27h-87l-76 -391c-3 -17 -5 -30 -5 -40c0 -29 16 -41 40 -41c16 0 32 5 41 9l-5 -27c-9 -6 -27 -10 -41 -10z" />
    <glyph glyph-name="Tcommaaccent" unicode="&#x162;" horiz-adv-x="283" 
d="M38 -179l-6 15c24 14 31 20 35 49h-15l10 53h37l-12 -58c-7 -36 -20 -47 -49 -59zM75 0l131 672h-117l6 28h264l-5 -28h-117l-131 -672h-31z" />
    <glyph glyph-name="tcommaaccent" unicode="&#x163;" horiz-adv-x="211" 
d="M22 -179l-6 15c24 14 31 20 35 49h-15l10 53h37l-12 -58c-7 -36 -20 -47 -49 -59zM97 -4c-37 0 -65 21 -65 64c0 15 4 35 7 51l74 385h-50l6 27h50l28 150h30l-28 -150h87l-6 -27h-87l-76 -391c-3 -17 -5 -30 -5 -40c0 -29 16 -41 40 -41c16 0 32 5 41 9l-5 -27
c-9 -6 -27 -10 -41 -10z" />
    <glyph glyph-name="Thorn" unicode="&#xde;" horiz-adv-x="351" 
d="M5 0l136 700h31l-24 -122h31c57 0 97 -16 127 -46s45 -73 45 -128c0 -78 -28 -147 -75 -194c-44 -44 -104 -68 -177 -68h-36l-27 -142h-31zM69 170h30c65 0 117 20 155 58c42 42 66 106 66 175c0 50 -13 86 -37 110c-27 26 -62 37 -107 37h-34z" />
    <glyph glyph-name="thorn" unicode="&#xfe;" horiz-adv-x="371" 
d="M168 707l-56 -295c23 49 69 118 132 118c64 0 102 -64 102 -168c0 -114 -41 -259 -111 -329c-26 -26 -54 -40 -84 -40c-68 0 -92 73 -95 130l-50 -253h-29l162 837h29zM150 19c23 0 45 12 65 32c62 62 102 205 102 312c0 85 -29 140 -78 140c-23 0 -44 -11 -65 -32
c-62 -62 -103 -193 -103 -307c0 -76 24 -145 79 -145z" />
    <glyph glyph-name="Uacute" unicode="&#xda;" horiz-adv-x="400" 
d="M273 735l82 101l31 -16l-92 -85h-21zM161 -8c-75 0 -130 47 -130 131c0 27 4 52 13 97l93 480h31l-94 -486c-8 -41 -12 -64 -12 -89c0 -69 43 -105 103 -105c32 0 59 11 82 34c25 24 43 64 54 123l101 523h31l-102 -528c-13 -65 -33 -108 -61 -136
c-30 -30 -65 -44 -109 -44z" />
    <glyph glyph-name="uacute" unicode="&#xfa;" horiz-adv-x="365" 
d="M222 571l90 121l30 -18l-100 -103h-20zM119 -7c-47 0 -95 30 -95 108c0 21 4 51 15 108l61 314h29l-61 -314c-8 -40 -14 -80 -14 -106c0 -61 32 -84 73 -84c66 0 121 66 139 157l67 347h30l-102 -523h-29l16 85c-25 -50 -69 -92 -129 -92z" />
    <glyph glyph-name="Ubreve" unicode="&#x16c;" horiz-adv-x="400" 
d="M287 738c-48 0 -85 25 -82 79h25c1 -32 20 -52 59 -52c40 0 64 20 77 52h26c-18 -54 -56 -79 -105 -79zM161 -8c-75 0 -130 47 -130 131c0 27 4 52 13 97l93 480h31l-94 -486c-8 -41 -12 -64 -12 -89c0 -69 43 -105 103 -105c32 0 59 11 82 34c25 24 43 64 54 123
l101 523h31l-102 -528c-13 -65 -33 -108 -61 -136c-30 -30 -65 -44 -109 -44z" />
    <glyph glyph-name="ubreve" unicode="&#x16d;" horiz-adv-x="365" 
d="M119 -7c-47 0 -95 30 -95 108c0 21 4 51 15 108l61 314h29l-61 -314c-8 -40 -14 -80 -14 -106c0 -61 32 -84 73 -84c66 0 121 66 139 157l67 347h30l-102 -523h-29l16 85c-25 -50 -69 -92 -129 -92zM238 574c-52 0 -83 34 -78 94h25c-1 -38 14 -68 55 -68
c43 0 66 30 81 68h25c-19 -60 -56 -94 -108 -94z" />
    <glyph glyph-name="Ucircumflex" unicode="&#xdb;" horiz-adv-x="400" 
d="M161 -8c-75 0 -130 47 -130 131c0 27 4 52 13 97l93 480h31l-94 -486c-8 -41 -12 -64 -12 -89c0 -69 43 -105 103 -105c32 0 59 11 82 34c25 24 43 64 54 123l101 523h31l-102 -528c-13 -65 -33 -108 -61 -136c-30 -30 -65 -44 -109 -44zM204 740l89 97h25l52 -97h-25
l-45 68l-69 -68h-27z" />
    <glyph glyph-name="ucircumflex" unicode="&#xfb;" horiz-adv-x="365" 
d="M158 576l91 122h23l45 -122h-23l-39 89l-73 -89h-24zM119 -7c-47 0 -95 30 -95 108c0 21 4 51 15 108l61 314h29l-61 -314c-8 -40 -14 -80 -14 -106c0 -61 32 -84 73 -84c66 0 121 66 139 157l67 347h30l-102 -523h-29l16 85c-25 -50 -69 -92 -129 -92z" />
    <glyph glyph-name="Udieresis" unicode="&#xdc;" horiz-adv-x="400" 
d="M228 745l9 47h35l-9 -47h-35zM316 745l9 47h36l-9 -47h-36zM161 -8c-75 0 -130 47 -130 131c0 27 4 52 13 97l93 480h31l-94 -486c-8 -41 -12 -64 -12 -89c0 -69 43 -105 103 -105c32 0 59 11 82 34c25 24 43 64 54 123l101 523h31l-102 -528c-13 -65 -33 -108 -61 -136
c-30 -30 -65 -44 -109 -44z" />
    <glyph glyph-name="udieresis" unicode="&#xfc;" horiz-adv-x="365" 
d="M180 581l10 49h34l-10 -49h-34zM267 581l9 49h34l-9 -49h-34zM119 -7c-47 0 -95 30 -95 108c0 21 4 51 15 108l61 314h29l-61 -314c-8 -40 -14 -80 -14 -106c0 -61 32 -84 73 -84c66 0 121 66 139 157l67 347h30l-102 -523h-29l16 85c-25 -50 -69 -92 -129 -92z" />
    <glyph glyph-name="Ugrave" unicode="&#xd9;" horiz-adv-x="400" 
d="M277 735l-73 86l30 15l62 -101h-19zM161 -8c-75 0 -130 47 -130 131c0 27 4 52 13 97l93 480h31l-94 -486c-8 -41 -12 -64 -12 -89c0 -69 43 -105 103 -105c32 0 59 11 82 34c25 24 43 64 54 123l101 523h31l-102 -528c-13 -65 -33 -108 -61 -136
c-30 -30 -65 -44 -109 -44z" />
    <glyph glyph-name="ugrave" unicode="&#xf9;" horiz-adv-x="365" 
d="M119 -7c-47 0 -95 30 -95 108c0 21 4 51 15 108l61 314h29l-61 -314c-8 -40 -14 -80 -14 -106c0 -61 32 -84 73 -84c66 0 121 66 139 157l67 347h30l-102 -523h-29l16 85c-25 -50 -69 -92 -129 -92zM226 571l-78 104l29 17l67 -121h-18z" />
    <glyph glyph-name="Uhungarumlaut" unicode="&#x170;" horiz-adv-x="400" 
d="M161 -8c-75 0 -130 47 -130 131c0 27 4 52 13 97l93 480h31l-94 -486c-8 -41 -12 -64 -12 -89c0 -69 43 -105 103 -105c32 0 59 11 82 34c25 24 43 64 54 123l101 523h31l-102 -528c-13 -65 -33 -108 -61 -136c-30 -30 -65 -44 -109 -44zM233 735l82 102l30 -17l-91 -85
h-21zM311 735l80 102l30 -17l-90 -85h-20z" />
    <glyph glyph-name="uhungarumlaut" unicode="&#x171;" horiz-adv-x="365" 
d="M119 -7c-47 0 -95 30 -95 108c0 21 4 51 15 108l61 314h29l-61 -314c-8 -40 -14 -80 -14 -106c0 -61 32 -84 73 -84c66 0 121 66 139 157l67 347h30l-102 -523h-29l16 85c-25 -50 -69 -92 -129 -92zM182 571l89 121l29 -17l-99 -104h-19zM264 571l89 121l29 -17l-99 -104
h-19z" />
    <glyph glyph-name="Umacron" unicode="&#x16a;" horiz-adv-x="400" 
d="M203 747l5 27h173l-5 -27h-173zM161 -8c-75 0 -130 47 -130 131c0 27 4 52 13 97l93 480h31l-94 -486c-8 -41 -12 -64 -12 -89c0 -69 43 -105 103 -105c32 0 59 11 82 34c25 24 43 64 54 123l101 523h31l-102 -528c-13 -65 -33 -108 -61 -136c-30 -30 -65 -44 -109 -44z
" />
    <glyph glyph-name="umacron" unicode="&#x16b;" horiz-adv-x="365" 
d="M119 -7c-47 0 -95 30 -95 108c0 21 4 51 15 108l61 314h29l-61 -314c-8 -40 -14 -80 -14 -106c0 -61 32 -84 73 -84c66 0 121 66 139 157l67 347h30l-102 -523h-29l16 85c-25 -50 -69 -92 -129 -92zM156 583l6 26h168l-6 -26h-168z" />
    <glyph glyph-name="Uogonek" unicode="&#x172;" horiz-adv-x="400" 
d="M161 -8h-3c-29 -30 -37 -44 -37 -58s10 -25 41 -25l-4 -21c-5 -1 -7 -1 -9 -1c-41 0 -56 18 -56 40s13 40 44 67c-62 8 -106 54 -106 129c0 27 4 52 13 97l93 480h31l-94 -486c-8 -41 -12 -64 -12 -89c0 -69 43 -105 103 -105c32 0 59 11 82 34c25 24 43 64 54 123
l101 523h31l-102 -528c-13 -65 -33 -108 -61 -136c-30 -30 -65 -44 -109 -44z" />
    <glyph glyph-name="uogonek" unicode="&#x173;" horiz-adv-x="365" 
d="M119 -7c-47 0 -95 30 -95 108c0 21 4 51 15 108l61 314h29l-61 -314c-8 -40 -14 -80 -14 -106c0 -61 32 -84 73 -84c66 0 121 66 139 157l67 347h30l-102 -523h-4c-36 -36 -45 -51 -45 -66c0 -14 10 -25 41 -25l-4 -21c-5 -1 -7 -1 -9 -1c-41 0 -56 18 -56 40
c0 23 15 43 52 73h-4l16 85c-25 -50 -69 -92 -129 -92z" />
    <glyph glyph-name="Uring" unicode="&#x16e;" horiz-adv-x="400" 
d="M161 -8c-75 0 -130 47 -130 131c0 27 4 52 13 97l93 480h31l-94 -486c-8 -41 -12 -64 -12 -89c0 -69 43 -105 103 -105c32 0 59 11 82 34c25 24 43 64 54 123l101 523h31l-102 -528c-13 -65 -33 -108 -61 -136c-30 -30 -65 -44 -109 -44zM303 870c42 0 69 -29 69 -65
c0 -42 -34 -75 -79 -75c-42 0 -69 29 -69 65c0 42 35 75 79 75zM294 749c35 0 57 26 57 55c0 27 -19 47 -49 47c-34 0 -57 -26 -57 -55c0 -27 19 -47 49 -47z" />
    <glyph glyph-name="uring" unicode="&#x16f;" horiz-adv-x="365" 
d="M327 657c0 -44 -33 -80 -78 -80c-40 0 -68 30 -68 69c0 44 34 80 78 80c41 0 68 -30 68 -69zM201 647c0 -29 19 -51 49 -51c34 0 57 28 57 60c0 29 -18 52 -48 52c-35 0 -58 -29 -58 -61zM119 -7c-47 0 -95 30 -95 108c0 21 4 51 15 108l61 314h29l-61 -314
c-8 -40 -14 -80 -14 -106c0 -61 32 -84 73 -84c66 0 121 66 139 157l67 347h30l-102 -523h-29l16 85c-25 -50 -69 -92 -129 -92z" />
    <glyph glyph-name="Wacute" unicode="&#x1e82;" horiz-adv-x="602" 
d="M376 740l82 101l31 -16l-92 -85h-21zM100 -5l15 705h31l-19 -636l244 636h28l-3 -636l227 636h34l-259 -705h-29l3 633l-243 -633h-29z" />
    <glyph glyph-name="wacute" unicode="&#x1e83;" horiz-adv-x="507" 
d="M291 576l90 121l30 -18l-100 -103h-20zM81 -3l-6 526h29l1 -468l185 468h25l4 -468l181 468h31l-210 -526h-25l-7 456l-182 -456h-26z" />
    <glyph glyph-name="Wcircumflex" unicode="&#x174;" horiz-adv-x="602" 
d="M100 -5l15 705h31l-19 -636l244 636h28l-3 -636l227 636h34l-259 -705h-29l3 633l-243 -633h-29zM307 745l89 97h25l52 -97h-25l-45 68l-69 -68h-27z" />
    <glyph glyph-name="wcircumflex" unicode="&#x175;" horiz-adv-x="507" 
d="M228 581l91 122h23l45 -122h-23l-39 89l-73 -89h-24zM81 -3l-6 526h29l1 -468l185 468h25l4 -468l181 468h31l-210 -526h-25l-7 456l-182 -456h-26z" />
    <glyph glyph-name="Wdieresis" unicode="&#x1e84;" horiz-adv-x="602" 
d="M331 750l9 47h35l-9 -47h-35zM419 750l9 47h36l-9 -47h-36zM100 -5l15 705h31l-19 -636l244 636h28l-3 -636l227 636h34l-259 -705h-29l3 633l-243 -633h-29z" />
    <glyph glyph-name="wdieresis" unicode="&#x1e85;" horiz-adv-x="507" 
d="M250 586l10 49h34l-10 -49h-34zM337 586l9 49h34l-9 -49h-34zM81 -3l-6 526h29l1 -468l185 468h25l4 -468l181 468h31l-210 -526h-25l-7 456l-182 -456h-26z" />
    <glyph glyph-name="Wgrave" unicode="&#x1e80;" horiz-adv-x="602" 
d="M379 740l-73 86l30 15l62 -101h-19zM100 -5l15 705h31l-19 -636l244 636h28l-3 -636l227 636h34l-259 -705h-29l3 633l-243 -633h-29z" />
    <glyph glyph-name="wgrave" unicode="&#x1e81;" horiz-adv-x="507" 
d="M81 -3l-6 526h29l1 -468l185 468h25l4 -468l181 468h31l-210 -526h-25l-7 456l-182 -456h-26zM296 576l-78 104l29 17l67 -121h-18z" />
    <glyph glyph-name="Yacute" unicode="&#xdd;" horiz-adv-x="339" 
d="M103 0l59 302l-68 398h31l59 -357l198 357h34l-223 -398l-59 -302h-31zM240 735l82 101l31 -16l-92 -85h-21z" />
    <glyph glyph-name="yacute" unicode="&#xfd;" horiz-adv-x="331" 
d="M101 10l-29 513h29l23 -463l204 463h31l-292 -653h-29zM200 571l90 121l30 -18l-100 -103h-20z" />
    <glyph glyph-name="Ycircumflex" unicode="&#x176;" horiz-adv-x="339" 
d="M103 0l59 302l-68 398h31l59 -357l198 357h34l-223 -398l-59 -302h-31zM170 740l89 97h25l52 -97h-25l-45 68l-69 -68h-27z" />
    <glyph glyph-name="ycircumflex" unicode="&#x177;" horiz-adv-x="331" 
d="M101 10l-29 513h29l23 -463l204 463h31l-292 -653h-29zM136 576l91 122h23l45 -122h-23l-39 89l-73 -89h-24z" />
    <glyph glyph-name="Ydieresis" unicode="&#x178;" horiz-adv-x="339" 
d="M103 0l59 302l-68 398h31l59 -357l198 357h34l-223 -398l-59 -302h-31zM195 745l9 47h35l-9 -47h-35zM283 745l9 47h36l-9 -47h-36z" />
    <glyph glyph-name="ydieresis" unicode="&#xff;" horiz-adv-x="331" 
d="M101 10l-29 513h29l23 -463l204 463h31l-292 -653h-29zM245 581l9 49h34l-9 -49h-34zM158 581l10 49h34l-10 -49h-34z" />
    <glyph glyph-name="Ygrave" unicode="&#x1ef2;" horiz-adv-x="339" 
d="M103 0l59 302l-68 398h31l59 -357l198 357h34l-223 -398l-59 -302h-31zM244 735l-73 86l30 15l62 -101h-19z" />
    <glyph glyph-name="ygrave" unicode="&#x1ef3;" horiz-adv-x="331" 
d="M101 10l-29 513h29l23 -463l204 463h31l-292 -653h-29zM204 571l-78 104l29 17l67 -121h-18z" />
    <glyph glyph-name="Zacute" unicode="&#x179;" horiz-adv-x="315" 
d="M-22 0l4 23l350 650h-221l5 27h255l-4 -22l-350 -651h231l-5 -27h-265zM226 740l82 101l31 -16l-92 -85h-21z" />
    <glyph glyph-name="zacute" unicode="&#x17a;" horiz-adv-x="273" 
d="M172 576l90 121l30 -18l-100 -103h-20zM-24 0l4 20l277 476h-184l5 27h218l-3 -20l-278 -477h192l-5 -26h-226z" />
    <glyph glyph-name="Zcaron" unicode="&#x17d;" horiz-adv-x="315" 
d="M342 842l-89 -97h-25l-51 97h24l44 -68l71 68h26zM-22 0l4 23l350 650h-221l5 27h255l-4 -22l-350 -651h231l-5 -27h-265z" />
    <glyph glyph-name="zcaron" unicode="&#x17e;" horiz-adv-x="273" 
d="M178 581l-46 122h23l39 -89l73 89h24l-91 -122h-22zM-24 0l4 20l277 476h-184l5 27h218l-3 -20l-278 -477h192l-5 -26h-226z" />
    <glyph glyph-name="Zdotaccent" unicode="&#x17b;" horiz-adv-x="315" 
d="M224 750l9 47h36l-9 -47h-36zM-22 0l4 23l350 650h-221l5 27h255l-4 -22l-350 -651h231l-5 -27h-265z" />
    <glyph glyph-name="zdotaccent" unicode="&#x17c;" horiz-adv-x="273" 
d="M-24 0l4 20l277 476h-184l5 27h218l-3 -20l-278 -477h192l-5 -26h-226zM173 586l10 49h35l-9 -49h-36z" />
    <glyph glyph-name="schwa" unicode="&#x259;" horiz-adv-x="340" 
d="M20 149c0 36 6 80 16 124h244c4 26 6 51 6 76c-2 102 -47 153 -110 153c-26 0 -55 -7 -87 -28l2 30c18 13 52 26 87 26c78 0 134 -57 137 -181c2 -118 -43 -248 -108 -313c-27 -27 -57 -43 -89 -43c-60 0 -98 55 -98 156zM186 53c41 41 74 115 90 193h-216
c-7 -33 -10 -67 -10 -97c0 -78 22 -128 71 -128c23 0 45 11 65 32z" />
    <glyph glyph-name="germandbls" unicode="&#xdf;" horiz-adv-x="351" 
d="M96 -2l5 25c124 -3 181 76 181 179c0 75 -41 125 -117 149l4 23c104 19 164 100 164 203c0 63 -31 103 -83 103c-57 0 -95 -45 -115 -145l-104 -535h-28l105 543c12 61 31 104 57 130c24 24 53 35 86 35c69 0 112 -51 112 -131c0 -92 -49 -186 -157 -216
c55 -24 106 -70 106 -159c0 -115 -72 -212 -216 -204z" />
    <glyph glyph-name="zero" unicode="0" horiz-adv-x="365" 
d="M263 707c62 0 101 -49 101 -169c0 -132 -50 -410 -148 -508c-27 -27 -52 -37 -79 -37c-63 0 -102 49 -102 169c0 132 50 410 148 508c27 27 52 37 80 37zM139 21c17 0 35 7 55 26c86 86 140 358 140 491c0 100 -28 141 -73 141c-17 0 -36 -7 -55 -26
c-86 -86 -141 -358 -141 -491c0 -100 28 -141 74 -141z" />
    <glyph glyph-name="one" unicode="1" horiz-adv-x="188" 
d="M40 0l129 659l-81 -40l7 37l86 44h26l-136 -700h-31z" />
    <glyph glyph-name="two" unicode="2" horiz-adv-x="311" 
d="M-27 0l4 21l213 319c76 114 103 169 103 236s-40 100 -93 100c-36 0 -67 -14 -97 -32l7 34c26 16 57 28 93 28c75 0 122 -51 122 -128c0 -84 -46 -156 -111 -253l-197 -296h220l-5 -29h-259z" />
    <glyph glyph-name="three" unicode="3" horiz-adv-x="297" 
d="M71 -6c-31 0 -66 9 -100 31l6 31c30 -21 60 -33 94 -33c96 0 155 95 155 191c0 81 -43 129 -123 150l5 21l196 286h-208l6 29h245l-5 -22l-203 -295c68 -26 118 -76 118 -170c0 -59 -22 -124 -66 -168c-31 -31 -72 -51 -120 -51z" />
    <glyph glyph-name="three.alt" horiz-adv-x="297" 
d="M74 -6c-40 0 -78 15 -103 36l5 29c22 -19 58 -37 99 -37c100 0 146 94 146 178c0 90 -60 141 -130 151l5 26c109 5 189 78 189 186c0 66 -39 115 -105 115c-30 0 -57 -8 -81 -23l5 29c16 12 46 22 79 22c89 0 133 -66 133 -142c0 -93 -56 -176 -166 -205
c66 -31 102 -86 102 -159c0 -107 -65 -206 -178 -206z" />
    <glyph glyph-name="four" unicode="4" horiz-adv-x="331" 
d="M178 0l32 166h-209l5 26l307 513h30l-100 -512h55l-5 -27h-55l-32 -166h-28zM36 193h179l87 443z" />
    <glyph glyph-name="five" unicode="5" horiz-adv-x="314" 
d="M88 -6c-30 0 -66 9 -93 30l6 31c19 -15 48 -33 88 -33c96 0 159 115 159 235c0 100 -49 129 -102 129c-23 0 -47 -6 -61 -12l-18 16l74 310h199l-6 -29h-172l-63 -265c15 5 37 8 52 8c72 0 129 -46 128 -161c0 -79 -29 -161 -79 -210c-31 -31 -68 -49 -112 -49z" />
    <glyph glyph-name="six" unicode="6" horiz-adv-x="344" 
d="M141 -7c-28 0 -50 10 -66 26c-30 29 -41 81 -41 151c0 103 39 382 149 492c31 31 66 45 102 45c35 0 61 -13 77 -23l-6 -32c-18 13 -42 26 -73 26c-30 0 -56 -13 -77 -34c-49 -49 -88 -138 -115 -259c35 26 76 45 112 45c60 0 111 -46 111 -146c0 -81 -29 -194 -88 -253
c-23 -24 -52 -38 -85 -38zM142 20c22 0 43 9 64 30c47 47 77 153 77 231c0 88 -39 121 -87 121c-37 0 -79 -24 -111 -49l-7 -40c-8 -39 -15 -108 -15 -154c1 -50 9 -95 33 -120c13 -12 27 -19 46 -19z" />
    <glyph glyph-name="seven" unicode="7" horiz-adv-x="289" 
d="M12 0l292 671h-202l6 29h234l-6 -28l-292 -672h-32z" />
    <glyph glyph-name="eight" unicode="8" horiz-adv-x="322" 
d="M131 -7c-81 0 -123 62 -124 152c-1 85 44 199 135 222c-37 28 -54 75 -54 133c-1 91 48 207 147 207c56 0 107 -41 108 -135c0 -84 -38 -190 -120 -215c44 -32 64 -83 65 -147c0 -89 -47 -217 -157 -217zM134 20c86 0 124 111 124 198c0 70 -33 130 -90 130
c-82 0 -131 -111 -131 -199c0 -73 29 -129 97 -129zM196 375c72 0 118 108 118 195c0 75 -35 110 -81 110c-80 1 -116 -109 -116 -187c0 -49 18 -118 79 -118z" />
    <glyph glyph-name="nine" unicode="9" horiz-adv-x="339" 
d="M90 -7c-34 0 -62 12 -82 27l6 32c22 -17 48 -30 78 -30s56 13 78 34c48 49 86 135 113 252c-35 -26 -75 -45 -112 -45c-59 0 -110 47 -110 149c0 85 29 198 88 257c24 24 53 38 86 38c27 0 49 -10 66 -26c29 -29 41 -81 41 -151c0 -103 -39 -382 -150 -492
c-31 -31 -66 -45 -102 -45zM178 291c37 0 79 25 111 50l9 46c7 39 15 108 14 154c0 50 -8 95 -33 120c-12 12 -27 19 -46 19c-22 0 -42 -9 -64 -30c-47 -47 -76 -154 -76 -235c0 -90 38 -124 85 -124z" />
    <glyph glyph-name="period" unicode="." horiz-adv-x="113" 
d="M-15 0l12 63h42l-13 -63h-41z" />
    <glyph glyph-name="comma" unicode="," horiz-adv-x="111" 
d="M-38 -76l-7 18c31 15 41 25 45 58h-17l12 63h42l-12 -63c-9 -47 -26 -62 -63 -76z" />
    <glyph glyph-name="colon" unicode=":" horiz-adv-x="122" 
d="M-11 0l12 63h41l-12 -63h-41zM75 443l12 63h42l-12 -63h-42z" />
    <glyph glyph-name="semicolon" unicode=";" horiz-adv-x="117" 
d="M-36 -76l-7 18c31 15 41 25 45 58h-17l12 63h42l-12 -63c-9 -47 -26 -62 -63 -76zM71 443l12 63h42l-13 -63h-41z" />
    <glyph glyph-name="ellipsis" unicode="&#x2026;" horiz-adv-x="379" 
d="M-16 0l13 64h42l-12 -64h-43zM117 0l13 64h42l-12 -64h-43zM250 0l13 64h42l-12 -64h-43z" />
    <glyph glyph-name="periodcentered" unicode="&#xb7;" horiz-adv-x="116" 
d="M35 255l13 64h43l-13 -64h-43z" />
    <glyph glyph-name="bullet" unicode="&#x2022;" horiz-adv-x="301" 
d="M178 453c39 0 63 -26 63 -68c0 -40 -13 -87 -40 -111c-14 -12 -31 -19 -49 -19c-39 0 -63 26 -63 69c0 40 13 87 40 110c14 13 31 19 49 19z" />
    <glyph glyph-name="ampersand" unicode="&#x26;" horiz-adv-x="399" 
d="M347 317l27 -9c-20 -59 -45 -129 -79 -187l43 -116l-27 -12l-35 97c-38 -58 -86 -97 -143 -97c-81 0 -125 69 -125 150c0 112 60 188 156 252c-26 73 -34 127 -34 164c0 81 46 148 120 148c66 0 101 -55 101 -110c0 -87 -59 -149 -153 -210l85 -235c28 54 49 115 64 165z
M134 21c52 0 95 41 130 98l-90 252c-92 -61 -135 -135 -135 -221c0 -74 33 -129 95 -129zM160 560c0 -33 6 -81 29 -149c72 46 132 102 132 183c0 48 -26 86 -73 86c-57 0 -88 -57 -88 -120z" />
    <glyph glyph-name="exclam" unicode="!" horiz-adv-x="156" 
d="M55 183l78 447l14 70h34l-14 -70l-97 -447h-15zM7 0l12 63h40l-12 -63h-40z" />
    <glyph glyph-name="exclamdown" unicode="&#xa1;" horiz-adv-x="156" 
d="M135 517l-78 -447l-14 -70h-34l14 70l97 447h15zM183 700l-12 -63h-40l12 63h40z" />
    <glyph glyph-name="question" unicode="?" horiz-adv-x="293" 
d="M94 183l27 177l6 6c102 29 165 100 165 194c0 84 -55 115 -106 115c-33 0 -63 -10 -92 -28l6 33c23 14 53 24 87 24c77 0 136 -51 136 -142c0 -105 -68 -182 -173 -218l-39 -161h-17zM49 0l13 63h41l-13 -63h-41z" />
    <glyph glyph-name="questiondown" unicode="&#xbf;" horiz-adv-x="293" 
d="M232 517l-27 -177l-6 -6c-102 -29 -165 -100 -165 -194c0 -84 55 -115 106 -115c33 0 63 10 92 28l-6 -33c-23 -14 -53 -24 -87 -24c-77 0 -136 51 -136 142c0 105 68 182 173 218l39 161h17zM277 700l-13 -63h-41l13 63h41z" />
    <glyph glyph-name="quotedblleft" unicode="&#x201c;" horiz-adv-x="212" 
d="M93 561l12 64c9 46 26 61 63 76l7 -19c-31 -15 -41 -24 -45 -58h17l-12 -63h-42zM194 561l13 64c8 46 26 61 63 76l7 -19c-32 -15 -42 -24 -46 -58h17l-12 -63h-42z" />
    <glyph glyph-name="quotedblright" unicode="&#x201d;" horiz-adv-x="212" 
d="M87 561l-7 18c31 15 41 25 45 58h-17l12 63h42l-12 -63c-9 -46 -26 -62 -63 -76zM188 561l-7 18c31 15 41 25 45 58h-17l12 63h42l-12 -63c-9 -46 -26 -62 -63 -76z" />
    <glyph glyph-name="quoteleft" unicode="&#x2018;" horiz-adv-x="111" 
d="M93 561l12 64c9 46 26 61 63 76l7 -19c-31 -15 -41 -24 -45 -58h17l-12 -63h-42z" />
    <glyph glyph-name="quoteright" unicode="&#x2019;" horiz-adv-x="111" 
d="M87 561l-7 18c31 15 41 25 45 58h-17l12 63h42l-12 -63c-9 -46 -26 -62 -63 -76z" />
    <glyph glyph-name="quotedblbase" unicode="&#x201e;" horiz-adv-x="212" 
d="M-38 -76l-7 18c31 15 41 25 45 58h-17l12 63h42l-12 -63c-9 -47 -26 -62 -63 -76zM63 -76l-7 18c31 15 41 25 45 58h-17l12 63h42l-12 -63c-9 -47 -26 -62 -63 -76z" />
    <glyph glyph-name="quotesinglbase" unicode="&#x201a;" horiz-adv-x="111" 
d="M-38 -76l-7 18c31 15 41 25 45 58h-17l12 63h42l-12 -63c-9 -47 -26 -62 -63 -76z" />
    <glyph glyph-name="guillemotleft" unicode="&#xab;" horiz-adv-x="316" 
d="M97 45l-75 207l1 6l156 208l20 -16l-146 -198l68 -199zM218 45l-76 207l1 6l157 208l19 -16l-145 -198l68 -199z" />
    <glyph glyph-name="guillemotright" unicode="&#xbb;" horiz-adv-x="316" 
d="M216 465l75 -207l-1 -6l-156 -208l-20 16l146 198l-68 199zM95 465l76 -207l-1 -6l-157 -208l-19 16l145 198l-68 199z" />
    <glyph glyph-name="guilsinglleft" unicode="&#x2039;" horiz-adv-x="195" 
d="M97 45l-75 207l1 6l156 208l20 -16l-146 -198l68 -199z" />
    <glyph glyph-name="guilsinglright" unicode="&#x203a;" horiz-adv-x="195" 
d="M95 465l75 -207l-1 -6l-156 -208l-20 16l146 198l-68 199z" />
    <glyph glyph-name="hyphen" unicode="-" horiz-adv-x="252" 
d="M42 281l5 28h176l-5 -28h-176z" />
    <glyph glyph-name="endash" unicode="&#x2013;" horiz-adv-x="388" 
d="M42 282l5 28h312l-5 -28h-312z" />
    <glyph glyph-name="emdash" unicode="&#x2014;" horiz-adv-x="568" 
d="M42 282l5 28h492l-5 -28h-492z" />
    <glyph glyph-name="underscore" unicode="_" horiz-adv-x="446" 
d="M-82 -152l4 23h450l-5 -23h-449z" />
    <glyph glyph-name="slash" unicode="/" horiz-adv-x="249" 
d="M-75 -98l386 866h29l-386 -866h-29z" />
    <glyph glyph-name="backslash" unicode="\" horiz-adv-x="249" 
d="M156 -98l-49 866h26l49 -866h-26z" />
    <glyph glyph-name="bar" unicode="|" horiz-adv-x="206" 
d="M20 -98l169 866h25l-168 -866h-26z" />
    <glyph glyph-name="parenleft" unicode="(" horiz-adv-x="222" 
d="M132 -127c-65 69 -104 176 -104 305c0 196 74 357 176 460c29 28 59 52 91 70l-5 -28c-21 -14 -41 -31 -63 -53c-103 -103 -171 -274 -171 -450c0 -118 31 -211 81 -277z" />
    <glyph glyph-name="parenright" unicode=")" horiz-adv-x="222" 
d="M102 707c65 -69 104 -176 104 -305c0 -196 -74 -357 -176 -460c-29 -28 -59 -52 -91 -70l5 28c21 14 41 31 63 53c103 103 171 274 171 450c0 118 -31 211 -81 277z" />
    <glyph glyph-name="bracketleft" unicode="[" horiz-adv-x="240" 
d="M3 -130l160 830h126l-4 -23h-97l-152 -784h97l-5 -23h-125z" />
    <glyph glyph-name="bracketright" unicode="]" horiz-adv-x="240" 
d="M246 700l-160 -830h-126l4 23h97l152 784h-97l5 23h125z" />
    <glyph glyph-name="braceleft" unicode="{" horiz-adv-x="253" 
d="M154 -135c-79 17 -109 58 -109 110c0 41 21 79 45 123c22 42 36 74 36 107c0 38 -30 73 -91 73h-7l4 23h7c47 0 79 15 99 35c41 41 39 90 30 163c-8 72 -13 134 30 178c25 24 64 39 121 38l-4 -23c-41 1 -73 -10 -94 -31c-32 -32 -32 -81 -24 -152
c9 -82 12 -136 -33 -181c-19 -19 -46 -33 -81 -40c45 -17 72 -45 72 -88c0 -33 -19 -74 -37 -108c-22 -43 -43 -80 -43 -117c0 -42 23 -73 84 -88z" />
    <glyph glyph-name="braceright" unicode="}" horiz-adv-x="253" 
d="M114 715c79 -17 109 -58 109 -110c0 -41 -21 -79 -45 -123c-22 -42 -36 -74 -36 -107c0 -38 30 -73 91 -73h7l-4 -23h-7c-47 0 -79 -15 -99 -35c-41 -41 -39 -90 -30 -163c8 -72 13 -134 -30 -178c-25 -24 -64 -39 -121 -38l4 23c41 -1 73 10 94 31c32 32 32 81 24 152
c-9 82 -12 136 33 181c19 19 46 33 81 40c-45 17 -72 45 -72 88c0 33 19 74 37 108c22 43 43 80 43 117c0 42 -23 73 -84 88z" />
    <glyph glyph-name="at" unicode="@" horiz-adv-x="629" 
d="M261 -133c-132 0 -233 88 -233 289c0 274 153 552 366 552c143 0 214 -112 214 -270c0 -160 -75 -365 -177 -365c-53 0 -75 49 -63 108c-30 -55 -74 -111 -128 -111c-49 0 -76 41 -76 110c0 135 89 328 187 328c50 0 73 -46 76 -103l24 86l27 -6l-73 -259
c-8 -26 -13 -55 -13 -76c0 -28 12 -53 43 -53c84 0 151 202 151 339c0 144 -61 251 -194 251c-204 0 -342 -289 -342 -529c0 -188 94 -270 212 -270c65 0 115 22 162 49l10 -18c-51 -29 -106 -52 -173 -52zM246 99c78 0 163 166 163 284c0 48 -19 98 -59 98
c-77 0 -157 -179 -157 -298c0 -54 18 -84 53 -84z" />
    <glyph glyph-name="copyright" unicode="&#xa9;" horiz-adv-x="517" 
d="M255 152c-48 0 -76 42 -76 126c0 78 27 188 79 240c23 23 45 30 64 30c20 0 35 -9 48 -20l-5 -27c-15 16 -30 22 -44 22s-29 -5 -45 -21c-43 -44 -71 -146 -71 -224c0 -66 18 -101 54 -101c17 0 34 8 48 18l-5 -27c-11 -8 -27 -16 -47 -16zM525 445
c0 -128 -42 -291 -135 -384c-44 -44 -96 -71 -159 -71c-138 0 -203 117 -203 266c0 128 41 291 134 384c44 44 97 71 159 71c138 0 204 -117 204 -266zM48 253c-1 -126 54 -243 185 -243c55 0 102 25 140 63c95 94 131 264 131 375c1 126 -54 243 -184 243
c-56 0 -103 -25 -141 -63c-95 -94 -130 -264 -131 -375z" />
    <glyph glyph-name="published" unicode="&#x2117;" horiz-adv-x="517" 
d="M250 550h34c68 0 105 -38 105 -103c0 -73 -44 -147 -142 -147h-19l-27 -136h-26zM363 445c0 51 -25 80 -78 80h-14l-39 -201h20c75 0 110 56 111 121zM322 711c139 0 203 -118 203 -263c0 -131 -44 -294 -137 -387c-44 -44 -97 -71 -158 -71c-139 0 -202 118 -202 263
c0 131 43 294 137 387c44 44 96 71 157 71zM230 10c56 0 103 25 141 63c94 94 133 264 133 377c1 123 -53 241 -182 241c-55 0 -103 -25 -141 -63c-94 -94 -132 -264 -133 -377c-1 -123 53 -241 182 -241z" />
    <glyph glyph-name="registered.alt" horiz-adv-x="517" 
d="M322 711c139 0 203 -118 203 -263c0 -131 -44 -294 -137 -387c-44 -44 -97 -71 -158 -71c-139 0 -202 118 -202 263c0 131 43 294 137 387c44 44 96 71 157 71zM230 10c56 0 103 25 141 63c94 94 133 264 133 377c1 123 -53 241 -182 241c-55 0 -103 -25 -141 -63
c-94 -94 -132 -264 -133 -377c-1 -123 53 -241 182 -241zM223 317l-29 -153h-26l75 385h33c36 0 66 -9 85 -29c17 -16 26 -41 26 -72c0 -33 -11 -68 -36 -93c-13 -13 -29 -23 -49 -30l36 -161h-25l-35 155c-13 -2 -23 -2 -55 -2zM228 341h15c49 0 73 13 88 28
c22 23 30 52 30 80c0 24 -6 41 -19 54c-14 14 -36 21 -63 21h-16z" />
    <glyph glyph-name="registered" unicode="&#xae;" horiz-adv-x="307" 
d="M232 717c72 0 105 -59 105 -130c0 -65 -23 -147 -71 -195c-23 -23 -52 -37 -85 -37c-73 0 -105 59 -105 130c0 65 23 147 71 195c23 23 52 37 85 37zM182 368c28 0 53 12 73 32c48 48 69 131 69 188c0 58 -27 116 -93 116c-28 0 -53 -12 -73 -32
c-48 -48 -69 -131 -69 -188c0 -58 27 -116 93 -116zM180 519l-14 -75h-16l37 191h18c37 0 61 -16 61 -52c0 -24 -12 -50 -43 -60l19 -79h-15l-19 76c-10 -1 -18 -1 -28 -1zM183 533h9c25 0 37 6 45 14c10 11 14 25 14 36c0 27 -17 38 -44 38h-7z" />
    <glyph glyph-name="servicemark" unicode="&#x2120;" horiz-adv-x="396" 
d="M122 382c-26 0 -47 12 -63 28l7 25c18 -24 39 -33 55 -33c31 0 49 25 49 58c0 22 -11 48 -31 80c-21 36 -35 63 -35 91c0 21 7 40 20 53c11 11 28 19 47 19c26 0 45 -12 56 -23l-6 -24c-14 16 -31 27 -50 27c-29 0 -45 -24 -45 -50c0 -24 12 -45 32 -79
c22 -37 35 -64 35 -93c0 -24 -8 -45 -23 -60c-12 -12 -29 -19 -48 -19zM218 385l61 315h25l24 -176l88 176h28l-61 -315h-21l53 270l-95 -185h-4l-25 185l-52 -270h-21z" />
    <glyph glyph-name="trademark" unicode="&#x2122;" horiz-adv-x="368" 
d="M78 385l56 295h-50l5 20h122l-4 -20h-51l-57 -295h-21zM190 385l61 315h25l24 -176l88 176h28l-61 -315h-21l53 270l-95 -185h-4l-25 185l-52 -270h-21z" />
    <glyph glyph-name="asterisk" unicode="*" horiz-adv-x="267" 
d="M181 431l-27 6l30 117l-94 -42l-10 26l99 31l-80 68l18 21l72 -75l16 119l28 -5l-30 -117l95 43l9 -27l-99 -31l80 -67l-19 -21l-72 74z" />
    <glyph glyph-name="dagger" unicode="&#x2020;" horiz-adv-x="235" 
d="M98 238l63 293l-85 -7l6 31l81 -7l22 152h35l-38 -152l84 7l-5 -31l-82 7l-50 -293h-31z" />
    <glyph glyph-name="daggerdbl" unicode="&#x2021;" horiz-adv-x="245" 
d="M53 0l38 152l-84 -7l7 31l81 -7l28 181l42 181l-85 -7l7 31l82 -7l21 152h35l-38 -152l85 7l-7 -31l-81 7l-27 -181l-44 -181l85 7l-7 -31l-81 7l-22 -152h-35z" />
    <glyph glyph-name="dollar" unicode="$" horiz-adv-x="330" 
d="M249 768h25l-13 -65c37 -5 69 -23 93 -44l-6 -33c-27 27 -58 45 -92 50l-59 -303c74 -75 87 -126 87 -183c0 -88 -48 -193 -163 -196l-19 -93h-25l19 95c-41 5 -80 24 -108 51l7 34c31 -36 70 -55 107 -59l66 336c-64 68 -84 120 -84 174c0 88 54 172 153 173zM254 196
c0 38 -7 83 -64 143l-63 -318c91 4 127 97 127 175zM114 530c0 -43 16 -86 61 -137l56 285c-78 -3 -117 -73 -117 -148z" />
    <glyph glyph-name="sterling" unicode="&#xa3;" horiz-adv-x="309" 
d="M-18 0l3 15l51 13l59 304h-54l6 26h54l36 188c13 69 28 101 53 125c25 25 55 36 89 36c32 0 60 -10 77 -19l-5 -30c-20 12 -46 21 -73 21c-25 0 -48 -8 -66 -26c-20 -19 -33 -49 -44 -102l-37 -193h133l-6 -26h-132l-59 -304h185l-6 -28h-264z" />
    <glyph glyph-name="Euro" unicode="&#x20ac;" horiz-adv-x="352" 
d="M43 423l4 25h61c23 83 59 160 106 207c40 40 76 50 108 50c30 0 55 -10 74 -25l-6 -33c-20 20 -45 29 -69 29c-25 0 -53 -8 -84 -39c-42 -42 -75 -111 -98 -189h165l-5 -25h-167c-12 -46 -19 -94 -24 -139h164l-4 -25h-162c-1 -15 -1 -29 -1 -42c0 -126 32 -193 102 -193
c22 0 45 8 69 23l-6 -33c-16 -10 -39 -19 -67 -19c-83 0 -129 70 -129 217c0 15 0 31 1 47h-63l4 25h61c4 45 12 93 24 139h-58z" />
    <glyph glyph-name="yen" unicode="&#xa5;" horiz-adv-x="338" 
d="M103 0l28 146h-100l5 25h100l21 109h-100l5 25h98l-66 395h32l57 -364l198 364h33l-220 -395h98l-5 -25h-101l-21 -109h101l-5 -25h-101l-28 -146h-29z" />
    <glyph glyph-name="cent" unicode="&#xa2;" horiz-adv-x="279" 
d="M242 703h25l-17 -85c27 -2 48 -13 62 -24l-6 -31c-15 14 -37 26 -62 28l-95 -483h7c19 0 43 7 66 21l-6 -31c-18 -10 -41 -17 -63 -17h-9l-17 -86h-25l17 90c-51 16 -77 70 -77 168c0 110 37 258 106 328c23 22 49 35 77 37zM72 256c0 -87 18 -130 53 -143l95 477
c-19 -3 -37 -13 -50 -26c-62 -63 -98 -210 -98 -308z" />
    <glyph glyph-name="numbersign" unicode="#" horiz-adv-x="376" 
d="M42 0l39 194h-70l4 28h72l51 256h-70l5 28h71l39 194h25l-38 -194h120l38 194h26l-39 -194h71l-5 -28h-72l-51 -256h70l-4 -28h-72l-38 -194h-26l39 194h-120l-39 -194h-26zM112 222h120l52 256h-120z" />
    <glyph glyph-name="paragraph" unicode="&#xb6;" horiz-adv-x="312" 
d="M174 0l51 258c-50 2 -92 18 -122 48c-31 31 -46 76 -46 131c0 77 26 148 74 195c42 42 101 68 175 68h35l-137 -700h-30z" />
    <glyph glyph-name="section" unicode="&#xa7;" horiz-adv-x="348" 
d="M341 340c-1 -74 -63 -107 -140 -137c29 -31 42 -61 42 -94c0 -67 -49 -116 -120 -116c-40 0 -70 13 -93 27l6 30c29 -22 62 -31 87 -31c54 0 90 36 90 89c0 34 -16 64 -73 111c-81 66 -99 100 -98 141c0 74 62 107 140 137c-30 31 -43 61 -43 94c0 67 49 116 121 116
c39 0 70 -13 92 -27l-6 -30c-28 22 -62 31 -87 31c-54 0 -89 -36 -89 -89c0 -34 15 -64 73 -111c81 -66 98 -100 98 -141zM72 361c0 -36 17 -60 71 -106c6 -6 28 -24 39 -33c51 20 128 49 128 117c0 36 -16 60 -70 106c-11 10 -24 20 -39 33c-52 -20 -129 -49 -129 -117z
" />
    <glyph glyph-name="ordfeminine" unicode="&#xaa;" horiz-adv-x="231" 
d="M134 403c-30 0 -52 23 -52 70c0 51 27 113 83 113c20 0 39 -8 53 -17l4 21c3 12 5 33 5 45c0 26 -14 42 -45 42c-17 0 -32 -4 -48 -11l4 24c14 7 33 11 48 11c40 0 65 -23 65 -64c0 -11 -2 -27 -5 -47l-35 -182h-24l7 38c-13 -22 -33 -43 -60 -43zM140 424
c31 0 57 40 66 82l8 42c-12 9 -31 17 -48 17c-44 0 -60 -53 -60 -90c-1 -34 12 -51 34 -51zM53 330l4 20h153l-4 -20h-153z" />
    <glyph glyph-name="ordmasculine" unicode="&#xba;" horiz-adv-x="234" 
d="M55 330l4 20h153l-4 -20h-153zM112 499c0 -44 13 -74 41 -74c12 0 23 7 31 15c32 32 52 107 52 167c0 44 -12 74 -40 74c-13 0 -23 -7 -31 -15c-33 -32 -53 -107 -53 -167zM261 605c0 -63 -21 -141 -59 -179c-15 -15 -32 -23 -50 -23c-39 0 -64 33 -64 98
c0 62 20 141 59 179c14 15 31 23 50 23c39 0 64 -33 64 -98z" />
    <glyph glyph-name="degree" unicode="&#xb0;" horiz-adv-x="237" 
d="M199 708c43 0 77 -34 77 -104c0 -67 -24 -140 -62 -176c-17 -16 -38 -26 -61 -26c-43 0 -77 34 -77 104c0 65 22 136 59 173c16 16 36 29 64 29zM155 427c16 0 30 7 42 18c32 30 53 99 53 157c0 54 -20 81 -53 81c-17 0 -31 -7 -43 -19c-32 -32 -52 -99 -52 -156
c0 -54 20 -81 53 -81z" />
    <glyph glyph-name="percent" unicode="%" horiz-adv-x="490" 
d="M23 0l226 352l224 348h28l-226 -352l-224 -348h-28zM153 372c-47 0 -80 39 -80 115c0 71 27 149 67 190c18 18 39 28 61 28c48 0 80 -39 80 -114c0 -72 -26 -150 -67 -190c-18 -18 -38 -29 -61 -29zM154 397c15 0 28 6 43 21c34 34 58 108 58 171c0 59 -20 91 -55 91
c-15 0 -28 -6 -42 -20c-35 -35 -59 -108 -59 -171c0 -60 20 -92 55 -92zM324 -5c-48 0 -81 39 -81 114c0 72 27 150 67 190c18 18 39 29 61 29c48 0 80 -39 80 -115c0 -71 -26 -149 -67 -190c-18 -18 -38 -28 -60 -28zM324 20c15 0 28 6 43 20c34 35 58 108 58 171
c0 60 -20 92 -55 92c-14 0 -27 -6 -42 -21c-35 -34 -58 -108 -58 -171c0 -59 19 -91 54 -91z" />
    <glyph glyph-name="perthousand" unicode="&#x2030;" horiz-adv-x="739" 
d="M23 0l226 352l224 348h28l-226 -352l-224 -348h-28zM153 372c-47 0 -80 39 -80 115c0 71 27 149 67 190c18 18 39 28 61 28c48 0 80 -39 80 -114c0 -72 -26 -150 -67 -190c-18 -18 -38 -29 -61 -29zM154 397c15 0 28 6 43 21c34 34 58 108 58 171c0 59 -20 91 -55 91
c-15 0 -28 -6 -42 -20c-35 -35 -59 -108 -59 -171c0 -60 20 -92 55 -92zM324 -5c-48 0 -81 39 -81 114c0 72 27 150 67 190c18 18 39 29 61 29c48 0 80 -39 80 -115c0 -71 -26 -149 -67 -190c-18 -18 -38 -28 -60 -28zM324 20c15 0 28 6 43 20c34 35 58 108 58 171
c0 60 -20 92 -55 92c-14 0 -27 -6 -42 -21c-35 -34 -58 -108 -58 -171c0 -59 19 -91 54 -91zM572 -5c-47 0 -80 39 -80 114c0 72 27 150 67 190c18 18 39 29 61 29c48 0 80 -39 80 -115c0 -71 -26 -149 -67 -190c-18 -18 -38 -28 -61 -28zM573 20c15 0 28 6 43 20
c34 35 58 108 58 171c0 60 -20 92 -55 92c-15 0 -28 -6 -42 -21c-35 -34 -59 -108 -59 -171c0 -59 20 -91 55 -91z" />
    <glyph glyph-name="quotedbl" unicode="&#x22;" horiz-adv-x="216" 
d="M82 458l47 242h35l-2 -9l-66 -233h-14zM187 458l47 242h35l-2 -9l-66 -233h-14z" />
    <glyph glyph-name="quotesingle" unicode="'" horiz-adv-x="101" 
d="M82 458l47 242h35l-2 -9l-66 -233h-14z" />
    <glyph glyph-name="plus" unicode="+" horiz-adv-x="333" 
d="M141 207l27 131h-125l6 28h123l26 131h28l-26 -131h125l-6 -28h-123l-27 -131h-28z" />
    <glyph glyph-name="minus" unicode="&#x2212;" horiz-adv-x="333" 
d="M43 337l7 30h275l-7 -30h-275z" />
    <glyph glyph-name="divide" unicode="&#xf7;" horiz-adv-x="333" 
d="M134 197l11 55h37l-10 -55h-38zM43 337l6 30h275l-7 -30h-274zM185 452l10 55h37l-10 -55h-37z" />
    <glyph glyph-name="equal" unicode="=" horiz-adv-x="333" 
d="M35 268l6 29h265l-6 -29h-265zM62 407l6 29h265l-6 -29h-265z" />
    <glyph glyph-name="multiply" unicode="&#xd7;" horiz-adv-x="331" 
d="M63 225l-18 20l118 108l-75 107l22 17l73 -105l116 107l18 -21l-118 -108l75 -107l-22 -16l-73 104z" />
    <glyph glyph-name="less" unicode="&#x3c;" horiz-adv-x="340" 
d="M274 189l-219 151l5 24l277 151l-7 -36l-239 -129l189 -130z" />
    <glyph glyph-name="greater" unicode="&#x3e;" horiz-adv-x="340" 
d="M37 189l7 36l239 129l-188 130l6 31l218 -151l-4 -24z" />
    <glyph glyph-name="plusminus" unicode="&#xb1;" horiz-adv-x="333" 
d="M142 207l25 131h-123l5 28h124l25 131h28l-25 -131h123l-5 -28h-124l-25 -131h-28zM0 104l5 27h274l-5 -27h-274z" />
    <glyph glyph-name="space" unicode=" " horiz-adv-x="161" 
 />
    <glyph glyph-name="uni00A0" unicode="&#xa0;" horiz-adv-x="161" 
 />
    <glyph glyph-name="emspace" unicode="&#x2003;" horiz-adv-x="1000" 
 />
    <glyph glyph-name="enspace" unicode="&#x2002;" 
 />
    <glyph glyph-name="threeperemspace" unicode="&#x2004;" horiz-adv-x="333" 
 />
    <glyph glyph-name="fourperemspace" unicode="&#x2005;" horiz-adv-x="250" 
 />
    <glyph glyph-name="thinspace" unicode="&#x2009;" horiz-adv-x="113" 
 />
    <glyph glyph-name="hairspace" unicode="&#x200a;" horiz-adv-x="60" 
 />
    <glyph glyph-name="asciicircum" unicode="^" horiz-adv-x="300" 
d="M122 533l98 153h23l39 -153h-23l-33 119l-78 -119h-26z" />
    <glyph glyph-name="asciitilde" unicode="~" horiz-adv-x="294" 
d="M75 258l-20 6c16 40 32 67 60 67c17 0 28 -9 43 -26c16 -17 21 -24 32 -24c15 0 28 20 39 48l20 -6c-16 -40 -32 -67 -60 -67c-16 0 -28 9 -42 26c-16 17 -22 24 -33 24c-15 0 -28 -20 -39 -48z" />
    <glyph glyph-name="NUL" horiz-adv-x="0" 
 />
    <glyph glyph-name="hfjslug" horiz-adv-x="694" 
d="M255 276h8l11 34h1l11 -34h8l14 47h-8l-10 -35h-1l-11 35h-7l-11 -35h-1l-10 35h-8zM321 388c13 0 23 9 29 24h1l12 -24l12 6l-17 32c5 12 9 25 13 39l-13 3c-2 -9 -5 -21 -8 -30h-1l-16 31c13 12 23 26 23 42c0 17 -9 31 -27 31c-17 0 -28 -14 -28 -31
c0 -15 6 -24 14 -39c-15 -12 -23 -28 -23 -47c0 -22 12 -37 29 -37zM50 -200v303c18 0 32 14 32 32c0 17 -14 32 -32 32v554h100l30 79h334l29 -79h101v-921h-208l-8 14h-163l-8 -14h-207zM523 277h8v12l8 8l15 -20h10l-20 26l18 20h-10l-20 -24h-1v24h-8v-46zM193 277h34v7
h-26v13h23v7h-23v12h26v7h-34v-46zM184 391h15v79h47v-79h15v172h-15v-79h-47v79h-15v-172zM132 277h8v32l25 -32h7v46h-8v-32l-25 32h-7v-46zM400 391h15v78h38v14h-38v66h43v14h-58v-172zM468 277h8v15h12l10 -15h9l-12 17c5 2 10 6 10 14c0 9 -7 15 -17 15h-20v-46z
M366 277h8v17l18 29h-9l-13 -22l-13 22h-9l18 -29v-17zM481 390c20 0 31 11 31 36v137h-16v-137c0 -16 -5 -22 -16 -22c-6 0 -15 3 -20 5v-15c5 -2 14 -4 21 -4zM476 299v17h11c6 0 10 -3 10 -8s-4 -9 -10 -9h-11zM322 402c-9 0 -16 10 -16 25c0 13 7 26 16 35l20 -39
c-5 -13 -12 -21 -20 -21zM327 479c-7 13 -12 22 -12 32c0 11 6 19 14 19s13 -8 13 -19c0 -12 -5 -21 -15 -32zM426 283c-10 0 -16 8 -16 17c0 8 6 17 16 17s16 -9 16 -17c0 -9 -6 -17 -16 -17zM426 276c14 0 24 11 24 24c0 12 -10 24 -24 24s-24 -12 -24 -24
c0 -13 10 -24 24 -24z" />
    <glyph glyph-name="i.dot" horiz-adv-x="145" 
d="M7 0l101 523h30l-101 -523h-30zM130 645l12 62h33l-12 -62h-33z" />
    <glyph glyph-name="acute" unicode="&#xb4;" 
d="M257 576l90 121l30 -18l-100 -103h-20z" />
    <glyph glyph-name="hungarumlaut" unicode="&#x2dd;" 
d="M217 576l89 121l29 -17l-99 -104h-19zM299 576l89 121l29 -17l-99 -104h-19z" />
    <glyph glyph-name="caron.alt" 
d="M263 559l36 148h28v-2l-50 -146h-14z" />
    <glyph glyph-name="grave" unicode="`" 
d="M346 576l-78 104l29 17l67 -121h-18z" />
    <glyph glyph-name="circumflex" unicode="&#x2c6;" 
d="M232 581l91 122h23l45 -122h-23l-39 89l-73 -89h-24z" />
    <glyph glyph-name="caron" unicode="&#x2c7;" 
d="M301 581l-46 122h23l39 -89l73 89h24l-91 -122h-22z" />
    <glyph glyph-name="breve" unicode="&#x2d8;" 
d="M315 579c-52 0 -83 34 -78 94h25c-1 -38 14 -68 55 -68c43 0 66 30 81 68h25c-19 -60 -56 -94 -108 -94z" />
    <glyph glyph-name="tilde" unicode="&#x2dc;" 
d="M397 660l21 -6c-15 -42 -33 -71 -61 -71c-17 0 -28 10 -41 25c-17 18 -24 26 -34 26c-14 0 -27 -17 -40 -50l-21 6c15 42 34 70 62 70c17 0 28 -11 43 -27c16 -18 23 -24 32 -24c14 0 27 18 39 51z" />
    <glyph glyph-name="macron" unicode="&#xaf;" 
d="M229 588l6 26h168l-6 -26h-168z" />
    <glyph glyph-name="dieresis" unicode="&#xa8;" 
d="M252 586l10 49h34l-10 -49h-34zM339 586l9 49h34l-9 -49h-34z" />
    <glyph glyph-name="dotaccent" unicode="&#x2d9;" 
d="M294 586l10 49h35l-9 -49h-36z" />
    <glyph glyph-name="ring" unicode="&#x2da;" 
d="M399 662c0 -44 -33 -80 -78 -80c-40 0 -68 30 -68 69c0 44 34 80 78 80c41 0 68 -30 68 -69zM273 652c0 -29 19 -51 49 -51c34 0 57 28 57 60c0 29 -18 52 -48 52c-35 0 -58 -29 -58 -61z" />
    <glyph glyph-name="acute.cap" 
d="M288 740l82 101l31 -16l-92 -85h-21z" />
    <glyph glyph-name="hungarumlaut.cap" 
d="M284 740l82 102l30 -17l-91 -85h-21zM362 740l80 102l30 -17l-90 -85h-20z" />
    <glyph glyph-name="grave.cap" 
d="M378 740l-73 86l30 15l62 -101h-19z" />
    <glyph glyph-name="circumflex.cap" 
d="M261 745l89 97h25l52 -97h-25l-45 68l-69 -68h-27z" />
    <glyph glyph-name="caron.cap" 
d="M445 842l-89 -97h-25l-51 97h24l44 -68l71 68h26z" />
    <glyph glyph-name="breve.cap" 
d="M347 743c-48 0 -85 25 -82 79h25c1 -32 20 -52 59 -52c40 0 64 20 77 52h26c-18 -54 -56 -79 -105 -79z" />
    <glyph glyph-name="tilde.cap" 
d="M271 748l-22 6c17 37 36 60 62 60c17 0 29 -8 47 -22c17 -14 25 -20 35 -20c15 0 25 14 39 41l22 -7c-18 -37 -36 -60 -62 -60c-17 0 -29 9 -47 22c-17 14 -25 20 -35 20c-15 0 -26 -14 -39 -40z" />
    <glyph glyph-name="macron.cap" 
d="M259 752l5 27h173l-5 -27h-173z" />
    <glyph glyph-name="dieresis.cap" 
d="M283 750l9 47h35l-9 -47h-35zM371 750l9 47h36l-9 -47h-36z" />
    <glyph glyph-name="dotaccent.cap" 
d="M326 750l9 47h36l-9 -47h-36z" />
    <glyph glyph-name="ring.cap" 
d="M362 885c42 0 69 -29 69 -65c0 -42 -34 -75 -79 -75c-42 0 -69 29 -69 65c0 42 35 75 79 75zM353 764c35 0 57 26 57 55c0 27 -19 47 -49 47c-34 0 -57 -26 -57 -55c0 -27 19 -47 49 -47z" />
    <glyph glyph-name="commaaccent" unicode="&#x326;" 
d="M148 -179l-6 15c24 14 31 20 35 49h-15l10 53h37l-12 -58c-7 -36 -20 -47 -49 -59z" />
    <glyph glyph-name="cedilla" unicode="&#xb8;" 
d="M155 -107l-30 14l79 103h20z" />
    <glyph glyph-name="ogonek" unicode="&#x2db;" 
d="M217 -91l-4 -21c-5 -1 -7 -1 -9 -1c-41 0 -56 18 -56 40c0 24 17 44 57 77h20c-39 -39 -49 -55 -49 -70c0 -14 10 -25 41 -25z" />
    </font>
</defs>
</svg>
