<?xml version="1.0" standalone="no"?>
<!DOCTYPE svg PUBLIC "-//W3C//DTD SVG 1.1//EN" "http://www.w3.org/Graphics/SVG/1.1/DTD/svg11.dtd" >
<svg xmlns="http://www.w3.org/2000/svg" xmlns:xlink="http://www.w3.org/1999/xlink" version="1.1">
<metadata>
Created by FontForge 20170910 at Fri Sep 12 14:34:17 2008
 By Jimmy Wärting
Copyright (C) 2005, 2008 Hoefler &#38; Frere-Jones. http://www.typography.com
</metadata>
<defs>
<font id="GothamCondensed-ThinItalic" horiz-adv-x="500" >
  <font-face 
    font-family="Gotham Condensed Thin"
    font-weight="250"
    font-style="italic"
    font-stretch="condensed"
    units-per-em="1000"
    panose-1="0 0 0 0 0 0 0 0 0 0"
    ascent="800"
    descent="-200"
    x-height="521"
    cap-height="700"
    bbox="-99 -200 691 909"
    underline-thickness="50"
    underline-position="-100"
    stemh="20"
    stemv="22"
    unicode-range="U+0020-FB04"
  />
<missing-glyph 
d="M0 -200v1000h500v-1000h-500zM50 -76l172 376l-172 376v-752zM71 -150h358l-179 390zM250 360l179 390h-358zM450 -76v752l-172 -376z" />
    <glyph glyph-name="f_f" unicode="ff" horiz-adv-x="390" 
d="M22 0l97 502h-54l4 19h54l14 71c10 52 19 79 43 99c17 14 38 17 50 17c16 0 36 -5 43 -8l-4 -20c-7 3 -22 8 -40 8c-30 0 -54 -15 -67 -79l-17 -88h88l-4 -19h-88l-97 -502h-22zM221 0l97 502h-54l4 19h54l14 71c10 52 19 79 43 99c17 14 38 17 50 17c16 0 36 -5 43 -8
l-4 -20c-7 3 -22 8 -40 8c-30 0 -54 -15 -67 -79l-17 -88h88l-4 -19h-88l-97 -502h-22z" />
    <glyph glyph-name="fi" unicode="fi" horiz-adv-x="335" 
d="M22 0l97 502h-54l4 19h54l14 71c10 52 19 79 43 99c17 14 38 17 50 17c16 0 36 -5 43 -8l-4 -20c-7 3 -22 8 -40 8c-30 0 -54 -15 -67 -79l-17 -88h88l-4 -19h-88l-97 -502h-22zM207 0l100 521h21l-100 -521h-21zM330 650l11 57h25l-11 -57h-25z" />
    <glyph glyph-name="fl" unicode="fl" horiz-adv-x="335" 
d="M22 0l97 502h-54l4 19h54l14 71c10 52 19 79 43 99c17 14 38 17 50 17c16 0 36 -5 43 -8l-4 -20c-7 3 -22 8 -40 8c-30 0 -54 -15 -67 -79l-17 -88h88l-4 -19h-88l-97 -502h-22zM207 0l136 707h21l-137 -707h-20z" />
    <glyph glyph-name="f_f_i" unicode="ffi" horiz-adv-x="534" 
d="M22 0l97 502h-54l4 19h54l14 71c10 52 19 79 43 99c17 14 38 17 50 17c16 0 36 -5 43 -8l-4 -20c-7 3 -22 8 -40 8c-30 0 -54 -15 -67 -79l-17 -88h88l-4 -19h-88l-97 -502h-22zM221 0l97 502h-54l4 19h54l14 71c10 52 19 79 43 99c17 14 38 17 50 17c16 0 36 -5 43 -8
l-4 -20c-7 3 -22 8 -40 8c-30 0 -54 -15 -67 -79l-17 -88h88l-4 -19h-88l-97 -502h-22zM406 0l100 521h21l-100 -521h-21zM529 650l11 57h25l-11 -57h-25z" />
    <glyph glyph-name="f_f_l" unicode="ffl" horiz-adv-x="534" 
d="M22 0l97 502h-54l4 19h54l14 71c10 52 19 79 43 99c17 14 38 17 50 17c16 0 36 -5 43 -8l-4 -20c-7 3 -22 8 -40 8c-30 0 -54 -15 -67 -79l-17 -88h88l-4 -19h-88l-97 -502h-22zM221 0l97 502h-54l4 19h54l14 71c10 52 19 79 43 99c17 14 38 17 50 17c16 0 36 -5 43 -8
l-4 -20c-7 3 -22 8 -40 8c-30 0 -54 -15 -67 -79l-17 -88h88l-4 -19h-88l-97 -502h-22zM406 0l136 707h21l-137 -707h-20z" />
    <glyph glyph-name=".notdef" 
d="M0 -200v1000h500v-1000h-500zM50 -76l172 376l-172 376v-752zM71 -150h358l-179 390zM250 360l179 390h-358zM450 -76v752l-172 -376z" />
    <glyph glyph-name="A" unicode="A" horiz-adv-x="385" 
d="M-23 0l290 705h23l17 -705h-22l-5 212h-193l-86 -212h-24zM95 232h185l-9 429z" />
    <glyph glyph-name="B" unicode="B" horiz-adv-x="360" 
d="M5 0l136 700h44c122 0 185 -65 185 -155c0 -130 -101 -183 -175 -194c77 -17 118 -76 118 -144c0 -133 -96 -207 -254 -207h-54zM31 20h30c150 0 230 71 230 185c0 72 -47 138 -157 138h-41zM97 363h41c142 0 210 85 210 180c0 81 -54 137 -166 137h-23z" />
    <glyph glyph-name="C" unicode="C" horiz-adv-x="316" 
d="M173 -7c-79 0 -132 71 -132 222c0 139 42 338 143 439c34 34 72 53 113 53c26 0 52 -7 74 -25l-5 -24c-24 22 -45 29 -70 29c-34 0 -67 -17 -95 -45c-89 -89 -138 -275 -138 -428c0 -133 45 -201 112 -201c20 0 43 7 67 23l-5 -24c-17 -11 -37 -19 -64 -19z" />
    <glyph glyph-name="D" unicode="D" horiz-adv-x="383" 
d="M5 0l136 700h53c51 0 91 -14 121 -44c37 -37 59 -102 59 -188c0 -107 -36 -295 -138 -397c-44 -44 -98 -71 -166 -71h-65zM299 641c-26 26 -60 39 -108 39h-32l-128 -660h39c61 0 109 24 151 66c94 94 131 274 131 383c0 80 -20 139 -53 172z" />
    <glyph glyph-name="E" unicode="E" horiz-adv-x="313" 
d="M5 0l136 700h226l-4 -20h-204l-61 -317h186l-4 -20h-186l-63 -323h206l-4 -20h-228z" />
    <glyph glyph-name="F" unicode="F" horiz-adv-x="288" 
d="M5 0l136 700h217l-4 -20h-195l-63 -327h177l-4 -20h-177l-65 -333h-22z" />
    <glyph glyph-name="G" unicode="G" horiz-adv-x="371" 
d="M198 -7c-87 0 -156 76 -156 244c0 141 51 314 145 408c38 38 83 62 135 62c37 0 64 -13 87 -30l-5 -24c-21 18 -45 34 -84 34c-41 0 -81 -19 -116 -54c-86 -86 -140 -255 -140 -394c0 -152 58 -226 136 -226c21 0 44 5 59 16l58 297h-115l4 20h136l-65 -330
c-21 -15 -49 -23 -79 -23z" />
    <glyph glyph-name="H" unicode="H" horiz-adv-x="404" 
d="M5 0l136 700h22l-66 -337h249l65 337h22l-136 -700h-22l67 343h-249l-66 -343h-22z" />
    <glyph glyph-name="I" unicode="I" horiz-adv-x="144" 
d="M11 0l136 700h22l-136 -700h-22z" />
    <glyph glyph-name="J" unicode="J" horiz-adv-x="214" 
d="M29 -5c-26 0 -47 8 -65 18l4 21c16 -9 36 -18 61 -18c17 0 34 4 50 20c11 11 22 33 28 65l116 599h22l-113 -583c-9 -46 -16 -74 -40 -98c-12 -12 -33 -24 -63 -24z" />
    <glyph glyph-name="K" unicode="K" horiz-adv-x="332" 
d="M5 0l136 700h22l-82 -421l288 421h26l-225 -324l103 -376h-22l-96 353l-83 -119l-45 -234h-22z" />
    <glyph glyph-name="L" unicode="L" horiz-adv-x="274" 
d="M5 0l136 700h22l-132 -680h185l-4 -20h-207z" />
    <glyph glyph-name="M" unicode="M" horiz-adv-x="458" 
d="M5 0l136 700h23l65 -437l231 437h27l-136 -700h-21l126 648l-235 -437h-4l-65 437l-126 -648h-21z" />
    <glyph glyph-name="N" unicode="N" horiz-adv-x="408" 
d="M5 0l136 700h23l127 -643l125 643h21l-136 -700h-19l-129 653l-127 -653h-21z" />
    <glyph glyph-name="O" unicode="O" horiz-adv-x="396" 
d="M277 707c72 0 117 -67 117 -195c0 -159 -55 -382 -148 -475c-28 -28 -58 -44 -92 -44c-72 0 -117 67 -117 195c0 159 55 382 148 475c28 28 58 44 92 44zM155 13c27 0 52 14 76 38c88 88 141 313 141 461c0 113 -37 175 -96 175c-27 0 -52 -14 -76 -38
c-88 -88 -141 -313 -141 -461c0 -113 37 -175 96 -175z" />
    <glyph glyph-name="P" unicode="P" horiz-adv-x="342" 
d="M5 0l136 700h59c56 0 94 -15 123 -44c30 -30 44 -71 44 -125c0 -79 -29 -149 -75 -195c-45 -45 -104 -68 -178 -68h-35l-52 -268h-22zM307 642c-26 26 -61 38 -109 38h-39l-76 -392h30c70 0 124 22 163 61c43 43 69 109 69 181c0 51 -13 87 -38 112z" />
    <glyph glyph-name="Q" unicode="Q" horiz-adv-x="406" 
d="M277 707c72 0 117 -67 117 -195c0 -147 -47 -349 -130 -454l41 -64l-15 -12l-38 61l-8 -8c-26 -26 -56 -42 -90 -42c-72 0 -117 67 -117 195c0 159 55 382 148 475c28 28 58 44 92 44zM155 13c27 0 52 14 78 40l8 8l-63 101l15 12l60 -98c74 99 119 300 119 436
c0 113 -37 175 -96 175c-27 0 -52 -14 -76 -38c-88 -88 -141 -313 -141 -461c0 -113 37 -175 96 -175z" />
    <glyph glyph-name="Q.alt" horiz-adv-x="406" 
d="M277 707c72 0 117 -67 117 -195c0 -147 -47 -349 -130 -454l41 -64l-15 -12l-38 61l-8 -8c-26 -26 -56 -42 -90 -42c-72 0 -117 67 -117 195c0 159 55 382 148 475c28 28 58 44 92 44zM155 13c27 0 52 14 78 40l8 8l-63 101l15 12l60 -98c74 99 119 300 119 436
c0 113 -37 175 -96 175c-27 0 -52 -14 -76 -38c-88 -88 -141 -313 -141 -461c0 -113 37 -175 96 -175z" />
    <glyph glyph-name="R" unicode="R" horiz-adv-x="365" 
d="M265 0l-87 297c-18 -3 -39 -5 -61 -5h-34l-56 -292h-22l136 700h55c63 0 107 -17 137 -47c29 -29 42 -69 42 -120c0 -64 -23 -128 -65 -170c-29 -29 -65 -51 -112 -62l89 -301h-22zM87 312h33c81 0 136 25 172 61c41 41 61 103 61 159c0 45 -11 81 -37 107
c-28 28 -64 41 -122 41h-35z" />
    <glyph glyph-name="S" unicode="S" horiz-adv-x="312" 
d="M117 -7c-56 0 -101 28 -133 66l9 23c39 -49 83 -69 124 -69c76 0 120 62 120 141c0 71 -35 136 -73 207c-39 73 -71 134 -71 202c0 48 16 83 39 106c28 28 62 38 95 38c61 0 99 -36 116 -52l-8 -23c-23 25 -57 54 -108 55c-67 1 -112 -50 -112 -122
c0 -66 29 -119 69 -194c42 -78 75 -146 75 -215c0 -48 -13 -92 -45 -124c-20 -20 -52 -39 -97 -39z" />
    <glyph glyph-name="T" unicode="T" horiz-adv-x="274" 
d="M75 0l133 680h-119l4 20h260l-4 -20h-119l-133 -680h-22z" />
    <glyph glyph-name="U" unicode="U" horiz-adv-x="395" 
d="M158 -7c-71 0 -127 45 -127 128c0 30 4 51 13 98l93 481h22l-93 -482c-9 -47 -13 -66 -13 -96c0 -72 47 -109 109 -109c34 0 63 11 89 37c23 23 43 64 54 123l101 527h22l-103 -533c-12 -62 -32 -104 -59 -131c-30 -30 -65 -43 -108 -43z" />
    <glyph glyph-name="V" unicode="V" horiz-adv-x="377" 
d="M126 -5l-14 705h22l11 -661l267 661h24l-289 -705h-21z" />
    <glyph glyph-name="W" unicode="W" horiz-adv-x="596" 
d="M100 -5l15 705h22l-17 -652l252 652h19l-1 -653l236 653h25l-259 -705h-21v647l-250 -647h-21z" />
    <glyph glyph-name="X" unicode="X" horiz-adv-x="337" 
d="M-31 0l205 356l-63 344h23l57 -321l183 321h25l-200 -345l67 -355h-23l-60 333l-189 -333h-25z" />
    <glyph glyph-name="Y" unicode="Y" horiz-adv-x="330" 
d="M103 0l59 302l-68 398h23l61 -367l205 367h25l-224 -398l-59 -302h-22z" />
    <glyph glyph-name="Z" unicode="Z" horiz-adv-x="308" 
d="M-23 0l4 19l353 661h-222l4 20h247l-4 -19l-353 -661h232l-4 -20h-257z" />
    <glyph glyph-name="a" unicode="a" horiz-adv-x="330" 
d="M100 -7c-59 0 -98 42 -98 119c0 64 19 129 59 169c25 25 57 40 98 40c42 0 81 -17 106 -32l8 40c5 28 11 59 11 91c0 52 -32 86 -91 86c-27 0 -56 -6 -92 -23l4 23c24 11 57 20 91 20c67 0 111 -40 111 -108c0 -23 -6 -59 -11 -85l-65 -333h-22l17 88
c-26 -48 -70 -95 -126 -95zM102 13c62 0 125 79 142 166l17 88c-24 18 -66 34 -103 34c-33 0 -60 -12 -81 -33c-36 -36 -53 -96 -53 -157c0 -58 27 -98 78 -98z" />
    <glyph glyph-name="a.alt" horiz-adv-x="366" 
d="M124 -7c-66 0 -102 68 -102 168c0 118 45 258 113 326c25 25 54 41 85 41c77 0 96 -87 96 -140l26 133h21l-101 -521h-21l24 125c-20 -45 -68 -132 -141 -132zM127 13c24 0 46 12 67 33c64 64 109 193 109 316c0 65 -19 146 -82 146c-26 0 -50 -14 -71 -35
c-63 -63 -106 -201 -106 -313c0 -86 29 -147 83 -147z" />
    <glyph glyph-name="b" unicode="b" horiz-adv-x="366" 
d="M145 -7c-77 0 -96 87 -96 140l-26 -133h-21l137 707h21l-60 -311c20 45 68 132 141 132c66 0 102 -68 102 -168c0 -118 -45 -258 -113 -326c-25 -25 -54 -41 -85 -41zM144 13c26 0 50 14 71 35c63 63 106 201 106 313c0 86 -29 147 -83 147c-24 0 -46 -12 -67 -33
c-64 -64 -109 -193 -109 -316c0 -65 19 -146 82 -146z" />
    <glyph glyph-name="c" unicode="c" horiz-adv-x="273" 
d="M140 -7c-71 0 -119 65 -119 182c0 110 41 243 107 309c30 30 62 44 97 44c32 0 56 -14 69 -25l-5 -24c-15 14 -38 28 -66 28c-27 0 -53 -11 -78 -36c-63 -63 -101 -192 -101 -297c0 -107 42 -160 98 -160c18 0 38 5 60 19l-4 -24c-16 -9 -35 -16 -58 -16z" />
    <glyph glyph-name="d" unicode="d" horiz-adv-x="366" 
d="M241 0l24 125c-20 -45 -68 -132 -141 -132c-66 0 -102 68 -102 168c0 118 45 258 113 326c25 25 54 41 85 41c77 0 96 -87 96 -140l63 319h21l-138 -707h-21zM127 13c24 0 46 12 67 33c64 64 109 193 109 316c0 65 -19 146 -82 146c-26 0 -50 -14 -71 -35
c-63 -63 -106 -201 -106 -313c0 -86 29 -147 83 -147z" />
    <glyph glyph-name="e" unicode="e" horiz-adv-x="333" 
d="M301 253h-249c-5 -29 -7 -59 -6 -86c3 -102 50 -154 114 -154c25 0 54 5 87 26l-1 -22c-21 -13 -54 -24 -87 -24c-76 0 -130 56 -134 174c-4 119 42 252 108 318c27 27 57 43 88 43c60 0 94 -55 94 -155c0 -40 -6 -83 -14 -120zM149 473c-42 -42 -78 -120 -94 -200h228
c7 34 10 70 10 99c0 83 -23 136 -73 136c-25 0 -49 -13 -71 -35z" />
    <glyph glyph-name="f" unicode="f" horiz-adv-x="191" 
d="M22 0l97 502h-54l4 19h54l14 71c10 52 19 79 43 99c17 14 38 17 50 17c16 0 36 -5 43 -8l-4 -20c-7 3 -22 8 -40 8c-30 0 -54 -15 -67 -79l-17 -88h88l-4 -19h-88l-97 -502h-22z" />
    <glyph glyph-name="g" unicode="g" horiz-adv-x="363" 
d="M99 -131c-33 0 -83 9 -115 26l4 22c34 -20 82 -28 109 -28c44 0 76 8 101 33c22 22 36 54 48 116l19 102c-17 -30 -65 -118 -136 -117c-65 1 -101 69 -101 160c0 118 50 247 107 304c25 25 54 41 84 41c76 0 94 -87 97 -125l23 118h21l-91 -471
c-12 -65 -23 -114 -62 -148c-24 -21 -62 -33 -108 -33zM132 43c23 0 45 12 66 33c69 69 102 196 102 286c0 65 -18 146 -80 146c-25 0 -49 -14 -70 -35c-51 -51 -100 -176 -100 -291c0 -78 29 -139 82 -139z" />
    <glyph glyph-name="h" unicode="h" horiz-adv-x="360" 
d="M2 0l137 707h21l-54 -277c23 50 71 98 135 98c41 0 95 -23 95 -106c0 -22 -4 -55 -17 -120l-59 -302h-21l59 300c7 36 17 88 17 119c0 68 -38 89 -78 89c-70 0 -128 -65 -148 -167l-66 -341h-21z" />
    <glyph glyph-name="i" unicode="i" horiz-adv-x="135" 
d="M7 0l100 521h21l-100 -521h-21zM130 650l11 57h25l-11 -57h-25z" />
    <glyph glyph-name="j" unicode="j" horiz-adv-x="135" 
d="M-59 -133c-11 0 -28 3 -40 10l4 20c11 -6 23 -10 37 -10c25 0 43 12 53 61l112 573h21l-113 -578c-10 -53 -35 -76 -74 -76zM130 650l11 57h25l-11 -57h-25z" />
    <glyph glyph-name="k" unicode="k" horiz-adv-x="290" 
d="M3 0l136 707h21l-100 -520l238 334h25l-158 -218l67 -303h-21l-62 281l-97 -134l-28 -147h-21z" />
    <glyph glyph-name="l" unicode="l" horiz-adv-x="135" 
d="M7 0l136 707h21l-137 -707h-20z" />
    <glyph glyph-name="m" unicode="m" horiz-adv-x="584" 
d="M2 0l101 521h21l-17 -88c22 46 65 95 129 95c39 0 93 -23 93 -106c26 61 76 106 137 106c39 0 93 -23 93 -106c0 -22 -4 -55 -17 -120l-59 -302h-21l59 300c7 36 17 88 17 119c0 68 -38 89 -76 89c-64 0 -122 -63 -142 -164l-67 -344h-21l60 303c7 36 16 85 16 116
c0 68 -39 89 -77 89c-67 0 -122 -68 -141 -164l-67 -344h-21z" />
    <glyph glyph-name="n" unicode="n" horiz-adv-x="360" 
d="M2 0l101 521h21l-18 -91c23 50 71 98 135 98c41 0 95 -23 95 -106c0 -22 -4 -55 -17 -120l-59 -302h-21l59 300c7 36 17 88 17 119c0 68 -38 89 -78 89c-70 0 -128 -65 -148 -167l-66 -341h-21z" />
    <glyph glyph-name="o" unicode="o" horiz-adv-x="356" 
d="M224 528c66 0 108 -63 108 -170c0 -121 -43 -255 -110 -322c-28 -28 -58 -43 -90 -43c-66 0 -108 63 -108 170c0 121 43 255 110 322c28 28 58 43 90 43zM133 13c27 0 50 13 73 36c61 61 104 192 104 308c0 91 -31 151 -87 151c-27 0 -50 -13 -73 -36
c-61 -61 -104 -192 -104 -308c0 -91 31 -151 87 -151z" />
    <glyph glyph-name="p" unicode="p" horiz-adv-x="367" 
d="M145 -7c-77 0 -96 87 -96 140l-51 -263h-21l126 651h21l-24 -125c20 45 68 132 141 132c66 0 102 -68 102 -168c0 -118 -45 -258 -113 -326c-25 -25 -54 -41 -85 -41zM144 13c26 0 50 14 71 35c63 63 106 201 106 313c0 86 -29 147 -83 147c-24 0 -46 -12 -67 -33
c-64 -64 -109 -193 -109 -316c0 -65 19 -146 82 -146z" />
    <glyph glyph-name="q" unicode="q" horiz-adv-x="366" 
d="M124 -7c-66 0 -102 68 -102 168c0 118 45 258 113 326c25 25 54 41 85 41c77 0 96 -87 96 -140l26 133h21l-126 -651h-21l49 255c-20 -45 -68 -132 -141 -132zM127 13c24 0 46 12 67 33c64 64 109 193 109 316c0 65 -19 146 -82 146c-26 0 -50 -14 -71 -35
c-63 -63 -106 -201 -106 -313c0 -86 29 -147 83 -147z" />
    <glyph glyph-name="r" unicode="r" horiz-adv-x="201" 
d="M2 0l101 521h21l-17 -90c27 55 74 97 137 95l-4 -22h-2c-64 0 -127 -54 -147 -154l-68 -350h-21z" />
    <glyph glyph-name="s" unicode="s" horiz-adv-x="266" 
d="M97 -5c-42 0 -84 19 -114 53l5 23c32 -37 73 -56 108 -56c61 0 95 46 95 101c0 39 -14 78 -60 142c-53 74 -71 115 -71 155c0 72 52 114 111 114c38 0 68 -14 95 -36l-5 -23c-23 21 -55 39 -90 39c-58 0 -89 -43 -89 -92c0 -33 12 -67 66 -144c44 -63 65 -109 65 -154
c0 -74 -52 -122 -116 -122z" />
    <glyph glyph-name="t" unicode="t" horiz-adv-x="201" 
d="M91 -4c-33 0 -60 20 -60 62c0 15 3 30 7 51l76 393h-50l4 19h50l29 152h22l-29 -152h88l-4 -19h-88l-76 -390c-4 -21 -7 -38 -7 -51c0 -33 19 -45 41 -45c17 0 32 5 41 9l-4 -20c-8 -5 -27 -9 -40 -9z" />
    <glyph glyph-name="u" unicode="u" horiz-adv-x="360" 
d="M119 -7c-41 0 -95 23 -95 106c0 22 4 55 17 120l59 302h21l-59 -300c-7 -36 -17 -88 -17 -119c0 -68 38 -89 78 -89c70 0 127 65 147 167l67 341h21l-101 -521h-21l17 91c-23 -50 -70 -98 -134 -98z" />
    <glyph glyph-name="v" unicode="v" horiz-adv-x="323" 
d="M101 -3l-31 524h20l28 -484l212 484h23l-233 -524h-19z" />
    <glyph glyph-name="w" unicode="w" horiz-adv-x="492" 
d="M79 -3l-7 524h20l4 -476l191 476h16l8 -476l186 476h23l-209 -524h-17l-10 465l-187 -465h-18z" />
    <glyph glyph-name="x" unicode="x" horiz-adv-x="304" 
d="M96 521l59 -232l149 232h24l-165 -254l69 -267h-21l-63 247l-157 -247h-24l174 269l-66 252h21z" />
    <glyph glyph-name="y" unicode="y" horiz-adv-x="323" 
d="M103 14l-32 507h20l28 -472l213 472h22l-295 -651h-22z" />
    <glyph glyph-name="z" unicode="z" horiz-adv-x="270" 
d="M-23 0l2 14l284 488h-188l4 19h213l-2 -14l-285 -488h198l-4 -19h-222z" />
    <glyph glyph-name="Aacute" unicode="&#xc1;" horiz-adv-x="385" 
d="M-23 0l290 705h23l17 -705h-22l-5 212h-193l-86 -212h-24zM95 232h185l-9 429zM274 745l81 99l22 -12l-91 -87h-12z" />
    <glyph glyph-name="aacute" unicode="&#xe1;" horiz-adv-x="330" 
d="M100 -7c-59 0 -98 42 -98 119c0 64 19 129 59 169c25 25 57 40 98 40c42 0 81 -17 106 -32l8 40c5 28 11 59 11 91c0 52 -32 86 -91 86c-27 0 -56 -6 -92 -23l4 23c24 11 57 20 91 20c67 0 111 -40 111 -108c0 -23 -6 -59 -11 -85l-65 -333h-22l17 88
c-26 -48 -70 -95 -126 -95zM102 13c62 0 125 79 142 166l17 88c-24 18 -66 34 -103 34c-33 0 -60 -12 -81 -33c-36 -36 -53 -96 -53 -157c0 -58 27 -98 78 -98zM205 581l90 118l22 -12l-100 -106h-12z" />
    <glyph glyph-name="aacute.alt" horiz-adv-x="366" 
d="M124 -7c-66 0 -102 68 -102 168c0 118 45 258 113 326c25 25 54 41 85 41c77 0 96 -87 96 -140l26 133h21l-101 -521h-21l24 125c-20 -45 -68 -132 -141 -132zM127 13c24 0 46 12 67 33c64 64 109 193 109 316c0 65 -19 146 -82 146c-26 0 -50 -14 -71 -35
c-63 -63 -106 -201 -106 -313c0 -86 29 -147 83 -147zM245 581l90 118l22 -12l-100 -106h-12z" />
    <glyph glyph-name="Abreve" unicode="&#x102;" horiz-adv-x="385" 
d="M-23 0l290 705h23l17 -705h-22l-5 212h-193l-86 -212h-24zM95 232h185l-9 429zM282 748c-47 0 -83 25 -81 79h18c-1 -36 19 -61 63 -61c46 0 74 25 87 61h18c-18 -54 -58 -79 -105 -79z" />
    <glyph glyph-name="abreve" unicode="&#x103;" horiz-adv-x="330" 
d="M100 -7c-59 0 -98 42 -98 119c0 64 19 129 59 169c25 25 57 40 98 40c42 0 81 -17 106 -32l8 40c5 28 11 59 11 91c0 52 -32 86 -91 86c-27 0 -56 -6 -92 -23l4 23c24 11 57 20 91 20c67 0 111 -40 111 -108c0 -23 -6 -59 -11 -85l-65 -333h-22l17 88
c-26 -48 -70 -95 -126 -95zM102 13c62 0 125 79 142 166l17 88c-24 18 -66 34 -103 34c-33 0 -60 -12 -81 -33c-36 -36 -53 -96 -53 -157c0 -58 27 -98 78 -98zM216 584c-54 0 -80 38 -77 94h18c-2 -38 11 -76 60 -76c51 0 76 38 90 76h18c-19 -56 -55 -94 -109 -94z" />
    <glyph glyph-name="abreve.alt" horiz-adv-x="366" 
d="M124 -7c-66 0 -102 68 -102 168c0 118 45 258 113 326c25 25 54 41 85 41c77 0 96 -87 96 -140l26 133h21l-101 -521h-21l24 125c-20 -45 -68 -132 -141 -132zM127 13c24 0 46 12 67 33c64 64 109 193 109 316c0 65 -19 146 -82 146c-26 0 -50 -14 -71 -35
c-63 -63 -106 -201 -106 -313c0 -86 29 -147 83 -147zM256 584c-54 0 -80 38 -77 94h18c-2 -38 11 -76 60 -76c51 0 76 38 90 76h18c-19 -56 -55 -94 -109 -94z" />
    <glyph glyph-name="Acircumflex" unicode="&#xc2;" horiz-adv-x="385" 
d="M-23 0l290 705h23l17 -705h-22l-5 212h-193l-86 -212h-24zM95 232h185l-9 429zM205 750l88 97h15l50 -97h-14l-48 74l-75 -74h-16z" />
    <glyph glyph-name="acircumflex" unicode="&#xe2;" horiz-adv-x="330" 
d="M100 -7c-59 0 -98 42 -98 119c0 64 19 129 59 169c25 25 57 40 98 40c42 0 81 -17 106 -32l8 40c5 28 11 59 11 91c0 52 -32 86 -91 86c-27 0 -56 -6 -92 -23l4 23c24 11 57 20 91 20c67 0 111 -40 111 -108c0 -23 -6 -59 -11 -85l-65 -333h-22l17 88
c-26 -48 -70 -95 -126 -95zM102 13c62 0 125 79 142 166l17 88c-24 18 -66 34 -103 34c-33 0 -60 -12 -81 -33c-36 -36 -53 -96 -53 -157c0 -58 27 -98 78 -98zM140 586l92 122h15l46 -122h-14l-43 98l-80 -98h-16z" />
    <glyph glyph-name="acircumflex.alt" horiz-adv-x="366" 
d="M124 -7c-66 0 -102 68 -102 168c0 118 45 258 113 326c25 25 54 41 85 41c77 0 96 -87 96 -140l26 133h21l-101 -521h-21l24 125c-20 -45 -68 -132 -141 -132zM127 13c24 0 46 12 67 33c64 64 109 193 109 316c0 65 -19 146 -82 146c-26 0 -50 -14 -71 -35
c-63 -63 -106 -201 -106 -313c0 -86 29 -147 83 -147zM180 586l92 122h15l46 -122h-14l-43 98l-80 -98h-16z" />
    <glyph glyph-name="Adieresis" unicode="&#xc4;" horiz-adv-x="385" 
d="M-23 0l290 705h23l17 -705h-22l-5 212h-193l-86 -212h-24zM95 232h185l-9 429zM232 755l7 37h26l-7 -37h-26zM310 755l7 37h26l-7 -37h-26z" />
    <glyph glyph-name="adieresis" unicode="&#xe4;" horiz-adv-x="330" 
d="M100 -7c-59 0 -98 42 -98 119c0 64 19 129 59 169c25 25 57 40 98 40c42 0 81 -17 106 -32l8 40c5 28 11 59 11 91c0 52 -32 86 -91 86c-27 0 -56 -6 -92 -23l4 23c24 11 57 20 91 20c67 0 111 -40 111 -108c0 -23 -6 -59 -11 -85l-65 -333h-22l17 88
c-26 -48 -70 -95 -126 -95zM102 13c62 0 125 79 142 166l17 88c-24 18 -66 34 -103 34c-33 0 -60 -12 -81 -33c-36 -36 -53 -96 -53 -157c0 -58 27 -98 78 -98zM168 591l7 37h26l-7 -37h-26zM246 591l7 37h26l-7 -37h-26z" />
    <glyph glyph-name="adieresis.alt" horiz-adv-x="366" 
d="M124 -7c-66 0 -102 68 -102 168c0 118 45 258 113 326c25 25 54 41 85 41c77 0 96 -87 96 -140l26 133h21l-101 -521h-21l24 125c-20 -45 -68 -132 -141 -132zM127 13c24 0 46 12 67 33c64 64 109 193 109 316c0 65 -19 146 -82 146c-26 0 -50 -14 -71 -35
c-63 -63 -106 -201 -106 -313c0 -86 29 -147 83 -147zM208 591l7 37h26l-7 -37h-26zM286 591l7 37h26l-7 -37h-26z" />
    <glyph glyph-name="AE" unicode="&#xc6;" horiz-adv-x="491" 
d="M-48 0l340 700h253l-4 -20h-204l-61 -317h186l-4 -20h-186l-63 -323h206l-4 -20h-228l41 212h-146l-102 -212h-24zM88 232h140l87 447h-12z" />
    <glyph glyph-name="ae" unicode="&#xe6;" horiz-adv-x="559" 
d="M385 -7c-67 0 -115 42 -129 132c-36 -72 -88 -132 -156 -132c-59 0 -98 42 -98 119c0 64 19 129 59 169c25 25 57 40 98 40c42 0 81 -17 106 -32l8 40c5 28 11 59 11 91c0 52 -32 86 -91 86c-27 0 -56 -6 -92 -23l4 23c24 11 57 20 91 20c69 0 118 -46 109 -121
c28 56 78 123 142 123c60 0 94 -55 94 -155c0 -40 -6 -83 -14 -120h-248c-4 -29 -6 -59 -5 -86c3 -102 48 -154 112 -154c25 0 54 5 87 26l-1 -22c-21 -13 -54 -24 -87 -24zM102 13c63 0 120 70 151 152c-1 33 2 67 8 102c-24 18 -66 34 -103 34c-33 0 -60 -12 -81 -33
c-36 -36 -53 -96 -53 -157c0 -58 27 -98 78 -98zM376 473c-43 -43 -77 -120 -93 -200h226c7 34 10 70 10 99c0 83 -23 136 -73 136c-25 0 -48 -13 -70 -35z" />
    <glyph glyph-name="AEacute" unicode="&#x1fc;" horiz-adv-x="490" 
d="M-48 0l340 700h253l-4 -20h-204l-61 -317h186l-4 -20h-186l-63 -323h206l-4 -20h-228l41 212h-146l-102 -212h-24zM88 232h140l87 447h-12zM343 740l81 99l22 -12l-91 -87h-12z" />
    <glyph glyph-name="aeacute" unicode="&#x1fd;" horiz-adv-x="559" 
d="M385 -7c-67 0 -115 42 -129 132c-36 -72 -88 -132 -156 -132c-59 0 -98 42 -98 119c0 64 19 129 59 169c25 25 57 40 98 40c42 0 81 -17 106 -32l8 40c5 28 11 59 11 91c0 52 -32 86 -91 86c-27 0 -56 -6 -92 -23l4 23c24 11 57 20 91 20c69 0 118 -46 109 -121
c28 56 78 123 142 123c60 0 94 -55 94 -155c0 -40 -6 -83 -14 -120h-248c-4 -29 -6 -59 -5 -86c3 -102 48 -154 112 -154c25 0 54 5 87 26l-1 -22c-21 -13 -54 -24 -87 -24zM102 13c63 0 120 70 151 152c-1 33 2 67 8 102c-24 18 -66 34 -103 34c-33 0 -60 -12 -81 -33
c-36 -36 -53 -96 -53 -157c0 -58 27 -98 78 -98zM376 473c-43 -43 -77 -120 -93 -200h226c7 34 10 70 10 99c0 83 -23 136 -73 136c-25 0 -48 -13 -70 -35zM319 576l90 118l22 -12l-100 -106h-12z" />
    <glyph glyph-name="Agrave" unicode="&#xc0;" horiz-adv-x="385" 
d="M-23 0l290 705h23l17 -705h-22l-5 212h-193l-86 -212h-24zM95 232h185l-9 429zM273 745l-67 88l21 11l57 -99h-11z" />
    <glyph glyph-name="agrave" unicode="&#xe0;" horiz-adv-x="330" 
d="M100 -7c-59 0 -98 42 -98 119c0 64 19 129 59 169c25 25 57 40 98 40c42 0 81 -17 106 -32l8 40c5 28 11 59 11 91c0 52 -32 86 -91 86c-27 0 -56 -6 -92 -23l4 23c24 11 57 20 91 20c67 0 111 -40 111 -108c0 -23 -6 -59 -11 -85l-65 -333h-22l17 88
c-26 -48 -70 -95 -126 -95zM102 13c62 0 125 79 142 166l17 88c-24 18 -66 34 -103 34c-33 0 -60 -12 -81 -33c-36 -36 -53 -96 -53 -157c0 -58 27 -98 78 -98zM209 581l-76 107l21 11l66 -118h-11z" />
    <glyph glyph-name="agrave.alt" horiz-adv-x="366" 
d="M124 -7c-66 0 -102 68 -102 168c0 118 45 258 113 326c25 25 54 41 85 41c77 0 96 -87 96 -140l26 133h21l-101 -521h-21l24 125c-20 -45 -68 -132 -141 -132zM127 13c24 0 46 12 67 33c64 64 109 193 109 316c0 65 -19 146 -82 146c-26 0 -50 -14 -71 -35
c-63 -63 -106 -201 -106 -313c0 -86 29 -147 83 -147zM249 581l-76 107l21 11l66 -118h-11z" />
    <glyph glyph-name="Amacron" unicode="&#x100;" horiz-adv-x="385" 
d="M-23 0l290 705h23l17 -705h-22l-5 212h-193l-86 -212h-24zM95 232h185l-9 429zM203 757l4 18h160l-4 -18h-160z" />
    <glyph glyph-name="amacron" unicode="&#x101;" horiz-adv-x="330" 
d="M100 -7c-59 0 -98 42 -98 119c0 64 19 129 59 169c25 25 57 40 98 40c42 0 81 -17 106 -32l8 40c5 28 11 59 11 91c0 52 -32 86 -91 86c-27 0 -56 -6 -92 -23l4 23c24 11 57 20 91 20c67 0 111 -40 111 -108c0 -23 -6 -59 -11 -85l-65 -333h-22l17 88
c-26 -48 -70 -95 -126 -95zM102 13c62 0 125 79 142 166l17 88c-24 18 -66 34 -103 34c-33 0 -60 -12 -81 -33c-36 -36 -53 -96 -53 -157c0 -58 27 -98 78 -98zM140 593l4 18h160l-4 -18h-160z" />
    <glyph glyph-name="amacron.alt" horiz-adv-x="366" 
d="M124 -7c-66 0 -102 68 -102 168c0 118 45 258 113 326c25 25 54 41 85 41c77 0 96 -87 96 -140l26 133h21l-101 -521h-21l24 125c-20 -45 -68 -132 -141 -132zM127 13c24 0 46 12 67 33c64 64 109 193 109 316c0 65 -19 146 -82 146c-26 0 -50 -14 -71 -35
c-63 -63 -106 -201 -106 -313c0 -86 29 -147 83 -147zM179 593l4 18h160l-4 -18h-160z" />
    <glyph glyph-name="Aogonek" unicode="&#x104;" horiz-adv-x="385" 
d="M300 -93l-3 -15c-8 -1 -12 -1 -14 -1c-33 0 -46 17 -46 36c0 23 15 43 51 73h-3l-5 212h-193l-86 -212h-24l290 705h23l17 -701v-4h-4c-39 -38 -46 -55 -46 -69c0 -13 8 -26 43 -24zM95 232h185l-9 429z" />
    <glyph glyph-name="aogonek" unicode="&#x105;" horiz-adv-x="330" 
d="M224 -93l-3 -15c-8 -1 -12 -1 -14 -1c-33 0 -46 17 -46 36c0 23 15 43 51 73h-3l17 88c-26 -48 -70 -95 -126 -95c-59 0 -98 42 -98 119c0 64 19 129 59 169c25 25 57 40 98 40c42 0 81 -17 106 -32l8 40c5 28 11 59 11 91c0 52 -32 86 -91 86c-27 0 -56 -6 -92 -23l4 23
c24 11 57 20 91 20c67 0 111 -40 111 -108c0 -23 -6 -59 -11 -85l-65 -333h-4c-39 -38 -46 -55 -46 -69c0 -13 8 -26 43 -24zM102 13c62 0 125 79 142 166l17 88c-24 18 -66 34 -103 34c-33 0 -60 -12 -81 -33c-36 -36 -53 -96 -53 -157c0 -58 27 -98 78 -98z" />
    <glyph glyph-name="aogonek.alt" horiz-adv-x="366" 
d="M256 -93l-3 -15c-8 -1 -12 -1 -14 -1c-33 0 -46 17 -46 36c0 23 15 43 51 73h-3l24 125c-20 -45 -68 -132 -141 -132c-66 0 -102 68 -102 168c0 118 45 258 113 326c25 25 54 41 85 41c77 0 96 -87 96 -140l26 133h21l-101 -517h1l-1 -1v-3h-3c-39 -38 -46 -55 -46 -69
c0 -13 8 -26 43 -24zM127 13c24 0 46 12 67 33c64 64 109 193 109 316c0 65 -19 146 -82 146c-26 0 -50 -14 -71 -35c-63 -63 -106 -201 -106 -313c0 -86 29 -147 83 -147z" />
    <glyph glyph-name="Aring" unicode="&#xc5;" horiz-adv-x="385" 
d="M-23 0l278 675c-26 9 -41 32 -41 59c0 41 34 73 76 73c40 0 66 -28 66 -63c0 -38 -29 -68 -66 -73l17 -671h-22l-5 212h-193l-86 -212h-24zM95 232h185l-9 429zM281 685c35 0 60 27 60 58c0 29 -21 50 -52 50c-35 0 -60 -27 -60 -58c0 -29 21 -50 52 -50z" />
    <glyph glyph-name="aring" unicode="&#xe5;" horiz-adv-x="330" 
d="M100 -7c-59 0 -98 42 -98 119c0 64 19 129 59 169c25 25 57 40 98 40c42 0 81 -17 106 -32l8 40c5 28 11 59 11 91c0 52 -32 86 -91 86c-27 0 -56 -6 -92 -23l4 23c24 11 57 20 91 20c67 0 111 -40 111 -108c0 -23 -6 -59 -11 -85l-65 -333h-22l17 88
c-26 -48 -70 -95 -126 -95zM102 13c62 0 125 79 142 166l17 88c-24 18 -66 34 -103 34c-33 0 -60 -12 -81 -33c-36 -36 -53 -96 -53 -157c0 -58 27 -98 78 -98zM302 667c0 -43 -32 -76 -73 -76c-39 0 -65 29 -65 66c0 43 32 76 73 76c39 0 65 -29 65 -66zM178 658
c0 -31 20 -54 51 -54c35 0 59 29 59 62c0 31 -20 54 -51 54c-35 0 -59 -29 -59 -62z" />
    <glyph glyph-name="aring.alt" horiz-adv-x="366" 
d="M124 -7c-66 0 -102 68 -102 168c0 118 45 258 113 326c25 25 54 41 85 41c77 0 96 -87 96 -140l26 133h21l-101 -521h-21l24 125c-20 -45 -68 -132 -141 -132zM127 13c24 0 46 12 67 33c64 64 109 193 109 316c0 65 -19 146 -82 146c-26 0 -50 -14 -71 -35
c-63 -63 -106 -201 -106 -313c0 -86 29 -147 83 -147zM342 667c0 -43 -32 -76 -73 -76c-39 0 -65 29 -65 66c0 43 32 76 73 76c39 0 65 -29 65 -66zM218 658c0 -31 20 -54 51 -54c35 0 59 29 59 62c0 31 -20 54 -51 54c-35 0 -59 -29 -59 -62z" />
    <glyph glyph-name="aring.alt2" horiz-adv-x="330" 
d="M209 0l17 88c-26 -48 -70 -95 -126 -95c-59 0 -98 42 -98 119c0 64 19 129 59 169c25 25 57 40 98 40c42 0 81 -17 106 -32l8 40c5 28 11 59 11 91c0 52 -32 86 -91 86c-27 0 -56 -6 -92 -23l4 23c22 10 52 18 83 20c-16 12 -25 31 -25 53c0 43 32 76 73 76
c39 0 65 -29 65 -66c0 -36 -22 -64 -53 -73c37 -16 59 -50 59 -98c0 -23 -6 -59 -11 -85l-65 -333h-22zM228 526c35 0 59 29 59 62c0 31 -20 54 -51 54c-35 0 -59 -29 -59 -62c0 -31 20 -54 51 -54zM102 13c62 0 125 79 142 166l17 88c-24 18 -66 34 -103 34
c-33 0 -60 -12 -81 -33c-36 -36 -53 -96 -53 -157c0 -58 27 -98 78 -98z" />
    <glyph glyph-name="Aringacute" unicode="&#x1fa;" horiz-adv-x="385" 
d="M-23 0l278 675c-26 9 -41 32 -41 59c0 41 34 73 76 73c40 0 66 -28 66 -63c0 -38 -29 -68 -66 -73l17 -671h-22l-5 212h-193l-86 -212h-24zM95 232h185l-9 429zM281 685c35 0 60 27 60 58c0 29 -21 50 -52 50c-35 0 -60 -27 -60 -58c0 -29 21 -50 52 -50zM295 830l76 79
l22 -12l-86 -67h-12z" />
    <glyph glyph-name="aringacute" unicode="&#x1fb;" horiz-adv-x="330" 
d="M258 761l76 79l22 -12l-86 -67h-12zM100 -7c-59 0 -98 42 -98 119c0 64 19 129 59 169c25 25 57 40 98 40c42 0 81 -17 106 -32l8 40c5 28 11 59 11 91c0 52 -32 86 -91 86c-27 0 -56 -6 -92 -23l4 23c24 11 57 20 91 20c67 0 111 -40 111 -108c0 -23 -6 -59 -11 -85
l-65 -333h-22l17 88c-26 -48 -70 -95 -126 -95zM102 13c62 0 125 79 142 166l17 88c-24 18 -66 34 -103 34c-33 0 -60 -12 -81 -33c-36 -36 -53 -96 -53 -157c0 -58 27 -98 78 -98zM314 662c0 -43 -32 -76 -73 -76c-39 0 -65 29 -65 66c0 43 32 76 73 76c39 0 65 -29 65 -66
zM190 653c0 -31 20 -54 51 -54c35 0 59 29 59 62c0 31 -20 54 -51 54c-35 0 -59 -29 -59 -62z" />
    <glyph glyph-name="aringacute.alt" horiz-adv-x="366" 
d="M277 761l76 79l22 -12l-86 -67h-12zM124 -7c-66 0 -102 68 -102 168c0 118 45 258 113 326c25 25 54 41 85 41c77 0 96 -87 96 -140l26 133h21l-101 -521h-21l24 125c-20 -45 -68 -132 -141 -132zM127 13c24 0 46 12 67 33c64 64 109 193 109 316c0 65 -19 146 -82 146
c-26 0 -50 -14 -71 -35c-63 -63 -106 -201 -106 -313c0 -86 29 -147 83 -147zM333 662c0 -43 -32 -76 -73 -76c-39 0 -65 29 -65 66c0 43 32 76 73 76c39 0 65 -29 65 -66zM209 653c0 -31 20 -54 51 -54c35 0 59 29 59 62c0 31 -20 54 -51 54c-35 0 -59 -29 -59 -62z" />
    <glyph glyph-name="aringacute.alt2" horiz-adv-x="331" 
d="M245 688l76 79l22 -12l-86 -67h-12zM209 0l17 88c-26 -48 -70 -95 -126 -95c-59 0 -98 42 -98 119c0 64 19 129 59 169c25 25 57 40 98 40c42 0 81 -17 106 -32l8 40c5 28 11 59 11 91c0 52 -32 86 -91 86c-27 0 -56 -6 -92 -23l4 23c22 10 52 18 83 20
c-16 12 -25 31 -25 53c0 43 32 76 73 76c39 0 65 -29 65 -66c0 -36 -22 -64 -53 -73c37 -16 59 -50 59 -98c0 -23 -6 -59 -11 -85l-65 -333h-22zM228 526c35 0 59 29 59 62c0 31 -20 54 -51 54c-35 0 -59 -29 -59 -62c0 -31 20 -54 51 -54zM102 13c62 0 125 79 142 166
l17 88c-24 18 -66 34 -103 34c-33 0 -60 -12 -81 -33c-36 -36 -53 -96 -53 -157c0 -58 27 -98 78 -98z" />
    <glyph glyph-name="Atilde" unicode="&#xc3;" horiz-adv-x="385" 
d="M-23 0l290 705h23l17 -705h-22l-5 212h-193l-86 -212h-24zM95 232h185l-9 429zM206 754l-16 4c16 36 34 58 58 58c16 0 29 -9 46 -23c18 -14 26 -21 37 -21c15 0 27 15 41 44l16 -4c-16 -36 -34 -58 -58 -58c-16 0 -29 9 -46 23c-18 14 -26 21 -37 21
c-15 0 -27 -15 -41 -44z" />
    <glyph glyph-name="atilde" unicode="&#xe3;" horiz-adv-x="330" 
d="M100 -7c-59 0 -98 42 -98 119c0 64 19 129 59 169c25 25 57 40 98 40c42 0 81 -17 106 -32l8 40c5 28 11 59 11 91c0 52 -32 86 -91 86c-27 0 -56 -6 -92 -23l4 23c24 11 57 20 91 20c67 0 111 -40 111 -108c0 -23 -6 -59 -11 -85l-65 -333h-22l17 88
c-26 -48 -70 -95 -126 -95zM102 13c62 0 125 79 142 166l17 88c-24 18 -66 34 -103 34c-33 0 -60 -12 -81 -33c-36 -36 -53 -96 -53 -157c0 -58 27 -98 78 -98zM307 663l16 -4c-13 -36 -31 -67 -59 -67c-15 0 -26 10 -39 25c-17 18 -25 27 -36 27c-15 0 -29 -18 -42 -53
l-16 4c13 36 31 67 59 67c17 0 28 -12 43 -29c16 -18 23 -23 32 -23c16 0 29 18 42 53z" />
    <glyph glyph-name="atilde.alt" horiz-adv-x="366" 
d="M124 -7c-66 0 -102 68 -102 168c0 118 45 258 113 326c25 25 54 41 85 41c77 0 96 -87 96 -140l26 133h21l-101 -521h-21l24 125c-20 -45 -68 -132 -141 -132zM127 13c24 0 46 12 67 33c64 64 109 193 109 316c0 65 -19 146 -82 146c-26 0 -50 -14 -71 -35
c-63 -63 -106 -201 -106 -313c0 -86 29 -147 83 -147zM346 663l16 -4c-13 -36 -31 -67 -59 -67c-15 0 -26 10 -39 25c-17 18 -25 27 -36 27c-15 0 -29 -18 -42 -53l-16 4c13 36 31 67 59 67c17 0 28 -12 43 -29c16 -18 23 -23 32 -23c16 0 29 18 42 53z" />
    <glyph glyph-name="Cacute" unicode="&#x106;" horiz-adv-x="316" 
d="M173 -7c-79 0 -132 71 -132 222c0 139 42 338 143 439c34 34 72 53 113 53c26 0 52 -7 74 -25l-5 -24c-24 22 -45 29 -70 29c-34 0 -67 -17 -95 -45c-89 -89 -138 -275 -138 -428c0 -133 45 -201 112 -201c20 0 43 7 67 23l-5 -24c-17 -11 -37 -19 -64 -19zM279 745
l81 99l22 -12l-91 -87h-12z" />
    <glyph glyph-name="cacute" unicode="&#x107;" horiz-adv-x="273" 
d="M140 -7c-71 0 -119 65 -119 182c0 110 41 243 107 309c30 30 62 44 97 44c32 0 56 -14 69 -25l-5 -24c-15 14 -38 28 -66 28c-27 0 -53 -11 -78 -36c-63 -63 -101 -192 -101 -297c0 -107 42 -160 98 -160c18 0 38 5 60 19l-4 -24c-16 -9 -35 -16 -58 -16zM205 581l90 118
l22 -12l-100 -106h-12z" />
    <glyph glyph-name="Ccaron" unicode="&#x10c;" horiz-adv-x="316" 
d="M173 -7c-79 0 -132 71 -132 222c0 139 42 338 143 439c34 34 72 53 113 53c26 0 52 -7 74 -25l-5 -24c-24 22 -45 29 -70 29c-34 0 -67 -17 -95 -45c-89 -89 -138 -275 -138 -428c0 -133 45 -201 112 -201c20 0 43 7 67 23l-5 -24c-17 -11 -37 -19 -64 -19zM383 847
l-88 -97h-15l-50 97h14l47 -74l76 74h16z" />
    <glyph glyph-name="ccaron" unicode="&#x10d;" horiz-adv-x="273" 
d="M140 -7c-71 0 -119 65 -119 182c0 110 41 243 107 309c30 30 62 44 97 44c32 0 56 -14 69 -25l-5 -24c-15 14 -38 28 -66 28c-27 0 -53 -11 -78 -36c-63 -63 -101 -192 -101 -297c0 -107 42 -160 98 -160c18 0 38 5 60 19l-4 -24c-16 -9 -35 -16 -58 -16zM211 586
l-46 122h14l43 -98l80 98h16l-92 -122h-15z" />
    <glyph glyph-name="Ccedilla" unicode="&#xc7;" horiz-adv-x="316" 
d="M86 -105l-21 10l70 94c-58 20 -94 90 -94 216c0 139 42 338 143 439c34 34 72 53 113 53c26 0 52 -7 74 -25l-5 -24c-24 22 -45 29 -70 29c-34 0 -67 -17 -95 -45c-89 -89 -138 -275 -138 -428c0 -133 45 -201 112 -201c20 0 43 7 67 23l-5 -24c-17 -11 -37 -19 -64 -19
c-9 0 -18 1 -26 3z" />
    <glyph glyph-name="ccedilla" unicode="&#xe7;" horiz-adv-x="273" 
d="M55 -105l-21 10l71 94c-52 18 -84 79 -84 176c0 110 41 243 107 309c30 30 62 44 97 44c32 0 56 -14 69 -25l-5 -24c-15 14 -38 28 -66 28c-27 0 -53 -11 -78 -36c-63 -63 -101 -192 -101 -297c0 -107 42 -160 98 -160c18 0 38 5 60 19l-4 -24c-16 -9 -35 -16 -58 -16
c-8 0 -16 1 -24 3z" />
    <glyph glyph-name="Cdotaccent" unicode="&#x10a;" horiz-adv-x="316" 
d="M173 -7c-79 0 -132 71 -132 222c0 139 42 338 143 439c34 34 72 53 113 53c26 0 52 -7 74 -25l-5 -24c-24 22 -45 29 -70 29c-34 0 -67 -17 -95 -45c-89 -89 -138 -275 -138 -428c0 -133 45 -201 112 -201c20 0 43 7 67 23l-5 -24c-17 -11 -37 -19 -64 -19zM276 755l7 37
h26l-7 -37h-26z" />
    <glyph glyph-name="cdotaccent" unicode="&#x10b;" horiz-adv-x="273" 
d="M140 -7c-71 0 -119 65 -119 182c0 110 41 243 107 309c30 30 62 44 97 44c32 0 56 -14 69 -25l-5 -24c-15 14 -38 28 -66 28c-27 0 -53 -11 -78 -36c-63 -63 -101 -192 -101 -297c0 -107 42 -160 98 -160c18 0 38 5 60 19l-4 -24c-16 -9 -35 -16 -58 -16zM207 591l7 37
h26l-7 -37h-26z" />
    <glyph glyph-name="Dcaron" unicode="&#x10e;" horiz-adv-x="383" 
d="M5 0l136 700h53c51 0 91 -14 121 -44c37 -37 59 -102 59 -188c0 -107 -36 -295 -138 -397c-44 -44 -98 -71 -166 -71h-65zM299 641c-26 26 -60 39 -108 39h-32l-128 -660h39c61 0 109 24 151 66c94 94 131 274 131 383c0 80 -20 139 -53 172zM342 842l-88 -97h-15l-50 97
h14l47 -74l76 74h16z" />
    <glyph glyph-name="dcaron" unicode="&#x10f;" horiz-adv-x="366" 
d="M241 0l24 125c-20 -45 -68 -132 -141 -132c-66 0 -102 68 -102 168c0 118 45 258 113 326c25 25 54 41 85 41c77 0 96 -87 96 -140l63 319h21l-138 -707h-21zM127 13c24 0 46 12 67 33c64 64 109 193 109 316c0 65 -19 146 -82 146c-26 0 -50 -14 -71 -35
c-63 -63 -106 -201 -106 -313c0 -86 29 -147 83 -147zM408 559l37 148h21v-2l-48 -146h-10z" />
    <glyph glyph-name="Dcroat" unicode="&#x110;" horiz-adv-x="390" 
d="M34 343l4 19h44l66 338h53c51 0 91 -14 121 -44c37 -37 59 -102 59 -188c0 -107 -36 -295 -138 -397c-44 -44 -98 -71 -166 -71h-65l66 343h-44zM306 641c-26 26 -60 39 -108 39h-32l-62 -318h105l-4 -19h-105l-62 -323h39c61 0 109 24 151 66c94 94 131 274 131 383
c0 80 -20 139 -53 172z" />
    <glyph glyph-name="dcroat" unicode="&#x111;" horiz-adv-x="366" 
d="M243 608l3 18h117l16 81h21l-16 -81h49l-3 -18h-50l-118 -608h-21l24 125c-20 -45 -68 -132 -141 -132c-66 0 -102 68 -102 168c0 118 45 258 113 326c25 25 54 41 85 41c77 0 96 -87 96 -140l43 220h-116zM127 13c24 0 46 12 67 33c64 64 109 193 109 316
c0 65 -19 146 -82 146c-26 0 -50 -14 -71 -35c-63 -63 -106 -201 -106 -313c0 -86 29 -147 83 -147z" />
    <glyph glyph-name="Eacute" unicode="&#xc9;" horiz-adv-x="313" 
d="M5 0l136 700h226l-4 -20h-204l-61 -317h186l-4 -20h-186l-63 -323h206l-4 -20h-228zM247 740l81 99l22 -12l-91 -87h-12z" />
    <glyph glyph-name="eacute" unicode="&#xe9;" horiz-adv-x="333" 
d="M301 253h-249c-5 -29 -7 -59 -6 -86c3 -102 50 -154 114 -154c25 0 54 5 87 26l-1 -22c-21 -13 -54 -24 -87 -24c-76 0 -130 56 -134 174c-4 119 42 252 108 318c27 27 57 43 88 43c60 0 94 -55 94 -155c0 -40 -6 -83 -14 -120zM149 473c-42 -42 -78 -120 -94 -200h228
c7 34 10 70 10 99c0 83 -23 136 -73 136c-25 0 -49 -13 -71 -35zM215 581l90 118l22 -12l-100 -106h-12z" />
    <glyph glyph-name="Ebreve" unicode="&#x114;" horiz-adv-x="313" 
d="M5 0l136 700h226l-4 -20h-204l-61 -317h186l-4 -20h-186l-63 -323h206l-4 -20h-228zM255 743c-47 0 -83 25 -81 79h18c-1 -36 19 -61 63 -61c46 0 74 25 87 61h18c-18 -54 -58 -79 -105 -79z" />
    <glyph glyph-name="ebreve" unicode="&#x115;" horiz-adv-x="333" 
d="M301 253h-249c-5 -29 -7 -59 -6 -86c3 -102 50 -154 114 -154c25 0 54 5 87 26l-1 -22c-21 -13 -54 -24 -87 -24c-76 0 -130 56 -134 174c-4 119 42 252 108 318c27 27 57 43 88 43c60 0 94 -55 94 -155c0 -40 -6 -83 -14 -120zM149 473c-42 -42 -78 -120 -94 -200h228
c7 34 10 70 10 99c0 83 -23 136 -73 136c-25 0 -49 -13 -71 -35zM226 584c-54 0 -80 38 -77 94h18c-2 -38 11 -76 60 -76c51 0 76 38 90 76h18c-19 -56 -55 -94 -109 -94z" />
    <glyph glyph-name="Ecaron" unicode="&#x11a;" horiz-adv-x="313" 
d="M5 0l136 700h226l-4 -20h-204l-61 -317h186l-4 -20h-186l-63 -323h206l-4 -20h-228zM351 842l-88 -97h-15l-50 97h14l47 -74l76 74h16z" />
    <glyph glyph-name="ecaron" unicode="&#x11b;" horiz-adv-x="333" 
d="M301 253h-249c-5 -29 -7 -59 -6 -86c3 -102 50 -154 114 -154c25 0 54 5 87 26l-1 -22c-21 -13 -54 -24 -87 -24c-76 0 -130 56 -134 174c-4 119 42 252 108 318c27 27 57 43 88 43c60 0 94 -55 94 -155c0 -40 -6 -83 -14 -120zM149 473c-42 -42 -78 -120 -94 -200h228
c7 34 10 70 10 99c0 83 -23 136 -73 136c-25 0 -49 -13 -71 -35zM221 586l-46 122h14l43 -98l80 98h16l-92 -122h-15z" />
    <glyph glyph-name="Ecircumflex" unicode="&#xca;" horiz-adv-x="313" 
d="M5 0l136 700h226l-4 -20h-204l-61 -317h186l-4 -20h-186l-63 -323h206l-4 -20h-228zM178 745l88 97h15l50 -97h-14l-48 74l-75 -74h-16z" />
    <glyph glyph-name="ecircumflex" unicode="&#xea;" horiz-adv-x="333" 
d="M301 253h-249c-5 -29 -7 -59 -6 -86c3 -102 50 -154 114 -154c25 0 54 5 87 26l-1 -22c-21 -13 -54 -24 -87 -24c-76 0 -130 56 -134 174c-4 119 42 252 108 318c27 27 57 43 88 43c60 0 94 -55 94 -155c0 -40 -6 -83 -14 -120zM149 473c-42 -42 -78 -120 -94 -200h228
c7 34 10 70 10 99c0 83 -23 136 -73 136c-25 0 -49 -13 -71 -35zM150 586l92 122h15l46 -122h-14l-43 98l-80 -98h-16z" />
    <glyph glyph-name="Edieresis" unicode="&#xcb;" horiz-adv-x="313" 
d="M5 0l136 700h226l-4 -20h-204l-61 -317h186l-4 -20h-186l-63 -323h206l-4 -20h-228zM205 750l7 37h26l-7 -37h-26zM283 750l7 37h26l-7 -37h-26z" />
    <glyph glyph-name="edieresis" unicode="&#xeb;" horiz-adv-x="333" 
d="M301 253h-249c-5 -29 -7 -59 -6 -86c3 -102 50 -154 114 -154c25 0 54 5 87 26l-1 -22c-21 -13 -54 -24 -87 -24c-76 0 -130 56 -134 174c-4 119 42 252 108 318c27 27 57 43 88 43c60 0 94 -55 94 -155c0 -40 -6 -83 -14 -120zM149 473c-42 -42 -78 -120 -94 -200h228
c7 34 10 70 10 99c0 83 -23 136 -73 136c-25 0 -49 -13 -71 -35zM178 591l7 37h26l-7 -37h-26zM256 591l7 37h26l-7 -37h-26z" />
    <glyph glyph-name="Edotaccent" unicode="&#x116;" horiz-adv-x="313" 
d="M5 0l136 700h226l-4 -20h-204l-61 -317h186l-4 -20h-186l-63 -323h206l-4 -20h-228zM244 750l7 37h26l-7 -37h-26z" />
    <glyph glyph-name="edotaccent" unicode="&#x117;" horiz-adv-x="333" 
d="M301 253h-249c-5 -29 -7 -59 -6 -86c3 -102 50 -154 114 -154c25 0 54 5 87 26l-1 -22c-21 -13 -54 -24 -87 -24c-76 0 -130 56 -134 174c-4 119 42 252 108 318c27 27 57 43 88 43c60 0 94 -55 94 -155c0 -40 -6 -83 -14 -120zM149 473c-42 -42 -78 -120 -94 -200h228
c7 34 10 70 10 99c0 83 -23 136 -73 136c-25 0 -49 -13 -71 -35zM217 591l7 37h26l-7 -37h-26z" />
    <glyph glyph-name="Egrave" unicode="&#xc8;" horiz-adv-x="313" 
d="M5 0l136 700h226l-4 -20h-204l-61 -317h186l-4 -20h-186l-63 -323h206l-4 -20h-228zM246 740l-67 88l21 11l57 -99h-11z" />
    <glyph glyph-name="egrave" unicode="&#xe8;" horiz-adv-x="333" 
d="M301 253h-249c-5 -29 -7 -59 -6 -86c3 -102 50 -154 114 -154c25 0 54 5 87 26l-1 -22c-21 -13 -54 -24 -87 -24c-76 0 -130 56 -134 174c-4 119 42 252 108 318c27 27 57 43 88 43c60 0 94 -55 94 -155c0 -40 -6 -83 -14 -120zM149 473c-42 -42 -78 -120 -94 -200h228
c7 34 10 70 10 99c0 83 -23 136 -73 136c-25 0 -49 -13 -71 -35zM219 581l-76 107l21 11l66 -118h-11z" />
    <glyph glyph-name="Emacron" unicode="&#x112;" horiz-adv-x="313" 
d="M5 0l136 700h226l-4 -20h-204l-61 -317h186l-4 -20h-186l-63 -323h206l-4 -20h-228zM177 752l4 18h160l-4 -18h-160z" />
    <glyph glyph-name="emacron" unicode="&#x113;" horiz-adv-x="333" 
d="M301 253h-249c-5 -29 -7 -59 -6 -86c3 -102 50 -154 114 -154c25 0 54 5 87 26l-1 -22c-21 -13 -54 -24 -87 -24c-76 0 -130 56 -134 174c-4 119 42 252 108 318c27 27 57 43 88 43c60 0 94 -55 94 -155c0 -40 -6 -83 -14 -120zM149 473c-42 -42 -78 -120 -94 -200h228
c7 34 10 70 10 99c0 83 -23 136 -73 136c-25 0 -49 -13 -71 -35zM149 593l4 18h160l-4 -18h-160z" />
    <glyph glyph-name="Eogonek" unicode="&#x118;" horiz-adv-x="313" 
d="M5 0l136 700h226l-4 -20h-204l-61 -317h186l-4 -20h-186l-63 -323h206l-4 -20h-13c-39 -38 -46 -55 -46 -69c0 -13 8 -26 43 -24l-3 -15c-8 -1 -12 -1 -14 -1c-33 0 -46 17 -46 36c0 23 15 43 51 73h-200z" />
    <glyph glyph-name="eogonek" unicode="&#x119;" horiz-adv-x="333" 
d="M247 39l-1 -22c-13 -8 -31 -21 -46 -36c-16 -16 -28 -34 -28 -50c0 -13 8 -26 43 -24l-3 -15c-8 -1 -12 -1 -14 -1c-33 0 -46 17 -46 36c0 23 17 45 51 72c-14 -4 -31 -6 -44 -6c-76 0 -130 56 -134 174c-4 119 42 252 108 318c27 27 57 43 88 43c60 0 94 -55 94 -155
c0 -40 -6 -83 -14 -120h-249c-5 -29 -7 -59 -6 -86c3 -102 50 -154 114 -154c25 0 54 5 87 26zM149 473c-42 -42 -78 -120 -94 -200h228c7 34 10 70 10 99c0 83 -23 136 -73 136c-25 0 -49 -13 -71 -35z" />
    <glyph glyph-name="Eth" unicode="&#xd0;" horiz-adv-x="390" 
d="M34 343l4 19h44l66 338h53c51 0 91 -14 121 -44c37 -37 59 -102 59 -188c0 -107 -36 -295 -138 -397c-44 -44 -98 -71 -166 -71h-65l66 343h-44zM306 641c-26 26 -60 39 -108 39h-32l-62 -318h105l-4 -19h-105l-62 -323h39c61 0 109 24 151 66c94 94 131 274 131 383
c0 80 -20 139 -53 172z" />
    <glyph glyph-name="eth" unicode="&#xf0;" horiz-adv-x="346" 
d="M160 583l-6 16l95 42c-10 21 -22 43 -36 66h24c11 -19 21 -39 30 -58l74 32l6 -16l-72 -32c33 -74 55 -153 55 -246c0 -148 -44 -283 -116 -355c-24 -24 -53 -39 -84 -39c-66 0 -106 64 -106 172c0 122 42 259 112 329c24 24 55 39 83 39c52 0 76 -45 90 -81
c-8 44 -21 104 -52 173zM131 13c26 0 49 13 69 33c64 64 105 198 105 314c0 93 -35 153 -86 153c-22 0 -47 -11 -69 -33c-63 -63 -105 -197 -105 -314c0 -92 31 -153 86 -153z" />
    <glyph glyph-name="Gbreve" unicode="&#x11e;" horiz-adv-x="371" 
d="M198 -7c-87 0 -156 76 -156 244c0 141 51 314 145 408c38 38 83 62 135 62c37 0 64 -13 87 -30l-5 -24c-21 18 -45 34 -84 34c-41 0 -81 -19 -116 -54c-86 -86 -140 -255 -140 -394c0 -152 58 -226 136 -226c21 0 44 5 59 16l58 297h-115l4 20h136l-65 -330
c-21 -15 -49 -23 -79 -23zM312 748c-47 0 -83 25 -81 79h18c-1 -36 19 -61 63 -61c46 0 74 25 87 61h18c-18 -54 -58 -79 -105 -79z" />
    <glyph glyph-name="gbreve" unicode="&#x11f;" horiz-adv-x="363" 
d="M99 -131c-33 0 -83 9 -115 26l4 22c34 -20 82 -28 109 -28c44 0 76 8 101 33c22 22 36 54 48 116l19 102c-17 -30 -65 -118 -136 -117c-65 1 -101 69 -101 160c0 118 50 247 107 304c25 25 54 41 84 41c76 0 94 -87 97 -125l23 118h21l-91 -471
c-12 -65 -23 -114 -62 -148c-24 -21 -62 -33 -108 -33zM132 43c23 0 45 12 66 33c69 69 102 196 102 286c0 65 -18 146 -80 146c-25 0 -49 -14 -70 -35c-51 -51 -100 -176 -100 -291c0 -78 29 -139 82 -139zM238 584c-54 0 -80 38 -77 94h18c-2 -38 11 -76 60 -76
c51 0 76 38 90 76h18c-19 -56 -55 -94 -109 -94z" />
    <glyph glyph-name="Gcommaaccent" unicode="&#x122;" horiz-adv-x="371" 
d="M198 -7c-87 0 -156 76 -156 244c0 141 51 314 145 408c38 38 83 62 135 62c37 0 64 -13 87 -30l-5 -24c-21 18 -45 34 -84 34c-41 0 -81 -19 -116 -54c-86 -86 -140 -255 -140 -394c0 -152 58 -226 136 -226c21 0 44 5 59 16l58 297h-115l4 20h136l-65 -330
c-21 -15 -49 -23 -79 -23zM114 -175l-5 13c22 12 28 18 32 47h-11l10 50h28l-11 -58c-6 -33 -20 -42 -43 -52z" />
    <glyph glyph-name="gcommaaccent" unicode="&#x123;" horiz-adv-x="363" 
d="M99 -131c-33 0 -83 9 -115 26l4 22c34 -20 82 -28 109 -28c44 0 76 8 101 33c22 22 36 54 48 116l19 102c-17 -30 -65 -118 -136 -117c-65 1 -101 69 -101 160c0 118 50 247 107 304c25 25 54 41 84 41c76 0 94 -87 97 -125l23 118h21l-91 -471
c-12 -65 -23 -114 -62 -148c-24 -21 -62 -33 -108 -33zM132 43c23 0 45 12 66 33c69 69 102 196 102 286c0 65 -18 146 -80 146c-25 0 -49 -14 -70 -35c-51 -51 -100 -176 -100 -291c0 -78 29 -139 82 -139zM282 701l5 -13c-22 -12 -28 -18 -32 -47h11l-10 -50h-28l11 58
c6 33 20 42 43 52z" />
    <glyph glyph-name="Gdotaccent" unicode="&#x120;" horiz-adv-x="371" 
d="M198 -7c-87 0 -156 76 -156 244c0 141 51 314 145 408c38 38 83 62 135 62c37 0 64 -13 87 -30l-5 -24c-21 18 -45 34 -84 34c-41 0 -81 -19 -116 -54c-86 -86 -140 -255 -140 -394c0 -152 58 -226 136 -226c21 0 44 5 59 16l58 297h-115l4 20h136l-65 -330
c-21 -15 -49 -23 -79 -23zM301 755l7 37h26l-7 -37h-26z" />
    <glyph glyph-name="gdotaccent" unicode="&#x121;" horiz-adv-x="363" 
d="M99 -131c-33 0 -83 9 -115 26l4 22c34 -20 82 -28 109 -28c44 0 76 8 101 33c22 22 36 54 48 116l19 102c-17 -30 -65 -118 -136 -117c-65 1 -101 69 -101 160c0 118 50 247 107 304c25 25 54 41 84 41c76 0 94 -87 97 -125l23 118h21l-91 -471
c-12 -65 -23 -114 -62 -148c-24 -21 -62 -33 -108 -33zM132 43c23 0 45 12 66 33c69 69 102 196 102 286c0 65 -18 146 -80 146c-25 0 -49 -14 -70 -35c-51 -51 -100 -176 -100 -291c0 -78 29 -139 82 -139zM229 591l7 37h26l-7 -37h-26z" />
    <glyph glyph-name="Hbar" unicode="&#x126;" horiz-adv-x="414" 
d="M65 566l4 18h55l23 116h22l-23 -116h248l23 116h22l-23 -116h53l-4 -18h-52l-110 -566h-22l66 343h-248l-66 -343h-22l110 566h-56zM103 363h248l40 203h-248z" />
    <glyph glyph-name="hbar" unicode="&#x127;" horiz-adv-x="360" 
d="M72 608l3 18h48l16 81h21l-16 -81h118l-3 -18h-119l-34 -178c23 50 71 98 135 98c41 0 95 -23 95 -106c0 -22 -4 -55 -17 -120l-59 -302h-21l59 300c7 36 17 88 17 119c0 68 -38 89 -78 89c-70 0 -128 -65 -148 -167l-66 -341h-21l118 608h-48z" />
    <glyph glyph-name="Iacute" unicode="&#xcd;" horiz-adv-x="144" 
d="M11 0l136 700h22l-136 -700h-22zM158 740l81 99l22 -12l-91 -87h-12z" />
    <glyph glyph-name="iacute" unicode="&#xed;" horiz-adv-x="135" 
d="M7 0l100 521h21l-100 -521h-21zM116 576l90 118l22 -12l-100 -106h-12z" />
    <glyph glyph-name="Ibreve" unicode="&#x12c;" horiz-adv-x="144" 
d="M11 0l136 700h22l-136 -700h-22zM166 743c-47 0 -83 25 -81 79h18c-1 -36 19 -61 63 -61c46 0 74 25 87 61h18c-18 -54 -58 -79 -105 -79z" />
    <glyph glyph-name="ibreve" unicode="&#x12d;" horiz-adv-x="135" 
d="M7 0l100 521h21l-100 -521h-21zM127 579c-54 0 -80 38 -77 94h18c-2 -38 11 -76 60 -76c51 0 76 38 90 76h18c-19 -56 -55 -94 -109 -94z" />
    <glyph glyph-name="Icircumflex" unicode="&#xce;" horiz-adv-x="144" 
d="M11 0l136 700h22l-136 -700h-22zM89 745l88 97h15l50 -97h-14l-48 74l-75 -74h-16z" />
    <glyph glyph-name="icircumflex" unicode="&#xee;" horiz-adv-x="135" 
d="M7 0l100 521h21l-100 -521h-21zM51 581l92 122h15l46 -122h-14l-43 98l-80 -98h-16z" />
    <glyph glyph-name="Idieresis" unicode="&#xcf;" horiz-adv-x="144" 
d="M11 0l136 700h22l-136 -700h-22zM116 750l7 37h26l-7 -37h-26zM194 750l7 37h26l-7 -37h-26z" />
    <glyph glyph-name="idieresis" unicode="&#xef;" horiz-adv-x="135" 
d="M7 0l100 521h21l-100 -521h-21zM79 586l7 37h26l-7 -37h-26zM157 586l7 37h26l-7 -37h-26z" />
    <glyph glyph-name="Idotaccent" unicode="&#x130;" horiz-adv-x="144" 
d="M11 0l136 700h22l-136 -700h-22zM155 750l7 37h26l-7 -37h-26z" />
    <glyph glyph-name="dotlessi" unicode="&#x131;" horiz-adv-x="135" 
d="M7 0l100 521h21l-100 -521h-21z" />
    <glyph glyph-name="Igrave" unicode="&#xcc;" horiz-adv-x="144" 
d="M11 0l136 700h22l-136 -700h-22zM157 740l-67 88l21 11l57 -99h-11z" />
    <glyph glyph-name="igrave" unicode="&#xec;" horiz-adv-x="135" 
d="M7 0l100 521h21l-100 -521h-21zM120 576l-76 107l21 11l66 -118h-11z" />
    <glyph glyph-name="Imacron" unicode="&#x12a;" horiz-adv-x="144" 
d="M11 0l136 700h22l-136 -700h-22zM88 752l4 18h160l-4 -18h-160z" />
    <glyph glyph-name="imacron" unicode="&#x12b;" horiz-adv-x="135" 
d="M7 0l100 521h21l-100 -521h-21zM51 588l4 18h160l-4 -18h-160z" />
    <glyph glyph-name="Iogonek" unicode="&#x12e;" horiz-adv-x="144" 
d="M11 0l136 700h22l-136 -696h1l-1 -1v-3h-3c-39 -38 -46 -55 -46 -69c0 -13 8 -26 43 -24l-3 -15c-8 -1 -12 -1 -14 -1c-33 0 -46 17 -46 36c0 23 16 43 51 73h-4z" />
    <glyph glyph-name="iogonek" unicode="&#x12f;" horiz-adv-x="135" 
d="M7 0l100 521h21l-100 -521h-4c-39 -38 -46 -55 -46 -69c0 -13 8 -26 43 -24l-3 -15c-8 -1 -12 -1 -14 -1c-33 0 -46 17 -46 36c0 23 16 43 51 73h-2zM130 650l11 57h25l-11 -57h-25z" />
    <glyph glyph-name="Kcommaaccent" unicode="&#x136;" horiz-adv-x="332" 
d="M5 0l136 700h22l-82 -421l288 421h26l-225 -324l103 -376h-22l-96 353l-83 -119l-45 -234h-22zM69 -175l-5 13c22 12 28 18 32 47h-11l10 50h28l-11 -58c-6 -33 -20 -42 -43 -52z" />
    <glyph glyph-name="kcommaaccent" unicode="&#x137;" horiz-adv-x="290" 
d="M3 0l136 707h21l-100 -520l238 334h25l-158 -218l67 -303h-21l-62 281l-97 -134l-28 -147h-21zM53 -175l-5 13c22 12 28 18 32 47h-11l10 50h28l-11 -58c-6 -33 -20 -42 -43 -52z" />
    <glyph glyph-name="Lacute" unicode="&#x139;" horiz-adv-x="274" 
d="M5 0l136 700h22l-132 -680h185l-4 -20h-207zM152 740l81 99l22 -12l-91 -87h-12z" />
    <glyph glyph-name="lacute" unicode="&#x13a;" horiz-adv-x="135" 
d="M7 0l136 707h21l-137 -707h-20zM151 762l81 99l22 -12l-91 -87h-12z" />
    <glyph glyph-name="Lcaron" unicode="&#x13d;" horiz-adv-x="274" 
d="M5 0l136 700h22l-132 -680h185l-4 -20h-207zM181 552l37 148h21v-2l-48 -146h-10z" />
    <glyph glyph-name="lcaron" unicode="&#x13e;" horiz-adv-x="135" 
d="M7 0l136 707h21l-137 -707h-20zM172 559l37 148h21v-2l-48 -146h-10z" />
    <glyph glyph-name="Lcommaaccent" unicode="&#x13b;" horiz-adv-x="274" 
d="M5 0l136 700h22l-132 -680h185l-4 -20h-207zM53 -175l-5 13c22 12 28 18 32 47h-11l10 50h28l-11 -58c-6 -33 -20 -42 -43 -52z" />
    <glyph glyph-name="lcommaaccent" unicode="&#x13c;" horiz-adv-x="135" 
d="M7 0l136 707h21l-137 -707h-20zM-36 -175l-5 13c22 12 28 18 32 47h-11l10 50h28l-11 -58c-6 -33 -20 -42 -43 -52z" />
    <glyph glyph-name="Ldot" unicode="&#x13f;" horiz-adv-x="274" 
d="M202 327l7 37h26l-7 -37h-26zM5 0l136 700h22l-132 -680h185l-4 -20h-207z" />
    <glyph glyph-name="ldot" unicode="&#x140;" horiz-adv-x="157" 
d="M144 320l8 42h24l-8 -42h-24zM7 0l136 707h21l-137 -707h-20z" />
    <glyph glyph-name="Lslash" unicode="&#x141;" horiz-adv-x="282" 
d="M10 271l5 24l62 38l72 367h22l-69 -352l108 65l-5 -24l-107 -65l-59 -304h185l-4 -20h-207l60 309z" />
    <glyph glyph-name="lslash" unicode="&#x142;" horiz-adv-x="155" 
d="M14 301l5 24l68 41l66 341h21l-64 -327l71 42l-5 -24l-70 -43l-69 -355h-20l66 342z" />
    <glyph glyph-name="Nacute" unicode="&#x143;" horiz-adv-x="408" 
d="M5 0l136 700h23l127 -643l125 643h21l-136 -700h-19l-129 653l-127 -653h-21zM281 735l81 99l22 -12l-91 -87h-12z" />
    <glyph glyph-name="nacute" unicode="&#x144;" horiz-adv-x="360" 
d="M2 0l101 521h21l-18 -91c23 50 71 98 135 98c41 0 95 -23 95 -106c0 -22 -4 -55 -17 -120l-59 -302h-21l59 300c7 36 17 88 17 119c0 68 -38 89 -78 89c-70 0 -128 -65 -148 -167l-66 -341h-21zM219 581l90 118l22 -12l-100 -106h-12z" />
    <glyph glyph-name="Ncaron" unicode="&#x147;" horiz-adv-x="408" 
d="M5 0l136 700h23l127 -643l125 643h21l-136 -700h-19l-129 653l-127 -653h-21zM385 837l-88 -97h-15l-50 97h14l47 -74l76 74h16z" />
    <glyph glyph-name="ncaron" unicode="&#x148;" horiz-adv-x="360" 
d="M2 0l101 521h21l-18 -91c23 50 71 98 135 98c41 0 95 -23 95 -106c0 -22 -4 -55 -17 -120l-59 -302h-21l59 300c7 36 17 88 17 119c0 68 -38 89 -78 89c-70 0 -128 -65 -148 -167l-66 -341h-21zM225 586l-46 122h14l43 -98l80 98h16l-92 -122h-15z" />
    <glyph glyph-name="Ncommaaccent" unicode="&#x145;" horiz-adv-x="408" 
d="M5 0l136 700h23l127 -643l125 643h21l-136 -700h-19l-129 653l-127 -653h-21zM93 -175l-5 13c22 12 28 18 32 47h-11l10 50h28l-11 -58c-6 -33 -20 -42 -43 -52z" />
    <glyph glyph-name="ncommaaccent" unicode="&#x146;" horiz-adv-x="360" 
d="M2 0l101 521h21l-18 -91c23 50 71 98 135 98c41 0 95 -23 95 -106c0 -22 -4 -55 -17 -120l-59 -302h-21l59 300c7 36 17 88 17 119c0 68 -38 89 -78 89c-70 0 -128 -65 -148 -167l-66 -341h-21zM65 -175l-5 13c22 12 28 18 32 47h-11l10 50h28l-11 -58
c-6 -33 -20 -42 -43 -52z" />
    <glyph glyph-name="Ntilde" unicode="&#xd1;" horiz-adv-x="408" 
d="M5 0l136 700h23l127 -643l125 643h21l-136 -700h-19l-129 653l-127 -653h-21zM214 744l-16 4c16 36 34 58 58 58c16 0 29 -9 46 -23c18 -14 26 -21 37 -21c15 0 27 15 41 44l16 -4c-16 -36 -34 -58 -58 -58c-16 0 -29 9 -46 23c-18 14 -26 21 -37 21
c-15 0 -27 -15 -41 -44z" />
    <glyph glyph-name="ntilde" unicode="&#xf1;" horiz-adv-x="360" 
d="M2 0l101 521h21l-18 -91c23 50 71 98 135 98c41 0 95 -23 95 -106c0 -22 -4 -55 -17 -120l-59 -302h-21l59 300c7 36 17 88 17 119c0 68 -38 89 -78 89c-70 0 -128 -65 -148 -167l-66 -341h-21zM321 663l16 -4c-13 -36 -31 -67 -59 -67c-15 0 -26 10 -39 25
c-17 18 -25 27 -36 27c-15 0 -29 -18 -42 -53l-16 4c13 36 31 67 59 67c17 0 28 -12 43 -29c16 -18 23 -23 32 -23c16 0 29 18 42 53z" />
    <glyph glyph-name="Oacute" unicode="&#xd3;" horiz-adv-x="396" 
d="M277 707c72 0 117 -67 117 -195c0 -159 -55 -382 -148 -475c-28 -28 -58 -44 -92 -44c-72 0 -117 67 -117 195c0 159 55 382 148 475c28 28 58 44 92 44zM155 13c27 0 52 14 76 38c88 88 141 313 141 461c0 113 -37 175 -96 175c-27 0 -52 -14 -76 -38
c-88 -88 -141 -313 -141 -461c0 -113 37 -175 96 -175zM284 745l81 99l22 -12l-91 -87h-12z" />
    <glyph glyph-name="oacute" unicode="&#xf3;" horiz-adv-x="356" 
d="M224 528c66 0 108 -63 108 -170c0 -121 -43 -255 -110 -322c-28 -28 -58 -43 -90 -43c-66 0 -108 63 -108 170c0 121 43 255 110 322c28 28 58 43 90 43zM133 13c27 0 50 13 73 36c61 61 104 192 104 308c0 91 -31 151 -87 151c-27 0 -50 -13 -73 -36
c-61 -61 -104 -192 -104 -308c0 -91 31 -151 87 -151zM228 581l90 118l22 -12l-100 -106h-12z" />
    <glyph glyph-name="Obreve" unicode="&#x14e;" horiz-adv-x="396" 
d="M277 707c72 0 117 -67 117 -195c0 -159 -55 -382 -148 -475c-28 -28 -58 -44 -92 -44c-72 0 -117 67 -117 195c0 159 55 382 148 475c28 28 58 44 92 44zM155 13c27 0 52 14 76 38c88 88 141 313 141 461c0 113 -37 175 -96 175c-27 0 -52 -14 -76 -38
c-88 -88 -141 -313 -141 -461c0 -113 37 -175 96 -175zM292 748c-47 0 -83 25 -81 79h18c-1 -36 19 -61 63 -61c46 0 74 25 87 61h18c-18 -54 -58 -79 -105 -79z" />
    <glyph glyph-name="obreve" unicode="&#x14f;" horiz-adv-x="356" 
d="M224 528c66 0 108 -63 108 -170c0 -121 -43 -255 -110 -322c-28 -28 -58 -43 -90 -43c-66 0 -108 63 -108 170c0 121 43 255 110 322c28 28 58 43 90 43zM133 13c27 0 50 13 73 36c61 61 104 192 104 308c0 91 -31 151 -87 151c-27 0 -50 -13 -73 -36
c-61 -61 -104 -192 -104 -308c0 -91 31 -151 87 -151zM239 584c-54 0 -80 38 -77 94h18c-2 -38 11 -76 60 -76c51 0 76 38 90 76h18c-19 -56 -55 -94 -109 -94z" />
    <glyph glyph-name="Ocircumflex" unicode="&#xd4;" horiz-adv-x="396" 
d="M277 707c72 0 117 -67 117 -195c0 -159 -55 -382 -148 -475c-28 -28 -58 -44 -92 -44c-72 0 -117 67 -117 195c0 159 55 382 148 475c28 28 58 44 92 44zM155 13c27 0 52 14 76 38c88 88 141 313 141 461c0 113 -37 175 -96 175c-27 0 -52 -14 -76 -38
c-88 -88 -141 -313 -141 -461c0 -113 37 -175 96 -175zM215 750l88 97h15l50 -97h-14l-48 74l-75 -74h-16z" />
    <glyph glyph-name="ocircumflex" unicode="&#xf4;" horiz-adv-x="356" 
d="M224 528c66 0 108 -63 108 -170c0 -121 -43 -255 -110 -322c-28 -28 -58 -43 -90 -43c-66 0 -108 63 -108 170c0 121 43 255 110 322c28 28 58 43 90 43zM133 13c27 0 50 13 73 36c61 61 104 192 104 308c0 91 -31 151 -87 151c-27 0 -50 -13 -73 -36
c-61 -61 -104 -192 -104 -308c0 -91 31 -151 87 -151zM163 586l92 122h15l46 -122h-14l-43 98l-80 -98h-16z" />
    <glyph glyph-name="Odieresis" unicode="&#xd6;" horiz-adv-x="396" 
d="M277 707c72 0 117 -67 117 -195c0 -159 -55 -382 -148 -475c-28 -28 -58 -44 -92 -44c-72 0 -117 67 -117 195c0 159 55 382 148 475c28 28 58 44 92 44zM155 13c27 0 52 14 76 38c88 88 141 313 141 461c0 113 -37 175 -96 175c-27 0 -52 -14 -76 -38
c-88 -88 -141 -313 -141 -461c0 -113 37 -175 96 -175zM242 755l7 37h26l-7 -37h-26zM320 755l7 37h26l-7 -37h-26z" />
    <glyph glyph-name="odieresis" unicode="&#xf6;" horiz-adv-x="356" 
d="M224 528c66 0 108 -63 108 -170c0 -121 -43 -255 -110 -322c-28 -28 -58 -43 -90 -43c-66 0 -108 63 -108 170c0 121 43 255 110 322c28 28 58 43 90 43zM133 13c27 0 50 13 73 36c61 61 104 192 104 308c0 91 -31 151 -87 151c-27 0 -50 -13 -73 -36
c-61 -61 -104 -192 -104 -308c0 -91 31 -151 87 -151zM191 591l7 37h26l-7 -37h-26zM269 591l7 37h26l-7 -37h-26z" />
    <glyph glyph-name="OE" unicode="&#x152;" horiz-adv-x="537" 
d="M223 0c-51 0 -91 14 -121 44c-37 37 -59 102 -59 188c0 107 36 295 138 397c44 44 98 71 166 71h244l-4 -20h-204l-61 -317h186l-4 -20h-186l-63 -323h206l-4 -20h-234zM118 59c26 -26 60 -39 108 -39h7l128 660h-14c-61 0 -109 -24 -151 -66
c-94 -94 -131 -274 -131 -383c0 -80 20 -139 53 -172z" />
    <glyph glyph-name="oe" unicode="&#x153;" horiz-adv-x="603" 
d="M571 253h-249c-5 -29 -7 -59 -6 -86c3 -102 50 -154 114 -154c25 0 54 5 87 26l-1 -22c-21 -13 -54 -24 -87 -24c-74 0 -129 53 -134 172c-26 -84 -87 -172 -163 -172c-66 0 -108 63 -108 170c0 121 43 255 110 322c28 28 58 43 90 43c63 0 105 -58 107 -165
c25 72 84 165 160 165c60 0 94 -55 94 -155c0 -40 -6 -83 -14 -120zM133 13c27 0 50 13 73 36c61 61 104 192 104 308c0 91 -31 151 -87 151c-27 0 -50 -13 -73 -36c-61 -61 -104 -192 -104 -308c0 -91 31 -151 87 -151zM419 473c-42 -42 -78 -120 -94 -200h228
c7 34 10 70 10 99c0 83 -23 136 -73 136c-25 0 -49 -13 -71 -35z" />
    <glyph glyph-name="Ograve" unicode="&#xd2;" horiz-adv-x="396" 
d="M277 707c72 0 117 -67 117 -195c0 -159 -55 -382 -148 -475c-28 -28 -58 -44 -92 -44c-72 0 -117 67 -117 195c0 159 55 382 148 475c28 28 58 44 92 44zM155 13c27 0 52 14 76 38c88 88 141 313 141 461c0 113 -37 175 -96 175c-27 0 -52 -14 -76 -38
c-88 -88 -141 -313 -141 -461c0 -113 37 -175 96 -175zM283 745l-67 88l21 11l57 -99h-11z" />
    <glyph glyph-name="ograve" unicode="&#xf2;" horiz-adv-x="356" 
d="M224 528c66 0 108 -63 108 -170c0 -121 -43 -255 -110 -322c-28 -28 -58 -43 -90 -43c-66 0 -108 63 -108 170c0 121 43 255 110 322c28 28 58 43 90 43zM133 13c27 0 50 13 73 36c61 61 104 192 104 308c0 91 -31 151 -87 151c-27 0 -50 -13 -73 -36
c-61 -61 -104 -192 -104 -308c0 -91 31 -151 87 -151zM232 581l-76 107l21 11l66 -118h-11z" />
    <glyph glyph-name="Ohungarumlaut" unicode="&#x150;" horiz-adv-x="396" 
d="M277 707c72 0 117 -67 117 -195c0 -159 -55 -382 -148 -475c-28 -28 -58 -44 -92 -44c-72 0 -117 67 -117 195c0 159 55 382 148 475c28 28 58 44 92 44zM155 13c27 0 52 14 76 38c88 88 141 313 141 461c0 113 -37 175 -96 175c-27 0 -52 -14 -76 -38
c-88 -88 -141 -313 -141 -461c0 -113 37 -175 96 -175zM248 745l81 100l22 -13l-91 -87h-12zM317 745l78 100l22 -13l-88 -87h-12z" />
    <glyph glyph-name="ohungarumlaut" unicode="&#x151;" horiz-adv-x="356" 
d="M224 528c66 0 108 -63 108 -170c0 -121 -43 -255 -110 -322c-28 -28 -58 -43 -90 -43c-66 0 -108 63 -108 170c0 121 43 255 110 322c28 28 58 43 90 43zM133 13c27 0 50 13 73 36c61 61 104 192 104 308c0 91 -31 151 -87 151c-27 0 -50 -13 -73 -36
c-61 -61 -104 -192 -104 -308c0 -91 31 -151 87 -151zM192 581l89 119l22 -13l-99 -106h-12zM266 581l89 119l22 -13l-99 -106h-12z" />
    <glyph glyph-name="Omacron" unicode="&#x14c;" horiz-adv-x="396" 
d="M277 707c72 0 117 -67 117 -195c0 -159 -55 -382 -148 -475c-28 -28 -58 -44 -92 -44c-72 0 -117 67 -117 195c0 159 55 382 148 475c28 28 58 44 92 44zM155 13c27 0 52 14 76 38c88 88 141 313 141 461c0 113 -37 175 -96 175c-27 0 -52 -14 -76 -38
c-88 -88 -141 -313 -141 -461c0 -113 37 -175 96 -175zM214 757l4 18h160l-4 -18h-160z" />
    <glyph glyph-name="omacron" unicode="&#x14d;" horiz-adv-x="356" 
d="M224 528c66 0 108 -63 108 -170c0 -121 -43 -255 -110 -322c-28 -28 -58 -43 -90 -43c-66 0 -108 63 -108 170c0 121 43 255 110 322c28 28 58 43 90 43zM133 13c27 0 50 13 73 36c61 61 104 192 104 308c0 91 -31 151 -87 151c-27 0 -50 -13 -73 -36
c-61 -61 -104 -192 -104 -308c0 -91 31 -151 87 -151zM162 593l4 18h160l-4 -18h-160z" />
    <glyph glyph-name="Oslash" unicode="&#xd8;" horiz-adv-x="396" 
d="M280 707c43 0 76 -26 95 -75l45 76h20l-58 -97c8 -28 12 -61 12 -99c0 -159 -56 -381 -150 -475c-28 -28 -59 -44 -93 -44c-43 0 -76 25 -95 74l-45 -75h-20l57 97c-7 27 -11 60 -11 99c0 159 56 381 150 475c28 28 59 44 93 44zM59 188c0 -27 2 -51 6 -72l295 490
c-15 53 -43 81 -81 81c-28 0 -54 -14 -76 -36c-89 -89 -144 -315 -144 -463zM152 13c28 0 54 14 76 36c89 89 144 315 144 463c0 27 -2 50 -6 71l-296 -490c15 -52 44 -80 82 -80z" />
    <glyph glyph-name="oslash" unicode="&#xf8;" horiz-adv-x="354" 
d="M224 528c36 0 65 -20 84 -55l37 54h19l-47 -73c10 -26 15 -58 15 -96c0 -121 -43 -255 -110 -322c-28 -28 -58 -43 -90 -43c-37 0 -66 19 -85 55l-36 -54h-19l47 72c-10 26 -15 59 -15 97c0 121 43 255 110 322c28 28 58 43 90 43zM223 508c-27 0 -50 -13 -73 -36
c-61 -61 -104 -192 -104 -308c0 -28 3 -53 8 -75l241 361c-14 36 -39 58 -72 58zM310 357c0 28 -3 53 -9 74l-240 -361c14 -36 38 -57 72 -57c27 0 50 13 73 36c61 61 104 192 104 308z" />
    <glyph glyph-name="Oslashacute" unicode="&#x1fe;" horiz-adv-x="396" 
d="M280 707c43 0 76 -26 95 -75l45 76h20l-58 -97c8 -28 12 -61 12 -99c0 -159 -56 -381 -150 -475c-28 -28 -59 -44 -93 -44c-43 0 -76 25 -95 74l-45 -75h-20l57 97c-7 27 -11 60 -11 99c0 159 56 381 150 475c28 28 59 44 93 44zM59 188c0 -27 2 -51 6 -72l295 490
c-15 53 -43 81 -81 81c-28 0 -54 -14 -76 -36c-89 -89 -144 -315 -144 -463zM152 13c28 0 54 14 76 36c89 89 144 315 144 463c0 27 -2 50 -6 71l-296 -490c15 -52 44 -80 82 -80zM284 745l81 99l22 -12l-91 -87h-12z" />
    <glyph glyph-name="oslashacute" unicode="&#x1ff;" horiz-adv-x="354" 
d="M224 528c36 0 65 -20 84 -55l37 54h19l-47 -73c10 -26 15 -58 15 -96c0 -121 -43 -255 -110 -322c-28 -28 -58 -43 -90 -43c-37 0 -66 19 -85 55l-36 -54h-19l47 72c-10 26 -15 59 -15 97c0 121 43 255 110 322c28 28 58 43 90 43zM223 508c-27 0 -50 -13 -73 -36
c-61 -61 -104 -192 -104 -308c0 -28 3 -53 8 -75l241 361c-14 36 -39 58 -72 58zM310 357c0 28 -3 53 -9 74l-240 -361c14 -36 38 -57 72 -57c27 0 50 13 73 36c61 61 104 192 104 308zM228 581l90 118l22 -12l-100 -106h-12z" />
    <glyph glyph-name="Otilde" unicode="&#xd5;" horiz-adv-x="396" 
d="M277 707c72 0 117 -67 117 -195c0 -159 -55 -382 -148 -475c-28 -28 -58 -44 -92 -44c-72 0 -117 67 -117 195c0 159 55 382 148 475c28 28 58 44 92 44zM155 13c27 0 52 14 76 38c88 88 141 313 141 461c0 113 -37 175 -96 175c-27 0 -52 -14 -76 -38
c-88 -88 -141 -313 -141 -461c0 -113 37 -175 96 -175zM217 754l-16 4c16 36 34 58 58 58c16 0 29 -9 46 -23c18 -14 26 -21 37 -21c15 0 27 15 41 44l16 -4c-16 -36 -34 -58 -58 -58c-16 0 -29 9 -46 23c-18 14 -26 21 -37 21c-15 0 -27 -15 -41 -44z" />
    <glyph glyph-name="otilde" unicode="&#xf5;" horiz-adv-x="356" 
d="M224 528c66 0 108 -63 108 -170c0 -121 -43 -255 -110 -322c-28 -28 -58 -43 -90 -43c-66 0 -108 63 -108 170c0 121 43 255 110 322c28 28 58 43 90 43zM133 13c27 0 50 13 73 36c61 61 104 192 104 308c0 91 -31 151 -87 151c-27 0 -50 -13 -73 -36
c-61 -61 -104 -192 -104 -308c0 -91 31 -151 87 -151zM329 663l16 -4c-13 -36 -31 -67 -59 -67c-15 0 -26 10 -39 25c-17 18 -25 27 -36 27c-15 0 -29 -18 -42 -53l-16 4c13 36 31 67 59 67c17 0 28 -12 43 -29c16 -18 23 -23 32 -23c16 0 29 18 42 53z" />
    <glyph glyph-name="Racute" unicode="&#x154;" horiz-adv-x="365" 
d="M265 0l-87 297c-18 -3 -39 -5 -61 -5h-34l-56 -292h-22l136 700h55c63 0 107 -17 137 -47c29 -29 42 -69 42 -120c0 -64 -23 -128 -65 -170c-29 -29 -65 -51 -112 -62l89 -301h-22zM87 312h33c81 0 136 25 172 61c41 41 61 103 61 159c0 45 -11 81 -37 107
c-28 28 -64 41 -122 41h-35zM252 740l81 99l22 -12l-91 -87h-12z" />
    <glyph glyph-name="racute" unicode="&#x155;" horiz-adv-x="201" 
d="M2 0l101 521h21l-17 -90c27 55 74 97 137 95l-4 -22h-2c-64 0 -127 -54 -147 -154l-68 -350h-21zM158 576l90 118l22 -12l-100 -106h-12z" />
    <glyph glyph-name="Rcaron" unicode="&#x158;" horiz-adv-x="365" 
d="M265 0l-87 297c-18 -3 -39 -5 -61 -5h-34l-56 -292h-22l136 700h55c63 0 107 -17 137 -47c29 -29 42 -69 42 -120c0 -64 -23 -128 -65 -170c-29 -29 -65 -51 -112 -62l89 -301h-22zM87 312h33c81 0 136 25 172 61c41 41 61 103 61 159c0 45 -11 81 -37 107
c-28 28 -64 41 -122 41h-35zM356 842l-88 -97h-15l-50 97h14l47 -74l76 74h16z" />
    <glyph glyph-name="rcaron" unicode="&#x159;" horiz-adv-x="201" 
d="M2 0l101 521h21l-17 -90c27 55 74 97 137 95l-4 -22h-2c-64 0 -127 -54 -147 -154l-68 -350h-21zM165 581l-46 122h14l43 -98l80 98h16l-92 -122h-15z" />
    <glyph glyph-name="Rcommaaccent" unicode="&#x156;" horiz-adv-x="365" 
d="M265 0l-87 297c-18 -3 -39 -5 -61 -5h-34l-56 -292h-22l136 700h55c63 0 107 -17 137 -47c29 -29 42 -69 42 -120c0 -64 -23 -128 -65 -170c-29 -29 -65 -51 -112 -62l89 -301h-22zM87 312h33c81 0 136 25 172 61c41 41 61 103 61 159c0 45 -11 81 -37 107
c-28 28 -64 41 -122 41h-35zM63 -175l-5 13c22 12 28 18 32 47h-11l10 50h28l-11 -58c-6 -33 -20 -42 -43 -52z" />
    <glyph glyph-name="rcommaaccent" unicode="&#x157;" horiz-adv-x="201" 
d="M2 0l101 521h21l-17 -90c27 55 74 97 137 95l-4 -22h-2c-64 0 -127 -54 -147 -154l-68 -350h-21zM-38 -175l-5 13c22 12 28 18 32 47h-11l10 50h28l-11 -58c-6 -33 -20 -42 -43 -52z" />
    <glyph glyph-name="Sacute" unicode="&#x15a;" horiz-adv-x="312" 
d="M117 -7c-56 0 -101 28 -133 66l9 23c39 -49 83 -69 124 -69c76 0 120 62 120 141c0 71 -35 136 -73 207c-39 73 -71 134 -71 202c0 48 16 83 39 106c28 28 62 38 95 38c61 0 99 -36 116 -52l-8 -23c-23 25 -57 54 -108 55c-67 1 -112 -50 -112 -122
c0 -66 29 -119 69 -194c42 -78 75 -146 75 -215c0 -48 -13 -92 -45 -124c-20 -20 -52 -39 -97 -39zM237 745l81 99l22 -12l-91 -87h-12z" />
    <glyph glyph-name="sacute" unicode="&#x15b;" horiz-adv-x="266" 
d="M97 -5c-42 0 -84 19 -114 53l5 23c32 -37 73 -56 108 -56c61 0 95 46 95 101c0 39 -14 78 -60 142c-53 74 -71 115 -71 155c0 72 52 114 111 114c38 0 68 -14 95 -36l-5 -23c-23 21 -55 39 -90 39c-58 0 -89 -43 -89 -92c0 -33 12 -67 66 -144c44 -63 65 -109 65 -154
c0 -74 -52 -122 -116 -122zM165 581l90 118l22 -12l-100 -106h-12z" />
    <glyph glyph-name="Scaron" unicode="&#x160;" horiz-adv-x="312" 
d="M117 -7c-56 0 -101 28 -133 66l9 23c39 -49 83 -69 124 -69c76 0 120 62 120 141c0 71 -35 136 -73 207c-39 73 -71 134 -71 202c0 48 16 83 39 106c28 28 62 38 95 38c61 0 99 -36 116 -52l-8 -23c-23 25 -57 54 -108 55c-67 1 -112 -50 -112 -122
c0 -66 29 -119 69 -194c42 -78 75 -146 75 -215c0 -48 -13 -92 -45 -124c-20 -20 -52 -39 -97 -39zM341 847l-88 -97h-15l-50 97h14l47 -74l76 74h16z" />
    <glyph glyph-name="scaron" unicode="&#x161;" horiz-adv-x="266" 
d="M97 -5c-42 0 -84 19 -114 53l5 23c32 -37 73 -56 108 -56c61 0 95 46 95 101c0 39 -14 78 -60 142c-53 74 -71 115 -71 155c0 72 52 114 111 114c38 0 68 -14 95 -36l-5 -23c-23 21 -55 39 -90 39c-58 0 -89 -43 -89 -92c0 -33 12 -67 66 -144c44 -63 65 -109 65 -154
c0 -74 -52 -122 -116 -122zM171 586l-46 122h14l43 -98l80 98h16l-92 -122h-15z" />
    <glyph glyph-name="Scedilla" unicode="&#x15e;" horiz-adv-x="312" 
d="M51 -104l-21 10l66 89c-46 5 -84 30 -112 64l9 23c39 -49 83 -69 124 -69c76 0 120 62 120 141c0 71 -35 136 -73 207c-39 73 -71 134 -71 202c0 48 16 83 39 106c28 28 62 38 95 38c61 0 99 -36 116 -52l-8 -23c-23 25 -57 54 -108 55c-67 1 -112 -50 -112 -122
c0 -66 29 -119 69 -194c42 -78 75 -146 75 -215c0 -48 -13 -92 -45 -124c-20 -20 -52 -39 -97 -39h-7z" />
    <glyph glyph-name="scedilla" unicode="&#x15f;" horiz-adv-x="266" 
d="M25 -105l-21 10l69 92c-34 6 -66 23 -90 51l5 23c32 -37 73 -56 108 -56c61 0 95 46 95 101c0 39 -14 78 -60 142c-53 74 -71 115 -71 155c0 72 52 114 111 114c38 0 68 -14 95 -36l-5 -23c-23 21 -55 39 -90 39c-58 0 -89 -43 -89 -92c0 -33 12 -67 66 -144
c44 -63 65 -109 65 -154c0 -74 -52 -122 -116 -122c-4 0 -8 0 -11 1z" />
    <glyph glyph-name="Scommaaccent" unicode="&#x218;" horiz-adv-x="312" 
d="M117 -7c-56 0 -101 28 -133 66l9 23c39 -49 83 -69 124 -69c76 0 120 62 120 141c0 71 -35 136 -73 207c-39 73 -71 134 -71 202c0 48 16 83 39 106c28 28 62 38 95 38c61 0 99 -36 116 -52l-8 -23c-23 25 -57 54 -108 55c-67 1 -112 -50 -112 -122
c0 -66 29 -119 69 -194c42 -78 75 -146 75 -215c0 -48 -13 -92 -45 -124c-20 -20 -52 -39 -97 -39zM47 -175l-5 13c22 12 28 18 32 47h-11l10 50h28l-11 -58c-6 -33 -20 -42 -43 -52z" />
    <glyph glyph-name="scommaaccent" unicode="&#x219;" horiz-adv-x="266" 
d="M97 -5c-42 0 -84 19 -114 53l5 23c32 -37 73 -56 108 -56c61 0 95 46 95 101c0 39 -14 78 -60 142c-53 74 -71 115 -71 155c0 72 52 114 111 114c38 0 68 -14 95 -36l-5 -23c-23 21 -55 39 -90 39c-58 0 -89 -43 -89 -92c0 -33 12 -67 66 -144c44 -63 65 -109 65 -154
c0 -74 -52 -122 -116 -122zM11 -175l-5 13c22 12 28 18 32 47h-11l10 50h28l-11 -58c-6 -33 -20 -42 -43 -52z" />
    <glyph glyph-name="Tcaron" unicode="&#x164;" horiz-adv-x="274" 
d="M75 0l133 680h-119l4 20h260l-4 -20h-119l-133 -680h-22zM327 842l-88 -97h-15l-50 97h14l47 -74l76 74h16z" />
    <glyph glyph-name="tcaron" unicode="&#x165;" horiz-adv-x="201" 
d="M91 -4c-33 0 -60 20 -60 62c0 15 3 30 7 51l76 393h-50l4 19h50l29 152h22l-29 -152h88l-4 -19h-88l-76 -390c-4 -21 -7 -38 -7 -51c0 -33 19 -45 41 -45c17 0 32 5 41 9l-4 -20c-8 -5 -27 -9 -40 -9zM195 559l37 148h21v-2l-48 -146h-10z" />
    <glyph glyph-name="Tcommaaccent" unicode="&#x162;" horiz-adv-x="274" 
d="M75 0l133 680h-119l4 20h260l-4 -20h-119l-133 -680h-22zM34 -175l-5 13c22 12 28 18 32 47h-11l10 50h28l-11 -58c-6 -33 -20 -42 -43 -52z" />
    <glyph glyph-name="tcommaaccent" unicode="&#x163;" horiz-adv-x="201" 
d="M91 -4c-33 0 -60 20 -60 62c0 15 3 30 7 51l76 393h-50l4 19h50l29 152h22l-29 -152h88l-4 -19h-88l-76 -390c-4 -21 -7 -38 -7 -51c0 -33 19 -45 41 -45c17 0 32 5 41 9l-4 -20c-8 -5 -27 -9 -40 -9zM19 -175l-5 13c22 12 28 18 32 47h-11l10 50h28l-11 -58
c-6 -33 -20 -42 -43 -52z" />
    <glyph glyph-name="Thorn" unicode="&#xde;" horiz-adv-x="342" 
d="M5 0l136 700h22l-24 -122h37c56 0 94 -15 123 -44c30 -30 44 -71 44 -125c0 -79 -29 -149 -75 -195c-45 -45 -104 -68 -178 -68h-35l-28 -146h-22zM59 166h30c70 0 124 22 163 61c43 43 69 109 69 181c0 51 -13 87 -38 112c-26 26 -61 38 -109 38h-39z" />
    <glyph glyph-name="thorn" unicode="&#xfe;" horiz-adv-x="367" 
d="M160 707l-60 -311c20 45 68 132 141 132c66 0 102 -68 102 -168c0 -118 -45 -258 -113 -326c-25 -25 -54 -41 -85 -41c-77 0 -96 87 -96 140l-51 -263h-21l162 837h21zM144 13c26 0 50 14 71 35c63 63 106 201 106 313c0 86 -29 147 -83 147c-24 0 -46 -12 -67 -33
c-64 -64 -109 -193 -109 -316c0 -65 19 -146 82 -146z" />
    <glyph glyph-name="Uacute" unicode="&#xda;" horiz-adv-x="395" 
d="M158 -7c-71 0 -127 45 -127 128c0 30 4 51 13 98l93 481h22l-93 -482c-9 -47 -13 -66 -13 -96c0 -72 47 -109 109 -109c34 0 63 11 89 37c23 23 43 64 54 123l101 527h22l-103 -533c-12 -62 -32 -104 -59 -131c-30 -30 -65 -43 -108 -43zM278 735l81 99l22 -12l-91 -87
h-12z" />
    <glyph glyph-name="uacute" unicode="&#xfa;" horiz-adv-x="360" 
d="M119 -7c-41 0 -95 23 -95 106c0 22 4 55 17 120l59 302h21l-59 -300c-7 -36 -17 -88 -17 -119c0 -68 38 -89 78 -89c70 0 127 65 147 167l67 341h21l-101 -521h-21l17 91c-23 -50 -70 -98 -134 -98zM224 571l90 118l22 -12l-100 -106h-12z" />
    <glyph glyph-name="Ubreve" unicode="&#x16c;" horiz-adv-x="395" 
d="M158 -7c-71 0 -127 45 -127 128c0 30 4 51 13 98l93 481h22l-93 -482c-9 -47 -13 -66 -13 -96c0 -72 47 -109 109 -109c34 0 63 11 89 37c23 23 43 64 54 123l101 527h22l-103 -533c-12 -62 -32 -104 -59 -131c-30 -30 -65 -43 -108 -43zM286 738c-47 0 -83 25 -81 79h18
c-1 -36 19 -61 63 -61c46 0 74 25 87 61h18c-18 -54 -58 -79 -105 -79z" />
    <glyph glyph-name="ubreve" unicode="&#x16d;" horiz-adv-x="360" 
d="M119 -7c-41 0 -95 23 -95 106c0 22 4 55 17 120l59 302h21l-59 -300c-7 -36 -17 -88 -17 -119c0 -68 38 -89 78 -89c70 0 127 65 147 167l67 341h21l-101 -521h-21l17 91c-23 -50 -70 -98 -134 -98zM235 574c-54 0 -80 38 -77 94h18c-2 -38 11 -76 60 -76
c51 0 76 38 90 76h18c-19 -56 -55 -94 -109 -94z" />
    <glyph glyph-name="Ucircumflex" unicode="&#xdb;" horiz-adv-x="395" 
d="M158 -7c-71 0 -127 45 -127 128c0 30 4 51 13 98l93 481h22l-93 -482c-9 -47 -13 -66 -13 -96c0 -72 47 -109 109 -109c34 0 63 11 89 37c23 23 43 64 54 123l101 527h22l-103 -533c-12 -62 -32 -104 -59 -131c-30 -30 -65 -43 -108 -43zM209 740l88 97h15l50 -97h-14
l-48 74l-75 -74h-16z" />
    <glyph glyph-name="ucircumflex" unicode="&#xfb;" horiz-adv-x="360" 
d="M119 -7c-41 0 -95 23 -95 106c0 22 4 55 17 120l59 302h21l-59 -300c-7 -36 -17 -88 -17 -119c0 -68 38 -89 78 -89c70 0 127 65 147 167l67 341h21l-101 -521h-21l17 91c-23 -50 -70 -98 -134 -98zM159 576l92 122h15l46 -122h-14l-43 98l-80 -98h-16z" />
    <glyph glyph-name="Udieresis" unicode="&#xdc;" horiz-adv-x="395" 
d="M158 -7c-71 0 -127 45 -127 128c0 30 4 51 13 98l93 481h22l-93 -482c-9 -47 -13 -66 -13 -96c0 -72 47 -109 109 -109c34 0 63 11 89 37c23 23 43 64 54 123l101 527h22l-103 -533c-12 -62 -32 -104 -59 -131c-30 -30 -65 -43 -108 -43zM236 745l7 37h26l-7 -37h-26z
M314 745l7 37h26l-7 -37h-26z" />
    <glyph glyph-name="udieresis" unicode="&#xfc;" horiz-adv-x="360" 
d="M119 -7c-41 0 -95 23 -95 106c0 22 4 55 17 120l59 302h21l-59 -300c-7 -36 -17 -88 -17 -119c0 -68 38 -89 78 -89c70 0 127 65 147 167l67 341h21l-101 -521h-21l17 91c-23 -50 -70 -98 -134 -98zM186 581l7 37h26l-7 -37h-26zM264 581l7 37h26l-7 -37h-26z" />
    <glyph glyph-name="Ugrave" unicode="&#xd9;" horiz-adv-x="395" 
d="M158 -7c-71 0 -127 45 -127 128c0 30 4 51 13 98l93 481h22l-93 -482c-9 -47 -13 -66 -13 -96c0 -72 47 -109 109 -109c34 0 63 11 89 37c23 23 43 64 54 123l101 527h22l-103 -533c-12 -62 -32 -104 -59 -131c-30 -30 -65 -43 -108 -43zM277 735l-67 88l21 11l57 -99
h-11z" />
    <glyph glyph-name="ugrave" unicode="&#xf9;" horiz-adv-x="360" 
d="M119 -7c-41 0 -95 23 -95 106c0 22 4 55 17 120l59 302h21l-59 -300c-7 -36 -17 -88 -17 -119c0 -68 38 -89 78 -89c70 0 127 65 147 167l67 341h21l-101 -521h-21l17 91c-23 -50 -70 -98 -134 -98zM228 571l-76 107l21 11l66 -118h-11z" />
    <glyph glyph-name="Uhungarumlaut" unicode="&#x170;" horiz-adv-x="395" 
d="M158 -7c-71 0 -127 45 -127 128c0 30 4 51 13 98l93 481h22l-93 -482c-9 -47 -13 -66 -13 -96c0 -72 47 -109 109 -109c34 0 63 11 89 37c23 23 43 64 54 123l101 527h22l-103 -533c-12 -62 -32 -104 -59 -131c-30 -30 -65 -43 -108 -43zM242 735l81 100l22 -13l-91 -87
h-12zM311 735l78 100l22 -13l-88 -87h-12z" />
    <glyph glyph-name="uhungarumlaut" unicode="&#x171;" horiz-adv-x="360" 
d="M119 -7c-41 0 -95 23 -95 106c0 22 4 55 17 120l59 302h21l-59 -300c-7 -36 -17 -88 -17 -119c0 -68 38 -89 78 -89c70 0 127 65 147 167l67 341h21l-101 -521h-21l17 91c-23 -50 -70 -98 -134 -98zM188 571l89 119l22 -13l-99 -106h-12zM262 571l89 119l22 -13l-99 -106
h-12z" />
    <glyph glyph-name="Umacron" unicode="&#x16a;" horiz-adv-x="395" 
d="M158 -7c-71 0 -127 45 -127 128c0 30 4 51 13 98l93 481h22l-93 -482c-9 -47 -13 -66 -13 -96c0 -72 47 -109 109 -109c34 0 63 11 89 37c23 23 43 64 54 123l101 527h22l-103 -533c-12 -62 -32 -104 -59 -131c-30 -30 -65 -43 -108 -43zM208 747l4 18h160l-4 -18h-160z
" />
    <glyph glyph-name="umacron" unicode="&#x16b;" horiz-adv-x="360" 
d="M119 -7c-41 0 -95 23 -95 106c0 22 4 55 17 120l59 302h21l-59 -300c-7 -36 -17 -88 -17 -119c0 -68 38 -89 78 -89c70 0 127 65 147 167l67 341h21l-101 -521h-21l17 91c-23 -50 -70 -98 -134 -98zM158 583l4 18h160l-4 -18h-160z" />
    <glyph glyph-name="Uogonek" unicode="&#x172;" horiz-adv-x="395" 
d="M155 -93l-3 -15c-8 -1 -12 -1 -14 -1c-33 0 -46 17 -46 36c0 22 13 40 44 68c-60 7 -105 51 -105 126c0 30 4 51 13 98l93 481h22l-93 -482c-9 -47 -13 -66 -13 -96c0 -72 47 -109 109 -109c34 0 63 11 89 37c23 23 43 64 54 123l101 527h22l-103 -533
c-12 -62 -32 -104 -59 -131c-30 -30 -65 -43 -108 -43h-8c-33 -33 -38 -49 -38 -62s8 -26 43 -24z" />
    <glyph glyph-name="uogonek" unicode="&#x173;" horiz-adv-x="360" 
d="M250 -93l-3 -15c-8 -1 -12 -1 -14 -1c-33 0 -46 17 -46 36c0 23 15 43 51 73h-2l17 91c-23 -50 -70 -98 -134 -98c-41 0 -95 23 -95 106c0 22 4 55 17 120l59 302h21l-59 -300c-7 -36 -17 -88 -17 -119c0 -68 38 -89 78 -89c70 0 127 65 147 167l67 341h21l-101 -521h-4
c-39 -38 -46 -55 -46 -69c0 -13 8 -26 43 -24z" />
    <glyph glyph-name="Uring" unicode="&#x16e;" horiz-adv-x="395" 
d="M158 -7c-71 0 -127 45 -127 128c0 30 4 51 13 98l93 481h22l-93 -482c-9 -47 -13 -66 -13 -96c0 -72 47 -109 109 -109c34 0 63 11 89 37c23 23 43 64 54 123l101 527h22l-103 -533c-12 -62 -32 -104 -59 -131c-30 -30 -65 -43 -108 -43zM302 868c40 0 66 -28 66 -63
c0 -41 -34 -73 -76 -73c-40 0 -66 28 -66 63c0 41 34 73 76 73zM293 746c35 0 60 27 60 58c0 29 -21 50 -52 50c-35 0 -60 -27 -60 -58c0 -29 21 -50 52 -50z" />
    <glyph glyph-name="uring" unicode="&#x16f;" horiz-adv-x="360" 
d="M119 -7c-41 0 -95 23 -95 106c0 22 4 55 17 120l59 302h21l-59 -300c-7 -36 -17 -88 -17 -119c0 -68 38 -89 78 -89c70 0 127 65 147 167l67 341h21l-101 -521h-21l17 91c-23 -50 -70 -98 -134 -98zM321 657c0 -43 -32 -76 -73 -76c-39 0 -65 29 -65 66c0 43 32 76 73 76
c39 0 65 -29 65 -66zM197 648c0 -31 20 -54 51 -54c35 0 59 29 59 62c0 31 -20 54 -51 54c-35 0 -59 -29 -59 -62z" />
    <glyph glyph-name="Wacute" unicode="&#x1e82;" horiz-adv-x="596" 
d="M100 -5l15 705h22l-17 -652l252 652h19l-1 -653l236 653h25l-259 -705h-21v647l-250 -647h-21zM379 740l81 99l22 -12l-91 -87h-12z" />
    <glyph glyph-name="wacute" unicode="&#x1e83;" horiz-adv-x="492" 
d="M79 -3l-7 524h20l4 -476l191 476h16l8 -476l186 476h23l-209 -524h-17l-10 465l-187 -465h-18zM289 576l90 118l22 -12l-100 -106h-12z" />
    <glyph glyph-name="Wcircumflex" unicode="&#x174;" horiz-adv-x="596" 
d="M100 -5l15 705h22l-17 -652l252 652h19l-1 -653l236 653h25l-259 -705h-21v647l-250 -647h-21zM310 745l88 97h15l50 -97h-14l-48 74l-75 -74h-16z" />
    <glyph glyph-name="wcircumflex" unicode="&#x175;" horiz-adv-x="492" 
d="M79 -3l-7 524h20l4 -476l191 476h16l8 -476l186 476h23l-209 -524h-17l-10 465l-187 -465h-18zM224 581l92 122h15l46 -122h-14l-43 98l-80 -98h-16z" />
    <glyph glyph-name="Wdieresis" unicode="&#x1e84;" horiz-adv-x="596" 
d="M100 -5l15 705h22l-17 -652l252 652h19l-1 -653l236 653h25l-259 -705h-21v647l-250 -647h-21zM337 750l7 37h26l-7 -37h-26zM415 750l7 37h26l-7 -37h-26z" />
    <glyph glyph-name="wdieresis" unicode="&#x1e85;" horiz-adv-x="492" 
d="M79 -3l-7 524h20l4 -476l191 476h16l8 -476l186 476h23l-209 -524h-17l-10 465l-187 -465h-18zM252 586l7 37h26l-7 -37h-26zM330 586l7 37h26l-7 -37h-26z" />
    <glyph glyph-name="Wgrave" unicode="&#x1e80;" horiz-adv-x="596" 
d="M100 -5l15 705h22l-17 -652l252 652h19l-1 -653l236 653h25l-259 -705h-21v647l-250 -647h-21zM378 740l-67 88l21 11l57 -99h-11z" />
    <glyph glyph-name="wgrave" unicode="&#x1e81;" horiz-adv-x="492" 
d="M79 -3l-7 524h20l4 -476l191 476h16l8 -476l186 476h23l-209 -524h-17l-10 465l-187 -465h-18zM293 576l-76 107l21 11l66 -118h-11z" />
    <glyph glyph-name="Yacute" unicode="&#xdd;" horiz-adv-x="330" 
d="M103 0l59 302l-68 398h23l61 -367l205 367h25l-224 -398l-59 -302h-22zM242 735l81 99l22 -12l-91 -87h-12z" />
    <glyph glyph-name="yacute" unicode="&#xfd;" horiz-adv-x="323" 
d="M103 14l-32 507h20l28 -472l213 472h22l-295 -651h-22zM201 571l90 118l22 -12l-100 -106h-12z" />
    <glyph glyph-name="Ycircumflex" unicode="&#x176;" horiz-adv-x="330" 
d="M103 0l59 302l-68 398h23l61 -367l205 367h25l-224 -398l-59 -302h-22zM173 740l88 97h15l50 -97h-14l-48 74l-75 -74h-16z" />
    <glyph glyph-name="ycircumflex" unicode="&#x177;" horiz-adv-x="323" 
d="M103 14l-32 507h20l28 -472l213 472h22l-295 -651h-22zM136 576l92 122h15l46 -122h-14l-43 98l-80 -98h-16z" />
    <glyph glyph-name="Ydieresis" unicode="&#x178;" horiz-adv-x="330" 
d="M103 0l59 302l-68 398h23l61 -367l205 367h25l-224 -398l-59 -302h-22zM200 745l7 37h26l-7 -37h-26zM278 745l7 37h26l-7 -37h-26z" />
    <glyph glyph-name="ydieresis" unicode="&#xff;" horiz-adv-x="323" 
d="M103 14l-32 507h20l28 -472l213 472h22l-295 -651h-22zM242 581l7 37h26l-7 -37h-26zM164 581l7 37h26l-7 -37h-26z" />
    <glyph glyph-name="Ygrave" unicode="&#x1ef2;" horiz-adv-x="330" 
d="M103 0l59 302l-68 398h23l61 -367l205 367h25l-224 -398l-59 -302h-22zM241 735l-67 88l21 11l57 -99h-11z" />
    <glyph glyph-name="ygrave" unicode="&#x1ef3;" horiz-adv-x="323" 
d="M103 14l-32 507h20l28 -472l213 472h22l-295 -651h-22zM205 571l-76 107l21 11l66 -118h-11z" />
    <glyph glyph-name="Zacute" unicode="&#x179;" horiz-adv-x="308" 
d="M-23 0l4 19l353 661h-222l4 20h247l-4 -19l-353 -661h232l-4 -20h-257zM228 740l81 99l22 -12l-91 -87h-12z" />
    <glyph glyph-name="zacute" unicode="&#x17a;" horiz-adv-x="270" 
d="M-23 0l2 14l284 488h-188l4 19h213l-2 -14l-285 -488h198l-4 -19h-222zM174 576l90 118l22 -12l-100 -106h-12z" />
    <glyph glyph-name="Zcaron" unicode="&#x17d;" horiz-adv-x="308" 
d="M-23 0l4 19l353 661h-222l4 20h247l-4 -19l-353 -661h232l-4 -20h-257zM332 842l-88 -97h-15l-50 97h14l47 -74l76 74h16z" />
    <glyph glyph-name="zcaron" unicode="&#x17e;" horiz-adv-x="270" 
d="M-23 0l2 14l284 488h-188l4 19h213l-2 -14l-285 -488h198l-4 -19h-222zM180 581l-46 122h14l43 -98l80 98h16l-92 -122h-15z" />
    <glyph glyph-name="Zdotaccent" unicode="&#x17b;" horiz-adv-x="308" 
d="M-23 0l4 19l353 661h-222l4 20h247l-4 -19l-353 -661h232l-4 -20h-257zM225 750l7 37h26l-7 -37h-26z" />
    <glyph glyph-name="zdotaccent" unicode="&#x17c;" horiz-adv-x="270" 
d="M-23 0l2 14l284 488h-188l4 19h213l-2 -14l-285 -488h198l-4 -19h-222zM176 586l7 37h26l-7 -37h-26z" />
    <glyph glyph-name="schwa" unicode="&#x259;" horiz-adv-x="335" 
d="M19 148c0 40 6 83 14 120h249c4 29 7 58 6 86c-3 102 -50 154 -114 154c-25 0 -54 -5 -87 -26l1 22c21 13 54 24 87 24c76 0 130 -56 134 -174c4 -119 -42 -252 -108 -318c-27 -27 -57 -43 -88 -43c-60 0 -94 55 -94 155zM185 48c42 42 77 119 93 200h-227
c-7 -34 -10 -70 -10 -99c0 -83 23 -136 73 -136c25 0 49 13 71 35z" />
    <glyph glyph-name="germandbls" unicode="&#xdf;" horiz-adv-x="343" 
d="M92 -2l3 18c124 -3 187 76 187 184c0 78 -43 130 -121 154l3 16c109 21 169 98 169 209c0 66 -31 108 -86 108c-60 0 -100 -48 -120 -151l-104 -536h-20l105 541c12 64 31 106 57 132c23 23 51 34 82 34c69 0 108 -50 108 -129c0 -91 -46 -189 -161 -218
c51 -19 110 -65 110 -160c0 -115 -72 -209 -212 -202z" />
    <glyph glyph-name="zero" unicode="0" horiz-adv-x="360" 
d="M264 707c62 0 96 -53 96 -164c0 -125 -48 -411 -150 -513c-25 -25 -50 -37 -79 -37c-62 0 -96 53 -96 164c0 125 48 411 150 513c25 25 50 37 79 37zM133 13c22 0 42 11 61 30c90 90 144 368 144 501c0 94 -25 143 -76 143c-22 0 -42 -11 -61 -30
c-90 -90 -144 -368 -144 -501c0 -94 25 -143 76 -143z" />
    <glyph glyph-name="one" unicode="1" horiz-adv-x="177" 
d="M38 0l131 671l-81 -41l4 25l87 45h17l-136 -700h-22z" />
    <glyph glyph-name="two" unicode="2" horiz-adv-x="299" 
d="M-28 0l3 16l217 328c81 120 102 173 102 236c0 69 -41 104 -96 104c-37 0 -69 -15 -96 -33l5 25c27 16 56 28 92 28c71 0 117 -48 117 -124c0 -84 -44 -153 -113 -257l-200 -303h225l-4 -20h-252z" />
    <glyph glyph-name="three" unicode="3" horiz-adv-x="289" 
d="M63 -4c-29 0 -64 8 -95 27l4 23c27 -17 56 -29 92 -29c103 0 161 103 161 194c0 80 -39 131 -120 156l3 14l202 300h-214l4 19h238l-4 -18l-204 -302c65 -26 117 -75 117 -169c0 -60 -23 -123 -66 -166c-31 -31 -71 -49 -118 -49z" />
    <glyph glyph-name="three.alt" horiz-adv-x="288" 
d="M69 -4c-40 0 -74 14 -102 35l4 21c21 -18 59 -36 99 -36c103 0 150 100 150 182c0 98 -67 148 -130 157l4 18c109 1 192 80 192 191c0 65 -34 121 -107 121c-29 0 -54 -8 -78 -22l4 21c13 10 43 21 76 21c86 0 127 -65 127 -141c0 -97 -60 -180 -167 -205
c69 -33 101 -91 101 -161c0 -103 -64 -202 -173 -202z" />
    <glyph glyph-name="four" unicode="4" horiz-adv-x="323" 
d="M178 0l33 169h-209l3 16l308 520h22l-100 -516h55l-4 -20h-55l-33 -169h-20zM28 189h187l92 469z" />
    <glyph glyph-name="five" unicode="5" horiz-adv-x="304" 
d="M84 -5c-27 0 -63 9 -88 28l5 22c18 -14 45 -30 84 -30c93 0 165 112 165 241c0 101 -51 134 -106 134c-27 0 -51 -7 -63 -12l-13 12l74 310h190l-4 -20h-171l-66 -278c15 4 36 8 55 8c71 0 128 -45 126 -160c-1 -78 -30 -158 -79 -207c-30 -30 -66 -48 -109 -48z" />
    <glyph glyph-name="six" unicode="6" horiz-adv-x="337" 
d="M136 -7c-27 0 -47 10 -62 25c-31 31 -40 86 -40 149c0 112 40 388 147 495c37 37 73 45 101 45c33 0 58 -13 75 -24l-4 -23c-18 13 -40 26 -72 26c-31 0 -58 -12 -82 -36c-46 -46 -87 -131 -117 -270c36 27 79 47 117 47c57 0 109 -41 109 -139c0 -75 -28 -197 -89 -258
c-23 -23 -51 -37 -83 -37zM138 13c24 0 46 11 66 31c53 53 81 169 81 241c0 92 -44 122 -90 122c-38 0 -86 -27 -118 -52l-7 -38c-7 -37 -15 -114 -14 -162c1 -46 7 -95 34 -122c12 -12 27 -20 48 -20z" />
    <glyph glyph-name="seven" unicode="7" horiz-adv-x="276" 
d="M11 0l294 680h-204l4 20h227l-5 -21l-293 -679h-23z" />
    <glyph glyph-name="eight" unicode="8" horiz-adv-x="318" 
d="M130 -7c-83 0 -123 66 -123 154c0 86 46 202 139 220c-40 28 -57 79 -57 138c0 85 45 202 144 202c57 0 107 -41 107 -135c0 -86 -41 -193 -123 -215c46 -32 67 -84 67 -151c0 -83 -45 -213 -154 -213zM132 13c91 0 131 113 131 203c0 69 -34 136 -97 136
c-87 0 -138 -111 -138 -204c0 -68 27 -135 104 -135zM195 371c73 0 125 106 125 199c0 81 -39 117 -88 118c-83 1 -123 -105 -123 -190c0 -51 20 -127 86 -127z" />
    <glyph glyph-name="nine" unicode="9" horiz-adv-x="329" 
d="M85 -7c-33 0 -59 13 -79 27l4 23c21 -16 44 -29 76 -29c31 0 58 12 82 36c46 46 86 125 116 264c-36 -27 -79 -47 -117 -47c-57 0 -108 42 -108 142c0 78 28 200 89 261c23 23 51 37 83 37c27 0 47 -10 62 -25c31 -31 40 -86 40 -149c0 -112 -40 -388 -147 -495
c-37 -37 -73 -45 -101 -45zM171 287c38 0 86 27 118 52l8 44c7 37 15 114 14 162c-1 46 -7 95 -34 122c-12 12 -27 20 -48 20c-24 0 -46 -11 -66 -31c-53 -53 -81 -169 -81 -244c0 -94 43 -125 89 -125z" />
    <glyph glyph-name="period" unicode="." horiz-adv-x="88" 
d="M-21 0l10 50h28l-10 -50h-28z" />
    <glyph glyph-name="comma" unicode="," horiz-adv-x="85" 
d="M-40 -60l-5 13c22 12 28 18 32 47h-11l10 50h28l-11 -58c-6 -33 -20 -42 -43 -52z" />
    <glyph glyph-name="colon" unicode=":" horiz-adv-x="96" 
d="M-17 0l10 50h27l-10 -50h-27zM69 443l10 50h28l-10 -50h-28z" />
    <glyph glyph-name="semicolon" unicode=";" horiz-adv-x="89" 
d="M-40 -60l-5 13c22 12 28 18 32 47h-11l10 50h28l-11 -58c-6 -33 -20 -42 -43 -52zM62 443l10 50h28l-10 -50h-28z" />
    <glyph glyph-name="ellipsis" unicode="&#x2026;" horiz-adv-x="318" 
d="M-21 0l10 50h28l-10 -50h-28zM94 0l10 50h28l-10 -50h-28zM209 0l10 50h28l-10 -50h-28z" />
    <glyph glyph-name="periodcentered" unicode="&#xb7;" horiz-adv-x="92" 
d="M31 255l10 50h28l-10 -50h-28z" />
    <glyph glyph-name="bullet" unicode="&#x2022;" horiz-adv-x="295" 
d="M172 446c37 0 58 -24 58 -61c0 -32 -8 -77 -33 -102c-12 -12 -29 -20 -50 -20c-37 0 -58 24 -58 61c0 32 8 77 33 102c12 12 29 20 50 20z" />
    <glyph glyph-name="ampersand" unicode="&#x26;" horiz-adv-x="392" 
d="M351 323l20 -6c-18 -56 -45 -133 -83 -198l43 -116l-20 -10l-37 102c-38 -58 -87 -102 -147 -102c-77 0 -120 68 -120 148c0 118 65 193 158 255c-25 70 -35 127 -35 164c0 84 48 147 117 147c62 0 98 -51 98 -109c0 -84 -57 -145 -154 -209l89 -246c33 62 57 133 71 180
zM127 13c55 0 102 46 138 106l-93 258c-101 -67 -143 -144 -143 -230c0 -79 37 -134 98 -134zM152 560c0 -35 8 -84 32 -152c75 50 139 104 139 188c0 53 -30 92 -76 92c-60 0 -95 -58 -95 -128z" />
    <glyph glyph-name="exclam" unicode="!" horiz-adv-x="132" 
d="M46 183l81 447l14 70h22l-14 -70l-93 -447h-10zM2 0l10 50h27l-10 -50h-27z" />
    <glyph glyph-name="exclamdown" unicode="&#xa1;" horiz-adv-x="132" 
d="M121 517l-81 -447l-14 -70h-22l14 70l93 447h10zM165 700l-10 -50h-27l10 50h27z" />
    <glyph glyph-name="question" unicode="?" horiz-adv-x="286" 
d="M95 183l28 173l4 6c98 32 167 100 167 199c0 87 -54 122 -111 122c-28 0 -59 -8 -90 -27l4 24c24 15 55 24 86 24c78 0 133 -53 133 -142c0 -100 -63 -175 -172 -215l-39 -164h-10zM53 0l10 50h28l-10 -50h-28z" />
    <glyph glyph-name="questiondown" unicode="&#xbf;" horiz-adv-x="286" 
d="M225 517l-28 -173l-4 -6c-98 -32 -167 -100 -167 -199c0 -87 54 -122 111 -122c28 0 59 8 90 27l-4 -24c-24 -15 -55 -24 -86 -24c-78 0 -133 53 -133 142c0 100 63 175 172 215l39 164h10zM267 700l-10 -50h-28l10 50h28z" />
    <glyph glyph-name="quotedblleft" unicode="&#x201c;" horiz-adv-x="167" 
d="M94 591l11 58c6 33 20 42 43 52l5 -13c-22 -12 -28 -18 -32 -47h11l-10 -50h-28zM176 591l11 58c6 33 20 42 43 52l5 -13c-22 -12 -28 -18 -32 -47h11l-10 -50h-28z" />
    <glyph glyph-name="quotedblright" unicode="&#x201d;" horiz-adv-x="167" 
d="M87 590l-5 13c22 12 28 18 32 47h-11l10 50h28l-11 -58c-6 -33 -20 -42 -43 -52zM169 590l-5 13c22 12 28 18 32 47h-11l10 50h28l-11 -58c-6 -33 -20 -42 -43 -52z" />
    <glyph glyph-name="quoteleft" unicode="&#x2018;" horiz-adv-x="85" 
d="M94 591l11 58c6 33 20 42 43 52l5 -13c-22 -12 -28 -18 -32 -47h11l-10 -50h-28z" />
    <glyph glyph-name="quoteright" unicode="&#x2019;" horiz-adv-x="85" 
d="M87 590l-5 13c22 12 28 18 32 47h-11l10 50h28l-11 -58c-6 -33 -20 -42 -43 -52z" />
    <glyph glyph-name="quotedblbase" unicode="&#x201e;" horiz-adv-x="167" 
d="M-40 -60l-5 13c22 12 28 18 32 47h-11l10 50h28l-11 -58c-6 -33 -20 -42 -43 -52zM42 -60l-5 13c22 12 28 18 32 47h-11l10 50h28l-11 -58c-6 -33 -20 -42 -43 -52z" />
    <glyph glyph-name="quotesinglbase" unicode="&#x201a;" horiz-adv-x="85" 
d="M-40 -60l-5 13c22 12 28 18 32 47h-11l10 50h28l-11 -58c-6 -33 -20 -42 -43 -52z" />
    <glyph glyph-name="guillemotleft" unicode="&#xab;" horiz-adv-x="301" 
d="M89 46l-73 207l1 4l153 208l15 -12l-147 -201l69 -199zM209 46l-73 207l1 4l153 208l15 -12l-147 -201l69 -199z" />
    <glyph glyph-name="guillemotright" unicode="&#xbb;" horiz-adv-x="301" 
d="M209 465l73 -207l-1 -4l-153 -208l-15 12l147 201l-69 199zM89 465l73 -207l-1 -4l-153 -208l-15 12l147 201l-69 199z" />
    <glyph glyph-name="guilsinglleft" unicode="&#x2039;" horiz-adv-x="181" 
d="M89 46l-73 207l1 4l153 208l15 -12l-147 -201l69 -199z" />
    <glyph glyph-name="guilsinglright" unicode="&#x203a;" horiz-adv-x="181" 
d="M89 465l73 -207l-1 -4l-153 -208l-15 12l147 201l-69 199z" />
    <glyph glyph-name="hyphen" unicode="-" horiz-adv-x="242" 
d="M42 285l3 20h168l-3 -20h-168z" />
    <glyph glyph-name="endash" unicode="&#x2013;" horiz-adv-x="382" 
d="M42 286l3 20h308l-3 -20h-308z" />
    <glyph glyph-name="emdash" unicode="&#x2014;" horiz-adv-x="562" 
d="M42 286l3 20h488l-3 -20h-488z" />
    <glyph glyph-name="underscore" unicode="_" horiz-adv-x="442" 
d="M-82 -148l3 15h445l-3 -15h-445z" />
    <glyph glyph-name="slash" unicode="/" horiz-adv-x="242" 
d="M-75 -98l386 866h22l-386 -866h-22z" />
    <glyph glyph-name="backslash" unicode="\" horiz-adv-x="242" 
d="M156 -98l-49 866h19l49 -866h-19z" />
    <glyph glyph-name="bar" unicode="|" horiz-adv-x="199" 
d="M20 -98l169 866h19l-169 -866h-19z" />
    <glyph glyph-name="parenleft" unicode="(" horiz-adv-x="214" 
d="M126 -121c-63 73 -98 180 -98 306c0 193 74 350 176 452c25 25 53 47 82 65l-4 -23c-21 -14 -42 -32 -61 -51c-97 -97 -172 -251 -172 -443c0 -116 29 -213 81 -282z" />
    <glyph glyph-name="parenright" unicode=")" horiz-adv-x="214" 
d="M101 702c63 -73 98 -180 98 -306c0 -193 -74 -350 -176 -452c-25 -25 -53 -47 -82 -65l4 23c21 14 42 32 61 51c97 97 172 251 172 443c0 116 -29 213 -81 282z" />
    <glyph glyph-name="bracketleft" unicode="[" horiz-adv-x="232" 
d="M3 -130l160 830h118l-3 -17h-97l-155 -796h97l-3 -17h-117z" />
    <glyph glyph-name="bracketright" unicode="]" horiz-adv-x="232" 
d="M238 700l-160 -830h-118l3 17h97l155 796h-97l3 17h117z" />
    <glyph glyph-name="braceleft" unicode="{" horiz-adv-x="245" 
d="M146 -135c-75 19 -101 60 -101 109c0 44 21 81 43 122s38 78 38 113c0 41 -34 71 -86 71h-7l3 18h5c43 0 75 15 95 35c40 40 43 83 33 165c-9 75 -13 139 28 180c24 24 63 37 114 37l-3 -17c-40 0 -73 -10 -95 -32c-28 -28 -33 -76 -26 -134c11 -93 18 -155 -31 -204
c-19 -19 -46 -33 -80 -40c40 -13 71 -39 71 -84c0 -34 -20 -77 -36 -108c-24 -47 -45 -82 -45 -122c0 -45 24 -75 83 -93z" />
    <glyph glyph-name="braceright" unicode="}" horiz-adv-x="245" 
d="M117 715c75 -19 101 -60 101 -109c0 -44 -21 -81 -43 -122s-38 -78 -38 -113c0 -41 34 -71 86 -71h7l-3 -18h-5c-43 0 -75 -15 -95 -35c-40 -40 -43 -83 -33 -165c9 -75 13 -139 -28 -180c-24 -24 -63 -37 -114 -37l3 17c40 0 73 10 95 32c28 28 33 76 26 134
c-11 93 -18 155 31 204c19 19 46 33 80 40c-40 13 -71 39 -71 84c0 34 20 77 36 108c24 47 45 82 45 122c0 45 -24 75 -83 93z" />
    <glyph glyph-name="at" unicode="@" horiz-adv-x="625" 
d="M259 -133c-137 0 -230 94 -230 290c0 278 155 551 365 551c141 0 211 -110 211 -266c0 -161 -73 -369 -175 -369c-49 0 -74 45 -61 108c-28 -51 -73 -111 -128 -111c-51 0 -76 43 -76 110c0 142 93 328 186 328c50 0 73 -49 76 -106l25 89l20 -4l-74 -261
c-7 -24 -13 -55 -13 -76c0 -29 12 -58 48 -58c85 0 154 208 154 347c0 144 -61 252 -193 252c-206 0 -346 -289 -346 -531c0 -184 86 -276 212 -276c63 0 117 22 166 51l9 -15c-56 -32 -113 -53 -176 -53zM244 92c85 0 167 178 167 295c0 43 -18 102 -61 102
c-78 0 -164 -180 -164 -307c0 -55 18 -90 58 -90z" />
    <glyph glyph-name="copyright" unicode="&#xa9;" horiz-adv-x="513" 
d="M251 152c-45 0 -72 39 -72 122c0 79 29 194 81 246c21 21 41 28 60 28c20 0 36 -9 48 -20l-4 -20c-15 15 -30 22 -45 22s-29 -6 -45 -22c-45 -46 -75 -152 -75 -234c0 -69 18 -104 56 -104c17 0 34 9 48 19l-3 -20c-11 -8 -28 -17 -49 -17zM521 450
c0 -127 -41 -294 -135 -388c-44 -44 -96 -72 -158 -72c-137 0 -200 114 -200 261c0 127 41 294 135 388c44 44 96 72 158 72c137 0 200 -114 200 -261zM45 247c0 -123 53 -241 184 -241c55 0 104 27 142 65c96 96 133 269 133 383c0 123 -53 241 -184 241
c-55 0 -104 -27 -142 -65c-96 -96 -133 -269 -133 -383z" />
    <glyph glyph-name="published" unicode="&#x2117;" horiz-adv-x="513" 
d="M251 550h32c67 0 102 -39 102 -103c0 -69 -42 -147 -140 -147h-22l-27 -136h-20zM365 446c0 56 -29 86 -82 86h-15l-42 -214h21c78 0 118 60 118 128zM323 711c138 0 198 -115 198 -257c0 -131 -45 -298 -139 -392c-44 -44 -96 -72 -156 -72c-138 0 -198 115 -198 257
c0 131 45 298 139 392c44 44 96 72 156 72zM225 6c55 0 104 27 142 65c96 96 137 269 137 387c0 117 -51 237 -180 237c-55 0 -104 -27 -142 -65c-96 -96 -137 -269 -137 -387c0 -117 51 -237 180 -237z" />
    <glyph glyph-name="registered.alt" horiz-adv-x="513" 
d="M323 711c138 0 198 -115 198 -257c0 -131 -45 -298 -139 -392c-44 -44 -96 -72 -156 -72c-138 0 -198 115 -198 257c0 131 45 298 139 392c44 44 96 72 156 72zM225 6c55 0 104 27 142 65c96 96 137 269 137 387c0 117 -51 237 -180 237c-55 0 -104 -27 -142 -65
c-96 -96 -137 -269 -137 -387c0 -117 51 -237 180 -237zM218 319l-30 -155h-20l75 385h32c33 0 62 -9 81 -28c16 -16 26 -40 26 -71s-10 -67 -37 -94c-12 -12 -27 -22 -47 -29l35 -163h-20l-35 158c-11 -2 -23 -3 -60 -3zM222 337h15c57 0 80 17 93 30c25 25 32 56 32 84
c0 24 -7 43 -21 57s-36 22 -64 22h-18z" />
    <glyph glyph-name="registered" unicode="&#xae;" horiz-adv-x="303" 
d="M230 717c72 0 104 -58 104 -129c0 -66 -23 -148 -72 -197c-22 -22 -51 -36 -82 -36c-72 0 -104 58 -104 129c0 66 23 148 72 197c22 22 51 36 82 36zM181 365c27 0 53 12 73 32c50 50 70 134 70 192c0 59 -27 118 -95 118c-27 0 -53 -12 -73 -32
c-50 -50 -70 -134 -70 -192c0 -59 27 -118 95 -118zM177 521l-15 -77h-11l37 191h20c33 0 55 -16 55 -50c0 -21 -9 -50 -44 -61l19 -80h-11l-19 78c-11 -1 -21 -1 -31 -1zM179 531h10c30 0 41 8 49 16c11 11 14 27 14 37c0 29 -17 41 -46 41h-9z" />
    <glyph glyph-name="servicemark" unicode="&#x2120;" horiz-adv-x="383" 
d="M120 382c-28 0 -48 13 -63 30l6 17c18 -25 39 -33 56 -33c35 0 52 29 52 63c0 25 -14 55 -33 86c-18 31 -34 59 -34 89c0 19 6 38 19 51c10 10 25 18 45 18c28 0 46 -14 56 -24l-6 -17c-12 15 -30 27 -51 27c-32 0 -47 -28 -47 -53c0 -28 14 -50 33 -83
c19 -34 34 -64 34 -94c0 -23 -6 -43 -22 -59c-11 -11 -27 -18 -45 -18zM212 385l61 315h16l28 -191l95 191h20l-61 -315h-15l54 279l-98 -192h-4l-27 191l-54 -278h-15z" />
    <glyph glyph-name="trademark" unicode="&#x2122;" horiz-adv-x="354" 
d="M78 385l58 301h-50l3 14h116l-3 -14h-51l-58 -301h-15zM183 385l61 315h16l28 -191l95 191h20l-61 -315h-15l54 279l-98 -192h-4l-27 191l-54 -278h-15z" />
    <glyph glyph-name="asterisk" unicode="*" horiz-adv-x="260" 
d="M175 431l-22 5l30 121l-94 -41l-9 21l98 32l-79 68l15 17l73 -75l18 123l22 -5l-30 -120l96 42l8 -22l-99 -32l79 -67l-16 -16l-72 73z" />
    <glyph glyph-name="dagger" unicode="&#x2020;" horiz-adv-x="238" 
d="M104 238l61 295l-83 -5l4 23l81 -5l24 154h26l-36 -154l83 5l-4 -23l-81 5l-52 -295h-23z" />
    <glyph glyph-name="daggerdbl" unicode="&#x2021;" horiz-adv-x="238" 
d="M54 0l36 154l-82 -5l5 23l80 -5l31 183l40 183l-83 -5l5 23l81 -5l24 154h26l-36 -154l83 5l-5 -23l-81 5l-29 -183l-42 -183l83 5l-5 -23l-81 5l-24 -154h-26z" />
    <glyph glyph-name="dollar" unicode="$" horiz-adv-x="323" 
d="M248 768h19l-13 -65c41 -5 72 -24 92 -41l-4 -23c-23 20 -52 41 -92 46l-60 -312c81 -80 88 -133 88 -188c0 -87 -50 -189 -162 -191l-18 -93h-19l18 94c-46 4 -85 29 -109 53l5 23c30 -33 67 -54 108 -58l68 351c-55 57 -85 110 -85 173c0 83 51 168 149 168h2zM256 190
c0 43 -6 92 -71 158l-65 -335c95 2 136 96 136 177zM106 536c0 -55 25 -101 68 -146l58 296h-1c-82 0 -125 -73 -125 -150z" />
    <glyph glyph-name="sterling" unicode="&#xa3;" horiz-adv-x="301" 
d="M-18 0l2 11l51 9l61 315h-54l4 19h54l38 200c12 65 28 97 50 119c24 24 53 34 84 34c32 0 60 -10 78 -20l-4 -21c-23 14 -50 21 -74 21c-26 0 -50 -9 -68 -27c-20 -20 -33 -51 -42 -97l-40 -209h136l-4 -19h-136l-61 -315h185l-4 -20h-256z" />
    <glyph glyph-name="Euro" unicode="&#x20ac;" horiz-adv-x="347" 
d="M43 427l4 18h66c24 87 60 168 107 215c36 36 70 44 98 44s55 -11 73 -26l-4 -23c-22 21 -50 29 -70 29c-22 0 -50 -6 -81 -37c-43 -43 -77 -118 -101 -202h164l-4 -18h-165c-12 -48 -21 -99 -26 -146h163l-3 -18h-162c-1 -21 -2 -41 -2 -59c0 -128 32 -188 100 -188
c23 0 47 8 70 23l-5 -24c-17 -11 -40 -19 -67 -19c-79 0 -120 63 -120 206c0 19 1 39 2 61h-67l3 18h66c4 47 13 97 26 146h-65z" />
    <glyph glyph-name="yen" unicode="&#xa5;" horiz-adv-x="336" 
d="M107 0l29 150h-103l3 18h104l22 116h-103l3 18h104l-68 398h22l61 -371l205 371h24l-224 -398h102l-3 -18h-103l-22 -116h102l-3 -18h-103l-29 -150h-20z" />
    <glyph glyph-name="cent" unicode="&#xa2;" horiz-adv-x="272" 
d="M242 703h19l-16 -85c28 -2 48 -14 60 -24l-5 -22c-14 13 -35 25 -59 27l-97 -499h10c15 0 38 5 59 19l-4 -22c-16 -9 -35 -16 -57 -16h-11l-17 -86h-19l17 90c-52 14 -79 70 -79 170c0 110 37 257 107 327c21 21 47 35 76 37zM65 255c0 -91 20 -138 61 -151l96 495
c-22 -2 -42 -14 -56 -28c-62 -62 -101 -209 -101 -316z" />
    <glyph glyph-name="numbersign" unicode="#" horiz-adv-x="368" 
d="M40 0l40 199h-69l4 20h69l53 262h-72l4 20h72l40 199h19l-40 -199h126l40 199h19l-40 -199h69l-4 -20h-69l-53 -262h72l-4 -20h-72l-40 -199h-19l40 199h-126l-40 -199h-19zM103 219h126l53 262h-126z" />
    <glyph glyph-name="paragraph" unicode="&#xb6;" horiz-adv-x="303" 
d="M174 0l51 258c-53 0 -95 19 -123 47c-31 31 -45 75 -45 127c0 78 27 151 74 198c43 43 101 70 175 70h27l-137 -700h-22z" />
    <glyph glyph-name="section" unicode="&#xa7;" horiz-adv-x="340" 
d="M330 337c0 -77 -68 -109 -139 -135c30 -33 42 -64 42 -96c0 -64 -46 -113 -115 -113c-38 0 -67 13 -87 27l4 22c29 -24 62 -31 82 -31c57 0 94 39 94 95c0 31 -9 64 -72 117c-81 68 -95 104 -95 140c0 77 68 109 139 135c-30 33 -42 64 -42 96c0 64 46 113 115 113
c38 0 67 -13 87 -27l-4 -22c-29 24 -62 31 -82 31c-57 0 -94 -39 -94 -95c0 -31 9 -64 72 -117c81 -68 95 -104 95 -140zM66 365c0 -36 15 -62 68 -110l44 -38c51 20 130 47 130 118c0 36 -15 62 -68 110l-44 38c-51 -20 -130 -47 -130 -118z" />
    <glyph glyph-name="ordfeminine" unicode="&#xaa;" horiz-adv-x="218" 
d="M131 403c-29 0 -50 21 -50 69c0 50 25 111 80 111c22 0 42 -9 55 -18l5 25c2 10 5 35 5 47c0 30 -16 46 -46 46c-17 0 -31 -4 -46 -11l2 17c13 7 30 11 46 11c38 0 61 -22 61 -62c0 -11 -2 -29 -5 -46l-35 -184h-17l7 40c-14 -24 -34 -45 -62 -45zM134 418
c32 0 61 41 70 86l9 46c-12 9 -32 19 -51 19c-46 0 -64 -57 -64 -97c0 -35 12 -54 36 -54zM52 336l3 14h145l-3 -14h-145z" />
    <glyph glyph-name="ordmasculine" unicode="&#xba;" horiz-adv-x="224" 
d="M53 336l3 14h149l-3 -14h-149zM104 501c0 -50 15 -82 45 -82c13 0 25 7 33 15c34 34 53 106 53 171c0 50 -15 82 -45 82c-13 0 -25 -7 -33 -15c-34 -34 -53 -106 -53 -171zM253 604c0 -65 -19 -141 -57 -179c-14 -14 -30 -22 -48 -22c-37 0 -62 34 -62 99s19 141 57 179
c14 14 30 22 48 22c37 0 62 -34 62 -99z" />
    <glyph glyph-name="degree" unicode="&#xb0;" horiz-adv-x="230" 
d="M196 708c41 0 74 -32 74 -105c0 -61 -20 -134 -60 -174c-14 -14 -34 -27 -60 -27c-41 0 -74 32 -74 105c0 61 20 134 60 174c14 14 34 27 60 27zM151 420c18 0 34 9 46 21c33 33 54 102 54 161c0 58 -21 88 -56 88c-18 0 -33 -8 -46 -21c-33 -33 -54 -102 -54 -161
c0 -58 21 -88 56 -88z" />
    <glyph glyph-name="percent" unicode="%" horiz-adv-x="484" 
d="M24 0l227 353l223 347h21l-227 -353l-223 -347h-21zM151 372c-47 0 -77 37 -77 109c0 73 28 156 69 197c18 18 38 27 58 27c47 0 77 -37 77 -109c0 -73 -28 -156 -69 -197c-18 -18 -38 -27 -58 -27zM151 389c14 0 27 4 44 21c37 37 64 115 64 185c0 57 -19 93 -58 93
c-14 0 -27 -4 -44 -21c-37 -37 -64 -115 -64 -185c0 -57 19 -93 58 -93zM318 -5c-47 0 -77 37 -77 109c0 73 28 156 69 197c18 18 38 27 58 27c47 0 77 -37 77 -109c0 -73 -28 -156 -69 -197c-18 -18 -38 -27 -58 -27zM318 12c14 0 27 4 44 21c37 37 64 115 64 185
c0 57 -19 93 -58 93c-14 0 -27 -4 -44 -21c-37 -37 -64 -115 -64 -185c0 -57 19 -93 58 -93z" />
    <glyph glyph-name="perthousand" unicode="&#x2030;" horiz-adv-x="730" 
d="M24 0l227 353l223 347h21l-227 -353l-223 -347h-21zM151 372c-47 0 -77 37 -77 109c0 73 28 156 69 197c18 18 38 27 58 27c47 0 77 -37 77 -109c0 -73 -28 -156 -69 -197c-18 -18 -38 -27 -58 -27zM151 389c14 0 27 4 44 21c37 37 64 115 64 185c0 57 -19 93 -58 93
c-14 0 -27 -4 -44 -21c-37 -37 -64 -115 -64 -185c0 -57 19 -93 58 -93zM318 -5c-47 0 -77 37 -77 109c0 73 28 156 69 197c18 18 38 27 58 27c47 0 77 -37 77 -109c0 -73 -28 -156 -69 -197c-18 -18 -38 -27 -58 -27zM318 12c14 0 27 4 44 21c37 37 64 115 64 185
c0 57 -19 93 -58 93c-14 0 -27 -4 -44 -21c-37 -37 -64 -115 -64 -185c0 -57 19 -93 58 -93zM564 -5c-47 0 -77 37 -77 109c0 73 28 156 69 197c18 18 38 27 58 27c47 0 77 -37 77 -109c0 -73 -28 -156 -69 -197c-18 -18 -38 -27 -58 -27zM564 12c14 0 27 4 44 21
c37 37 64 115 64 185c0 57 -19 93 -58 93c-14 0 -27 -4 -44 -21c-37 -37 -64 -115 -64 -185c0 -57 19 -93 58 -93z" />
    <glyph glyph-name="quotedbl" unicode="&#x22;" horiz-adv-x="206" 
d="M82 458l47 242h25l-2 -9l-58 -233h-12zM187 458l47 242h25l-2 -9l-58 -233h-12z" />
    <glyph glyph-name="quotesingle" unicode="'" horiz-adv-x="91" 
d="M82 458l47 242h25l-2 -9l-58 -233h-12z" />
    <glyph glyph-name="plus" unicode="+" horiz-adv-x="328" 
d="M143 207l27 135h-126l4 20h125l27 135h20l-27 -135h126l-4 -20h-125l-27 -135h-20z" />
    <glyph glyph-name="minus" unicode="&#x2212;" horiz-adv-x="328" 
d="M44 341l5 22h270l-5 -22h-270z" />
    <glyph glyph-name="divide" unicode="&#xf7;" horiz-adv-x="328" 
d="M138 203l8 43h26l-8 -43h-26zM43 341l5 22h270l-5 -22h-270zM189 458l8 43h26l-8 -43h-26z" />
    <glyph glyph-name="equal" unicode="=" horiz-adv-x="328" 
d="M36 272l4 21h260l-4 -21h-260zM63 411l4 21h260l-4 -21h-260z" />
    <glyph glyph-name="multiply" unicode="&#xd7;" horiz-adv-x="325" 
d="M57 228l-13 15l119 110l-76 109l16 12l75 -108l118 109l13 -15l-120 -110l77 -109l-16 -12l-75 107z" />
    <glyph glyph-name="less" unicode="&#x3c;" horiz-adv-x="340" 
d="M275 194l-219 151l3 14l277 151l-4 -25l-247 -135l194 -135z" />
    <glyph glyph-name="greater" unicode="&#x3e;" horiz-adv-x="340" 
d="M39 194l4 25l247 135l-194 135l4 21l219 -151l-3 -14z" />
    <glyph glyph-name="plusminus" unicode="&#xb1;" horiz-adv-x="328" 
d="M144 207l26 135h-125l4 20h125l26 135h20l-26 -135h125l-4 -20h-125l-26 -135h-20zM1 108l3 19h269l-3 -19h-269z" />
    <glyph glyph-name="space" unicode=" " horiz-adv-x="158" 
 />
    <glyph glyph-name="uni00A0" unicode="&#xa0;" horiz-adv-x="158" 
 />
    <glyph glyph-name="emspace" unicode="&#x2003;" horiz-adv-x="1000" 
 />
    <glyph glyph-name="enspace" unicode="&#x2002;" 
 />
    <glyph glyph-name="threeperemspace" unicode="&#x2004;" horiz-adv-x="333" 
 />
    <glyph glyph-name="fourperemspace" unicode="&#x2005;" horiz-adv-x="250" 
 />
    <glyph glyph-name="thinspace" unicode="&#x2009;" horiz-adv-x="100" 
 />
    <glyph glyph-name="hairspace" unicode="&#x200a;" horiz-adv-x="50" 
 />
    <glyph glyph-name="asciicircum" unicode="^" horiz-adv-x="300" 
d="M127 533l97 153h15l38 -153h-14l-35 129l-85 -129h-16z" />
    <glyph glyph-name="asciitilde" unicode="~" horiz-adv-x="294" 
d="M74 261l-14 4c14 34 29 62 56 62c16 0 27 -9 42 -26c16 -17 21 -24 34 -24c17 0 30 22 41 49l14 -4c-14 -34 -29 -62 -56 -62c-16 0 -27 9 -42 26c-16 17 -21 24 -34 24c-17 0 -30 -22 -41 -49z" />
    <glyph glyph-name="NUL" horiz-adv-x="0" 
 />
    <glyph glyph-name="hfjslug" horiz-adv-x="694" 
d="M255 276h8l11 34h1l11 -34h8l14 47h-8l-10 -35h-1l-11 35h-7l-11 -35h-1l-10 35h-8zM321 388c13 0 23 9 29 24h1l12 -24l12 6l-17 32c5 12 9 25 13 39l-13 3c-2 -9 -5 -21 -8 -30h-1l-16 31c13 12 23 26 23 42c0 17 -9 31 -27 31c-17 0 -28 -14 -28 -31
c0 -15 6 -24 14 -39c-15 -12 -23 -28 -23 -47c0 -22 12 -37 29 -37zM50 -200v303c18 0 32 14 32 32c0 17 -14 32 -32 32v554h100l30 79h334l29 -79h101v-921h-208l-8 14h-163l-8 -14h-207zM523 277h8v12l8 8l15 -20h10l-20 26l18 20h-10l-20 -24h-1v24h-8v-46zM193 277h34v7
h-26v13h23v7h-23v12h26v7h-34v-46zM184 391h15v79h47v-79h15v172h-15v-79h-47v79h-15v-172zM132 277h8v32l25 -32h7v46h-8v-32l-25 32h-7v-46zM400 391h15v78h38v14h-38v66h43v14h-58v-172zM468 277h8v15h12l10 -15h9l-12 17c5 2 10 6 10 14c0 9 -7 15 -17 15h-20v-46z
M366 277h8v17l18 29h-9l-13 -22l-13 22h-9l18 -29v-17zM481 390c20 0 31 11 31 36v137h-16v-137c0 -16 -5 -22 -16 -22c-6 0 -15 3 -20 5v-15c5 -2 14 -4 21 -4zM476 299v17h11c6 0 10 -3 10 -8s-4 -9 -10 -9h-11zM322 402c-9 0 -16 10 -16 25c0 13 7 26 16 35l20 -39
c-5 -13 -12 -21 -20 -21zM327 479c-7 13 -12 22 -12 32c0 11 6 19 14 19s13 -8 13 -19c0 -12 -5 -21 -15 -32zM426 283c-10 0 -16 8 -16 17c0 8 6 17 16 17s16 -9 16 -17c0 -9 -6 -17 -16 -17zM426 276c14 0 24 11 24 24c0 12 -10 24 -24 24s-24 -12 -24 -24
c0 -13 10 -24 24 -24z" />
    <glyph glyph-name="i.dot" horiz-adv-x="135" 
d="M7 0l100 521h21l-100 -521h-21zM130 650l11 57h25l-11 -57h-25z" />
    <glyph glyph-name="acute" unicode="&#xb4;" 
d="M261 576l90 118l22 -12l-100 -106h-12z" />
    <glyph glyph-name="hungarumlaut" unicode="&#x2dd;" 
d="M225 576l89 119l22 -13l-99 -106h-12zM299 576l89 119l22 -13l-99 -106h-12z" />
    <glyph glyph-name="caron.alt" 
d="M268 559l37 148h21v-2l-48 -146h-10z" />
    <glyph glyph-name="grave" unicode="`" 
d="M350 576l-76 107l21 11l66 -118h-11z" />
    <glyph glyph-name="circumflex" unicode="&#x2c6;" 
d="M235 581l92 122h15l46 -122h-14l-43 98l-80 -98h-16z" />
    <glyph glyph-name="caron" unicode="&#x2c7;" 
d="M305 581l-46 122h14l43 -98l80 98h16l-92 -122h-15z" />
    <glyph glyph-name="breve" unicode="&#x2d8;" 
d="M314 579c-54 0 -80 38 -77 94h18c-2 -38 11 -76 60 -76c51 0 76 38 90 76h18c-19 -56 -55 -94 -109 -94z" />
    <glyph glyph-name="tilde" unicode="&#x2dc;" 
d="M400 658l16 -4c-13 -36 -31 -67 -59 -67c-15 0 -26 10 -39 25c-17 18 -25 27 -36 27c-15 0 -29 -18 -42 -53l-16 4c13 36 31 67 59 67c17 0 28 -12 43 -29c16 -18 23 -23 32 -23c16 0 29 18 42 53z" />
    <glyph glyph-name="macron" unicode="&#xaf;" 
d="M234 588l4 18h160l-4 -18h-160z" />
    <glyph glyph-name="dieresis" unicode="&#xa8;" 
d="M261 586l7 37h26l-7 -37h-26zM339 586l7 37h26l-7 -37h-26z" />
    <glyph glyph-name="dotaccent" unicode="&#x2d9;" 
d="M299 586l7 37h26l-7 -37h-26z" />
    <glyph glyph-name="ring" unicode="&#x2da;" 
d="M396 662c0 -43 -32 -76 -73 -76c-39 0 -65 29 -65 66c0 43 32 76 73 76c39 0 65 -29 65 -66zM272 653c0 -31 20 -54 51 -54c35 0 59 29 59 62c0 31 -20 54 -51 54c-35 0 -59 -29 -59 -62z" />
    <glyph glyph-name="acute.cap" 
d="M293 740l81 99l22 -12l-91 -87h-12z" />
    <glyph glyph-name="hungarumlaut.cap" 
d="M257 740l81 100l22 -13l-91 -87h-12zM326 740l78 100l22 -13l-88 -87h-12z" />
    <glyph glyph-name="grave.cap" 
d="M382 740l-67 88l21 11l57 -99h-11z" />
    <glyph glyph-name="circumflex.cap" 
d="M268 745l88 97h15l50 -97h-14l-48 74l-75 -74h-16z" />
    <glyph glyph-name="caron.cap" 
d="M439 842l-88 -97h-15l-50 97h14l47 -74l76 74h16z" />
    <glyph glyph-name="breve.cap" 
d="M347 743c-47 0 -83 25 -81 79h18c-1 -36 19 -61 63 -61c46 0 74 25 87 61h18c-18 -54 -58 -79 -105 -79z" />
    <glyph glyph-name="tilde.cap" 
d="M270 749l-16 4c16 36 34 58 58 58c16 0 29 -9 46 -23c18 -14 26 -21 37 -21c15 0 27 15 41 44l16 -4c-16 -36 -34 -58 -58 -58c-16 0 -29 9 -46 23c-18 14 -26 21 -37 21c-15 0 -27 -15 -41 -44z" />
    <glyph glyph-name="macron.cap" 
d="M266 752l4 18h160l-4 -18h-160z" />
    <glyph glyph-name="dieresis.cap" 
d="M293 750l7 37h26l-7 -37h-26zM371 750l7 37h26l-7 -37h-26z" />
    <glyph glyph-name="dotaccent.cap" 
d="M331 750l7 37h26l-7 -37h-26z" />
    <glyph glyph-name="ring.cap" 
d="M363 883c40 0 66 -28 66 -63c0 -41 -34 -73 -76 -73c-40 0 -66 28 -66 63c0 41 34 73 76 73zM354 761c35 0 60 27 60 58c0 29 -21 50 -52 50c-35 0 -60 -27 -60 -58c0 -29 21 -50 52 -50z" />
    <glyph glyph-name="commaaccent" unicode="&#x326;" 
d="M150 -175l-5 13c22 12 28 18 32 47h-11l10 50h28l-11 -58c-6 -33 -20 -42 -43 -52z" />
    <glyph glyph-name="cedilla" unicode="&#xb8;" 
d="M150 -105l-21 10l79 105h12z" />
    <glyph glyph-name="ogonek" unicode="&#x2db;" 
d="M214 -93l-3 -15c-8 -1 -12 -1 -14 -1c-33 0 -46 17 -46 36c0 24 17 44 56 77h14c-43 -41 -50 -59 -50 -73c0 -13 8 -26 43 -24z" />
    </font>
</defs>
</svg>
