<?xml version="1.0" encoding="UTF-8" standalone="no"?>
<svg width="40px" height="37px" viewBox="0 0 40 37" version="1.1" xmlns="http://www.w3.org/2000/svg" xmlns:xlink="http://www.w3.org/1999/xlink" xmlns:sketch="http://www.bohemiancoding.com/sketch/ns">
    <defs></defs>
    <g id="Web-Site" stroke="none" stroke-width="1" fill="none" fill-rule="evenodd" sketch:type="MSPage">
        <g id="Desktop-HD---Home-Page" sketch:type="MSArtboardGroup" transform="translate(-51.000000, -94.000000)" fill="#FFFFFF">
            <g id="menu-bar" sketch:type="MSLayerGroup" transform="translate(20.000000, 26.000000)">
                <g id="Menu---My-Health" transform="translate(0.000000, 35.000000)" sketch:type="MSShapeGroup">
                    <path d="M54.4258688,43.2817246 L53.5249262,60.9184558 L57.8778674,48.7605749 C58.3288769,46.8844185 57.277239,45.3085762 55.9274398,44.1826671 C55.4764303,43.8070053 54.9511496,43.4324199 54.4258688,43.2817246 Z M51.2741844,42.0061965 C54.4258688,42.0815442 55.6271256,39.829726 55.7013968,37.6532554 C55.8520921,34.3519521 53.7509692,33 51.2741844,33 C48.7973996,33 46.8458956,34.4262233 46.9212432,37.6532554 C46.9965909,39.4540641 47.7468382,41.9308489 51.2741844,42.0061965 L51.2741844,42.0061965 Z M41.9676737,40.9556351 C42.1937166,35.5521324 33.8624197,35.777099 34.1627339,40.9556351 C33.8624197,46.3591377 42.4929544,46.4344854 41.9676737,40.9556351 L41.9676737,40.9556351 Z M67.56004,43.732734 C67.7096589,38.4035026 59.7540238,38.328155 59.9047191,43.732734 C59.8293715,48.6852272 67.7850065,48.9112701 67.56004,43.732734 L67.56004,43.732734 Z M70.6363768,70 L70.6363768,66.4726537 C67.7096589,67.7481818 65.1575265,68.7987432 62.3804275,70 L70.6363768,70 L70.6363768,70 Z M31.0110495,70 L40.0161696,70 L31.0110495,66.1712632 L31.0110495,70 L31.0110495,70 Z M70.6363768,65.6470588 L70.6363768,61.9690173 C67.7850065,63.8451737 64.782941,65.7213301 62.1565373,67.5974865 L70.6363768,65.6470588 L70.6363768,65.6470588 Z M31.0110495,65.4210159 C34.0873862,66.0969919 37.4651136,66.9225868 40.2422126,67.5232152 L31.0110495,61.4437365 L31.0110495,65.4210159 L31.0110495,65.4210159 Z M70.6363768,61.0691511 L70.6363768,56.2652004 L61.0306282,65.6470588 C64.3319315,64.1454879 67.3339971,62.6449933 70.6363768,61.0691511 L70.6363768,61.0691511 Z M31.0853207,60.7688369 L41.2174264,65.4210159 C37.839699,62.0443649 34.4630481,58.8173329 31.0853207,55.5149532 L31.0853207,60.7688369 L31.0853207,60.7688369 Z M70.0357484,52.1383022 C69.8107818,51.6872927 69.5104676,51.2373596 69.1358822,50.8616978 L59.5290573,63.9205213 C63.3567177,61.0691511 67.0347593,58.2167045 70.6363768,55.2899866 C70.7117244,54.1640775 70.5610291,53.0381684 70.0357484,52.1383022 L70.0357484,52.1383022 Z M31.0110495,54.6893582 C34.9129812,57.6914238 38.8159893,60.7688369 42.7179209,63.769826 L32.2112298,48.9112701 C31.236016,50.5613836 30.9357018,52.5128876 31.0110495,54.6893582 L31.0110495,54.6893582 Z M63.8819984,48.384913 L57.5775532,62.494298 L68.6848727,50.4117647 C67.4093447,49.060889 65.7581548,48.4602607 63.8819984,48.384913 L63.8819984,48.384913 Z M57.5775532,52.1383022 L55.6271256,61.6687031 C58.1781816,57.2414907 60.730314,52.8885495 63.2070988,48.384913 C60.8045853,48.610956 58.4031482,49.5108221 57.5775532,52.1383022 L57.5775532,52.1383022 Z M32.5868917,48.384913 L44.5198061,62.2693315 L37.1647994,45.9092046 C35.2132954,45.9834759 33.5621055,46.9597661 32.5868917,48.384913 L32.5868917,48.384913 Z M37.7654278,45.833857 C40.6921457,50.9370454 43.6942112,56.490167 46.5455814,61.3683889 C45.5703676,57.0907954 44.5198061,49.9618316 43.0182351,47.9349799 C41.292774,45.5335428 37.7654278,45.833857 37.7654278,45.833857 L37.7654278,45.833857 Z M46.620929,44.1826671 C45.1947057,45.3085762 44.2194919,46.8844185 44.5940773,48.6852272 L48.9470185,60.8431082 L48.1214236,43.2817246 C47.5961429,43.4324199 46.9965909,43.8070053 46.620929,44.1826671 L46.620929,44.1826671 Z M48.722052,43.1321057 L51.2741844,60.6934893 L53.8252404,43.1321057 C52.3247459,42.6068249 50.3732418,42.5314773 48.722052,43.1321057 L48.722052,43.1321057 Z" id="logo"></path>
                </g>
            </g>
        </g>
    </g>
</svg>